<svg xmlns="http://www.w3.org/2000/svg" width="40" height="39" fill="none" viewBox="0 0 40 39"><path fill="#5B574A" d="M19.484 8.293a4.151 4.151 0 0 0 4.156-4.146C23.64 1.857 21.78 0 19.484 0a4.151 4.151 0 0 0-4.156 4.147 4.15 4.15 0 0 0 4.156 4.146Zm7.349 6.183c0-3.412-2.773-6.18-6.194-6.18h-2.312c-3.42 0-6.194 2.768-6.194 6.18v1.735h14.7v-1.735ZM7.351 31.082a4.151 4.151 0 0 0 4.156-4.146c0-2.29-1.86-4.147-4.156-4.147a4.151 4.151 0 0 0-4.156 4.147 4.151 4.151 0 0 0 4.156 4.146Zm7.349 6.183c0-3.412-2.773-6.18-6.194-6.18H6.194c-3.42 0-6.194 2.768-6.194 6.18V39h14.7v-1.735Zm16.956-6.183a4.151 4.151 0 0 0 4.156-4.146c0-2.29-1.86-4.147-4.156-4.147a4.151 4.151 0 0 0-4.156 4.147 4.15 4.15 0 0 0 4.156 4.146Zm7.349 6.183c0-3.412-2.774-6.18-6.194-6.18h-2.313c-3.42 0-6.193 2.768-6.193 6.18V39h14.7v-1.735Z"/><path fill="#FFE142" d="M2.756 23.193c-.51 0-.954-.387-1.003-.903a17.709 17.709 0 0 1-.097-1.856c0-6.865 3.842-13.004 10.037-16.013a1.018 1.018 0 0 1 1.35.46c.243.5.04 1.105-.46 1.347-5.492 2.67-8.897 8.116-8.897 14.206 0 .549.033 1.105.081 1.646a1.007 1.007 0 0 1-.906 1.105h-.105v.008Zm16.739 15.059a18.64 18.64 0 0 1-2.596-.186 1.012 1.012 0 0 1-.857-1.145 1.02 1.02 0 0 1 1.148-.855c1.513.217 3.098.217 4.61 0a1.01 1.01 0 1 1 .291 2c-.849.121-1.722.186-2.596.186Zm16.761-15.059h-.105a1.008 1.008 0 0 1-.906-1.106c.056-.54.08-1.089.08-1.637 0-6.09-3.412-11.536-8.904-14.206a1.009 1.009 0 1 1 .882-1.815c6.195 3.009 10.044 9.148 10.044 16.02 0 .622-.032 1.243-.097 1.848a1.013 1.013 0 0 1-1.002.904l.008-.008Z"/></svg>