<svg xmlns="http://www.w3.org/2000/svg" width="20" height="31" fill="none" viewBox="0 0 20 31"><g clip-path="url(#a)"><path fill="#FFF3C5" d="M12.144 29.717s-1.058.291-2.41.252c-1.352.04-2.41-.252-2.41-.252h-.056C4.615 28.669 4.654 25.29 5.555 23c.658-1.673 2.23-3.302 4.18-3.302 1.949 0 3.52 1.629 4.178 3.302.901 2.29.94 5.67-1.713 6.717h-.056Z"/><path fill="#F8C788" d="M16.463 23.468c.252 1.092.301 2.036.279 2.761-.014.43-.065.873-.188 1.28-.191.635-.557 1.183-1.229 1.466 0 0 1.274.385 1.201 1.248-.073.863-2.347.844-3.371.708-1.005-.132-1.17-.583-1.013-1.213h.056c2.652-1.047 2.613-4.427 1.713-6.717-.658-1.673-2.23-3.301-4.18-3.301-1.948 0-3.52 1.628-4.178 3.3-.901 2.291-.94 5.67 1.712 6.718h.057c.157.63-.01 1.08-1.013 1.213-1.024.136-3.299.155-3.372-.708-.073-.863 1.201-1.248 1.201-1.248-1.102-.464-1.382-1.645-1.416-2.746-.022-.725.027-1.67.278-2.761-.291.34-1.54.215-1.722-.655-.182-.87.216-1.988 1.102-3.598.757-1.375 1.785-2.317 2.833-2.999 1.366.19 2.857.326 4.519.326s3.153-.136 4.519-.326c1.047.682 2.076 1.624 2.833 3 .885 1.61 1.283 2.727 1.102 3.597-.183.87-1.432.995-1.723.655Z"/><mask id="b" width="18" height="15" x="1" y="16" maskUnits="userSpaceOnUse" style="mask-type:luminance"><path fill="#fff" d="M16.471 23.468c.252 1.092.3 2.036.279 2.761-.014.43-.065.873-.188 1.28-.191.635-.557 1.183-1.229 1.466 0 0 1.274.385 1.201 1.248-.073.863-2.347.844-3.371.708-1.005-.132-1.17-.583-1.013-1.213h.056c2.652-1.047 2.613-4.427 1.713-6.717-.658-1.673-2.23-3.301-4.18-3.301-1.948 0-3.52 1.628-4.179 3.3-.9 2.291-.94 5.67 1.713 6.718h.057c.157.63-.01 1.08-1.014 1.213-1.024.136-3.298.155-3.371-.708-.073-.863 1.201-1.248 1.201-1.248-1.103-.464-1.382-1.645-1.416-2.746-.022-.725.027-1.67.278-2.761-.291.34-1.54.215-1.722-.655-.182-.87.216-1.988 1.102-3.598.757-1.375 1.785-2.317 2.833-2.999 1.366.19 2.856.326 4.519.326 1.662 0 3.153-.136 4.519-.326 1.047.682 2.076 1.624 2.833 3 .885 1.61 1.283 2.727 1.101 3.597-.182.87-1.43.995-1.722.655Z"/></mask><g mask="url(#b)"><path fill="#F8C788" d="M9.74 15.781H3.616l.093.55s1.788.8 6.03.8c4.241 0 6.03-.8 6.03-.8l.092-.55H9.74Z" opacity=".7" style="mix-blend-mode:multiply"/></g><path fill="#705842" d="M2.898 23.447c.092-.728.309-1.443.584-2.12.441-1.138 1.063-2.222 1.889-3.117.118-.129.318.034.219.18-.55.777-1.04 1.58-1.43 2.45a27.345 27.345 0 0 0-1.055 2.656c-.042.12-.223.08-.207-.049Zm11.179-5.226c.829.892 1.454 1.972 1.902 3.108.28.677.5 1.387.6 2.116.019.148-.192.2-.24.057a25.64 25.64 0 0 0-1.344-3.303c-.322-.638-.705-1.23-1.113-1.818-.088-.128.088-.276.195-.16Z"/><path fill="#F8C788" d="M9.721 4.137a.83.83 0 0 0-.283.693c.015.142.066.222.152.237.155.027.406-.127.554-.433a2.04 2.04 0 0 0 .197-.68 1.024 1.024 0 0 0-.104-.005.77.77 0 0 0-.517.188h.001Z"/><path fill="#705842" d="M7.397 4.06c-.161.742-.035 1.414.354 1.891.277.34.822.735 1.86.735.041 0 .084 0 .126-.002 1.125-.035 1.8-.82 1.95-1.537.138-.653-.123-1.229-.68-1.501a2.264 2.264 0 0 0-.185-.082 1.607 1.607 0 0 0-.4-.895.244.244 0 0 0-.348-.015.253.253 0 0 0-.015.353c.115.127.195.275.24.444a1.262 1.262 0 0 0-.904.305 1.33 1.33 0 0 0-.453 1.128c.04.368.247.62.557.675.04.008.082.011.123.011.366 0 .747-.278.959-.715.119-.244.196-.498.232-.748.332.173.479.521.392.935-.112.531-.623 1.115-1.483 1.14-.729.023-1.28-.168-1.591-.55-.29-.357-.38-.877-.253-1.466.28-1.281.937-2.203 2.2-3.08a.252.252 0 0 0 .106-.198 10.435 10.435 0 0 0-.454-.01 8 8 0 0 0-.217.004c-1.176.888-1.834 1.88-2.116 3.176v.001Zm2.742.574c-.149.307-.4.46-.555.433-.085-.015-.136-.095-.152-.237a.83.83 0 0 1 .284-.693.77.77 0 0 1 .516-.187c.033 0 .068.002.105.005a2.04 2.04 0 0 1-.197.68h-.001Z"/><path fill="#FFF3C5" d="M18.504 1.504a2.47 2.47 0 0 1 .114 1.634c-.22.785-.848 1.444-1.864 1.603a8.57 8.57 0 0 0-1.14-1.538c.078-.152.49-.88 1.515-1.338 0 0 .442-.212 1.375-.361Zm-16.167.361c1.026.458 1.438 1.186 1.515 1.338-.435.462-.812.98-1.14 1.538C1.015 4.475.4 2.815.963 1.504c.934.15 1.375.36 1.375.36Z"/><path fill="#FC9268" d="M5.24 11.96c.895 1.317.396 3.383 0 4.252h-.008l-.018.012a43.168 43.168 0 0 1-.983-.147c-1.22-.197-3.948-.73-4.204-3.188a2.733 2.733 0 0 1 1.529-2.846c1.652.093 2.788.601 3.683 1.918Zm14.067-.36c.123.356.183.783.13 1.29-.14 1.347-1.024 2.115-1.995 2.568-.8.372-1.658.53-2.21.619-.32.051-.647.101-.982.147l-.017-.012h-.008c-.397-.869-.896-2.935 0-4.252.895-1.316 2.031-1.824 3.683-1.917 0 0 1.011.424 1.399 1.556Z"/><path fill="#F8C788" d="M17.74.512c.349.275.602.618.76.988-.933.15-1.374.361-1.374.361C16.1 2.32 15.688 3.047 15.61 3.2a7.04 7.04 0 0 0-1.587-1.27C14.112.572 16.154-.74 17.74.512ZM5.442 1.93c-.6.35-1.126.78-1.587 1.27-.077-.153-.49-.88-1.515-1.339 0 0-.441-.211-1.374-.36.158-.37.411-.714.76-.99 1.586-1.25 3.628.06 3.716 1.418Z"/><path fill="#705842" d="M13.306 8.896c.422 0 .763.346.763.774a.768.768 0 0 1-.763.773.768.768 0 0 1-.762-.773c0-.427.341-.774.762-.774Zm-7.146 0c.42 0 .762.346.762.774a.768.768 0 0 1-.762.773.768.768 0 0 1-.763-.773.77.77 0 0 1 .763-.774Z"/><path fill="#F8C788" d="M17.942 9.01c-.029-.98-.226-2.52-1.043-4.012a8.565 8.565 0 0 0-1.288-1.801 7.085 7.085 0 0 0-1.587-1.27c-1.037-.606-2.3-.981-3.836-1.043a.25.25 0 0 1-.107.199c-1.263.877-1.92 1.798-2.2 3.08-.127.588-.037 1.109.254 1.465.312.382.863.573 1.591.551.86-.026 1.371-.61 1.482-1.14.087-.415-.06-.762-.391-.936a2.54 2.54 0 0 1-.233.748c-.212.438-.592.715-.958.715a.74.74 0 0 1-.124-.01c-.308-.055-.517-.308-.557-.676a1.33 1.33 0 0 1 .454-1.128 1.26 1.26 0 0 1 .904-.305 1.06 1.06 0 0 0-.24-.444.252.252 0 0 1 .015-.353.244.244 0 0 1 .348.015c.221.244.357.552.4.896.061.023.123.05.185.081.557.273.817.848.68 1.502-.15.716-.825 1.502-1.95 1.536a4.351 4.351 0 0 1-.126.002c-1.038 0-1.583-.395-1.86-.734-.39-.478-.516-1.15-.354-1.893.282-1.296.94-2.288 2.116-3.177-1.646.031-2.984.413-4.074 1.05a7.068 7.068 0 0 0-1.588 1.27 8.565 8.565 0 0 0-1.288 1.801c-1.343 2.454-1.011 5.04-1.011 5.04 1.652.094 2.788.601 3.683 1.918.896 1.316.397 3.383 0 4.252h-.007l-.017.011c1.366.19 2.856.326 4.518.326 1.663 0 3.153-.136 4.52-.326l-.018-.011h-.008c-.397-.87-.896-2.936 0-4.252.895-1.317 2.031-1.824 3.683-1.918 0 0 .052-.397.032-1.029ZM6.157 10.438a.768.768 0 0 1-.762-.774c0-.427.341-.774.762-.774s.763.347.763.774a.768.768 0 0 1-.763.774Zm3.576.4c-.36 0-.617-.097-.584-.314.03-.21.299-.322.584-.314.286-.009.554.104.585.314.032.217-.225.314-.585.314Zm3.576-.4a.768.768 0 0 1-.762-.774c0-.427.341-.774.762-.774a.77.77 0 0 1 .763.774.768.768 0 0 1-.763.774Z"/><path fill="#705842" d="m10.536 11.21-.557-.285v-.105c.223-.037.362-.133.338-.296-.031-.21-.3-.322-.584-.314-.286-.008-.554.104-.585.314-.025.163.114.259.338.296v.105l-.557.284a.252.252 0 0 0-.11.336.245.245 0 0 0 .33.111l.584-.297.583.297a.242.242 0 0 0 .331-.111.252.252 0 0 0-.11-.336Z"/></g><defs><clipPath id="a"><path fill="#fff" d="M0 0h19.45v30.998H0z"/></clipPath></defs></svg>