<svg xmlns="http://www.w3.org/2000/svg" width="56" height="56" fill="none" viewBox="0 0 56 56"><path fill="#5B574A" d="M27.992 14.702c3.87 0 7.009-3.291 7.009-7.35C35 3.291 31.863 0 27.993 0c-3.871 0-7.009 3.291-7.009 7.351 0 4.06 3.138 7.351 7.008 7.351ZM38.995 32.17l-2.15-13.707c-.223-1.274-1.282-2.197-2.518-2.197H21.67c-1.237 0-2.296.923-2.518 2.197l-2.15 13.708c-.223 1.297.724 2.477 1.971 2.477h1.95l1.404 12.119c.156 1.39 1.281 2.43 2.618 2.43h6.106c1.326 0 2.451-1.04 2.618-2.43l1.404-12.119h1.95c1.248 0 2.195-1.192 1.972-2.477Z"/><path fill="#FFE142" d="M54.61 55.999H1.398c-.446 0-.869-.234-1.136-.608a1.54 1.54 0 0 1-.19-1.32L7.214 32.24a1.4 1.4 0 0 1 1.315-.982h4.601c.769 0 1.393.654 1.393 1.46 0 .807-.624 1.461-1.393 1.461H9.531L3.348 53.09H52.66l-6.184-18.91h-3.61c-.768 0-1.392-.654-1.392-1.46 0-.807.623-1.461 1.392-1.461h4.602a1.4 1.4 0 0 1 1.314.982l7.142 21.83c.145.445.078.935-.19 1.321A1.37 1.37 0 0 1 54.6 56h.012Z"/></svg>