<svg width="53" height="12" viewBox="0 0 53 12" fill="none" xmlns="http://www.w3.org/2000/svg">
<path d="M6.62561 4.50572L8.30625 9.38852L9.78668 4.31524C9.8759 4.00817 10.156 3.79792 10.4745 3.79792C10.9611 3.79792 11.3065 4.27464 11.1561 4.73888L9.29286 10.5043C9.15384 10.9342 8.75443 11.2257 8.30418 11.2257C7.86223 11.2257 7.46904 10.9457 7.32276 10.5272L5.59647 5.57367L3.91271 10.52C3.76954 10.9415 3.37324 11.2257 2.92922 11.2257H2.90121C2.452 11.2257 2.05362 10.9363 1.91357 10.5085L0.0378813 4.77947C-0.120847 4.29546 0.239144 3.79792 0.746451 3.79792C1.07636 3.79792 1.36684 4.01546 1.46124 4.33189L2.96449 9.38748L4.64514 4.50468C4.79142 4.08104 5.18876 3.79688 5.63485 3.79688C6.08199 3.79792 6.47933 4.08208 6.62561 4.50572Z" fill="#222222"/>
<path d="M16.9951 6.74736C17.077 6.74736 17.1393 6.67658 17.132 6.59435C17.0418 5.60238 16.355 4.84774 15.109 4.84774C13.9606 4.84774 13.2375 5.68877 13.1088 6.58914C13.0974 6.67241 13.1607 6.74736 13.2447 6.74736H16.9951ZM17.9246 8.87493C18.3209 9.01233 18.49 9.48177 18.2732 9.84087C17.7036 10.787 16.6652 11.4574 15.2781 11.4574C13.2925 11.4574 11.5537 10.0053 11.5537 7.48847C11.5537 5.15688 13.2312 3.56641 15.0934 3.56641C17.3717 3.56641 18.6487 5.14127 18.6487 7.45828V7.46349C18.6487 7.71538 18.4433 7.92148 18.1923 7.92148H13.0466C13.0777 9.24965 14.0311 10.176 15.2781 10.176C16.2357 10.176 16.8104 9.75448 17.1455 9.16013C17.298 8.88846 17.63 8.77292 17.9246 8.87493Z" fill="#222222"/>
<path d="M37.1346 7.50447C37.1346 5.787 36.0557 4.85957 34.8222 4.85957C33.5887 4.85957 32.5097 5.78804 32.5097 7.50447C32.5097 9.2365 33.5887 10.165 34.8222 10.165C36.0557 10.165 37.1346 9.2365 37.1346 7.50447ZM38.615 7.50447C38.615 9.7788 37.0423 11.464 34.8222 11.464C32.6021 11.464 31.0293 9.77776 31.0293 7.50447C31.0293 5.24574 32.6021 3.56055 34.8222 3.56055C37.0423 3.56055 38.615 5.24574 38.615 7.50447Z" fill="#222222"/>
<path d="M45.3378 7.50447C45.3378 5.787 44.2589 4.85957 43.0254 4.85957C41.7918 4.85957 40.7129 5.78804 40.7129 7.50447C40.7129 9.2365 41.7918 10.165 43.0254 10.165C44.2578 10.165 45.3378 9.2365 45.3378 7.50447ZM46.8172 7.50447C46.8172 9.7788 45.2444 11.464 43.0243 11.464C40.8042 11.464 39.2314 9.77776 39.2314 7.50447C39.2314 5.24574 40.8042 3.56055 43.0243 3.56055C45.2444 3.56055 46.8172 5.24574 46.8172 7.50447Z" fill="#222222"/>
<path d="M48.7676 11.2311H48.7832C49.1795 11.2311 49.5 10.9094 49.5 10.5118V0.759742C49.5 0.35796 49.1753 0.0332031 48.7759 0.0332031C48.3754 0.0332031 48.0518 0.359001 48.0518 0.759742V10.5128C48.0507 10.9094 48.3713 11.2311 48.7676 11.2311Z" fill="#222222"/>
<path d="M52.0674 3.0925C52.4637 3.0925 52.7843 3.41413 52.7843 3.81175V10.5109C52.7843 10.9085 52.4637 11.2302 52.0674 11.2302C51.6711 11.2302 51.3506 10.9085 51.3506 10.5109V3.81175C51.3506 3.41413 51.6711 3.0925 52.0674 3.0925ZM52.0602 0.03125C52.5851 0.03125 53.0001 0.447605 53.0001 0.974293C53.0001 1.48745 52.5851 1.90276 52.0602 1.90276C51.5487 1.90276 51.1348 1.48641 51.1348 0.974293C51.1348 0.447605 51.5487 0.03125 52.0602 0.03125Z" fill="#222222"/>
<path d="M26.0129 6.47848C26.0129 6.93126 25.6477 7.29766 25.1965 7.29766C24.9796 7.29766 24.7836 7.21335 24.6373 7.07491C24.6362 7.07387 24.6352 7.07283 24.6331 7.07178C24.5097 6.95729 24.4308 6.80844 24.3976 6.65023C24.3852 6.59402 24.3789 6.53677 24.3789 6.47744C24.3789 6.32755 24.4194 6.18807 24.4889 6.06733C24.6995 5.61767 25.5274 5.38867 25.5274 5.38867C25.5274 5.38867 26.0606 5.85603 26.0129 6.47848ZM24.1237 4.20102C24.2264 4.27388 24.325 4.34466 24.4194 4.4144C24.0885 4.59656 23.798 4.82139 23.5697 5.08265C22.7989 5.96324 22.8871 7.31119 23.7658 8.08873L23.7949 8.11267C24.6798 8.81111 26.0554 8.67683 26.7983 7.82018C27.3906 7.13632 27.5089 6.22346 27.1126 5.3793C27.0991 5.35016 27.0306 5.24086 27.0161 5.21068C27.5058 5.3106 28.1199 5.64577 28.5422 6.24844C28.9374 6.8126 28.9997 8.11996 28.0857 9.10464C27.7869 9.42627 27.4259 9.64694 27.1074 9.79162C26.5389 10.0508 25.9393 10.1341 25.3272 10.1341C23.3529 10.1341 21.4887 8.68412 21.4887 5.75194C21.4887 2.8208 23.4162 1.40103 25.3894 1.40103C26.6312 1.40103 27.6521 1.89441 28.3077 2.77396C28.5173 3.055 28.8918 3.15597 29.2113 3.01337C29.6543 2.81456 29.7964 2.2504 29.4966 1.86735C28.5889 0.711967 27.1333 0 25.3894 0C22.6693 0 19.9346 2.01203 19.9346 5.75402C19.9346 9.49601 22.5147 11.5237 25.2815 11.5237C26.3044 11.5237 27.8129 11.3634 29.0619 10.0154C30.3982 8.57378 30.4013 6.57736 29.6325 5.48027C28.9655 4.5289 27.9353 3.9689 26.7319 3.90437C26.4673 3.88979 26.2038 3.9002 25.9444 3.93247C25.7245 3.73782 25.2473 3.38913 24.878 3.12578C24.5989 2.92697 24.213 2.97694 23.9941 3.24132C23.7492 3.53797 23.8104 3.97931 24.1237 4.20102Z" fill="#222222"/>
</svg>
