<svg xmlns="http://www.w3.org/2000/svg" width="46" height="46" fill="none" viewBox="0 0 46 46"><g clip-path="url(#a)"><path fill="#FFCC08" d="M34.5 21.083v3.833h7.667v-3.833H34.5Zm-3.833 12.669c1.84 1.36 4.236 3.162 6.133 4.58.767-1.015 1.534-2.05 2.3-3.066-1.897-1.418-4.293-3.22-6.133-4.6a429.567 429.567 0 0 1-2.3 3.086Zm8.433-23.02c-.767-1.015-1.533-2.05-2.3-3.066-1.897 1.418-4.293 3.22-6.133 4.6.766 1.016 1.533 2.05 2.3 3.067 1.84-1.38 4.236-3.163 6.133-4.6ZM7.667 17.25a3.845 3.845 0 0 0-3.833 3.834v3.833a3.845 3.845 0 0 0 3.833 3.833h1.917v7.667h3.833V28.75h1.917l9.583 5.75v-23l-9.584 5.75H7.668ZM29.708 23a8.584 8.584 0 0 0-2.874-6.42V29.4a8.514 8.514 0 0 0 2.875-6.402Z"/></g><defs><clipPath id="a"><path fill="#fff" d="M0 0h46v46H0z"/></clipPath></defs></svg>