<svg xmlns="http://www.w3.org/2000/svg" width="49" height="19" fill="none" viewBox="0 0 49 19"><path fill="#222" d="M14.645 2.188c.426 0 .638.189.638.567V4.81c0 .378-.212.567-.638.567l-.939.018-.106 3.349.797-.018c.425 0 .638.189.638.567v2.126c0 .378-.213.567-.638.567l-10.596.178c-.425 0-.638-.19-.638-.567V9.47c0-.378.213-.567.638-.567l.833-.018-.053-3.349-.904.018c-.425 0-.638-.189-.638-.567V2.932c0-.378.213-.567.638-.567l10.968-.178ZM3.836 16.328c-.425 0-.637-.19-.637-.567V13.67c0-.378.212-.567.637-.567l10.739-.178c.425 0 .637.19.637.567v2.091c0 .378-.212.568-.637.568l-10.739.177Zm4.36-7.496 1.842-.035.036-3.35-1.896.036.017 3.35Zm13.11-1.279v.709l2.392-.071c.425-.012.638.177.638.567v1.95c0 .2-.053.342-.16.424-.106.083-.265.13-.478.142l-5.21.177c-.26.012-.448-.047-.566-.177-.107-.142-.16-.366-.16-.673l-.053-4.714c0-.307.053-.513.16-.62.106-.118.295-.195.567-.23l2.268-.32.017-.726-2.622.089c-.425.024-.638-.165-.638-.567V1.582c0-.201.053-.343.16-.426.106-.082.265-.13.478-.141L23.68.837c.272-.012.461.053.567.195.119.13.172.349.16.656l-.142 4.766c-.012.308-.07.52-.177.638-.095.107-.272.172-.532.195l-2.25.266Zm.425 10.118c-.508.012-.762-.284-.762-.886v-3.721c0-.59.254-.886.762-.886h2.375c.508 0 .762.295.762.886v.992l6.733-.142c.425-.011.638.225.638.71v2.16c0 .462-.224.698-.673.71l-9.835.177Zm4.377-10.065-.762.018c-.425.024-.638-.166-.638-.567V4.612c0-.201.053-.343.16-.426.106-.082.266-.13.478-.141l.762-.018v-1.95c0-.59.254-.885.762-.885h1.931c.508 0 .762.295.762.886v9.143c0 .59-.254.886-.762.886H26.87c-.508 0-.762-.295-.762-.886V7.606ZM30.237 1.9c0-.59.254-.885.762-.885h1.931c.508 0 .762.295.762.885v9.144c0 .59-.254.886-.762.886H31c-.508 0-.762-.296-.762-.886V1.9Zm12.212 8.12-4.518 2.09c-.213.095-.39.142-.532.142-.142-.012-.266-.118-.372-.319l-1.063-2.09c-.178-.343-.089-.591.265-.745l3.633-1.63c.2-.095.348-.213.443-.354.106-.142.16-.384.16-.727v-.496l-3.491.053c-.426 0-.638-.189-.638-.567V2.932c0-.378.212-.567.638-.567l10.915-.178c.425 0 .638.19.638.568V5.2c0 .378-.213.567-.638.567l-3.49.07v.461c0 .343.04.585.123.727.095.142.254.26.479.354l3.632 1.595c.366.154.46.408.284.762l-1.028 2.055c-.095.201-.219.308-.372.32-.142 0-.325-.048-.55-.142l-4.518-1.95Zm-5.37 6.308c-.424 0-.637-.19-.637-.567V13.67c0-.378.213-.567.638-.567l10.738-.178c.425 0 .638.19.638.567v2.091c0 .378-.213.568-.638.568l-10.738.177Z"/></svg>