<svg width="46" height="46" viewBox="0 0 46 46" fill="none" xmlns="http://www.w3.org/2000/svg">
<g clip-path="url(#clip0_164_5638)">
<path d="M34.5002 21.0827V24.916H42.1668V21.0827H34.5002ZM30.6668 33.7519C32.5068 35.1127 34.9027 36.9143 36.8002 38.3327C37.5668 37.3168 38.3335 36.2818 39.1002 35.266C37.2027 33.8477 34.8068 32.046 32.9668 30.666C32.2002 31.701 31.4335 32.736 30.6668 33.7519ZM39.1002 10.7327C38.3335 9.71685 37.5668 8.68185 36.8002 7.66602C34.9027 9.08435 32.5068 10.886 30.6668 12.266C31.4335 13.2818 32.2002 14.3168 32.9668 15.3327C34.8068 13.9527 37.2027 12.1702 39.1002 10.7327ZM7.66683 17.2493C5.5585 17.2493 3.8335 18.9743 3.8335 21.0827V24.916C3.8335 27.0243 5.5585 28.7493 7.66683 28.7493H9.5835V36.416H13.4168V28.7493H15.3335L24.9168 34.4993V11.4993L15.3335 17.2493H7.66683ZM29.7085 22.9993C29.7085 20.4502 28.5968 18.1502 26.8335 16.5785V29.401C28.5968 27.8485 29.7085 25.5485 29.7085 22.9993Z" fill="#FFCC08"/>
</g>
<defs>
<clipPath id="clip0_164_5638">
<rect width="46" height="46" fill="white"/>
</clipPath>
</defs>
</svg>
