<svg xmlns="http://www.w3.org/2000/svg" width="24" height="24" fill="none" viewBox="0 0 24 24"><path fill="#91969D" d="m19.292 7.23.01-.01-3.607-3.72-1.028 1.06 2.046 2.11A2.49 2.49 0 0 0 15.15 9c0 1.38 1.087 2.5 2.425 2.5.349 0 .669-.08.97-.21v7.21c0 .55-.437 1-.97 1-.534 0-.97-.45-.97-1V14c0-1.1-.873-2-1.94-2h-.969V5c0-1.1-.873-2-1.94-2H5.94C4.873 3 4 3.9 4 5v16h9.697v-7.5h1.455v5c0 1.38 1.086 2.5 2.424 2.5C18.914 21 20 19.88 20 18.5V9c0-.69-.271-1.32-.708-1.77ZM11.758 10H5.939V5h5.819v5Zm5.818 0c-.534 0-.97-.45-.97-1s.436-1 .97-1c.533 0 .97.45.97 1s-.437 1-.97 1Z"/><path fill="#FFCC08" fill-rule="evenodd" d="M20 17h-1.454v1.5c0 .55-.437 1-.97 1-.534 0-.97-.45-.97-1V17h-1.455v1.5c0 1.38 1.087 2.5 2.425 2.5C18.914 21 20 19.88 20 18.5V17Zm-6.303 4v-4H4v4h9.697Z" clip-rule="evenodd"/></svg>