<svg xmlns="http://www.w3.org/2000/svg" width="88" height="58" fill="none" viewBox="0 0 88 58"><mask id="a" fill="#fff"><path fill-rule="evenodd" d="M7.437 3.891A5.052 5.052 0 0 1 13.514.133l70.59 16.646a5.052 5.052 0 0 1 3.758 6.077l-2.745 11.64a4.253 4.253 0 0 0-1.952 8.278l-2.606 11.051a5.052 5.052 0 0 1-6.077 3.758L3.892 40.937a5.052 5.052 0 0 1-3.758-6.076l2.605-11.05.002.001a4.253 4.253 0 1 0 1.95-8.28l2.747-11.64Z" clip-rule="evenodd"/></mask><path fill="#fff" fill-rule="evenodd" d="M7.437 3.891A5.052 5.052 0 0 1 13.514.133l70.59 16.646a5.052 5.052 0 0 1 3.758 6.077l-2.745 11.64a4.253 4.253 0 0 0-1.952 8.278l-2.606 11.051a5.052 5.052 0 0 1-6.077 3.758L3.892 40.937a5.052 5.052 0 0 1-3.758-6.076l2.605-11.05.002.001a4.253 4.253 0 1 0 1.95-8.28l2.747-11.64Z" clip-rule="evenodd"/><path fill="#A4A8AF" fill-opacity=".2" d="m85.117 34.495-.232.984.984.231.232-.983-.984-.232Zm-1.952 8.28.983.231.232-.983-.983-.232-.232.983Zm-8.683 14.808.232-.983-.232.983ZM3.892 40.937l-.232.984.232-.984ZM.134 34.861l.983.231-.983-.231Zm2.605-11.05.232-.983-.983-.231-.232.983.983.232Zm1.953-8.278-.984-.232-.232.983.984.232.232-.983ZM13.745-.85a6.062 6.062 0 0 0-7.292 4.51l1.967.463a4.042 4.042 0 0 1 4.862-3.006l.463-1.967Zm70.591 16.646L13.746-.85l-.464 1.967 70.59 16.646.464-1.967Zm4.51 7.292a6.063 6.063 0 0 0-4.51-7.292l-.464 1.967a4.042 4.042 0 0 1 3.006 4.86l1.967.465ZM86.1 34.727l2.744-11.64-1.967-.463-2.744 11.64 1.967.463Zm-5.115 3.164a3.243 3.243 0 0 1 3.9-2.412l.463-1.967a5.263 5.263 0 0 0-6.33 3.915l1.967.464Zm2.411 3.9a3.243 3.243 0 0 1-2.411-3.9l-1.967-.464a5.263 5.263 0 0 0 3.914 6.33l.464-1.966Zm-1.855 12.266 2.606-11.051-1.966-.464-2.606 11.051 1.966.464Zm-7.292 4.51a6.062 6.062 0 0 0 7.292-4.51l-1.966-.464a4.042 4.042 0 0 1-4.862 3.007l-.464 1.966ZM3.66 41.92l70.59 16.645.464-1.966-70.59-16.646-.464 1.967Zm-4.51-7.292a6.062 6.062 0 0 0 4.51 7.292l.464-1.967a4.042 4.042 0 0 1-3.007-4.862l-1.966-.463ZM1.757 23.58-.85 34.629l1.966.463 2.606-11.048-1.967-.464Zm1.217-.751H2.97l-.464 1.966h.002l.464-1.966Zm3.9-2.412a3.243 3.243 0 0 1-3.9 2.412l-.464 1.967a5.263 5.263 0 0 0 6.33-3.916l-1.966-.464Zm-2.411-3.9a3.243 3.243 0 0 1 2.412 3.9l1.966.464a5.263 5.263 0 0 0-3.915-6.331l-.463 1.967Zm-.002 0h.001l.464-1.967h-.001l-.464 1.966ZM6.453 3.658 3.708 15.301l1.967.464L8.42 4.123l-1.967-.464Z" mask="url(#a)"/></svg>