<svg xmlns="http://www.w3.org/2000/svg" width="64" height="102" fill="none" viewBox="0 0 64 102"><path fill="#FFF3C5" d="M39.932 97.778s-3.481.96-7.93.83c-4.45.13-7.929-.83-7.929-.83h-.186c-8.729-3.447-8.6-14.567-5.637-22.103 2.166-5.504 7.338-10.862 13.752-10.862 6.415 0 11.587 5.358 13.75 10.862 2.965 7.536 3.092 18.656-5.636 22.103h-.184Z"/><path fill="#F8C788" d="M54.149 77.214c.827 3.593.99 6.7.916 9.085-.044 1.417-.212 2.872-.618 4.212-.629 2.089-1.833 3.893-4.043 4.823 0 0 4.193 1.266 3.952 4.108-.242 2.839-7.725 2.776-11.094 2.329-3.305-.436-3.85-1.918-3.333-3.992h.184c8.728-3.447 8.6-14.567 5.636-22.103-2.163-5.504-7.337-10.863-13.75-10.863-6.412 0-11.586 5.359-13.752 10.863-2.964 7.536-3.092 18.656 5.637 22.103h.186c.515 2.074-.03 3.556-3.335 3.992-3.37.447-10.853.51-11.094-2.33-.242-2.841 3.953-4.107 3.953-4.107-3.629-1.526-4.55-5.412-4.66-9.035a35.536 35.536 0 0 1 .916-9.085c-.96 1.119-5.069.707-5.67-2.155-.597-2.864.713-6.542 3.628-11.838 2.49-4.527 5.873-7.624 9.322-9.87 4.495.626 9.4 1.073 14.87 1.073 5.47 0 10.374-.447 14.868-1.072 3.447 2.245 6.833 5.342 9.323 9.869 2.913 5.296 4.223 8.974 3.625 11.838-.6 2.862-4.71 3.274-5.667 2.155Z"/><mask id="a" width="56" height="49" x="4" y="53" maskUnits="userSpaceOnUse" style="mask-type:luminance"><path fill="#fff" d="M54.149 77.214c.827 3.593.99 6.7.916 9.085-.044 1.417-.212 2.872-.618 4.212-.629 2.089-1.833 3.893-4.043 4.823 0 0 4.193 1.266 3.952 4.108-.242 2.839-7.725 2.776-11.094 2.329-3.305-.436-3.85-1.918-3.333-3.992h.184c8.728-3.447 8.6-14.567 5.636-22.103-2.163-5.504-7.337-10.863-13.75-10.863-6.412 0-11.586 5.359-13.752 10.863-2.964 7.536-3.092 18.656 5.637 22.103h.186c.515 2.074-.03 3.556-3.335 3.992-3.37.447-10.853.51-11.094-2.33-.242-2.841 3.953-4.107 3.953-4.107-3.629-1.526-4.55-5.412-4.66-9.035a35.536 35.536 0 0 1 .916-9.085c-.96 1.119-5.069.707-5.67-2.155-.597-2.864.713-6.542 3.628-11.838 2.49-4.527 5.873-7.624 9.322-9.87 4.495.626 9.4 1.073 14.87 1.073 5.47 0 10.374-.447 14.868-1.072 3.447 2.245 6.833 5.342 9.323 9.869 2.913 5.296 4.223 8.974 3.625 11.838-.6 2.862-4.71 3.274-5.667 2.155Z"/></mask><g mask="url(#a)"><path fill="#F8C788" d="M31.998 51.906H11.852l.306 1.811s5.883 2.632 19.84 2.632 19.84-2.632 19.84-2.632l.307-1.81H31.998Z" opacity=".7" style="mix-blend-mode:multiply"/></g><path fill="#705842" d="M9.513 77.13c.302-2.396 1.016-4.748 1.922-6.975 1.452-3.747 3.495-7.315 6.214-10.26.39-.422 1.048.111.72.59-1.806 2.56-3.42 5.203-4.702 8.065-1.295 2.867-2.481 5.746-3.475 8.74-.136.395-.734.261-.68-.16h.001Zm36.802-17.203c2.727 2.937 4.785 6.49 6.259 10.227.92 2.229 1.648 4.565 1.972 6.962.063.488-.63.658-.788.187a84.365 84.365 0 0 0-4.422-10.867c-1.059-2.099-2.322-4.046-3.664-5.982-.29-.42.292-.91.643-.527Z"/><path fill="#F8C788" d="M31.953 13.578c-.655.566-1.02 1.461-.932 2.28.05.467.218.73.5.78.511.09 1.336-.416 1.825-1.424a6.7 6.7 0 0 0 .649-2.235 3.355 3.355 0 0 0-.345-.018 2.54 2.54 0 0 0-1.699.617h.002Z"/><path fill="#705842" d="M24.327 13.325c-.531 2.445-.116 4.655 1.166 6.227.91 1.115 2.704 2.416 6.119 2.416.135 0 .275-.002.415-.006 3.702-.113 5.92-2.7 6.417-5.056.452-2.148-.406-4.044-2.236-4.941a7.71 7.71 0 0 0-.613-.268c-.14-1.133-.586-2.144-1.313-2.946a.803.803 0 0 0-1.146-.05.833.833 0 0 0-.049 1.163c.377.416.641.905.791 1.459-1.119-.053-2.149.288-2.976 1.004-1.067.924-1.638 2.346-1.492 3.713.13 1.21.815 2.04 1.832 2.222.134.024.27.035.406.035 1.204 0 2.457-.916 3.155-2.352.39-.805.646-1.64.764-2.463 1.093.572 1.575 1.716 1.29 3.078-.367 1.747-2.05 3.667-4.879 3.754-2.398.073-4.21-.556-5.236-1.816-.957-1.172-1.251-2.885-.832-4.82.919-4.217 3.082-7.248 7.236-10.133a.828.828 0 0 0 .351-.655 34.317 34.317 0 0 0-1.494-.03c-.231 0-.477.006-.714.01-3.87 2.924-6.034 6.187-6.962 10.453v.002Zm9.022 1.893c-.489 1.009-1.314 1.515-1.825 1.424-.282-.051-.45-.312-.5-.78-.088-.819.277-1.714.932-2.28a2.53 2.53 0 0 1 1.7-.617c.109 0 .224.006.344.019a6.708 6.708 0 0 1-.649 2.234h-.002Z"/><path fill="#FFF3C5" d="M60.85 4.914c.744 1.733.864 3.649.377 5.38-.723 2.58-2.791 4.748-6.134 5.271-1.08-1.838-2.32-3.54-3.75-5.06.254-.5 1.613-2.895 4.984-4.404 0 0 1.454-.695 4.523-1.187ZM7.675 6.101c3.374 1.509 4.73 3.904 4.984 4.404-1.43 1.52-2.67 3.222-3.749 5.06-5.587-.874-7.609-6.336-5.758-10.65C6.224 5.404 7.675 6.1 7.675 6.1Z"/><path fill="#FC9268" d="M17.213 39.325c2.948 4.331 1.306 11.13 0 13.99h-.024l-.057.038c-1.103-.15-2.18-.315-3.236-.484C9.88 52.223.906 50.466.063 42.381a8.992 8.992 0 0 1 5.03-9.365c5.438.306 9.174 1.977 12.12 6.309Zm46.293-1.19c.403 1.173.602 2.579.428 4.246-.463 4.434-3.37 6.963-6.565 8.453-2.63 1.224-5.456 1.743-7.269 2.035-1.054.169-2.13.333-3.233.484l-.057-.037h-.027c-1.305-2.86-2.947-9.66 0-13.991 2.946-4.332 6.685-6.003 12.12-6.31 0 0 3.328 1.394 4.603 5.12Z"/><path fill="#F8C788" d="M58.345 1.657a8.308 8.308 0 0 1 2.502 3.254c-3.07.492-4.524 1.187-4.524 1.187-3.371 1.508-4.73 3.904-4.983 4.404a23.215 23.215 0 0 0-5.223-4.18c.29-4.467 7.009-8.782 12.228-4.665ZM17.886 6.322a23.267 23.267 0 0 0-5.223 4.18c-.254-.5-1.61-2.896-4.984-4.404 0 0-1.451-.695-4.523-1.187a8.308 8.308 0 0 1 2.502-3.254c5.219-4.117 11.938.198 12.228 4.665Z"/><path fill="#705842" d="M43.766 29.234c1.387 0 2.51 1.14 2.51 2.548 0 1.407-1.123 2.545-2.51 2.545-1.387 0-2.508-1.14-2.508-2.545 0-1.406 1.123-2.548 2.508-2.548Zm-23.531 0c1.384 0 2.51 1.14 2.51 2.548 0 1.407-1.126 2.545-2.51 2.545-1.385 0-2.508-1.14-2.508-2.545 0-1.406 1.123-2.548 2.508-2.548Z"/><path fill="#F8C788" d="M59.016 29.63c-.096-3.22-.746-8.288-3.433-13.198-.16-.293-.324-.58-.49-.867-1.079-1.837-2.32-3.54-3.749-5.06a23.212 23.212 0 0 0-5.223-4.18c-3.411-1.995-7.564-3.227-12.623-3.43a.822.822 0 0 1-.35.654c-4.154 2.885-6.32 5.916-7.236 10.132-.42 1.937-.126 3.65.831 4.822 1.028 1.26 2.84 1.887 5.237 1.815 2.828-.087 4.511-2.007 4.878-3.754.286-1.362-.197-2.506-1.29-3.078a8.355 8.355 0 0 1-.764 2.463c-.697 1.439-1.95 2.352-3.155 2.352a2.4 2.4 0 0 1-.405-.035c-1.016-.181-1.701-1.012-1.833-2.222-.148-1.367.426-2.789 1.492-3.712.828-.717 1.858-1.058 2.977-1.005a3.488 3.488 0 0 0-.791-1.459.83.83 0 0 1 .049-1.162.802.802 0 0 1 1.145.05c.728.802 1.176 1.814 1.314 2.946.205.078.407.166.612.267 1.831.898 2.686 2.79 2.236 4.941-.494 2.356-2.714 4.943-6.416 5.056-.142.004-.28.006-.416.006-3.414 0-5.209-1.3-6.119-2.416-1.283-1.572-1.697-3.782-1.166-6.226.929-4.266 3.094-7.53 6.963-10.454-5.414.1-9.817 1.356-13.406 3.455a23.203 23.203 0 0 0-5.222 4.177c-1.43 1.521-2.67 3.223-3.75 5.06-.165.286-.33.575-.49.867-4.42 8.074-3.327 16.585-3.327 16.585 5.438.307 9.174 1.978 12.12 6.31 2.948 4.331 1.306 11.13 0 13.99h-.024c-.018.013-.039.025-.057.037 4.495.626 9.4 1.072 14.87 1.072 5.47 0 10.374-.446 14.868-1.072l-.056-.037h-.027c-1.305-2.86-2.947-9.659 0-13.99 2.946-4.332 6.685-6.003 12.12-6.31 0 0 .169-1.308.106-3.387v-.002Zm-38.779 4.7c-1.385 0-2.508-1.14-2.508-2.545 0-1.406 1.123-2.548 2.508-2.548s2.51 1.14 2.51 2.548c0 1.407-1.125 2.545-2.51 2.545Zm11.767 1.317c-1.184 0-2.031-.319-1.924-1.035.102-.69.984-1.06 1.924-1.033.939-.027 1.82.344 1.924 1.033.106.716-.742 1.035-1.924 1.035ZM43.77 34.33c-1.385 0-2.508-1.14-2.508-2.545 0-1.406 1.123-2.548 2.508-2.548 1.384 0 2.51 1.14 2.51 2.548 0 1.407-1.124 2.545-2.51 2.545Z"/><path fill="#705842" d="m34.65 36.868-1.832-.934v-.346c.734-.124 1.192-.436 1.113-.976-.103-.689-.985-1.06-1.924-1.032-.94-.027-1.823.343-1.924 1.032-.081.538.377.852 1.113.976v.346l-1.835.934a.83.83 0 0 0-.36 1.105c.2.405.686.57 1.088.366l1.92-.977 1.918.977a.8.8 0 0 0 1.089-.366.83.83 0 0 0-.361-1.105h-.004Z"/></svg>