<svg width="15" height="15" viewBox="0 0 15 15" fill="none" xmlns="http://www.w3.org/2000/svg">
<path fill-rule="evenodd" clip-rule="evenodd" d="M0.293412 13.2426C-0.0978041 13.6324 -0.0978041 14.2645 0.293412 14.6543C0.684629 15.0441 1.31892 15.0441 1.71013 14.6543L7.47223 8.91263L13.2587 14.7065C13.649 15.0973 14.2818 15.0973 14.672 14.7065C15.0623 14.3158 15.0623 13.6822 14.672 13.2914L8.88895 7.50093L14.7064 1.70408C15.0976 1.31424 15.0976 0.682204 14.7064 0.292373C14.3152 -0.0974578 13.6809 -0.0974575 13.2897 0.292373L7.47564 6.08582L1.70843 0.311215C1.31815 -0.0795587 0.685393 -0.0795587 0.295118 0.311215C-0.095156 0.701989 -0.095156 1.33556 0.295118 1.72633L6.05892 7.49752L0.293412 13.2426Z" fill="#BABCC4"/>
</svg>
