<svg xmlns="http://www.w3.org/2000/svg" width="24" height="24" fill="none" viewBox="0 0 24 24"><path fill="#222" d="M12 7.1a4.9 4.9 0 1 0 0 9.8 4.9 4.9 0 0 0 0-9.8Zm0 8a3.1 3.1 0 1 1 0-6.2 3.1 3.1 0 0 1 0 6.2Zm10.69-4.38a8.81 8.81 0 0 0-1.52-2.2 15.721 15.721 0 0 0-4-3.07A11.08 11.08 0 0 0 12 4a12.53 12.53 0 0 0-7.5 3 13.65 13.65 0 0 0-2.45 2.5 7.86 7.86 0 0 0-.74 1.25A3.13 3.13 0 0 0 1 12c.011.444.117.88.31 1.28a8.81 8.81 0 0 0 1.52 2.2 15.72 15.72 0 0 0 4 3.07A11.08 11.08 0 0 0 12 20a12.53 12.53 0 0 0 7.5-3 13.65 13.65 0 0 0 2.5-2.47c.285-.393.532-.811.74-1.25A3.13 3.13 0 0 0 23 12a3.131 3.131 0 0 0-.31-1.28Zm-1.83 1.75a6.931 6.931 0 0 1-1.17 1.66 13.753 13.753 0 0 1-3.42 2.66A9.15 9.15 0 0 1 12 18a10.58 10.58 0 0 1-6.25-2.53 11.72 11.72 0 0 1-2.08-2.12 5.37 5.37 0 0 1-.53-.88A1.55 1.55 0 0 1 3 12a1.55 1.55 0 0 1 .14-.47 6.93 6.93 0 0 1 1.17-1.66 13.75 13.75 0 0 1 3.42-2.66A9.15 9.15 0 0 1 12 6a10.58 10.58 0 0 1 6.25 2.53 11.72 11.72 0 0 1 2.08 2.12c.204.276.382.57.53.88.071.148.119.307.14.47a1.55 1.55 0 0 1-.14.47Z"/></svg>