<svg xmlns="http://www.w3.org/2000/svg" width="24" height="23" fill="none" viewBox="0 0 24 23"><path fill="#222" d="M20.948 9.917 5.112 1.691a1.598 1.598 0 0 0-1.701.151 1.38 1.38 0 0 0-.48.701c-.08.274-.067.563.035.83l2.72 7.063h7.064a.78.78 0 0 1 .53.204c.14.13.22.307.22.492a.671.671 0 0 1-.22.492.78.78 0 0 1-.53.203H5.685L2.966 18.89a1.3 1.3 0 0 0-.073.655c.033.221.122.431.26.614.138.182.321.331.534.434a1.598 1.598 0 0 0 1.425-.021l15.836-8.226c.232-.121.426-.297.56-.51a1.31 1.31 0 0 0 .001-1.408 1.455 1.455 0 0 0-.561-.51Z"/></svg>