<svg xmlns="http://www.w3.org/2000/svg" width="89" height="19" fill="none" viewBox="0 0 89 19"><path fill="#323232" d="m11.132 6.262 3.214 9.217 2.725-9.217h2.545l-4.01 12.247h-2.494L9.82 9.189l-3.214 9.32H4.062L0 6.262h2.648l2.776 9.217L8.64 6.262h2.493Zm17.97 4.862c-.051-1.757-1.208-3.132-3.393-3.132-2.03 0-3.265 1.553-3.368 3.132h6.761Zm2.442 3.896c-.694 2.165-2.674 3.87-5.553 3.87-3.317 0-6.222-2.392-6.222-6.543 0-3.845 2.803-6.468 5.914-6.468 3.805 0 5.939 2.597 5.939 6.417 0 .305-.026.61-.052.763h-9.306c.051 2.19 1.645 3.718 3.727 3.718 2.083 0 3.009-1.095 3.472-2.47l2.082.713ZM62.5 12.372c0-2.831-1.803-4.361-3.862-4.361-2.06 0-3.863 1.53-3.863 4.36 0 2.832 1.803 4.388 3.863 4.388s3.862-1.53 3.862-4.387Zm2.473 0c0 3.749-2.627 6.53-6.335 6.53-3.709 0-6.335-2.781-6.335-6.53 0-3.75 2.627-6.504 6.335-6.504s6.335 2.78 6.335 6.504Zm11.227 0c0-2.831-1.803-4.361-3.862-4.361-2.06 0-3.863 1.53-3.863 4.36 0 2.832 1.802 4.388 3.863 4.388 2.06 0 3.862-1.53 3.862-4.387Zm2.473 0c0 3.749-2.627 6.53-6.335 6.53-3.709 0-6.335-2.781-6.335-6.53 0-3.75 2.626-6.504 6.335-6.504 3.708 0 6.335 2.78 6.335 6.504ZM83.154.054h-2.42v18.465h2.42V.054Zm3.09 5.047h2.395v13.418h-2.395V5.1ZM87.43.054c.877 0 1.57.685 1.57 1.554 0 .87-.692 1.532-1.57 1.532a1.524 1.524 0 0 1-1.546-1.532c0-.846.692-1.554 1.546-1.554ZM43.922 10.683c0 .746-.612 1.35-1.364 1.35a1.364 1.364 0 0 1-.94-.37 1.358 1.358 0 0 1-.424-.98c0-.248.066-.478.182-.678.351-.74 1.735-1.118 1.735-1.118s.89.768.81 1.795m-4.143-4.417a30.76 30.76 0 0 1 1.483 1.013c-.553.3-1.037.671-1.419 1.101a3.496 3.496 0 0 0 .328 4.957l.048.04c1.479 1.151 3.776.93 5.016-.482.991-1.128 1.187-2.632.526-4.024-.023-.049-.136-.229-.161-.278.818.165 1.843.718 2.549 1.712.66.93.764 3.085-.762 4.71-.498.53-1.102.894-1.634 1.133-.95.427-1.95.565-2.974.565-3.297 0-6.412-2.39-6.412-7.224s3.219-7.174 6.516-7.174c2.441 0 4.37 1.128 5.398 3.094l2.298-1.015C49.233 1.724 46.411 0 42.881 0c-4.543 0-9.112 3.316-9.112 9.487S38.08 19 42.7 19c1.709 0 4.228-.264 6.315-2.486 2.232-2.378 2.237-5.67.953-7.478-1.115-1.569-2.835-2.492-4.845-2.599a7.463 7.463 0 0 0-1.315.046c-.646-.565-2.614-1.907-2.614-1.907l-1.415 1.69Z"/></svg>