<svg xmlns="http://www.w3.org/2000/svg" width="30" height="30" fill="none" viewBox="0 0 30 30"><g clip-path="url(#a)"><path fill="#323232" d="M22.5 13.75v2.5h5v-2.5h-5ZM20 22.012c1.2.888 2.762 2.063 4 2.988.5-.663 1-1.337 1.5-2-1.238-.925-2.8-2.1-4-3-.5.675-1 1.35-1.5 2.012ZM25.5 7c-.5-.662-1-1.338-1.5-2-1.238.925-2.8 2.1-4 3 .5.662 1 1.338 1.5 2 1.2-.9 2.762-2.063 4-3ZM5 11.25a2.507 2.507 0 0 0-2.5 2.5v2.5c0 1.375 1.125 2.5 2.5 2.5h1.25v5h2.5v-5H10l6.25 3.75v-15L10 11.25H5ZM19.375 15a5.6 5.6 0 0 0-1.875-4.188v8.363A5.553 5.553 0 0 0 19.375 15Z"/></g><defs><clipPath id="a"><path fill="#fff" d="M0 0h30v30H0z"/></clipPath></defs></svg>