<svg xmlns="http://www.w3.org/2000/svg" width="152" height="19" fill="none" viewBox="0 0 152 19"><path fill="#222" d="m10.96 7.428 2.78 8.05 2.45-8.364a1.186 1.186 0 1 1 2.265.698l-3.083 9.506a1.72 1.72 0 0 1-3.258.038L9.258 9.189l-2.786 8.155a1.72 1.72 0 0 1-1.626 1.163h-.047a1.72 1.72 0 0 1-1.634-1.182L.063 7.88a1.233 1.233 0 1 1 2.354-.738l2.487 8.336 2.78-8.05a1.734 1.734 0 0 1 3.276 0Zm17.153 3.696a.229.229 0 0 0 .227-.252c-.15-1.635-1.285-2.88-3.346-2.88-1.9 0-3.096 1.387-3.31 2.872a.228.228 0 0 0 .226.26h6.203Zm1.538 3.508c.656.227.936 1 .577 1.593-.942 1.56-2.66 2.665-4.955 2.665-3.284 0-6.16-2.394-6.16-6.544 0-3.844 2.774-6.466 5.855-6.466 3.768 0 5.881 2.596 5.881 6.417v.008c0 .415-.34.755-.755.755h-8.512c.051 2.19 1.628 3.718 3.691 3.718 1.584 0 2.535-.695 3.09-1.675.252-.448.8-.639 1.288-.47Zm31.778-2.26c0-2.832-1.785-4.36-3.826-4.36-2.04 0-3.825 1.53-3.825 4.36 0 2.856 1.785 4.387 3.825 4.387s3.826-1.531 3.826-4.387Zm2.449 0c0 3.75-2.602 6.529-6.275 6.529-3.672 0-6.274-2.78-6.274-6.529 0-3.724 2.602-6.503 6.274-6.503 3.673 0 6.275 2.779 6.275 6.503Zm11.121 0c0-2.832-1.785-4.36-3.826-4.36-2.04 0-3.825 1.53-3.825 4.36 0 2.856 1.785 4.387 3.825 4.387S75 15.228 75 12.372Zm2.447 0c0 3.75-2.602 6.529-6.274 6.529-3.673 0-6.275-2.78-6.275-6.529 0-3.724 2.602-6.503 6.275-6.503 3.672 0 6.274 2.779 6.274 6.503Zm3.226 6.146h.026c.656 0 1.186-.53 1.186-1.186V1.252a1.198 1.198 0 1 0-2.396 0v16.082a1.182 1.182 0 0 0 1.184 1.184ZM86.132 5.1c.655 0 1.185.53 1.185 1.186v11.046a1.185 1.185 0 1 1-2.371 0V6.286c0-.655.53-1.185 1.186-1.185ZM86.12.054c.868 0 1.554.687 1.554 1.555 0 .846-.686 1.53-1.554 1.53a1.53 1.53 0 0 1-1.531-1.53c0-.868.685-1.555 1.53-1.555ZM43.03 10.682a1.35 1.35 0 0 1-2.276.983l-.007-.005a1.309 1.309 0 0 1-.39-.695 1.346 1.346 0 0 1 .151-.961c.349-.742 1.718-1.12 1.718-1.12s.883.771.803 1.798Zm-3.126-3.755c.17.12.333.236.49.351-.548.3-1.028.671-1.406 1.102a3.52 3.52 0 0 0 .324 4.957l.048.039c1.464 1.152 3.74.93 4.969-.482.98-1.128 1.175-2.633.52-4.025-.023-.048-.136-.228-.16-.278.81.165 1.826.718 2.525 1.711.653.93.756 3.086-.756 4.71-.494.53-1.091.894-1.618 1.132-.94.428-1.932.565-2.945.565-3.266 0-6.35-2.39-6.35-7.225 0-4.833 3.189-7.174 6.453-7.174 2.054 0 3.743.813 4.828 2.264.346.463.966.63 1.494.394a1.236 1.236 0 0 0 .472-1.89C47.291 1.175 44.883 0 41.998 0c-4.5 0-9.023 3.317-9.023 9.487S37.243 19 41.82 19c1.692 0 4.187-.264 6.253-2.487 2.21-2.377 2.216-5.668.944-7.477-1.103-1.569-2.807-2.492-4.798-2.599a7.32 7.32 0 0 0-1.303.047c-.363-.321-1.153-.896-1.764-1.33a1.085 1.085 0 0 0-1.462.19 1.087 1.087 0 0 0 .214 1.583Zm78.574 5.558a.182.182 0 0 0 .18-.201c-.118-1.31-1.029-2.307-2.677-2.307-1.521 0-2.477 1.11-2.646 2.298-.016.11.068.21.18.21h4.963Zm1.232 2.807c.524.182.747.8.461 1.275-.753 1.25-2.128 2.134-3.964 2.134-2.627 0-4.929-1.916-4.929-5.24 0-3.077 2.221-5.178 4.686-5.178 3.015 0 4.706 2.08 4.706 5.137v.007a.606.606 0 0 1-.604.604h-6.81c.041 1.752 1.303 2.976 2.953 2.976 1.268 0 2.029-.558 2.472-1.34a.86.86 0 0 1 1.029-.375ZM103.866 8.78c.158-.095.316-.178.477-.25.645-.283 1.367.203 1.367.908a.975.975 0 0 1-.729.951 2.806 2.806 0 0 0-.899.403 3.462 3.462 0 0 0-1.128 1.246 3.211 3.211 0 0 0-.401 1.52v3.965a1.138 1.138 0 0 1-2.275 0V9.42a1.138 1.138 0 0 1 2.275 0v.747c.286-.563.725-1.025 1.313-1.385Zm3.722-4.62c.235-.236.537-.354.902-.354s.667.118.902.353.353.537.353.903c0 .38-.118.687-.353.923-.235.237-.537.354-.902.354-.367 0-.667-.12-.902-.364a1.258 1.258 0 0 1-.354-.913c.002-.367.119-.668.354-.903Zm2.059 5.347v8.018c0 .628-.509 1.138-1.137 1.138h-.018c-.628 0-1.138-.51-1.138-1.138V9.507a1.147 1.147 0 1 1 2.293 0Zm19.077 1.452c-.425-.503-1.023-.755-1.795-.755-.47 0-.902.122-1.295.364-.393.242-.7.578-.923 1.01a2.96 2.96 0 0 0-.314 1.452v4.485a1.147 1.147 0 1 1-2.294 0V9.428a1.147 1.147 0 1 1 2.294 0v.599c.288-.498.707-.906 1.256-1.227.549-.321 1.104-.48 1.667-.48.679 0 1.35.154 2.01.461.66.307 1.212.812 1.657 1.512.444.7.667 1.593.667 2.679v4.545a1.148 1.148 0 0 1-2.295 0V13.03c.002-.877-.211-1.567-.635-2.071Zm6.384 7.115a4.626 4.626 0 0 1-1.746-1.855c-.418-.791-.628-1.697-.628-2.718 0-1.022.21-1.928.628-2.719.419-.791 1-1.409 1.746-1.855.746-.445 1.595-.668 2.55-.668.51 0 1.06.127 1.649.383.588.256 1.085.69 1.49 1.306v-4.7a1.147 1.147 0 1 1 2.295 0v12.286a1.148 1.148 0 1 1-2.295 0v-.462a3.815 3.815 0 0 1-1.52 1.267c-.595.267-1.135.401-1.619.401-.955.002-1.804-.22-2.55-.666Zm.696-2.08c.517.615 1.199.924 2.05.924.523 0 1.01-.151 1.461-.452.451-.3.811-.707 1.079-1.217.267-.51.401-1.072.401-1.688 0-.615-.134-1.181-.401-1.698a3.325 3.325 0 0 0-1.079-1.237 2.546 2.546 0 0 0-1.461-.462c-.851 0-1.533.31-2.05.932-.516.621-.775 1.444-.775 2.463 0 1.009.259 1.82.775 2.435Zm10.978.498c.431.283.836.424 1.215.425.537.002.958-.106 1.265-.32.307-.215.462-.507.463-.872 0-.3-.156-.55-.468-.747-.314-.197-.816-.427-1.509-.69-.679-.25-1.242-.49-1.684-.72a3.437 3.437 0 0 1-1.136-.946c-.312-.4-.468-.901-.466-1.504.002-.902.35-1.614 1.044-2.136.695-.522 1.592-.781 2.69-.78.718.002 1.425.21 2.116.624.348.207.643.466.885.774.382.489.158 1.213-.425 1.426l-.127.046a.945.945 0 0 1-1.076-.336 1.355 1.355 0 0 0-.428-.381 1.98 1.98 0 0 0-.951-.268c-.457-.002-.814.093-1.07.281a.895.895 0 0 0-.384.756c0 .302.156.547.468.738.314.19.81.412 1.489.66.705.277 1.274.527 1.705.75.43.223.806.536 1.125.936.319.4.478.894.477 1.482-.002.943-.367 1.698-1.095 2.264-.727.568-1.699.85-2.915.846-.798-.002-1.563-.233-2.293-.693a4.619 4.619 0 0 1-.969-.803c-.424-.464-.288-1.205.257-1.514a.99.99 0 0 1 1.233.215c.167.187.355.35.564.487ZM93.913 17.81v-5.392h-.622a.853.853 0 0 1 0-1.706h.622v-.707c0-.555.126-1.054.378-1.5.25-.446.597-.8 1.037-1.06a2.863 2.863 0 0 1 1.49-.394c.339 0 .68.048 1.023.146.003.002.007.002.01.003a.69.69 0 0 1 .384 1.03l-.16.26c-.169.27-.5.411-.802.31a1.035 1.035 0 0 0-.332-.057.937.937 0 0 0-.753.347c-.196.23-.292.535-.292.915v.707h1.514a.853.853 0 0 1 0 1.706h-1.514v5.392a.992.992 0 0 1-1.983 0Z"/></svg>