<svg xmlns="http://www.w3.org/2000/svg" width="88" height="17" fill="none" viewBox="0 0 88 17"><path fill="#222" d="m5.137 10.996.091 4.767c.015.435-.053.712-.204.832-.137.12-.349.18-.637.18H1.138c-.348 0-.583-.067-.704-.202s-.19-.42-.205-.855L.002 1.417C-.013.982.055.682.207.517c.166-.18.446-.27.84-.27h8.976c.318 0 .552.06.704.18.151.12.227.338.227.652v2.879c0 .3-.076.517-.227.652-.152.12-.386.18-.704.18h-5l.023 1.889h4.181c.318 0 .553.06.705.18.151.12.227.337.227.652v2.653c0 .315-.076.532-.227.652-.152.12-.387.18-.705.18h-4.09Zm12.357-3.148c.954-.06 1.628-.232 2.022-.517.394-.285.59-.765.59-1.44 0-.374-.075-.682-.227-.921a1.417 1.417 0 0 0-.568-.585 2.15 2.15 0 0 0-.863-.202 4.882 4.882 0 0 0-1.023.067l.069 3.598Zm-5.181-5.69c-.015-.3-.023-.539-.023-.719a1.02 1.02 0 0 1 .137-.472c.06-.105.174-.187.34-.247a7.18 7.18 0 0 1 .75-.248A16.337 16.337 0 0 1 15.7.09a15.15 15.15 0 0 1 2.476-.068c.834.045 1.644.18 2.432.405.787.21 1.492.525 2.113.945.606.434 1.09.99 1.454 1.664.379.674.568 1.499.568 2.473 0 .75-.076 1.41-.227 1.98a5.605 5.605 0 0 1-.614 1.46c-.272.42-.583.788-.931 1.103a6.887 6.887 0 0 1-1.136.832l2.25 3.508c.226.374.287.674.18.899-.105.21-.294.367-.567.472l-2.386.877c-.424.165-.742.188-.954.068-.197-.105-.372-.285-.523-.54l-2.227-4.003v3.598c0 .39-.06.652-.181.787-.122.15-.349.225-.682.225h-3.09c-.319 0-.538-.075-.66-.225-.12-.135-.189-.397-.204-.787L12.313 2.16Zm14.181-.898c0-.39.06-.653.182-.788.136-.15.364-.225.682-.225h3.272c.333 0 .553.075.659.225.12.135.189.397.204.787l.227 14.504c.015.39-.045.652-.181.787-.122.15-.349.225-.682.225h-3.272c-.318 0-.538-.075-.659-.225-.121-.135-.19-.397-.204-.787L26.493 1.26Zm12.175 9.399.045 1.574h4.363c.318 0 .553.067.704.202.152.12.228.33.228.63v2.856c0 .314-.076.532-.228.652-.151.135-.386.202-.704.202h-8.294c-.393 0-.659-.09-.795-.27-.136-.165-.212-.472-.227-.922l-.205-14.166c-.015-.435.053-.735.205-.9.167-.18.447-.27.84-.27h9.203c.318 0 .553.06.704.18.152.12.228.338.228.652v2.879c0 .3-.076.517-.227.652-.152.12-.387.18-.705.18h-5.249l.023 1.326h4.43c.319 0 .554.06.705.18.152.12.227.338.227.652v2.879c0 .315-.075.532-.227.652-.151.12-.386.18-.704.18h-4.34ZM51.514 9.22l.114 6.543c.015.36-.038.615-.16.765-.105.165-.34.247-.704.247h-3.363c-.378 0-.62-.082-.727-.247-.09-.15-.144-.405-.159-.765l-.227-14.346c-.015-.435.053-.735.204-.9.167-.18.447-.27.841-.27h2.795c.454 0 .765.045.932.135.181.075.34.263.477.562l3.499 7.039V1.417c0-.435.076-.735.227-.9.152-.18.424-.27.818-.27h2.795c.394 0 .666.09.818.27.151.165.227.465.227.9v14.166c0 .45-.075.757-.227.922-.136.18-.401.27-.795.27H56.74c-.44 0-.772-.082-1-.247-.227-.165-.454-.45-.681-.855L51.514 9.22Zm10.559-7.736c0-.435.068-.727.204-.877.137-.165.462-.262.977-.292.91-.06 1.826-.068 2.75-.023.939.045 1.84.165 2.704.36.863.195 1.674.48 2.43.855a6.82 6.82 0 0 1 1.978 1.461c.56.6 1 1.327 1.318 2.181.333.855.5 1.86.5 3.014 0 1.409-.258 2.653-.773 3.732a7.115 7.115 0 0 1-2.25 2.676c-1 .72-2.226 1.26-3.68 1.62-1.455.374-3.121.562-5 .562-.65 0-.977-.36-.977-1.08l-.181-14.189Zm5.067 10.434a7.5 7.5 0 0 0 1.159-.382 2.62 2.62 0 0 0 .886-.675c.242-.27.431-.622.568-1.057.136-.435.204-.99.204-1.664 0-.57-.075-1.064-.227-1.484a2.735 2.735 0 0 0-.636-1.034 2.415 2.415 0 0 0-.954-.585 2.793 2.793 0 0 0-1.182-.157l.182 7.038Zm10.96-.09c.258.09.538.18.841.27.319.09.644.172.977.247.334.075.66.135.977.18.334.045.644.068.932.068.303 0 .538-.06.704-.18.167-.12.25-.308.25-.563 0-.254-.12-.472-.363-.652-.242-.194-.72-.442-1.432-.742a45.734 45.734 0 0 1-1.727-.787 6.352 6.352 0 0 1-1.454-1.034 4.46 4.46 0 0 1-1.045-1.462c-.257-.57-.386-1.266-.386-2.091 0-.66.129-1.29.386-1.889a4.723 4.723 0 0 1 1.159-1.641c.5-.465 1.129-.832 1.886-1.102.772-.285 1.674-.428 2.704-.428.894 0 1.75.068 2.567.203.818.12 1.652.345 2.5.674.182.075.303.173.363.293.061.105.076.285.046.54l-.296 3.26c-.03.435-.265.547-.704.337a9.62 9.62 0 0 0-2.136-.697c-.727-.15-1.356-.225-1.886-.225-.439 0-.803.06-1.09.18-.273.12-.41.345-.41.675 0 .18.061.337.182.472.121.135.303.27.546.405.242.135.545.285.909.45.363.15.78.344 1.25.584.5.255.961.517 1.385.787.424.27.796.585 1.114.945.318.375.568.817.75 1.327.181.51.272 1.124.272 1.843 0 .795-.136 1.5-.409 2.114a4.148 4.148 0 0 1-1.136 1.53c-.5.419-1.09.734-1.772.944a7.146 7.146 0 0 1-2.25.337c-1.03 0-1.969-.082-2.817-.247a15.835 15.835 0 0 1-2.25-.563c-.257-.09-.424-.18-.5-.27-.075-.104-.098-.262-.068-.472l.636-3.215c.076-.435.341-.57.796-.405Z"/></svg>