<svg width="15" height="15" viewBox="0 0 15 15" fill="none" xmlns="http://www.w3.org/2000/svg">
<path fill-rule="evenodd" clip-rule="evenodd" d="M0.293373 13.2451C-0.0977909 13.635 -0.097791 14.2671 0.293373 14.657C0.684537 15.0469 1.31874 15.0469 1.7099 14.657L7.47337 8.91242L13.259 14.7069C13.6493 15.0977 14.282 15.0977 14.6722 14.7069C15.0624 14.3161 15.0624 13.6824 14.6722 13.2916L8.88989 7.50053L14.7052 1.70431C15.0963 1.31442 15.0963 0.682296 14.7052 0.292412C14.314 -0.097471 13.6798 -0.0974706 13.2886 0.292413L7.47676 6.08525L1.70939 0.309128C1.31917 -0.0816924 0.686481 -0.0816924 0.296253 0.309128C-0.0939746 0.699948 -0.0939746 1.33359 0.296253 1.72441L6.06023 7.49714L0.293373 13.2451Z" fill="#BABCC4"/>
</svg>
