<svg xmlns="http://www.w3.org/2000/svg" width="53" height="12" fill="none" viewBox="0 0 53 12"><path fill="#222" d="m6.626 4.506 1.68 4.883 1.48-5.074a.716.716 0 1 1 1.37.424l-1.863 5.765a1.04 1.04 0 0 1-1.97.023L5.596 5.574 3.913 10.52a1.04 1.04 0 0 1-.984.706h-.028a1.04 1.04 0 0 1-.987-.718L.038 4.78a.747.747 0 1 1 1.423-.448l1.503 5.056 1.681-4.882c.146-.424.544-.708.99-.708.447 0 .844.285.99.709Zm10.369 2.241c.082 0 .144-.07.137-.153-.09-.992-.777-1.746-2.023-1.746-1.148 0-1.871.84-2 1.741a.138.138 0 0 0 .136.158h3.75Zm.93 2.128a.661.661 0 0 1 .348.966c-.57.946-1.608 1.616-2.995 1.616-1.986 0-3.724-1.452-3.724-3.969 0-2.331 1.677-3.922 3.54-3.922 2.278 0 3.555 1.575 3.555 3.892v.005a.459.459 0 0 1-.457.458h-5.145c.03 1.329.984 2.255 2.231 2.255.958 0 1.532-.422 1.867-1.016a.649.649 0 0 1 .78-.285Zm19.21-1.371c0-1.717-1.08-2.644-2.313-2.644s-2.312.928-2.312 2.644c0 1.732 1.079 2.661 2.312 2.661 1.234 0 2.313-.928 2.313-2.66Zm1.48 0c0 2.275-1.573 3.96-3.793 3.96s-3.793-1.686-3.793-3.96c0-2.258 1.573-3.943 3.793-3.943s3.793 1.685 3.793 3.943Zm6.723 0c0-1.717-1.08-2.644-2.313-2.644s-2.312.928-2.312 2.644c0 1.732 1.079 2.661 2.312 2.661 1.233 0 2.313-.928 2.313-2.66Zm1.48 0c0 2.275-1.574 3.96-3.794 3.96-2.22 0-3.793-1.686-3.793-3.96 0-2.258 1.573-3.943 3.793-3.943s3.793 1.685 3.793 3.943Zm1.95 3.727h.015a.718.718 0 0 0 .717-.72V.76a.725.725 0 1 0-1.448 0v9.753a.716.716 0 0 0 .716.718Zm3.299-8.139c.397 0 .717.322.717.72v6.699a.718.718 0 1 1-1.433 0v-6.7c0-.397.32-.719.716-.719ZM52.06.032c.525 0 .94.416.94.942a.93.93 0 0 1-.94.929.927.927 0 0 1-.925-.929.93.93 0 0 1 .925-.943ZM26.013 6.478a.817.817 0 0 1-1.376.597l-.004-.003a.795.795 0 0 1-.235-.422.818.818 0 0 1 .091-.583c.21-.45 1.038-.678 1.038-.678s.534.467.486 1.09Zm-1.89-2.277c.103.073.202.144.296.213-.33.183-.621.407-.85.669a2.14 2.14 0 0 0 .197 3.006l.029.024c.885.698 2.26.564 3.003-.293.593-.684.71-1.597.315-2.44-.014-.03-.082-.14-.097-.17.49.1 1.104.436 1.526 1.038.395.565.458 1.872-.456 2.857-.3.321-.66.542-.979.687-.568.259-1.168.342-1.78.342-1.974 0-3.838-1.45-3.838-4.382 0-2.931 1.927-4.351 3.9-4.351 1.242 0 2.263.493 2.919 1.373a.748.748 0 1 0 1.189-.907C28.589.712 27.133 0 25.389 0c-2.72 0-5.454 2.012-5.454 5.754 0 3.742 2.58 5.77 5.347 5.77 1.022 0 2.53-.16 3.78-1.509 1.336-1.441 1.34-3.438.57-4.535-.667-.951-1.697-1.511-2.9-1.576a4.412 4.412 0 0 0-.788.028c-.22-.194-.697-.543-1.066-.806a.655.655 0 0 0-.884.115.66.66 0 0 0 .13.96Z"/></svg>