<svg xmlns="http://www.w3.org/2000/svg" width="20" height="20" fill="none" viewBox="0 0 20 20"><path fill="#B0B3BC" fill-rule="evenodd" d="M5.366 1.664h9.267a3.833 3.833 0 0 1 3.7 3.95v5.433a3.833 3.833 0 0 1-3.734 3.95H6.666a2.016 2.016 0 0 0-1.442.65L3.25 17.756a.9.9 0 0 1-.65.291.958.958 0 0 1-.933-.991V5.614a3.833 3.833 0 0 1 3.7-3.95Zm9.267 12.083a2.583 2.583 0 0 0 2.45-2.7V5.614a2.583 2.583 0 0 0-2.45-2.7H5.366a2.583 2.583 0 0 0-2.45 2.7v10.667l1.358-1.484a3.333 3.333 0 0 1 2.392-1.05h7.967Z" clip-rule="evenodd"/><path fill="#B0B3BC" d="M6.874 7.29h4.167a.625.625 0 1 0 0-1.25H6.874a.625.625 0 0 0 0 1.25Zm6.25 2.082h-6.25a.625.625 0 0 0 0 1.25h6.25a.625.625 0 1 0 0-1.25Z"/></svg>