<svg xmlns="http://www.w3.org/2000/svg" width="26" height="26" fill="none" viewBox="0 0 26 26"><path fill="#BABCC4" d="m21.204 7.7.01-.011-4.058-4.133L16 4.733l2.302 2.345a2.768 2.768 0 0 0-1.756 2.589c0 1.533 1.221 2.777 2.727 2.777.393 0 .753-.088 1.09-.233v8.011c0 .611-.49 1.111-1.09 1.111-.6 0-1.091-.5-1.091-1.11v-5C18.182 14 17.2 13 16 13h-1.09V5.222C14.91 4 13.926 3 12.726 3H6.182C4.982 3 4 4 4 5.222V23h10.91v-8.333h1.636v5.555c0 1.534 1.221 2.778 2.727 2.778C20.778 23 22 21.756 22 20.222V9.667c0-.767-.305-1.467-.796-1.967Zm-8.477 3.078H6.182V5.222h6.545v5.556Zm6.546 0c-.6 0-1.091-.5-1.091-1.111s.49-1.111 1.09-1.111c.6 0 1.092.5 1.092 1.11 0 .612-.491 1.112-1.091 1.112Z"/><path fill="#38DD66" fill-rule="evenodd" d="m21.215 7.689-.011.011c.49.5.796 1.2.796 1.967v10.555C22 21.756 20.778 23 19.273 23c-1.506 0-2.727-1.244-2.727-2.778v-5.555h-1.637V23H4V7h2.182v3.778h6.545V7h2.182v6H16c1.2 0 2.182 1 2.182 2.222v5c0 .611.49 1.111 1.09 1.111.6 0 1.092-.5 1.092-1.11V12.21a2.744 2.744 0 0 1-1.091.233c-1.506 0-2.727-1.244-2.727-2.777 0-1.19.73-2.19 1.756-2.59L18.226 7h2.312l.677.689Zm-3.033 1.978c0 .61.49 1.11 1.09 1.11.6 0 1.092-.5 1.092-1.11 0-.611-.491-1.111-1.091-1.111s-1.091.5-1.091 1.11Z" clip-rule="evenodd"/></svg>