<svg xmlns="http://www.w3.org/2000/svg" width="16" height="18" fill="none" viewBox="0 0 16 18"><path fill="#91969D" d="m15.292 4.23.01-.01L11.695.5l-1.028 1.06 2.046 2.11A2.49 2.49 0 0 0 11.152 6c0 1.38 1.086 2.5 2.424 2.5.349 0 .669-.08.97-.21v7.21c0 .55-.437 1-.97 1-.534 0-.97-.45-.97-1V11c0-1.1-.873-2-1.94-2h-.969V2c0-1.1-.873-2-1.94-2H1.94C.873 0 0 .9 0 2v16h9.697v-7.5h1.455v5c0 1.38 1.086 2.5 2.424 2.5C14.914 18 16 16.88 16 15.5V6c0-.69-.271-1.32-.708-1.77ZM7.758 7H1.939V2h5.819v5Zm5.818 0c-.534 0-.97-.45-.97-1s.436-1 .97-1c.533 0 .97.45.97 1s-.437 1-.97 1Z"/></svg>