<svg width="89" height="19" viewBox="0 0 89 19" fill="none" xmlns="http://www.w3.org/2000/svg">
<path d="M11.1322 6.26142L14.3459 15.4786L17.0712 6.26142H19.6156L15.6052 18.5085H13.1116L9.82066 9.18932L6.60693 18.5085H4.06184L0 6.26142H2.64807L5.42412 15.4786L8.6386 6.26142H11.1322Z" fill="#323232"/>
<path d="M29.1023 11.1244C29.0508 9.36723 27.8945 7.99253 25.7091 7.99253C23.6782 7.99253 22.4439 9.54573 22.3409 11.1244H29.1023ZM31.5444 15.0205C30.85 17.185 28.8706 18.8912 25.9908 18.8912C22.6741 18.8912 19.7693 16.498 19.7693 12.3469C19.7693 8.50176 22.5719 5.8791 25.6826 5.8791C29.4877 5.8791 31.6216 8.47626 31.6216 12.2959C31.6216 12.6011 31.5959 12.9071 31.5701 13.0594H22.2637C22.3152 15.2493 23.9091 16.777 25.9916 16.777C28.074 16.777 29.0001 15.682 29.4627 14.3073L31.5452 15.0205H31.5444Z" fill="#323232"/>
<path d="M62.5004 12.3724C62.5004 9.54123 60.6974 8.01128 58.6377 8.01128C56.578 8.01128 54.775 9.54123 54.775 12.3724C54.775 15.2035 56.578 16.759 58.6377 16.759C60.6974 16.759 62.5004 15.229 62.5004 12.3724ZM64.9728 12.3724C64.9728 16.1215 62.3459 18.9017 58.6377 18.9017C54.9295 18.9017 52.3026 16.1215 52.3026 12.3724C52.3026 8.62326 54.9295 5.8686 58.6377 5.8686C62.3459 5.8686 64.9728 8.64876 64.9728 12.3724Z" fill="#323232"/>
<path d="M76.2004 12.3724C76.2004 9.54123 74.3974 8.01128 72.3377 8.01128C70.278 8.01128 68.475 9.54123 68.475 12.3724C68.475 15.2035 70.2773 16.759 72.3377 16.759C74.3982 16.759 76.2004 15.229 76.2004 12.3724ZM78.6728 12.3724C78.6728 16.1215 76.0459 18.9017 72.3377 18.9017C68.6295 18.9017 66.0026 16.1215 66.0026 12.3724C66.0026 8.62326 68.6295 5.8686 72.3377 5.8686C76.0459 5.8686 78.6728 8.64876 78.6728 12.3724Z" fill="#323232"/>
<path d="M83.1541 0.0532222H80.7332V18.5183H83.1541V0.0532222Z" fill="#323232"/>
<path d="M86.2444 5.10055H88.6388V18.5183H86.2444V5.10055ZM87.4302 0.0532222C88.3071 0.0532222 89 0.738699 89 1.60792C89 2.47714 88.3079 3.13937 87.4302 3.13937C86.5526 3.13937 85.8839 2.45389 85.8839 1.60792C85.8839 0.761948 86.576 0.0532222 87.4302 0.0532222Z" fill="#323232"/>
<path d="M43.9215 10.6826C43.9215 11.4289 43.3104 12.0333 42.5577 12.0333C42.1958 12.0333 41.8679 11.8938 41.624 11.6666C41.6218 11.6651 41.6195 11.6636 41.6172 11.6621C41.4105 11.4731 41.2787 11.2271 41.2242 10.9669C41.2045 10.8746 41.1932 10.7801 41.1932 10.6819C41.1932 10.4351 41.2598 10.2049 41.3764 10.0054C41.727 9.26443 43.1105 8.88719 43.1105 8.88719C43.1105 8.88719 44.0018 9.65517 43.9215 10.6819M39.7779 6.26528C40.3314 6.62152 40.8244 6.95826 41.2613 7.27775C40.7085 7.57774 40.2239 7.94898 39.8423 8.37946C38.555 9.83066 38.7011 12.0543 40.1701 13.336L40.2179 13.3758C41.6967 14.527 43.9942 14.3065 45.2346 12.8943C46.225 11.7663 46.4212 10.2619 45.7601 8.86994C45.7366 8.8212 45.6238 8.6412 45.5988 8.59245C46.4166 8.7567 47.4419 9.31018 48.1477 10.3039C48.8088 11.2346 48.9117 13.3893 47.3859 15.0137C46.8876 15.5447 46.2841 15.9077 45.7518 16.1469C44.8014 16.5737 43.8011 16.7124 42.7781 16.7124C39.4811 16.7124 36.3658 14.3215 36.3658 9.48792C36.3658 4.65434 39.5848 2.31442 42.8818 2.31442C45.3232 2.31442 47.2526 3.44238 48.2802 5.40806L50.5784 4.3926C49.2328 1.72419 46.4113 0 42.8811 0C38.3384 0 33.7692 3.31639 33.7692 9.48717C33.7692 15.658 38.0786 18.9998 42.6993 18.9998C44.4077 18.9998 46.927 18.7359 49.014 16.5137C51.2463 14.1363 51.2516 10.8446 49.9666 9.03569C48.8519 7.46749 47.1322 6.54427 45.1225 6.43703C44.681 6.41303 44.2396 6.42953 43.8072 6.48278C43.1612 5.91805 41.1932 4.57634 41.1932 4.57634L39.7779 6.26603V6.26528Z" fill="#323232"/>
</svg>
