<svg width="46" height="17" viewBox="0 0 46 17" fill="none" xmlns="http://www.w3.org/2000/svg">
<path d="M7.08073 9.93443C10.4606 9.93443 12.5473 11.0937 12.5563 13.0735C12.5473 15.08 10.4606 16.2482 7.08073 16.2482C3.64738 16.2482 1.50711 15.08 1.51603 13.0735C1.50711 11.0937 3.64738 9.93443 7.08073 9.93443ZM0 8.65027V1.01663H2.26512V3.06772H5.58254V1.01663H7.8655V8.65027H0ZM2.26512 6.84887H5.58254V4.83345H2.26512V6.84887ZM3.79898 13.0735C3.78115 14.0009 4.94938 14.4825 7.08073 14.4825C9.18534 14.4825 10.309 14.0009 10.309 13.0735C10.309 12.146 9.18534 11.7091 7.08073 11.7002C4.94938 11.7091 3.78115 12.146 3.79898 13.0735ZM10.1128 9.57772V0H12.3957V3.76331H14.5895V5.67172H12.3957V9.57772H10.1128Z" fill="black"/>
<path d="M28.9302 0V16.2661H26.6294V0H28.9302ZM15.821 6.92021C15.8121 3.37985 17.6224 1.14148 20.1194 1.14148C22.5629 1.14148 24.3821 3.37985 24.3821 6.92021C24.3821 10.4873 22.5629 12.7168 20.1194 12.7168C17.6224 12.7168 15.8121 10.4873 15.821 6.92021ZM18.0148 6.92021C18.0059 9.33694 18.8531 10.6568 20.1194 10.6479C21.3501 10.6568 22.1794 9.33694 22.1883 6.92021C22.1794 4.51241 21.3501 3.19257 20.1194 3.19257C18.8531 3.19257 18.0059 4.51241 18.0148 6.92021Z" fill="black"/>
<path d="M45.9997 8.18654V9.98794H31.1427V8.18654H45.9997ZM32.9619 2.05109V0.303205H44.1983V4.63726H35.2627V5.58254H44.5015V7.3126H32.9976V2.99638H41.9154V2.05109H32.9619ZM33.0511 16.052V10.9867H44.2697V16.052H33.0511ZM35.2805 14.2328H42.0046V12.7881H35.2805V14.2328Z" fill="black"/>
</svg>
