<svg width="26" height="14" viewBox="0 0 26 14" fill="none" xmlns="http://www.w3.org/2000/svg">
<path d="M11.4362 0V10.4257H10.1851V0H11.4362ZM2.97929e-05 4.49105C-0.00798995 2.438 1.60398 1.00247 3.73723 0.994448C5.87048 1.00247 7.46641 2.438 7.47443 4.49105C7.46641 6.56817 5.87048 8.01172 3.73723 8.0037C1.60398 8.01172 -0.00798995 6.56817 2.97929e-05 4.49105ZM1.23507 4.49105C1.21903 5.91055 2.29368 6.89698 3.73723 6.89698C5.15672 6.89698 6.23939 5.91055 6.23939 4.49105C6.23939 3.09562 5.15672 2.10117 3.73723 2.10117C2.29368 2.10117 1.21903 3.09562 1.23507 4.49105ZM2.22952 13.9383V9.36706H3.4806V12.8797H11.8853V13.9383H2.22952Z" fill="#222222" fill-opacity="0.4"/>
<path d="M25.6479 0V10.8267H24.3808V9.35102H21.4295V8.43677H24.3808V0H25.6479ZM13.8108 6.60827C16.4653 6.59223 20.0421 6.56817 23.0977 6.19124L23.1779 7.10549C21.9107 7.30598 20.5714 7.4343 19.2642 7.5145V10.3294H17.9971V7.57866C16.5535 7.63479 15.1822 7.63479 13.9872 7.63479L13.8108 6.60827ZM14.9656 3.06354C14.9576 1.56385 16.3851 0.577421 18.4943 0.577421C20.5875 0.577421 22.015 1.56385 22.023 3.06354C22.015 4.58729 20.5875 5.53362 18.4943 5.53362C16.3851 5.53362 14.9576 4.58729 14.9656 3.06354ZM15.8638 13.9383V9.76804H17.131V12.8797H26.0008V13.9383H15.8638ZM16.1686 3.06354C16.1526 3.99383 17.0989 4.59531 18.4943 4.60333C19.8497 4.59531 20.812 3.99383 20.82 3.06354C20.812 2.14929 19.8497 1.52375 18.4943 1.53979C17.0989 1.52375 16.1526 2.14929 16.1686 3.06354Z" fill="#222222" fill-opacity="0.4"/>
</svg>
