<svg xmlns="http://www.w3.org/2000/svg" width="20" height="20" fill="none" viewBox="0 0 20 20"><path fill="#B0B3BC" d="M13.747 6.803h-7.5a.625.625 0 0 0 0 1.25h7.5a.625.625 0 1 0 0-1.25Z"/><path fill="#B0B3BC" fill-rule="evenodd" d="M14.072 2.978h.092a4.167 4.167 0 0 1 4.167 4.166v7.5a4.167 4.167 0 0 1-4.167 4.167H5.831a4.166 4.166 0 0 1-4.167-4.167v-7.5a4.167 4.167 0 0 1 4.167-4.166h.075V1.46a.625.625 0 1 1 1.25 0v1.517h5.666V1.46a.625.625 0 1 1 1.25 0v1.517Zm.092 14.583a2.917 2.917 0 0 0 2.917-2.917v-7.5a2.917 2.917 0 0 0-2.917-2.916H5.831a2.917 2.917 0 0 0-2.917 2.916v7.5a2.917 2.917 0 0 0 2.917 2.917h8.333Z" clip-rule="evenodd"/></svg>