<svg width="24" height="23" viewBox="0 0 24 23" fill="none" xmlns="http://www.w3.org/2000/svg">
<path d="M20.9515 9.91933L5.11572 1.69301C4.84927 1.5546 4.54363 1.49494 4.23965 1.52198C3.93567 1.54902 3.64782 1.66149 3.41459 1.84435C3.18135 2.0272 3.01383 2.27174 2.93442 2.54528C2.85501 2.81881 2.86749 3.10832 2.97019 3.3751L5.6893 10.4377H12.7536C12.9525 10.4377 13.1433 10.511 13.2839 10.6415C13.4246 10.772 13.5036 10.9489 13.5036 11.1335C13.5036 11.318 13.4246 11.495 13.2839 11.6254C13.1433 11.7559 12.9525 11.8292 12.7536 11.8292H5.6893L2.97019 18.8918C2.8898 19.1018 2.86479 19.3265 2.89726 19.5473C2.92972 19.768 3.01871 19.9783 3.15678 20.1606C3.29484 20.3429 3.47797 20.4919 3.69084 20.5951C3.9037 20.6982 4.14011 20.7526 4.38028 20.7536C4.63801 20.7532 4.89129 20.6913 5.11581 20.5739L20.9514 12.3476C21.1841 12.2267 21.3778 12.0505 21.5126 11.8371C21.6474 11.6237 21.7185 11.3808 21.7185 11.1335C21.7185 10.8861 21.6475 10.6433 21.5127 10.4298C21.3778 10.2164 21.1841 10.0402 20.9515 9.91933Z" fill="#222222"/>
</svg>
