<svg width="15" height="15" viewBox="0 0 15 15" fill="none" xmlns="http://www.w3.org/2000/svg">
<path fill-rule="evenodd" clip-rule="evenodd" d="M0.293384 13.2454C-0.0977945 13.6352 -0.0977945 14.2673 0.293384 14.6572C0.684562 15.0471 1.31879 15.0471 1.70997 14.6572L7.47408 8.91238L13.2602 14.7068C13.6504 15.0976 14.2831 15.0976 14.6734 14.7068C15.0636 14.316 15.0636 13.6824 14.6734 13.2916L8.89066 7.50054L14.7064 1.70424C15.0976 1.31437 15.0976 0.682271 14.7064 0.292402C14.3152 -0.0974675 13.681 -0.0974671 13.2898 0.292402L7.47748 6.08532L1.70933 0.308862C1.31908 -0.0819427 0.686375 -0.0819427 0.296132 0.308862C-0.0941115 0.699668 -0.0941115 1.33329 0.296132 1.72409L6.06089 7.49716L0.293384 13.2454Z" fill="#BABCC4"/>
</svg>
