<svg width="71" height="14" viewBox="0 0 71 14" fill="none" xmlns="http://www.w3.org/2000/svg">
<path d="M1.17394 1.33047V4.72707H4.19489V1.33047H5.33752V10.4403H0V1.33047H1.17394ZM1.17394 9.42284H4.19489V5.72884H1.17394V9.42284ZM11.4107 0V13.9151H10.2211V6.54277H8.2802V13.2108H7.10626V0.297399H8.2802V5.52535H10.2211V0H11.4107Z" fill="#222222" fill-opacity="0.4"/>
<path d="M24.904 0V13.9464H23.6831V6.27668H20.7404V5.25926H23.6831V0H24.904ZM20.5056 1.28351V2.30093H15.2463V5.19665H19.8952V6.19841H15.2463V9.56371C17.8055 9.56371 19.4334 9.47762 21.3508 9.14109L21.4917 10.1585C19.4725 10.4872 17.7664 10.5811 15.0742 10.5811H14.0098V1.28351H20.5056Z" fill="#222222" fill-opacity="0.4"/>
<path d="M38.7416 0V13.9464H37.5207V0H38.7416ZM34.5154 1.29916V6.24537H29.3187V9.53241C31.6275 9.53241 33.6858 9.43067 36.1746 9.03153L36.2998 10.0646C33.7328 10.4716 31.6197 10.5655 29.2248 10.5655H28.0665V5.24361H33.2788V2.31658H28.0352V1.29916H34.5154Z" fill="#222222" fill-opacity="0.4"/>
<path d="M49.8407 2.25397C49.8407 4.14793 51.2808 5.88536 53.3 6.57407L52.6269 7.54453C51.0851 6.98104 49.8721 5.83058 49.2616 4.38272C48.6668 6.01841 47.4303 7.30974 45.8024 7.93585L45.145 6.94974C47.2268 6.16711 48.6198 4.30445 48.6355 2.16005V0.720018H49.8407V2.25397ZM56.0705 0V3.63139H58.1679V4.66446H56.0705V8.46803H54.8496V0H56.0705ZM51.6095 8.82804C54.4739 8.82804 56.1957 9.75154 56.1957 11.3481C56.1957 12.976 54.4739 13.8838 51.6095 13.8838C48.7451 13.8838 46.992 12.976 46.992 11.3481C46.992 9.75154 48.7451 8.82804 51.6095 8.82804ZM51.6095 9.81415C49.512 9.81415 48.2129 10.3933 48.2285 11.3481C48.2129 12.3342 49.512 12.8977 51.6095 12.9134C53.7226 12.8977 55.0061 12.3342 55.0061 11.3481C55.0061 10.3933 53.7226 9.81415 51.6095 9.81415Z" fill="#222222" fill-opacity="0.4"/>
<path d="M65.1497 1.61221V2.61398H60.8139V5.29056H64.9462V6.27668H60.8139V9.42284C62.8801 9.41501 64.1558 9.36023 65.6819 9.07848L65.7915 10.0959C64.1636 10.409 62.8175 10.4716 60.5322 10.4716H59.64V1.61221H65.1497ZM71.0038 0V13.9151H69.8142V6.62103H67.9046V13.2108H66.715V0.297399H67.9046V5.60362H69.8142V0H71.0038Z" fill="#222222" fill-opacity="0.4"/>
</svg>
