<svg width="163" height="96" viewBox="0 0 163 96" fill="none" xmlns="http://www.w3.org/2000/svg">
<g clip-path="url(#clip0_2825_42865)">
<path d="M51.9068 29.0578C51.0883 30.9411 50.1969 34.2364 49.7729 37.0934L48.4613 37.9096L46.4414 37.1524C46.8846 33.6906 48.0899 29.3729 49.0595 27.692L50.9167 26.8208L51.9068 29.0565V29.0578Z" fill="#303132" stroke="#23211F" stroke-width="1.10398" stroke-linecap="round" stroke-linejoin="round"/>
<path d="M162.235 66.544C162.487 68.2928 162.854 72.2082 161.62 72.508C160.01 72.8974 157.852 72.7373 157.341 72.6899C157.341 69.9071 157.281 67.3601 157.176 65.0271C160.182 64.9143 161.965 64.6927 162.234 66.5427L162.235 66.544Z" fill="#97989B"/>
<path d="M8.04659 50.9801C8.15931 53.7129 8.49361 57.8832 6.37124 57.9985C4.78042 58.0856 2.41853 57.928 1.19531 57.8358C1.60006 53.8974 2.14186 50.8327 2.69903 48.4805C5.12625 48.5458 7.93772 48.246 8.04659 50.9801Z" fill="#FAE789"/>
<path d="M149.804 50.9801C149.917 48.2447 152.726 48.5445 155.152 48.4805C155.709 50.8327 156.251 53.8974 156.655 57.8358C155.432 57.928 153.073 58.0856 151.48 57.9985C149.36 57.8832 149.694 53.7129 149.804 50.9801Z" fill="#FAE789"/>
<path d="M40.9322 35.6774C40.8771 36.5294 41.5688 37.243 42.4231 37.2289C48.4329 37.1136 70.1356 36.7139 78.9261 36.7139C87.7166 36.7139 109.417 37.1136 115.427 37.2289C116.281 37.2443 116.973 36.5294 116.917 35.6774C116.178 24.1915 111.434 14.1021 109.572 10.5327C109.117 9.65888 108.299 9.03109 107.332 8.83379C98.8075 7.07599 87.9036 6.59041 78.9248 6.59041C69.9461 6.59041 59.0396 7.0747 50.5155 8.83379C49.5498 9.03109 48.73 9.6576 48.2753 10.5327C46.413 14.1021 41.6687 24.1915 40.9296 35.6774H40.9322ZM1.19502 57.8357C2.41824 57.9279 4.78013 58.0855 6.37095 57.9984C8.49332 57.8831 8.15902 53.7128 8.0463 50.98C7.93615 48.2446 5.12468 48.5444 2.69874 48.4804C3.50568 45.0519 4.34208 43.1314 4.8288 42.2089C5.05551 41.7746 5.43336 41.4351 5.89191 41.2621C18.2035 36.6473 28.7603 35.3981 32.0905 35.1009C32.7796 35.0406 33.379 34.5935 33.6313 33.9491C36.2609 27.1754 40.5095 8.79919 45.7636 5.55521C51.3237 2.11648 70.0831 1.3042 78.9261 1.3042C87.7691 1.3042 106.526 2.11648 112.089 5.55521C117.339 8.79919 121.589 27.1754 124.221 33.9491C124.471 34.5935 125.07 35.0406 125.759 35.1009C129.089 35.3981 139.646 36.6473 151.96 41.2621C152.418 41.4351 152.794 41.7746 153.023 42.2089C153.508 43.1301 154.344 45.0506 155.151 48.4804C152.724 48.5457 149.915 48.2459 149.803 50.98C149.693 53.7128 149.359 57.8831 151.479 57.9984C153.072 58.0855 155.431 57.9279 156.655 57.8357C156.875 59.9689 157.054 62.3557 157.173 65.0283C157.278 67.3614 157.339 69.9084 157.339 72.6911V72.7462C157.339 75.0844 156.805 76.9127 145.144 77.1266C131.426 77.3816 95.6912 78.2285 78.9248 78.2285C62.1585 78.2285 26.4214 77.3816 12.7048 77.1266C1.04516 76.9114 0.509766 75.0831 0.509766 72.7462C0.509766 66.7554 0.781306 61.842 1.19374 57.8357H1.19502Z" fill="#F16543"/>
<path d="M157.176 65.028C160.182 64.9153 161.965 64.6936 162.234 66.5437C162.486 68.2925 162.853 72.2079 161.619 72.5077C160.009 72.8971 157.851 72.737 157.34 72.6896" stroke="#23211F" stroke-width="1.50971" stroke-linecap="round" stroke-linejoin="round"/>
<path d="M155.154 48.4804C154.347 45.0519 153.51 43.1314 153.026 42.2089C152.797 41.7746 152.419 41.4351 151.963 41.2621C139.649 36.6473 129.092 35.3981 125.762 35.1009C125.073 35.0406 124.473 34.5935 124.224 33.9491C121.591 27.1754 117.343 8.79919 112.091 5.55521C106.529 2.11648 87.7717 1.3042 78.9287 1.3042C70.0857 1.3042 51.3264 2.11648 45.7662 5.55521C40.5134 8.79919 36.2635 27.1754 33.634 33.9491C33.3816 34.5935 32.7822 35.0406 32.0931 35.1009C28.7629 35.3981 18.2061 36.6473 5.89453 41.2621C5.43471 41.4351 5.05814 41.7746 4.83143 42.2089C4.3447 43.1301 3.50831 45.0506 2.70137 48.4804C2.1442 50.8327 1.6024 53.8973 1.19765 57.8357C0.785213 61.842 0.513672 66.7541 0.513672 72.7462C0.513672 75.0844 1.04779 76.9127 12.7087 77.1266C26.4266 77.3816 62.1637 78.2285 78.9287 78.2285C95.6938 78.2285 131.43 77.3816 145.148 77.1266C156.807 76.9114 157.343 75.0831 157.343 72.7462V72.6911C157.343 69.9084 157.282 67.3614 157.177 65.0283C157.057 62.3557 156.878 59.9689 156.659 57.8357C156.254 53.8973 155.712 50.8327 155.155 48.4804H155.154Z" stroke="#23211F" stroke-width="1.50971" stroke-miterlimit="10"/>
<path d="M115.429 37.2288C109.419 37.1135 87.7166 36.7138 78.9286 36.7138C70.1407 36.7138 48.4354 37.1135 42.4256 37.2288C41.5713 37.2442 40.8796 36.5293 40.9347 35.6773C41.6738 24.1914 46.418 14.102 48.2804 10.5326C48.7351 9.6588 49.5536 9.03101 50.5206 8.83371C59.0447 7.07591 69.9486 6.59033 78.9299 6.59033C87.9113 6.59033 98.8126 7.07462 107.337 8.83371C108.302 9.03101 109.122 9.65752 109.577 10.5326C111.439 14.102 116.184 24.1914 116.923 35.6773C116.978 36.5293 116.286 37.2429 115.432 37.2288H115.429Z" stroke="#23211F" stroke-width="1.50971" stroke-miterlimit="10"/>
<path d="M2.69903 48.4805C5.12625 48.5458 7.93772 48.246 8.04659 50.9801C8.15931 53.7129 8.49361 57.8832 6.37124 57.9985C4.78042 58.0856 2.41853 57.928 1.19531 57.8358" stroke="#23211F" stroke-width="1.50971" stroke-linecap="round" stroke-linejoin="round"/>
<path d="M155.154 48.4805C152.726 48.5458 149.918 48.246 149.806 50.9801C149.696 53.7129 149.362 57.8832 151.481 57.9985C153.075 58.0856 155.434 57.928 156.657 57.8358" stroke="#23211F" stroke-width="1.50971" stroke-linecap="round" stroke-linejoin="round"/>
<path d="M129.797 67.2126C130.04 67.5239 130.272 67.8404 130.492 68.1619C132.475 71.0549 133.526 74.3296 133.683 77.589C133.705 78.0412 133.71 78.4948 133.696 78.9458C133.036 87.6143 125.5 94.807 117.082 95.4847C116.634 95.4911 116.184 95.4834 115.734 95.4578C110.808 95.1439 105.969 92.7455 102.622 88.4625C101.101 86.5164 100.031 84.3639 99.4011 82.1398C99.2743 81.6952 99.1667 81.2468 99.0744 80.7971C98.151 74.8677 100.578 68.9178 104.674 64.8577C104.995 64.5477 105.328 64.2492 105.662 63.9609C112.284 58.658 122.654 60.3018 128.897 66.1633C129.213 66.4977 129.513 66.8487 129.798 67.2139L129.797 67.2126Z" fill="#353638" stroke="#23211F" stroke-width="1.50971" stroke-miterlimit="10"/>
<path d="M124.981 78.2059C124.99 83.487 120.056 87.4818 115.123 86.7758C109.954 86.0712 106.665 80.9016 107.84 75.9664C109.249 70.7968 115.123 67.9769 119.821 70.0921C122.64 71.5014 124.519 74.0869 124.912 77.0375C124.961 77.4205 124.984 77.81 124.981 78.2059Z" fill="#97989B" stroke="#23211F" stroke-width="1.50971" stroke-miterlimit="10"/>
<path d="M28.0572 67.2126C27.8138 67.5239 27.582 67.8404 27.3617 68.1619C25.3789 71.0549 24.3286 74.3296 24.1711 77.589C24.1493 78.0412 24.1442 78.4948 24.1583 78.9458C24.8179 87.6143 32.3544 94.807 40.7722 95.4847C41.2205 95.4911 41.6701 95.4834 42.1197 95.4578C47.0458 95.1439 51.8849 92.7455 55.2318 88.4625C56.7534 86.5164 57.8229 84.3639 58.4531 82.1398C58.5799 81.6952 58.6875 81.2468 58.7797 80.7971C59.7032 74.8677 57.276 68.9178 53.1798 64.8577C52.8596 64.5477 52.5266 64.2492 52.1923 63.9609C45.5703 58.658 35.2005 60.3018 28.9576 66.1633C28.6413 66.4977 28.3415 66.8487 28.0559 67.2139L28.0572 67.2126Z" fill="#353638" stroke="#23211F" stroke-width="1.50971" stroke-miterlimit="10"/>
<path d="M32.8732 78.2059C32.8643 83.487 37.7981 87.4818 42.732 86.7758C47.9002 86.0712 51.1894 80.9016 50.0149 75.9664C48.606 70.7968 42.732 67.9769 38.0338 70.0921C35.2146 71.5014 33.3356 74.0869 32.9424 77.0375C32.8937 77.4205 32.8707 77.81 32.8732 78.2059Z" fill="#97989B" stroke="#23211F" stroke-width="1.50971" stroke-miterlimit="10"/>
<path d="M94.5024 12.4234C94.6574 14.5835 93.3663 16.6539 91.1811 17.2458C90.5689 17.4111 89.8849 17.461 89.1459 17.3611C88.7539 16.2823 88.0853 14.6988 87.1657 13.6725L87.1055 13.652C87.4577 13.3548 87.9893 12.9153 88.8513 12.5758C89.5173 12.3106 90.387 12.1082 91.5206 12.0787C92.3045 12.0134 92.3326 12.1018 94.5024 12.4234Z" fill="#FCF2C9"/>
<path d="M87.1275 29.6786C86.4307 27.0534 83.8447 24.2361 79.258 24.6115C75.4282 24.9241 71.7381 29.521 73.6747 33.9053C75.5973 34.3524 77.4046 34.6343 78.9237 34.665C79.1388 34.6701 79.3527 34.6727 79.5628 34.6701C80.3441 34.6624 81.0985 34.6125 81.8222 34.5125C82.0464 34.4805 82.2692 34.4446 82.4883 34.4024C83.0352 34.2973 83.5667 34.1602 84.0765 33.9847C85.1998 33.6029 86.2284 33.043 87.1557 32.2615C87.3824 31.5274 87.376 30.6151 87.1288 29.6786H87.1275Z" fill="#ED9670"/>
<path d="M75.6799 20.7976C76.4138 21.0449 76.8134 21.8392 76.5662 22.5759C76.3216 23.3126 75.5249 23.7072 74.7909 23.4625C74.057 23.2152 73.6574 22.4209 73.902 21.6842C74.1467 20.9475 74.9459 20.5529 75.6799 20.7976Z" fill="#23211F"/>
<path d="M75.2865 9.79582C75.0342 10.4403 74.6896 10.9143 74.395 11.2397C73.811 11.879 72.5775 12.3467 71.9281 11.4819C70.9265 10.1456 73.1641 8.46978 75.2865 9.79582Z" fill="#EFC890"/>
<path d="M68.0944 21.9919C67.4681 21.7818 67.0736 21.4653 67.2554 21.1078C67.4296 20.7658 67.965 20.7286 68.4569 20.9105C68.9615 21.063 69.3663 21.4128 69.2984 21.792C69.2305 22.1841 68.7246 22.202 68.0944 21.9919Z" fill="#23211F"/>
<path d="M67.9579 22.4066C68.0027 22.6987 68.3601 23.1727 68.7943 23.4828C68.5291 24.9613 67.4904 25.73 66.7065 25.6826C65.9252 25.63 66.3594 23.2521 66.6642 22.6999V22.6974C67.1215 22.7179 67.5582 22.5629 67.9579 22.4053V22.4066Z" fill="#D4887C"/>
<path d="M107.255 18.9076C105.572 13.9827 102.542 11.5523 98.7581 10.2211C97.0277 9.61126 95.2575 9.60614 93.627 9.93925C94.1637 10.7259 94.4429 11.583 94.5005 12.4248C94.6555 14.5849 93.3644 16.6553 91.1793 17.2472C91.2664 17.5867 91.3445 17.9365 91.4137 18.2965C91.643 19.52 91.748 20.8538 91.6583 22.2669C91.5635 23.748 91.2536 25.3187 90.6477 26.9446C90.4979 27.3469 90.3403 27.7287 90.1738 28.0938V28.0964C90.2865 29.3596 90.5709 30.7817 90.9808 32.4101C94.1419 35.1827 99.6304 35.1122 103.126 32.9175C107.505 30.1681 108.956 23.8889 107.255 18.9089V18.9076Z" fill="#EFC890"/>
<path d="M92.1532 36.8366L86.4086 36.7636C85.6965 35.804 84.8857 34.5881 84.0762 33.9834C85.1995 33.6016 86.228 33.0417 87.1553 32.2602C88.3389 31.2634 89.3546 29.9028 90.1769 28.0938C90.2896 29.357 90.5739 30.7791 90.9838 32.4075C91.2054 33.2916 91.4654 34.2384 91.7523 35.2544C91.9073 35.8014 92.0418 36.3203 92.1545 36.8354L92.1532 36.8366Z" fill="#EFC890"/>
<path d="M91.5222 12.0793C92.3061 12.0139 92.3343 12.1023 94.5041 12.4239C94.4464 11.5822 94.1672 10.7251 93.6305 9.93841C93.6203 9.91791 93.6062 9.90125 93.5934 9.88075C91.7656 7.26071 88.0383 7.34526 86.2182 9.0941C84.6223 7.66813 82.4461 6.32415 79.3144 5.35557C78.1681 5.00068 77.055 4.8085 75.9714 4.74572C75.714 4.73034 75.4591 4.72266 75.208 4.72266C73.6172 4.72266 72.1071 4.99939 70.6917 5.46191C69.3533 5.89623 68.1006 6.49839 66.9465 7.17999C66.7967 7.26711 66.6468 7.35936 66.4995 7.4516C66.0781 7.71681 65.6811 7.98074 65.3058 8.24851C65.1559 8.35613 65.0112 8.46375 64.869 8.57009C64.7985 8.62518 64.7294 8.67771 64.6589 8.7328C61.745 11.0249 60.4424 13.5706 59.7148 17.1567C61.143 19.4423 62.7786 21.9073 60.1119 28.9129C60.8266 29.3255 61.567 29.697 62.2996 30.0224C62.4623 30.0955 62.6262 30.1672 62.794 30.2377C66.0448 31.6457 70.0628 33.0653 73.6774 33.9045C71.7395 29.5215 75.4296 24.9233 79.2607 24.6107C83.8474 24.2366 86.4334 27.0526 87.1302 29.6778C87.3774 30.6143 87.3851 31.5266 87.1571 32.2607C88.3406 31.2639 89.3563 29.9033 90.1786 28.0942V28.0917C90.3464 27.7265 90.5027 27.3447 90.6526 26.9424C91.2597 25.3166 91.5684 23.7459 91.6631 22.2648C91.7528 20.8516 91.6478 19.5179 91.4185 18.2944C91.3481 17.9343 91.2712 17.5846 91.1841 17.2451C90.5719 17.4103 89.8879 17.4603 89.1488 17.3604C88.7569 16.2816 88.0883 14.698 87.1686 13.6718L87.1084 13.6513C87.4607 13.3541 87.9922 12.9146 88.8542 12.5751C89.5203 12.3099 90.39 12.1075 91.5235 12.078L91.5222 12.0793ZM65.6426 18.9273C65.398 19.6614 64.6013 20.0586 63.8674 19.8139C63.1309 19.5666 62.7338 18.7723 62.981 18.033C63.2257 17.2989 64.0224 16.9017 64.7563 17.1464C65.4928 17.3937 65.8898 18.188 65.6426 18.9273ZM66.7083 25.683C65.927 25.6305 66.3612 23.2526 66.666 22.7004V22.6978C67.1233 22.7183 67.5601 22.5633 67.9597 22.4057C68.0045 22.6978 68.3619 23.1719 68.7961 23.4819C68.531 24.9604 67.4922 25.7291 66.7083 25.6817V25.683ZM69.2969 21.792C69.229 22.1841 68.7231 22.202 68.0929 21.9919C67.4666 21.7818 67.0721 21.4653 67.2539 21.1079C67.4281 20.7658 67.9635 20.7286 68.4554 20.9106C68.96 21.063 69.3648 21.4128 69.2969 21.792ZM71.9291 11.4822C70.9274 10.146 73.1651 8.47015 75.2874 9.79619C75.0351 10.4406 74.6906 10.9147 74.396 11.2401C73.8119 11.8794 72.5784 12.3471 71.9291 11.4822ZM76.5657 22.5761C76.3211 23.3128 75.5244 23.7074 74.7905 23.4627C74.0565 23.2154 73.6569 22.4211 73.9016 21.6844C74.1462 20.9477 74.9455 20.5531 75.6794 20.7978C76.4133 21.0451 76.8129 21.8394 76.5657 22.5761Z" fill="#EFC890"/>
<path d="M86.408 36.764C85.6958 35.8044 84.885 34.5886 84.0755 33.9838C83.5658 34.1581 83.0342 34.2964 82.4873 34.4015C82.267 34.4438 82.0454 34.4784 81.8212 34.5117C81.0975 34.6116 80.3431 34.6616 79.5618 34.6693C79.3517 34.6718 79.1378 34.6693 78.9227 34.6641C77.4049 34.6347 75.5963 34.3515 73.6737 33.9044C70.0579 33.0652 66.0411 31.6469 62.7903 30.2376C62.6225 30.1672 62.4586 30.0954 62.2959 30.0224C61.5645 29.6982 60.8229 29.3254 60.1082 28.9129C57.8206 27.5971 55.7789 25.8559 55.0168 23.8329L55.0143 23.8304C53.9806 22.6094 51.8237 19.7843 49.1518 21.1104C46.48 22.4339 45.7857 25.9879 47.0218 27.059C48.2578 28.1275 49.6834 27.3383 50.7516 28.0404C51.8173 28.7425 55.72 33.0524 56.6461 34.4784C56.1863 35.1946 55.7149 36.0363 55.2884 36.9959L86.4067 36.7615L86.408 36.764Z" fill="#EFC890"/>
<path d="M70.5881 5.16318L70.688 5.46298C69.3496 5.89731 68.0969 6.49947 66.9428 7.18107V7.17851C66.8903 6.88127 66.4433 5.24774 64.9281 3.92939C64.9281 3.92939 64.2812 3.33748 62.7609 2.58798L62.748 2.57773C63.2476 1.79876 64.002 1.15432 64.9601 0.794306C68.3338 -0.479203 71.1466 2.82244 70.5881 5.1619V5.16318Z" fill="#EFC890"/>
<path d="M66.942 7.17988V7.18244C66.7921 7.26956 66.6423 7.36181 66.495 7.45405C66.0736 7.71926 65.6765 7.98319 65.3012 8.25096C65.1513 8.35858 65.0066 8.4662 64.8644 8.57254C64.794 8.62763 64.7248 8.68016 64.6544 8.73525C61.8352 7.37718 61.4804 4.54446 62.7472 2.5791L62.76 2.58935C64.2804 3.33885 64.9272 3.93076 64.9272 3.93076C66.4424 5.24911 66.8895 6.88264 66.942 7.17988Z" fill="#FCF2C9"/>
<path d="M64.7569 17.146C65.4934 17.3932 65.8905 18.1876 65.6433 18.9268C65.3986 19.661 64.6019 20.0581 63.868 19.8134C63.1315 19.5661 62.7345 18.7718 62.9817 18.0326C63.2263 17.2984 64.023 16.9013 64.7569 17.146Z" fill="#23211F"/>
<path d="M64.8652 8.57256C65.0074 8.46494 65.1521 8.35732 65.302 8.25098C65.1521 8.3586 65.0074 8.46622 64.8652 8.57256Z" fill="#EFC890"/>
<path d="M59.7119 17.1592C61.1401 19.4448 62.7757 21.9099 60.109 28.9154C57.8214 27.5996 55.7797 25.8585 55.0176 23.8355L55.0151 23.8329C54.6884 22.9566 54.5962 22.0303 54.8281 21.0604C55.7592 17.172 59.662 17.1592 59.7119 17.1592Z" fill="#ED9670"/>
<path d="M90.1771 28.0952C90.2899 29.3585 90.5742 30.7806 90.9841 32.409C91.2057 33.293 91.4657 34.2398 91.7526 35.2558C91.9076 35.8029 92.0421 36.3218 92.1548 36.8368L86.4102 36.7638" stroke="black" stroke-width="1.50971" stroke-linecap="round" stroke-linejoin="round"/>
<path d="M97.5162 26.7612C97.2088 27.4403 96.5505 27.9796 95.3145 27.8374" stroke="black" stroke-width="1.50971" stroke-linecap="round" stroke-linejoin="round"/>
<path d="M97.5185 26.7611C97.0318 26.8034 96.522 26.7483 96.0276 26.6112C95.0734 26.3435 94.529 24.9149 95.4756 24.2064C96.4593 23.4672 97.4161 24.1385 97.6556 24.97C97.785 25.412 97.7952 26.1462 97.5185 26.7611Z" stroke="black" stroke-width="1.50971" stroke-linecap="round" stroke-linejoin="round"/>
<path d="M97.5175 26.7615C98.8406 26.6411 99.9819 25.7775 100.187 23.834C100.484 21.0269 95.8626 17.9622 92.3019 21.5457C92.0675 21.7828 91.8548 22.0224 91.6602 22.2645" stroke="black" stroke-width="1.50971" stroke-linecap="round" stroke-linejoin="round"/>
<path d="M90.9824 32.4089C94.1436 35.1814 99.632 35.1109 103.127 32.9162C107.507 30.1668 108.958 23.8876 107.257 18.9076C105.574 13.9827 102.543 11.5523 98.7598 10.2211C97.0293 9.61126 95.2592 9.60614 93.6287 9.93925" stroke="black" stroke-width="1.50971" stroke-linecap="round" stroke-linejoin="round"/>
<path d="M70.5887 5.16338C71.1484 2.82263 68.3344 -0.479008 64.9606 0.795782C64.0012 1.1558 63.2481 1.80024 62.7486 2.57921C61.4831 4.54456 61.8366 7.37728 64.6558 8.73535" stroke="#23211F" stroke-width="1.50971" stroke-linecap="round" stroke-linejoin="round"/>
<path d="M85.1973 11.0732C85.2997 10.284 85.6737 9.61773 86.2155 9.095C88.0356 7.34617 91.7629 7.26161 93.5907 9.88166C93.6035 9.90216 93.6176 9.91881 93.6278 9.93931C94.1645 10.726 94.4437 11.5831 94.5014 12.4248C94.6564 14.5849 93.3653 16.6553 91.1801 17.2473C90.5679 17.4125 89.8839 17.4625 89.1449 17.3626C89.1128 17.3574 89.0821 17.3549 89.0526 17.3498" stroke="#23211F" stroke-width="1.50971" stroke-linecap="round" stroke-linejoin="round"/>
<path d="M75.2871 9.79613C75.492 9.27725 75.6342 8.64434 75.6419 7.89355" stroke="#23211F" stroke-width="1.13229" stroke-linecap="round" stroke-linejoin="round"/>
<path d="M75.2865 9.79582C73.1641 8.46978 70.9265 10.1456 71.9281 11.4819C72.5775 12.3454 73.811 11.879 74.395 11.2397C74.6896 10.9156 75.0342 10.4403 75.2865 9.79582Z" stroke="#23211F" stroke-width="1.13229" stroke-linecap="round" stroke-linejoin="round"/>
<path d="M75.9684 4.74658C72.9674 5.52042 70.5402 6.53257 69.2414 8.70035C68.1053 10.594 68.3999 13.3959 72.0849 14.098C75.1384 14.6771 77.458 11.2089 75.3408 9.83293C75.3229 9.82012 75.3037 9.80859 75.2857 9.79834" stroke="#23211F" stroke-width="1.13229" stroke-linecap="round" stroke-linejoin="round"/>
<path d="M55.0176 23.8355C55.7797 25.8585 57.8214 27.5996 60.109 28.9154C60.8237 29.328 61.564 29.6995 62.2967 30.0249C62.4593 30.098 62.6233 30.1697 62.7911 30.2402C66.0419 31.6482 70.0599 33.0678 73.6745 33.907C75.597 34.3541 77.4043 34.6359 78.9234 34.6667C79.1386 34.6718 79.3525 34.6744 79.5625 34.6718C80.3439 34.6641 81.0983 34.6142 81.822 34.5142C82.0461 34.4822 82.269 34.4463 82.488 34.4041C83.0349 34.299 83.5665 34.1619 84.0763 33.9864C85.1996 33.6046 86.2281 33.0447 87.1554 32.2632C88.339 31.2664 89.3547 29.9058 90.177 28.0967V28.0942C90.3448 27.729 90.501 27.3472 90.6509 26.9449C91.258 25.3191 91.5667 23.7483 91.6615 22.2673C91.7511 20.8541 91.6461 19.5204 91.4168 18.2969C91.3464 17.9368 91.2695 17.5871 91.1824 17.2476" stroke="#23211F" stroke-width="1.50971" stroke-linecap="round" stroke-linejoin="round"/>
<path d="M86.2153 9.09507C84.6194 7.6691 82.4432 6.32513 79.3116 5.35654C78.1652 5.00165 77.0521 4.80947 75.9685 4.74669C75.7111 4.73132 75.4562 4.72363 75.2051 4.72363C73.6143 4.72363 72.1042 5.00037 70.6889 5.46288C69.3504 5.89721 68.0977 6.49937 66.9436 7.18097C66.7938 7.26809 66.6439 7.36033 66.4966 7.45258C66.0752 7.71779 65.6782 7.98171 65.3029 8.24948C65.153 8.3571 65.0083 8.46473 64.8661 8.57106C64.7956 8.62616 64.7265 8.67868 64.656 8.73378C61.7421 11.0258 60.4395 13.5716 59.7119 17.1576C59.662 17.1576 55.7592 17.1705 54.8281 21.0589C54.5962 22.0275 54.6884 22.9551 55.0151 23.8314" stroke="#23211F" stroke-width="1.50971" stroke-linecap="round" stroke-linejoin="round"/>
<path d="M68.7943 23.4831C68.5291 24.9616 67.4904 25.7303 66.7065 25.6829C65.9252 25.6304 66.3594 23.2525 66.6642 22.7003V22.6978" stroke="#23211F" stroke-width="1.13229" stroke-miterlimit="10"/>
<path d="M65.7773 22.4067C66.0771 22.6092 66.3742 22.6886 66.6663 22.6989C67.1235 22.7193 67.5603 22.5643 67.9599 22.4067C68.0048 22.6989 68.3621 23.1729 68.7963 23.4829C69.0563 23.6649 69.3458 23.793 69.6122 23.793" stroke="#23211F" stroke-width="1.13229" stroke-linecap="round" stroke-linejoin="round"/>
<path d="M68.1223 21.9121L68.0954 21.9915L67.9609 22.4067" stroke="#23211F" stroke-width="1.10398" stroke-linecap="round" stroke-linejoin="round"/>
<path d="M58.3292 32.3169C57.8694 32.7961 57.2699 33.5251 56.6487 34.4821C56.1889 35.1983 55.7175 36.0401 55.291 36.9997L86.4093 36.7652C85.6972 35.8056 84.8864 34.5897 84.0769 33.985" stroke="#23211F" stroke-width="1.50971" stroke-linecap="round" stroke-linejoin="round"/>
<path d="M56.6532 34.49C56.6532 34.49 56.6506 34.4848 56.648 34.4823C55.722 33.0563 51.8192 28.7451 50.7535 28.0443C49.6853 27.3422 48.2597 28.1314 47.0237 27.0629C45.7877 25.9918 46.4819 22.4378 49.1538 21.1143C51.8256 19.7882 53.9826 22.6133 55.0162 23.8343L55.0188 23.8368" stroke="#23211F" stroke-width="1.50971" stroke-linecap="round" stroke-linejoin="round"/>
</g>
<defs>
<clipPath id="clip0_2825_42865">
<rect width="163" height="96" fill="white"/>
</clipPath>
</defs>
</svg>
