<svg width="45" height="15" viewBox="0 0 45 15" fill="none" xmlns="http://www.w3.org/2000/svg">
<path d="M9.17188 0V10.418H8.25781V0H9.17188ZM0.6875 7.64062C1.57812 7.63477 2.59766 7.62891 3.65234 7.59375V6.45703C2.39844 6.32812 1.58984 5.61328 1.60156 4.57031C1.58984 3.39258 2.5918 2.63086 4.09766 2.63672C5.60352 2.63086 6.62305 3.39258 6.61719 4.57031C6.62305 5.60156 5.81445 6.31641 4.57812 6.45703V7.55859C5.58594 7.51172 6.60547 7.44141 7.56641 7.3125L7.63672 8.01562C5.31055 8.39062 2.76172 8.42578 0.828125 8.42578L0.6875 7.64062ZM0.910156 2.03906V1.28906H3.65234V0.0117188H4.57812V1.28906H7.29688V2.03906H0.910156ZM2.45703 4.57031C2.45117 5.29102 3.13086 5.76562 4.09766 5.75391C5.07031 5.76562 5.74414 5.29102 5.73828 4.57031C5.74414 3.84375 5.07031 3.35156 4.09766 3.35156C3.13086 3.35156 2.45117 3.84375 2.45703 4.57031Z" fill="#222222" fill-opacity="0.4"/>
<path d="M19.6138 0.0117188V7.92188H18.6881V6.84375H16.5318V6.17578H18.6881V0.0117188H19.6138ZM10.9654 4.83984C12.9049 4.82812 15.5181 4.81055 17.7506 4.53516L17.8092 5.20312C16.8834 5.34961 15.9049 5.44336 14.9498 5.50195V7.55859H14.024V5.54883C12.9693 5.58984 11.9674 5.58984 11.0943 5.58984L10.9654 4.83984ZM11.8092 2.25C11.8033 1.1543 12.8463 0.433594 14.3873 0.433594C15.9166 0.433594 16.9595 1.1543 16.9654 2.25C16.9595 3.36328 15.9166 4.05469 14.3873 4.05469C12.8463 4.05469 11.8033 3.36328 11.8092 2.25ZM12.4654 10.1953V7.14844H13.3912V9.42188H19.8717V10.1953H12.4654ZM12.6881 2.25C12.6763 2.92969 13.3678 3.36914 14.3873 3.375C15.3775 3.36914 16.0806 2.92969 16.0865 2.25C16.0806 1.58203 15.3775 1.125 14.3873 1.13672C13.3678 1.125 12.6763 1.58203 12.6881 2.25Z" fill="#222222" fill-opacity="0.4"/>
<path d="M29.74 0.527344V1.27734H25.8611V2.40234H29.5408V3.11719H25.8611V4.32422C27.9353 4.32422 29.0661 4.2832 30.4548 4.05469L30.5486 4.79297C29.0954 5.0332 27.9118 5.07422 25.7322 5.07422H24.947V0.527344H29.74ZM25.9548 6.69141V5.95312H32.5993V8.40234H26.8806V9.5625H32.9861V10.3008H25.9783V7.69922H31.6853V6.69141H25.9548ZM31.6853 5.44922V0H32.5993V2.28516H34.1697V3.04688H32.5993V5.44922H31.6853Z" fill="#222222" fill-opacity="0.4"/>
<path d="M41.1663 5.02734V5.77734H38.8108V7.46484C39.8128 7.41797 40.8323 7.33594 41.7874 7.19531L41.8577 7.875C39.473 8.30859 36.9124 8.30859 35.0374 8.32031L34.9085 7.54688C35.7815 7.54102 36.8128 7.53516 37.8968 7.5V5.77734H35.7054V0.949219H41.1194V1.69922H36.6312V2.97656H40.8968V3.70312H36.6312V5.02734H41.1663ZM42.4788 10.4414V0H43.3929V10.4414H42.4788Z" fill="#222222" fill-opacity="0.4"/>
<path fill-rule="evenodd" clip-rule="evenodd" d="M45 14.4688L-8.74227e-08 14.4688L0 13.4688L45 13.4688L45 14.4688Z" fill="#222222" fill-opacity="0.4"/>
</svg>
