<svg width="26" height="14" viewBox="0 0 26 14" fill="none" xmlns="http://www.w3.org/2000/svg">
<path d="M12.7472 11.1969V12.2148H0V11.1969H5.70022V7.783H6.90604V11.1969H12.7472ZM6.93736 2.12975C6.93736 4.46309 9.69351 6.49888 12.1208 6.9217L11.5727 7.9396C9.45078 7.50895 7.21141 6.06823 6.31096 4.05593C5.39485 6.0604 3.17114 7.50895 1.04922 7.9396L0.501119 6.9217C2.92841 6.49888 5.65324 4.46309 5.65324 2.12975V1.06488H6.93736V2.12975Z" fill="#222222"/>
<path d="M21.7837 1.67562V2.67785H13.9068V1.67562H17.2893V0H18.5108V1.67562H21.7837ZM17.8844 3.39821C19.748 3.39821 21.0634 4.41611 21.0634 5.96644C21.0634 7.53244 19.748 8.55034 17.8844 8.55034C16.0052 8.55034 14.7211 7.53244 14.7368 5.96644C14.7211 4.41611 16.0052 3.39821 17.8844 3.39821ZM17.8844 4.32215C16.6786 4.33781 15.8799 4.99553 15.8799 5.96644C15.8799 6.95302 16.6786 7.59508 17.8844 7.59508C19.0902 7.59508 19.9046 6.95302 19.9202 5.96644C19.9046 4.99553 19.0902 4.33781 17.8844 4.32215ZM25.4325 0.10962V9.11409H24.1954V7.18792H21.7681V6.17002H24.1954V4.47875H21.7837V3.46085H24.1954V0.10962H25.4325ZM20.8442 9.25503C23.7412 9.25503 25.5108 10.1163 25.5108 11.6353C25.5108 13.123 23.7412 14 20.8442 14C17.9157 14 16.1618 13.123 16.1618 11.6353C16.1618 10.1163 17.9157 9.25503 20.8442 9.25503ZM20.8442 10.2103C18.7301 10.2103 17.4303 10.7271 17.4303 11.6353C17.4303 12.5123 18.7301 13.0447 20.8442 13.0447C22.9269 13.0447 24.211 12.5123 24.211 11.6353C24.211 10.7271 22.9269 10.2103 20.8442 10.2103Z" fill="#222222"/>
</svg>
