<svg width="265" height="11" viewBox="0 0 265 11" fill="none" xmlns="http://www.w3.org/2000/svg">
<path d="M0.75055 6.61171C0.340249 6.61171 -0.011438 6.27175 0.000284911 5.84973C-0.011438 5.43942 0.340249 5.09946 0.75055 5.09946C1.16085 5.09946 1.50082 5.43942 1.50082 5.84973C1.50082 6.27175 1.16085 6.61171 0.75055 6.61171Z" fill="#222222" fill-opacity="0.4"/>
<path d="M9.32111 2.06323C9.32111 3.51687 10.3762 4.88845 11.9002 5.43942L11.3843 6.15452C10.2414 5.69733 9.33284 4.7888 8.88737 3.65754C8.4419 4.91776 7.49234 5.92006 6.26144 6.41242L5.76908 5.66216C7.32822 5.08774 8.40673 3.6341 8.41845 2.02806V0.738543H9.32111V2.06323ZM14.3971 0.105506V7.91296H13.471V3.3293H11.1499V2.55559H13.471V0.105506H14.3971ZM14.6316 9.51899V10.2927H7.65646V7.02202H8.58257V9.51899H14.6316Z" fill="#222222" fill-opacity="0.4"/>
<path d="M20.6694 0.855771V1.62948H17.5043V2.93072H20.5522V3.65754H17.5043V5.09946C19.0224 5.0936 19.9719 5.04085 21.0915 4.81811L21.1852 5.5801C19.9661 5.81456 18.9813 5.87317 17.2815 5.87317H16.625V0.855771H20.6694ZM25.0069 0.105506V6.42415H24.1277V3.57548H22.6623V6.35381H21.8066V0.304795H22.6623V2.82522H24.1277V0.105506H25.0069ZM25.0069 6.9634V10.5154H24.1042V7.71367H17.9849V6.9634H25.0069Z" fill="#222222" fill-opacity="0.4"/>
<path d="M37.7391 0.0937832V3.00106H39.31V3.7865H37.7391V6.82273H36.8247V0.0937832H37.7391ZM34.445 6.89306C36.5668 6.89306 37.8563 7.56127 37.8563 8.69839C37.8563 9.83551 36.5668 10.492 34.445 10.492C32.3231 10.492 31.0219 9.83551 31.0336 8.69839C31.0219 7.56127 32.3231 6.89306 34.445 6.89306ZM34.445 7.61988C32.8858 7.61988 31.9363 8.00674 31.948 8.69839C31.9363 9.37832 32.8858 9.7769 34.445 9.7769C36.0041 9.7769 36.942 9.37832 36.942 8.69839C36.942 8.00674 36.0041 7.61988 34.445 7.61988ZM35.8283 1.28952V2.01634H29.6151V1.28952H32.2645V0.0117229H33.1789V1.28952H35.8283ZM32.7217 2.55559C34.2222 2.55559 35.2187 3.28241 35.2304 4.39609C35.2187 5.52148 34.2222 6.23658 32.7217 6.23658C31.2095 6.23658 30.2013 5.52148 30.213 4.39609C30.2013 3.28241 31.2095 2.55559 32.7217 2.55559ZM32.7217 3.24724C31.737 3.25897 31.0805 3.71616 31.0922 4.39609C31.0805 5.07601 31.737 5.52148 32.7217 5.52148C33.6947 5.52148 34.3512 5.07601 34.3629 4.39609C34.3512 3.71616 33.6947 3.25897 32.7217 3.24724Z" fill="#222222" fill-opacity="0.4"/>
<path d="M48.2786 0.539253V4.05612H45.1954V5.39253H49.486V6.1428H39.9905V5.39253H44.281V4.05612H41.2214V0.539253H48.2786ZM42.124 1.2778V3.31758H47.3642V1.2778H42.124ZM48.3137 7.23303V10.5154H47.3876V7.97157H41.0455V7.23303H48.3137Z" fill="#222222" fill-opacity="0.4"/>
<path d="M59.3221 0.0937832V10.5154H58.4311V0.0937832H59.3221ZM57.2237 0.316518V9.98791H56.3445V4.92362H55.0081C54.9084 6.95168 54.0468 8.21775 52.7573 8.21775C51.3974 8.21775 50.5182 6.811 50.5182 4.59538C50.5182 2.37975 51.3974 0.973 52.7573 0.973C54.0233 0.973 54.8791 2.19804 54.9963 4.16163H56.3445V0.316518H57.2237ZM52.7573 1.84049C51.9132 1.84049 51.374 2.89556 51.3857 4.59538C51.374 6.28347 51.9132 7.35026 52.7573 7.33853C53.6013 7.35026 54.1406 6.28347 54.1406 4.59538C54.1406 2.89556 53.6013 1.84049 52.7573 1.84049Z" fill="#222222" fill-opacity="0.4"/>
<path d="M73.3321 5.25186V5.9904H63.8248V5.25186H68.1271V4.03268H65.0323V0.586145H72.1481V1.32469H65.9349V3.28241H72.2184V4.03268H69.018V5.25186H73.3321ZM68.5726 6.75239C70.8116 6.75239 72.1481 7.43232 72.1598 8.62805C72.1481 9.83551 70.8116 10.5037 68.5726 10.5154C66.3218 10.5037 64.9736 9.83551 64.9736 8.62805C64.9736 7.43232 66.3218 6.75239 68.5726 6.75239ZM68.5726 7.47921C66.8962 7.47921 65.8998 7.91296 65.9115 8.62805C65.8998 9.35487 66.8962 9.7769 68.5726 9.7769C70.2255 9.7769 71.2337 9.35487 71.2337 8.62805C71.2337 7.91296 70.2255 7.47921 68.5726 7.47921Z" fill="#222222" fill-opacity="0.4"/>
<path d="M77.6349 0.855771C79.2761 0.855771 80.4367 1.85222 80.4367 3.30586C80.4367 4.7595 79.2761 5.75594 77.6349 5.75594C75.9937 5.75594 74.8097 4.7595 74.8214 3.30586C74.8097 1.85222 75.9937 0.855771 77.6349 0.855771ZM77.6349 1.66465C76.5213 1.66465 75.7124 2.33286 75.7241 3.30586C75.7124 4.27886 76.5213 4.94706 77.6349 4.94706C78.7369 4.94706 79.534 4.27886 79.534 3.30586C79.534 2.33286 78.7369 1.66465 77.6349 1.66465ZM82.7696 0.0937832V10.5389H81.8552V0.0937832H82.7696ZM74.2822 7.45576C76.2047 7.45576 78.8541 7.44404 81.1635 7.10408L81.2339 7.784C78.8541 8.22947 76.2868 8.2412 74.4111 8.2412L74.2822 7.45576Z" fill="#222222" fill-opacity="0.4"/>
<path d="M92.6877 0.0937832V4.39609H94.4344V5.15807H92.6877V10.5154H91.7733V0.0937832H92.6877ZM90.7651 1.77016V2.53215H84.5637V1.77016H87.2483V0.222735H88.1627V1.77016H90.7651ZM87.7172 3.39964C89.1943 3.39964 90.2611 4.38436 90.2728 5.79111C90.2611 7.19786 89.1943 8.18258 87.7172 8.18258C86.2284 8.18258 85.1499 7.19786 85.1616 5.79111C85.1499 4.38436 86.2284 3.39964 87.7172 3.39964ZM87.7172 4.17335C86.7442 4.17335 86.0291 4.85328 86.0408 5.79111C86.0291 6.74067 86.7442 7.40887 87.7172 7.39715C88.6785 7.40887 89.3818 6.74067 89.3936 5.79111C89.3818 4.85328 88.6785 4.17335 87.7172 4.17335Z" fill="#222222" fill-opacity="0.4"/>
<path d="M98.749 3.29413C98.749 5.06429 100.039 6.85789 101.574 7.5261L101.058 8.25292C99.8392 7.69608 98.7842 6.49449 98.3035 5.05257C97.8112 6.58241 96.762 7.91296 95.5721 8.51082L95.0211 7.784C96.5099 7.06891 97.8112 5.09946 97.8229 3.29413V1.93428H95.3611V1.17229H101.234V1.93428H98.749V3.29413ZM103.614 0.0937832V10.5154H102.688V0.0937832H103.614Z" fill="#222222" fill-opacity="0.4"/>
<path d="M111.364 0.691651C112.923 0.691651 114.072 1.6881 114.072 3.09484C114.072 4.51332 112.923 5.49804 111.364 5.50976C109.805 5.49804 108.644 4.51332 108.656 3.09484C108.644 1.6881 109.805 0.691651 111.364 0.691651ZM111.364 1.46536C110.344 1.46536 109.547 2.15701 109.559 3.09484C109.547 4.05612 110.344 4.74777 111.364 4.74777C112.396 4.74777 113.169 4.05612 113.169 3.09484C113.169 2.15701 112.396 1.46536 111.364 1.46536ZM116.604 0.0937832V2.45009H118.175V3.21207H116.604V5.31047H115.69V0.0937832H116.604ZM110.461 6.43587V9.4721C111.065 9.45452 111.868 9.36659 112.607 9.12041L112.747 9.85896C111.727 10.1989 110.743 10.2341 110.063 10.2341H109.57V6.43587H110.461ZM117.647 6.48276V7.19786H112.384V6.48276H114.576V5.55665H115.479V6.48276H117.647ZM115.01 7.54955C116.147 7.54955 116.956 8.12397 116.968 9.02663C116.956 9.92929 116.147 10.492 115.01 10.492C113.861 10.492 113.064 9.92929 113.076 9.02663C113.064 8.12397 113.861 7.54955 115.01 7.54955ZM115.01 8.21775C114.365 8.21775 113.896 8.54599 113.896 9.02663C113.896 9.51899 114.365 9.83551 115.01 9.83551C115.666 9.83551 116.123 9.51899 116.123 9.02663C116.123 8.54599 115.666 8.21775 115.01 8.21775Z" fill="#222222" fill-opacity="0.4"/>
<path d="M121.646 0.902663C123.181 0.914386 124.271 2.32113 124.283 4.53676C124.271 6.75239 123.181 8.15914 121.646 8.15914C120.098 8.15914 119.02 6.75239 119.02 4.53676C119.02 2.32113 120.098 0.914386 121.646 0.902663ZM121.646 1.72327C120.614 1.73499 119.887 2.83694 119.887 4.53676C119.887 6.23658 120.614 7.33853 121.646 7.33853C122.689 7.33853 123.392 6.23658 123.392 4.53676C123.392 2.83694 122.689 1.73499 121.646 1.72327ZM126.921 0.0937832V4.25541H128.668V5.05257H126.921V10.5154H126.006V0.0937832H126.921Z" fill="#222222" fill-opacity="0.4"/>
<path d="M137.671 4.98223V5.7325H134.447V8.42876H138.797V9.20247H129.254V8.42876H133.545V5.7325H130.473V0.949555H137.566V1.69982H131.4V4.98223H137.671Z" fill="#222222" fill-opacity="0.4"/>
<path d="M146.359 2.89556C146.359 4.78294 147.567 6.68205 149.079 7.3737L148.528 8.12397C147.344 7.51438 146.365 6.26589 145.902 4.78294C145.439 6.34209 144.46 7.6785 143.276 8.31153L142.678 7.57299C144.202 6.82273 145.421 4.81811 145.421 2.89556V0.996446H146.359V2.89556ZM151.33 0.0937832V10.5389H150.415V4.40781H147.942V3.65754H150.415V0.0937832H151.33Z" fill="#222222" fill-opacity="0.4"/>
<path d="M161.681 0.0937832V10.5389H160.755V0.0937832H161.681ZM154.613 0.984723V3.7396H157.719V0.984723H158.622V8.01846H153.698V0.984723H154.613ZM154.613 7.24475H157.719V4.47815H154.613V7.24475Z" fill="#222222" fill-opacity="0.4"/>
<path d="M168.681 1.62948C168.681 3.41136 170.72 5.00568 172.537 5.34564L172.115 6.11935C170.545 5.75594 168.886 4.63641 168.212 3.09484C167.538 4.63054 165.885 5.75008 164.308 6.11935L163.886 5.34564C165.691 4.99395 167.719 3.42309 167.719 1.62948V0.832326H168.681V1.62948ZM173.03 8.33498V9.09697H163.487V8.33498H173.03Z" fill="#222222" fill-opacity="0.4"/>
<path d="M185.516 0.0937832V10.5389H184.59V0.0937832H185.516ZM179.971 0.902663C181.518 0.914386 182.632 2.32113 182.632 4.53676C182.632 6.75239 181.518 8.15914 179.971 8.15914C178.412 8.15914 177.31 6.75239 177.31 4.53676C177.31 2.32113 178.412 0.914386 179.971 0.902663ZM179.971 1.72327C178.928 1.73499 178.201 2.83694 178.201 4.53676C178.201 6.23658 178.928 7.33853 179.971 7.33853C181.014 7.33853 181.741 6.23658 181.741 4.53676C181.741 2.83694 181.014 1.73499 179.971 1.72327Z" fill="#222222" fill-opacity="0.4"/>
<path d="M196.817 5.25186V6.01385H187.322V5.25186H189.678V3.7865C188.846 3.46412 188.377 2.93072 188.377 2.22735C188.377 0.996446 189.783 0.293072 192.069 0.293072C194.332 0.293072 195.75 0.996446 195.75 2.22735C195.75 2.92486 195.287 3.45825 194.461 3.77477V5.25186H196.817ZM192.069 6.811C194.309 6.811 195.645 7.45576 195.657 8.6515C195.645 9.83551 194.309 10.492 192.069 10.492C189.807 10.492 188.471 9.83551 188.471 8.6515C188.471 7.45576 189.807 6.811 192.069 6.811ZM192.069 7.51438C190.393 7.5261 189.397 7.9364 189.408 8.6515C189.397 9.35487 190.393 9.7769 192.069 9.7769C193.722 9.7769 194.731 9.35487 194.731 8.6515C194.731 7.9364 193.722 7.5261 192.069 7.51438ZM192.069 1.01989C190.37 1.01989 189.315 1.47709 189.326 2.22735C189.315 2.98934 190.37 3.43481 192.069 3.43481C193.758 3.43481 194.813 2.98934 194.813 2.22735C194.813 1.47709 193.758 1.01989 192.069 1.01989ZM190.592 5.25186H193.547V4.03268C193.107 4.10888 192.615 4.14991 192.069 4.14991C191.524 4.14991 191.032 4.10888 190.592 4.03268V5.25186Z" fill="#222222" fill-opacity="0.4"/>
<path d="M207.216 5.59182V6.34209H197.72V5.59182H207.216ZM206.161 9.51899V10.2927H198.951V7.25647H199.877V9.51899H206.161ZM202.468 0.468916C204.707 0.457193 206.149 1.2309 206.149 2.53215C206.149 3.83339 204.707 4.6071 202.468 4.6071C200.206 4.6071 198.776 3.83339 198.776 2.53215C198.776 1.2309 200.206 0.457193 202.468 0.468916ZM202.468 1.20746C200.792 1.20746 199.713 1.71154 199.725 2.53215C199.713 3.35275 200.792 3.85683 202.468 3.85683C204.133 3.85683 205.211 3.35275 205.211 2.53215C205.211 1.71154 204.133 1.20746 202.468 1.20746Z" fill="#222222" fill-opacity="0.4"/>
<path d="M219.221 0.0937832V4.33747H220.909V5.11118H219.221V10.5154H218.307V0.0937832H219.221ZM216.525 1.21918C216.525 4.17335 215.142 6.85789 211.742 8.53427L211.226 7.80745C213.923 6.46518 215.388 4.46056 215.599 1.99289H211.707V1.21918H216.525Z" fill="#222222" fill-opacity="0.4"/>
<path d="M229.972 3.01278V3.77477H222.856V0.304795H223.77V3.01278H229.972ZM231.062 4.99395V5.75594H221.555V4.99395H231.062ZM226.303 6.69377C228.542 6.69377 229.878 7.3737 229.89 8.58116C229.878 9.78862 228.542 10.4685 226.303 10.4685C224.052 10.4685 222.704 9.78862 222.704 8.58116C222.704 7.3737 224.052 6.69377 226.303 6.69377ZM226.303 7.42059C224.626 7.43232 223.63 7.84262 223.641 8.58116C223.63 9.30798 224.626 9.75345 226.303 9.75345C227.955 9.75345 228.964 9.30798 228.964 8.58116C228.964 7.84262 227.955 7.43232 226.303 7.42059Z" fill="#222222" fill-opacity="0.4"/>
<path d="M240.101 0.0937832V2.7666H241.672V3.55204H240.101V6.15452H239.187V0.0937832H240.101ZM234.427 6.61171V7.72539H239.187V6.61171H240.101V10.3748H233.513V6.61171H234.427ZM234.427 9.63622H239.187V8.45221H234.427V9.63622ZM238.19 1.17229V1.93428H231.977V1.17229H234.626V0H235.541V1.17229H238.19ZM235.084 2.41492C236.584 2.41492 237.581 3.13001 237.592 4.24369C237.581 5.35736 236.584 6.07246 235.084 6.07246C233.571 6.07246 232.563 5.35736 232.575 4.24369C232.563 3.13001 233.571 2.41492 235.084 2.41492ZM235.084 3.13001C234.099 3.11829 233.442 3.57548 233.454 4.24369C233.442 4.92362 234.099 5.36909 235.084 5.36909C236.057 5.36909 236.713 4.92362 236.725 4.24369C236.713 3.57548 236.057 3.11829 235.084 3.13001Z" fill="#222222" fill-opacity="0.4"/>
<path d="M250.945 0.0937832V10.5154H250.031V0.0937832H250.945ZM243.935 1.1254V7.03374C245.523 7.02788 247.17 6.89893 248.917 6.52965L249.046 7.31509C247.194 7.70194 245.541 7.8309 243.876 7.8309H243.032V1.1254H243.935Z" fill="#222222" fill-opacity="0.4"/>
<path d="M260.816 0.0937832V4.22024H262.563V4.99395H260.816V10.5389H259.902V0.0937832H260.816ZM258.073 1.11368V1.87566H254.123V7.15097C256.01 7.15097 257.346 7.06305 258.894 6.77583L259.011 7.57299C257.382 7.86606 256.01 7.92468 254.029 7.92468H253.208V1.11368H258.073Z" fill="#222222" fill-opacity="0.4"/>
<path d="M264.252 9.63622C263.842 9.63622 263.49 9.29626 263.502 8.87423C263.49 8.46393 263.842 8.12397 264.252 8.12397C264.662 8.12397 265.002 8.46393 265.002 8.87423C265.002 9.29626 264.662 9.63622 264.252 9.63622Z" fill="#222222" fill-opacity="0.4"/>
</svg>
