<svg xmlns="http://www.w3.org/2000/svg" width="20" height="20" fill="none" viewBox="0 0 20 20"><path fill="#B0B3BC" fill-rule="evenodd" d="m14.218 10.129 3.245 3.246a.97.97 0 0 1 .202.912l-.596 2.079a.974.974 0 0 1-.65.658l-2.131.64a1 1 0 0 1-.956-.246l-3.255-3.254a2.368 2.368 0 0 0-1.666-.693 2.333 2.333 0 0 0-.877.175c-.28.11-.577.167-.878.167a2.334 2.334 0 0 1-1.666-.693l-2.632-2.63a2.36 2.36 0 0 1-.614-2.281L2.77 4.41a2.35 2.35 0 0 1 1.667-1.693l3.833-.974a2.368 2.368 0 0 1 2.28.614l2.633 2.632c.674.674.878 1.687.517 2.57a2.368 2.368 0 0 0 .518 2.57Zm-.07 6.246 1.754-.518.482-1.72-3.096-3.096a3.658 3.658 0 0 1-.798-4 1.07 1.07 0 0 0-.246-1.14L9.613 3.269a1.018 1.018 0 0 0-.737-.307.93.93 0 0 0-.272 0L4.779 3.99c-.36.096-.64.377-.737.736l-1.026 3.86c-.096.36.007.745.272 1.009l2.632 2.632c.193.198.46.309.736.306a1.21 1.21 0 0 0 .395-.07 3.509 3.509 0 0 1 1.369-.272 3.649 3.649 0 0 1 2.631 1.08l3.097 3.105Z" clip-rule="evenodd"/><path fill="#B0B3BC" d="m8.577 5.804-2.719 2.72a.658.658 0 0 0 .93.93l2.72-2.72a.65.65 0 0 0 0-.93.658.658 0 0 0-.93 0Z"/></svg>