<svg width="40" height="11" viewBox="0 0 40 11" fill="none" xmlns="http://www.w3.org/2000/svg">
<path d="M9.58399 5.35714V6.12245H5.32182V8.26531H4.40345V6.12245H0V5.35714H9.58399ZM1.22449 10.2433V7.2292H2.15463V9.46625H8.51256V10.2433H1.22449ZM1.24804 4.1562V0.518053H8.33595V4.1562H1.24804ZM2.15463 3.41444H7.41758V1.24804H2.15463V3.41444Z" fill="black"/>
<path d="M13.882 0.765306C15.5245 0.771193 16.6901 1.77198 16.696 3.22606C16.6901 4.68603 15.5245 5.68093 13.882 5.68681C12.2278 5.68093 11.0504 4.68603 11.0563 3.22606C11.0504 1.77198 12.2278 0.771193 13.882 0.765306ZM10.5147 7.39403C12.4456 7.39992 15.1124 7.38226 17.426 7.04082L17.4966 7.7237C15.1006 8.17111 12.528 8.18289 10.6442 8.18289L10.5147 7.39403ZM11.9629 3.22606C11.957 4.2033 12.7635 4.87441 13.882 4.87441C14.9888 4.87441 15.7953 4.2033 15.7894 3.22606C15.7953 2.25471 14.9888 1.57771 13.882 1.57771C12.7635 1.57771 11.957 2.25471 11.9629 3.22606ZM18.1207 10.4906V0H19.039V10.4906H18.1207Z" fill="black"/>
<path d="M29.0003 0V4.32104H30.7547V5.08634H29.0003V10.467H28.082V0H29.0003ZM20.841 2.44898V1.68367H23.5372V0.129513H24.4556V1.68367H27.0694V2.44898H20.841ZM21.4415 5.72214C21.4356 4.30926 22.5188 3.32025 24.0082 3.32025C25.4858 3.32025 26.5631 4.30926 26.5749 5.72214C26.5631 7.14089 25.4858 8.12402 24.0082 8.12402C22.5188 8.12402 21.4356 7.14089 21.4415 5.72214ZM22.3245 5.72214C22.3186 6.67582 23.031 7.34694 24.0082 7.33516C24.9737 7.34694 25.6801 6.67582 25.6919 5.72214C25.6801 4.77433 24.9737 4.09144 24.0082 4.09733C23.031 4.09144 22.3186 4.77433 22.3245 5.72214Z" fill="black"/>
<path d="M39.9978 0V10.467H39.0676V0H39.9978ZM31.4734 7.74725C34.3051 6.40502 35.7533 4.39757 35.9593 1.8956H31.9562V1.14207H36.9012C36.8895 4.15031 35.4884 6.81711 31.9797 8.50078L31.4734 7.74725Z" fill="black"/>
</svg>
