<svg width="59" height="14" viewBox="0 0 59 14" fill="none" xmlns="http://www.w3.org/2000/svg">
<path d="M11.937 0V14H10.7244V6.67717H8.7874V13.3071H7.6063V0.377953H8.7874V5.65354H10.7244V0H11.937ZM0 10.126C3.25197 8.30709 4.59055 5.74803 4.80315 2.85039H0.535433V1.82677H6.01575C6 5.38583 4.74803 8.74803 0.724409 10.9921L0 10.126Z" fill="#222222"/>
<path d="M25.5126 0.015748V10.252H24.2842V0.015748H25.5126ZM14.2842 4.4252C14.2763 2.40945 15.859 1 17.9535 0.992126C20.048 1 21.6149 2.40945 21.6228 4.4252C21.6149 6.46457 20.048 7.88189 17.9535 7.87402C15.859 7.88189 14.2763 6.46457 14.2842 4.4252ZM15.4968 4.4252C15.4811 5.8189 16.5362 6.7874 17.9535 6.7874C19.3472 6.7874 20.4102 5.8189 20.4102 4.4252C20.4102 3.05512 19.3472 2.07874 17.9535 2.07874C16.5362 2.07874 15.4811 3.05512 15.4968 4.4252ZM16.4732 13.7008V9.2126H17.7015V12.6614H25.9535V13.7008H16.4732Z" fill="#222222"/>
<path d="M43.6086 0V8.34646H42.3645V4.67717H39.5456V3.65354H42.3645V0H43.6086ZM32.0653 7.22835C34.144 6.48031 35.6243 4.58268 35.6243 2.58268V2.06299H32.459V1.02362H40.0023V2.06299H36.8684V2.56693C36.8684 4.3937 38.27 6.13386 40.3172 6.83465L39.6716 7.82677C38.1046 7.25984 36.8842 6.07874 36.2779 4.6378C35.6794 6.27559 34.3802 7.58268 32.7109 8.22047L32.0653 7.22835ZM34.27 11.3858C34.2621 9.74016 36.0495 8.77953 38.9629 8.7874C41.8684 8.77953 43.6558 9.74016 43.6558 11.3858C43.6558 13.0394 41.8684 13.9843 38.9629 14C36.0495 13.9843 34.2621 13.0394 34.27 11.3858ZM35.4983 11.3858C35.4905 12.4016 36.8133 13.0157 38.9629 13.0079C41.1046 13.0157 42.4275 12.4016 42.4275 11.3858C42.4275 10.3622 41.1046 9.74803 38.9629 9.74803C36.8133 9.74803 35.4905 10.3622 35.4983 11.3858Z" fill="#222222"/>
<path d="M58.7904 11.1811V12.2047H45.9715V11.1811H51.7353V8.15748H47.4833V0.992126H48.7274V3.52756H56.003V0.992126H57.2156V8.15748H52.9479V11.1811H58.7904ZM48.7274 7.14961H56.003V4.53543H48.7274V7.14961Z" fill="#222222"/>
</svg>
