<svg width="46" height="17" viewBox="0 0 46 17" fill="none" xmlns="http://www.w3.org/2000/svg">
<path d="M7.08073 9.93443C10.4517 9.93443 12.5563 11.0937 12.5563 13.0735C12.5563 15.0889 10.4517 16.2482 7.08073 16.2482C3.63846 16.2482 1.51603 15.0889 1.51603 13.0735C1.51603 11.0937 3.63846 9.93443 7.08073 9.93443ZM7.08073 11.7002C4.94046 11.7002 3.78115 12.146 3.79898 13.0735C3.78115 14.0009 4.94046 14.4825 7.08073 14.4825C9.18534 14.4825 10.309 14.0009 10.309 13.0735C10.309 12.146 9.18534 11.7002 7.08073 11.7002ZM12.3957 0V3.76331H14.5895V5.67172H12.3957V9.57772H10.1128V0H12.3957ZM2.26512 1.01663V3.06772H5.58254V1.01663H7.8655V8.65027H0V1.01663H2.26512ZM2.26512 6.84887H5.58254V4.83345H2.26512V6.84887Z" fill="black"/>
<path d="M28.9302 0V16.2661H26.6294V0H28.9302ZM20.1194 1.14148C22.5629 1.14148 24.3821 3.38876 24.3821 6.92021C24.3821 10.4873 22.5629 12.7168 20.1194 12.7168C17.6224 12.7168 15.8032 10.4873 15.821 6.92021C15.8032 3.38876 17.6224 1.14148 20.1194 1.14148ZM20.1194 3.19257C18.8531 3.19257 18.0148 4.51241 18.0148 6.92021C18.0148 9.34586 18.8531 10.6479 20.1194 10.6479C21.3501 10.6479 22.1883 9.34586 22.1883 6.92021C22.1883 4.51241 21.3501 3.19257 20.1194 3.19257Z" fill="black"/>
<path d="M45.9997 8.18654V9.98794H31.1427V8.18654H45.9997ZM44.1983 0.303205V4.63726H35.2627V5.58254H44.5015V7.3126H32.9976V2.99638H41.9154V2.05109H32.9619V0.303205H44.1983ZM44.2697 10.9867V16.052H33.0511V10.9867H44.2697ZM35.2805 12.7881V14.2328H42.0046V12.7881H35.2805Z" fill="black"/>
</svg>
