<svg width="111" height="14" viewBox="0 0 111 14" fill="none" xmlns="http://www.w3.org/2000/svg">
<path d="M3.94081 4.02937C3.94081 6.12523 5.01826 8.28013 6.81893 9.2395L6.13999 10.1103C4.83377 9.39448 3.88915 8.05136 3.40947 6.4647C2.93716 8.14729 1.99992 9.60849 0.693701 10.376L0 9.51994C1.77115 8.48677 2.83384 6.19903 2.8486 4.02937V3.42423H0.309951V2.46485H2.8486V0.487067H3.95557V2.46485H6.4647V3.42423H3.94081V4.02937ZM11.3796 0V13.1213H10.2579V6.30235H8.47201V12.4571H7.36504V0.280432H8.47201V5.31345H10.2579V0H11.3796Z" fill="#91969D"/>
<path d="M20.2509 0.974133V1.91875H15.1293V3.57182H19.8819V4.51644H15.1293V6.24331C17.9262 6.24331 19.476 6.19165 21.3283 5.88908L21.4464 6.83369C19.5276 7.14364 17.9189 7.20268 15.026 7.20268H13.9633V0.974133H20.2509ZM24.0293 0.0147596V8.14729H22.8781V0.0147596H24.0293ZM19.6752 8.33917C22.4058 8.32441 24.0884 9.19523 24.0884 10.7007C24.0884 12.2357 22.4058 13.0918 19.6752 13.0918C16.8857 13.0918 15.2326 12.2357 15.2326 10.7007C15.2326 9.19523 16.8857 8.32441 19.6752 8.33917ZM19.6752 9.25426C17.6089 9.25426 16.3839 9.80037 16.3839 10.7007C16.3839 11.6306 17.6089 12.1767 19.6752 12.1767C21.6825 12.1767 22.9519 11.6306 22.9519 10.7007C22.9519 9.80037 21.6825 9.25426 19.6752 9.25426Z" fill="#91969D"/>
<path d="M32.2659 0.236153C35.1883 0.236153 36.9004 1.03317 36.9004 2.49437C36.9004 3.98509 35.1883 4.78211 32.2659 4.79687C29.3435 4.78211 27.6166 3.98509 27.6166 2.49437C27.6166 1.03317 29.3435 0.236153 32.2659 0.236153ZM32.2659 1.10697C30.0815 1.10697 28.8121 1.63831 28.8269 2.49437C28.8121 3.40947 30.0815 3.91129 32.2659 3.91129C34.4355 3.91129 35.7196 3.40947 35.7196 2.49437C35.7196 1.63831 34.4355 1.10697 32.2659 1.10697ZM38.2435 5.68244V6.62706H26.2882V5.68244H38.2435ZM36.7085 7.76355V10.7007H28.9155V12.0586H37.107V12.9737H27.7642V9.84465H35.572V8.64912H27.7347V7.76355H36.7085Z" fill="#91969D"/>
<path d="M54.0377 0V7.04033H52.8864V0H54.0377ZM46.6874 7.70451V9.29854H52.8864V7.70451H54.0377V12.9442H45.5362V7.70451H46.6874ZM46.6874 11.9995H52.8864V10.2284H46.6874V11.9995ZM46.9531 0.649422C48.9456 0.634662 50.3921 1.85971 50.3921 3.66038C50.3921 5.44629 48.9456 6.67134 46.9531 6.67134C44.9605 6.67134 43.5141 5.44629 43.5141 3.66038C43.5141 1.85971 44.9605 0.634662 46.9531 0.649422ZM46.9531 1.62356C45.61 1.6088 44.6358 2.46485 44.6506 3.66038C44.6358 4.85591 45.61 5.71196 46.9531 5.71196C48.2815 5.71196 49.2556 4.85591 49.2556 3.66038C49.2556 2.46485 48.2815 1.6088 46.9531 1.62356Z" fill="#91969D"/>
<path d="M62.5252 0.811778V4.48692H58.0087V6.52374C60.4736 6.52374 61.7429 6.48684 63.2927 6.19903L63.4107 7.1584C61.7724 7.42407 60.4441 7.46835 57.7873 7.46835H56.8575V3.60134H61.3739V1.74163H56.828V0.811778H62.5252ZM67.1744 0.0147596V8.0735H66.0084V5.63816H63.396V4.67879H66.0084V2.90764H63.396V1.96303H66.0084V0.0147596H67.1744ZM67.1744 8.78196V13.1508H66.0084V9.72657H58.3334V8.78196H67.1744Z" fill="#91969D"/>
<path d="M79.5437 0V5.41677H81.7429V6.37614H79.5437V13.1213H78.3924V0H79.5437ZM77.1231 2.11062V3.07H69.3153V2.11062H72.6952V0.162356H73.8465V2.11062H77.1231ZM73.2856 4.1622C75.1453 4.1622 76.4885 5.40201 76.5032 7.17316C76.4885 8.94431 75.1453 10.1841 73.2856 10.1841C71.4112 10.1841 70.0533 8.94431 70.068 7.17316C70.0533 5.40201 71.4112 4.1622 73.2856 4.1622ZM73.2856 5.13634C72.0606 5.13634 71.1602 5.99239 71.175 7.17316C71.1602 8.36869 72.0606 9.20999 73.2856 9.19523C74.4959 9.20999 75.3815 8.36869 75.3962 7.17316C75.3815 5.99239 74.4959 5.13634 73.2856 5.13634Z" fill="#91969D"/>
<path d="M86.3781 3.73418C86.3781 5.81528 87.3965 8.0735 89.1381 9.10667L88.4739 10.007C87.212 9.2395 86.3043 7.83734 85.8467 6.24331C85.3597 7.98494 84.3855 9.48304 83.0719 10.2874L82.334 9.41662C84.1494 8.35393 85.2564 6.02191 85.2564 3.77846V1.23981H86.3781V3.73418ZM93.7284 0V13.1213H92.6066V0H93.7284ZM91.0126 0.280432V12.4571H89.9204V5.6972H87.6917V4.70831H89.9204V0.280432H91.0126Z" fill="#91969D"/>
<path d="M107.588 10.4646V11.4387H95.574V10.4646H98.5555V6.92225C97.4337 6.33924 96.7548 5.39463 96.7548 4.20648C96.7548 2.16966 98.7473 0.841297 101.552 0.826537C104.356 0.841297 106.349 2.16966 106.349 4.20648C106.349 5.37249 105.692 6.30973 104.607 6.89273V10.4646H107.588ZM101.552 1.78591C99.3968 1.77115 97.8765 2.74528 97.8765 4.20648C97.8765 5.66768 99.3968 6.65658 101.552 6.65658C103.692 6.65658 105.227 5.66768 105.227 4.20648C105.227 2.74528 103.692 1.77115 101.552 1.78591ZM99.6919 10.4646H103.441V7.33552C102.873 7.49049 102.238 7.57167 101.552 7.57167C100.88 7.57167 100.253 7.49787 99.6919 7.35028V10.4646Z" fill="#91969D"/>
<path d="M110.054 12.0143C109.537 12.0143 109.095 11.5863 109.109 11.0549C109.095 10.5383 109.537 10.1103 110.054 10.1103C110.57 10.1103 110.999 10.5383 110.999 11.0549C110.999 11.5863 110.57 12.0143 110.054 12.0143Z" fill="#91969D"/>
</svg>
