<svg width="29" height="16" viewBox="0 0 29 16" fill="none" xmlns="http://www.w3.org/2000/svg">
<path d="M7.84775 0.907563V2.72269H2.27781V3.98616H7.36728V5.7301H2.27781V7.06476C5.12506 7.05586 6.93129 7.01137 8.98665 6.67326L9.21799 8.435C6.9046 8.8265 4.85813 8.86209 1.38804 8.86209H0V0.907563H7.84775ZM12.6703 0V9.60949H10.3925V0H12.6703ZM12.6703 10.2679V15.998H1.81513V10.2679H12.6703ZM4.05734 12.0297V14.1829H10.4459V12.0297H4.05734Z" fill="black"/>
<path d="M28.6158 0V12.2254H26.338V10.9441H23.2416V9.39595H26.338V0H28.6158ZM28.9717 14.0761V15.8913H16.9064V11.0509H19.1664V8.89768C17.7161 8.95996 16.337 8.96886 15.1091 8.96886L14.8422 7.17153C17.814 7.15373 21.818 7.11814 25.2347 6.69105L25.3592 8.31043C24.078 8.52397 22.7522 8.67523 21.4443 8.77311V11.8517H19.1664V14.0761H28.9717ZM20.1096 0.551656C22.4586 0.533861 24.1491 1.72615 24.1491 3.4523C24.1491 5.17845 22.4586 6.29956 20.1096 6.29956C17.7072 6.29956 16.0345 5.17845 16.0345 3.4523C16.0345 1.72615 17.6894 0.533861 20.1096 0.551656ZM20.1096 2.20662C18.9529 2.20662 18.1699 2.65151 18.1877 3.4523C18.1699 4.23529 18.9529 4.66238 20.1096 4.66238C21.1951 4.66238 21.9781 4.23529 21.9959 3.4523C21.9781 2.65151 21.1951 2.20662 20.1096 2.20662Z" fill="black"/>
</svg>
