<svg width="59" height="14" viewBox="0 0 59 14" fill="none" xmlns="http://www.w3.org/2000/svg">
<path d="M7.11811 1.46457C7.10236 5.51181 5.73228 9.2126 0.692913 11.685L0 10.7402C2.6378 9.46457 4.22047 7.84252 5.07087 5.95276L0.267717 6.40945L0.0629921 5.32283L5.44882 4.96063C5.69291 4.17323 5.83465 3.34646 5.88976 2.48819H0.771654V1.46457H7.11811ZM10.6929 0V5.70079H12.9606V6.74016H10.6929V14H9.46457V0H10.6929Z" fill="#222222"/>
<path d="M25.1346 6.74016V7.76378H15.4653V1.30709H24.9929V2.33071H16.6937V6.74016H25.1346ZM26.6464 11.0551V12.0945H13.8275V11.0551H26.6464Z" fill="#222222"/>
<path d="M44.6479 6.66142V7.70079H31.8763V6.66142H44.6479ZM43.1519 4.31496V5.32283H33.4983V0.566929H43.0574V1.6063H34.7109V4.31496H43.1519ZM38.2542 8.92913C41.2621 8.92913 43.0574 9.84252 43.0731 11.4488C43.0574 13.0709 41.2621 13.9685 38.2542 13.9685C35.2306 13.9685 33.4196 13.0709 33.4196 11.4488C33.4196 9.84252 35.2306 8.92913 38.2542 8.92913ZM38.2542 9.88976C36.0023 9.90551 34.6637 10.4724 34.6794 11.4488C34.6637 12.4409 36.0023 12.9921 38.2542 12.9921C40.4747 12.9921 41.829 12.4409 41.829 11.4488C41.829 10.4724 40.4747 9.90551 38.2542 9.88976Z" fill="#222222"/>
<path d="M58.6487 7.71654V8.74016H45.8298V7.71654H51.6251V6.23622H47.4991V2.8189H55.7511V1.37008H47.4518V0.362205H56.9951V3.74803H48.7274V5.24409H57.2944V6.23622H52.8377V7.71654H58.6487ZM57.0739 9.81102V13.874H55.8298V10.8189H47.2629V9.81102H57.0739Z" fill="#222222"/>
</svg>
