<svg width="40" height="11" viewBox="0 0 40 11" fill="none" xmlns="http://www.w3.org/2000/svg">
<path d="M9.58399 5.35714V6.12245H5.32182V8.26531H4.40345V6.12245H0V5.35714H9.58399ZM8.33595 0.518053V4.1562H1.24804V0.518053H8.33595ZM2.15463 1.24804V3.41444H7.41758V1.24804H2.15463ZM8.51256 9.46625V10.2433H1.22449V7.2292H2.15463V9.46625H8.51256Z" fill="black"/>
<path d="M13.882 0.765306C15.5304 0.765306 16.696 1.76609 16.696 3.22606C16.696 4.68603 15.5304 5.68681 13.882 5.68681C12.2337 5.68681 11.0445 4.68603 11.0563 3.22606C11.0445 1.76609 12.2337 0.765306 13.882 0.765306ZM13.882 1.57771C12.7635 1.57771 11.9511 2.24882 11.9629 3.22606C11.9511 4.2033 12.7635 4.87441 13.882 4.87441C14.9888 4.87441 15.7894 4.2033 15.7894 3.22606C15.7894 2.24882 14.9888 1.57771 13.882 1.57771ZM19.039 0V10.4906H18.1207V0H19.039ZM10.5147 7.39403C12.4456 7.39403 15.1065 7.38226 17.426 7.04082L17.4966 7.7237C15.1065 8.17111 12.528 8.18289 10.6442 8.18289L10.5147 7.39403Z" fill="black"/>
<path d="M29.0003 0V4.32104H30.7547V5.08634H29.0003V10.467H28.082V0H29.0003ZM27.0694 1.68367V2.44898H20.841V1.68367H23.5372V0.129513H24.4556V1.68367H27.0694ZM24.0082 3.32025C25.4917 3.32025 26.5631 4.30926 26.5749 5.72214C26.5631 7.13501 25.4917 8.12402 24.0082 8.12402C22.5129 8.12402 21.4297 7.13501 21.4415 5.72214C21.4297 4.30926 22.5129 3.32025 24.0082 3.32025ZM24.0082 4.09733C23.031 4.09733 22.3127 4.78022 22.3245 5.72214C22.3127 6.67582 23.031 7.34694 24.0082 7.33516C24.9737 7.34694 25.6801 6.67582 25.6919 5.72214C25.6801 4.78022 24.9737 4.09733 24.0082 4.09733Z" fill="black"/>
<path d="M39.9978 0V10.467H39.0676V0H39.9978ZM36.9012 1.14207C36.8895 4.1562 35.4884 6.81711 31.9797 8.50078L31.4734 7.74725C34.3051 6.40502 35.7474 4.39757 35.9593 1.8956H31.9562V1.14207H36.9012Z" fill="black"/>
</svg>
