<svg width="55" height="15" viewBox="0 0 55 15" fill="none" xmlns="http://www.w3.org/2000/svg">
<path d="M10.9874 0.0158091V4.06295H12.9319V5.72291H10.9874V10.6079H8.96378V0.0158091H10.9874ZM11.5091 12.5208V14.1334H1.65996V9.5171H3.66772V12.5208H11.5091ZM2.00776 1.02759V3.1144H4.94826V1.02759H6.97183V8.31561H0V1.02759H2.00776ZM2.00776 6.73469H4.94826V4.6637H2.00776V6.73469Z" fill="#222222" fill-opacity="0.4"/>
<path d="M24.995 0.0158091V2.95631H26.9553V4.61627H24.995V7.57258H22.9872V0.0158091H24.995ZM16.2051 0.616556V5.45415C17.9441 5.42254 19.8175 5.29606 21.8174 4.88502L22.0545 6.52918C19.6831 6.97183 17.454 7.11411 15.4147 7.11411H14.1816V0.616556H16.2051ZM17.5331 8.22075V9.67519H22.9872V8.22075H25.0108V14.2282H15.5411V8.22075H17.5331ZM17.5331 12.6157H22.9872V11.2719H17.5331V12.6157Z" fill="#222222" fill-opacity="0.4"/>
<path d="M33.2165 3.25668C33.2165 5.89681 34.418 8.55275 36.8526 9.58034L35.6669 11.1929C34.0228 10.4498 32.8845 9.01911 32.2364 7.24059C31.5803 9.17721 30.4025 10.7423 28.6477 11.5407L27.4304 9.8649C29.944 8.80569 31.1613 6.0549 31.1771 3.25668V1.10664H33.2165V3.25668ZM39.6667 0V14.4179H37.6273V0H39.6667Z" fill="#222222" fill-opacity="0.4"/>
<path d="M53.0578 0V4.03133H55.0023V5.69129H53.0578V10.3076H51.0184V0H53.0578ZM49.1371 1.07502C49.1371 4.96407 46.7025 7.68324 42.3866 8.90055L41.5487 7.30382C44.7659 6.4027 46.5918 4.73484 46.9238 2.71917H42.1811V1.07502H49.1371ZM53.5478 12.5208V14.1334H43.6987V9.24835H45.7381V12.5208H53.5478Z" fill="#222222" fill-opacity="0.4"/>
</svg>
