<svg width="48" height="64" viewBox="0 0 48 64" fill="none" xmlns="http://www.w3.org/2000/svg">
<path d="M0 24C0 10.7452 10.7452 0 24 0C37.2548 0 48 10.7452 48 24C48 37.2548 37.2548 48 24 48C10.7452 48 0 37.2548 0 24Z" fill="#BABCC4"/>
<path d="M22.3551 35V25.5907H13V22.3551H22.3551V13H25.5907V22.3551H35V25.5907H25.5907V35H22.3551Z" fill="white"/>
<path d="M13.6406 61.332V62.1055H4.10156V61.332H8.40234V58.9414H9.30469V61.332H13.6406ZM12.7266 54.6641V55.4258H9.32812C9.33398 57.0605 11.0684 58.2617 13.0664 58.5898L12.7148 59.3164C11.0449 59.0176 9.51562 58.1797 8.85938 56.8789C8.19727 58.1797 6.66797 59.0176 4.99219 59.3164L4.62891 58.5898C6.63867 58.2617 8.38477 57.0605 8.39062 55.4258H4.99219V54.6641H8.40234V53.2227H9.30469V54.6641H12.7266Z" fill="black"/>
<path d="M23.4029 53V63.418H22.524V57.957H20.9888V62.8789H20.1451V53.2344H20.9888V57.1953H22.524V53H23.4029ZM18.7857 54.2773V55.0391H15.7974V60.0547C17.233 60.0488 18.2291 59.9961 19.3834 59.7617L19.4654 60.5352C18.2115 60.793 17.1451 60.8398 15.5513 60.8398H14.8834V54.2773H18.7857Z" fill="black"/>
<path d="M32.9543 53V57.3008H34.7003V58.0625H32.9543V63.418H32.0402V53H32.9543ZM31.0324 54.6758V55.4375H24.8332V54.6758H27.5168V53.1289H28.4308V54.6758H31.0324ZM27.9855 56.3047C29.4621 56.3047 30.5285 57.2891 30.5402 58.6953C30.5285 60.1016 29.4621 61.0859 27.9855 61.0859C26.4972 61.0859 25.4191 60.1016 25.4308 58.6953C25.4191 57.2891 26.4972 56.3047 27.9855 56.3047ZM27.9855 57.0781C27.0128 57.0781 26.298 57.7578 26.3097 58.6953C26.298 59.6445 27.0128 60.3125 27.9855 60.3008C28.9464 60.3125 29.6496 59.6445 29.6613 58.6953C29.6496 57.7578 28.9464 57.0781 27.9855 57.0781Z" fill="black"/>
<path d="M43.9001 53V63.418H42.9743V53H43.9001ZM40.8181 54.1367C40.8064 57.1367 39.4118 59.7852 35.9197 61.4609L35.4158 60.7109C38.2341 59.375 39.6697 57.377 39.8806 54.8867H35.8962V54.1367H40.8181Z" fill="black"/>
</svg>
