<svg width="34" height="34" viewBox="0 0 34 34" fill="none" xmlns="http://www.w3.org/2000/svg">
<path d="M27.3454 9.67434V14.1888C27.3454 14.1888 24.3408 14.2039 24.3257 14.1888V9.67434H19.7961C19.7961 9.67434 19.8112 6.6697 19.7961 6.6546H24.3257V2.125H27.3454V6.6546H31.875V9.67434H27.3454ZM22.8158 15.7138V11.1842H18.2862V6.6546H6.20724C4.54638 6.6546 3.1875 8.01349 3.1875 9.67434V27.7928C3.1875 29.4536 4.54638 30.8125 6.20724 30.8125H24.3257C25.9865 30.8125 27.3454 29.4536 27.3454 27.7928V15.7138H22.8158ZM6.20724 27.7928L10.7368 21.7533L13.7566 26.2829L18.2862 20.2434L24.3257 27.7928H6.20724Z" fill="#BABCC4"/>
</svg>
