<svg width="107" height="14" viewBox="0 0 107 14" fill="none" xmlns="http://www.w3.org/2000/svg">
<path d="M3.18563 0.78463C5.04521 0.768937 6.37908 2.07142 6.38692 3.93884C6.37908 5.79842 5.04521 7.1009 3.18563 7.09306C1.31037 7.1009 -0.00781146 5.79842 3.48408e-05 3.93884C-0.00781146 2.07142 1.31037 0.768937 3.18563 0.78463ZM1.11421 3.93884C1.09852 5.17856 1.98515 6.06519 3.18563 6.07304C4.37042 6.06519 5.24921 5.17856 5.25706 3.93884C5.24921 2.68343 4.37042 1.7968 3.18563 1.78896C1.98515 1.7968 1.09852 2.68343 1.11421 3.93884ZM2.49516 13.7624V8.23862H3.71918V9.90203H10.4827V8.23862H11.691V13.7624H2.49516ZM3.71918 12.7581H10.4827V10.9221H3.71918V12.7581ZM7.5011 7.50106V0.282467H8.66235V3.21698H10.5141V0.0156926H11.691V7.61091H10.5141V4.25269H8.66235V7.50106H7.5011Z" fill="black"/>
<path d="M29.3467 0.800323V1.82034H27.1968V5.64934H29.2996V6.63797H19.0681V5.64934H21.1866V1.82034H19.021V0.800323H29.3467ZM17.8126 9.30571V8.27H30.5864V9.30571H24.7802V13.9507H23.5718V9.30571H17.8126ZM22.4106 5.64934H25.9885V1.82034H22.4106V5.64934Z" fill="black"/>
<path d="M36.7073 3.75053C36.6994 6.30058 38.4335 8.85847 40.4892 9.79218L39.736 10.7651C38.1432 9.99619 36.7701 8.34062 36.1031 6.3555C35.4597 8.45831 34.0866 10.2237 32.4546 11.0476L31.67 10.0119C33.7492 9.06248 35.4676 6.39473 35.4833 3.75053V1.20833H36.7073V3.75053ZM42.0114 13.9821V0H43.2511V13.9821H42.0114Z" fill="black"/>
<path d="M56.7326 1.30249C56.7404 3.27191 59.2983 4.96671 61.817 5.31979L61.3148 6.32412C59.1492 5.96319 56.9993 4.7627 56.1048 3.05221C55.2104 4.7784 53.0683 5.96319 50.8949 6.32412L50.3927 5.31979C52.9114 4.96671 55.4615 3.30329 55.4615 1.30249V0.502163H56.7326V1.30249ZM49.7337 8.8977V7.86199H62.4447V8.8977H56.6698V13.9507H55.4615V8.8977H49.7337Z" fill="black"/>
<path d="M75.1721 0.0156926V10.2473H73.9481V0.0156926H75.1721ZM63.795 7.26567C65.9056 6.44181 67.3415 4.40177 67.3415 2.19696V0.800323H68.5969V2.19696C68.5812 4.32331 70.0328 6.22996 72.1121 6.98321L71.4687 7.97184C69.8523 7.35198 68.5969 6.09658 67.9771 4.48808C67.3729 6.19858 66.1018 7.57168 64.4698 8.22292L63.795 7.26567ZM66.1646 13.6526V9.30571H67.3886V12.6169H75.6115V13.6526H66.1646Z" fill="black"/>
<path d="M94.3657 6.90474V7.89338H81.639V6.90474H87.3982V5.27271H83.2553V0.659089H92.7807V1.64772H84.4636V4.26839H92.8749V5.27271H88.5908V6.90474H94.3657ZM83.1768 11.4242C83.169 9.83141 84.9815 8.92124 87.9945 8.9134C90.9839 8.92124 92.7807 9.83141 92.7964 11.4242C92.7807 13.0327 90.9839 13.935 87.9945 13.9507C84.9815 13.935 83.169 13.0327 83.1768 11.4242ZM84.4323 11.4242C84.4166 12.405 85.7583 12.9699 87.9945 12.9621C90.2071 12.9699 91.5488 12.405 91.5567 11.4242C91.5488 10.4591 90.2071 9.88634 87.9945 9.88634C85.7583 9.88634 84.4166 10.4591 84.4323 11.4242Z" fill="black"/>
<path d="M100.126 1.02002C102.315 1.02787 103.868 2.36174 103.876 4.29977C103.868 6.24566 102.315 7.57168 100.126 7.57953C97.9208 7.57168 96.3515 6.24566 96.3594 4.29977C96.3515 2.36174 97.9208 1.02787 100.126 1.02002ZM95.6375 9.85495C98.2111 9.8628 101.765 9.83926 104.849 9.38418L104.943 10.2943C101.75 10.8907 98.321 10.9064 95.8101 10.9064L95.6375 9.85495ZM97.5677 4.29977C97.5599 5.60226 98.6348 6.49674 100.126 6.49674C101.601 6.49674 102.676 5.60226 102.668 4.29977C102.676 3.00513 101.601 2.10281 100.126 2.10281C98.6348 2.10281 97.5599 3.00513 97.5677 4.29977ZM105.775 13.9821V0H106.999V13.9821H105.775Z" fill="black"/>
</svg>
