<svg width="15" height="11" viewBox="0 0 15 11" fill="none" xmlns="http://www.w3.org/2000/svg">
<path d="M5.2496 6.59341C3.49473 6.59341 0 7.47504 0 9.23077V10.5495H10.4992V9.23077C10.4992 7.47504 7.00446 6.59341 5.2496 6.59341ZM1.75487 9.04239C2.38482 8.60534 3.9072 8.10047 5.2496 8.10047C6.592 8.10047 8.11438 8.60534 8.74433 9.04239H1.75487ZM5.2496 5.27473C6.69699 5.27473 7.8744 4.09168 7.8744 2.63736C7.8744 1.18305 6.69699 0 5.2496 0C3.80221 0 2.6248 1.18305 2.6248 2.63736C2.6248 4.09168 3.80221 5.27473 5.2496 5.27473ZM5.2496 1.50706C5.87205 1.50706 6.37451 2.01193 6.37451 2.63736C6.37451 3.26279 5.87205 3.76766 5.2496 3.76766C4.62715 3.76766 4.12468 3.26279 4.12468 2.63736C4.12468 2.01193 4.62715 1.50706 5.2496 1.50706ZM10.5292 6.63862C11.3991 7.27159 11.9991 8.11554 11.9991 9.23077V10.5495H14.9989V9.23077C14.9989 7.70863 12.3741 6.84207 10.5292 6.63862ZM9.74925 5.27473C11.1966 5.27473 12.3741 4.09168 12.3741 2.63736C12.3741 1.18305 11.1966 0 9.74925 0C9.34429 0 8.96931 0.0979591 8.62434 0.263736C9.0968 0.93438 9.37428 1.75573 9.37428 2.63736C9.37428 3.519 9.0968 4.34035 8.62434 5.01099C8.96931 5.17677 9.34429 5.27473 9.74925 5.27473Z" fill="#5D5D5D"/>
</svg>
