<svg width="122" height="14" viewBox="0 0 122 14" fill="none" xmlns="http://www.w3.org/2000/svg">
<path d="M11.9637 0V13.9577H10.7862V0H11.9637ZM9.13764 0.37681V13.2511H7.96011V8.41542H5.36954V7.39489H7.96011V4.91423H5.60504C4.92208 7.27714 3.39129 9.36529 0.753619 10.9432L0 10.0483C3.03803 8.25056 4.56097 5.73065 4.80432 2.81037H0.628016V1.78985H6.02896C6.02896 2.50421 5.96615 3.21073 5.84055 3.8937H7.96011V0.37681H9.13764Z" fill="#222222"/>
<path d="M25.5139 0V8.32121H24.2736V4.66302H21.4632V3.64249H24.2736V0H25.5139ZM20.8823 8.76083C23.7869 8.76083 25.561 9.70285 25.561 11.3514C25.561 12.9999 23.7869 13.942 20.8823 13.9577C17.9777 13.942 16.2036 12.9999 16.2036 11.3514C16.2036 9.70285 17.9777 8.76083 20.8823 8.76083ZM20.8823 9.71855C18.747 9.71855 17.4125 10.3309 17.4282 11.3514C17.4125 12.3562 18.747 12.9685 20.8823 12.9685C23.0175 12.9685 24.3364 12.3562 24.3364 11.3514C24.3364 10.3309 23.0175 9.71855 20.8823 9.71855ZM18.7941 2.55917C18.7941 4.38041 20.1915 6.10746 22.2325 6.81398L21.5888 7.8031C20.0188 7.23789 18.802 6.06821 18.2132 4.61592C17.6009 6.25661 16.3056 7.5676 14.6492 8.19561L14.0055 7.20649C16.078 6.45287 17.5538 4.56882 17.5538 2.57487V2.05675H14.398V1.02053H21.9185V2.05675H18.7941V2.55917Z" fill="#222222"/>
<path d="M39.3781 0V13.9891H38.1378V0H39.3781ZM31.9518 1.08333C34.0243 1.09903 35.5158 2.98308 35.5158 5.95045C35.5158 8.91783 34.0243 10.8019 31.9518 10.8019C29.8637 10.8019 28.3878 8.91783 28.3878 5.95045C28.3878 2.98308 29.8637 1.09903 31.9518 1.08333ZM31.9518 2.18236C30.5545 2.19806 29.5811 3.67389 29.5811 5.95045C29.5811 8.22701 30.5545 9.70285 31.9518 9.70285C33.3492 9.70285 34.3226 8.22701 34.3226 5.95045C34.3226 3.67389 33.3492 2.19806 31.9518 2.18236Z" fill="#222222"/>
<path d="M48.6429 8.19561V9.93836H51.1863V8.19561H52.3325V13.7693H47.481V8.19561H48.6429ZM48.6429 12.7958H51.1863V10.8804H48.6429V12.7958ZM56.3204 9.29464C56.3047 10.7705 57.1839 12.3091 58.8952 12.9371L58.2515 13.8792C56.9641 13.361 56.1163 12.3798 55.6924 11.2101C55.2449 12.3562 54.3971 13.3453 53.1646 13.8792L52.5209 12.9371C54.2008 12.2463 55.0957 10.7077 55.0957 9.29464V8.10141H56.3204V9.29464ZM49.7105 0.628016C51.5788 0.628016 53.0076 1.68779 53.2745 3.29709H56.1948V0H57.4351V7.39489H56.1948V4.31761H53.2902C53.039 5.96615 51.6024 7.04948 49.7105 7.04948C47.5909 7.04948 46.0837 5.74635 46.0837 3.8309C46.0837 1.93115 47.5909 0.628016 49.7105 0.628016ZM49.7105 1.66424C48.2818 1.66424 47.2612 2.55917 47.2612 3.8309C47.2612 5.11833 48.2818 6.02896 49.7105 6.02896C51.1235 6.02896 52.1284 5.11833 52.1284 3.8309C52.1284 2.55917 51.1235 1.66424 49.7105 1.66424Z" fill="#222222"/>
<path d="M66.1496 0.910624C69.0699 0.910624 71.2522 2.43356 71.2522 4.74152C71.2522 7.06518 69.0699 8.58812 66.1496 8.57242C63.2293 8.58812 61.0469 7.06518 61.0469 4.74152C61.0469 2.43356 63.2293 0.910624 66.1496 0.910624ZM66.1496 1.91545C63.9044 1.89975 62.2088 3.07728 62.2245 4.74152C62.2088 6.43717 63.9044 7.5676 66.1496 7.5676C68.379 7.5676 70.059 6.43717 70.059 4.74152C70.059 3.07728 68.379 1.89975 66.1496 1.91545ZM72.571 11.0688V12.105H59.7909V11.0688H72.571Z" fill="#222222"/>
<path d="M85.242 0.0157004V10.2524H84.0174V0.0157004H85.242ZM85.6816 12.6231V13.6594H76.23V9.31034H77.4546V12.6231H85.6816ZM78.6636 2.19806C78.6479 4.31761 80.108 6.23306 82.1804 6.98668L81.5367 7.97581C79.9196 7.35564 78.6636 6.09961 78.0512 4.49032C77.4311 6.20166 76.1593 7.57545 74.5343 8.22701L73.8592 7.26929C75.9788 6.45287 77.4075 4.39611 77.4075 2.19806V0.800721H78.6636V2.19806Z" fill="#222222"/>
<path d="M98.4468 0V5.68355H100.708V6.71977H98.4468V13.9577H97.2222V0H98.4468ZM94.8357 1.50724C94.8357 5.46374 92.9831 9.05913 88.43 11.3043L87.7391 10.3309C91.3502 8.53317 93.3128 5.8484 93.5954 2.54347H88.3829V1.50724H94.8357Z" fill="#222222"/>
<path d="M114.352 11.1316V12.1678H101.572V11.1316H104.743V7.36349C103.55 6.74332 102.828 5.7385 102.828 4.47462C102.828 2.30796 104.948 0.894923 107.931 0.879223C110.914 0.894923 113.033 2.30796 113.033 4.47462C113.033 5.71495 112.335 6.71192 111.181 7.33209V11.1316H114.352ZM107.931 1.89975C105.638 1.88405 104.021 2.92028 104.021 4.47462C104.021 6.02896 105.638 7.08088 107.931 7.08088C110.207 7.08088 111.84 6.02896 111.84 4.47462C111.84 2.92028 110.207 1.88405 107.931 1.89975ZM105.952 11.1316H109.94V7.8031C109.336 7.96796 108.661 8.05431 107.931 8.05431C107.216 8.05431 106.549 7.97581 105.952 7.8188V11.1316Z" fill="#222222"/>
<path d="M117.728 9.40454C117.744 7.30069 118.388 6.65697 119.471 5.99755C120.115 5.60504 120.617 4.97703 120.617 4.09781C120.617 3.03018 119.785 2.35506 118.749 2.35506C117.854 2.35506 116.959 2.88887 116.865 4.17631H115.436C115.515 2.27656 116.959 1.16183 118.749 1.16183C120.711 1.16183 121.999 2.43356 121.999 4.16061C121.999 5.38524 121.418 6.24876 120.445 6.84538C119.471 7.44199 119.11 8.03861 119.079 9.40454V9.48304H117.728V9.40454ZM118.451 12.7801C117.901 12.7801 117.43 12.3248 117.446 11.7596C117.43 11.2101 117.901 10.7548 118.451 10.7548C119 10.7548 119.455 11.2101 119.455 11.7596C119.455 12.3248 119 12.7801 118.451 12.7801Z" fill="#222222"/>
</svg>
