<svg width="40" height="15" viewBox="0 0 40 15" fill="none" xmlns="http://www.w3.org/2000/svg">
<path d="M13.1181 7.08661V8.67717H7.71654V11.1496H5.73228V8.67717H0V7.08661H13.1181ZM1.54331 14.0787V9.90551H3.54331V12.4724H11.6693V14.0787H1.54331ZM1.6378 5.90551V0.629921H11.4331V5.90551H1.6378ZM3.6063 4.34646H9.46457V2.18898H3.6063V4.34646Z" fill="#222222"/>
<path d="M17.985 0.409449C19.1425 0.401575 20.1504 0.795276 20.8354 1.46457H24.0637V0H26.0637V7.1811H24.0637V5.93701H20.8511C20.1661 6.61417 19.1504 7.01575 17.985 7.02362C15.796 7.01575 14.1582 5.66142 14.174 3.70079C14.1582 1.75591 15.796 0.401575 17.985 0.409449ZM16.0795 3.70079C16.0716 4.77165 16.8669 5.40157 17.985 5.40157C19.0637 5.40157 19.8511 4.77165 19.859 3.70079C19.8511 2.65354 19.0637 2.02362 17.985 2.0315C16.8669 2.02362 16.0716 2.65354 16.0795 3.70079ZM16.5204 9.33858V7.79528H26.0637V11.6693H18.5519V12.5984H26.4889V14.1732H16.5362V10.189H24.0637V9.33858H16.5204ZM21.6937 3.02362C21.7409 3.23622 21.7645 3.46457 21.7645 3.70079C21.7645 3.93701 21.7409 4.16535 21.6937 4.37795H24.0637V3.02362H21.6937Z" fill="#222222"/>
<path d="M40.0015 0V14.3307H37.97V0H40.0015ZM28.0015 10.2677C31.7023 8.51969 33.3322 6.25197 33.6551 3.07087H28.7732V1.49606H35.7023C35.6944 5.84252 34.1747 9.45669 29.0566 11.874L28.0015 10.2677Z" fill="#222222"/>
</svg>
