<svg width="56" height="56" viewBox="0 0 56 56" fill="none" xmlns="http://www.w3.org/2000/svg">
<path d="M27.9925 14.7022C31.8629 14.7022 35.0005 11.411 35.0005 7.3511C35.0005 3.2912 31.8629 0 27.9925 0C24.122 0 20.9844 3.2912 20.9844 7.3511C20.9844 11.411 24.122 14.7022 27.9925 14.7022Z" fill="#5B574A"/>
<path d="M38.995 32.1707L36.8446 18.4627C36.6218 17.1888 35.5633 16.2656 34.3266 16.2656H21.6697C20.433 16.2656 19.3745 17.1888 19.1517 18.4627L17.0014 32.1707C16.7785 33.4679 17.7256 34.6482 18.9734 34.6482H20.9232L22.3271 46.767C22.4831 48.1577 23.6084 49.1977 24.9454 49.1977H31.051C32.3768 49.1977 33.5021 48.1577 33.6693 46.767L35.0731 34.6482H37.0229C38.2708 34.6482 39.2178 33.4562 38.995 32.1707Z" fill="#5B574A"/>
<path d="M54.6105 55.9988H1.39807C0.952409 55.9988 0.529027 55.7651 0.261628 55.3911C0.00537002 55.0055 -0.0726214 54.5146 0.0722198 54.0705L7.21401 32.2395C7.40341 31.6552 7.93821 31.2578 8.52872 31.2578H13.1302C13.899 31.2578 14.5229 31.9123 14.5229 32.7187C14.5229 33.5251 13.899 34.1795 13.1302 34.1795H9.53147L3.34786 53.0888H52.6607L46.4771 34.1795H42.8672C42.0985 34.1795 41.4745 33.5251 41.4745 32.7187C41.4745 31.9123 42.0985 31.2578 42.8672 31.2578H47.4687C48.0592 31.2578 48.594 31.6552 48.7834 32.2395L55.9252 54.0705C56.0701 54.5146 56.0032 55.0055 55.7358 55.3911C55.4684 55.7768 55.0562 55.9988 54.5994 55.9988H54.6105Z" fill="#FFE142"/>
</svg>
