<svg width="26" height="14" viewBox="0 0 26 14" fill="none" xmlns="http://www.w3.org/2000/svg">
<path d="M11.622 0V7.24409H10.378V3.6063H7.25984V2.58268H10.378V0H11.622ZM0 6.28346C2.11024 5.58268 3.55906 3.82677 3.5748 1.77953V0.456693H4.7874V1.77953C4.77165 3.61417 6.22047 5.29921 8.26772 5.9685L7.6063 6.92913C6.05512 6.37795 4.8189 5.27559 4.19685 3.85827C3.59843 5.45669 2.33071 6.67717 0.677165 7.27559L0 6.28346ZM2.55118 8.94488V7.95276H11.622V11.2913H3.79528V12.8189H12.1417V13.811H2.58268V10.3465H10.3937V8.94488H2.55118Z" fill="#222222"/>
<path d="M25.5913 0V8.34646H24.3472V4.67717H21.5283V3.65354H24.3472V0H25.5913ZM14.048 7.22835C16.1267 6.48031 17.6071 4.58268 17.6071 2.58268V2.06299H14.4417V1.02362H21.985V2.06299H18.8511V2.56693C18.8511 4.3937 20.2527 6.13386 22.3 6.83465L21.6543 7.82677C20.0874 7.25984 18.8669 6.07874 18.2606 4.6378C17.6622 6.27559 16.363 7.58268 14.6937 8.22047L14.048 7.22835ZM16.2527 11.3858C16.2448 9.74016 18.0323 8.77953 20.9456 8.7874C23.8511 8.77953 25.6386 9.74016 25.6386 11.3858C25.6386 13.0394 23.8511 13.9843 20.9456 14C18.0323 13.9843 16.2448 13.0394 16.2527 11.3858ZM17.4811 11.3858C17.4732 12.4016 18.796 13.0157 20.9456 13.0079C23.0874 13.0157 24.4102 12.4016 24.4102 11.3858C24.4102 10.3622 23.0874 9.74803 20.9456 9.74803C18.796 9.74803 17.4732 10.3622 17.4811 11.3858Z" fill="#222222"/>
</svg>
