<svg width="61" height="16" viewBox="0 0 61 16" fill="none" xmlns="http://www.w3.org/2000/svg">
<path d="M8.41992 2.10938C8.41113 4.45605 10.4941 6.96094 14.1152 7.57617L13.1309 9.43945C10.3359 8.88574 8.27051 7.3125 7.2334 5.26465C6.17871 7.29492 4.10449 8.87695 1.33594 9.43945L0.369141 7.57617C3.92871 6.94336 6.01172 4.42969 6.0293 2.10938V0.949219H8.41992V2.10938ZM0 14.0273V12.1816H14.6426V14.0273H0Z" fill="black"/>
<path d="M23.784 1.51172V12.0938H16.1024V1.51172H23.784ZM18.3172 10.3184H21.5516V3.26953H18.3172V10.3184ZM25.9637 15.9961V0H28.2137V6.0293H30.5692V7.89258H28.2137V15.9961H25.9637Z" fill="black"/>
<path d="M44.2282 8.26172V10.0371H32.9079V1.17773H44.1052V2.98828H35.1931V4.67578H43.7361V6.43359H35.1931V8.26172H44.2282ZM31.1853 14.1328V12.3047H45.8279V14.1328H31.1853Z" fill="black"/>
<path d="M55.5143 1.5293C55.4967 6.45117 54.1432 10.6436 48.0963 13.6055L46.9185 11.8828C49.5553 10.5732 51.2076 9.0791 52.1744 7.28613L47.3228 7.7168L47.0416 5.81836L52.8951 5.4668C53.0885 4.79883 53.2027 4.07812 53.273 3.32227H47.8678V1.5293H55.5143ZM57.9576 15.9961V0H60.2252V15.9961H57.9576Z" fill="black"/>
</svg>
