<svg width="89" height="14" viewBox="0 0 89 14" fill="none" xmlns="http://www.w3.org/2000/svg">
<path d="M11.8469 0V13.8943H10.6434V6.62675H8.72105V13.2066H7.54886V0.375099H8.72105V5.61085H10.6434V0H11.8469ZM0 10.0495C3.22741 8.24436 4.55589 5.70463 4.76688 2.82887H0.53139V1.81298H5.97032C5.95469 5.34516 4.71218 8.68197 0.718939 10.9091L0 10.0495Z" fill="#222222"/>
<path d="M25.3199 0.0156291V10.1746H24.1008V0.0156291H25.3199ZM14.1764 4.39178C14.1685 2.39125 15.7393 0.992449 17.8179 0.984634C19.8966 0.992449 21.4517 2.39125 21.4595 4.39178C21.4517 6.41575 19.8966 7.82237 17.8179 7.81456C15.7393 7.82237 14.1685 6.41575 14.1764 4.39178ZM15.3798 4.39178C15.3642 5.77496 16.4113 6.73615 17.8179 6.73615C19.2011 6.73615 20.2561 5.77496 20.2561 4.39178C20.2561 3.03205 19.2011 2.06304 17.8179 2.06304C16.4113 2.06304 15.3642 3.03205 15.3798 4.39178ZM16.3488 13.5973V9.14303H17.5679V12.5658H25.7575V13.5973H16.3488Z" fill="#222222"/>
<path d="M43.2793 0V8.28343H42.0446V4.64185H39.247V3.62595H42.0446V0H43.2793ZM31.8231 7.17376C33.8862 6.43138 35.3553 4.54807 35.3553 2.56317V2.04741H32.2139V1.01589H39.7002V2.04741H36.59V2.54755C36.59 4.36052 37.981 6.08754 40.0128 6.78304L39.372 7.76767C37.8169 7.20502 36.6056 6.03284 36.0039 4.60277C35.41 6.2282 34.1206 7.52542 32.4639 8.1584L31.8231 7.17376ZM34.0112 11.2999C34.0034 9.66661 35.7773 8.71323 38.6687 8.72105C41.5523 8.71323 43.3262 9.66661 43.3262 11.2999C43.3262 12.9409 41.5523 13.8787 38.6687 13.8943C35.7773 13.8787 34.0034 12.9409 34.0112 11.2999ZM35.2303 11.2999C35.2225 12.3079 36.5353 12.9175 38.6687 12.9096C40.7942 12.9175 42.1071 12.3079 42.1071 11.2999C42.1071 10.284 40.7942 9.67442 38.6687 9.67442C36.5353 9.67442 35.2225 10.284 35.2303 11.2999Z" fill="#222222"/>
<path d="M58.3465 11.0967V12.1126H45.6244V11.0967H51.3446V8.09588H47.1248V0.984634H48.3595V3.50092H55.5801V0.984634H56.7836V8.09588H52.5481V11.0967H58.3465ZM48.3595 7.09562H55.5801V4.50119H48.3595V7.09562Z" fill="#222222"/>
<path d="M75.0555 0.0156291V10.2996H73.8208V6.56423H70.5387V7.92396H64.2402V0.937747H65.4592V3.40715H69.3353V0.937747H70.5387V2.56317H73.8208V0.0156291H75.0555ZM65.4592 6.90807H69.3353V4.37615H65.4592V6.90807ZM66.0688 13.5973V9.28369H67.3035V12.5658H75.3681V13.5973H66.0688ZM70.5387 5.54834H73.8208V3.5947H70.5387V5.54834Z" fill="#222222"/>
<path d="M88.9193 0.0156291V8.36158H87.6846V6.48608H83.9961V5.47019H87.6846V3.5947H84.1368C83.2225 5.82966 81.0813 7.44727 78.1039 8.33032L77.5882 7.36131C80.9406 6.36886 83.0427 4.48556 83.285 2.07867H78.2915V1.04715H84.6213C84.6213 1.59417 84.5588 2.11775 84.4415 2.61006H87.6846V0.0156291H88.9193ZM79.7294 11.1592C79.7216 9.5025 81.5267 8.50224 84.3712 8.50224C87.1845 8.50224 88.9974 9.5025 88.9974 11.1592C88.9974 12.8237 87.1845 13.8318 84.3712 13.8318C81.5267 13.8318 79.7216 12.8237 79.7294 11.1592ZM80.9328 11.1592C80.9406 12.2063 82.2769 12.8393 84.3712 12.8315C86.4343 12.8393 87.7706 12.2063 87.7784 11.1592C87.7706 10.112 86.4343 9.47906 84.3712 9.48687C82.2769 9.47906 80.9406 10.112 80.9328 11.1592Z" fill="#222222"/>
</svg>
