<svg width="26" height="14" viewBox="0 0 26 14" fill="none" xmlns="http://www.w3.org/2000/svg">
<path d="M11.4362 0V10.4257H10.1851V0H11.4362ZM11.8853 12.8797V13.9383H2.22949V9.36706H3.48057V12.8797H11.8853ZM3.7372 0.994448C5.87045 0.994448 7.4744 2.438 7.4744 4.49105C7.4744 6.57619 5.87045 8.0037 3.7372 8.0037C1.60395 8.0037 0 6.57619 0 4.49105C0 2.438 1.60395 0.994448 3.7372 0.994448ZM3.7372 2.10117C2.29365 2.10117 1.219 3.09562 1.23504 4.49105C1.219 5.91857 2.29365 6.89698 3.7372 6.89698C5.14867 6.89698 6.23936 5.91857 6.23936 4.49105C6.23936 3.09562 5.14867 2.10117 3.7372 2.10117Z" fill="#222222" fill-opacity="0.4"/>
<path d="M25.6479 0V10.8267H24.3808V9.35102H21.4295V8.43677H24.3808V0H25.6479ZM26.0008 12.8797V13.9383H15.8638V9.76804H17.1309V12.8797H26.0008ZM13.8108 6.60827C16.4733 6.59223 20.0341 6.57619 23.0976 6.19124L23.1778 7.10549C21.9027 7.30598 20.5714 7.4343 19.2642 7.50648V10.3294H17.9971V7.57064C16.5535 7.63479 15.1821 7.64281 13.9872 7.63479L13.8108 6.60827ZM18.4943 0.577421C20.5794 0.577421 22.0069 1.57187 22.023 3.06354C22.0069 4.58729 20.5794 5.53362 18.4943 5.53362C16.3931 5.53362 14.9656 4.58729 14.9656 3.06354C14.9656 1.57187 16.3931 0.577421 18.4943 0.577421ZM18.4943 1.53979C17.0989 1.52375 16.1525 2.14929 16.1686 3.06354C16.1525 3.99383 17.0989 4.60333 18.4943 4.60333C19.8416 4.60333 20.804 3.99383 20.82 3.06354C20.804 2.14929 19.8416 1.52375 18.4943 1.53979Z" fill="#222222" fill-opacity="0.4"/>
</svg>
