<svg width="15" height="15" viewBox="0 0 15 15" fill="none" xmlns="http://www.w3.org/2000/svg">
<path fill-rule="evenodd" clip-rule="evenodd" d="M0.293472 13.2376C-0.0978241 13.6273 -0.0978242 14.2593 0.293472 14.649C0.684769 15.0388 1.31919 15.0388 1.71048 14.649L7.46838 8.91387L13.2572 14.7096C13.6475 15.1003 14.2803 15.1003 14.6706 14.7096C15.0608 14.3188 15.0608 13.6853 14.6706 13.2945L8.88539 7.50246L14.7071 1.70372C15.0984 1.31397 15.0984 0.682063 14.7071 0.292313C14.3158 -0.0974377 13.6814 -0.0974374 13.2901 0.292313L7.47203 6.08741L1.70866 0.317194C1.31837 -0.0735624 0.685584 -0.0735624 0.295292 0.317194C-0.0950004 0.70795 -0.0950004 1.34149 0.295292 1.73225L6.05502 7.49882L0.293472 13.2376Z" fill="#BABCC4"/>
</svg>
