<svg xmlns="http://www.w3.org/2000/svg" width="24" height="23" fill="none" viewBox="0 0 24 23"><path fill="#222" d="M20.951 9.92 5.116 1.692a1.598 1.598 0 0 0-1.701.151 1.38 1.38 0 0 0-.48.701 1.29 1.29 0 0 0 .035.83l2.72 7.063h7.064a.78.78 0 0 1 .53.204c.14.13.22.307.22.492a.67.67 0 0 1-.22.491.78.78 0 0 1-.53.204H5.689L2.97 18.892a1.3 1.3 0 0 0-.073.655c.033.221.122.431.26.614.138.182.321.33.534.434a1.595 1.595 0 0 0 1.425-.021l15.835-8.226c.233-.121.427-.298.562-.51a1.316 1.316 0 0 0 0-1.407 1.455 1.455 0 0 0-.562-.512Z"/></svg>