<svg width="199" height="17" viewBox="0 0 199 17" fill="none" xmlns="http://www.w3.org/2000/svg">
<path d="M7.78588 0.918063V2.71888H2.25985V3.97239H7.3092V5.70258H2.25985V7.02671C5.08466 7.01789 6.87665 6.97375 8.91581 6.6383L9.14532 8.38615C6.85016 8.77457 4.81983 8.80988 1.37709 8.80988H0V0.918063H7.78588ZM12.5704 0.0176551V9.55139H10.3106V0.0176551H12.5704ZM12.5704 10.2046V15.8896H1.80082V10.2046H12.5704ZM4.02535 11.9525V14.0887H10.3635V11.9525H4.02535Z" fill="black"/>
<path d="M28.708 0V16.0661H26.5541V0H28.708ZM25.3535 0.229516V15.3246H23.2349V7.73292H21.9461C21.7342 10.8932 20.3924 12.7999 18.4151 12.7999C16.2965 12.7999 14.9194 10.5754 14.9194 6.95609C14.9194 3.35446 16.2965 1.14758 18.4151 1.14758C20.3483 1.14758 21.6724 2.9484 21.9284 5.94976H23.2349V0.229516H25.3535ZM18.4151 3.26619C17.5147 3.26619 16.985 4.50204 17.0027 6.95609C16.985 9.4278 17.5147 10.646 18.4151 10.6283C19.3331 10.646 19.8804 9.4278 19.8804 6.95609C19.8804 4.50204 19.3331 3.26619 18.4151 3.26619Z" fill="black"/>
<path d="M47.3181 0V6.16162H49.5956V8.0154H47.3181V16.0308H45.0583V0H47.3181ZM43.0279 1.64192C43.0103 6.4441 41.1388 10.6107 35.7364 13.259L34.4652 11.5288C38.2699 9.62201 40.309 7.06202 40.7328 3.47805H35.3833V1.64192H43.0279Z" fill="black"/>
<path d="M63.7558 0V8.63332H61.496V0H63.7558ZM55.2284 9.33953V10.8402H61.5136V9.33953H63.7558V15.8896H53.0039V9.33953H55.2284ZM55.2284 14.0711H61.5136V12.5881H55.2284V14.0711ZM54.9459 0.670892C57.453 0.653237 59.3421 2.22454 59.3421 4.48439C59.3421 6.67361 57.453 8.24491 54.9459 8.24491C52.4389 8.24491 50.5498 6.67361 50.5498 4.48439C50.5498 2.22454 52.4389 0.653237 54.9459 0.670892ZM54.9459 2.54233C53.6571 2.54233 52.7391 3.26619 52.7567 4.48439C52.7391 5.68493 53.6571 6.39113 54.9459 6.39113C56.1994 6.39113 57.1175 5.68493 57.1175 4.48439C57.1175 3.26619 56.1994 2.54233 54.9459 2.54233Z" fill="black"/>
<path d="M78.6399 0V6.2852H81.0057V8.13898H78.6399V16.0661H76.4153V0H78.6399ZM75.3207 2.40109V4.2019H65.8753V2.40109H69.5122V0.247171H71.7721V2.40109H75.3207ZM70.6421 5.10231C72.9903 5.10231 74.7381 6.69127 74.7381 8.93346C74.7381 11.1757 72.9903 12.7646 70.6421 12.7646C68.2764 12.7646 66.5285 11.1757 66.5285 8.93346C66.5285 6.69127 68.2764 5.10231 70.6421 5.10231ZM70.6421 6.92078C69.5122 6.93844 68.6824 7.69761 68.6824 8.93346C68.6824 10.187 69.5122 10.9285 70.6421 10.9108C71.7721 10.9285 72.5842 10.187 72.5842 8.93346C72.5842 7.69761 71.7721 6.93844 70.6421 6.92078Z" fill="black"/>
<path d="M94.8657 1.39475V2.91309C94.8657 4.92576 94.8657 7.18561 94.2125 10.593L91.9526 10.3635C92.5617 7.32685 92.5882 5.067 92.6059 3.17791H83.1428V1.39475H94.8657ZM96.2781 12.2703V14.1064H81.6244V12.2703H86.868V6.74423H89.1102V12.2703H96.2781Z" fill="black"/>
<path d="M114.941 0V16.1014H112.664V0H114.941ZM106.22 1.12992C108.638 1.12992 110.439 3.35446 110.439 6.85016C110.439 10.3812 108.638 12.5881 106.22 12.5881C103.748 12.5881 101.947 10.3812 101.965 6.85016C101.947 3.35446 103.748 1.12992 106.22 1.12992ZM106.22 3.16026C104.966 3.16026 104.136 4.46673 104.136 6.85016C104.136 9.25125 104.966 10.5401 106.22 10.5401C107.438 10.5401 108.268 9.25125 108.268 6.85016C108.268 4.46673 107.438 3.16026 106.22 3.16026Z" fill="black"/>
<path d="M131.803 7.60933V9.41015H117.149V7.60933H120.45V5.68493C119.276 5.16411 118.614 4.36963 118.614 3.33681C118.614 1.39475 120.892 0.229516 124.476 0.229516C128.024 0.229516 130.302 1.39475 130.32 3.33681C130.311 4.37846 129.622 5.19059 128.431 5.70258V7.60933H131.803ZM124.458 10.2576C127.936 10.2576 130.037 11.2816 130.055 13.1354C130.037 15.0245 127.936 16.0485 124.458 16.0485C120.927 16.0485 118.826 15.0245 118.826 13.1354C118.826 11.2816 120.927 10.2576 124.458 10.2576ZM124.458 11.9525C122.234 11.9525 121.104 12.3409 121.121 13.1354C121.104 13.9652 122.234 14.3712 124.458 14.3712C126.63 14.3712 127.777 13.9652 127.795 13.1354C127.777 12.3409 126.63 11.9525 124.458 11.9525ZM124.476 1.95971C122.198 1.95971 120.945 2.4364 120.962 3.33681C120.945 4.21956 122.198 4.66094 124.476 4.66094C126.718 4.66094 127.989 4.21956 127.989 3.33681C127.989 2.4364 126.718 1.95971 124.476 1.95971ZM122.728 7.60933H126.188V6.26755C125.659 6.32934 125.085 6.35582 124.476 6.35582C123.849 6.35582 123.266 6.32934 122.728 6.24989V7.60933Z" fill="black"/>
<path d="M140.56 2.45405V4.23721H132.792V2.45405H135.582V0.441377H137.806V2.45405H140.56ZM136.712 4.96107C138.76 4.96107 140.225 6.55003 140.243 8.77457C140.225 11.0168 138.76 12.6057 136.712 12.6057C134.664 12.6057 133.163 11.0168 133.163 8.77457C133.163 6.55003 134.664 4.96107 136.712 4.96107ZM136.712 6.83251C135.776 6.83251 135.14 7.55637 135.14 8.77457C135.14 9.99276 135.776 10.699 136.712 10.699C137.612 10.699 138.248 9.99276 138.265 8.77457C138.248 7.55637 137.612 6.83251 136.712 6.83251ZM146.704 0V16.0661H144.568V8.33319H143.262V15.3776H141.161V0.317791H143.262V6.53237H144.568V0H146.704Z" fill="black"/>
<path d="M163.124 8.86284V10.6637H156.875V16.0661H154.65V10.6637H148.471V8.86284H163.124ZM161.818 0.847443V2.61295H157.139C157.36 4.18425 159.134 5.76438 162.436 6.16162L161.624 7.92712C158.799 7.54754 156.777 6.33817 155.815 4.67859C154.827 6.33817 152.823 7.54754 150.024 7.92712L149.195 6.16162C152.443 5.76438 154.235 4.18425 154.491 2.61295H149.795V0.847443H161.818Z" fill="black"/>
<path d="M169.287 4.04301C169.287 6.6383 170.011 9.32187 172.2 10.7343L170.982 12.4821C169.596 11.6435 168.713 10.2664 168.21 8.61567C167.627 10.4341 166.665 11.9525 165.209 12.8352L163.831 11.1757C166.215 9.69263 167.098 6.86782 167.098 4.14894V1.37709H169.287V4.04301ZM178.061 0V16.0661H175.908V0H178.061ZM174.689 0.229516V15.3246H172.588V7.25623H170.505V5.4201H172.588V0.229516H174.689Z" fill="black"/>
<path d="M194.499 12.3409V14.1947H179.793V12.3409H183.076V8.40381C181.832 7.6623 181.081 6.52355 181.081 5.10231C181.081 2.50702 183.624 0.776823 187.119 0.776823C190.597 0.776823 193.157 2.50702 193.175 5.10231C193.166 6.48823 192.434 7.61816 191.233 8.3685V12.3409H194.499ZM187.119 2.55998C184.824 2.55998 183.306 3.47805 183.306 5.10231C183.306 6.67361 184.824 7.64464 187.119 7.64464C189.397 7.64464 190.933 6.67361 190.951 5.10231C190.933 3.47805 189.397 2.55998 187.119 2.55998ZM185.301 12.3409H188.955V9.21594C188.382 9.3307 187.764 9.39249 187.119 9.39249C186.475 9.39249 185.866 9.33953 185.301 9.21594V12.3409Z" fill="black"/>
<path d="M197.537 14.6007C196.707 14.6007 196.036 13.9298 196.054 13.1177C196.036 12.3056 196.707 11.6523 197.537 11.6523C198.314 11.6523 199.002 12.3056 199.002 13.1177C199.002 13.9298 198.314 14.6007 197.537 14.6007Z" fill="black"/>
</svg>
