<svg width="104" height="12" viewBox="0 0 104 12" fill="none" xmlns="http://www.w3.org/2000/svg">
<path d="M0 6.9493C0 5.49032 1.28906 5.15633 2.39062 5.0743C2.80078 5.04501 3.82617 4.98641 4.11328 4.98055V4.46493C4.11328 3.65633 3.63281 3.18758 2.67188 3.18758C1.86914 3.18758 1.38281 3.55673 1.24219 4.04305H0.1875C0.316406 3.01766 1.3125 2.30868 2.71875 2.30868C3.55078 2.30868 5.11523 2.55477 5.10938 4.55868V8.75399H4.11328V7.8868H4.06641C3.85547 8.31454 3.27539 8.90048 2.16797 8.90633C0.960938 8.90048 0 8.19149 0 6.9493ZM1.00781 6.99618C1.01367 7.67001 1.57031 8.00985 2.34375 8.00399C3.48047 8.00985 4.11328 7.24813 4.11328 6.4454V5.80673C3.81445 5.8243 2.8125 5.90048 2.50781 5.91805C1.59375 5.97665 1.01367 6.29891 1.00781 6.99618Z" fill="#222222" fill-opacity="0.4"/>
<path d="M6.87947 8.75399V0.269616H7.88728V3.39852H7.96931C8.18611 3.05868 8.56697 2.30868 9.80916 2.30868C11.4029 2.30868 12.522 3.5743 12.5279 5.58993C12.522 7.61141 11.4029 8.88876 9.82088 8.8829C8.60213 8.88876 8.18611 8.1329 7.96931 7.78133H7.85213V8.75399H6.87947ZM7.86384 5.56649C7.86384 6.99618 8.50838 7.98055 9.66853 7.98055C10.8814 7.98055 11.5025 6.92001 11.5084 5.56649C11.5025 4.23641 10.899 3.21102 9.66853 3.21102C8.49666 3.21102 7.86384 4.15438 7.86384 5.56649Z" fill="#222222" fill-opacity="0.4"/>
<path d="M16.466 8.8829C14.6613 8.88876 13.5597 7.5118 13.5597 5.60165C13.5597 3.66805 14.714 2.30868 16.4425 2.30868C17.796 2.30868 18.8156 3.11141 18.9738 4.31258H17.966C17.8195 3.73251 17.3156 3.1993 16.466 3.1993C15.3293 3.1993 14.5734 4.1368 14.5675 5.56649C14.5734 7.03719 15.3117 7.98055 16.466 7.98055C17.216 7.98055 17.7902 7.57626 17.966 6.87899H18.9738C18.8156 8.01571 17.8781 8.88876 16.466 8.8829Z" fill="#222222" fill-opacity="0.4"/>
<path d="M23.2283 0.269616V8.75399H22.1618V1.37118H22.115L20.0525 2.74227V1.67587L22.1618 0.269616H23.2283Z" fill="#222222" fill-opacity="0.4"/>
<path d="M25.514 8.75399L25.5023 7.98055L28.3968 4.93368C29.3987 3.86727 29.8792 3.29305 29.8851 2.5079C29.8792 1.63485 29.1526 1.07235 28.1976 1.06649C27.1839 1.07235 26.5511 1.71102 26.5452 2.66024H25.5491C25.5374 1.16024 26.6976 0.152428 28.2327 0.152428C29.7737 0.152428 30.8636 1.18954 30.8694 2.5079C30.8636 3.45712 30.4241 4.1954 28.9241 5.74227L26.9788 7.74618V7.81649H31.0218V8.75399H25.514Z" fill="#222222" fill-opacity="0.4"/>
<path d="M35.5106 8.87118C33.8231 8.87118 32.6102 7.96883 32.5575 6.62118H33.6239C33.6825 7.42977 34.4852 7.93368 35.4989 7.93368C36.618 7.93368 37.4266 7.33016 37.4325 6.4454C37.4266 5.51962 36.6884 4.86923 35.37 4.86337H34.6786V3.93758H35.37C36.4012 3.93758 37.122 3.35751 37.1161 2.48446C37.122 1.63485 36.5009 1.07235 35.5341 1.06649C34.6259 1.07235 33.7997 1.5704 33.7528 2.40243H32.7333C32.786 1.05477 34.0399 0.152428 35.5458 0.152428C37.163 0.152428 38.1473 1.21298 38.1356 2.42587C38.1473 3.39266 37.5848 4.09579 36.6942 4.34774V4.40633C37.8016 4.57626 38.4696 5.36727 38.4637 6.4454C38.4696 7.83993 37.204 8.87118 35.5106 8.87118Z" fill="#222222" fill-opacity="0.4"/>
<path d="M44.2182 7.64071C43.0405 7.63485 42.1909 6.69149 42.1909 5.16805C42.1909 3.65633 43.0581 2.71298 44.2299 2.70712C45.0737 2.71298 45.4194 3.25204 45.5659 3.51571H45.6245V2.80087H46.5151V6.22274C46.5327 6.67977 46.7202 6.90829 47.101 6.90243C47.8276 6.90829 48.3139 6.05868 48.3198 4.83993C48.3315 2.63094 46.7319 1.18954 44.4878 1.18368C42.1674 1.1954 40.6733 2.98837 40.6674 5.16805C40.6674 7.55282 41.9682 9.18758 44.4409 9.16415C45.2612 9.15243 45.8003 9.09969 46.5151 8.90633V9.70321C45.8999 9.86727 45.2143 9.97274 44.4409 9.97274C41.5756 9.97274 39.8178 8.13876 39.8237 5.16805C39.812 2.39657 41.7573 0.375085 44.4878 0.375085C47.2885 0.375085 49.1753 2.27938 49.1635 4.80477C49.1694 6.62704 48.2319 7.68758 47.0424 7.68758C46.3042 7.68758 45.7475 7.27157 45.7006 6.72665H45.6245C45.4897 6.99032 45.1323 7.63485 44.2182 7.64071ZM43.1049 5.15633C43.0991 6.0704 43.5561 6.77938 44.3706 6.78524C45.2085 6.77938 45.6303 6.12899 45.6362 5.15633C45.6303 4.20712 45.2143 3.56844 44.3706 3.56258C43.5503 3.56844 43.0991 4.25985 43.1049 5.15633Z" fill="#222222" fill-opacity="0.4"/>
<path d="M53.1836 11.2735C51.6426 11.2735 50.5996 10.5997 50.4883 9.42196H51.543C51.6778 10.0724 52.2813 10.3946 53.1836 10.3946C54.2735 10.3946 54.9414 9.92001 54.9414 8.87118V7.58212H54.8594C54.6426 7.93368 54.2383 8.65438 53.0078 8.66024C51.461 8.65438 50.3008 7.48837 50.3008 5.48446C50.3008 3.52743 51.42 2.30868 53.0196 2.30868C54.2559 2.30868 54.6543 3.05868 54.8828 3.39852H54.9649V2.39071H55.9492V8.92977C55.9434 10.5704 54.7364 11.2735 53.1836 11.2735ZM51.3203 5.51962C51.3203 6.83798 51.9414 7.7579 53.1485 7.7579C54.3145 7.7579 54.959 6.92001 54.9649 5.51962C54.959 4.15438 54.3321 3.21102 53.1485 3.21102C51.9239 3.21102 51.3203 4.23641 51.3203 5.51962Z" fill="#222222" fill-opacity="0.4"/>
<path d="M57.5787 8.75399V2.39071H58.5514V3.3868H58.6334C58.8971 2.70712 59.5123 2.30868 60.3443 2.30868C61.1764 2.30868 61.7447 2.70712 62.0436 3.3868H62.1139C62.4361 2.73055 63.11 2.30868 64.024 2.30868C65.1549 2.30868 65.9693 3.00008 65.9693 4.50008V8.75399H64.9615V4.5118C64.9557 3.5743 64.3697 3.21102 63.6725 3.21102C62.7877 3.21102 62.2838 3.80868 62.2779 4.61727V8.75399H61.2584V4.40633C61.2643 3.69149 60.7486 3.21102 60.0162 3.21102C59.2545 3.21102 58.5865 3.85555 58.5865 4.78133V8.75399H57.5787Z" fill="#222222" fill-opacity="0.4"/>
<path d="M67.3058 6.9493C67.3058 5.49032 68.5949 5.15633 69.6965 5.0743C70.1066 5.04501 71.132 4.98641 71.4191 4.98055V4.46493C71.4191 3.65633 70.9387 3.18758 69.9777 3.18758C69.175 3.18758 68.6887 3.55673 68.548 4.04305H67.4933C67.6223 3.01766 68.6183 2.30868 70.0246 2.30868C70.8566 2.30868 72.4211 2.55477 72.4152 4.55868V8.75399H71.4191V7.8868H71.3723C71.1613 8.31454 70.5812 8.90048 69.4738 8.90633C68.2668 8.90048 67.3058 8.19149 67.3058 6.9493ZM68.3137 6.99618C68.3195 7.67001 68.8762 8.00985 69.6496 8.00399C70.7863 8.00985 71.4191 7.24813 71.4191 6.4454V5.80673C71.1203 5.8243 70.1183 5.90048 69.8137 5.91805C68.8996 5.97665 68.3195 6.29891 68.3137 6.99618Z" fill="#222222" fill-opacity="0.4"/>
<path d="M74.0564 8.75399V2.39071H75.0642V8.75399H74.0564ZM73.8572 0.668053C73.8513 0.293053 74.1736 -0.00577466 74.5603 8.47145e-05C74.947 -0.00577466 75.2693 0.293053 75.2752 0.668053C75.2693 1.03719 74.947 1.33602 74.5603 1.33602C74.1736 1.33602 73.8513 1.03719 73.8572 0.668053Z" fill="#222222" fill-opacity="0.4"/>
<path d="M77.7015 0.269616V8.75399H76.6937V0.269616H77.7015Z" fill="#222222" fill-opacity="0.4"/>
<path d="M80.0458 8.8243C79.6357 8.81844 79.2841 8.4786 79.2958 8.06258C79.2841 7.65243 79.6357 7.31258 80.0458 7.31258C80.4618 7.31258 80.8017 7.65243 80.7958 8.06258C80.8017 8.4786 80.4618 8.81844 80.0458 8.8243Z" fill="#222222" fill-opacity="0.4"/>
<path d="M85.0034 8.8829C83.1987 8.88876 82.0972 7.5118 82.0972 5.60165C82.0972 3.66805 83.2514 2.30868 84.98 2.30868C86.3335 2.30868 87.353 3.11141 87.5112 4.31258H86.5034C86.3569 3.73251 85.853 3.1993 85.0034 3.1993C83.8667 3.1993 83.1108 4.1368 83.105 5.56649C83.1108 7.03719 83.8491 7.98055 85.0034 7.98055C85.7534 7.98055 86.3276 7.57626 86.5034 6.87899H87.5112C87.353 8.01571 86.4155 8.88876 85.0034 8.8829Z" fill="#222222" fill-opacity="0.4"/>
<path d="M91.379 8.8829C89.6446 8.88876 88.4727 7.57626 88.4727 5.60165C88.4727 3.61532 89.6446 2.30868 91.379 2.30868C93.1075 2.30868 94.2676 3.61532 94.2618 5.60165C94.2676 7.57626 93.1075 8.88876 91.379 8.8829ZM89.4805 5.60165C89.4864 6.87313 90.084 7.99227 91.379 7.99227C92.6622 7.99227 93.254 6.87313 93.254 5.60165C93.254 4.33602 92.6622 3.1993 91.379 3.1993C90.084 3.1993 89.4864 4.33602 89.4805 5.60165Z" fill="#222222" fill-opacity="0.4"/>
<path d="M95.61 8.75399V2.39071H96.5827V3.3868H96.6647C96.9284 2.70712 97.5436 2.30868 98.3756 2.30868C99.2077 2.30868 99.776 2.70712 100.075 3.3868H100.145C100.467 2.73055 101.141 2.30868 102.055 2.30868C103.186 2.30868 104.001 3.00008 104.001 4.50008V8.75399H102.993V4.5118C102.987 3.5743 102.401 3.21102 101.704 3.21102C100.819 3.21102 100.315 3.80868 100.309 4.61727V8.75399H99.2897V4.40633C99.2955 3.69149 98.7799 3.21102 98.0475 3.21102C97.2858 3.21102 96.6178 3.85555 96.6178 4.78133V8.75399H95.61Z" fill="#222222" fill-opacity="0.4"/>
</svg>
