<svg width="27" height="14" viewBox="0 0 27 14" fill="none" xmlns="http://www.w3.org/2000/svg">
<path d="M13.0091 11.3151V12.3699H0V11.3151H5.84932V7.84703H1.53425V1.18265H11.395V7.84703H7.07991V11.3151H13.0091ZM2.76484 2.1895V6.84018H10.1804V2.1895H2.76484Z" fill="#222222" fill-opacity="0.4"/>
<path d="M26.2747 0V7.55936H25.0761V0H26.2747ZM23.5419 0.287671V7.43151H22.3432V4.12329H19.4026V3.13242H22.3432V0.287671H23.5419ZM20.2976 0.83105V1.8379H16.1263V5.81735C18.0601 5.80936 19.3866 5.75342 21.0008 5.43379L21.0807 6.4726C19.3706 6.77626 17.9642 6.84018 15.7747 6.84018H14.8798V0.83105H20.2976ZM26.2747 8.18265V11.4909H18.0921V12.9932H26.8181V14H16.8455V10.516H25.0601V9.1895H16.8136V8.18265H26.2747Z" fill="#222222" fill-opacity="0.4"/>
</svg>
