<svg width="199" height="17" viewBox="0 0 199 17" fill="none" xmlns="http://www.w3.org/2000/svg">
<path d="M7.78588 0.918063V2.71888H2.25985V3.97239H7.3092V5.70258H2.25985V7.02671C5.09349 7.01789 6.88547 6.97375 8.91581 6.6383L9.14532 8.38615C6.85899 8.78339 4.811 8.8187 1.37709 8.80988H0V0.918063H7.78588ZM1.80082 15.8896V10.2046H12.5704V15.8896H1.80082ZM4.02535 14.0887H10.3635V11.9525H4.02535V14.0887ZM10.3106 9.55139V0.0176551H12.5704V9.55139H10.3106Z" fill="black"/>
<path d="M28.708 0V16.0661H26.5541V0H28.708ZM14.9194 6.95609C14.9194 3.36329 16.2876 1.13875 18.4151 1.14758C20.3483 1.13875 21.6724 2.9484 21.9196 5.94976H23.2349V0.229516H25.3535V15.3246H23.2349V7.73292H21.9373C21.7431 10.8843 20.3924 12.7999 18.4151 12.7999C16.2876 12.7999 14.9194 10.5666 14.9194 6.95609ZM17.0027 6.95609C16.985 9.4278 17.5147 10.646 18.4151 10.6283C19.342 10.646 19.8893 9.4278 19.8804 6.95609C19.8893 4.49321 19.342 3.26619 18.4151 3.26619C17.5147 3.26619 16.985 4.49321 17.0027 6.95609Z" fill="black"/>
<path d="M47.3181 0V6.16162H49.5956V8.0154H47.3181V16.0308H45.0583V0H47.3181ZM34.4652 11.5288C38.2699 9.62201 40.3179 7.06202 40.7416 3.47805H35.3833V1.64192H43.0279C43.0103 6.4441 41.1388 10.6019 35.7364 13.259L34.4652 11.5288Z" fill="black"/>
<path d="M63.7558 0V8.63332H61.496V0H63.7558ZM50.5498 4.48439C50.5498 2.22454 52.4389 0.653237 54.9459 0.670892C57.4441 0.653237 59.3332 2.22454 59.3421 4.48439C59.3332 6.67361 57.4441 8.24491 54.9459 8.24491C52.4389 8.24491 50.5498 6.67361 50.5498 4.48439ZM52.7567 4.48439C52.7391 5.6761 53.6571 6.39113 54.9459 6.39113C56.1994 6.39113 57.1087 5.6761 57.1175 4.48439C57.1087 3.27501 56.1994 2.5335 54.9459 2.54233C53.6571 2.5335 52.7391 3.27501 52.7567 4.48439ZM53.0039 15.8896V9.33953H55.2284V10.8402H61.5136V9.33953H63.7558V15.8896H53.0039ZM55.2284 14.0711H61.5136V12.5881H55.2284V14.0711Z" fill="black"/>
<path d="M78.6399 0V6.2852H81.0057V8.13898H78.6399V16.0661H76.4153V0H78.6399ZM65.8753 4.2019V2.40109H69.5122V0.247171H71.7721V2.40109H75.3207V4.2019H65.8753ZM66.5285 8.93346C66.5197 6.69127 68.2675 5.09349 70.6421 5.10231C72.9814 5.09349 74.7381 6.69127 74.7381 8.93346C74.7381 11.1757 72.9814 12.7558 70.6421 12.7646C68.2675 12.7558 66.5197 11.1757 66.5285 8.93346ZM68.6824 8.93346C68.6824 10.1781 69.5034 10.9197 70.6421 10.9108C71.7632 10.9197 72.5842 10.1781 72.5842 8.93346C72.5842 7.69761 71.7632 6.93844 70.6421 6.92078C69.5034 6.93844 68.6824 7.69761 68.6824 8.93346Z" fill="black"/>
<path d="M94.8657 1.39475V2.91309C94.8569 4.92576 94.8569 7.18561 94.2125 10.593L91.9526 10.3635C92.5706 7.32685 92.5971 5.067 92.6059 3.17791H83.1428V1.39475H94.8657ZM81.6244 14.1064V12.2703H86.868V6.74423H89.1102V12.2703H96.2781V14.1064H81.6244Z" fill="black"/>
<path d="M114.941 0V16.1014H112.664V0H114.941ZM101.965 6.85016C101.956 3.34563 103.748 1.12992 106.22 1.12992C108.638 1.12992 110.439 3.34563 110.439 6.85016C110.439 10.3812 108.638 12.5881 106.22 12.5881C103.748 12.5881 101.956 10.3812 101.965 6.85016ZM104.136 6.85016C104.128 9.24242 104.966 10.5489 106.22 10.5401C107.438 10.5489 108.259 9.24242 108.268 6.85016C108.259 4.46673 107.438 3.16026 106.22 3.16026C104.966 3.16026 104.128 4.46673 104.136 6.85016Z" fill="black"/>
<path d="M131.803 7.60933V9.41015H117.149V7.60933H120.45V5.68493C119.276 5.16411 118.614 4.36963 118.614 3.33681C118.614 1.39475 120.901 0.238343 124.476 0.229516C128.024 0.238343 130.311 1.39475 130.32 3.33681C130.311 4.38728 129.631 5.19059 128.431 5.70258V7.60933H131.803ZM118.826 13.1354C118.826 11.2816 120.936 10.2488 124.458 10.2576C127.927 10.2488 130.037 11.2816 130.055 13.1354C130.037 15.0333 127.927 16.0485 124.458 16.0485C120.936 16.0485 118.826 15.0333 118.826 13.1354ZM120.962 3.33681C120.945 4.21956 122.207 4.66976 124.476 4.66094C126.718 4.66976 127.989 4.21956 127.989 3.33681C127.989 2.4364 126.718 1.95971 124.476 1.95971C122.207 1.95971 120.945 2.4364 120.962 3.33681ZM121.121 13.1354C121.113 13.9563 122.234 14.3712 124.458 14.3712C126.639 14.3712 127.786 13.9563 127.795 13.1354C127.786 12.3409 126.639 11.9613 124.458 11.9525C122.234 11.9613 121.113 12.3409 121.121 13.1354ZM122.728 7.60933H126.188V6.25872C125.659 6.32934 125.085 6.35582 124.476 6.35582C123.849 6.35582 123.266 6.32051 122.728 6.25872V7.60933Z" fill="black"/>
<path d="M140.56 2.45405V4.23721H132.792V2.45405H135.582V0.441377H137.806V2.45405H140.56ZM133.163 8.77457C133.163 6.5412 134.664 4.9699 136.712 4.96107C138.768 4.9699 140.234 6.5412 140.243 8.77457C140.234 11.0168 138.768 12.6057 136.712 12.6057C134.664 12.6057 133.163 11.0168 133.163 8.77457ZM135.14 8.77457C135.14 10.0016 135.776 10.699 136.712 10.699C137.612 10.699 138.256 10.0016 138.265 8.77457C138.256 7.56519 137.612 6.83251 136.712 6.83251C135.776 6.83251 135.14 7.56519 135.14 8.77457ZM141.161 15.3776V0.317791H143.262V6.53237H144.568V0H146.704V16.0661H144.568V8.33319H143.262V15.3776H141.161Z" fill="black"/>
<path d="M163.124 8.86284V10.6637H156.875V16.0661H154.65V10.6637H148.471V8.86284H163.124ZM149.195 6.16162C152.443 5.76438 154.244 4.19308 154.482 2.61295H149.795V0.847443H161.818V2.61295H157.131C157.36 4.19308 159.134 5.76438 162.436 6.16162L161.624 7.92712C158.799 7.54754 156.777 6.34699 155.806 4.69625C154.827 6.34699 152.823 7.54754 150.024 7.92712L149.195 6.16162Z" fill="black"/>
<path d="M169.287 4.04301C169.278 6.64713 170.002 9.3307 172.2 10.7343L170.982 12.4821C169.587 11.6435 168.713 10.2488 168.201 8.60684C167.627 10.4253 166.665 11.9525 165.209 12.8352L163.831 11.1757C166.215 9.70146 167.098 6.86782 167.098 4.14894V1.37709H169.287V4.04301ZM170.505 7.25623V5.4201H172.588V0.229516H174.689V15.3246H172.588V7.25623H170.505ZM175.908 16.0661V0H178.061V16.0661H175.908Z" fill="black"/>
<path d="M194.499 12.3409V14.1947H179.793V12.3409H183.076V8.40381C181.832 7.65347 181.081 6.51472 181.081 5.10231C181.081 2.49819 183.624 0.78565 187.119 0.776823C190.597 0.78565 193.166 2.49819 193.175 5.10231C193.166 6.48823 192.442 7.60933 191.233 8.35967V12.3409H194.499ZM183.306 5.10231C183.306 6.67361 184.815 7.64464 187.119 7.64464C189.388 7.64464 190.942 6.67361 190.951 5.10231C190.942 3.48687 189.388 2.55116 187.119 2.55998C184.815 2.55116 183.306 3.48687 183.306 5.10231ZM185.301 12.3409H188.955V9.21594C188.382 9.3307 187.764 9.39249 187.119 9.39249C186.475 9.39249 185.866 9.3307 185.301 9.22477V12.3409Z" fill="black"/>
<path d="M197.537 14.6007C196.707 14.6007 196.036 13.9387 196.054 13.1177C196.036 12.3056 196.707 11.6435 197.537 11.6523C198.322 11.6435 199.002 12.3056 199.002 13.1177C199.002 13.9387 198.322 14.6007 197.537 14.6007Z" fill="black"/>
</svg>
