<svg width="27" height="14" viewBox="0 0 27 14" fill="none" xmlns="http://www.w3.org/2000/svg">
<path d="M13.0091 11.3151V12.3699H0V11.3151H5.84932V7.84703H1.53425V1.18265H11.395V7.84703H7.07991V11.3151H13.0091ZM2.76484 6.84018H10.1804V2.1895H2.76484V6.84018Z" fill="#222222" fill-opacity="0.4"/>
<path d="M26.2747 0V7.55936H25.0761V0H26.2747ZM14.8798 6.84018V0.83105H20.2976V1.8379H16.1263V5.81735C18.0681 5.81735 19.3946 5.75342 21.0008 5.43379L21.0807 6.4726C19.3626 6.78425 17.9642 6.84018 15.7747 6.84018H14.8798ZM16.8136 9.1895V8.18265H26.2747V11.4909H18.0921V12.9932H26.8181V14H16.8455V10.516H25.0601V9.1895H16.8136ZM19.4026 4.12329V3.13242H22.3432V0.287671H23.5419V7.43151H22.3432V4.12329H19.4026Z" fill="#222222" fill-opacity="0.4"/>
</svg>
