<svg width="44" height="11" viewBox="0 0 44 11" fill="none" xmlns="http://www.w3.org/2000/svg">
<path d="M3.65557 2.80926C3.65557 4.6488 4.87213 6.54711 6.35904 7.27587L5.79484 8.01638C4.64292 7.41692 3.67907 6.17685 3.21478 4.7252C2.75049 6.265 1.76313 7.58736 0.587711 8.21621L0 7.47569C1.52805 6.72342 2.73874 4.71932 2.75049 2.80926V0.905076H3.65557V2.80926ZM7.32289 10.4495V0H8.23972V4.24328H9.9911V5.04256H8.23972V10.4495H7.32289Z" fill="black"/>
<path d="M18.9601 1.05788V2.10401C18.9484 3.38522 18.9484 4.81923 18.5722 6.92324L17.6319 6.81745C18.0257 4.81923 18.0257 3.35583 18.0316 2.10401V1.82191H11.5902V1.05788H18.9601ZM10.5794 8.96848V8.20445H14.3172V4.46661H15.2223V8.20445H20.1003V8.96848H10.5794Z" fill="black"/>
<path d="M32.702 0V5.67729H31.7851V3.31469H29.6694V2.53891H31.7851V0H32.702ZM24.0979 5.12484C25.6377 4.56652 26.7543 3.1854 26.7543 1.70436V1.39875H24.3917V0.634728H30.022V1.39875H27.6829V1.70436C27.6829 3.04435 28.729 4.36082 30.2571 4.88976L29.7752 5.60677C28.5997 5.17774 27.6888 4.30205 27.2362 3.23241C26.7896 4.43134 25.8199 5.40107 24.5798 5.85361L24.0979 5.12484ZM25.9785 10.3085V6.18272H26.9071V7.48744H31.7851V6.18272H32.702V10.3085H25.9785ZM26.9071 9.55619H31.7851V8.22796H26.9071V9.55619Z" fill="black"/>
<path d="M39.7198 0.975601C39.7257 2.45076 41.6416 3.72021 43.5282 3.98468L43.152 4.73695C41.53 4.46661 39.9196 3.56741 39.2496 2.2862C38.5796 3.57916 36.9752 4.46661 35.3472 4.73695L34.9711 3.98468C36.8576 3.72021 38.7677 2.47427 38.7677 0.975601V0.376135H39.7198V0.975601ZM34.4774 6.66465V5.88887H43.9983V6.66465H39.6728V10.4495H38.7677V6.66465H34.4774Z" fill="black"/>
</svg>
