<svg xmlns="http://www.w3.org/2000/svg" width="30" height="30" fill="none" viewBox="0 0 30 30"><g clip-path="url(#a)"><path fill="#222" d="M14.375 2.5C8.512 2.5 3.75 7.263 3.75 13.125c0 5.863 4.762 10.625 10.625 10.625H15v3.75c6.075-2.925 10-8.75 10-14.375C25 7.263 20.238 2.5 14.375 2.5Zm1.25 18.125h-2.5v-2.5h2.5v2.5Zm0-4.375h-2.5c0-4.063 3.75-3.75 3.75-6.25 0-1.375-1.125-2.5-2.5-2.5a2.507 2.507 0 0 0-2.5 2.5h-2.5c0-2.763 2.238-5 5-5s5 2.237 5 5c0 3.125-3.75 3.438-3.75 6.25Z"/></g><defs><clipPath id="a"><path fill="#fff" d="M0 0h30v30H0z"/></clipPath></defs></svg>