<svg width="66" height="17" viewBox="0 0 66 17" fill="none" xmlns="http://www.w3.org/2000/svg">
<path d="M6.09068 5.01689C6.09068 7.2965 7.27009 9.86655 9.82255 11.0724L8.57272 12.7623C6.85642 11.9877 5.66821 10.4827 4.99929 8.69595C4.30397 10.6235 3.04534 12.243 1.23222 13.0439L0 11.3012C2.61406 10.1482 3.85509 7.41972 3.87269 5.01689V4.40078H0.5633V2.60526H3.85509V0.352063H6.10829V2.60526H9.36486V4.40078H6.09068V5.01689ZM10.6851 16.0188V0H12.9383V6.2139H15.2971V8.09744H12.9383V16.0188H10.6851Z" fill="black"/>
<path d="M30.7887 2.14758V4.01351H28.6235V5.54499H30.7887V7.39331H28.6235V9.68172H26.3703V0.0176031H28.6235V2.14758H30.7887ZM16.4774 2.72849V0.968172H23.8355V5.73862H18.7306V7.14687C21.371 7.12927 23.1666 7.03245 25.2085 6.67159L25.455 8.46711C23.1578 8.89838 21.0982 8.9776 17.8504 8.9776H16.495V4.04872H21.6527V2.72849H16.4774ZM17.8504 13.0087C17.8504 11.0812 19.954 9.92817 23.3426 9.92817C26.6696 9.92817 28.7732 11.0812 28.782 13.0087C28.7732 14.901 26.6696 16.0012 23.3426 16.0012C19.954 16.0012 17.8504 14.901 17.8504 13.0087ZM20.0684 13.0087C20.0508 13.8801 21.2038 14.3289 23.3426 14.3289C25.455 14.3289 26.564 13.8801 26.564 13.0087C26.564 12.1198 25.455 11.6621 23.3426 11.6709C21.2038 11.6621 20.0508 12.1198 20.0684 13.0087Z" fill="black"/>
<path d="M49.2209 0V9.50569H46.9853V5.72102H44.4856V3.90789H46.9853V0H49.2209ZM35.6137 7.74538C38.2365 6.86522 39.4335 4.77045 39.4864 2.76369H36.265V0.968172H44.9609V2.76369H41.7748C41.8188 4.62962 42.963 6.51316 45.4538 7.3405L44.3448 9.10082C42.5845 8.52872 41.3611 7.36691 40.6658 5.93225C39.9616 7.56054 38.6766 8.87198 36.7755 9.52329L35.6137 7.74538ZM38.2365 12.9559C38.2365 11.0108 40.3313 9.86655 43.7463 9.85775C47.1701 9.86655 49.2649 11.0108 49.2737 12.9559C49.2649 14.901 47.1701 16.0365 43.7463 16.0365C40.3313 16.0365 38.2365 14.901 38.2365 12.9559ZM40.4721 12.9559C40.4721 13.8713 41.6251 14.3289 43.7463 14.3289C45.8763 14.3289 47.0293 13.8713 47.0381 12.9559C47.0293 12.0317 45.8763 11.5741 43.7463 11.5829C41.6251 11.5741 40.4721 12.0317 40.4721 12.9559Z" fill="black"/>
<path d="M65.9975 12.3222V14.1529H51.3341V12.3222H57.5128V9.36486H52.8832V1.02098H55.1364V3.50302H62.1248V1.02098H64.3604V9.36486H59.7484V12.3222H65.9975ZM55.1364 7.56935H62.1248V5.29854H55.1364V7.56935Z" fill="black"/>
</svg>
