<svg width="81" height="15" viewBox="0 0 81 15" fill="none" xmlns="http://www.w3.org/2000/svg">
<path d="M0.110264 12.8661L0.0945162 11.1496L4.189 7.38583C5.252 6.37008 5.8268 5.74016 5.8268 4.83465C5.8268 3.8189 5.06302 3.18898 4.01578 3.19685C2.94491 3.18898 2.24412 3.86614 2.252 4.96063H2.80004e-05C-0.00784602 2.73228 1.6457 1.30709 4.04727 1.30709C6.48822 1.30709 8.11026 2.70079 8.11026 4.67717C8.11026 5.97638 7.48034 7.03937 5.13389 9.16535L3.4016 10.8504V10.9134H8.26774V12.8661H0.110264Z" fill="#222222"/>
<path d="M14.4102 13.0236C11.552 13.0236 9.82756 10.8976 9.82756 7.16535C9.82756 3.44094 11.5677 1.30709 14.4102 1.30709C17.2528 1.30709 18.9929 3.44094 18.9929 7.16535C18.9929 10.9134 17.2606 13.0236 14.4102 13.0236ZM12.2528 7.16535C12.237 9.79528 13.0874 11.0709 14.4102 11.0709C15.7331 11.0709 16.5756 9.79528 16.5677 7.16535C16.5756 4.55906 15.7252 3.25197 14.4102 3.24409C13.0953 3.25197 12.2528 4.55906 12.2528 7.16535Z" fill="#222222"/>
<path d="M20.663 12.8661L20.6472 11.1496L24.7417 7.38583C25.8047 6.37008 26.3795 5.74016 26.3795 4.83465C26.3795 3.8189 25.6157 3.18898 24.5685 3.19685C23.4976 3.18898 22.7968 3.86614 22.8047 4.96063H20.5527C20.5448 2.73228 22.1984 1.30709 24.6 1.30709C27.0409 1.30709 28.663 2.70079 28.663 4.67717C28.663 5.97638 28.033 7.03937 25.6866 9.16535L23.9543 10.8504V10.9134H28.8204V12.8661H20.663Z" fill="#222222"/>
<path d="M34.7582 13.0236C32.2543 13.0236 30.459 11.6457 30.4117 9.65354H32.8054C32.8448 10.5039 33.6716 11.063 34.7739 11.0709C35.9078 11.063 36.7188 10.4331 36.711 9.51181C36.7188 8.58268 35.8921 7.92913 34.5535 7.92126H33.4984V6.17323H34.5535C35.6795 6.17323 36.4669 5.55906 36.459 4.66142C36.4669 3.7874 35.7976 3.18898 34.7897 3.19685C33.7818 3.18898 32.9551 3.75591 32.9157 4.62992H30.648C30.6873 2.66929 32.4511 1.30709 34.7897 1.30709C37.1676 1.30709 38.7503 2.71654 38.7425 4.51969C38.7503 5.79528 37.8606 6.70079 36.585 6.92913V7.02362C38.2621 7.22835 39.1834 8.24409 39.1676 9.66929C39.1834 11.622 37.333 13.0236 34.7582 13.0236Z" fill="#222222"/>
<path d="M52.4755 0V10.5354H50.4755V5.84252H46.9164V4.26772H50.4755V3.16535H46.9164V1.59055H50.4755V0H52.4755ZM41.1999 8.67717V0.897638H43.1842V7.02362C44.9322 7 46.5857 6.88976 48.3653 6.56693L48.57 8.18898C46.4204 8.59843 44.4912 8.66929 42.3495 8.67717H41.1999ZM42.9479 14.063V9.59055H44.9637V12.4567H52.8219V14.063H42.9479Z" fill="#222222"/>
<path d="M62.8707 13.0236C60.2644 13.0236 58.3983 11.6535 58.3983 9.79528C58.3983 8.3622 59.5006 7.19685 60.9179 6.97638V6.89764C59.6817 6.66142 58.8313 5.62992 58.8392 4.37795C58.8313 2.6063 60.54 1.30709 62.8707 1.30709C65.2014 1.30709 66.9101 2.6063 66.918 4.37795C66.9101 5.62992 66.0361 6.66142 64.8392 6.89764V6.97638C66.225 7.19685 67.3432 8.3622 67.3432 9.79528C67.3432 11.6535 65.4691 13.0236 62.8707 13.0236ZM60.8707 9.55906C60.8628 10.5354 61.666 11.2205 62.8707 11.2126C64.0754 11.2205 64.8786 10.5354 64.8707 9.55906C64.8786 8.5748 64.0282 7.85039 62.8707 7.84252C61.7132 7.85039 60.8628 8.56693 60.8707 9.55906ZM61.1542 4.61417C61.1463 5.52756 61.8628 6.16535 62.8707 6.17323C63.8707 6.16535 64.5951 5.52756 64.603 4.61417C64.5951 3.72441 63.8865 3.10236 62.8707 3.10236C61.8471 3.10236 61.1463 3.72441 61.1542 4.61417Z" fill="#222222"/>
<path d="M80.6667 0V8.29921H78.651V7.84252H76.0526V6.62992H78.651V0H80.6667ZM68.525 5.03937C71.2967 5.04724 74.7297 5.0315 77.8006 4.74016L77.8951 5.98425C76.6274 6.14961 75.3282 6.25984 74.0526 6.33071V8.33071H72.0683V6.40157C70.8951 6.43307 69.7691 6.43307 68.7297 6.4252L68.525 5.03937ZM69.5014 2.34646C69.5014 1.05512 70.9502 0.19685 73.1392 0.188976C75.273 0.19685 76.7376 1.05512 76.7455 2.34646C76.7376 3.67717 75.273 4.49606 73.1392 4.48819C70.9502 4.49606 69.5014 3.67717 69.5014 2.34646ZM70.5723 10.0787V8.72441H80.6667V12.0787H72.6037V12.8189H80.9974V14.2205H70.6352V10.7874H78.6667V10.0787H70.5723ZM71.4069 2.34646C71.3911 2.87402 72.0526 3.17323 73.1392 3.1811C74.1943 3.17323 74.8636 2.87402 74.8715 2.34646C74.8636 1.8189 74.1943 1.50394 73.1392 1.51181C72.0526 1.50394 71.3911 1.8189 71.4069 2.34646Z" fill="#222222"/>
</svg>
