<svg width="168" height="15" viewBox="0 0 168 15" fill="none" xmlns="http://www.w3.org/2000/svg">
<path d="M6.36334 9.8671C9.42717 9.8671 11.1555 10.6056 11.1712 12.0196C11.1555 13.4023 9.42717 14.125 6.36334 14.125C3.26809 14.125 1.53977 13.4023 1.53977 12.0196C1.53977 10.6056 3.26809 9.8671 6.36334 9.8671ZM6.36334 10.7941C4.08511 10.7941 2.79673 11.234 2.79673 12.0196C2.79673 12.7895 4.08511 13.2137 6.36334 13.198C8.62586 13.2137 9.91424 12.7895 9.91424 12.0196C9.91424 11.234 8.62586 10.7941 6.36334 10.7941ZM11.9882 1.36694V2.35679H0.659902V1.36694H5.75057V0H6.9761V1.36694H11.9882ZM6.36334 2.92242C9.25434 2.92242 10.8884 3.61375 10.8884 4.93355C10.8884 6.12766 9.48216 6.81113 6.9761 6.89755V7.99738H12.7267V8.98723H0V7.99738H5.75057V6.89755C3.23666 6.81113 1.82259 6.12766 1.82259 4.93355C1.82259 3.61375 3.47234 2.92242 6.36334 2.92242ZM6.36334 3.80229C4.30507 3.80229 3.12668 4.19509 3.14239 4.93355C3.12668 5.62488 4.30507 6.03339 6.36334 6.03339C8.40589 6.03339 9.58429 5.62488 9.58429 4.93355C9.58429 4.19509 8.40589 3.80229 6.36334 3.80229Z" fill="white"/>
<path d="M25.4698 0.188543V7.33748H24.2443V0.188543H25.4698ZM21.2904 0.879869C21.2904 4.44648 18.7608 6.67758 14.6286 7.63601L14.1729 6.59902C17.6688 5.82128 19.7192 4.14795 19.9392 1.90115H14.88V0.879869H21.2904ZM25.4698 7.99738V11.3755H17.6453V13.0409H25.9726V14.0308H16.4197V10.4327H24.2443V8.98723H16.3883V7.99738H25.4698Z" fill="white"/>
<path d="M40.6169 7.1018V8.09165H27.8745V7.1018H33.6408V5.46776H29.4928V0.848445H39.03V1.8383H30.7027V4.46219H39.1243V5.46776H34.8349V7.1018H40.6169ZM34.2378 9.11293C37.2388 9.11293 39.03 10.0242 39.0457 11.6268C39.03 13.2452 37.2388 14.1408 34.2378 14.1565C31.2211 14.1408 29.4143 13.2452 29.4143 11.6268C29.4143 10.0242 31.2211 9.11293 34.2378 9.11293ZM34.2378 10.0871C31.991 10.0871 30.6555 10.6684 30.6712 11.6268C30.6555 12.601 31.991 13.1666 34.2378 13.1666C36.4532 13.1666 37.8045 12.601 37.8045 11.6268C37.8045 10.6684 36.4532 10.0871 34.2378 10.0871Z" fill="white"/>
<path d="M53.3286 0.188543V8.12308H52.1188V0.188543H53.3286ZM43.9329 1.02128V6.00196C46.2425 5.99411 48.3165 5.83699 50.5319 5.35777L50.7204 6.39476C48.3636 6.86612 46.2425 7.03895 43.8229 7.05466H42.6916V1.02128H43.9329ZM53.3286 8.76727V13.9679H44.2628V8.76727H53.3286ZM45.4726 9.75712V12.9624H52.1188V9.75712H45.4726Z" fill="white"/>
<path d="M67.2659 0.188543V14.1879H66.0246V0.188543H67.2659ZM59.8341 1.27267C61.9081 1.28838 63.4007 3.17381 63.4007 6.14337C63.4007 9.11293 61.9081 10.9984 59.8341 10.9984C57.7444 10.9984 56.2675 9.11293 56.2675 6.14337C56.2675 3.17381 57.7444 1.28838 59.8341 1.27267ZM59.8341 2.3725C58.4357 2.38822 57.4616 3.86514 57.4616 6.14337C57.4616 8.4216 58.4357 9.89853 59.8341 9.89853C61.2325 9.89853 62.2066 8.4216 62.2066 6.14337C62.2066 3.86514 61.2325 2.38822 59.8341 2.3725Z" fill="white"/>
<path d="M78.4386 3.9437C78.4386 6.41047 80.0726 8.9401 82.0523 9.91424L81.2981 10.9041C79.7584 10.0949 78.47 8.44517 77.8572 6.50475C77.2287 8.57087 75.9089 10.3306 74.3378 11.1712L73.5522 10.1813C75.5947 9.17578 77.213 6.48903 77.2287 3.9437V1.39836H78.4386V3.9437ZM84.5662 0.188543V5.86056H86.9073V6.92897H84.5662V14.1565H83.3407V0.188543H84.5662Z" fill="white"/>
<path d="M100.42 7.1018V8.12308H87.6937V7.1018H90.8518V5.13781C89.7362 4.70573 89.1077 3.99083 89.1077 3.04812C89.1077 1.39836 90.9932 0.455646 94.057 0.455646C97.0894 0.455646 98.9905 1.39836 98.9905 3.04812C98.9905 3.98298 98.3699 4.69787 97.2622 5.12209V7.1018H100.42ZM94.057 9.19149C97.058 9.19149 98.8491 10.0556 98.8649 11.6583C98.8491 13.2452 97.058 14.125 94.057 14.125C91.0246 14.125 89.2334 13.2452 89.2334 11.6583C89.2334 10.0556 91.0246 9.19149 94.057 9.19149ZM94.057 10.1342C91.8102 10.1499 90.4747 10.6998 90.4904 11.6583C90.4747 12.601 91.8102 13.1666 94.057 13.1666C96.2724 13.1666 97.6236 12.601 97.6236 11.6583C97.6236 10.6998 96.2724 10.1499 94.057 10.1342ZM94.057 1.42979C91.7788 1.42979 90.3647 2.04255 90.3804 3.04812C90.3647 4.06939 91.7788 4.66645 94.057 4.66645C96.3195 4.66645 97.7336 4.06939 97.7336 3.04812C97.7336 2.04255 96.3195 1.42979 94.057 1.42979ZM92.0773 7.1018H96.0367V5.46776C95.4475 5.56989 94.7876 5.62488 94.057 5.62488C93.3264 5.62488 92.6665 5.56989 92.0773 5.46776V7.1018Z" fill="white"/>
<path d="M118.428 6.72471V7.74599H112.661V9.23863C115.301 9.34861 116.857 10.2128 116.872 11.6897C116.857 13.2452 115.065 14.125 112.064 14.125C109.032 14.125 107.241 13.2452 107.241 11.6897C107.241 10.2128 108.788 9.34861 111.452 9.23863V7.74599H105.701V6.72471H118.428ZM112.064 10.1813C109.818 10.1971 108.482 10.747 108.498 11.6897C108.482 12.6167 109.818 13.1666 112.064 13.1666C114.28 13.1666 115.631 12.6167 115.631 11.6897C115.631 10.747 114.28 10.1971 112.064 10.1813ZM117.296 0.848445V1.85401H112.866C112.944 3.4252 115.254 4.64288 117.721 4.90213L117.265 5.87627C114.979 5.60131 112.834 4.58003 112.064 3.01669C111.302 4.58003 109.166 5.60131 106.864 5.87627L106.424 4.90213C108.843 4.64288 111.169 3.4252 111.263 1.85401H106.864V0.848445H117.296Z" fill="white"/>
<path d="M135.241 0.188543V7.68314H134.015V0.188543H135.241ZM127.416 8.39018V10.0871H134.015V8.39018H135.241V13.9679H126.191V8.39018H127.416ZM127.416 12.9624H134.015V11.0769H127.416V12.9624ZM127.699 0.879869C129.82 0.864157 131.36 2.16825 131.36 4.08511C131.36 5.98625 129.82 7.29034 127.699 7.29034C125.578 7.29034 124.038 5.98625 124.038 4.08511C124.038 2.16825 125.578 0.864157 127.699 0.879869ZM127.699 1.91686C126.27 1.90115 125.233 2.81244 125.248 4.08511C125.233 5.35777 126.27 6.26907 127.699 6.26907C129.113 6.26907 130.15 5.35777 130.15 4.08511C130.15 2.81244 129.113 1.90115 127.699 1.91686Z" fill="white"/>
<path d="M149.163 0.188543V14.1565H147.937V0.188543H149.163ZM139.767 1.57119V9.49002C141.896 9.48216 144.103 9.30933 146.444 8.8144L146.617 9.8671C144.135 10.3856 141.919 10.5584 139.688 10.5584H138.557V1.57119H139.767Z" fill="white"/>
<path d="M162.393 0.188543V5.71915H164.734V6.75614H162.393V14.1879H161.167V0.188543H162.393ZM158.716 1.55548V2.57676H153.421V9.64714C155.951 9.64714 157.742 9.5293 159.816 9.14435L159.973 10.2128C157.789 10.6056 155.951 10.6841 153.296 10.6841H152.196V1.55548H158.716Z" fill="white"/>
<path d="M166.997 12.9781C166.447 12.9781 165.976 12.5224 165.992 11.9568C165.976 11.4069 166.447 10.9512 166.997 10.9512C167.547 10.9512 168.003 11.4069 168.003 11.9568C168.003 12.5224 167.547 12.9781 166.997 12.9781Z" fill="white"/>
</svg>
