<svg width="27" height="14" viewBox="0 0 27 14" fill="none" xmlns="http://www.w3.org/2000/svg">
<path d="M11.5715 0V10.5151H10.3071V6.67398H6.62599C5.9698 7.51423 4.91349 8.01838 3.69713 8.01838C1.5685 8.01838 -0.00797204 6.54594 3.03287e-05 4.46532C-0.00797204 2.3767 1.5685 0.904268 3.69713 0.896266C4.90548 0.904268 5.94579 1.40041 6.60999 2.22466H10.3071V0H11.5715ZM1.20039 4.46532C1.20039 5.88975 2.24069 6.90605 3.69713 6.89804C5.09754 6.90605 6.16186 5.88975 6.16186 4.46532C6.16186 3.0489 5.09754 2.0246 3.69713 2.0166C2.24069 2.0246 1.20039 3.0489 1.20039 4.46532ZM2.43275 13.9081V9.41079H3.69713V12.8518H11.9716V13.9081H2.43275ZM7.17816 3.26497C7.3062 3.63308 7.37822 4.0332 7.37822 4.46532C7.37822 4.88145 7.3062 5.27356 7.18616 5.63367H10.3071V3.26497H7.17816Z" fill="#222222" fill-opacity="0.4"/>
<path d="M27.0008 11.3954V12.4517H13.9729V11.3954H17.638V8.69057H15.6054V4.30528H24.1199V2.08062H15.5734V1.04031H25.3523V5.34558H16.8538V7.65027H25.6884V8.69057H23.4638V11.3954H27.0008ZM18.8704 11.3954H22.2314V8.69057H18.8704V11.3954Z" fill="#222222" fill-opacity="0.4"/>
</svg>
