<svg width="30" height="16" viewBox="0 0 30 16" fill="none" xmlns="http://www.w3.org/2000/svg">
<path d="M14.6426 12.2871V14.1328H0V12.2871H6.16992V9.01758H1.54688V1.17773H13.0078V9.01758H8.40234V12.2871H14.6426ZM3.76172 2.9707V7.25977H10.793V2.9707H3.76172Z" fill="#222222"/>
<path d="M28.9344 0V9.28125H26.702V0H28.9344ZM18.7567 1.00195V6.52148C20.954 6.49512 23.1161 6.31934 25.4012 5.83594L25.6649 7.64648C23.0106 8.20898 20.4794 8.38477 17.8954 8.36719H16.5067V1.00195H18.7567ZM23.5028 9.47461C26.8778 9.47461 29.0047 10.6875 29.0047 12.7617C29.0047 14.7832 26.8778 15.9961 23.5028 15.9961C20.1102 15.9961 17.9657 14.7832 17.9833 12.7617C17.9657 10.6875 20.1102 9.47461 23.5028 9.47461ZM23.5028 11.2852C21.3758 11.2852 20.2157 11.7598 20.2157 12.7617C20.2157 13.7109 21.3758 14.2207 23.5028 14.2207C25.6122 14.2207 26.7372 13.7109 26.7547 12.7617C26.7372 11.7598 25.6122 11.2852 23.5028 11.2852Z" fill="#222222"/>
</svg>
