<svg width="250" height="29" viewBox="0 0 250 29" fill="none" xmlns="http://www.w3.org/2000/svg">
<path d="M4.74609 7.35938C7.03125 7.35352 8.32031 7.91016 8.33203 8.96484C8.32031 9.99609 7.03125 10.5352 4.74609 10.5352C2.4375 10.5352 1.14258 9.99609 1.14844 8.96484C1.14258 7.91016 2.4375 7.35352 4.74609 7.35938ZM0 6.70312V5.96484H4.28906V5.15039C2.41406 5.08008 1.35938 4.57617 1.35938 3.67969C1.35938 2.68945 2.58398 2.18555 4.74609 2.17969C6.90234 2.18555 8.12109 2.68945 8.12109 3.67969C8.12109 4.57617 7.07227 5.08008 5.20312 5.15039V5.96484H9.49219V6.70312H0ZM0.492188 1.75781V1.01953H4.28906V0H5.20312V1.01953H8.94141V1.75781H0.492188ZM2.08594 8.96484C2.0918 9.5332 3.05273 9.84961 4.74609 9.84375C6.43359 9.84961 7.39453 9.5332 7.39453 8.96484C7.39453 8.37305 6.43359 8.05078 4.74609 8.05078C3.05273 8.05078 2.0918 8.37305 2.08594 8.96484ZM2.34375 3.67969C2.33789 4.19531 3.2168 4.49414 4.74609 4.5C6.27539 4.49414 7.14258 4.19531 7.14844 3.67969C7.14258 3.12891 6.27539 2.83008 4.74609 2.83594C3.2168 2.83008 2.33789 3.12891 2.34375 3.67969Z" fill="#222222"/>
<path d="M18.9967 0.140625V5.47266H18.0826V0.140625H18.9967ZM10.5709 4.92188C13.1842 4.3418 14.7076 3.09375 14.8717 1.41797H11.0982V0.65625H15.8795C15.8736 3.31641 13.9928 4.97461 10.9107 5.69531L10.5709 4.92188ZM12.2232 6.70312V5.96484H18.9967V8.48438H13.1607V9.72656H19.3717V10.4648H12.2467V7.78125H18.0826V6.70312H12.2232Z" fill="#222222"/>
<path d="M30.2941 5.29688V6.03516H20.7902V5.29688H25.091V4.07812H21.9972V0.632812H29.1105V1.37109H22.8996V3.32812H29.1808V4.07812H25.9816V5.29688H30.2941ZM21.9386 8.67188C21.9328 7.48242 23.2863 6.80273 25.5363 6.79688C27.7687 6.80273 29.1105 7.48242 29.1222 8.67188C29.1105 9.87305 27.7687 10.5469 25.5363 10.5586C23.2863 10.5469 21.9328 9.87305 21.9386 8.67188ZM22.8761 8.67188C22.8644 9.4043 23.8664 9.82617 25.5363 9.82031C27.1886 9.82617 28.1906 9.4043 28.1964 8.67188C28.1906 7.95117 27.1886 7.52344 25.5363 7.52344C23.8664 7.52344 22.8644 7.95117 22.8761 8.67188Z" fill="#222222"/>
<path d="M4.01567 25.8438C1.63286 25.8438 -0.00776773 24.5234 4.47698e-05 22.6875C-0.00776773 21.2266 1.00786 20.0156 2.29692 19.8125V19.75C1.17192 19.4922 0.429732 18.4531 0.437545 17.2188C0.429732 15.4922 1.94536 14.2188 4.01567 14.2188C6.07817 14.2188 7.59379 15.4922 7.60942 17.2188C7.59379 18.4531 6.84379 19.4922 5.73442 19.75V19.8125C7.01567 20.0156 8.03129 21.2266 8.04692 22.6875C8.03129 24.5234 6.37504 25.8438 4.01567 25.8438ZM1.40629 22.6094C1.38286 23.7969 2.39067 24.6016 4.01567 24.6094C5.63286 24.6016 6.64067 23.7969 6.64067 22.6094C6.64067 21.3594 5.53911 20.4375 4.01567 20.4375C2.50004 20.4375 1.38286 21.3594 1.40629 22.6094ZM1.79692 17.3281C1.80473 18.4688 2.71879 19.2422 4.01567 19.25C5.30473 19.2422 6.23442 18.4688 6.23442 17.3281C6.23442 16.1953 5.33598 15.4297 4.01567 15.4375C2.67192 15.4297 1.80473 16.1953 1.79692 17.3281Z" fill="#222222"/>
<path d="M14.0164 13.8438L10.3602 27.3906H9.14142L12.782 13.8438H14.0164Z" fill="#222222"/>
<path d="M19.3453 14.375V25.6875H17.9234V15.8438H17.8609L15.1109 17.6719V16.25L17.9234 14.375H19.3453Z" fill="#222222"/>
<path d="M26.3304 25.8438C24.3695 25.8203 22.2054 24.6562 22.2054 20.4688C22.2054 16.4609 23.846 14.2188 26.5023 14.2188C28.4945 14.2188 29.8851 15.4453 30.1742 17.2188H28.7835C28.5257 16.2188 27.7601 15.4688 26.5023 15.4688C24.6429 15.4688 23.5257 17.0547 23.5335 19.7812H23.6742C24.3226 18.8359 25.3617 18.2812 26.5804 18.2812C28.5882 18.2812 30.2679 19.8438 30.2679 22.0312C30.2679 24.1641 28.7132 25.8672 26.3304 25.8438ZM23.721 22.0625C23.7289 23.3906 24.8148 24.6016 26.3304 24.6094C27.7914 24.6016 28.9007 23.4531 28.9085 22.0469C28.9007 20.6562 27.8382 19.5234 26.3617 19.5156C24.8773 19.5234 23.7367 20.7266 23.721 22.0625Z" fill="#222222"/>
<path d="M36.6444 21.375C36.66 18.4297 37.4569 15.9766 38.8944 13.8906H40.0819C39.0272 15.4297 38.0429 18.5938 38.035 21.375C38.0429 24.1641 39.0272 27.3203 40.0819 28.875H38.8944C37.4569 26.7812 36.66 24.3281 36.6444 21.375Z" fill="#222222"/>
<path d="M48.2389 14.3594C48.2467 16.3203 50.7936 18.0078 53.3014 18.3594L52.8014 19.3594C50.6452 19 48.5045 17.8047 47.6139 16.1016C46.7233 17.8203 44.5905 19 42.4264 19.3594L41.9264 18.3594C44.4342 18.0078 46.9733 16.3516 46.9733 14.3594V13.5625H48.2389V14.3594ZM41.2702 21.9219V20.8906H53.9264V21.9219H48.1764V26.9531H46.9733V21.9219H41.2702Z" fill="#222222"/>
<path d="M58.599 21.375C58.5834 24.3281 57.7865 26.7812 56.349 28.875H55.1615C56.2162 27.3203 57.2006 24.1641 57.2084 21.375C57.2006 18.5938 56.2162 15.4297 55.1615 13.8906H56.349C57.7865 15.9766 58.5834 18.4297 58.599 21.375Z" fill="#222222"/>
<path d="M69.163 14.375V25.6875H67.7412V15.8438H67.6787L64.9287 17.6719V16.25L67.7412 14.375H69.163Z" fill="#222222"/>
<path d="M75.8982 25.8438C73.8591 25.8438 72.3122 24.5859 72.2263 22.8438H73.5857C73.6872 23.8516 74.6716 24.6016 75.8982 24.6094C77.3669 24.6016 78.4294 23.5312 78.4294 22.1094C78.4294 20.6406 77.3279 19.5547 75.8044 19.5469C74.8513 19.5312 74.1091 19.8281 73.695 20.5625H72.3357L73.1325 14.375H79.2575V15.625H74.3044L73.8825 18.9375H73.9919C74.4997 18.5469 75.2575 18.2812 76.0544 18.2812C78.2107 18.2812 79.7966 19.875 79.8044 22.0781C79.7966 24.2656 78.156 25.8438 75.8982 25.8438Z" fill="#222222"/>
<path d="M82.7583 25.7812C82.2114 25.7734 81.7427 25.3203 81.7583 24.7656C81.7427 24.2188 82.2114 23.7656 82.7583 23.7656C83.313 23.7656 83.7661 24.2188 83.7583 24.7656C83.7661 25.3203 83.313 25.7734 82.7583 25.7812ZM81.7583 18.4844C81.7427 17.9375 82.2114 17.4844 82.7583 17.4844C83.313 17.4844 83.7661 17.9375 83.7583 18.4844C83.7661 19.0391 83.313 19.4922 82.7583 19.5C82.2114 19.4922 81.7427 19.0391 81.7583 18.4844Z" fill="#222222"/>
<path d="M85.884 25.6875L85.8684 24.6562L89.7278 20.5938C91.0637 19.1719 91.7044 18.4062 91.7122 17.3594C91.7044 16.1953 90.7356 15.4453 89.4622 15.4375C88.1106 15.4453 87.2669 16.2969 87.259 17.5625H85.9309C85.9153 15.5625 87.4622 14.2188 89.509 14.2188C91.5637 14.2188 93.0169 15.6016 93.0247 17.3594C93.0169 18.625 92.4309 19.6094 90.4309 21.6719L87.8372 24.3438V24.4375H93.2278V25.6875H85.884Z" fill="#222222"/>
<path d="M99.0098 25.8438C96.502 25.8438 95.0489 23.7344 95.0567 20.0312C95.0489 16.3594 96.5176 14.2188 99.0098 14.2188C101.494 14.2188 102.963 16.3594 102.963 20.0312C102.963 23.7344 101.518 25.8438 99.0098 25.8438ZM96.416 20.0312C96.4239 22.9609 97.3692 24.5938 99.0098 24.5938C100.643 24.5938 101.596 22.9609 101.588 20.0312C101.596 17.1016 100.635 15.4453 99.0098 15.4375C97.3848 15.4453 96.4239 17.1016 96.416 20.0312Z" fill="#222222"/>
<path d="M109.371 21.0469C109.878 20.4609 110.496 20.1641 111.183 20.1562C112.371 20.1641 113.449 21.0547 114.589 21.0625C115.293 21.0547 115.902 20.7266 116.371 20.0781V21.375C115.855 21.9609 115.246 22.2656 114.558 22.2656C113.371 22.2656 112.285 21.3672 111.136 21.3594C110.449 21.3672 109.847 21.6953 109.371 22.3438V21.0469Z" fill="#222222"/>
<path d="M126.81 25.8438C124.427 25.8438 122.786 24.5234 122.794 22.6875C122.786 21.2266 123.802 20.0156 125.091 19.8125V19.75C123.966 19.4922 123.224 18.4531 123.232 17.2188C123.224 15.4922 124.739 14.2188 126.81 14.2188C128.872 14.2188 130.388 15.4922 130.403 17.2188C130.388 18.4531 129.638 19.4922 128.528 19.75V19.8125C129.81 20.0156 130.825 21.2266 130.841 22.6875C130.825 24.5234 129.169 25.8438 126.81 25.8438ZM124.2 22.6094C124.177 23.7969 125.185 24.6016 126.81 24.6094C128.427 24.6016 129.435 23.7969 129.435 22.6094C129.435 21.3594 128.333 20.4375 126.81 20.4375C125.294 20.4375 124.177 21.3594 124.2 22.6094ZM124.591 17.3281C124.599 18.4688 125.513 19.2422 126.81 19.25C128.099 19.2422 129.028 18.4688 129.028 17.3281C129.028 16.1953 128.13 15.4297 126.81 15.4375C125.466 15.4297 124.599 16.1953 124.591 17.3281Z" fill="#222222"/>
<path d="M136.81 13.8438L133.154 27.3906H131.935L135.576 13.8438H136.81Z" fill="#222222"/>
<path d="M142.139 14.375V25.6875H140.717V15.8438H140.655L137.905 17.6719V16.25L140.717 14.375H142.139Z" fill="#222222"/>
<path d="M145.546 25.6875L150.734 15.7031V15.625H144.749V14.375H152.187V15.6875L147.015 25.6875H145.546Z" fill="#222222"/>
<path d="M154.406 21.375C154.422 18.4297 155.219 15.9766 156.656 13.8906H157.844C156.789 15.4297 155.805 18.5938 155.797 21.375C155.805 24.1641 156.789 27.3203 157.844 28.875H156.656C155.219 26.7812 154.422 24.3281 154.406 21.375Z" fill="#222222"/>
<path d="M170.079 13.6562V18.3438H165.97V20.125H171.688V21.125H159.032V20.125H164.751V18.3438H160.673V13.6562H170.079ZM160.438 23.5625V22.5781H170.126V26.9531H168.892V23.5625H160.438ZM161.876 17.3594H168.86V14.6406H161.876V17.3594Z" fill="#222222"/>
<path d="M176.361 21.375C176.345 24.3281 175.549 26.7812 174.111 28.875H172.924C173.978 27.3203 174.963 24.1641 174.97 21.375C174.963 18.5938 173.978 15.4297 172.924 13.8906H174.111C175.549 15.9766 176.345 18.4297 176.361 21.375Z" fill="#222222"/>
<path d="M186.925 14.375V25.6875H185.503V15.8438H185.441L182.691 17.6719V16.25L185.503 14.375H186.925Z" fill="#222222"/>
<path d="M189.691 23.375V22.2188L194.785 14.375H196.52V22.1406H198.098V23.375H196.52V25.6875H195.176V23.375H189.691ZM191.207 22.1406H195.176V16.1562H195.035L191.207 22.0469V22.1406Z" fill="#222222"/>
<path d="M200.958 25.7812C200.411 25.7734 199.942 25.3203 199.958 24.7656C199.942 24.2188 200.411 23.7656 200.958 23.7656C201.512 23.7656 201.966 24.2188 201.958 24.7656C201.966 25.3203 201.512 25.7734 200.958 25.7812ZM199.958 18.4844C199.942 17.9375 200.411 17.4844 200.958 17.4844C201.512 17.4844 201.966 17.9375 201.958 18.4844C201.966 19.0391 201.512 19.4922 200.958 19.5C200.411 19.4922 199.942 19.0391 199.958 18.4844Z" fill="#222222"/>
<path d="M207.787 25.8438C205.279 25.8438 203.826 23.7344 203.834 20.0312C203.826 16.3594 205.294 14.2188 207.787 14.2188C210.271 14.2188 211.74 16.3594 211.74 20.0312C211.74 23.7344 210.294 25.8438 207.787 25.8438ZM205.193 20.0312C205.201 22.9609 206.146 24.5938 207.787 24.5938C209.419 24.5938 210.373 22.9609 210.365 20.0312C210.373 17.1016 209.412 15.4453 207.787 15.4375C206.162 15.4453 205.201 17.1016 205.193 20.0312Z" fill="#222222"/>
<path d="M217.35 25.8438C214.842 25.8438 213.389 23.7344 213.397 20.0312C213.389 16.3594 214.858 14.2188 217.35 14.2188C219.834 14.2188 221.303 16.3594 221.303 20.0312C221.303 23.7344 219.858 25.8438 217.35 25.8438ZM214.756 20.0312C214.764 22.9609 215.709 24.5938 217.35 24.5938C218.983 24.5938 219.936 22.9609 219.928 20.0312C219.936 17.1016 218.975 15.4453 217.35 15.4375C215.725 15.4453 214.764 17.1016 214.756 20.0312Z" fill="#222222"/>
</svg>
