<svg width="26" height="15" viewBox="0 0 26 15" fill="none" xmlns="http://www.w3.org/2000/svg">
<path d="M11.9891 0.0157959V8.29283H9.98299V6.887H6.74484V5.27582H9.98299V3.90158H6.8949C5.99453 6.17618 3.94897 7.74787 0.789793 8.60875L0 7.01337C3.30134 6.15249 4.92831 4.56501 5.21264 2.59052H0.773998V0.979344H7.40826C7.40826 1.44532 7.37667 1.8955 7.30559 2.32199H9.98299V0.0157959H11.9891ZM2.2904 11.373C2.2825 9.59599 4.24909 8.47448 7.20292 8.46659C10.1173 8.47448 12.0917 9.59599 12.0996 11.373C12.0917 13.1738 10.1173 14.3111 7.20292 14.3111C4.24909 14.3111 2.2825 13.1738 2.2904 11.373ZM4.29648 11.373C4.29648 12.2655 5.37849 12.7157 7.20292 12.7157C8.98785 12.7157 10.0699 12.2655 10.0778 11.373C10.0699 10.4885 8.98785 10.0304 7.20292 10.0462C5.37849 10.0304 4.29648 10.4885 4.29648 11.373Z" fill="#222222"/>
<path d="M22.1782 0.805589V2.40097H19.3191C19.327 4.09113 20.3537 5.83657 22.6204 6.58688L21.6253 8.13487C20.0378 7.6373 18.94 6.59478 18.3161 5.30741C17.6763 6.73694 16.5311 7.89004 14.8331 8.43499L13.8063 6.83961C16.1757 6.08931 17.2498 4.18591 17.2656 2.40097H14.375V0.805589H22.1782ZM16.1283 10.8044V9.1932H26.0008V14.3742H23.9947V10.8044H16.1283ZM21.7675 5.10207V3.4593H23.9947V0H26.0008V8.56136H23.9947V5.10207H21.7675Z" fill="#222222"/>
</svg>
