<svg width="27" height="14" viewBox="0 0 27 14" fill="none" xmlns="http://www.w3.org/2000/svg">
<path d="M4.7874 4.56693C4.7874 6.80315 6.25197 9.10236 8.28346 10.0787L7.55906 11.0394C6.01575 10.2835 4.79528 8.75591 4.22047 6.94488C3.6063 8.88976 2.30709 10.5197 0.708661 11.2913L0 10.3307C2.04724 9.37008 3.5748 6.97638 3.59055 4.56693V3.44882H0.377953V2.44094H3.5748V0.267717H4.8189V2.44094H7.9685V3.44882H4.7874V4.56693ZM10.9606 0V5.74803H13.3071V6.80315H10.9606V14H9.73228V0H10.9606Z" fill="#222222" fill-opacity="0.4"/>
<path d="M21.0716 4.97638V6.97638H26.8511V8H14.0952V6.97638H19.859V4.97638H21.0716ZM20.4732 9.14961C23.4811 9.14961 25.2763 10 25.2921 11.5591C25.2763 13.1181 23.4811 13.9685 20.4732 13.9685C17.4338 13.9685 15.6386 13.1181 15.6386 11.5591C15.6386 10 17.4338 9.14961 20.4732 9.14961ZM20.4732 10.126C18.2055 10.126 16.8826 10.6457 16.8984 11.5591C16.8826 12.4724 18.2055 13.0079 20.4732 13.0079C22.7094 13.0079 24.048 12.4724 24.048 11.5591C24.048 10.6457 22.7094 10.126 20.4732 10.126ZM25.7173 0.661417V1.66929H21.2763C21.3551 3.22835 23.7015 4.43307 26.1425 4.69291L25.6858 5.66929C23.3945 5.3937 21.2448 4.3937 20.4732 2.83465C19.7094 4.3937 17.5677 5.3937 15.2606 5.66929L14.8039 4.69291C17.2448 4.43307 19.5756 3.24409 19.67 1.66929H15.2606V0.661417H25.7173Z" fill="#222222" fill-opacity="0.4"/>
</svg>
