<svg width="83" height="15" viewBox="0 0 83 15" fill="none" xmlns="http://www.w3.org/2000/svg">
<path d="M11.6134 0V14.4101H9.57513V0H11.6134ZM2.90598e-05 6.13059C-0.00787119 2.99419 1.59588 1.01123 3.80795 1.01123C5.97262 1.01123 7.58427 2.99419 7.58427 6.13059C7.58427 9.29069 5.97262 11.2658 3.80795 11.2658C1.59588 11.2658 -0.00787119 9.29069 2.90598e-05 6.13059ZM1.94349 6.13059C1.93559 8.27156 2.68611 9.4408 3.80795 9.4329C4.89818 9.4408 5.63291 8.27156 5.64081 6.13059C5.63291 3.99753 4.89818 2.82829 3.80795 2.82829C2.68611 2.82829 1.93559 3.99753 1.94349 6.13059Z" fill="#222222"/>
<path d="M26.7036 6.81001V8.42166H13.5892V6.81001H16.5439V5.08776C15.4932 4.62164 14.9007 3.91062 14.9007 2.98629C14.9007 1.24824 16.9468 0.213307 20.1464 0.205406C23.3223 0.213307 25.3685 1.24824 25.3764 2.98629C25.3685 3.92642 24.7602 4.64535 23.6857 5.10356V6.81001H26.7036ZM15.0903 11.7556C15.0903 10.0965 16.9784 9.17219 20.1306 9.18009C23.2354 9.17219 25.1236 10.0965 25.1394 11.7556C25.1236 13.4541 23.2354 14.3626 20.1306 14.3626C16.9784 14.3626 15.0903 13.4541 15.0903 11.7556ZM17.0021 2.98629C16.9863 3.77632 18.1161 4.17923 20.1464 4.17133C22.1531 4.17923 23.2907 3.77632 23.2907 2.98629C23.2907 2.18047 22.1531 1.75385 20.1464 1.75385C18.1161 1.75385 16.9863 2.18047 17.0021 2.98629ZM17.1443 11.7556C17.1364 12.4903 18.1398 12.8616 20.1306 12.8616C22.082 12.8616 23.109 12.4903 23.1169 11.7556C23.109 11.0445 22.082 10.7048 20.1306 10.6969C18.1398 10.7048 17.1364 11.0445 17.1443 11.7556ZM18.5822 6.81001H21.6791V5.60128C21.2051 5.66448 20.6915 5.68818 20.1464 5.68818C19.5855 5.68818 19.0641 5.65658 18.5822 5.60128V6.81001Z" fill="#222222"/>
<path d="M33.1984 3.2549C33.1905 5.89358 34.3913 8.54017 36.8325 9.5751L35.6475 11.1868C34.0042 10.4441 32.8666 9.00628 32.2109 7.22873C31.563 9.17219 30.3859 10.7364 28.632 11.5344L27.4154 9.85951C29.9277 8.80088 31.1522 6.04369 31.1601 3.2549V1.10603H33.1984V3.2549ZM37.6067 14.4101V0H39.645V14.4101H37.6067Z" fill="#222222"/>
<path d="M49.7897 0.837426V2.44908H46.9298C46.9377 4.13183 47.9489 5.86198 50.2795 6.60461L49.2524 8.16886C47.6566 7.64744 46.5585 6.62041 45.9343 5.34057C45.2944 6.73891 44.141 7.86075 42.474 8.40586L41.3996 6.85741C43.7776 6.09109 44.8678 4.24243 44.8915 2.44908H41.9526V0.837426H49.7897ZM43.3431 10.8865V9.29069H53.0288V14.3785H51.0063V10.8865H43.3431ZM51.0063 8.67447V0H53.0288V3.49191H54.9722V5.16676H53.0288V8.67447H51.0063Z" fill="#222222"/>
<path d="M61.23 3.2549C61.2221 5.89358 62.4229 8.54017 64.8641 9.5751L63.6791 11.1868C62.0358 10.4441 60.8982 9.00628 60.2424 7.22873C59.5946 9.17219 58.4175 10.7364 56.6636 11.5344L55.447 9.85951C57.9593 8.80088 59.1838 6.04369 59.1917 3.2549V1.10603H61.23V3.2549ZM65.6383 14.4101V0H67.6766V14.4101H65.6383Z" fill="#222222"/>
<path d="M81.0604 0V4.02913H83.0038V5.68818H81.0604V10.3019H79.0221V0H81.0604ZM69.5576 7.29983C72.7809 6.4071 74.6059 4.74015 74.9219 2.71769H70.1896V1.07443H77.1418C77.1339 4.96136 74.7086 7.67904 70.395 8.89568L69.5576 7.29983ZM71.7065 14.1256V9.24329H73.7447V12.514H81.5502V14.1256H71.7065Z" fill="#222222"/>
</svg>
