<svg width="179" height="17" viewBox="0 0 179 17" fill="none" xmlns="http://www.w3.org/2000/svg">
<path d="M12.937 0V16.0523H10.6664V0H12.937ZM4.24201 1.12647C6.65337 1.12647 8.44869 3.34422 8.44869 6.82925C8.44869 10.3495 6.65337 12.5496 4.24201 12.5496C1.77785 12.5496 -0.0174729 10.3495 0.000128295 6.82925C-0.0174729 3.34422 1.77785 1.12647 4.24201 1.12647ZM4.24201 3.15061C2.99233 3.15061 2.16507 4.4531 2.16507 6.82925C2.16507 9.22301 2.99233 10.5079 4.24201 10.5079C5.45649 10.5079 6.28375 9.22301 6.28375 6.82925C6.28375 4.4531 5.45649 3.15061 4.24201 3.15061Z" fill="black"/>
<path d="M29.747 7.5861V9.38142H15.138V7.5861H18.4294V5.66758C17.2589 5.14834 16.5989 4.35629 16.5989 3.32662C16.5989 1.39049 18.8694 0.228815 22.4425 0.228815C25.9803 0.228815 28.2509 1.39049 28.2685 3.32662C28.2597 4.36509 27.5732 5.17474 26.3851 5.68518V7.5861H29.747ZM22.4249 10.2263C25.8923 10.2263 27.9868 11.2471 28.0044 13.0953C27.9868 14.9786 25.8923 15.9995 22.4249 15.9995C18.9046 15.9995 16.8101 14.9786 16.8101 13.0953C16.8101 11.2471 18.9046 10.2263 22.4249 10.2263ZM22.4249 11.916C20.2071 11.916 19.0806 12.3032 19.0982 13.0953C19.0806 13.9225 20.2071 14.3274 22.4249 14.3274C24.5898 14.3274 25.7339 13.9225 25.7515 13.0953C25.7339 12.3032 24.5898 11.916 22.4249 11.916ZM22.4425 1.95373C20.1719 1.95373 18.9222 2.42896 18.9398 3.32662C18.9222 4.20668 20.1719 4.64671 22.4425 4.64671C24.6778 4.64671 25.9451 4.20668 25.9451 3.32662C25.9451 2.42896 24.6778 1.95373 22.4425 1.95373ZM20.6999 7.5861H24.1498V6.24842C23.6217 6.31002 23.0497 6.33642 22.4425 6.33642C21.8176 6.33642 21.2368 6.31002 20.6999 6.23081V7.5861Z" fill="black"/>
<path d="M45.536 2.11214V3.92506H43.4591V5.56197H45.536V7.42769H43.4591V9.45183H41.2062V0H43.4591V2.11214H45.536ZM43.4591 10.0855V16.0171H41.2062V11.8984H32.6696V10.0855H43.4591ZM35.257 0.880059C37.7387 0.862457 39.6221 2.51697 39.6221 4.76992C39.6221 7.07567 37.7387 8.69498 35.257 8.69498C32.7576 8.69498 30.8567 7.07567 30.8567 4.76992C30.8567 2.51697 32.7576 0.862457 35.257 0.880059ZM35.257 2.79859C33.9897 2.79859 33.0568 3.52023 33.0744 4.76992C33.0568 6.0548 33.9897 6.79405 35.257 6.79405C36.489 6.79405 37.4219 6.0548 37.4395 4.76992C37.4219 3.52023 36.489 2.79859 35.257 2.79859Z" fill="black"/>
<path d="M55.3407 1.16168V2.16494C55.3407 3.27382 55.3407 4.87552 54.9711 6.86446L52.771 6.65324C53.0526 5.11314 53.123 3.95146 53.1406 2.9922H47.1034V1.16168H55.3407ZM51.3629 4.85792V7.92053C52.9558 7.85892 54.5927 7.73571 56.0976 7.5157L56.2208 9.13501C52.8942 9.75105 49.1275 9.80385 46.3465 9.82145L46.1529 8.02613C47.0506 8.02613 48.0627 8.02613 49.1275 7.99093V4.85792H51.3629ZM59.2658 0V4.87552H61.2019V6.75885H59.2658V11.9864H56.9601V0H59.2658ZM59.7586 13.9401V15.7354H48.5115V10.9127H50.7644V13.9401H59.7586Z" fill="black"/>
<path d="M75.8646 0V16.0171H73.7172V0H75.8646ZM72.5203 0.228815V15.2778H70.4082V7.70931H69.1233C68.9121 10.8599 67.5744 12.7608 65.6031 12.7608C63.4909 12.7608 62.118 10.5431 62.118 6.93486C62.118 3.34422 63.4909 1.14408 65.6031 1.14408C67.5304 1.14408 68.8505 2.9394 69.1057 5.93159H70.4082V0.228815H72.5203ZM65.6031 3.25622C64.7054 3.25622 64.1774 4.4883 64.195 6.93486C64.1774 9.39903 64.7054 10.6135 65.6031 10.5959C66.5183 10.6135 67.064 9.39903 67.064 6.93486C67.064 4.4883 66.5183 3.25622 65.6031 3.25622Z" fill="black"/>
<path d="M96.4244 7.5685V9.32862H81.7802V7.5685H88.0111V6.19561H83.558V0.704047H94.6643V2.44656H85.7933V4.4355H94.7523V6.19561H90.2112V7.5685H96.4244ZM89.0671 10.1383C92.5346 10.1383 94.6291 11.1943 94.6467 13.0953C94.6291 14.961 92.5346 16.0347 89.0671 16.0347C85.5645 16.0347 83.4524 14.961 83.4524 13.0953C83.4524 11.1943 85.5645 10.1383 89.0671 10.1383ZM89.0671 11.8456C86.8494 11.8456 85.7229 12.268 85.7405 13.0953C85.7229 13.9401 86.8494 14.3274 89.0671 14.3274C91.2321 14.3274 92.3761 13.9401 92.3938 13.0953C92.3761 12.268 91.2321 11.8456 89.0671 11.8456Z" fill="black"/>
<path d="M102.586 1.07367C105.12 1.05607 107.021 2.71058 107.021 4.99873C107.021 7.30449 105.12 8.94139 102.586 8.94139C100.051 8.94139 98.1326 7.30449 98.1326 4.99873C98.1326 2.71058 100.051 1.05607 102.586 1.07367ZM102.586 3.0098C101.318 3.0098 100.35 3.74905 100.368 4.99873C100.35 6.26602 101.318 6.98766 102.586 6.98766C103.853 6.98766 104.821 6.26602 104.839 4.99873C104.821 3.74905 103.871 3.0098 102.586 3.0098ZM110.858 0V16.0523H108.623V0H110.858ZM97.4637 10.9479C100.315 10.9655 104.275 10.9127 107.708 10.4375L107.884 12.0568C104.328 12.7432 100.526 12.7785 97.7277 12.7785L97.4637 10.9479Z" fill="black"/>
<path d="M120.733 2.44656V4.22428H112.989V2.44656H115.77V0.440029H117.988V2.44656H120.733ZM116.896 4.94593C118.938 4.94593 120.399 6.53003 120.417 8.74778C120.399 10.9831 118.938 12.5672 116.896 12.5672C114.855 12.5672 113.358 10.9831 113.358 8.74778C113.358 6.53003 114.855 4.94593 116.896 4.94593ZM116.896 6.81165C115.963 6.81165 115.33 7.5333 115.33 8.74778C115.33 9.96226 115.963 10.6663 116.896 10.6663C117.794 10.6663 118.428 9.96226 118.445 8.74778C118.428 7.5333 117.794 6.81165 116.896 6.81165ZM126.859 0V16.0171H124.729V8.30775H123.426V15.3306H121.332V0.316821H123.426V6.51243H124.729V0H126.859Z" fill="black"/>
<path d="M143.228 8.83579V10.6311H136.998V16.0171H134.78V10.6311H128.619V8.83579H143.228ZM141.926 0.844856V2.60497H137.262C137.482 4.17148 139.251 5.74678 142.542 6.14281L141.732 7.90293C138.916 7.5245 136.901 6.31882 135.942 4.66431C134.956 6.31882 132.958 7.5245 130.168 7.90293L129.341 6.14281C132.58 5.74678 134.366 4.17148 134.621 2.60497H129.94V0.844856H141.926Z" fill="black"/>
<path d="M149.372 4.03067C149.372 6.61804 150.094 9.29342 152.276 10.7015L151.062 12.444C149.68 11.608 148.8 10.2351 148.298 8.58937C147.718 10.4023 146.758 11.916 145.306 12.7961L143.933 11.1415C146.31 9.66304 147.19 6.84686 147.19 4.13628V1.37289H149.372V4.03067ZM158.12 0V16.0171H155.973V0H158.12ZM154.758 0.228815V15.2778H152.664V7.23408H150.587V5.40356H152.664V0.228815H154.758Z" fill="black"/>
<path d="M174.507 12.3032V14.1513H159.846V12.3032H163.119V8.37816C161.879 7.63891 161.131 6.50363 161.131 5.08674C161.131 2.49937 163.665 0.774452 167.15 0.774452C170.618 0.774452 173.17 2.49937 173.187 5.08674C173.179 6.46843 172.448 7.59491 171.251 8.34296V12.3032H174.507ZM167.15 2.55217C164.862 2.55217 163.348 3.46743 163.348 5.08674C163.348 6.65324 164.862 7.62131 167.15 7.62131C169.421 7.62131 170.952 6.65324 170.97 5.08674C170.952 3.46743 169.421 2.55217 167.15 2.55217ZM165.337 12.3032H168.981V9.18781C168.409 9.30222 167.793 9.36382 167.15 9.36382C166.508 9.36382 165.9 9.31102 165.337 9.18781V12.3032Z" fill="black"/>
<path d="M177.536 14.5562C176.708 14.5562 176.04 13.8873 176.057 13.0777C176.04 12.268 176.708 11.6168 177.536 11.6168C178.31 11.6168 178.997 12.268 178.997 13.0777C178.997 13.8873 178.31 14.5562 177.536 14.5562Z" fill="black"/>
</svg>
