<svg width="65" height="17" viewBox="0 0 65 17" fill="none" xmlns="http://www.w3.org/2000/svg">
<path d="M13.601 0V9.50132H11.3664V5.71839H8.8679V3.9061H11.3664V0H13.601ZM8.12891 9.85322C11.5423 9.87082 13.6362 10.9969 13.6538 12.95C13.6362 14.8854 11.5423 16.0291 8.12891 16.0291C4.71547 16.0291 2.62166 14.8854 2.62166 12.95C2.62166 10.9969 4.71547 9.87082 8.12891 9.85322ZM8.12891 11.5775C5.99991 11.5775 4.85623 12.0174 4.85623 12.95C4.85623 13.8649 5.99991 14.3224 8.12891 14.3224C10.2579 14.3224 11.4192 13.8649 11.4192 12.95C11.4192 12.0174 10.2579 11.5775 8.12891 11.5775ZM9.34297 0.967727V2.76242H6.15827C6.21105 4.6275 7.33713 6.51017 9.83563 7.33713L8.72714 9.09664C6.95884 8.5248 5.74478 7.36353 5.04978 5.91193C4.33718 7.54827 3.06154 8.8679 1.16127 9.51892L0 7.74182C2.63046 6.86207 3.80933 4.76826 3.87091 2.76242H0.651017V0.967727H9.34297Z" fill="#222222"/>
<path d="M29.1206 0V16.0467H26.8509V0H29.1206ZM18.7572 1.26684V5.17294H22.2058V1.26684H24.4228V12.2989H16.505V1.26684H18.7572ZM18.7572 10.4866H22.2058V6.91485H18.7572V10.4866Z" fill="#222222"/>
<path d="M41.3509 2.51609C41.3509 4.45155 42.477 6.31662 45.0107 7.1084L43.8142 8.85031C42.1163 8.28727 40.9286 7.19637 40.2424 5.78877C39.5474 7.40751 38.3069 8.67436 36.4771 9.29018L35.263 7.53068C37.9374 6.63333 39.0811 4.50433 39.0987 2.30495V0.844562H41.3509V2.51609ZM48.213 0V3.74774H50.3771V5.61282H48.213V9.50132H45.9608V0H48.213ZM42.9696 9.81803C46.2775 9.81803 48.3713 10.9617 48.3713 12.9148C48.3713 14.8854 46.2775 16.0115 42.9696 16.0115C39.5914 16.0115 37.48 14.8854 37.48 12.9148C37.48 10.9617 39.5914 9.81803 42.9696 9.81803ZM42.9696 11.5775C40.8582 11.5775 39.7145 12.035 39.7321 12.9148C39.7145 13.8297 40.8582 14.252 42.9696 14.252C45.0458 14.252 46.1543 13.8297 46.1543 12.9148C46.1543 12.035 45.0458 11.5775 42.9696 11.5775Z" fill="#222222"/>
<path d="M58.1902 1.67153V3.44863H53.809V5.85915H57.8735V7.58346H53.809V10.4691C55.6125 10.4515 56.9233 10.3899 58.4893 10.1699L58.6477 11.9998C56.8002 12.2989 55.2166 12.3517 52.7885 12.3517H51.6624V1.67153H58.1902ZM64.9995 0V16.0115H62.8529V8.00574H61.4629V15.2725H59.3515V0.228736H61.4629V6.21105H62.8529V0H64.9995Z" fill="#222222"/>
</svg>
