<svg width="95" height="14" viewBox="0 0 95 14" fill="none" xmlns="http://www.w3.org/2000/svg">
<path d="M6.6936 4.17957C6.5679 3.06397 5.54658 2.41975 4.17957 2.41975C2.67116 2.41975 1.68126 3.20539 1.68126 4.28956C1.68126 5.48373 3.01684 5.92368 3.88103 6.14366L5.01235 6.45791C6.23793 6.77217 8.23345 7.47924 8.23345 9.60045C8.23345 11.4545 6.74074 12.9001 4.10101 12.9001C1.64983 12.9001 0.125701 11.6274 0 9.74186H1.44557C1.57127 11.0146 2.74972 11.6117 4.10101 11.6117C5.67228 11.6117 6.85073 10.8103 6.85073 9.56902C6.85073 8.46914 5.79798 8.04489 4.60382 7.69921L3.20539 7.32211C1.41414 6.80359 0.314254 5.89226 0.314254 4.35241C0.314254 2.43547 2.02694 1.16274 4.22671 1.16274C6.42649 1.16274 8.01347 2.45118 8.07632 4.17957H6.6936Z" fill="black"/>
<path d="M10.2926 1.31987H11.9895L15.8234 10.6846H15.9648L19.7987 1.31987H21.4957V12.6958H20.1601V4.10101H20.0501L16.5148 12.6958H15.2578L11.7224 4.10101H11.6281V12.6958H10.2926V1.31987Z" fill="black"/>
<path d="M30.2484 4.17957C30.1227 3.06397 29.1014 2.41975 27.7344 2.41975C26.226 2.41975 25.2361 3.20539 25.2361 4.28956C25.2361 5.48373 26.5717 5.92368 27.4359 6.14366L28.5672 6.45791C29.7928 6.77217 31.7883 7.47924 31.7883 9.60045C31.7883 11.4545 30.2956 12.9001 27.6558 12.9001C25.2047 12.9001 23.6805 11.6274 23.5548 9.74186H25.0004C25.1261 11.0146 26.3045 11.6117 27.6558 11.6117C29.2271 11.6117 30.4055 10.8103 30.4055 9.56902C30.4055 8.46914 29.3528 8.04489 28.1586 7.69921L26.7602 7.32211C24.969 6.80359 23.8691 5.89226 23.8691 4.35241C23.8691 2.43547 25.5818 1.16274 27.7815 1.16274C29.9813 1.16274 31.5683 2.45118 31.6311 4.17957H30.2484Z" fill="black"/>
<path d="M44.2342 1.30415C44.2342 3.26824 46.8111 4.98092 49.3251 5.3266L48.8223 6.33221C46.654 5.97082 44.5092 4.7688 43.6057 3.04826C42.7101 4.77666 40.5574 5.97082 38.3891 6.33221L37.8863 5.3266C40.4003 4.98092 42.9615 3.29966 42.9615 1.30415V0.502806H44.2342V1.30415ZM49.9536 7.87205V8.90909H44.1714V13.9686H42.9615V8.90909H37.2264V7.87205H49.9536Z" fill="black"/>
<path d="M62.6974 0.0157127V10.2604H61.4718V0.0157127H62.6974ZM63.1373 12.633V13.67H53.6783V9.31762H54.9039V12.633H63.1373ZM56.1138 2.19978C56.098 4.32099 57.5593 6.23793 59.6334 6.99214L58.9892 7.98204C57.3708 7.36139 56.1138 6.10438 55.501 4.49383C54.8803 6.20651 53.6076 7.58137 51.9813 8.23345L51.3057 7.27497C53.4269 6.45791 54.8567 4.39955 54.8567 2.19978V0.801347H56.1138V2.19978Z" fill="black"/>
<path d="M81.9155 6.91358V7.90348H69.1725V6.91358H74.9391V5.27946H70.7909V0.659933H80.3285V1.64983H72.0008V4.27385H80.4228V5.27946H76.1332V6.91358H81.9155ZM75.5361 8.9248C78.5373 8.9248 80.3285 9.83614 80.3442 11.4388C80.3285 13.0572 78.5373 13.9529 75.5361 13.9686C72.5193 13.9529 70.7123 13.0572 70.7123 11.4388C70.7123 9.83614 72.5193 8.9248 75.5361 8.9248ZM75.5361 9.89899C73.2892 9.89899 71.9537 10.4804 71.9694 11.4388C71.9537 12.413 73.2892 12.9787 75.5361 12.9787C77.7516 12.9787 79.1029 12.413 79.1029 11.4388C79.1029 10.4804 77.7516 9.89899 75.5361 9.89899Z" fill="black"/>
<path d="M87.6828 1.02132C89.8826 1.02132 91.4381 2.3569 91.4381 4.30527C91.4381 6.25365 89.8826 7.58923 87.6828 7.58923C85.483 7.58923 83.896 6.25365 83.9118 4.30527C83.896 2.3569 85.483 1.02132 87.6828 1.02132ZM87.6828 2.1055C86.1901 2.1055 85.1059 3.00112 85.1216 4.30527C85.1059 5.60943 86.1901 6.50505 87.6828 6.50505C89.1598 6.50505 90.2283 5.60943 90.2283 4.30527C90.2283 3.00112 89.1598 2.1055 87.6828 2.1055ZM94.565 0V14H93.3394V0H94.565ZM83.189 9.86756C85.7659 9.86756 89.3169 9.85185 92.4123 9.39618L92.5066 10.3075C89.3169 10.9046 85.8758 10.9203 83.3618 10.9203L83.189 9.86756Z" fill="black"/>
</svg>
