<svg width="87" height="24" viewBox="0 0 87 24" fill="none" xmlns="http://www.w3.org/2000/svg">
<path d="M38.0078 9.54688V19.9766H37.1055V9.54688H38.0078ZM29.4062 16.0156C31.457 16.0215 34.0586 16.0098 36.3555 15.7344L36.4258 16.4141C35.4121 16.5664 34.3633 16.6543 33.3438 16.707V19.7188H32.418V16.748C31.3867 16.7832 30.4023 16.7832 29.5234 16.7773L29.4062 16.0156ZM29.8047 11.4102V10.6719H32.4297V9.45312H33.3438V10.6719H35.9922V11.4102H29.8047ZM30.4375 13.5898C30.4316 12.541 31.4219 11.8672 32.8984 11.8555C34.3574 11.8672 35.3535 12.541 35.3594 13.5898C35.3535 14.627 34.3574 15.3066 32.8984 15.3125C31.4219 15.3066 30.4316 14.627 30.4375 13.5898ZM31.3047 13.5898C31.3105 14.2109 31.9375 14.6035 32.8984 14.5977C33.8418 14.6035 34.4746 14.2109 34.4688 13.5898C34.4746 12.9629 33.8418 12.5703 32.8984 12.5703C31.9375 12.5703 31.3105 12.9629 31.3047 13.5898Z" fill="#222222"/>
<path d="M41.1607 9.98047V11.4805H44.1959V9.98047H45.1099V14.5156H40.2584V9.98047H41.1607ZM41.1607 13.7656H44.1959V12.1953H41.1607V13.7656ZM41.3131 16.1562V15.418H47.9576V17.9375H42.2388V19.0859H48.3443V19.8359H41.3365V17.2344H47.0435V16.1562H41.3131ZM47.0435 14.9258V9.53516H47.9576V11.7969H49.5279V12.5703H47.9576V14.9258H47.0435Z" fill="#222222"/>
<path d="M59.7355 15.4766V16.2383H57.216V19.9531H56.2902V16.2383H53.6183V19.9531H52.6691V16.2383H50.1964V15.4766H59.7355ZM51.2746 12.2305C51.2804 10.8418 52.7511 9.96289 54.9425 9.95703C57.1281 9.96289 58.6105 10.8418 58.6105 12.2305C58.6105 13.6191 57.1281 14.4863 54.9425 14.4805C52.7511 14.4863 51.2804 13.6191 51.2746 12.2305ZM52.2238 12.2305C52.2121 13.1504 53.3195 13.7422 54.9425 13.7422C56.5656 13.7422 57.6671 13.1504 57.673 12.2305C57.6671 11.3047 56.5656 10.707 54.9425 10.707C53.3195 10.707 52.2121 11.3047 52.2238 12.2305Z" fill="#222222"/>
<path d="M64.014 19.0039L64.0023 18.2305L66.8968 15.1836C67.8987 14.1172 68.3792 13.543 68.3851 12.7578C68.3792 11.8848 67.6526 11.3223 66.6976 11.3164C65.6839 11.3223 65.0511 11.9609 65.0452 12.9102H64.0491C64.0374 11.4102 65.1976 10.4023 66.7327 10.4023C68.2737 10.4023 69.3636 11.4395 69.3694 12.7578C69.3636 13.707 68.9241 14.4453 67.4241 15.9922L65.4788 17.9961V18.0664H69.5218V19.0039H64.014Z" fill="#222222"/>
<path d="M73.8583 19.1211C71.9774 19.1211 70.8876 17.5391 70.8934 14.7617C70.8876 12.0078 71.9891 10.4023 73.8583 10.4023C75.7216 10.4023 76.8231 12.0078 76.8231 14.7617C76.8231 17.5391 75.7391 19.1211 73.8583 19.1211ZM71.913 14.7617C71.9188 16.959 72.6278 18.1836 73.8583 18.1836C75.0829 18.1836 75.7977 16.959 75.7919 14.7617C75.7977 12.5645 75.077 11.3223 73.8583 11.3164C72.6395 11.3223 71.9188 12.5645 71.913 14.7617Z" fill="#222222"/>
<path d="M80.0463 14.457C78.9506 14.4629 78.3413 13.6309 78.3471 12.418C78.3413 11.2227 78.9741 10.3906 80.0463 10.3906C81.1596 10.3906 81.7397 11.2227 81.7456 12.418C81.7397 13.6309 81.1362 14.4629 80.0463 14.457ZM79.1792 19.0039L85.0151 10.5195H85.9643L80.1284 19.0039H79.1792ZM79.2026 12.418C79.2026 13.209 79.478 13.7305 80.0463 13.7305C80.6206 13.7305 80.8901 13.209 80.8901 12.418C80.8901 11.6387 80.6381 11.1055 80.0463 11.1172C79.4897 11.123 79.2026 11.6387 79.2026 12.418ZM83.5268 17.0938C83.5151 15.8867 84.142 15.0605 85.226 15.0547C86.3217 15.0605 86.9135 15.8867 86.9135 17.0938C86.9135 18.3008 86.31 19.127 85.226 19.1211C84.1186 19.127 83.5151 18.3008 83.5268 17.0938ZM84.3706 17.0938C84.3764 17.8789 84.6518 18.4004 85.226 18.3945C85.7944 18.4004 86.0581 17.8789 86.0581 17.0938C86.0581 16.3027 85.812 15.7695 85.226 15.7812C84.6577 15.7871 84.3764 16.3027 84.3706 17.0938Z" fill="#222222"/>
<path d="M19.2921 7.23L19.3018 7.22L15.6945 3.5L14.6667 4.56L16.7127 6.67C15.8012 7.03 15.1515 7.93 15.1515 9C15.1515 10.38 16.2376 11.5 17.5758 11.5C17.9248 11.5 18.2448 11.42 18.5455 11.29V18.5C18.5455 19.05 18.1091 19.5 17.5758 19.5C17.0424 19.5 16.6061 19.05 16.6061 18.5V14C16.6061 12.9 15.7333 12 14.6667 12H13.697V5C13.697 3.9 12.8242 3 11.7576 3H5.93939C4.87273 3 4 3.9 4 5V21H13.697V13.5H15.1515V18.5C15.1515 19.88 16.2376 21 17.5758 21C18.9139 21 20 19.88 20 18.5V9C20 8.31 19.7285 7.68 19.2921 7.23ZM11.7576 10H5.93939V5H11.7576V10ZM17.5758 10C17.0424 10 16.6061 9.55 16.6061 9C16.6061 8.45 17.0424 8 17.5758 8C18.1091 8 18.5455 8.45 18.5455 9C18.5455 9.55 18.1091 10 17.5758 10Z" fill="#91969D"/>
<path fill-rule="evenodd" clip-rule="evenodd" d="M20 17H18.5455V18.5C18.5455 19.05 18.1091 19.5 17.5758 19.5C17.0424 19.5 16.6061 19.05 16.6061 18.5V17H15.1515V18.5C15.1515 19.88 16.2376 21 17.5758 21C18.9139 21 20 19.88 20 18.5V17ZM13.697 21V17H4V21H13.697Z" fill="#FFE142"/>
</svg>
