<svg width="111" height="14" viewBox="0 0 111 14" fill="none" xmlns="http://www.w3.org/2000/svg">
<path d="M3.94081 4.02937C3.94819 6.12523 5.01826 8.28013 6.81893 9.2395L6.13999 10.1103C4.83377 9.39448 3.88915 8.04398 3.40947 6.4647C2.94454 8.14729 1.99992 9.60849 0.693701 10.376L0 9.51994C1.77115 8.47939 2.84122 6.19903 2.8486 4.02937V3.42423H0.309951V2.46485H2.8486V0.487067H3.95557V2.46485H6.4647V3.42423H3.94081V4.02937ZM7.36504 12.4571V0.280432H8.47201V5.31345H10.2579V0H11.3796V13.1213H10.2579V6.30235H8.47201V12.4571H7.36504Z" fill="#91969D"/>
<path d="M20.2509 0.974133V1.91875H15.1293V3.57182H19.8819V4.51644H15.1293V6.24331C17.9189 6.25069 19.4834 6.19903 21.3283 5.88908L21.4464 6.83369C19.535 7.14364 17.9262 7.21006 15.026 7.20268H13.9633V0.974133H20.2509ZM15.2326 10.7007C15.2326 9.20261 16.8931 8.32441 19.6752 8.33917C22.4058 8.32441 24.0957 9.20261 24.0884 10.7007C24.0957 12.2283 22.4058 13.0918 19.6752 13.0918C16.8931 13.0918 15.2326 12.2283 15.2326 10.7007ZM16.3839 10.7007C16.3839 11.6306 17.6089 12.1767 19.6752 12.1767C21.6825 12.1767 22.9445 11.6306 22.9519 10.7007C22.9445 9.80775 21.6825 9.25426 19.6752 9.25426C17.6089 9.25426 16.3839 9.80775 16.3839 10.7007ZM22.8781 8.14729V0.0147596H24.0293V8.14729H22.8781Z" fill="#91969D"/>
<path d="M32.2659 0.236153C35.1809 0.236153 36.893 1.04055 36.9004 2.49437C36.893 3.98509 35.1809 4.78949 32.2659 4.79687C29.3361 4.78949 27.6166 3.98509 27.6166 2.49437C27.6166 1.04055 29.3361 0.236153 32.2659 0.236153ZM26.2882 6.62706V5.68244H38.2435V6.62706H26.2882ZM27.7347 8.64912V7.76355H36.7085V10.7007H28.9155V12.0586H37.107V12.9737H27.7642V9.84465H35.572V8.64912H27.7347ZM28.8269 2.49437C28.8121 3.40947 30.0888 3.91129 32.2659 3.91129C34.4429 3.91129 35.7122 3.40947 35.7196 2.49437C35.7122 1.63093 34.4429 1.11435 32.2659 1.10697C30.0888 1.11435 28.8121 1.63093 28.8269 2.49437Z" fill="#91969D"/>
<path d="M54.0377 0V7.04033H52.8864V0H54.0377ZM43.5141 3.66038C43.5067 1.86709 44.9605 0.634662 46.9531 0.649422C48.9456 0.634662 50.3847 1.86709 50.3921 3.66038C50.3847 5.44629 48.9456 6.67872 46.9531 6.67134C44.9605 6.67872 43.5067 5.44629 43.5141 3.66038ZM44.6506 3.66038C44.6358 4.85591 45.6026 5.70458 46.9531 5.71196C48.2888 5.70458 49.2556 4.85591 49.2556 3.66038C49.2556 2.45747 48.2888 1.61618 46.9531 1.62356C45.6026 1.61618 44.6358 2.45747 44.6506 3.66038ZM45.5362 12.9442V7.70451H46.6874V9.29854H52.8864V7.70451H54.0377V12.9442H45.5362ZM46.6874 11.9995H52.8864V10.2284H46.6874V11.9995Z" fill="#91969D"/>
<path d="M62.5252 0.811778V4.48692H58.0087V6.52374C60.4736 6.53112 61.7503 6.47946 63.2927 6.19903L63.4107 7.1584C61.7798 7.42407 60.4441 7.46835 57.7873 7.46835H56.8575V3.60134H61.3739V1.74163H56.828V0.811778H62.5252ZM58.3334 9.72657V8.78196H67.1744V13.1508H66.0084V9.72657H58.3334ZM63.396 5.63816V4.67879H66.0084V2.90764H63.396V1.96303H66.0084V0.0147596H67.1744V8.0735H66.0084V5.63816H63.396Z" fill="#91969D"/>
<path d="M79.5437 0V5.41677H81.7429V6.37614H79.5437V13.1213H78.3924V0H79.5437ZM69.3153 3.07V2.11062H72.6952V0.162356H73.8465V2.11062H77.1231V3.07H69.3153ZM70.068 7.17316C70.0607 5.40201 71.4185 4.1622 73.2856 4.1622C75.138 4.1622 76.4885 5.40201 76.5032 7.17316C76.4885 8.95169 75.138 10.1841 73.2856 10.1841C71.4185 10.1841 70.0607 8.95169 70.068 7.17316ZM71.175 7.17316C71.1676 8.36869 72.0606 9.20999 73.2856 9.19523C74.4959 9.20999 75.3815 8.36869 75.3962 7.17316C75.3815 5.98501 74.4959 5.12896 73.2856 5.13634C72.0606 5.12896 71.1676 5.98501 71.175 7.17316Z" fill="#91969D"/>
<path d="M86.3781 3.73418C86.3781 5.82266 87.3965 8.0735 89.1381 9.10667L88.4739 10.007C87.2046 9.2395 86.2969 7.83734 85.8394 6.23593C85.3597 7.98494 84.3855 9.49042 83.0719 10.2874L82.334 9.41662C84.1494 8.35393 85.2564 6.02929 85.2564 3.77846V1.23981H86.3781V3.73418ZM87.6917 5.6972V4.70831H89.9204V0.280432H91.0126V12.4571H89.9204V5.6972H87.6917ZM92.6066 13.1213V0H93.7284V13.1213H92.6066Z" fill="#91969D"/>
<path d="M107.588 10.4646V11.4387H95.574V10.4646H98.5555V6.92963C97.4337 6.34662 96.7548 5.40201 96.7548 4.20648C96.7548 2.17704 98.7473 0.841297 101.552 0.826537C104.356 0.841297 106.349 2.17704 106.349 4.20648C106.349 5.37987 105.692 6.30973 104.607 6.89273V10.4646H107.588ZM97.8765 4.20648C97.8691 5.67506 99.3968 6.65658 101.552 6.65658C103.684 6.65658 105.227 5.67506 105.227 4.20648C105.227 2.7379 103.684 1.77115 101.552 1.78591C99.3968 1.77115 97.8691 2.7379 97.8765 4.20648ZM99.6919 10.4646H103.441V7.3429C102.873 7.49049 102.238 7.57167 101.552 7.57167C100.88 7.57167 100.253 7.49787 99.6919 7.35028V10.4646Z" fill="#91969D"/>
<path d="M110.054 12.0143C109.537 12.0069 109.095 11.5789 109.109 11.0549C109.095 10.5383 109.537 10.1103 110.054 10.1103C110.578 10.1103 111.006 10.5383 110.999 11.0549C111.006 11.5789 110.578 12.0069 110.054 12.0143Z" fill="#91969D"/>
</svg>
