<svg width="212" height="42" viewBox="0 0 212 42" fill="none" xmlns="http://www.w3.org/2000/svg">
<path d="M14.5898 8.01562V9.80859H0V8.01562H6.16992V6.46875H8.38477V8.01562H14.5898ZM8.38477 0.0527344V1.42383H13.1836V3.19922H8.57812C8.87695 4.30664 10.5205 5.33496 13.9395 5.53711L13.2715 7.24219C10.3184 7.03125 8.2793 6.16992 7.27734 4.88672C6.2666 6.16992 4.22754 7.03125 1.30078 7.24219L0.615234 5.53711C4.03418 5.33496 5.66016 4.30664 5.97656 3.19922H1.40625V1.42383H6.16992V0.0527344H8.38477ZM7.27734 10.5645C10.7754 10.5645 12.832 11.5137 12.8496 13.2715C12.832 15.0469 10.7754 15.9961 7.27734 15.9961C3.76172 15.9961 1.66992 15.0469 1.66992 13.2715C1.66992 11.5137 3.76172 10.5645 7.27734 10.5645ZM7.27734 12.2168C5.04492 12.2168 3.9375 12.5508 3.95508 13.2715C3.9375 14.0098 5.04492 14.3438 7.27734 14.3438C9.45703 14.3438 10.582 14.0098 10.5996 13.2715C10.582 12.5508 9.45703 12.2168 7.27734 12.2168Z" fill="black"/>
<path d="M20.3044 14.3789L20.2868 12.4629L24.8572 8.26172C26.0525 7.11914 26.6853 6.41602 26.6853 5.41406C26.6853 4.28906 25.824 3.58594 24.6638 3.58594C23.4685 3.58594 22.695 4.3418 22.695 5.55469H20.1814C20.1638 3.05859 22.0095 1.47656 24.699 1.47656C27.4236 1.47656 29.2341 3.02344 29.2341 5.23828C29.2341 6.67969 28.531 7.875 25.9118 10.248L23.9783 12.1289V12.1992H29.4099V14.3789H20.3044Z" fill="black"/>
<path d="M37.0221 3.62109C37.0221 6.55664 38.358 9.50977 41.065 10.6523L39.7467 12.4453C37.9185 11.6191 36.6529 10.0283 35.9322 8.05078C35.2027 10.2041 33.8932 11.9443 31.942 12.832L30.5885 10.9688C33.3834 9.79102 34.7369 6.73242 34.7545 3.62109V1.23047H37.0221V3.62109ZM44.1939 0V16.0312H41.9264V0H44.1939Z" fill="black"/>
<path d="M59.0835 0V4.48242H61.2456V6.32812H59.0835V11.4609H56.8159V0H59.0835ZM54.7241 1.19531C54.7241 5.51953 52.017 8.54297 47.2182 9.89648L46.2866 8.12109C49.8637 7.11914 51.894 5.26465 52.2631 3.02344H46.9897V1.19531H54.7241ZM59.6284 13.9219V15.7148H48.6772V10.2832H50.9448V13.9219H59.6284Z" fill="black"/>
<path d="M79.5637 0V16.0312H77.2961V0H79.5637ZM70.8801 1.125C73.2883 1.125 75.0812 3.33984 75.0812 6.82031C75.0812 10.3359 73.2883 12.5332 70.8801 12.5332C68.4191 12.5332 66.6262 10.3359 66.6437 6.82031C66.6262 3.33984 68.4191 1.125 70.8801 1.125ZM70.8801 3.14648C69.632 3.14648 68.8058 4.44727 68.8058 6.82031C68.8058 9.21094 69.632 10.4941 70.8801 10.4941C72.093 10.4941 72.9191 9.21094 72.9191 6.82031C72.9191 4.44727 72.093 3.14648 70.8801 3.14648Z" fill="black"/>
<path d="M96.3516 7.57617V9.36914H81.7618V7.57617H85.0489V5.66016C83.8799 5.1416 83.2207 4.35059 83.2207 3.32227C83.2207 1.38867 85.4883 0.228516 89.0567 0.228516C92.5899 0.228516 94.8575 1.38867 94.875 3.32227C94.8663 4.35938 94.1807 5.16797 92.9942 5.67773V7.57617H96.3516ZM89.0391 10.2129C92.502 10.2129 94.5938 11.2324 94.6114 13.0781C94.5938 14.959 92.502 15.9785 89.0391 15.9785C85.5235 15.9785 83.4317 14.959 83.4317 13.0781C83.4317 11.2324 85.5235 10.2129 89.0391 10.2129ZM89.0391 11.9004C86.8243 11.9004 85.6993 12.2871 85.7168 13.0781C85.6993 13.9043 86.8243 14.3086 89.0391 14.3086C91.2012 14.3086 92.3438 13.9043 92.3614 13.0781C92.3438 12.2871 91.2012 11.9004 89.0391 11.9004ZM89.0567 1.95117C86.7891 1.95117 85.5411 2.42578 85.5586 3.32227C85.5411 4.20117 86.7891 4.64062 89.0567 4.64062C91.2891 4.64062 92.5547 4.20117 92.5547 3.32227C92.5547 2.42578 91.2891 1.95117 89.0567 1.95117ZM87.3165 7.57617H90.7618V6.24023C90.2344 6.30176 89.6631 6.32812 89.0567 6.32812C88.4327 6.32812 87.8526 6.30176 87.3165 6.22266V7.57617Z" fill="black"/>
<path d="M5.30859 40.5547C2.4082 40.5547 0.316406 39.0254 0.316406 36.9512C0.316406 35.3516 1.54688 34.0508 3.12891 33.8047V33.7168C1.75781 33.4531 0.808594 32.293 0.808594 30.9043C0.808594 28.918 2.70703 27.4766 5.30859 27.4766C7.91016 27.4766 9.80859 28.918 9.82617 30.9043C9.80859 32.3105 8.8418 33.4531 7.50586 33.7168V33.8047C9.05273 34.0508 10.3008 35.3516 10.3008 36.9512C10.3008 39.0254 8.20898 40.5547 5.30859 40.5547ZM5.30859 38.5332C6.64453 38.5332 7.54102 37.7773 7.54102 36.6875C7.54102 35.5801 6.60938 34.7715 5.30859 34.7715C4.00781 34.7715 3.05859 35.5801 3.07617 36.6875C3.05859 37.7773 3.95508 38.5332 5.30859 38.5332ZM5.30859 32.9082C6.43359 32.9082 7.24219 32.1875 7.24219 31.168C7.24219 30.1836 6.45117 29.4805 5.30859 29.4805C4.16602 29.4805 3.39258 30.166 3.39258 31.168C3.39258 32.1875 4.18359 32.9082 5.30859 32.9082Z" fill="black"/>
<path d="M13.3251 40.5371C12.4989 40.5371 11.8309 39.8691 11.8485 39.0605C11.8309 38.252 12.4989 37.6016 13.3251 37.6016C14.0985 37.6016 14.784 38.252 14.784 39.0605C14.784 39.8691 14.0985 40.5371 13.3251 40.5371Z" fill="black"/>
<path d="M20.7966 27.6523V40.3789H18.1423V30.166H18.072L15.154 31.9941V29.6562L18.3005 27.6523H20.7966Z" fill="black"/>
<path d="M40.2397 26V32.5039H42.3315V34.3672H40.2397V41.9961H37.9721V26H40.2397ZM27.2495 37.4785C28.4184 37.4785 29.7807 37.4785 31.2045 37.4434V36.0723C29.4995 35.7383 28.392 34.6572 28.4096 33.1719C28.392 31.3789 30.0092 30.166 32.3471 30.166C34.6323 30.166 36.267 31.3789 36.2846 33.1719C36.267 34.6572 35.142 35.7471 33.4545 36.0723V37.3555C34.7202 37.2939 35.9946 37.1885 37.1811 37.0215L37.3217 38.6562C33.9116 39.2891 30.2553 39.3066 27.5483 39.3066L27.2495 37.4785ZM37.0581 27.7754V29.5332H27.5659V27.7754H31.2045V26.0879H33.4545V27.7754H37.0581ZM32.3471 31.8711C31.2573 31.8711 30.519 32.3457 30.5366 33.1719C30.519 34.0156 31.2573 34.4727 32.3471 34.4727C33.4018 34.4727 34.1225 34.0156 34.1225 33.1719C34.1225 32.3457 33.4018 31.8711 32.3471 31.8711Z" fill="black"/>
<path d="M53.2316 27.6523V40.3789H50.5773V30.166H50.507L47.589 31.9941V29.6562L50.7355 27.6523H53.2316Z" fill="black"/>
<path d="M61.1426 40.5547C58.5059 40.5371 56.0098 38.9727 56.0098 34.3145C56.0098 30.0254 58.0665 27.4766 61.2481 27.4766C63.8145 27.4766 65.5547 29.0938 65.8184 31.1855H63.2168C63.0059 30.2891 62.2676 29.7441 61.2481 29.7441C59.5254 29.7441 58.6114 31.3086 58.5938 33.8047H58.7168C59.2969 32.6797 60.5625 32.0117 61.9688 32.0117C64.254 32.0117 65.959 33.7344 65.959 36.125C65.959 38.709 64.0079 40.5723 61.1426 40.5547ZM61.125 38.4629C62.4258 38.4629 63.3926 37.4785 63.3926 36.1953C63.3926 34.9297 62.461 33.9277 61.1602 33.9277C59.8594 33.9277 58.875 34.9473 58.8575 36.1953C58.875 37.4434 59.8243 38.4629 61.125 38.4629Z" fill="black"/>
<path d="M69.37 40.5371C68.5439 40.5371 67.8759 39.8691 67.8935 39.0605C67.8759 38.252 68.5439 37.6016 69.37 37.6016C70.1435 37.6016 70.829 38.252 70.829 39.0605C70.829 39.8691 70.1435 40.5371 69.37 40.5371ZM69.37 33.8398C68.5439 33.8398 67.8759 33.1719 67.8935 32.3633C67.8759 31.5547 68.5439 30.9043 69.37 30.9043C70.1435 30.9043 70.829 31.5547 70.829 32.3633C70.829 33.1719 70.1435 33.8398 69.37 33.8398Z" fill="black"/>
<path d="M77.8787 40.5547C74.697 40.5547 72.7635 38.1816 72.7635 34.0156C72.7635 29.8496 74.697 27.4766 77.8787 27.4766C81.0603 27.4766 82.9939 29.8672 82.9939 34.0156C82.9939 38.1992 81.0603 40.5547 77.8787 40.5547ZM77.8787 38.375C79.3552 38.375 80.3045 36.9512 80.2869 34.0156C80.2869 31.1152 79.3552 29.6387 77.8787 29.6387C76.4021 29.6387 75.4705 31.1152 75.4705 34.0156C75.4529 36.9512 76.4021 38.375 77.8787 38.375Z" fill="black"/>
<path d="M89.7975 40.5547C86.6159 40.5547 84.6823 38.1816 84.6823 34.0156C84.6823 29.8496 86.6159 27.4766 89.7975 27.4766C92.9791 27.4766 94.9127 29.8672 94.9127 34.0156C94.9127 38.1992 92.9791 40.5547 89.7975 40.5547ZM89.7975 38.375C91.2741 38.375 92.2233 36.9512 92.2057 34.0156C92.2057 31.1152 91.2741 29.6387 89.7975 29.6387C88.3209 29.6387 87.3893 31.1152 87.3893 34.0156C87.3717 36.9512 88.3209 38.375 89.7975 38.375Z" fill="black"/>
<path d="M101.629 34.7363C102.227 34.1035 102.983 33.7695 103.809 33.7695C105.25 33.7695 106.481 34.7715 107.922 34.7715C108.731 34.7715 109.469 34.4375 110.049 33.8047V35.9492C109.452 36.582 108.696 36.916 107.869 36.916C106.428 36.916 105.198 35.9141 103.756 35.9141C102.948 35.9141 102.209 36.248 101.629 36.8809V34.7363Z" fill="black"/>
<path d="M121.723 40.5547C118.822 40.5547 116.731 39.0254 116.731 36.9512C116.731 35.3516 117.961 34.0508 119.543 33.8047V33.7168C118.172 33.4531 117.223 32.293 117.223 30.9043C117.223 28.918 119.121 27.4766 121.723 27.4766C124.324 27.4766 126.223 28.918 126.24 30.9043C126.223 32.3105 125.256 33.4531 123.92 33.7168V33.8047C125.467 34.0508 126.715 35.3516 126.715 36.9512C126.715 39.0254 124.623 40.5547 121.723 40.5547ZM121.723 38.5332C123.059 38.5332 123.955 37.7773 123.955 36.6875C123.955 35.5801 123.024 34.7715 121.723 34.7715C120.422 34.7715 119.473 35.5801 119.49 36.6875C119.473 37.7773 120.369 38.5332 121.723 38.5332ZM121.723 32.9082C122.848 32.9082 123.656 32.1875 123.656 31.168C123.656 30.1836 122.865 29.4805 121.723 29.4805C120.58 29.4805 119.807 30.166 119.807 31.168C119.807 32.1875 120.598 32.9082 121.723 32.9082Z" fill="black"/>
<path d="M129.739 40.5371C128.913 40.5371 128.245 39.8691 128.263 39.0605C128.245 38.252 128.913 37.6016 129.739 37.6016C130.513 37.6016 131.198 38.252 131.198 39.0605C131.198 39.8691 130.513 40.5371 129.739 40.5371Z" fill="black"/>
<path d="M137.211 27.6523V40.3789H134.556V30.166H134.486L131.568 31.9941V29.6562L134.715 27.6523H137.211Z" fill="black"/>
<path d="M156.654 26V32.5039H158.746V34.3672H156.654V41.9961H154.386V26H156.654ZM143.664 37.4785C144.833 37.4785 146.195 37.4785 147.619 37.4434V36.0723C145.914 35.7383 144.806 34.6572 144.824 33.1719C144.806 31.3789 146.423 30.166 148.761 30.166C151.046 30.166 152.681 31.3789 152.699 33.1719C152.681 34.6572 151.556 35.7471 149.869 36.0723V37.3555C151.134 37.2939 152.409 37.1885 153.595 37.0215L153.736 38.6562C150.326 39.2891 146.669 39.3066 143.962 39.3066L143.664 37.4785ZM153.472 27.7754V29.5332H143.98V27.7754H147.619V26.0879H149.869V27.7754H153.472ZM148.761 31.8711C147.671 31.8711 146.933 32.3457 146.951 33.1719C146.933 34.0156 147.671 34.4727 148.761 34.4727C149.816 34.4727 150.537 34.0156 150.537 33.1719C150.537 32.3457 149.816 31.8711 148.761 31.8711Z" fill="black"/>
<path d="M169.646 27.6523V40.3789H166.991V30.166H166.921L164.003 31.9941V29.6562L167.15 27.6523H169.646Z" fill="black"/>
<path d="M177.416 40.5547C174.516 40.5547 172.424 39.0254 172.424 36.9512C172.424 35.3516 173.654 34.0508 175.236 33.8047V33.7168C173.865 33.4531 172.916 32.293 172.916 30.9043C172.916 28.918 174.815 27.4766 177.416 27.4766C180.018 27.4766 181.916 28.918 181.934 30.9043C181.916 32.3105 180.949 33.4531 179.613 33.7168V33.8047C181.16 34.0508 182.408 35.3516 182.408 36.9512C182.408 39.0254 180.317 40.5547 177.416 40.5547ZM177.416 38.5332C178.752 38.5332 179.649 37.7773 179.649 36.6875C179.649 35.5801 178.717 34.7715 177.416 34.7715C176.115 34.7715 175.166 35.5801 175.184 36.6875C175.166 37.7773 176.063 38.5332 177.416 38.5332ZM177.416 32.9082C178.541 32.9082 179.35 32.1875 179.35 31.168C179.35 30.1836 178.559 29.4805 177.416 29.4805C176.274 29.4805 175.5 30.166 175.5 31.168C175.5 32.1875 176.291 32.9082 177.416 32.9082Z" fill="black"/>
<path d="M185.802 40.5371C184.976 40.5371 184.308 39.8691 184.325 39.0605C184.308 38.252 184.976 37.6016 185.802 37.6016C186.575 37.6016 187.261 38.252 187.261 39.0605C187.261 39.8691 186.575 40.5371 185.802 40.5371ZM185.802 33.8398C184.976 33.8398 184.308 33.1719 184.325 32.3633C184.308 31.5547 184.976 30.9043 185.802 30.9043C186.575 30.9043 187.261 31.5547 187.261 32.3633C187.261 33.1719 186.575 33.8398 185.802 33.8398Z" fill="black"/>
<path d="M194.31 40.5547C191.129 40.5547 189.195 38.1816 189.195 34.0156C189.195 29.8496 191.129 27.4766 194.31 27.4766C197.492 27.4766 199.426 29.8672 199.426 34.0156C199.426 38.1992 197.492 40.5547 194.31 40.5547ZM194.31 38.375C195.787 38.375 196.736 36.9512 196.719 34.0156C196.719 31.1152 195.787 29.6387 194.31 29.6387C192.834 29.6387 191.902 31.1152 191.902 34.0156C191.885 36.9512 192.834 38.375 194.31 38.375Z" fill="black"/>
<path d="M206.229 40.5547C203.048 40.5547 201.114 38.1816 201.114 34.0156C201.114 29.8496 203.048 27.4766 206.229 27.4766C209.411 27.4766 211.344 29.8672 211.344 34.0156C211.344 38.1992 209.411 40.5547 206.229 40.5547ZM206.229 38.375C207.706 38.375 208.655 36.9512 208.637 34.0156C208.637 31.1152 207.706 29.6387 206.229 29.6387C204.753 29.6387 203.821 31.1152 203.821 34.0156C203.803 36.9512 204.753 38.375 206.229 38.375Z" fill="black"/>
</svg>
