<svg width="66" height="17" viewBox="0 0 66 17" fill="none" xmlns="http://www.w3.org/2000/svg">
<path d="M13.4855 0V16.1048H11.2025V0H13.4855ZM8.65409 1.68127C8.65409 6.56578 6.93743 10.6185 1.18573 13.3439L0 11.5388C4.15892 9.57437 5.99061 7.02592 6.35341 3.45102H0.867179V1.68127H8.65409Z" fill="#222222"/>
<path d="M19.7513 0.584019V2.19449H26.2109V0.584019H28.4585V7.1675H24.1049V8.53021H30.3344V10.3354H15.6455V8.53021H21.8396V7.1675H17.5214V0.584019H19.7513ZM19.7513 5.36235H26.2109V3.92885H19.7513V5.36235ZM28.6709 14.0164V15.8216H17.4152V11.2556H19.6805V14.0164H28.6709Z" fill="#222222"/>
<path d="M49.1309 0V9.55667H46.8833V5.7517H44.3703V3.92885H46.8833V0H49.1309ZM43.627 9.91062C47.0603 9.92832 49.1663 11.061 49.184 13.0254C49.1663 14.9721 47.0603 16.1225 43.627 16.1225C40.1936 16.1225 38.0876 14.9721 38.0876 13.0254C38.0876 11.061 40.1936 9.92832 43.627 9.91062ZM43.627 11.645C41.4856 11.645 40.3352 12.0874 40.3352 13.0254C40.3352 13.9457 41.4856 14.4058 43.627 14.4058C45.7684 14.4058 46.9364 13.9457 46.9364 13.0254C46.9364 12.0874 45.7684 11.645 43.627 11.645ZM44.8481 0.973364V2.77851H41.6448C41.6979 4.65445 42.8306 6.54809 45.3436 7.37987L44.2287 9.14962C42.4501 8.57445 41.229 7.40642 40.5299 5.94637C39.8132 7.59224 38.5301 8.91956 36.6187 9.57437L35.4507 7.78691C38.0965 6.90204 39.2822 4.79603 39.3442 2.77851H36.1055V0.973364H44.8481Z" fill="#222222"/>
<path d="M65.9975 12.3883V14.2288H51.2555V12.3883H57.4673V9.41509H52.8128V1.02646H55.0781V3.52181H62.104V1.02646H64.3516V9.41509H59.7149V12.3883H65.9975ZM55.0781 7.60994H62.104V5.32696H55.0781V7.60994Z" fill="#222222"/>
</svg>
