<svg width="81" height="15" viewBox="0 0 81 15" fill="none" xmlns="http://www.w3.org/2000/svg">
<path d="M0.110348 12.8661L0.0945997 11.1496L4.18909 7.38583C5.25995 6.3622 5.82688 5.73228 5.82688 4.83465C5.82688 3.82677 5.05523 3.19685 4.01586 3.19685C2.94499 3.19685 2.25208 3.87402 2.25208 4.96063H0.000111521C-0.0156365 2.72441 1.63791 1.30709 4.04736 1.30709C6.4883 1.30709 8.11035 2.69291 8.11035 4.67717C8.11035 5.9685 7.48043 7.03937 5.13397 9.16535L3.40169 10.8504V10.9134H8.26783V12.8661H0.110348Z" fill="#222222"/>
<path d="M14.4103 13.0236C11.5599 13.0236 9.82764 10.8976 9.82764 7.16535C9.82764 3.43307 11.5599 1.30709 14.4103 1.30709C17.2607 1.30709 18.993 3.44882 18.993 7.16535C18.993 10.9134 17.2607 13.0236 14.4103 13.0236ZM14.4103 11.0709C15.7332 11.0709 16.5835 9.79528 16.5678 7.16535C16.5678 4.56693 15.7332 3.24409 14.4103 3.24409C13.0875 3.24409 12.2528 4.56693 12.2528 7.16535C12.2371 9.79528 13.0875 11.0709 14.4103 11.0709Z" fill="#222222"/>
<path d="M20.663 12.8661L20.6473 11.1496L24.7418 7.38583C25.8126 6.3622 26.3796 5.73228 26.3796 4.83465C26.3796 3.82677 25.6079 3.19685 24.5686 3.19685C23.4977 3.19685 22.8048 3.87402 22.8048 4.96063H20.5528C20.5371 2.72441 22.1906 1.30709 24.6 1.30709C27.041 1.30709 28.663 2.69291 28.663 4.67717C28.663 5.9685 28.0331 7.03937 25.6867 9.16535L23.9544 10.8504V10.9134H28.8205V12.8661H20.663Z" fill="#222222"/>
<path d="M34.7583 13.0236C32.2543 13.0236 30.4591 11.6378 30.4118 9.65354H32.8055C32.8528 10.5039 33.6717 11.0709 34.774 11.0709C35.9079 11.0709 36.7268 10.4252 36.711 9.51181C36.7268 8.58268 35.8921 7.92126 34.5536 7.92126H33.4984V6.17323H34.5536C35.6717 6.17323 36.4591 5.55906 36.4591 4.66142C36.4591 3.79528 35.7977 3.19685 34.7898 3.19685C33.7819 3.19685 32.9473 3.76378 32.9158 4.62992H30.648C30.6795 2.66142 32.4591 1.30709 34.7898 1.30709C37.1677 1.30709 38.7583 2.70866 38.7425 4.51969C38.7583 5.79528 37.8606 6.70866 36.5851 6.92913V7.02362C38.2543 7.22835 39.1835 8.25197 39.1677 9.66929C39.1835 11.622 37.3252 13.0236 34.7583 13.0236Z" fill="#222222"/>
<path d="M52.4756 0V10.5354H50.4756V5.84252H46.9165V4.26772H50.4756V3.16535H46.9165V1.59055H50.4756V0H52.4756ZM52.822 12.4567V14.063H42.948V9.59055H44.9638V12.4567H52.822ZM43.1842 0.897638V7.02362C44.9401 7.00787 46.5779 6.88976 48.3653 6.56693L48.5701 8.18898C46.4283 8.59843 44.4913 8.67717 42.3496 8.67717H41.2V0.897638H43.1842Z" fill="#222222"/>
<path d="M62.8708 13.0236C60.2724 13.0236 58.3983 11.6535 58.3983 9.79528C58.3983 8.3622 59.5007 7.19685 60.918 6.97638V6.89764C59.6897 6.66142 58.8393 5.62205 58.8393 4.37795C58.8393 2.59843 60.5401 1.30709 62.8708 1.30709C65.2015 1.30709 66.9023 2.59843 66.918 4.37795C66.9023 5.6378 66.0361 6.66142 64.8393 6.89764V6.97638C66.2251 7.19685 67.3432 8.3622 67.3432 9.79528C67.3432 11.6535 65.4692 13.0236 62.8708 13.0236ZM62.8708 11.2126C64.0676 11.2126 64.8708 10.5354 64.8708 9.55906C64.8708 8.56693 64.0361 7.84252 62.8708 7.84252C61.7054 7.84252 60.855 8.56693 60.8708 9.55906C60.855 10.5354 61.6582 11.2126 62.8708 11.2126ZM62.8708 6.17323C63.8787 6.17323 64.6031 5.52756 64.6031 4.61417C64.6031 3.73228 63.8944 3.10236 62.8708 3.10236C61.8472 3.10236 61.1543 3.71654 61.1543 4.61417C61.1543 5.52756 61.8629 6.17323 62.8708 6.17323Z" fill="#222222"/>
<path d="M80.6668 0V8.29921H78.6511V7.84252H76.0526V6.62992H78.6511V0H80.6668ZM68.5251 5.03937C71.2967 5.05512 74.7298 5.02362 77.8007 4.74016L77.8952 5.98425C76.6275 6.15748 75.3282 6.26772 74.0526 6.33071V8.33071H72.0684V6.40945C70.8952 6.44094 69.7692 6.44094 68.7298 6.4252L68.5251 5.03937ZM80.6668 8.72441V12.0787H72.6038V12.8189H80.9975V14.2205H70.6353V10.7874H78.6668V10.0787H70.5723V8.72441H80.6668ZM73.1393 0.188976C75.2652 0.188976 76.7298 1.05512 76.7456 2.34646C76.7298 3.68504 75.2652 4.48819 73.1393 4.48819C70.9503 4.48819 69.5015 3.68504 69.5015 2.34646C69.5015 1.05512 70.9503 0.188976 73.1393 0.188976ZM73.1393 1.51181C72.0526 1.49606 71.3912 1.82677 71.407 2.34646C71.3912 2.88189 72.0526 3.1811 73.1393 3.1811C74.1944 3.1811 74.8715 2.88189 74.8715 2.34646C74.8715 1.82677 74.1944 1.49606 73.1393 1.51181Z" fill="#222222"/>
</svg>
