<svg width="85" height="15" viewBox="0 0 85 15" fill="none" xmlns="http://www.w3.org/2000/svg">
<path d="M4.48574 13.0781C1.87169 13.0781 0 11.704 0 9.84019C0 8.40286 1.10564 7.23404 2.52718 7.01291V6.93394C1.28728 6.69702 0.434358 5.66245 0.442256 4.40676C0.434358 2.62984 2.1481 1.32677 4.48574 1.32677C6.82338 1.32677 8.53712 2.62984 8.54502 4.40676C8.53712 5.66245 7.6605 6.69702 6.46009 6.93394V7.01291C7.85004 7.23404 8.97148 8.40286 8.97148 9.84019C8.97148 11.704 7.09189 13.0781 4.48574 13.0781ZM2.47979 9.60327C2.47189 10.5826 3.27743 11.2696 4.48574 11.2617C5.69404 11.2696 6.49958 10.5826 6.49168 9.60327C6.49958 8.61609 5.64666 7.88953 4.48574 7.88163C3.32482 7.88953 2.47189 8.60819 2.47979 9.60327ZM2.7641 4.64369C2.7562 5.55979 3.47487 6.19948 4.48574 6.20738C5.48871 6.19948 6.21527 5.55979 6.22317 4.64369C6.21527 3.75128 5.50451 3.12738 4.48574 3.12738C3.45907 3.12738 2.7562 3.75128 2.7641 4.64369Z" fill="#222222"/>
<path d="M11.6889 13.0623C10.9466 13.0623 10.3464 12.47 10.3622 11.7356C10.3464 11.009 10.9466 10.4167 11.6889 10.4246C12.3918 10.4167 12.9999 11.009 12.9999 11.7356C12.9999 12.47 12.3918 13.0623 11.6889 13.0623Z" fill="#222222"/>
<path d="M18.4025 1.48472V12.9202H16.0175V3.74338H15.9543L13.3324 5.38604V3.28533L16.1596 1.48472H18.4025Z" fill="#222222"/>
<path d="M35.8731 0V5.8441H37.7527V7.51835H35.8731V14.3733H33.8356V0H35.8731ZM24.2007 10.314C25.2511 10.314 26.4752 10.314 27.7546 10.2824V9.05045C26.2304 8.75035 25.2353 7.77896 25.2432 6.4443C25.2353 4.84112 26.6884 3.74338 28.7813 3.74338C30.8346 3.74338 32.3035 4.84112 32.3193 6.4443C32.3035 7.77896 31.2926 8.75825 29.7763 9.05045V10.2114C30.9136 10.1482 32.0587 10.0534 33.1248 9.90337L33.2512 11.3723C30.1949 11.9409 26.8938 11.9646 24.4693 11.9567L24.2007 10.314ZM24.4851 3.17477V1.59528H27.7546V0.0789743H29.7763V1.59528H33.0143V3.17477H24.4851ZM27.1544 6.4443C27.1465 7.20245 27.7941 7.61312 28.7813 7.61312C29.7368 7.61312 30.3765 7.20245 30.3765 6.4443C30.3765 5.70194 29.7368 5.28338 28.7813 5.27548C27.7941 5.28338 27.1465 5.70194 27.1544 6.4443Z" fill="#222222"/>
<path d="M47.5471 1.48472V12.9202H45.162V3.74338H45.0989L42.4769 5.38604V3.28533L45.3042 1.48472H47.5471Z" fill="#222222"/>
<path d="M54.6555 13.0781C52.2942 13.0702 50.0355 11.6566 50.0434 7.47097C50.0513 3.60912 51.8914 1.32677 54.7503 1.32677C57.0484 1.32677 58.6279 2.77989 58.8569 4.65948H56.5193C56.3298 3.86184 55.6743 3.3643 54.7503 3.3643C53.1945 3.3643 52.381 4.76215 52.3652 7.01291H52.4758C53.0049 5.99415 54.1343 5.40184 55.3979 5.40184C57.4591 5.40184 58.9912 6.94184 58.9833 9.09784C58.9912 11.4197 57.238 13.086 54.6555 13.0781ZM52.6022 9.16101C52.618 10.2824 53.4709 11.2064 54.6397 11.1986C55.8164 11.2064 56.6772 10.314 56.6772 9.16101C56.6772 8.01589 55.8322 7.13138 54.6713 7.12348C53.5025 7.13138 52.618 8.04748 52.6022 9.16101Z" fill="#222222"/>
<path d="M62.0482 13.0623C61.3059 13.0623 60.7057 12.47 60.7215 11.7356C60.7057 11.009 61.3059 10.4167 62.0482 10.4246C62.7511 10.4167 63.3592 11.009 63.3592 11.7356C63.3592 12.47 62.7511 13.0623 62.0482 13.0623ZM60.7215 5.71774C60.7057 4.99117 61.3059 4.39887 62.0482 4.40676C62.7511 4.39887 63.3592 4.99117 63.3592 5.71774C63.3592 6.4522 62.7511 7.0445 62.0482 7.0445C61.3059 7.0445 60.7057 6.4522 60.7215 5.71774Z" fill="#222222"/>
<path d="M69.6937 13.0781C66.8269 13.0781 65.0974 10.9458 65.0974 7.20245C65.0974 3.46697 66.8427 1.32677 69.6937 1.32677C72.5447 1.32677 74.29 3.46697 74.29 7.20245C74.29 10.9616 72.5526 13.0781 69.6937 13.0781ZM67.5298 7.20245C67.514 9.84019 68.3669 11.1196 69.6937 11.1196C71.0205 11.1196 71.8655 9.84019 71.8576 7.20245C71.8655 4.5884 71.0126 3.27743 69.6937 3.26953C68.3748 3.27743 67.5298 4.5884 67.5298 7.20245Z" fill="#222222"/>
<path d="M80.4034 13.0781C77.5366 13.0781 75.8071 10.9458 75.8071 7.20245C75.8071 3.46697 77.5524 1.32677 80.4034 1.32677C83.2544 1.32677 84.9997 3.46697 84.9997 7.20245C84.9997 10.9616 83.2622 13.0781 80.4034 13.0781ZM78.2395 7.20245C78.2237 9.84019 79.0766 11.1196 80.4034 11.1196C81.7301 11.1196 82.5752 9.84019 82.5673 7.20245C82.5752 4.5884 81.7223 3.27743 80.4034 3.26953C79.0845 3.27743 78.2395 4.5884 78.2395 7.20245Z" fill="#222222"/>
</svg>
