<svg width="41" height="15" viewBox="0 0 41 15" fill="none" xmlns="http://www.w3.org/2000/svg">
<path d="M11.6283 0.126739V14.2264H10.4084V0.126739H11.6283ZM0 8.87172C2.77241 8.87964 6.28941 8.86379 9.39451 8.4915L9.48957 9.41036C8.1192 9.61631 6.70131 9.73512 5.32303 9.80641V13.8779H4.07148V9.86186C2.67736 9.90939 1.3466 9.90939 0.158423 9.90147L0 8.87172ZM0.53864 2.64567V1.6476H4.08733V0H5.32303V1.6476H8.9034V2.64567H0.53864ZM1.39413 5.59235C1.38621 4.17446 2.72488 3.26352 4.72102 3.24768C6.69339 3.26352 8.03999 4.17446 8.04791 5.59235C8.03999 6.9944 6.69339 7.91325 4.72102 7.92117C2.72488 7.91325 1.38621 6.9944 1.39413 5.59235ZM2.56646 5.59235C2.57438 6.43199 3.42195 6.96271 4.72102 6.95479C5.99633 6.96271 6.85182 6.43199 6.84389 5.59235C6.85182 4.74478 5.99633 4.21406 4.72102 4.21406C3.42195 4.21406 2.57438 4.74478 2.56646 5.59235Z" fill="#222222"/>
<path d="M15.8906 0.712906V2.74073H19.9938V0.712906H21.2295V6.84389H14.6708V0.712906H15.8906ZM15.8906 5.82998H19.9938V3.70711H15.8906V5.82998ZM16.0966 9.06182V8.06376H25.0792V11.4699H17.3481V13.0224H25.602V14.0363H16.1283V10.5193H23.8435V9.06182H16.0966ZM23.8435 7.39838V0.110896H25.0792V3.16847H27.2021V4.21406H25.0792V7.39838H23.8435Z" fill="#222222"/>
<path d="M41.0015 8.14297V9.17272H37.5954V14.1947H36.3439V9.17272H32.7318V14.1947H31.4486V9.17272H28.1058V8.14297H41.0015ZM29.5633 3.75464C29.5713 1.87732 31.5595 0.689142 34.522 0.681221C37.4766 0.689142 39.4807 1.87732 39.4807 3.75464C39.4807 5.63196 37.4766 6.80429 34.522 6.79637C31.5595 6.80429 29.5713 5.63196 29.5633 3.75464ZM30.8466 3.75464C30.8307 4.99826 32.3278 5.7983 34.522 5.7983C36.7162 5.7983 38.2053 4.99826 38.2133 3.75464C38.2053 2.50309 36.7162 1.69513 34.522 1.69513C32.3278 1.69513 30.8307 2.50309 30.8466 3.75464Z" fill="#222222"/>
</svg>
