<svg width="156" height="11" viewBox="0 0 156 11" fill="none" xmlns="http://www.w3.org/2000/svg">
<path d="M3.52782 1.69335C3.52782 3.11624 4.60968 4.42153 6.12664 4.93894L5.62099 5.66802C4.46269 5.24469 3.55133 4.38037 3.09272 3.29263C2.64586 4.52148 1.71687 5.49163 0.493894 5.96201L0 5.22117C1.564 4.6332 2.61058 3.23383 2.62234 1.6228V0.540932H3.52782V1.69335ZM8.20805 0V2.72818H9.78381V3.5043H8.20805V6.36183H7.29082V0H8.20805ZM4.85663 6.63229C7.00859 6.63229 8.30213 7.3261 8.30213 8.52555C8.30213 9.74853 7.00859 10.4306 4.85663 10.4306C2.70466 10.4306 1.38761 9.74853 1.38761 8.52555C1.38761 7.3261 2.70466 6.63229 4.85663 6.63229ZM4.85663 7.37313C3.28087 7.37313 2.30484 7.80823 2.3166 8.52555C2.30484 9.2664 3.28087 9.68973 4.85663 9.70149C6.44414 9.68973 7.40841 9.2664 7.40841 8.52555C7.40841 7.80823 6.44414 7.37313 4.85663 7.37313Z" fill="#222222" fill-opacity="0.4"/>
<path d="M15.0291 1.21122V1.96382H11.7717V3.97467H14.8762V4.71551H11.7717V7.07915C13.3239 7.07327 14.2823 7.03211 15.4289 6.82044L15.5112 7.5848C14.2882 7.81999 13.2769 7.86703 11.56 7.86703H10.8898V1.21122H15.0291ZM19.4271 0V10.4541H18.5334V4.97422H17.0987V9.92492H16.205V0.223428H17.0987V4.20986H18.5334V0H19.4271Z" fill="#222222" fill-opacity="0.4"/>
<path d="M25.314 0V10.9127H24.4438V0H25.314Z" fill="#222222" fill-opacity="0.4"/>
<path d="M34.3452 5.45635C34.3452 6.56475 33.4467 7.46329 32.3383 7.46329C31.2299 7.46329 30.3314 6.56475 30.3314 5.45635C30.3314 4.34795 31.2299 3.44942 32.3383 3.44942C33.4467 3.44942 34.3452 4.34795 34.3452 5.45635Z" fill="#E92222"/>
<path d="M41.1147 7.53385C43.4078 7.53385 44.7013 8.08654 44.7131 9.14488C44.7013 10.1797 43.4078 10.7206 41.1147 10.7206C38.7981 10.7206 37.5046 10.1797 37.5046 9.14488C37.5046 8.08654 38.7981 7.53385 41.1147 7.53385ZM41.1147 8.22765C39.4096 8.22765 38.4453 8.55691 38.4453 9.14488C38.4453 9.72109 39.4096 10.0386 41.1147 10.0268C42.8081 10.0386 43.7724 9.72109 43.7724 9.14488C43.7724 8.55691 42.8081 8.22765 41.1147 8.22765ZM45.3246 1.17202V1.91286H36.8461V1.17202H40.6561V0.148952H41.5733V1.17202H45.3246ZM41.1147 2.3362C43.2785 2.3362 44.5014 2.85361 44.5014 3.8414C44.5014 4.73511 43.449 5.24665 41.5733 5.31132V6.13448H45.8773V6.87532H36.3522V6.13448H40.6561V5.31132C38.7746 5.24665 37.7163 4.73511 37.7163 3.8414C37.7163 2.85361 38.951 2.3362 41.1147 2.3362ZM41.1147 2.99472C39.5742 2.99472 38.6923 3.28871 38.7041 3.8414C38.6923 4.35881 39.5742 4.66456 41.1147 4.66456C42.6434 4.66456 43.5254 4.35881 43.5254 3.8414C43.5254 3.28871 42.6434 2.99472 41.1147 2.99472Z" fill="#222222"/>
<path d="M55.4147 0.290065V5.64058H54.4975V0.290065H55.4147ZM52.2867 0.807478C52.2867 3.47686 50.3934 5.14669 47.3007 5.86401L46.9597 5.08789C49.5762 4.5058 51.1108 3.25343 51.2754 1.57184H47.4889V0.807478H52.2867ZM55.4147 6.13448V8.66275H49.5585V9.90924H55.791V10.6501H48.6413V7.95718H54.4975V6.87532H48.6178V6.13448H55.4147Z" fill="#222222"/>
<path d="M66.7513 5.46419V6.20504H57.2145V5.46419H61.5302V4.24122H58.4257V0.783959H65.5636V1.5248H59.3311V3.48862H65.6342V4.24122H62.4239V5.46419H66.7513ZM61.977 6.9694C64.223 6.9694 65.5636 7.65144 65.5754 8.8509C65.5636 10.0621 64.223 10.7324 61.977 10.7442C59.7192 10.7324 58.3669 10.0621 58.3669 8.8509C58.3669 7.65144 59.7192 6.9694 61.977 6.9694ZM61.977 7.69848C60.2954 7.69848 59.2959 8.13357 59.3076 8.8509C59.2959 9.57998 60.2954 10.0033 61.977 10.0033C63.6351 10.0033 64.6464 9.57998 64.6464 8.8509C64.6464 8.13357 63.6351 7.69848 61.977 7.69848Z" fill="#222222"/>
<path d="M76.2652 0.290065V6.22855H75.3598V0.290065H76.2652ZM69.2331 0.913312V4.64104C70.9617 4.63516 72.514 4.51756 74.1721 4.1589L74.3132 4.93502C72.5493 5.2878 70.9617 5.41716 69.1508 5.42892H68.3041V0.913312H69.2331ZM76.2652 6.71069V10.603H69.4801V6.71069H76.2652ZM70.3855 7.45153V9.85044H75.3598V7.45153H70.3855Z" fill="#222222"/>
<path d="M86.6964 0.290065V10.7677H85.7674V0.290065H86.6964ZM81.1342 1.10146C82.6864 1.11322 83.8036 2.52435 83.8036 4.74687C83.8036 6.9694 82.6864 8.38052 81.1342 8.38052C79.5702 8.38052 78.4648 6.9694 78.4648 4.74687C78.4648 2.52435 79.5702 1.11322 81.1342 1.10146ZM81.1342 1.92462C80.0876 1.93638 79.3585 3.04176 79.3585 4.74687C79.3585 6.45198 80.0876 7.55736 81.1342 7.55736C82.1808 7.55736 82.9098 6.45198 82.9098 4.74687C82.9098 3.04176 82.1808 1.93638 81.1342 1.92462Z" fill="#222222"/>
<path d="M95.0584 3.10056C95.0584 4.94678 96.2814 6.84004 97.7631 7.56912L97.1986 8.30997C96.0462 7.70436 95.0819 6.46962 94.6233 5.01734C94.1529 6.5637 93.1652 7.88075 91.9892 8.50987L91.4012 7.76903C92.93 7.01643 94.1412 5.00558 94.1529 3.10056V1.19554H95.0584V3.10056ZM99.6446 0.290065V4.5352H101.397V5.33484H99.6446V10.7442H98.7273V0.290065H99.6446Z" fill="#222222"/>
<path d="M111.51 5.46419V6.22855H101.985V5.46419H104.349V3.99427C103.514 3.67089 103.044 3.13584 103.044 2.43027C103.044 1.19554 104.455 0.489974 106.748 0.489974C109.017 0.489974 110.44 1.19554 110.44 2.43027C110.44 3.12996 109.976 3.66501 109.147 3.98251V5.46419H111.51ZM106.748 7.02819C108.994 7.02819 110.334 7.67496 110.346 8.87442C110.334 10.0621 108.994 10.7206 106.748 10.7206C104.478 10.7206 103.138 10.0621 103.138 8.87442C103.138 7.67496 104.478 7.02819 106.748 7.02819ZM106.748 7.73376C105.066 7.74551 104.067 8.15709 104.078 8.87442C104.067 9.57998 105.066 10.0033 106.748 10.0033C108.406 10.0033 109.417 9.57998 109.417 8.87442C109.417 8.15709 108.406 7.74551 106.748 7.73376ZM106.748 1.21906C105.043 1.21906 103.984 1.67767 103.996 2.43027C103.984 3.19463 105.043 3.64149 106.748 3.64149C108.441 3.64149 109.5 3.19463 109.5 2.43027C109.5 1.67767 108.441 1.21906 106.748 1.21906ZM105.266 5.46419H108.229V4.24122C107.789 4.31765 107.295 4.35881 106.748 4.35881C106.201 4.35881 105.707 4.31765 105.266 4.24122V5.46419Z" fill="#222222"/>
<path d="M121.941 5.18197V5.94633H117.626V7.06347C119.601 7.14579 120.766 7.79255 120.777 8.89793C120.766 10.0621 119.425 10.7206 117.179 10.7206C114.909 10.7206 113.569 10.0621 113.569 8.89793C113.569 7.79255 114.727 7.14579 116.72 7.06347V5.94633H112.416V5.18197H121.941ZM117.179 7.76903C115.497 7.78079 114.498 8.19237 114.51 8.89793C114.498 9.59174 115.497 10.0033 117.179 10.0033C118.837 10.0033 119.848 9.59174 119.848 8.89793C119.848 8.19237 118.837 7.78079 117.179 7.76903ZM121.095 0.783959V1.53656H117.779C117.837 2.7125 119.566 3.62385 121.412 3.81788L121.071 4.54696C119.36 4.34117 117.755 3.57681 117.179 2.40675C116.609 3.57681 115.009 4.34117 113.287 4.54696L112.957 3.81788C114.768 3.62385 116.509 2.7125 116.579 1.53656H113.287V0.783959H121.095Z" fill="#222222"/>
<path d="M131.479 0.290065V5.89929H130.562V0.290065H131.479ZM125.623 6.42846V7.69848H130.562V6.42846H131.479V10.603H124.706V6.42846H125.623ZM125.623 9.85044H130.562V8.43932H125.623V9.85044ZM125.834 0.807478C127.422 0.795718 128.574 1.77175 128.574 3.20639C128.574 4.62928 127.422 5.60531 125.834 5.60531C124.247 5.60531 123.094 4.62928 123.094 3.20639C123.094 1.77175 124.247 0.795718 125.834 0.807478ZM125.834 1.5836C124.764 1.57184 123.988 2.25388 124 3.20639C123.988 4.1589 124.764 4.84095 125.834 4.84095C126.893 4.84095 127.669 4.1589 127.669 3.20639C127.669 2.25388 126.893 1.57184 125.834 1.5836Z" fill="#222222"/>
<path d="M141.898 0.290065V10.7442H140.981V0.290065H141.898ZM134.866 1.32489V7.25162C136.46 7.24574 138.112 7.11639 139.864 6.74597L139.993 7.53385C138.135 7.92191 136.477 8.05126 134.807 8.05126H133.961V1.32489H134.866Z" fill="#222222"/>
<path d="M151.8 0.290065V4.42937H153.552V5.20549H151.8V10.7677H150.883V0.290065H151.8ZM149.049 1.31313V2.07749H145.086V7.36921C146.979 7.36921 148.319 7.28102 149.872 6.99291L149.989 7.79255C148.355 8.08654 146.979 8.14533 144.992 8.14533H144.168V1.31313H149.049Z" fill="#222222"/>
<path d="M155.246 9.8622C154.835 9.8622 154.482 9.52118 154.494 9.09784C154.482 8.68627 154.835 8.34524 155.246 8.34524C155.658 8.34524 155.999 8.68627 155.999 9.09784C155.999 9.52118 155.658 9.8622 155.246 9.8622Z" fill="#222222"/>
</svg>
