<svg width="99" height="133" viewBox="0 0 99 133" fill="none" xmlns="http://www.w3.org/2000/svg">
<g clip-path="url(#clip0_2825_43119)">
<path d="M49.1342 89.8698H82.5771C79.5205 83.6845 76.2817 81.3648 73.8359 79.5804L49.1342 78.8066L24.4325 79.5804C21.9882 81.3648 18.748 83.6845 15.6914 89.8698H49.1342Z" fill="#EFC890" stroke="#23211F" stroke-width="2.26177" stroke-linecap="round" stroke-linejoin="round"/>
<path d="M26.935 59.1252C31.3602 65.5185 28.8954 75.552 26.935 79.774H26.8985C26.8708 79.7929 26.8402 79.8103 26.814 79.8292C25.1582 79.6082 23.5417 79.3653 21.9558 79.1152C15.9258 78.1611 2.45482 75.568 1.18818 63.6366C0.102282 53.3718 8.73993 49.8159 8.73993 49.8159C16.9024 50.2682 22.5126 52.7348 26.935 59.1266V59.1252Z" fill="#ED9670"/>
<path d="M96.4366 57.3695C97.0429 59.1002 97.3403 61.1741 97.0794 63.6348C96.3855 70.1794 92.0201 73.9112 87.2232 76.1102C83.276 77.9165 79.033 78.6829 76.3117 79.1134C74.7288 79.3621 73.1123 79.605 71.4565 79.8275C71.4288 79.8086 71.3982 79.7912 71.3719 79.7723H71.3326C69.3721 75.5503 66.9074 65.5168 71.3326 59.1235C75.7549 52.7302 81.368 50.265 89.5276 49.8127C89.5276 49.8127 94.5228 51.8692 96.4366 57.3681V57.3695Z" fill="#ED9670"/>
<path d="M92.4416 8.33812C93.5581 10.8949 93.7389 13.7221 93.0072 16.2759C91.9213 20.0849 88.8166 23.2859 83.7967 24.0567C82.1773 21.3443 80.3145 18.8327 78.1689 16.5886C78.5494 15.8513 80.5885 12.3158 85.6507 10.0892C85.6507 10.0892 87.8327 9.06239 92.4416 8.33667V8.33812Z" fill="#FCF2C9"/>
<path d="M88.6859 3.53745C90.4088 4.8769 91.6594 6.54068 92.4421 8.33825C87.8332 9.06397 85.6512 10.0907 85.6512 10.0907C80.589 12.3173 78.5499 15.8514 78.1694 16.5902C75.8927 14.2094 73.2967 12.1254 70.3291 10.4223C70.7649 3.82978 80.8514 -2.5388 88.6859 3.53745Z" fill="#EFC890"/>
<path d="M12.6167 10.0904C17.6818 12.317 19.718 15.851 20.0984 16.5899C17.9529 18.8339 16.0901 21.3456 14.4707 24.0579C6.0823 22.7679 3.04761 14.7079 5.82723 8.33936C10.439 9.06507 12.6181 10.0918 12.6181 10.0918L12.6167 10.0904Z" fill="#FCF2C9"/>
<path d="M27.9382 10.4221V10.425C24.9706 12.128 22.3746 14.2092 20.0979 16.59C19.7174 15.8526 17.6812 12.3171 12.6161 10.0905C12.6161 10.0905 10.437 9.06373 5.8252 8.33801C6.60792 6.54044 7.85853 4.87521 9.58139 3.53722C17.4159 -2.53904 27.5024 3.82809 27.9382 10.4221Z" fill="#EFC890"/>
<path d="M89.6864 44.8144C89.5436 40.0616 88.567 32.5819 84.5339 25.3349C84.2934 24.903 84.0471 24.4783 83.7978 24.0566C82.1784 21.3442 80.3156 18.8326 78.1701 16.5885C75.8933 14.2077 73.2974 12.1237 70.3297 10.4206C64.9367 7.31996 58.3134 5.46131 50.1655 5.31878C49.8244 5.31297 49.4833 5.31006 49.1364 5.31006C40.5134 5.31006 33.5622 7.19053 27.9402 10.4235C24.9726 12.1266 22.3766 14.2077 20.0999 16.5885C17.9543 18.8326 16.0915 21.3442 14.4722 24.0566C14.2229 24.4783 13.9766 24.9045 13.7361 25.3349C7.10116 37.2518 8.74095 49.813 8.74095 49.813C16.9034 50.2653 22.5137 52.7319 26.936 59.1237C31.3612 65.517 28.8964 75.5506 26.936 79.7725H26.8995C26.8718 79.7914 26.8412 79.8089 26.815 79.8278C33.5622 80.7513 40.9259 81.4101 49.1379 81.4101C57.3499 81.4101 64.7122 80.7513 71.4608 79.8278C71.4331 79.8089 71.4025 79.7914 71.3763 79.7725H71.3369C69.3765 75.5506 66.9117 65.517 71.3369 59.1237C75.7592 52.7304 81.3724 50.2653 89.5319 49.813C89.5319 49.813 89.7841 47.8817 89.6908 44.8144H89.6864ZM31.4691 51.7502C29.3905 51.7502 27.7041 50.0675 27.7041 47.9936C27.7041 45.9197 29.3905 44.2342 31.4691 44.2342C33.5476 44.2342 35.2369 45.9168 35.2369 47.9936C35.2369 50.0704 33.5476 51.7502 31.4691 51.7502ZM49.135 53.6932C47.3582 53.6932 46.0857 53.222 46.2461 52.1662C46.3976 51.1481 47.7226 50.6027 49.135 50.642C50.5445 50.6027 51.868 51.1496 52.0239 52.1662C52.1828 53.2235 50.9103 53.6932 49.135 53.6932ZM66.798 51.7502C64.7195 51.7502 63.0331 50.0675 63.0331 47.9936C63.0331 45.9197 64.7195 44.2342 66.798 44.2342C68.8765 44.2342 70.5658 45.9168 70.5658 47.9936C70.5658 50.0704 68.8794 51.7502 66.798 51.7502Z" fill="#EFC890"/>
<path d="M26.8135 79.8276C33.5607 80.7511 40.9244 81.4099 49.1364 81.4099C57.3484 81.4099 64.7107 80.7511 71.4593 79.8276C73.1151 79.6065 74.7316 79.3636 76.3145 79.1135C79.0358 78.6816 83.2789 77.9166 87.226 76.1103C92.0229 73.9113 96.3869 70.1794 97.0822 63.6349C97.3446 61.1756 97.0458 59.1002 96.4394 57.3696C94.5256 51.8692 89.5304 49.8142 89.5304 49.8142C89.5304 49.8142 89.7826 47.8829 89.6893 44.8157C89.5465 40.0629 88.5699 32.5832 84.5368 25.3362C84.2963 24.9042 84.0499 24.4796 83.8007 24.0578C82.1813 21.3454 80.3185 18.8338 78.173 16.5897C75.8962 14.209 73.3003 12.1249 70.3326 10.4218C64.9395 7.32119 58.3163 5.46253 50.1684 5.32001C49.8273 5.31419 49.4862 5.31128 49.1393 5.31128C40.5163 5.31128 33.565 7.19175 27.9431 10.4248C24.9755 12.1278 22.3795 14.209 20.1028 16.5897C17.9572 18.8338 16.0944 21.3454 14.4751 24.0578C14.2258 24.4796 13.9795 24.9057 13.739 25.3362C7.10405 37.2531 8.74383 49.8142 8.74383 49.8142C8.74383 49.8142 0.106189 53.3701 1.19209 63.6349C2.45873 75.5663 15.9297 78.1609 21.9598 79.1135C23.5456 79.3622 25.1621 79.6051 26.8179 79.8276H26.8135Z" stroke="#23211F" stroke-width="2.26177" stroke-linecap="round" stroke-linejoin="round"/>
<path d="M27.9393 10.4218C27.5034 3.82929 17.417 -2.53929 9.58244 3.53697C7.85958 4.87642 6.60897 6.54019 5.82625 8.33776C3.04664 14.7063 6.08133 22.7663 14.4697 24.0563" stroke="#23211F" stroke-width="2.26177" stroke-linecap="round" stroke-linejoin="round"/>
<path d="M70.3281 10.4218C70.7639 3.82929 80.8504 -2.53929 88.6849 3.53697C90.4078 4.87642 91.6584 6.54019 92.4411 8.33776C93.5576 10.8945 93.7384 13.7217 93.0067 16.2756C91.9208 20.0845 88.8161 23.2855 83.7962 24.0563" stroke="#23211F" stroke-width="2.26177" stroke-linecap="round" stroke-linejoin="round"/>
<path d="M53.3811 19.2556C53.3359 17.6398 52.8184 16.0822 51.6582 14.8242" stroke="#23211F" stroke-width="2.11098" stroke-linecap="round" stroke-linejoin="round"/>
<path d="M53.3798 19.2556C48.854 18.0165 46.1239 21.6524 46.449 24.628C46.8105 27.9264 50.5696 27.4741 52.2443 24.084C52.9906 22.5744 53.425 20.883 53.3798 19.2556Z" stroke="#23211F" stroke-width="2.11098" stroke-linecap="round" stroke-linejoin="round"/>
<path d="M50.1636 5.32007C43.7808 9.67874 40.2535 14.4432 38.7988 21.0154C37.5322 26.7528 40.0553 32.5527 49.1346 32.2851C57.4501 32.0364 60.5183 22.5424 54.9139 19.8403C54.3819 19.5828 53.8702 19.3909 53.3805 19.2571" stroke="#23211F" stroke-width="2.11098" stroke-linecap="round" stroke-linejoin="round"/>
<path d="M66.7991 44.2354C68.8805 44.2354 70.567 45.918 70.567 47.9948C70.567 50.0716 68.8805 51.7514 66.7991 51.7514C64.7177 51.7514 63.0342 50.0687 63.0342 47.9948C63.0342 45.9209 64.7206 44.2354 66.7991 44.2354Z" fill="#23211F"/>
<path d="M31.47 44.2354C33.5485 44.2354 35.2379 45.918 35.2379 47.9948C35.2379 50.0716 33.5485 51.7514 31.47 51.7514C29.3915 51.7514 27.7051 50.0687 27.7051 47.9948C27.7051 45.9209 29.3915 44.2354 31.47 44.2354Z" fill="#23211F"/>
<path d="M49.135 53.6946C47.3582 53.6946 46.0857 53.2234 46.246 52.1675C46.3976 51.1495 47.7226 50.6041 49.135 50.6433C50.5445 50.6041 51.868 51.1509 52.0239 52.1675C52.1828 53.2248 50.9103 53.6946 49.135 53.6946Z" fill="#23211F"/>
<path d="M45.708 56.5801L49.1348 54.864L52.5587 56.5801" stroke="#23211F" stroke-width="2.11098" stroke-linecap="round" stroke-linejoin="round"/>
<path d="M49.1348 53.4707V53.6947V54.864" stroke="#23211F" stroke-width="2.11098" stroke-linecap="round" stroke-linejoin="round"/>
<path d="M49.1343 130.72C39.5638 130.403 11.7356 131.909 11.7356 131.909C11.0199 122.472 8.74023 87.581 8.74023 87.581C20.6866 86.5499 36.1341 86.1543 49.1343 86.1543C62.1345 86.1543 77.5819 86.5513 89.5283 87.581C89.5283 87.581 87.2486 122.472 86.533 131.909C86.533 131.909 58.7048 130.403 49.1343 130.72Z" fill="white" stroke="#23211F" stroke-width="2.26177" stroke-linecap="round" stroke-linejoin="round"/>
<path d="M94.7931 110.593C94.8267 114.149 92.7598 117.63 89.4001 118.919C86.9455 119.822 84.2315 119.822 81.7959 118.79C81.446 118.649 81.105 118.487 80.7741 118.307C79.4564 117.585 78.3239 116.553 77.5266 115.279C77.3269 114.96 77.1491 114.626 76.9946 114.278C74.6683 108.864 78.2875 101.772 84.3597 101.128C89.1406 100.612 93.9215 104.223 94.662 109.04C94.745 109.553 94.7902 110.072 94.7917 110.593H94.7931Z" fill="#EFC890" stroke="#23211F" stroke-width="2.26177" stroke-linecap="round" stroke-linejoin="round"/>
<path d="M3.47403 110.593C3.44051 114.149 5.50736 117.63 8.8671 118.919C11.3217 119.822 14.0357 119.822 16.4713 118.79C16.8211 118.649 17.1622 118.487 17.4931 118.307C18.8107 117.585 19.9433 116.553 20.7406 115.279C20.9403 114.96 21.1181 114.626 21.2726 114.278C23.5989 108.864 19.9797 101.772 13.9074 101.128C9.12655 100.612 4.34567 104.223 3.60522 109.04C3.52213 109.553 3.47695 110.072 3.47549 110.593H3.47403Z" fill="#EFC890" stroke="#23211F" stroke-width="2.26177" stroke-linecap="round" stroke-linejoin="round"/>
<path d="M37.1973 97.7302L59.8481 120.331" stroke="#E30000" stroke-width="3.76961" stroke-linecap="round" stroke-linejoin="round"/>
<path d="M37.1973 120.331L59.8481 97.7302" stroke="#E30000" stroke-width="3.76961" stroke-linecap="round" stroke-linejoin="round"/>
</g>
<defs>
<clipPath id="clip0_2825_43119">
<rect width="98.2674" height="133" fill="white"/>
</clipPath>
</defs>
</svg>
