<svg width="85" height="15" viewBox="0 0 85 15" fill="none" xmlns="http://www.w3.org/2000/svg">
<path d="M4.4849 13.0757C1.87924 13.0757 0 11.7018 0 9.83837C0 8.4013 1.10543 7.2327 2.52671 7.01161V6.93265C1.29494 6.69577 0.442174 5.65351 0.442174 4.40595C0.442174 2.62146 2.1477 1.32652 4.4849 1.32652C6.82211 1.32652 8.52764 2.62146 8.54343 4.40595C8.52764 5.6693 7.65908 6.69577 6.45889 6.93265V7.01161C7.84858 7.2327 8.96981 8.4013 8.96981 9.83837C8.96981 11.7018 7.09057 13.0757 4.4849 13.0757ZM4.4849 11.2596C5.68509 11.2596 6.49048 10.5806 6.49048 9.60149C6.49048 8.6066 5.65351 7.88017 4.4849 7.88017C3.3163 7.88017 2.46354 8.6066 2.47933 9.60149C2.46354 10.5806 3.26893 11.2596 4.4849 11.2596ZM4.4849 6.20622C5.49559 6.20622 6.22202 5.55876 6.22202 4.64282C6.22202 3.75848 5.51138 3.1268 4.4849 3.1268C3.45843 3.1268 2.76359 3.74268 2.76359 4.64282C2.76359 5.55876 3.47422 6.20622 4.4849 6.20622Z" fill="#222222" fill-opacity="0.4"/>
<path d="M11.6868 13.0599C10.9446 13.0599 10.3445 12.4598 10.3603 11.7334C10.3445 11.007 10.9446 10.4227 11.6868 10.4227C12.3816 10.4227 12.9975 11.007 12.9975 11.7334C12.9975 12.4598 12.3816 13.0599 11.6868 13.0599Z" fill="#222222" fill-opacity="0.4"/>
<path d="M18.3991 1.48444V12.9178H16.0145V3.74268H15.9514L13.3299 5.38504V3.28472L16.1566 1.48444H18.3991Z" fill="#222222" fill-opacity="0.4"/>
<path d="M35.8665 0V5.84301H37.7457V7.51695H35.8665V14.3706H33.8293V0H35.8665ZM24.1963 10.3121C25.2464 10.3121 26.4703 10.3121 27.7494 10.2805V9.04877C26.2176 8.74872 25.2227 7.77752 25.2385 6.4431C25.2227 4.83233 26.6756 3.74268 28.7759 3.74268C30.8289 3.74268 32.2975 4.83233 32.3133 6.4431C32.2975 7.77752 31.2868 8.75662 29.7708 9.04877V10.2016C30.9078 10.1463 32.0527 10.0516 33.1187 9.90153L33.245 11.3702C30.1814 11.9387 26.8967 11.9545 24.4647 11.9545L24.1963 10.3121ZM33.0081 1.59498V3.17418H24.4805V1.59498H27.7494V0.0789596H29.7708V1.59498H33.0081ZM28.7759 5.2745C27.7968 5.2745 27.1335 5.70088 27.1493 6.4431C27.1335 7.20111 27.7968 7.6117 28.7759 7.6117C29.7234 7.6117 30.3709 7.20111 30.3709 6.4431C30.3709 5.70088 29.7234 5.2745 28.7759 5.2745Z" fill="#222222" fill-opacity="0.4"/>
<path d="M47.5382 1.48444V12.9178H45.1536V3.74268H45.0905L42.469 5.38504V3.28472L45.2958 1.48444H47.5382Z" fill="#222222" fill-opacity="0.4"/>
<path d="M54.519 13.0757C51.9133 13.0757 50.0341 11.7018 50.0341 9.83837C50.0341 8.4013 51.1395 7.2327 52.5608 7.01161V6.93265C51.329 6.69577 50.4763 5.65351 50.4763 4.40595C50.4763 2.62146 52.1818 1.32652 54.519 1.32652C56.8562 1.32652 58.5617 2.62146 58.5775 4.40595C58.5617 5.6693 57.6932 6.69577 56.493 6.93265V7.01161C57.8827 7.2327 59.0039 8.4013 59.0039 9.83837C59.0039 11.7018 57.1247 13.0757 54.519 13.0757ZM54.519 11.2596C55.7192 11.2596 56.5246 10.5806 56.5246 9.60149C56.5246 8.6066 55.6876 7.88017 54.519 7.88017C53.3504 7.88017 52.4976 8.6066 52.5134 9.60149C52.4976 10.5806 53.303 11.2596 54.519 11.2596ZM54.519 6.20622C55.5297 6.20622 56.2561 5.55876 56.2561 4.64282C56.2561 3.75848 55.5455 3.1268 54.519 3.1268C53.4925 3.1268 52.7977 3.74268 52.7977 4.64282C52.7977 5.55876 53.5083 6.20622 54.519 6.20622Z" fill="#222222" fill-opacity="0.4"/>
<path d="M62.0525 13.0599C61.3103 13.0599 60.7102 12.4598 60.726 11.7334C60.7102 11.007 61.3103 10.4227 62.0525 10.4227C62.7474 10.4227 63.3632 11.007 63.3632 11.7334C63.3632 12.4598 62.7474 13.0599 62.0525 13.0599ZM62.0525 7.0432C61.3103 7.0432 60.7102 6.4431 60.726 5.71667C60.7102 4.99025 61.3103 4.40595 62.0525 4.40595C62.7474 4.40595 63.3632 4.99025 63.3632 5.71667C63.3632 6.4431 62.7474 7.0432 62.0525 7.0432Z" fill="#222222" fill-opacity="0.4"/>
<path d="M69.6966 13.0757C66.8382 13.0757 65.1011 10.9438 65.1011 7.20111C65.1011 3.45843 66.8382 1.32652 69.6966 1.32652C72.5549 1.32652 74.292 3.47422 74.292 7.20111C74.292 10.9596 72.5549 13.0757 69.6966 13.0757ZM69.6966 11.1175C71.0231 11.1175 71.8758 9.83837 71.8601 7.20111C71.8601 4.59545 71.0231 3.26893 69.6966 3.26893C68.37 3.26893 67.5331 4.59545 67.5331 7.20111C67.5173 9.83837 68.37 11.1175 69.6966 11.1175Z" fill="#222222" fill-opacity="0.4"/>
<path d="M80.4042 13.0757C77.5459 13.0757 75.8088 10.9438 75.8088 7.20111C75.8088 3.45843 77.5459 1.32652 80.4042 1.32652C83.2626 1.32652 84.9997 3.47422 84.9997 7.20111C84.9997 10.9596 83.2626 13.0757 80.4042 13.0757ZM80.4042 11.1175C81.7308 11.1175 82.5835 9.83837 82.5677 7.20111C82.5677 4.59545 81.7308 3.26893 80.4042 3.26893C79.0777 3.26893 78.2407 4.59545 78.2407 7.20111C78.225 9.83837 79.0777 11.1175 80.4042 11.1175Z" fill="#222222" fill-opacity="0.4"/>
</svg>
