<svg width="288" height="75" viewBox="0 0 288 75" fill="none" xmlns="http://www.w3.org/2000/svg">
<rect width="288" height="75" rx="10" fill="white"/>
<g filter="url(#filter0_d_11_8673)">
<path d="M0 10C0 4.47715 4.47715 0 10 0H278C283.523 0 288 4.47715 288 10V65C288 70.5229 283.523 75 278 75H10C4.47715 75 0 70.5229 0 65V10Z" fill="white"/>
</g>
<path d="M0 9.64844C0 4.31975 4.31975 0 9.64844 0V75C4.31975 75 0 70.6802 0 65.3516V9.64844Z" fill="#FFE142"/>
<path d="M24.7461 22.3594C27.0312 22.3535 28.3203 22.9102 28.332 23.9648C28.3203 24.9961 27.0312 25.5352 24.7461 25.5352C22.4375 25.5352 21.1426 24.9961 21.1484 23.9648C21.1426 22.9102 22.4375 22.3535 24.7461 22.3594ZM20 21.7031V20.9648H24.2891V20.1504C22.4141 20.0801 21.3594 19.5762 21.3594 18.6797C21.3594 17.6895 22.584 17.1855 24.7461 17.1797C26.9023 17.1855 28.1211 17.6895 28.1211 18.6797C28.1211 19.5762 27.0723 20.0801 25.2031 20.1504V20.9648H29.4922V21.7031H20ZM20.4922 16.7578V16.0195H24.2891V15H25.2031V16.0195H28.9414V16.7578H20.4922ZM22.0859 23.9648C22.0918 24.5332 23.0527 24.8496 24.7461 24.8438C26.4336 24.8496 27.3945 24.5332 27.3945 23.9648C27.3945 23.373 26.4336 23.0508 24.7461 23.0508C23.0527 23.0508 22.0918 23.373 22.0859 23.9648ZM22.3438 18.6797C22.3379 19.1953 23.2168 19.4941 24.7461 19.5C26.2754 19.4941 27.1426 19.1953 27.1484 18.6797C27.1426 18.1289 26.2754 17.8301 24.7461 17.8359C23.2168 17.8301 22.3379 18.1289 22.3438 18.6797Z" fill="#222222"/>
<path d="M38.9967 15.1406V20.4727H38.0826V15.1406H38.9967ZM30.5709 19.9219C33.1842 19.3418 34.7076 18.0938 34.8717 16.418H31.0982V15.6562H35.8795C35.8736 18.3164 33.9928 19.9746 30.9107 20.6953L30.5709 19.9219ZM32.2232 21.7031V20.9648H38.9967V23.4844H33.1607V24.7266H39.3717V25.4648H32.2467V22.7812H38.0826V21.7031H32.2232Z" fill="#222222"/>
<path d="M50.2941 20.2969V21.0352H40.7902V20.2969H45.091V19.0781H41.9972V15.6328H49.1105V16.3711H42.8996V18.3281H49.1808V19.0781H45.9816V20.2969H50.2941ZM41.9386 23.6719C41.9328 22.4824 43.2863 21.8027 45.5363 21.7969C47.7687 21.8027 49.1105 22.4824 49.1222 23.6719C49.1105 24.873 47.7687 25.5469 45.5363 25.5586C43.2863 25.5469 41.9328 24.873 41.9386 23.6719ZM42.8761 23.6719C42.8644 24.4043 43.8664 24.8262 45.5363 24.8203C47.1886 24.8262 48.1906 24.4043 48.1964 23.6719C48.1906 22.9512 47.1886 22.5234 45.5363 22.5234C43.8664 22.5234 42.8644 22.9512 42.8761 23.6719Z" fill="#222222"/>
<path d="M24.0157 40.8438C21.6329 40.8438 19.9922 39.5234 20 37.6875C19.9922 36.2266 21.0079 35.0156 22.2969 34.8125V34.75C21.1719 34.4922 20.4297 33.4531 20.4375 32.2188C20.4297 30.4922 21.9454 29.2188 24.0157 29.2188C26.0782 29.2188 27.5938 30.4922 27.6094 32.2188C27.5938 33.4531 26.8438 34.4922 25.7344 34.75V34.8125C27.0157 35.0156 28.0313 36.2266 28.0469 37.6875C28.0313 39.5234 26.375 40.8438 24.0157 40.8438ZM21.4063 37.6094C21.3829 38.7969 22.3907 39.6016 24.0157 39.6094C25.6329 39.6016 26.6407 38.7969 26.6407 37.6094C26.6407 36.3594 25.5391 35.4375 24.0157 35.4375C22.5 35.4375 21.3829 36.3594 21.4063 37.6094ZM21.7969 32.3281C21.8047 33.4688 22.7188 34.2422 24.0157 34.25C25.3047 34.2422 26.2344 33.4688 26.2344 32.3281C26.2344 31.1953 25.336 30.4297 24.0157 30.4375C22.6719 30.4297 21.8047 31.1953 21.7969 32.3281Z" fill="#222222"/>
<path d="M34.0164 28.8438L30.3602 42.3906H29.1414L32.782 28.8438H34.0164Z" fill="#222222"/>
<path d="M39.3453 29.375V40.6875H37.9234V30.8438H37.8609L35.1109 32.6719V31.25L37.9234 29.375H39.3453Z" fill="#222222"/>
<path d="M46.3304 40.8438C44.3695 40.8203 42.2054 39.6562 42.2054 35.4688C42.2054 31.4609 43.846 29.2188 46.5023 29.2188C48.4945 29.2188 49.8851 30.4453 50.1742 32.2188H48.7835C48.5257 31.2188 47.7601 30.4688 46.5023 30.4688C44.6429 30.4688 43.5257 32.0547 43.5335 34.7812H43.6742C44.3226 33.8359 45.3617 33.2812 46.5804 33.2812C48.5882 33.2812 50.2679 34.8438 50.2679 37.0312C50.2679 39.1641 48.7132 40.8672 46.3304 40.8438ZM43.721 37.0625C43.7289 38.3906 44.8148 39.6016 46.3304 39.6094C47.7914 39.6016 48.9007 38.4531 48.9085 37.0469C48.9007 35.6562 47.8382 34.5234 46.3617 34.5156C44.8773 34.5234 43.7367 35.7266 43.721 37.0625Z" fill="#222222"/>
<path d="M56.6444 36.375C56.66 33.4297 57.4569 30.9766 58.8944 28.8906H60.0819C59.0272 30.4297 58.0429 33.5938 58.035 36.375C58.0429 39.1641 59.0272 42.3203 60.0819 43.875H58.8944C57.4569 41.7812 56.66 39.3281 56.6444 36.375Z" fill="#222222"/>
<path d="M68.2389 29.3594C68.2467 31.3203 70.7936 33.0078 73.3014 33.3594L72.8014 34.3594C70.6452 34 68.5045 32.8047 67.6139 31.1016C66.7233 32.8203 64.5905 34 62.4264 34.3594L61.9264 33.3594C64.4342 33.0078 66.9733 31.3516 66.9733 29.3594V28.5625H68.2389V29.3594ZM61.2702 36.9219V35.8906H73.9264V36.9219H68.1764V41.9531H66.9733V36.9219H61.2702Z" fill="#222222"/>
<path d="M78.599 36.375C78.5834 39.3281 77.7865 41.7812 76.349 43.875H75.1615C76.2162 42.3203 77.2006 39.1641 77.2084 36.375C77.2006 33.5938 76.2162 30.4297 75.1615 28.8906H76.349C77.7865 30.9766 78.5834 33.4297 78.599 36.375Z" fill="#222222"/>
<path d="M89.163 29.375V40.6875H87.7412V30.8438H87.6787L84.9287 32.6719V31.25L87.7412 29.375H89.163Z" fill="#222222"/>
<path d="M95.8982 40.8438C93.8591 40.8438 92.3122 39.5859 92.2263 37.8438H93.5857C93.6872 38.8516 94.6716 39.6016 95.8982 39.6094C97.3669 39.6016 98.4294 38.5312 98.4294 37.1094C98.4294 35.6406 97.3279 34.5547 95.8044 34.5469C94.8513 34.5312 94.1091 34.8281 93.695 35.5625H92.3357L93.1325 29.375H99.2575V30.625H94.3044L93.8825 33.9375H93.9919C94.4997 33.5469 95.2575 33.2812 96.0544 33.2812C98.2107 33.2812 99.7966 34.875 99.8044 37.0781C99.7966 39.2656 98.156 40.8438 95.8982 40.8438Z" fill="#222222"/>
<path d="M102.758 40.7812C102.211 40.7734 101.743 40.3203 101.758 39.7656C101.743 39.2188 102.211 38.7656 102.758 38.7656C103.313 38.7656 103.766 39.2188 103.758 39.7656C103.766 40.3203 103.313 40.7734 102.758 40.7812ZM101.758 33.4844C101.743 32.9375 102.211 32.4844 102.758 32.4844C103.313 32.4844 103.766 32.9375 103.758 33.4844C103.766 34.0391 103.313 34.4922 102.758 34.5C102.211 34.4922 101.743 34.0391 101.758 33.4844Z" fill="#222222"/>
<path d="M105.884 40.6875L105.868 39.6562L109.728 35.5938C111.064 34.1719 111.704 33.4062 111.712 32.3594C111.704 31.1953 110.736 30.4453 109.462 30.4375C108.111 30.4453 107.267 31.2969 107.259 32.5625H105.931C105.915 30.5625 107.462 29.2188 109.509 29.2188C111.564 29.2188 113.017 30.6016 113.025 32.3594C113.017 33.625 112.431 34.6094 110.431 36.6719L107.837 39.3438V39.4375H113.228V40.6875H105.884Z" fill="#222222"/>
<path d="M119.01 40.8438C116.502 40.8438 115.049 38.7344 115.057 35.0312C115.049 31.3594 116.518 29.2188 119.01 29.2188C121.494 29.2188 122.963 31.3594 122.963 35.0312C122.963 38.7344 121.518 40.8438 119.01 40.8438ZM116.416 35.0312C116.424 37.9609 117.369 39.5938 119.01 39.5938C120.643 39.5938 121.596 37.9609 121.588 35.0312C121.596 32.1016 120.635 30.4453 119.01 30.4375C117.385 30.4453 116.424 32.1016 116.416 35.0312Z" fill="#222222"/>
<path d="M129.371 36.0469C129.878 35.4609 130.496 35.1641 131.183 35.1562C132.371 35.1641 133.449 36.0547 134.589 36.0625C135.293 36.0547 135.902 35.7266 136.371 35.0781V36.375C135.855 36.9609 135.246 37.2656 134.558 37.2656C133.371 37.2656 132.285 36.3672 131.136 36.3594C130.449 36.3672 129.847 36.6953 129.371 37.3438V36.0469Z" fill="#222222"/>
<path d="M146.81 40.8438C144.427 40.8438 142.786 39.5234 142.794 37.6875C142.786 36.2266 143.802 35.0156 145.091 34.8125V34.75C143.966 34.4922 143.224 33.4531 143.232 32.2188C143.224 30.4922 144.739 29.2188 146.81 29.2188C148.872 29.2188 150.388 30.4922 150.403 32.2188C150.388 33.4531 149.638 34.4922 148.528 34.75V34.8125C149.81 35.0156 150.825 36.2266 150.841 37.6875C150.825 39.5234 149.169 40.8438 146.81 40.8438ZM144.2 37.6094C144.177 38.7969 145.185 39.6016 146.81 39.6094C148.427 39.6016 149.435 38.7969 149.435 37.6094C149.435 36.3594 148.333 35.4375 146.81 35.4375C145.294 35.4375 144.177 36.3594 144.2 37.6094ZM144.591 32.3281C144.599 33.4688 145.513 34.2422 146.81 34.25C148.099 34.2422 149.028 33.4688 149.028 32.3281C149.028 31.1953 148.13 30.4297 146.81 30.4375C145.466 30.4297 144.599 31.1953 144.591 32.3281Z" fill="#222222"/>
<path d="M156.81 28.8438L153.154 42.3906H151.935L155.576 28.8438H156.81Z" fill="#222222"/>
<path d="M162.139 29.375V40.6875H160.717V30.8438H160.655L157.905 32.6719V31.25L160.717 29.375H162.139Z" fill="#222222"/>
<path d="M165.546 40.6875L170.734 30.7031V30.625H164.749V29.375H172.187V30.6875L167.015 40.6875H165.546Z" fill="#222222"/>
<path d="M174.406 36.375C174.422 33.4297 175.219 30.9766 176.656 28.8906H177.844C176.789 30.4297 175.805 33.5938 175.797 36.375C175.805 39.1641 176.789 42.3203 177.844 43.875H176.656C175.219 41.7812 174.422 39.3281 174.406 36.375Z" fill="#222222"/>
<path d="M190.079 28.6562V33.3438H185.97V35.125H191.688V36.125H179.032V35.125H184.751V33.3438H180.673V28.6562H190.079ZM180.438 38.5625V37.5781H190.126V41.9531H188.892V38.5625H180.438ZM181.876 32.3594H188.86V29.6406H181.876V32.3594Z" fill="#222222"/>
<path d="M196.361 36.375C196.345 39.3281 195.549 41.7812 194.111 43.875H192.924C193.978 42.3203 194.963 39.1641 194.97 36.375C194.963 33.5938 193.978 30.4297 192.924 28.8906H194.111C195.549 30.9766 196.345 33.4297 196.361 36.375Z" fill="#222222"/>
<path d="M206.925 29.375V40.6875H205.503V30.8438H205.441L202.691 32.6719V31.25L205.503 29.375H206.925Z" fill="#222222"/>
<path d="M209.691 38.375V37.2188L214.785 29.375H216.52V37.1406H218.098V38.375H216.52V40.6875H215.176V38.375H209.691ZM211.207 37.1406H215.176V31.1562H215.035L211.207 37.0469V37.1406Z" fill="#222222"/>
<path d="M220.958 40.7812C220.411 40.7734 219.942 40.3203 219.958 39.7656C219.942 39.2188 220.411 38.7656 220.958 38.7656C221.512 38.7656 221.966 39.2188 221.958 39.7656C221.966 40.3203 221.512 40.7734 220.958 40.7812ZM219.958 33.4844C219.942 32.9375 220.411 32.4844 220.958 32.4844C221.512 32.4844 221.966 32.9375 221.958 33.4844C221.966 34.0391 221.512 34.4922 220.958 34.5C220.411 34.4922 219.942 34.0391 219.958 33.4844Z" fill="#222222"/>
<path d="M227.787 40.8438C225.279 40.8438 223.826 38.7344 223.834 35.0312C223.826 31.3594 225.294 29.2188 227.787 29.2188C230.271 29.2188 231.74 31.3594 231.74 35.0312C231.74 38.7344 230.294 40.8438 227.787 40.8438ZM225.193 35.0312C225.201 37.9609 226.146 39.5938 227.787 39.5938C229.419 39.5938 230.373 37.9609 230.365 35.0312C230.373 32.1016 229.412 30.4453 227.787 30.4375C226.162 30.4453 225.201 32.1016 225.193 35.0312Z" fill="#222222"/>
<path d="M237.35 40.8438C234.842 40.8438 233.389 38.7344 233.397 35.0312C233.389 31.3594 234.858 29.2188 237.35 29.2188C239.834 29.2188 241.303 31.3594 241.303 35.0312C241.303 38.7344 239.858 40.8438 237.35 40.8438ZM234.756 35.0312C234.764 37.9609 235.709 39.5938 237.35 39.5938C238.983 39.5938 239.936 37.9609 239.928 35.0312C239.936 32.1016 238.975 30.4453 237.35 30.4375C235.725 30.4453 234.764 32.1016 234.756 35.0312Z" fill="#222222"/>
<defs>
<filter id="filter0_d_11_8673" x="-8" y="-8" width="308" height="95" filterUnits="userSpaceOnUse" color-interpolation-filters="sRGB">
<feFlood flood-opacity="0" result="BackgroundImageFix"/>
<feColorMatrix in="SourceAlpha" type="matrix" values="0 0 0 0 0 0 0 0 0 0 0 0 0 0 0 0 0 0 127 0" result="hardAlpha"/>
<feOffset dx="2" dy="2"/>
<feGaussianBlur stdDeviation="5"/>
<feComposite in2="hardAlpha" operator="out"/>
<feColorMatrix type="matrix" values="0 0 0 0 0 0 0 0 0 0 0 0 0 0 0 0 0 0 0.1 0"/>
<feBlend mode="normal" in2="BackgroundImageFix" result="effect1_dropShadow_11_8673"/>
<feBlend mode="normal" in="SourceGraphic" in2="effect1_dropShadow_11_8673" result="shape"/>
</filter>
</defs>
</svg>
