<svg width="120" height="59" viewBox="0 0 120 59" fill="none" xmlns="http://www.w3.org/2000/svg">
<path d="M110.144 23.0721L105.461 19.78C93.622 12.083 83.4056 7.38437 69.3717 7.38437C55.0595 7.38437 44.3331 11.882 32.7257 20.2282L27.6561 23.8758C27.6561 23.8758 72.8956 24.3704 115.77 25.3905C113.746 25.035 111.829 24.2468 110.144 23.0721Z" fill="#FFF2CF"/>
<path d="M107.262 25.4052C74.542 24.6787 41.7445 24.2614 29.8589 24.1223L31.219 23.164C43.8311 14.246 54.3565 10.5984 67.5714 10.5984C81.6208 10.5984 91.6981 15.2506 103.414 22.7467L107.262 25.4052Z" fill="#E6FFFF"/>
<path d="M40.2436 16.1092C42.0674 17.6857 44.1076 19.3395 43.6903 26.0165C40.3982 25.2746 37.307 23.6672 37.1215 20.7151C36.8897 17.1293 40.2436 16.1092 40.2436 16.1092Z" fill="#FC9268"/>
<path d="M67.0857 7.87725C66.6065 8.18637 66.0347 8.40275 65.3855 8.51095C64.7673 7.69178 63.7781 6.51713 62.7271 5.89889H62.6653C63.0517 5.28066 63.8245 4.13692 66.0038 3.39503C66.6529 3.13228 66.6993 3.19411 68.6313 2.90044C69.3268 4.69333 68.7858 6.81079 67.0702 7.87725H67.0857Z" fill="#FFF3C5"/>
<path d="M43.7611 5.70558C43.6529 5.81378 43.5447 5.93742 43.452 6.06107C42.9883 6.60203 42.5865 7.12753 42.231 7.63757C39.4644 7.22026 38.4134 4.90188 38.9852 2.89261C40.4845 3.1399 41.18 3.46447 41.18 3.46447C42.8183 4.1909 43.6375 5.45829 43.7611 5.70558Z" fill="#FFF3C5"/>
<path d="M77.973 17.993C78.1739 18.3485 78.3285 18.9822 78.2203 19.5695C77.803 19.7086 77.3548 19.755 76.9065 19.7395C76.0255 19.7086 75.2682 18.5803 75.9483 17.7766C76.6438 16.942 77.6175 17.3284 77.9884 17.993H77.973Z" fill="#F8C788"/>
<path d="M52.4198 30.8524C57.8139 31.0843 58.8031 37.9003 58.5713 41.2388C58.4013 43.9127 58.1385 45.1492 56.3302 46.8648C56.3302 46.8648 55.2637 47.1275 54.46 47.6839L54.3827 47.6376C52.2034 48.1167 49.7614 47.4985 49.7614 47.4985C46.3147 45.9529 45.341 43.6963 45.341 40.5433C45.341 37.3903 47.0257 30.6206 52.4198 30.8524Z" fill="#FFF3C5"/>
<path d="M42.1903 38.6726C39.6091 38.4408 39.7328 35.0405 41.2938 32.413C42.2985 30.7283 43.7513 28.6417 46.317 26.4315C49.4545 26.7716 53.2567 26.9261 56.5488 26.6788C58.3108 26.5552 59.9182 26.3079 61.2165 25.9369C61.402 25.8906 61.5874 25.8287 61.7575 25.7669C63.0248 27.0961 64.8332 30.1564 65.5133 32.3202C66.2088 34.4841 66.657 36.9416 65.6524 38.1935C65.3278 38.5953 64.8332 38.889 64.2922 38.8735C64.385 39.4918 64.4623 40.0482 64.4932 40.5582C64.7559 43.6031 64.1531 44.8241 63.6431 45.566C62.7466 46.9261 61.6184 47.0652 61.1701 47.1734C61.1701 47.1734 62.0511 49.5072 60.7219 49.8936C59.2072 50.3418 53.9059 50.8519 53.5658 49.229C53.4267 48.5799 53.8595 48.0698 54.4159 47.6834C55.2196 47.127 56.2861 46.8643 56.2861 46.8643C58.0944 45.1486 58.3572 43.9122 58.5272 41.2383C58.7436 37.8998 57.7544 31.0838 52.3757 30.8519C46.9816 30.6201 45.2969 37.3898 45.2969 40.5428C45.2969 43.6958 46.2861 45.9524 49.7173 47.4979C50.1501 48.1007 50.5674 49.6154 49.2382 50.0173C47.7235 50.4655 42.7621 50.62 42.3139 49.1363C41.8348 47.5752 44.8796 46.8488 44.8796 46.8488C43.0558 46.3233 41.2475 43.5721 42.0512 39.0899C42.0821 38.9508 42.0975 38.8117 42.1284 38.6726H42.1903Z" fill="#F8C788"/>
<path d="M67.6066 21.7261C66.7566 23.0553 65.5974 24.0291 64.1909 24.7864C63.449 25.1728 62.6453 25.5128 61.7643 25.791C61.5788 25.8529 61.4088 25.8992 61.2234 25.961C59.9251 26.332 58.3022 26.5793 56.5557 26.7029C53.7427 23.4881 55.6747 18.5886 58.8586 17.3212C64.0209 15.2501 67.6066 19.145 67.6066 21.757V21.7261Z" fill="#FC9268"/>
<path d="M78.1972 19.5739C78.3209 18.9866 78.1509 18.3529 77.9499 17.9974C77.579 17.3328 76.6053 16.9464 75.9098 17.781C75.2297 18.5848 75.987 19.713 76.868 19.7439C77.3317 19.7594 77.7799 19.713 78.1818 19.5739H78.1972ZM73.6841 25.7872C74.0551 26.5136 74.4724 27.271 74.9206 28.0901C78.2745 34.1643 77.409 38.6775 75.0288 41.9541C73.2359 44.4116 69.5265 46.9 63.6687 45.5863C64.1633 44.8289 64.766 43.6234 64.5187 40.5785H64.5806C67.3163 39.9912 68.1354 38.121 68.4291 37.1319C68.7382 36.0809 68.9082 34.3189 67.4863 31.2895C66.8062 29.8521 65.1061 27.6728 64.1787 24.7826C65.5852 24.0407 66.7444 23.0515 67.5945 21.7223C68.4909 20.3313 69.0319 18.5538 69.171 16.2664C69.341 13.2525 68.5991 10.7022 67.5327 8.69297L67.5945 8.66205C69.2173 6.77643 72.3704 4.59715 75.9252 4.98354C79.4646 5.36994 82.5867 6.86917 85.0288 10.7795C87.5017 14.7517 87.1617 20.1767 84.1169 23.6079C81.4894 26.5446 78.3209 27.101 73.6686 25.7563L73.6841 25.7872Z" fill="#F8C788"/>
<mask id="mask0_2731_30775" style="mask-type:luminance" maskUnits="userSpaceOnUse" x="63" y="4" width="24" height="42">
<path d="M78.1972 19.5661C78.3209 18.9788 78.1509 18.3451 77.9499 17.9896C77.579 17.325 76.6053 16.9386 75.9098 17.7732C75.2297 18.5769 75.987 19.7052 76.868 19.7361C77.3317 19.7516 77.7799 19.7052 78.1818 19.5661H78.1972ZM73.6841 25.7794C74.0551 26.5058 74.4724 27.2631 74.9206 28.0823C78.2745 34.1565 77.409 38.6696 75.0288 41.9463C73.2359 44.4038 69.5265 46.8922 63.6687 45.5784C64.1633 44.8211 64.766 43.6155 64.5187 40.5707H64.5806C67.3163 39.9834 68.1354 38.1132 68.4291 37.124C68.7382 36.073 68.9082 34.311 67.4863 31.2817C66.8062 29.8443 65.1061 27.665 64.1787 24.7747C65.5852 24.0329 66.7444 23.0437 67.5945 21.7145C68.4909 20.3234 69.0319 18.546 69.171 16.2585C69.341 13.2446 68.5991 10.6944 67.5327 8.68513L67.5945 8.65421C69.2173 6.76859 72.3704 4.58931 75.9252 4.9757C79.4646 5.3621 82.5867 6.86133 85.0288 10.7717C87.5017 14.7438 87.1617 20.1689 84.1169 23.6001C81.4894 26.5367 78.3209 27.0931 73.6686 25.7485L73.6841 25.7794Z" fill="white"/>
</mask>
<g mask="url(#mask0_2731_30775)">
<g style="mix-blend-mode:multiply" opacity="0.5">
<path d="M66.9763 4.94643C70.2066 6.18291 71.9995 13.0917 71.6131 17.2803C71.2112 21.6852 67.7955 27.6666 63.1278 28.053L65.8789 17.3575L66.9763 4.94643Z" fill="#F8C788"/>
</g>
</g>
<path d="M41.2018 3.47059C41.2018 3.47059 40.4908 3.13056 39.0071 2.89872C39.2234 2.09501 39.7026 1.35313 40.4135 0.796712C42.9483 -1.18165 46.225 0.889447 46.3641 3.03782L46.5341 3.26966C45.514 3.99609 44.6021 4.83071 43.7984 5.72715C43.6747 5.47986 42.8556 4.21247 41.2173 3.48604L41.2018 3.47059Z" fill="#F8C788"/>
<path d="M49.4154 6.52532C49.3072 6.75716 49.2454 7.08173 49.6009 7.34448C49.7709 7.46813 49.9409 7.49904 50.1419 7.45267C50.5282 7.35994 50.8837 6.97354 51.0383 6.64896C51.1774 6.33985 51.2856 6.01527 51.332 5.67524C51.2238 5.67524 51.131 5.65979 51.0383 5.65979C50.25 5.65979 49.6473 6.06164 49.4154 6.54077V6.52532Z" fill="#F8C788"/>
<path d="M67.5512 8.71569C67.3967 8.42203 67.2421 8.14382 67.0721 7.88107C66.593 8.19019 66.0211 8.40657 65.372 8.51477C64.7537 7.6956 63.7645 6.52095 62.7135 5.90271H62.6517C63.0381 5.28448 63.8109 4.14074 65.9902 3.39885C66.6393 3.1361 66.6857 3.19793 68.6177 2.90426C68.3395 2.17784 67.8604 1.51323 67.1648 0.972274C64.9237 -0.774245 61.7707 0.276758 60.6734 2.25512C58.9423 1.46686 56.7321 0.894995 53.8109 0.894995C52.9145 0.894995 52.0644 1.00319 51.2607 1.1732C51.2607 1.1732 51.2452 1.20411 51.2298 1.21957C49.2051 2.4715 47.2576 3.92436 46.7167 6.1191C46.4848 7.07736 46.6703 8.02018 47.2267 8.65387C47.8295 9.33393 48.8341 9.62759 50.1324 9.47303C50.4879 9.42667 50.8125 9.33393 51.1061 9.17937H52.4353C51.8944 9.75124 51.1525 10.1685 50.2251 10.2767C49.9624 10.3077 49.7151 10.3231 49.4833 10.3231C47.9686 10.3231 47.1031 9.73578 46.6239 9.19483C45.8975 8.37566 45.6502 7.15464 45.9439 5.93363C46.3457 4.31075 47.3967 3.05882 48.6796 2.02328C47.9068 2.37876 47.1803 2.79607 46.5003 3.27521C45.4802 4.00164 44.5683 4.83626 43.7646 5.7327C43.6564 5.84089 43.5482 5.96454 43.4555 6.08819C42.9918 6.62914 42.5899 7.15464 42.2344 7.66469C40.3643 10.3849 39.916 12.9042 40.2406 16.15C42.0644 17.7265 44.1046 19.3803 43.6873 26.0572C44.3983 26.2118 45.1402 26.3354 45.8511 26.4282C46.0057 26.4436 46.1602 26.4591 46.3303 26.4745C49.4678 26.8146 53.27 26.9537 56.5621 26.7218C53.7491 23.507 55.6811 18.6075 58.865 17.3401C64.0273 15.269 67.6131 19.1639 67.6131 21.7759C68.5095 20.3849 69.0505 18.6075 69.1896 16.32C69.3596 13.3061 68.6177 10.7559 67.5512 8.7466V8.71569ZM44.3674 16.7373C43.6718 16.7373 43.1154 16.1809 43.1154 15.4854C43.1154 14.7899 43.6718 14.2335 44.3674 14.2335C45.0629 14.2335 45.6193 14.7899 45.6193 15.4854C45.6193 16.1809 45.0629 16.7373 44.3674 16.7373ZM48.5559 17.3865C47.9686 17.3865 47.5358 17.2319 47.5976 16.8764C47.644 16.5364 48.0922 16.3509 48.5559 16.3664C49.0196 16.3664 49.4678 16.5364 49.5142 16.8764C49.5605 17.2319 49.1432 17.3865 48.5559 17.3865ZM49.1123 8.02018C48.525 7.58741 48.355 6.87644 48.6641 6.19638C48.8032 5.91817 49.035 5.67087 49.3133 5.45449V8.11291C49.3133 8.11291 49.1741 8.05109 49.1123 8.00472V8.02018ZM54.6301 16.7373C53.9346 16.7373 53.3782 16.1809 53.3782 15.4854C53.3782 14.7899 53.9346 14.2335 54.6301 14.2335C55.3256 14.2335 55.882 14.7899 55.882 15.4854C55.882 16.1809 55.3256 16.7373 54.6301 16.7373Z" fill="#F8C788"/>
<path d="M80.3416 16.4272C80.1716 15.0825 78.9351 13.9079 77.3122 13.5524C75.3493 13.1196 73.4792 14.0006 72.3045 15.8708C70.4034 18.9465 71.2071 21.7904 73.3401 25.9326C73.711 26.659 74.1283 27.4318 74.592 28.251C77.4359 33.3823 77.4822 37.8954 74.7311 41.6821C73.6183 43.2123 70.3261 46.6126 63.7883 45.1443C63.5564 45.0979 63.3555 45.237 63.3092 45.4534C63.2628 45.6698 63.4019 45.8862 63.6183 45.9325C64.7929 46.1953 65.8903 46.3189 66.8795 46.3189C71.7481 46.3189 74.3911 43.5369 75.3957 42.1613C78.3478 38.1118 78.3169 33.305 75.303 27.8646C74.8547 27.0454 74.4374 26.288 74.0665 25.5616C72.0263 21.5894 71.2844 19.0547 73 16.2881C73.9737 14.7116 75.5193 13.9851 77.1422 14.3252C78.425 14.6034 79.4142 15.4998 79.5379 16.5044C79.677 17.5864 79.3369 18.3901 78.6414 18.8537C78.5951 18.4055 78.4714 18.0037 78.3323 17.7564C78.0541 17.2463 77.5441 16.9063 77.0031 16.8599C76.4931 16.8136 75.9985 17.0299 75.6275 17.4782C75.2566 17.9264 75.1793 18.5137 75.4111 19.0701C75.6739 19.6729 76.2612 20.0902 76.8795 20.1211C76.9413 20.1211 77.0186 20.1211 77.0804 20.1211C77.2349 20.1211 77.3586 20.0748 77.5132 20.0593C77.2813 20.3066 76.9567 20.4612 76.4931 20.523C76.2767 20.5539 76.1067 20.7548 76.1376 20.9712C76.1685 21.1721 76.3385 21.3267 76.5394 21.3267C76.5549 21.3267 76.5703 21.3267 76.5858 21.3267C77.9459 21.1721 78.4096 20.3839 78.5796 19.812C79.8934 19.2711 80.558 18.0655 80.357 16.4272H80.3416ZM76.9104 19.3174C76.6012 19.3174 76.2921 19.0701 76.1376 18.7456C76.0603 18.5601 75.9985 18.2819 76.2303 18.0037C76.4158 17.7873 76.6167 17.6636 76.8485 17.6636C76.864 17.6636 76.8949 17.6636 76.9104 17.6636C77.1886 17.6946 77.4668 17.88 77.6059 18.1582C77.745 18.4055 77.8532 18.8074 77.8377 19.2247C77.5441 19.2865 77.2195 19.3174 76.8949 19.302L76.9104 19.3174Z" fill="#705842"/>
<path d="M45.9557 5.9047C45.662 7.12572 45.9093 8.33128 46.6357 9.1659C47.1149 9.70686 47.9804 10.2942 49.4951 10.2942C49.7269 10.2942 49.9742 10.2942 50.237 10.2478C52.1381 10.0314 53.2818 8.48584 53.39 7.12572C53.4673 6.18291 53.019 5.44102 52.1844 5.07008C52.1844 4.56004 52.1381 4.03454 51.9835 3.49358C51.9217 3.2772 51.6898 3.15355 51.4735 3.23083C51.2571 3.29265 51.1334 3.52449 51.1952 3.74087C51.3034 4.11182 51.3498 4.48276 51.3653 4.8537C50.0979 4.73005 49.0623 5.3792 48.6914 6.16745C48.3668 6.84751 48.5523 7.55849 49.1396 7.99125C49.4024 8.17672 49.6806 8.26946 49.9742 8.26946C50.0979 8.26946 50.2215 8.254 50.3606 8.22309C51.0252 8.05308 51.5507 7.48121 51.7826 6.97116C51.9371 6.64659 52.0299 6.2911 52.1071 5.92016C52.5554 6.22928 52.6172 6.73932 52.6017 7.04844C52.509 8.08399 51.5816 9.25864 50.1597 9.42865C48.8614 9.58321 47.8568 9.28955 47.254 8.60949C46.6976 7.99125 46.5121 7.03299 46.7439 6.07472C47.2849 3.89543 49.2323 2.42712 51.2571 1.17519C51.2725 1.17519 51.2725 1.14428 51.288 1.12882C51.1334 1.15973 50.9789 1.17519 50.8398 1.2061C50.0824 1.39157 49.3714 1.65432 48.7068 1.96344C47.424 2.99899 46.3575 4.25092 45.9711 5.87379L45.9557 5.9047ZM51.0407 6.63113C50.8861 6.95571 50.5306 7.3421 50.1442 7.43484C49.9433 7.48121 49.7733 7.4503 49.6033 7.32665C49.2478 7.07935 49.3096 6.73932 49.4178 6.50748C49.6497 6.02835 50.2524 5.6265 51.0407 5.6265C51.1334 5.6265 51.2416 5.6265 51.3343 5.64195C51.2725 5.98198 51.1798 6.30656 51.0407 6.61568V6.63113Z" fill="#705842"/>
<path d="M54.6593 14.2043C55.3548 14.2043 55.9112 14.7608 55.9112 15.4563C55.9112 16.1518 55.3548 16.7082 54.6593 16.7082C53.9638 16.7082 53.4074 16.1518 53.4074 15.4563C53.4074 14.7608 53.9638 14.2043 54.6593 14.2043Z" fill="#705842"/>
<path d="M48.5863 17.3654C47.999 17.3654 47.5662 17.2108 47.628 16.8553C47.6744 16.5153 48.1226 16.3298 48.5863 16.3453C49.05 16.3453 49.4982 16.5153 49.5446 16.8553C49.5909 17.2108 49.1736 17.3654 48.5863 17.3654Z" fill="#705842"/>
<path d="M44.3823 14.2043C45.0778 14.2043 45.6343 14.7608 45.6343 15.4563C45.6343 16.1518 45.0778 16.7082 44.3823 16.7082C43.6868 16.7082 43.1304 16.1518 43.1304 15.4563C43.1304 14.7608 43.6868 14.2043 44.3823 14.2043Z" fill="#705842"/>
<path d="M49.894 17.9598L48.9821 17.4961V17.2797C48.9821 17.0634 48.7966 16.9088 48.5802 16.9088C48.3638 16.9088 48.1784 17.1252 48.1784 17.357V17.4961L47.2665 17.9598C47.0655 18.0525 46.9883 18.2998 47.081 18.5008C47.1892 18.7017 47.421 18.779 47.622 18.6862L48.5802 18.2071L49.5385 18.6862C49.5385 18.6862 49.6621 18.7326 49.724 18.7326C49.8785 18.7326 50.0176 18.6553 50.0795 18.5162C50.1722 18.3153 50.0949 18.068 49.894 17.9753V17.9598Z" fill="#705842"/>
<path d="M40.8061 37.157C35.2419 37.157 30.7134 32.6284 30.7134 27.0642C30.7134 21.5001 35.2419 16.9715 40.8061 16.9715C46.3702 16.9715 50.8988 21.5001 50.8988 27.0642C50.8988 32.6284 46.3702 37.157 40.8061 37.157ZM40.8061 21.4383C37.6994 21.4383 35.1647 23.9731 35.1647 27.0797C35.1647 30.1863 37.6994 32.7211 40.8061 32.7211C43.9127 32.7211 46.4475 30.1863 46.4475 27.0797C46.4475 23.9731 43.9127 21.4383 40.8061 21.4383Z" fill="#4B515E"/>
<path d="M45.245 27.0103C47.2079 28.7105 50.7164 29.0196 51.9683 26.9331C53.2357 24.8465 52.2929 22.6672 50.6546 21.8326C49.0163 20.998 46.5279 20.9671 45.2141 21.9099C43.9003 22.8527 43.2667 25.3102 45.245 27.0103Z" fill="#F8C788"/>
<mask id="mask1_2731_30775" style="mask-type:luminance" maskUnits="userSpaceOnUse" x="43" y="21" width="10" height="8">
<path d="M45.245 27.0025C47.2079 28.7027 50.7164 29.0118 51.9683 26.9252C53.2357 24.8387 52.2929 22.6594 50.6546 21.8248C49.0163 20.9902 46.5279 20.9592 45.2141 21.9021C43.9003 22.8449 43.2667 25.3024 45.245 27.0025Z" fill="white"/>
</mask>
<g mask="url(#mask1_2731_30775)">
<g style="mix-blend-mode:multiply" opacity="0.5">
<path d="M46.4696 20.6519C47.5206 20.8683 50.4418 21.9502 51.1218 23.9286C51.8019 25.9069 51.6782 28.5035 50.9054 29.2918L54.553 24.6859L53.0847 19.8328L46.4541 20.6519H46.4696Z" fill="#F8C788"/>
</g>
</g>
<path d="M35.3104 26.106C33.0848 27.157 29.9627 26.446 29.5454 24.0967C29.1281 21.7474 30.6273 19.9545 32.2965 19.6299C33.9658 19.3053 36.1141 20.0009 36.9488 21.2683C37.7834 22.5356 37.5361 25.055 35.3104 26.0905V26.106Z" fill="#F8C788"/>
<path d="M27.6561 23.9012L115.77 25.4159C72.8956 24.3958 27.6561 23.9012 27.6561 23.9012Z" fill="#FFF2CF"/>
<path d="M27.508 34.2723H22.423C17.4307 34.2723 13.3812 39.6664 13.3812 46.3124C13.3812 52.9585 17.4307 58.3526 22.423 58.3526H27.508C32.5002 58.3526 35.0504 52.9585 35.0504 46.3124C35.0504 39.6664 32.5002 34.2723 27.508 34.2723Z" fill="#4B515E"/>
<path d="M51.7488 58.3526C56.7424 58.3526 60.7905 52.962 60.7905 46.3124C60.7905 39.6628 56.7424 34.2723 51.7488 34.2723C46.7552 34.2723 42.7071 39.6628 42.7071 46.3124C42.7071 52.962 46.7552 58.3526 51.7488 58.3526Z" fill="#4B515E"/>
<path d="M56.834 58.3371H51.749L46.5404 52.9894L51.749 34.2723H56.834V58.3371Z" fill="#4B515E"/>
<path d="M56.8363 58.3526C61.8299 58.3526 65.878 52.962 65.878 46.3124C65.878 39.6628 61.8299 34.2723 56.8363 34.2723C51.8427 34.2723 47.7946 39.6628 47.7946 46.3124C47.7946 52.962 51.8427 58.3526 56.8363 58.3526Z" fill="#4B515E"/>
<path d="M55.4221 52.1348C57.8292 52.1348 59.7806 49.4084 59.7806 46.0452C59.7806 42.682 57.8292 39.9556 55.4221 39.9556C53.0149 39.9556 51.0635 42.682 51.0635 46.0452C51.0635 49.4084 53.0149 52.1348 55.4221 52.1348Z" fill="white"/>
<path d="M101.817 58.3526C106.81 58.3526 110.858 52.962 110.858 46.3124C110.858 39.6628 106.81 34.2723 101.817 34.2723C96.8231 34.2723 92.775 39.6628 92.775 46.3124C92.775 52.962 96.8231 58.3526 101.817 58.3526Z" fill="#4B515E"/>
<path d="M106.902 58.3371H101.817L96.6083 52.9894L101.817 34.2723H106.902V58.3371Z" fill="#4B515E"/>
<path d="M106.904 58.3526C111.898 58.3526 115.946 52.962 115.946 46.3124C115.946 39.6628 111.898 34.2723 106.904 34.2723C101.911 34.2723 97.8626 39.6628 97.8626 46.3124C97.8626 52.962 101.911 58.3526 106.904 58.3526Z" fill="#4B515E"/>
<path d="M105.49 52.1348C107.897 52.1348 109.849 49.4084 109.849 46.0452C109.849 42.682 107.897 39.9556 105.49 39.9556C103.083 39.9556 101.131 42.682 101.131 46.0452C101.131 49.4084 103.083 52.1348 105.49 52.1348Z" fill="white"/>
<path d="M83.6433 34.0214H78.5583C73.566 34.0214 69.5166 39.4155 69.5166 46.0616C69.5166 52.7076 73.566 58.1018 78.5583 58.1018H83.6433C88.6356 58.1018 92.685 52.7076 92.685 46.0616C92.685 39.4155 88.6356 34.0214 83.6433 34.0214Z" fill="#4B515E"/>
<path d="M118.174 26.5046C117.586 25.9173 115.825 25.4845 114.248 25.1909L30.9715 23.7226C30.9715 23.7226 21.7598 23.568 14.3564 26.2728C8.14308 28.5448 3.64541 33.4289 2.19255 40.0286C2.00708 40.8941 1.48158 44.6344 1.48158 45.3763V48.8384C1.48158 50.6622 2.91898 52.146 4.69641 52.146C13.8309 52.146 33.8617 52.146 42.8571 52.146C44.5109 52.146 45.8555 50.8168 45.9019 49.1166C46.0719 43.5371 47.7721 34.4026 56.7211 34.4026C65.67 34.4026 65.9791 45.7627 65.84 50.3068C65.8091 51.3268 66.5819 52.146 67.5711 52.146C74.279 52.146 88.1739 52.146 94.0626 52.146C94.8354 52.146 95.4845 51.5278 95.5154 50.7241C95.7627 45.7473 96.8292 34.449 106.226 34.449C115.624 34.449 115.67 44.3253 115.624 47.1537C115.624 47.5711 115.933 47.8956 116.335 47.8956C116.582 47.8956 116.814 47.7565 116.953 47.5401L119.998 42.3779V31.0023C119.998 29.2094 119.302 27.6329 118.158 26.4583L118.174 26.5046Z" fill="#FFF2CF"/>
<path d="M0.9119 44.8942H46.4605V49.4846C46.4605 50.9529 45.2704 52.143 43.8021 52.143H3.46213C1.54559 52.143 0 50.5974 0 48.6809V45.8061C0 45.296 0.401854 44.8942 0.9119 44.8942Z" fill="#E0DACA"/>
<path d="M26.2714 44.8942H15.5605V48.7118H26.2714V44.8942Z" fill="white"/>
<path d="M41.0234 31.8779C39.5396 30.2396 36.7884 30.3168 34.8874 32.0479C32.9863 33.779 32.6463 36.5147 34.13 38.1685C35.6138 39.8068 38.365 39.7295 40.266 37.9984C42.1671 36.2674 42.5071 33.5317 41.0234 31.8779Z" fill="white"/>
<path d="M14.6372 31.8779C13.1534 30.2396 10.4022 30.3168 8.50117 32.0479C6.60009 33.779 6.26006 36.5147 7.74383 38.1685C9.22759 39.8068 11.9787 39.7295 13.8798 37.9984C15.7809 36.2674 16.1209 33.5317 14.6372 31.8779Z" fill="white"/>
</svg>
