<svg width="275" height="15" viewBox="0 0 275 15" fill="none" xmlns="http://www.w3.org/2000/svg">
<path d="M0.0156633 12.7342L0 11.7005L3.86883 7.62801C5.21587 6.20265 5.85806 5.43515 5.85806 4.38572C5.85806 3.22663 4.87128 2.45913 3.60255 2.45913C2.25551 2.45913 1.39403 3.32061 1.39403 4.58934H0.0626531C0.0469898 2.58444 1.59765 1.2374 3.64954 1.2374C5.70143 1.2374 7.17378 2.61577 7.17378 4.38572C7.17378 5.65444 6.57857 6.64123 4.57367 8.70878L1.97357 11.3872V11.4812H7.3774V12.7342H0.0156633Z" fill="black"/>
<path d="M13.1736 12.8909C10.6518 12.8909 9.21075 10.7763 9.21075 7.06413C9.21075 3.38327 10.6831 1.2374 13.1736 1.2374C15.664 1.2374 17.1364 3.38327 17.1364 7.06413C17.1364 10.7763 15.6797 12.8909 13.1736 12.8909ZM13.1736 11.6378C14.8025 11.6378 15.758 9.99317 15.758 7.06413C15.758 4.1351 14.8025 2.45913 13.1736 2.45913C11.5446 2.45913 10.5735 4.1351 10.5735 7.06413C10.5735 9.99317 11.5289 11.6378 13.1736 11.6378Z" fill="black"/>
<path d="M19.048 12.7342L19.0324 11.7005L22.9012 7.62801C24.2482 6.20265 24.8904 5.43515 24.8904 4.38572C24.8904 3.22663 23.9037 2.45913 22.6349 2.45913C21.2879 2.45913 20.4264 3.32061 20.4264 4.58934H19.095C19.0794 2.58444 20.63 1.2374 22.6819 1.2374C24.7338 1.2374 26.2062 2.61577 26.2062 4.38572C26.2062 5.65444 25.6109 6.64123 23.606 8.70878L21.0059 11.3872V11.4812H26.4098V12.7342H19.048Z" fill="black"/>
<path d="M32.4096 12.8909C30.154 12.8909 28.5407 11.6848 28.4624 9.88352H29.8878C29.9661 10.9643 31.0469 11.6378 32.3939 11.6378C33.8819 11.6378 34.9783 10.8233 34.9783 9.64857C34.9783 8.41118 33.9915 7.53403 32.2216 7.53403H31.2975V6.29663H32.2216C33.6 6.29663 34.5554 5.52913 34.5554 4.35439C34.5554 3.22663 33.7253 2.45913 32.4409 2.45913C31.2348 2.45913 30.1227 3.13265 30.0601 4.24475H28.6974C28.7757 2.44347 30.436 1.2374 32.4565 1.2374C34.6181 1.2374 35.9338 2.64709 35.9181 4.27607C35.9338 5.56046 35.182 6.51592 33.9915 6.84485V6.92316C35.4639 7.15811 36.3724 8.20755 36.3567 9.64857C36.3724 11.5125 34.6651 12.8909 32.4096 12.8909Z" fill="black"/>
<path d="M49.4676 0.0939796V10.4004H48.2302V5.57612H44.2204V4.58934H48.2302V2.91337H44.2204V1.92658H48.2302V0.0939796H49.4676ZM49.8435 12.6716V13.7054H40.4926V9.52327H41.73V12.6716H49.8435ZM39.9913 1.09643V7.28342C41.9101 7.27559 43.7583 7.17378 45.8807 6.7822L46.006 7.80031C43.7349 8.22322 41.8396 8.3172 39.8034 8.33286H38.7539V1.09643H39.9913Z" fill="black"/>
<path d="M60.1671 12.8909C57.7863 12.8909 56.126 11.5752 56.1417 9.72689C56.126 8.25454 57.1441 7.04847 58.4442 6.84485V6.7822C57.3164 6.51592 56.5802 5.48214 56.5802 4.24475C56.5802 2.50612 58.0996 1.2374 60.1671 1.2374C62.2347 1.2374 63.754 2.50612 63.7697 4.24475C63.754 5.48214 63.0022 6.51592 61.8901 6.7822V6.84485C63.1745 7.04847 64.1926 8.25454 64.2082 9.72689C64.1926 11.5752 62.5323 12.8909 60.1671 12.8909ZM60.1671 11.6535C61.7961 11.6535 62.7986 10.839 62.7986 9.64857C62.7986 8.39551 61.6865 7.47138 60.1671 7.47138C58.6478 7.47138 57.52 8.39551 57.5514 9.64857C57.52 10.839 58.5381 11.6535 60.1671 11.6535ZM60.1671 6.28097C61.4515 6.28097 62.3913 5.49781 62.3913 4.35439C62.3913 3.22663 61.4985 2.45913 60.1671 2.45913C58.8201 2.45913 57.9429 3.22663 57.9429 4.35439C57.9429 5.49781 58.8671 6.28097 60.1671 6.28097Z" fill="black"/>
<path d="M77.1155 0.0939796V8.30153H75.8781V7.53403H73.0587V6.71954H75.8781V0.0939796H77.1155ZM65.5874 5.34117C68.2814 5.35684 71.7274 5.32551 74.7347 4.99658L74.813 5.79541C73.4503 5.9912 72.0328 6.10867 70.6466 6.17133V8.34852H69.4405V6.21832C68.1248 6.26531 66.8639 6.27314 65.7283 6.26531L65.5874 5.34117ZM77.1155 8.80276V11.6848H68.9863V12.9379H77.5698V13.8463H67.7802V10.8233H75.8938V9.69556H67.7176V8.80276H77.1155ZM70.1297 0.360255C72.1973 0.360255 73.5756 1.17475 73.5913 2.45913C73.5756 3.75918 72.1973 4.54235 70.1297 4.54235C68.0308 4.54235 66.6681 3.75918 66.6681 2.45913C66.6681 1.17475 68.0308 0.360255 70.1297 0.360255ZM70.1297 1.22173C68.72 1.22173 67.8115 1.7073 67.8272 2.45913C67.8115 3.19531 68.72 3.69653 70.1297 3.69653C71.5237 3.69653 72.4322 3.19531 72.4322 2.45913C72.4322 1.7073 71.5237 1.22173 70.1297 1.22173Z" fill="black"/>
<path d="M83.8053 10.4161V9.25699L88.9115 1.39403H90.6501V9.17868H92.2321V10.4161H90.6501V12.7342H89.3031V10.4161H83.8053ZM85.3246 9.17868H89.3031V3.17964H89.1621L85.3246 9.0847V9.17868Z" fill="black"/>
<path d="M97.574 0.595204C99.6572 0.610867 101.177 1.86393 101.177 3.68087C101.177 5.49781 99.6572 6.75087 97.574 6.75087C95.4595 6.75087 93.9558 5.49781 93.9558 3.68087C93.9558 1.86393 95.4595 0.610867 97.574 0.595204ZM97.574 1.62898C96.18 1.62898 95.1462 2.4748 95.1619 3.68087C95.1462 4.9026 96.18 5.74842 97.574 5.74842C98.9524 5.74842 99.9862 4.9026 99.9862 3.68087C99.9862 2.4748 98.9524 1.62898 97.574 1.62898ZM105.124 0.0783163V7.23643H103.902V0.0783163H105.124ZM105.124 7.90995V11.2619H97.3077V12.8282H105.625V13.815H96.1017V10.3378H103.902V8.89674H96.0703V7.90995H105.124Z" fill="black"/>
<path d="M123.06 0.0783163V14.0343H121.822V0.0783163H123.06ZM115.651 1.15908C117.718 1.17475 119.206 3.05434 119.206 6.01469C119.206 8.97505 117.718 10.8546 115.651 10.8546C113.568 10.8546 112.095 8.97505 112.095 6.01469C112.095 3.05434 113.568 1.17475 115.651 1.15908ZM115.651 2.25551C114.257 2.27117 113.286 3.74352 113.286 6.01469C113.286 8.28587 114.257 9.75822 115.651 9.75822C117.045 9.75822 118.016 8.28587 118.016 6.01469C118.016 3.74352 117.045 2.27117 115.651 2.25551Z" fill="black"/>
<path d="M137.424 1.67597V2.69408H126.13V1.67597H131.205V0H132.411V1.67597H137.424ZM138.222 9.10036V10.1185H132.411V14.0343H131.205V10.1185H125.473V9.10036H138.222ZM131.816 3.49291C134.651 3.49291 136.359 4.32306 136.359 5.82674C136.359 7.29908 134.651 8.12924 131.816 8.1449C128.965 8.12924 127.258 7.29908 127.274 5.82674C127.258 4.32306 128.965 3.49291 131.816 3.49291ZM131.816 4.4327C129.733 4.4327 128.527 4.94959 128.543 5.82674C128.527 6.68822 129.733 7.18944 131.816 7.18944C133.868 7.18944 135.074 6.68822 135.09 5.82674C135.074 4.94959 133.868 4.4327 131.816 4.4327Z" fill="black"/>
<path d="M151.302 0.0783163V14.003H150.112V0.0783163H151.302ZM148.498 0.375918V13.2981H147.324V6.53158H145.538C145.405 9.24133 144.254 10.933 142.531 10.933C140.714 10.933 139.539 9.05337 139.539 6.09301C139.539 3.13265 140.714 1.25306 142.531 1.25306C144.222 1.25306 145.366 2.88987 145.522 5.51347H147.324V0.375918H148.498ZM142.531 2.41214C141.403 2.41214 140.682 3.82184 140.698 6.09301C140.682 8.34852 141.403 9.77388 142.531 9.75822C143.658 9.77388 144.379 8.34852 144.379 6.09301C144.379 3.82184 143.658 2.41214 142.531 2.41214Z" fill="black"/>
<path d="M168.33 0.986786V2.20852C168.33 3.53207 168.33 4.96526 167.938 6.97015H170.005V7.98827H164.257V14.0343H163.02V7.98827H157.318V6.97015H166.685C167.108 4.96526 167.108 3.50074 167.108 2.20852V2.0049H158.916V0.986786H168.33Z" fill="black"/>
<path d="M183.9 7.03281V8.03526H171.212V7.03281H176.945V5.34117H172.826V0.642194H182.333V1.66031H174.047V4.32306H182.459V5.34117H178.167V7.03281H183.9ZM182.349 9.39796V14.1126H181.127V10.4004H172.622V9.39796H182.349Z" fill="black"/>
<path d="M196.588 0.0783163V14.0343H195.35V0.0783163H196.588ZM189.179 1.15908C191.246 1.17475 192.734 3.05434 192.734 6.01469C192.734 8.97505 191.246 10.8546 189.179 10.8546C187.096 10.8546 185.623 8.97505 185.623 6.01469C185.623 3.05434 187.096 1.17475 189.179 1.15908ZM189.179 2.25551C187.785 2.27117 186.814 3.74352 186.814 6.01469C186.814 8.28587 187.785 9.75822 189.179 9.75822C190.573 9.75822 191.544 8.28587 191.544 6.01469C191.544 3.74352 190.573 2.27117 189.179 2.25551Z" fill="black"/>
<path d="M210.012 2.49046V3.49291H203.027V2.49046H205.924V0.501225H207.146V2.49046H210.012ZM206.52 4.4327C208.274 4.4327 209.527 5.74842 209.543 7.59669C209.527 9.46061 208.274 10.792 206.52 10.792C204.781 10.792 203.528 9.46061 203.528 7.59669C203.528 5.74842 204.781 4.4327 206.52 4.4327ZM206.52 5.46648C205.423 5.48214 204.624 6.37495 204.624 7.59669C204.624 8.83408 205.423 9.72689 206.52 9.71123C207.632 9.72689 208.446 8.83408 208.446 7.59669C208.446 6.37495 207.632 5.48214 206.52 5.46648ZM214.915 0.0783163V14.003H213.74V6.97015H211.892V13.3138H210.733V0.422908H211.892V5.95204H213.74V0.0783163H214.915Z" fill="black"/>
<path d="M221.933 4.35439C221.933 6.71954 223.656 9.11602 225.708 10.0088L225.019 10.98C223.39 10.2359 221.98 8.63046 221.338 6.70388C220.68 8.74794 219.278 10.5257 217.688 11.3245L216.952 10.3534C218.941 9.39796 220.68 6.76653 220.696 4.35439V2.53745H217.406V1.51934H225.254V2.53745H221.933V4.35439ZM228.433 0.0783163V14.003H227.196V0.0783163H228.433Z" fill="black"/>
<path d="M242.343 0.0939796V8.09791H241.106V0.0939796H242.343ZM230.893 6.73521C232.076 6.73521 233.454 6.72737 234.887 6.67255V5.18454H232.162V0.783163H238.772V1.80128H233.399V4.19776H238.897V5.18454H236.125V6.62556C237.417 6.57074 238.725 6.4611 239.946 6.29663L240.025 7.18944C236.97 7.70633 233.587 7.75332 231.081 7.75332L230.893 6.73521ZM234.386 8.72444V10.2125H241.137V8.72444H242.343V13.815H233.164V8.72444H234.386ZM234.386 12.8126H241.137V11.1679H234.386V12.8126Z" fill="black"/>
<path d="M256.221 0.0783163V14.003H255V0.0783163H256.221ZM246.855 1.45668V9.35097C248.977 9.34314 251.178 9.17084 253.512 8.67745L253.684 9.72689C251.209 10.2438 249.001 10.4161 246.776 10.4161H245.649V1.45668H246.855Z" fill="black"/>
<path d="M269.411 0.0783163V5.59179H271.744V6.62556H269.411V14.0343H268.189V0.0783163H269.411ZM265.745 1.44102V2.45913H260.467V9.5076C262.989 9.5076 264.774 9.39013 266.842 9.00638L266.998 10.0715C264.821 10.4631 262.989 10.5414 260.342 10.5414H259.245V1.44102H265.745Z" fill="black"/>
<path d="M274.001 12.8282C273.452 12.8282 272.983 12.374 272.998 11.8101C272.983 11.2619 273.452 10.8077 274.001 10.8077C274.549 10.8077 275.003 11.2619 275.003 11.8101C275.003 12.374 274.549 12.8282 274.001 12.8282Z" fill="black"/>
</svg>
