<svg width="35" height="50" viewBox="0 0 35 50" fill="none" xmlns="http://www.w3.org/2000/svg">
<path d="M3.95013 29.3368L3.95054 29.3375C5.1222 31.2368 6.48117 33.0042 7.8616 34.7947L7.91281 34.8611C9.27145 36.6233 10.6488 38.4097 11.8491 40.3351M3.95013 29.3368L11.425 40.6M3.95013 29.3368C1.7204 25.7349 0.5 21.7503 0.5 17.5C0.5 8.10114 8.10114 0.5 17.5 0.5C26.8989 0.5 34.5 8.10114 34.5 17.5C34.5 21.7501 33.2797 25.734 31.0261 29.3347L31.0237 29.3387C29.8522 31.25 28.4934 33.0236 27.1134 34.8135L26.9947 34.9674C25.6584 36.7004 24.3067 38.4533 23.1265 40.3342L23.1263 40.3345C21.9325 42.2395 21.096 44.0155 20.1702 46.0422L20.1698 46.0431C20.0572 46.291 19.9448 46.5766 19.8332 46.8605C19.7844 46.9847 19.7357 47.1086 19.6871 47.2288C19.5215 47.6391 19.3471 48.0359 19.1392 48.3847C18.7256 49.0788 18.2349 49.5 17.5 49.5C16.765 49.5 16.2741 49.0788 15.8569 48.3834C15.6472 48.034 15.4705 47.6367 15.3009 47.2255C15.2565 47.1177 15.212 47.0073 15.1673 46.8965C15.0479 46.6008 14.9274 46.302 14.8046 46.0417M3.95013 29.3368L14.35 46.25M11.8491 40.3351C11.8492 40.3352 11.8492 40.3354 11.8493 40.3355L11.425 40.6M11.8491 40.3351C11.8489 40.3349 11.8488 40.3347 11.8487 40.3345L11.425 40.6M11.8491 40.3351C13.0408 42.2369 13.9012 44.0094 14.8046 46.0417M11.425 40.6C12.6 42.475 13.45 44.225 14.35 46.25M14.8046 46.0417C14.8037 46.0399 14.8029 46.0381 14.802 46.0363L14.35 46.25M14.8046 46.0417C14.8054 46.0435 14.8061 46.0452 14.8069 46.0469L14.35 46.25M10.75 18.125C10.75 21.8511 13.7739 24.875 17.5 24.875C21.2261 24.875 24.25 21.8511 24.25 18.125C24.25 14.3989 21.2261 11.375 17.5 11.375C13.7739 11.375 10.75 14.3989 10.75 18.125Z" fill="#FFE142" stroke="#FFD600"/>
</svg>
