<svg width="153" height="17" viewBox="0 0 153 17" fill="none" xmlns="http://www.w3.org/2000/svg">
<path d="M12.9496 0.936326V2.38498C12.9496 3.88664 12.9496 5.52962 12.5432 7.77327H14.6632V9.59293H8.3916V16.0942H6.13029V9.59293H0V7.77327H10.2643C10.6706 5.69746 10.7059 4.12513 10.7059 2.73831H1.67832V0.936326H12.9496Z" fill="black"/>
<path d="M30.3343 7.79094V9.57526H15.6711V7.79094H21.872V6.35995H17.4554V0.635995H28.603V2.42031H19.699V4.5403H28.762V6.35995H24.1333V7.79094H30.3343ZM28.5853 10.6883V16.1295H26.377V12.4726H17.2964V10.6883H28.5853Z" fill="black"/>
<path d="M49.0978 0V9.53993H46.8542V5.74162H44.3455V3.92197H46.8542V0H49.0978ZM43.6035 9.89326C47.0308 9.91092 49.1332 11.0416 49.1508 13.0026C49.1332 14.9459 47.0308 16.0942 43.6035 16.0942C40.1762 16.0942 38.0739 14.9459 38.0739 13.0026C38.0739 11.0416 40.1762 9.91092 43.6035 9.89326ZM43.6035 11.6246C41.4659 11.6246 40.3176 12.0662 40.3176 13.0026C40.3176 13.9212 41.4659 14.3806 43.6035 14.3806C45.7412 14.3806 46.9072 13.9212 46.9072 13.0026C46.9072 12.0662 45.7412 11.6246 43.6035 11.6246ZM44.8225 0.971659V2.77365H41.6249C41.6779 4.6463 42.8085 6.53662 45.3172 7.36694L44.2042 9.1336C42.4287 8.55943 41.2097 7.39344 40.5119 5.93595C39.7964 7.57894 38.5156 8.90393 36.6076 9.55759L35.4416 7.77327C38.0828 6.88995 39.2664 4.78763 39.3282 2.77365H36.0953V0.971659H44.8225Z" fill="black"/>
<path d="M65.9349 12.3666V14.2039H51.2187V12.3666H57.4196V9.39859H52.7733V1.02466H55.0346V3.51564H62.0482V1.02466H64.2919V9.39859H59.6633V12.3666H65.9349ZM55.0346 7.59661H62.0482V5.31763H55.0346V7.59661Z" fill="black"/>
<path d="M79.5743 0V6.16562H81.8533V8.0206H79.5743V16.0412H77.313V0H79.5743ZM75.2813 1.64299C75.2637 6.44828 73.391 10.6176 67.985 13.2676L66.7131 11.5362C70.5202 9.62826 72.5607 7.06661 72.9847 3.48031H67.6317V1.64299H75.2813Z" fill="black"/>
<path d="M90.6352 9.39859V11.0062H92.3666V9.39859H94.4512V14.2746C96.2355 13.4796 96.9952 11.9779 96.9952 10.5116V9.27493H99.2565V10.5116C99.2388 12.1546 100.034 13.7092 102.048 14.3629L100.882 16.0412C99.495 15.5642 98.6028 14.6456 98.0905 13.4972C97.5517 14.6102 96.6684 15.5377 95.3699 16.0412L94.4512 14.6456V15.8999H88.5506V9.39859H90.6352ZM90.6352 14.1862H92.3666V12.6669H90.6352V14.1862ZM91.2536 0.600662C93.3029 0.600662 94.937 1.74015 95.3875 3.44497H98.0728V0H100.316V8.51527H98.0728V5.29996H95.3875C94.9547 7.04011 93.3117 8.19727 91.2536 8.19727C88.7802 8.19727 86.9606 6.62495 86.9783 4.3813C86.9606 2.17298 88.7802 0.600662 91.2536 0.600662ZM91.2536 2.45565C89.9992 2.45565 89.0982 3.19764 89.1159 4.3813C89.0982 5.60029 89.9992 6.34228 91.2536 6.35995C92.4726 6.34228 93.3559 5.60029 93.3559 4.3813C93.3559 3.19764 92.4726 2.45565 91.2536 2.45565Z" fill="black"/>
<path d="M106.377 9.64593V11.0062H113.002V9.64593H115.246V15.8999H104.151V9.64593H106.377ZM106.377 14.1332H113.002V12.7199H106.377V14.1332ZM117.101 7.01361V8.83326H102.437V7.01361H117.101ZM110.935 0.706661C110.935 2.31432 112.79 4.13397 116.376 4.5403L115.581 6.30695C112.808 5.95362 110.802 4.8053 109.769 3.25064C108.735 4.8053 106.721 5.95362 103.974 6.30695L103.162 4.5403C106.748 4.1163 108.603 2.34965 108.621 0.706661V0.158999H110.935V0.706661Z" fill="black"/>
<path d="M131.623 0V16.0765H129.38V0H131.623ZM121.2 1.53699V10.1759C123.373 10.1494 125.705 9.94626 128.072 9.48693L128.355 11.3419C125.528 11.9249 122.878 12.1192 120.387 12.1016H118.974V1.53699H121.2Z" fill="black"/>
<path d="M146.464 0V5.97129H148.831V7.80861H146.464V16.1119H144.203V0H146.464ZM141.959 1.48399V3.30364H136.659V10.3526C138.991 10.3261 140.917 10.2201 143.054 9.84026L143.302 11.7306C140.811 12.1546 138.62 12.2252 135.776 12.2076H134.415V1.48399H141.959Z" fill="black"/>
<path d="M151.535 14.6102C150.705 14.6102 150.033 13.9389 150.051 13.1262C150.033 12.3136 150.705 11.6599 151.535 11.6599C152.312 11.6599 153.001 12.3136 153.001 13.1262C153.001 13.9389 152.312 14.6102 151.535 14.6102Z" fill="black"/>
</svg>
