<svg width="29" height="9" viewBox="0 0 29 9" fill="none" xmlns="http://www.w3.org/2000/svg">
<path d="M3.18953 0.117695V8.6388H2.11851V1.22403H2.07143L0 2.60106V1.53003L2.11851 0.117695H3.18953Z" fill="#222222" fill-opacity="0.4"/>
<path d="M8.42751 8.75649C6.73271 8.75649 5.52045 7.85024 5.4616 6.49675H6.53263C6.59147 7.30885 7.40357 7.81494 8.41574 7.81494C9.53384 7.81494 10.3577 7.20292 10.3577 6.32021C10.3577 5.39042 9.61623 4.73133 8.28628 4.73133H7.59188V3.80154H8.28628C9.32199 3.80154 10.0399 3.22484 10.0399 2.34213C10.0399 1.49472 9.41615 0.918019 8.45105 0.918019C7.5448 0.918019 6.70917 1.42411 6.66209 2.25974H5.63815C5.69699 0.90625 6.94456 0 8.46282 0C10.087 0 11.0756 1.05925 11.0639 2.28328C11.0756 3.24838 10.5107 3.96631 9.61623 4.21347V4.27232C10.7226 4.44886 11.4052 5.23742 11.3934 6.32021C11.4052 7.72078 10.1223 8.75649 8.42751 8.75649Z" fill="#222222" fill-opacity="0.4"/>
<path d="M13.6773 7.50893C13.2653 7.50893 12.9123 7.16761 12.924 6.74391C12.9123 6.33198 13.2653 5.99067 13.6773 5.99067C14.0892 5.99067 14.4305 6.33198 14.4305 6.74391C14.4305 7.16761 14.0892 7.50893 13.6773 7.50893ZM13.6773 2.7776C13.2653 2.7776 12.9123 2.43628 12.924 2.01258C12.9123 1.60065 13.2653 1.25933 13.6773 1.25933C14.0892 1.25933 14.4305 1.60065 14.4305 2.01258C14.4305 2.43628 14.0892 2.7776 13.6773 2.7776Z" fill="#222222" fill-opacity="0.4"/>
<path d="M18.8211 8.75649C16.9262 8.75649 15.8434 7.16761 15.8434 4.37825C15.8434 1.61242 16.9497 0 18.8211 0C20.6924 0 21.7988 1.61242 21.7988 4.37825C21.7988 7.16761 20.7042 8.75649 18.8211 8.75649ZM18.8211 7.81494C20.0451 7.81494 20.7631 6.57914 20.7631 4.37825C20.7631 2.17735 20.0451 0.918019 18.8211 0.918019C17.5971 0.918019 16.8674 2.17735 16.8674 4.37825C16.8674 6.57914 17.5853 7.81494 18.8211 7.81494Z" fill="#222222" fill-opacity="0.4"/>
<path d="M26.0246 8.75649C24.1297 8.75649 23.0469 7.16761 23.0469 4.37825C23.0469 1.61242 24.1532 0 26.0246 0C27.8959 0 29.0023 1.61242 29.0023 4.37825C29.0023 7.16761 27.9077 8.75649 26.0246 8.75649ZM26.0246 7.81494C27.2486 7.81494 27.9665 6.57914 27.9665 4.37825C27.9665 2.17735 27.2486 0.918019 26.0246 0.918019C24.8006 0.918019 24.0708 2.17735 24.0708 4.37825C24.0708 6.57914 24.7888 7.81494 26.0246 7.81494Z" fill="#222222" fill-opacity="0.4"/>
</svg>
