<svg width="29" height="16" viewBox="0 0 29 16" fill="none" xmlns="http://www.w3.org/2000/svg">
<path d="M7.84775 0.907563V2.72269H2.27781V3.98616H7.36728V5.7301H2.27781V7.06476C5.13396 7.05586 6.94019 7.01137 8.98665 6.67326L9.21799 8.435C6.91349 8.83539 4.84923 8.87098 1.38804 8.86209H0V0.907563H7.84775ZM1.81513 15.998V10.2679H12.6703V15.998H1.81513ZM4.05734 14.1829H10.4459V12.0297H4.05734V14.1829ZM10.3925 9.60949V0H12.6703V9.60949H10.3925Z" fill="black"/>
<path d="M28.6158 0V12.2254H26.338V10.9441H23.2416V9.39595H26.338V0H28.6158ZM14.8422 7.17153C17.8051 7.15373 21.8091 7.10924 25.2347 6.69105L25.3592 8.31043C24.078 8.52397 22.7522 8.67523 21.4443 8.77311V11.8517H19.1664V14.0761H28.9717V15.8913H16.9064V11.0509H19.1664V8.90657C17.7161 8.95996 16.337 8.96886 15.1091 8.96886L14.8422 7.17153ZM16.0345 3.4523C16.0345 1.72615 17.6983 0.542758 20.1096 0.551656C22.4586 0.542758 24.1403 1.72615 24.1491 3.4523C24.1403 5.18735 22.4586 6.30845 20.1096 6.29956C17.6983 6.30845 16.0345 5.18735 16.0345 3.4523ZM18.1877 3.4523C18.1788 4.23529 18.9529 4.67128 20.1096 4.66238C21.1951 4.67128 21.9781 4.23529 21.9959 3.4523C21.9781 2.65151 21.1951 2.20662 20.1096 2.20662C18.9529 2.20662 18.1788 2.65151 18.1877 3.4523Z" fill="black"/>
</svg>
