<svg width="54" height="11" viewBox="0 0 54 11" fill="none" xmlns="http://www.w3.org/2000/svg">
<path d="M3.17624 0.984517V9.47012H2.10968V2.08624H2.0628L0 3.45753V2.39097L2.10968 0.984517H3.17624Z" fill="#222222" fill-opacity="0.4"/>
<path d="M5.46229 9.47012L5.45057 8.69657L8.34552 5.64925C9.35348 4.58269 9.83402 4.00839 9.83402 3.22312C9.83402 2.35581 9.09563 1.78151 8.14627 1.78151C7.13831 1.78151 6.49369 2.42613 6.49369 3.37549H5.49745C5.48573 1.87527 6.64606 0.867313 8.18143 0.867313C9.71681 0.867313 10.8185 1.89871 10.8185 3.22312C10.8185 4.17248 10.3732 4.91087 8.87294 6.45797L6.92735 8.46216V8.53248H10.9709V9.47012H5.46229Z" fill="#222222" fill-opacity="0.4"/>
<path d="M20.2189 0V4.2428H21.9066V5.01635H20.2189V10.4195H19.3047V0H20.2189ZM17.5232 1.12516C17.5232 4.07872 16.1402 6.7627 12.7412 8.43872L12.2256 7.71205C14.9213 6.37006 16.3863 4.36587 16.5973 1.89871H12.7061V1.12516H17.5232Z" fill="#222222" fill-opacity="0.4"/>
<path d="M28.8931 9.58732C27.2054 9.58732 25.9982 8.68485 25.9396 7.337H27.0062C27.0648 8.14571 27.8735 8.64969 28.8814 8.64969C29.9949 8.64969 30.8153 8.04023 30.8153 7.16119C30.8153 6.23528 30.0769 5.57893 28.7525 5.57893H28.061V4.65302H28.7525C29.7839 4.65302 30.4989 4.07872 30.4989 3.19968C30.4989 2.35581 29.8777 1.78151 28.9166 1.78151C28.0141 1.78151 27.182 2.28549 27.1351 3.11764H26.1154C26.174 1.76979 27.4164 0.867313 28.9283 0.867313C30.5457 0.867313 31.5302 1.92215 31.5185 3.14108C31.5302 4.10216 30.9677 4.8171 30.0769 5.06323V5.12183C31.1786 5.29764 31.8584 6.08291 31.8467 7.16119C31.8584 8.55593 30.5809 9.58732 28.8931 9.58732Z" fill="#222222" fill-opacity="0.4"/>
<path d="M33.1834 7.73549V6.86818L37.0043 0.984517H38.3052V6.80958H39.489V7.73549H38.3052V9.47012H37.2973V7.73549H33.1834ZM34.3203 6.80958H37.2973V2.32065H37.1918L34.3203 6.73926V6.80958Z" fill="#222222" fill-opacity="0.4"/>
<path d="M43.6738 9.58732C42.1384 9.58732 40.9781 8.63797 40.9195 7.337H41.9391C42.0212 8.09883 42.7596 8.66141 43.6738 8.66141C44.7755 8.66141 45.5725 7.8527 45.5725 6.78614C45.5725 5.68442 44.7403 4.87571 43.6034 4.86398C42.8885 4.85226 42.3376 5.07495 42.0212 5.62581H41.0015L41.5992 0.984517H46.1937V1.92215H42.4783L42.1618 4.40689H42.2439C42.6189 4.11388 43.1932 3.91463 43.791 3.91463C45.4084 3.91463 46.6039 5.11011 46.6039 6.7627C46.6039 8.40356 45.3615 9.58732 43.6738 9.58732Z" fill="#222222" fill-opacity="0.4"/>
<path d="M51.0465 9.58732C49.5697 9.56388 47.9523 8.69657 47.9523 5.55549C47.9523 2.55506 49.1829 0.867313 51.1754 0.867313C52.6639 0.867313 53.707 1.78151 53.9297 3.11764H52.8866C52.6873 2.36753 52.1248 1.80495 51.1754 1.80495C49.7807 1.80495 48.9485 3.00043 48.9485 5.03979H49.054C49.5463 4.33656 50.3198 3.91463 51.234 3.91463C52.7459 3.91463 54 5.08667 54 6.72754C54 8.32152 52.828 9.59905 51.0465 9.58732ZM51.0465 8.66141C52.1482 8.66141 52.9686 7.7941 52.9804 6.73926C52.9686 5.69614 52.1834 4.84054 51.0699 4.84054C49.9565 4.84054 49.1009 5.74302 49.0892 6.75098C49.0892 7.74721 49.9096 8.66141 51.0465 8.66141Z" fill="#222222" fill-opacity="0.4"/>
</svg>
