<svg width="39" height="39" viewBox="0 0 39 39" fill="none" xmlns="http://www.w3.org/2000/svg">
<path d="M19.484 8.29301C21.7792 8.29301 23.6399 6.43656 23.6399 4.14651C23.6399 1.85645 21.7792 0 19.484 0C17.1888 0 15.3281 1.85645 15.3281 4.14651C15.3281 6.43656 17.1888 8.29301 19.484 8.29301Z" fill="#5B574A"/>
<path d="M26.8318 14.4763C26.8318 11.0639 24.0586 8.29688 20.6385 8.29688H18.3261C14.9061 8.29688 12.1328 11.0639 12.1328 14.4763V16.2107H26.8318V14.4763Z" fill="#5B574A"/>
<path d="M7.35119 31.0821C9.64641 31.0821 11.5071 29.2256 11.5071 26.9356C11.5071 24.6455 9.64641 22.7891 7.35119 22.7891C5.05596 22.7891 3.19531 24.6455 3.19531 26.9356C3.19531 29.2256 5.05596 31.0821 7.35119 31.0821Z" fill="#5B574A"/>
<path d="M14.699 37.2654C14.699 33.853 11.9258 31.0859 8.50571 31.0859H6.19332C2.77325 31.0859 0 33.853 0 37.2654V38.9998H14.699V37.2654Z" fill="#5B574A"/>
<path d="M31.6481 31.0821C33.9433 31.0821 35.8039 29.2256 35.8039 26.9356C35.8039 24.6455 33.9433 22.7891 31.6481 22.7891C29.3528 22.7891 27.4922 24.6455 27.4922 26.9356C27.4922 29.2256 29.3528 31.0821 31.6481 31.0821Z" fill="#5B574A"/>
<path d="M38.9959 37.2654C38.9959 33.853 36.2227 31.0859 32.8026 31.0859H30.4902C27.0701 31.0859 24.2969 33.853 24.2969 37.2654V38.9998H38.9959V37.2654Z" fill="#5B574A"/>
<path d="M2.75612 23.1931C2.24662 23.1931 1.80182 22.8059 1.75329 22.2896C1.6886 21.6765 1.65625 21.0553 1.65625 20.4342C1.65625 13.5691 5.49771 7.43009 11.6926 4.42108C12.194 4.17907 12.8005 4.38881 13.0431 4.8809C13.2858 5.38106 13.0836 5.98609 12.5822 6.2281C7.0909 8.89829 3.68616 14.3436 3.68616 20.4342C3.68616 20.9827 3.7185 21.5394 3.76703 22.0799C3.82364 22.6365 3.41928 23.1286 2.86125 23.185C2.82891 23.185 2.78847 23.185 2.75612 23.185V23.1931Z" fill="#FFE142"/>
<path d="M19.4952 38.2517C18.6298 38.2517 17.7564 38.1871 16.8992 38.0661C16.3492 37.9855 15.961 37.4772 16.0419 36.9206C16.1228 36.372 16.6485 35.9848 17.1903 36.0655C18.7026 36.2833 20.2877 36.2833 21.8001 36.0655C22.3419 35.9848 22.8676 36.364 22.9485 36.9206C23.0293 37.4692 22.6492 37.9855 22.0912 38.0661C21.242 38.1871 20.3686 38.2517 19.4952 38.2517Z" fill="#FFE142"/>
<path d="M36.2556 23.1927C36.2556 23.1927 36.1828 23.1927 36.1505 23.1927C35.5925 23.1362 35.1881 22.6441 35.2447 22.0875C35.3013 21.547 35.3256 20.9984 35.3256 20.4499C35.3256 14.3593 31.9127 8.91399 26.4215 6.2438C25.92 6.00178 25.7098 5.39676 25.9524 4.8966C26.195 4.39644 26.8016 4.1867 27.303 4.42871C33.4978 7.43772 37.3474 13.5767 37.3474 20.4499C37.3474 21.071 37.315 21.6922 37.2503 22.2972C37.1937 22.8135 36.757 23.2007 36.2475 23.2007L36.2556 23.1927Z" fill="#FFE142"/>
</svg>
