<svg xmlns="http://www.w3.org/2000/svg" width="85" height="90" fill="none" viewBox="0 0 85 90"><path fill="#FFCC08" d="M7.68 10.704 3.416 1.717C2.996.833 3.76-.163 4.729.023l26.604 5.121-1.88 9.75-1.882 9.75L.976 19.522a1.196 1.196 0 0 1-.587-2.058l7.291-6.76Z"/><path fill="#5B574A" d="M30.601 1.597 20.855 52.21a.745.745 0 0 0 .59.872l2.405.463a.745.745 0 0 0 .873-.59l9.746-50.613a.745.745 0 0 0-.59-.873l-2.405-.463a.745.745 0 0 0-.873.591Z"/><path fill="#FFF3C5" d="M64.119 86.38s-3.027.82-6.9.708c-3.874.111-6.9-.708-6.9-.708h-.159c-7.59-2.952-7.487-12.488-4.907-18.95 1.88-4.722 6.388-9.312 11.966-9.312 5.578 0 10.085 4.59 11.966 9.312 2.58 6.462 2.69 15.989-4.908 18.95h-.158Z"/><path fill="#F8C788" d="M72.63 48.956c.531.708 4.014 4.89 5.634 7.804 2.533 4.544 3.679 7.692 3.157 10.15-.521 2.459-4.097 2.803-4.926 1.844.717 3.082.857 5.745.8 7.785-.036 1.22-.185 2.458-.54 3.613-.549 1.788-1.592 3.334-3.52 4.135 0 0 3.651 1.08 3.437 3.52-.214 2.43-6.723 2.383-9.657 1.992-2.877-.372-3.352-1.648-2.896-3.417h.159c7.589-2.952 7.486-12.488 4.907-18.95-1.881-4.722-6.388-9.313-11.966-9.313-5.578 0-10.085 4.591-11.966 9.313-2.58 6.462-2.691 15.988 4.907 18.95h.159c.447 1.778-.028 3.045-2.906 3.417-2.933.382-9.442.438-9.656-1.993-.215-2.44 3.436-3.52 3.436-3.52-3.157-1.313-3.958-4.637-4.05-7.747-.066-2.049-.28-7.59 5.149-20.18-2.952-1.136-9.815-4.013-11.128-4.646-2.57-1.22-7.217-3.995-8.81-7.227-.875-1.769-.595-4.06 1.556-4.916 2.15-.857 6.555 1.192 8.138 2.095 1.583.903 5.615 2.468 9.294 3.892h27.806s2.942 2.7 3.473 3.409l.01-.01Z"/><mask id="a" width="61" height="51" x="21" y="39" maskUnits="userSpaceOnUse" style="mask-type:luminance"><path fill="#fff" d="M72.63 48.956c.531.708 4.014 4.89 5.634 7.804 2.533 4.544 3.679 7.692 3.157 10.15-.521 2.459-4.097 2.803-4.926 1.844.717 3.082.857 5.745.8 7.785-.036 1.22-.185 2.458-.54 3.613-.549 1.788-1.592 3.334-3.52 4.135 0 0 3.651 1.08 3.437 3.52-.214 2.43-6.723 2.383-9.657 1.992-2.877-.372-3.352-1.648-2.896-3.417h.159c7.589-2.952 7.486-12.488 4.907-18.95-1.881-4.722-6.388-9.313-11.966-9.313-5.578 0-10.085 4.591-11.966 9.313-2.58 6.462-2.691 15.988 4.907 18.95h.159c.447 1.778-.028 3.045-2.906 3.417-2.933.382-9.442.438-9.656-1.993-.215-2.44 3.436-3.52 3.436-3.52-3.157-1.313-3.958-4.637-4.05-7.747-.066-2.049-.28-7.59 5.149-20.18-2.952-1.136-9.815-4.013-11.128-4.646-2.57-1.22-7.217-3.995-8.81-7.227-.875-1.769-.595-4.06 1.556-4.916 2.15-.857 6.555 1.192 8.138 2.095 1.583.903 5.615 2.468 9.294 3.892h27.806s2.942 2.7 3.473 3.409l.01-.01Z"/></mask><g mask="url(#a)"><path fill="#F8C788" d="m74.479 46.311-15.84-.912-15.84-.913-.987 2.068c2.747 3.734 11.137 4.61 16.473 4.916 5.336.308 13.773.41 16.93-2.98l-.736-2.16v-.019Z" opacity=".5" style="mix-blend-mode:multiply"/></g><path fill="#FC9268" d="M45.351 36.335c-2.272-3.771-5.345-5.354-9.927-5.904 0 0-4.99 1.704-4.749 7.543.289 6.789 7.794 8.726 11.165 9.48.885.196 1.788.391 2.71.577a.202.202 0 0 0 .047-.028h.018c1.258-2.318 2.999-7.896.727-11.668h.01ZM84.6 37.802c.28.996.372 2.179.14 3.567-.624 3.669-3.213 5.624-5.997 6.704-2.291.885-4.712 1.164-6.258 1.313-.903.084-1.825.168-2.766.233a.162.162 0 0 1-.046-.037h-.02c-.958-2.459-1.992-8.213.727-11.668 2.72-3.455 5.97-4.656 10.588-4.619 0 0 2.747 1.34 3.632 4.516v-.009Z"/><path fill="#FFF3C5" d="M84.068 9.945a6.69 6.69 0 0 1 .037 4.507c-.745 2.114-2.608 3.809-5.466 4.07-.82-1.593-1.779-3.073-2.906-4.414.242-.4 1.518-2.328 4.451-3.409 0 0 1.267-.502 3.893-.754h-.01Z"/><path fill="#F8C788" d="M82.119 7.099c.922.82 1.573 1.797 1.946 2.85-2.626.25-3.892.753-3.892.753-2.934 1.08-4.21 3.008-4.452 3.409a19.831 19.831 0 0 0-4.2-3.762c.475-3.707 6.389-6.957 10.588-3.241l.01-.01Z"/><path fill="#FFF3C5" d="M39.003 8.138c2.775 1.434 3.8 3.5 3.986 3.939a23.406 23.406 0 0 0-3.437 4.022c-4.684-1.024-6.108-5.69-4.32-9.181 2.57.568 3.762 1.229 3.762 1.229l.009-.01Z"/><path fill="#F8C788" d="M47.632 8.862a19.614 19.614 0 0 0-4.637 3.212c-.186-.428-1.21-2.495-3.986-3.939 0 0-1.192-.66-3.762-1.229a6.924 6.924 0 0 1 2.29-2.58c4.629-3.156 10.095.792 10.105 4.536h-.01Z"/><path fill="#F8C788" d="M79.008 19.278a18.602 18.602 0 0 0-.372-.745c-.82-1.592-1.779-3.073-2.906-4.414a19.834 19.834 0 0 0-4.2-3.762C68.673 8.467 65.116 7.21 60.692 6.8c-3.669 2.188-5.652 4.6-6.649 8.064-.456 1.593-.297 3.036.457 4.07.8 1.108 2.3 1.723 4.34 1.788 2.374.065 3.92-1.434 4.32-2.868.317-1.127-.037-2.105-.94-2.636a6.63 6.63 0 0 1-.773 2.012c-.634 1.117-1.686 1.797-2.664 1.797-.158 0-.316-.019-.475-.056-.847-.205-1.387-.931-1.434-1.946-.055-1.146.503-2.3 1.453-3.017.736-.55 1.62-.783 2.56-.68a3.05 3.05 0 0 0-.577-1.257.684.684 0 0 1 .103-.969.684.684 0 0 1 .968.103c.568.707.885 1.573.94 2.523.178.075.346.159.522.261 1.5.847 2.133 2.468 1.64 4.237-.532 1.89-2.46 3.883-5.467 3.883h-.223c-3.13-.102-4.666-1.34-5.401-2.356-1.006-1.378-1.239-3.24-.661-5.252.93-3.231 2.71-5.699 5.67-7.813-4.236-.083-7.784.717-10.755 2.189a19.861 19.861 0 0 0-4.637 3.203 23.407 23.407 0 0 0-3.437 4.023c-.158.233-.307.465-.456.698-4.162 6.5-3.678 13.652-3.678 13.652 4.581.54 7.664 2.132 9.927 5.904 2.272 3.771.521 9.35-.727 11.668h-.018s-.038.018-.047.028c3.771.763 7.897 1.387 12.525 1.676 4.628.289 8.8.177 12.636-.112a.166.166 0 0 1-.046-.037h-.019c-.959-2.459-1.993-8.213.726-11.668 2.72-3.455 5.97-4.656 10.588-4.619 0 0 .215-1.08.27-2.822.084-2.69-.195-6.946-2.216-11.183l-.028-.01Zm-30.85 13.056a2.126 2.126 0 1 1 .26-4.246 2.126 2.126 0 1 1-.26 4.246Zm9.889 1.723c-1.006-.066-1.704-.373-1.574-.969.121-.568.885-.829 1.685-.763.792.027 1.528.381 1.574.959.056.605-.68.82-1.685.763v.01Zm10.029-.475a2.126 2.126 0 1 1 .26-4.246 2.126 2.126 0 1 1-.26 4.246Z"/><path fill="#F8C788" d="M59.165 15.094c-.587.437-.94 1.164-.904 1.853.02.39.15.624.382.68.429.111 1.155-.28 1.62-1.09.336-.587.569-1.22.662-1.825a2.546 2.546 0 0 0-.447-.037c-.587 0-1.025.214-1.313.428v-.01Z"/><path fill="#705842" d="M52.726 14.481c-.577 2.011-.345 3.874.661 5.252.736 1.015 2.282 2.254 5.401 2.356h.224c3.008 0 4.944-1.993 5.466-3.883.493-1.77-.13-3.39-1.64-4.237a4.543 4.543 0 0 0-.52-.26c-.066-.95-.373-1.817-.941-2.524a.684.684 0 0 0-.969-.103.684.684 0 0 0-.102.968c.298.364.484.792.577 1.258-.94-.103-1.825.13-2.56.68-.95.716-1.509 1.871-1.453 3.017.046 1.015.587 1.74 1.434 1.946.158.037.307.056.475.056.987 0 2.03-.69 2.663-1.798a7.116 7.116 0 0 0 .773-2.011c.903.53 1.248 1.518.94 2.635-.4 1.434-1.946 2.943-4.32 2.869-2.03-.066-3.539-.69-4.34-1.788-.745-1.025-.912-2.468-.456-4.07.996-3.464 2.99-5.876 6.649-8.064-.121-.01-.233-.028-.354-.037a12.026 12.026 0 0 0-.577-.038 33.957 33.957 0 0 0-1.379-.046c-2.952 2.114-4.74 4.581-5.67 7.813l.018.009Zm7.534 2.058c-.466.81-1.192 1.201-1.62 1.09-.234-.056-.364-.29-.383-.68-.028-.69.326-1.416.904-1.853a2.175 2.175 0 0 1 1.313-.429c.14 0 .288.01.447.037a5.617 5.617 0 0 1-.661 1.826v.009Zm-11.822 11.56a2.126 2.126 0 1 1-.26 4.246 2.126 2.126 0 1 1 .26-4.246Zm19.922 1.254a2.126 2.126 0 1 1-.26 4.246 2.126 2.126 0 1 1 .26-4.246Zm-10.284 4.718c-1.006-.065-1.705-.372-1.574-.968.121-.568.885-.829 1.685-.764.792.028 1.528.382 1.574.96.056.605-.68.819-1.685.763v.01Z"/><path stroke="#705842" stroke-linecap="round" stroke-linejoin="round" stroke-width="1.373" d="M55.514 35.38c1.657.27 2.514-.643 2.514-.643s.857 1.192 2.458.913m-2.399-1.705-.01.13-.046.662"/></svg>