<svg width="100" height="14" viewBox="0 0 100 14" fill="none" xmlns="http://www.w3.org/2000/svg">
<path d="M3.20329 1.10454C4.89955 1.10454 6.19343 2.27219 6.39067 4.02367H7.90546V0.284024H9.07312V10.0986H7.90546V5.06509H6.39067C6.15398 6.76923 4.87588 7.90533 3.20329 7.88955C1.32558 7.90533 -0.0156413 6.51677 0.00013777 4.51282C-0.0156413 2.4931 1.32558 1.10454 3.20329 1.10454ZM3.20329 2.17751C2.00408 2.17751 1.10467 3.15582 1.12045 4.51282C1.10467 5.86982 2.00408 6.83235 3.20329 6.83235C4.4025 6.83235 5.28613 5.86982 5.30191 4.51282C5.28613 3.15582 4.4025 2.17751 3.20329 2.17751ZM11.7556 0V10.5089H10.5721V0H11.7556ZM12.1816 12.6864V13.7278H2.55635V9.15187H3.78712V12.6864H12.1816Z" fill="#222222" fill-opacity="0.4"/>
<path d="M18.8885 3.01381C18.8885 4.9073 20.3875 6.61144 22.4861 7.27416L21.8549 8.26824C20.2218 7.71598 18.92 6.5641 18.2889 5.08087C17.6735 6.68245 16.3559 7.94477 14.6912 8.55227L14.0443 7.55819C16.1429 6.81657 17.6419 5.00197 17.6419 3.01381V2.19329H14.3599V1.18343H22.1232V2.19329H18.8885V3.01381ZM25.421 0.0157791V10.3037H24.1902V0.0157791H25.421ZM25.8628 12.6864V13.7278H16.3638V9.32544H17.5946V12.6864H25.8628Z" fill="#222222" fill-opacity="0.4"/>
<path d="M34.2265 0.915187C37.2088 0.930966 39.3547 2.38264 39.3547 4.59172C39.3547 6.68245 37.4928 8.07101 34.8261 8.23669V11.1874H40.6802V12.2288H27.836V11.1874H33.6111V8.23669C30.9523 8.06312 29.0983 6.67456 29.0983 4.59172C29.0983 2.38264 31.2443 0.930966 34.2265 0.915187ZM34.2265 1.94083C31.9543 1.94083 30.2975 3.01381 30.2975 4.59172C30.2975 6.21696 31.9543 7.25838 34.2265 7.27416C36.4987 7.25838 38.1555 6.21696 38.1555 4.59172C38.1555 3.01381 36.4987 1.94083 34.2265 1.94083Z" fill="#222222" fill-opacity="0.4"/>
<path d="M45.8091 0.52071C47.9077 0.536489 49.4383 1.79882 49.4383 3.62919C49.4383 5.45957 47.9077 6.72189 45.8091 6.72189C43.6789 6.72189 42.1641 5.45957 42.1641 3.62919C42.1641 1.79882 43.6789 0.536489 45.8091 0.52071ZM45.8091 1.56213C44.4048 1.56213 43.3634 2.4142 43.3791 3.62919C43.3634 4.85996 44.4048 5.71203 45.8091 5.71203C47.1977 5.71203 48.2391 4.85996 48.2391 3.62919C48.2391 2.4142 47.1977 1.56213 45.8091 1.56213ZM53.4146 0V7.21105H52.1839V0H53.4146ZM53.4146 7.88955V11.2663H45.5409V12.8442H53.9196V13.8383H44.3259V10.3353H52.1839V8.88363H44.2943V7.88955H53.4146Z" fill="#222222" fill-opacity="0.4"/>
<path d="M71.5463 0V8.22091H70.2998V4.56016H67.4596V3.51874H70.2998V0H71.5463ZM71.5463 8.91519V13.8383H62.3787V8.91519H71.5463ZM63.6094 9.90927V12.8284H70.3313V9.90927H63.6094ZM64.7929 2.4931C64.7929 4.30769 66.1972 6.05917 68.2485 6.78501L67.6016 7.76331C66.0158 7.19527 64.7929 6.01183 64.1933 4.56016C63.5858 6.17751 62.2919 7.4714 60.6272 8.0789L59.9803 7.10059C62.0473 6.35897 63.5463 4.49704 63.5463 2.4931V1.94083H60.3747V0.915187H67.9329V1.94083H64.7929V2.4931Z" fill="#222222" fill-opacity="0.4"/>
<path d="M81.1566 0.915187C81.1408 4.43393 78.6319 6.95858 74.5925 8.11045L74.0717 7.13215C77.4248 6.1854 79.5629 4.32347 79.8311 1.94083H74.7976V0.915187H81.1566ZM85.5431 0.0157791V8.01578H84.2966V4.67061H81.1881V3.62919H84.2966V0.0157791H85.5431ZM85.5431 8.61538V13.8383H76.4386V8.61538H85.5431ZM77.6378 9.60947V12.8284H84.3124V9.60947H77.6378Z" fill="#222222" fill-opacity="0.4"/>
<path d="M91.8871 0.52071C93.9857 0.536489 95.5163 1.79882 95.5163 3.62919C95.5163 5.45957 93.9857 6.72189 91.8871 6.72189C89.7569 6.72189 88.2421 5.45957 88.2421 3.62919C88.2421 1.79882 89.7569 0.536489 91.8871 0.52071ZM91.8871 1.56213C90.4828 1.56213 89.4413 2.4142 89.4571 3.62919C89.4413 4.85996 90.4828 5.71203 91.8871 5.71203C93.2757 5.71203 94.3171 4.85996 94.3171 3.62919C94.3171 2.4142 93.2757 1.56213 91.8871 1.56213ZM99.4926 0V7.21105H98.2618V0H99.4926ZM99.4926 7.88955V11.2663H91.6189V12.8442H99.9975V13.8383H90.4039V10.3353H98.2618V8.88363H90.3723V7.88955H99.4926Z" fill="#222222" fill-opacity="0.4"/>
</svg>
