<svg width="54" height="11" viewBox="0 0 54 11" fill="none" xmlns="http://www.w3.org/2000/svg">
<path d="M3.17624 0.984517V9.47012H2.10968V2.08624H2.0628L0 3.45753V2.39097L2.10968 0.984517H3.17624Z" fill="#222222" fill-opacity="0.4"/>
<path d="M5.46229 9.47012L5.45057 8.69657L8.34552 5.64925C9.34762 4.58269 9.82816 4.00839 9.83402 3.22312C9.82816 2.34995 9.10149 1.78737 8.14627 1.78151C7.13245 1.78737 6.49955 2.42613 6.49369 3.37549H5.49745C5.48573 1.87527 6.64606 0.867313 8.18143 0.867313C9.72267 0.867313 10.8127 1.90457 10.8185 3.22312C10.8127 4.17248 10.3732 4.91087 8.87294 6.45797L6.92735 8.46216V8.53248H10.9709V9.47012H5.46229Z" fill="#222222" fill-opacity="0.4"/>
<path d="M20.2189 0V4.2428H21.9066V5.01635H20.2189V10.4195H19.3047V0H20.2189ZM12.2256 7.71205C14.9154 6.37592 16.3804 4.36587 16.5914 1.89871H12.7061V1.12516H17.5232C17.5173 4.07285 16.1343 6.7627 12.7412 8.43872L12.2256 7.71205Z" fill="#222222" fill-opacity="0.4"/>
<path d="M28.8931 9.58732C27.2054 9.58732 25.9923 8.68485 25.9396 7.337H27.0062C27.0648 8.14571 27.8676 8.64969 28.8814 8.64969C30.0007 8.64969 30.8094 8.04609 30.8153 7.16119C30.8094 6.23528 30.0711 5.58479 28.7525 5.57893H28.061V4.65302H28.7525C29.7839 4.65302 30.5047 4.07285 30.4989 3.19968C30.5047 2.34995 29.8835 1.78737 28.9166 1.78151C28.0083 1.78737 27.182 2.28549 27.1351 3.11764H26.1154C26.1681 1.76979 27.4222 0.867313 28.9283 0.867313C30.5457 0.867313 31.5302 1.92801 31.5185 3.14108C31.5302 4.10802 30.9677 4.81124 30.0769 5.06323V5.12183C31.1845 5.29178 31.8526 6.08291 31.8467 7.16119C31.8526 8.55593 30.5868 9.58732 28.8931 9.58732Z" fill="#222222" fill-opacity="0.4"/>
<path d="M33.1834 7.73549V6.86818L37.0043 0.984517H38.3052V6.80958H39.489V7.73549H38.3052V9.47012H37.2973V7.73549H33.1834ZM34.3203 6.80958H37.2973V2.32065H37.1918L34.3203 6.73926V6.80958Z" fill="#222222" fill-opacity="0.4"/>
<path d="M43.6738 9.58732C42.1442 9.58732 40.9839 8.64383 40.9195 7.337H41.9391C42.0153 8.09297 42.7537 8.65555 43.6738 8.66141C44.7755 8.65555 45.5725 7.8527 45.5725 6.78614C45.5725 5.68442 44.7462 4.86985 43.6034 4.86398C42.8885 4.85226 42.3318 5.07495 42.0212 5.62581H41.0015L41.5992 0.984517H46.1937V1.92215H42.4783L42.1618 4.40689H42.2439C42.6248 4.11388 43.1932 3.91463 43.791 3.91463C45.4084 3.91463 46.598 5.11011 46.6039 6.7627C46.598 8.40356 45.3674 9.58732 43.6738 9.58732Z" fill="#222222" fill-opacity="0.4"/>
<path d="M51.0465 9.58732C49.5756 9.56974 47.9523 8.69657 47.9523 5.55549C47.9523 2.5492 49.1829 0.867313 51.1754 0.867313C52.6698 0.867313 53.7129 1.78737 53.9297 3.11764H52.8866C52.6932 2.36753 52.1189 1.80495 51.1754 1.80495C49.7807 1.80495 48.9427 2.99457 48.9485 5.03979H49.054C49.5404 4.3307 50.3198 3.91463 51.234 3.91463C52.7401 3.91463 54 5.08667 54 6.72754C54 8.32738 52.8338 9.60491 51.0465 9.58732ZM49.0892 6.75098C49.095 7.74721 49.9096 8.65555 51.0465 8.66141C52.1423 8.65555 52.9745 7.7941 52.9804 6.73926C52.9745 5.69614 52.1775 4.8464 51.0699 4.84054C49.9565 4.8464 49.1009 5.74888 49.0892 6.75098Z" fill="#222222" fill-opacity="0.4"/>
</svg>
