<svg xmlns="http://www.w3.org/2000/svg" width="26" height="26" fill="none" viewBox="0 0 26 26"><path fill="#FFE142" d="m23.88 13.065-5.436-2.332-2.064-3.526-.065-.098a1.625 1.625 0 0 0-1.268-.609h-6.5a1.625 1.625 0 0 0-1.356.723l-2.755 4.152H2.438a.812.812 0 0 0-.813.813V19.5a.812.812 0 0 0 .813.813h1.738a3.25 3.25 0 0 0 6.273 0h5.102a3.25 3.25 0 0 0 6.273 0h1.738a.812.812 0 0 0 .813-.813v-5.688a.812.812 0 0 0-.496-.747Zm-16.567 8.06a1.625 1.625 0 1 1 0-3.25 1.625 1.625 0 0 1 0 3.25Zm11.375 0a1.625 1.625 0 1 1 0-3.25 1.625 1.625 0 0 1 0 3.25Zm4.062-2.438h-.926a3.25 3.25 0 0 0-6.273 0H10.45a3.25 3.25 0 0 0-6.273 0H3.25V13h1.625a.812.812 0 0 0 .674-.366l3.015-4.509h6.5l2.137 3.656a.812.812 0 0 0 .381.341l5.168 2.227v4.338Z"/></svg>