<svg width="113" height="12" viewBox="0 0 113 12" fill="none" xmlns="http://www.w3.org/2000/svg">
<path d="M3.96711 11.6661C1.44259 11.6661 0 9.5493 0 5.83307C0 2.1482 1.47395 0 3.96711 0C6.46028 0 7.93423 2.1482 7.93423 5.83307C7.93423 9.5493 6.47596 11.6661 3.96711 11.6661ZM3.96711 10.4117C5.59786 10.4117 6.55436 8.76528 6.55436 5.83307C6.55436 2.90085 5.59786 1.22306 3.96711 1.22306C2.33636 1.22306 1.36419 2.90085 1.36419 5.83307C1.36419 8.76528 2.32068 10.4117 3.96711 10.4117Z" fill="#222222"/>
<path d="M13.8621 0.156803V11.5093H12.4352V1.63075H12.3725L9.61277 3.46534V2.03844L12.4352 0.156803H13.8621Z" fill="#222222"/>
<path d="M20.6368 11.6661C18.1122 11.6661 16.6697 9.5493 16.6697 5.83307C16.6697 2.1482 18.1436 0 20.6368 0C23.1299 0 24.6039 2.1482 24.6039 5.83307C24.6039 9.5493 23.1456 11.6661 20.6368 11.6661ZM20.6368 10.4117C22.2675 10.4117 23.224 8.76528 23.224 5.83307C23.224 2.90085 22.2675 1.22306 20.6368 1.22306C19.006 1.22306 18.0338 2.90085 18.0338 5.83307C18.0338 8.76528 18.9903 10.4117 20.6368 10.4117Z" fill="#222222"/>
<path d="M31.4099 5.22154V6.46028H26.4392V5.22154H31.4099Z" fill="#222222"/>
<path d="M37.5103 0.156803V11.5093H36.0834V1.63075H36.0206L33.2609 3.46534V2.03844L36.0834 0.156803H37.5103Z" fill="#222222"/>
<path d="M40.5687 11.5093L40.553 10.4744L44.426 6.39756C45.7745 4.97065 46.4174 4.20232 46.4174 3.15174C46.4174 1.9914 45.4296 1.22306 44.1595 1.22306C42.811 1.22306 41.9485 2.08548 41.9485 3.35558H40.6157C40.6 1.3485 42.1524 0 44.2065 0C46.2606 0 47.7346 1.37987 47.7346 3.15174C47.7346 4.42184 47.1387 5.4097 45.1316 7.4795L42.5287 10.1608V10.2549H47.9384V11.5093H40.5687Z" fill="#222222"/>
<path d="M53.9447 11.6661C51.6867 11.6661 50.0717 10.4588 49.9933 8.65552H51.4202C51.4986 9.73746 52.5805 10.4117 53.929 10.4117C55.4187 10.4117 56.5163 9.59634 56.5163 8.42031C56.5163 7.18157 55.5284 6.30348 53.7565 6.30348H52.8314V5.06473H53.7565C55.1364 5.06473 56.0929 4.2964 56.0929 3.12038C56.0929 1.9914 55.2619 1.22306 53.9761 1.22306C52.7687 1.22306 51.6554 1.89731 51.5927 3.01062H50.2285C50.3069 1.20738 51.969 0 53.9918 0C56.1556 0 57.4728 1.41123 57.4571 3.04198C57.4728 4.32776 56.7201 5.28426 55.5284 5.61354V5.69194C57.0024 5.92715 57.9118 6.97773 57.8961 8.42031C57.9118 10.2863 56.2027 11.6661 53.9447 11.6661Z" fill="#222222"/>
<path d="M59.6844 9.18865V8.02831L64.7962 0.156803H66.5367V7.94991H68.1204V9.18865H66.5367V11.5093H65.1882V9.18865H59.6844ZM61.2054 7.94991H65.1882V1.94436H65.0471L61.2054 7.85582V7.94991Z" fill="#222222"/>
<path d="M74.9108 5.22154V6.46028H69.9401V5.22154H74.9108Z" fill="#222222"/>
<path d="M80.6975 11.6661C78.6434 11.6661 77.0911 10.396 77.0127 8.65552H78.3769C78.4866 9.67474 79.4745 10.4274 80.6975 10.4274C82.1715 10.4274 83.2377 9.34545 83.2377 7.91855C83.2377 6.4446 82.1244 5.36266 80.6035 5.34698C79.647 5.3313 78.91 5.62922 78.4866 6.3662H77.1224L77.9221 0.156803H84.0688V1.41123H79.0982L78.6748 4.73545H78.7845C79.2863 4.34344 80.0546 4.07688 80.8543 4.07688C83.0182 4.07688 84.6176 5.67626 84.6176 7.88719C84.6176 10.0824 82.9555 11.6661 80.6975 11.6661Z" fill="#222222"/>
<path d="M90.5612 11.6661C88.5855 11.6348 86.4216 10.4744 86.4216 6.27212C86.4216 2.25796 88.068 0 90.7337 0C92.7251 0 94.1206 1.22306 94.4185 3.01062H93.023C92.7564 2.00708 92.0038 1.25442 90.7337 1.25442C88.8677 1.25442 87.7544 2.85381 87.7544 5.58218H87.8955C88.5541 4.64137 89.589 4.07688 90.8121 4.07688C92.8348 4.07688 94.5126 5.6449 94.5126 7.84014C94.5126 9.97266 92.9446 11.6818 90.5612 11.6661ZM90.5612 10.4274C92.0351 10.4274 93.1328 9.26705 93.1484 7.85582C93.1328 6.46028 92.0822 5.31562 90.5926 5.31562C89.1029 5.31562 87.9583 6.523 87.9426 7.8715C87.9426 9.20433 89.0402 10.4274 90.5612 10.4274Z" fill="#222222"/>
<path d="M96.8497 11.5093L102.056 1.48963V1.41123H96.05V0.156803H103.514V1.47395L98.3237 11.5093H96.8497Z" fill="#222222"/>
<path d="M108.956 11.6661C106.572 11.6661 104.91 10.349 104.926 8.49872C104.91 7.02477 105.929 5.81739 107.231 5.61354V5.55082C106.102 5.28426 105.365 4.24936 105.365 3.01062C105.365 1.2701 106.886 0 108.956 0C111.025 0 112.546 1.2701 112.562 3.01062C112.546 4.24936 111.794 5.28426 110.681 5.55082V5.61354C111.966 5.81739 112.986 7.02477 113.001 8.49872C112.986 10.349 111.323 11.6661 108.956 11.6661ZM108.956 10.4274C110.586 10.4274 111.59 9.61202 111.59 8.42031C111.59 7.16589 110.477 6.24075 108.956 6.24075C107.435 6.24075 106.306 7.16589 106.337 8.42031C106.306 9.61202 107.325 10.4274 108.956 10.4274ZM108.956 5.04905C110.241 5.04905 111.182 4.26504 111.182 3.12038C111.182 1.9914 110.289 1.22306 108.956 1.22306C107.607 1.22306 106.729 1.9914 106.729 3.12038C106.729 4.26504 107.654 5.04905 108.956 5.04905Z" fill="#222222"/>
</svg>
