<svg width="68" height="15" viewBox="0 0 68 15" fill="none" xmlns="http://www.w3.org/2000/svg">
<path d="M5.08779 1.4334V6.86773H1.93746V9.30924C3.33148 9.29349 4.65462 9.23048 6.14315 8.94695L6.31642 10.5851C4.44197 10.9317 2.8353 10.9632 1.02386 10.9789H0.0157517V5.27681H3.15034V3.02432H0V1.4334H5.08779ZM12.0028 0V14.334H10.0968V0H12.0028ZM9.02571 0.267779V13.641H7.15126V6.5212H5.68636V4.89877H7.15126V0.267779H9.02571Z" fill="#222222"/>
<path d="M25.5815 0V14.3655H23.5495V0H25.5815ZM17.8002 1.00811C19.9581 1.00811 21.5648 2.99282 21.5648 6.11165C21.5648 9.26199 19.9581 11.2309 17.8002 11.2309C15.5949 11.2309 13.9882 9.26199 14.004 6.11165C13.9882 2.99282 15.5949 1.00811 17.8002 1.00811ZM17.8002 2.81955C16.6818 2.81955 15.9415 3.98517 15.9415 6.11165C15.9415 8.25388 16.6818 9.40375 17.8002 9.40375C18.887 9.40375 19.6273 8.25388 19.6273 6.11165C19.6273 3.98517 18.887 2.81955 17.8002 2.81955Z" fill="#222222"/>
<path d="M35.9949 13.0424C33.4903 13.0424 31.6946 11.6562 31.6474 9.67153H34.0416C34.0889 10.5221 34.908 11.0892 36.0106 11.0892C37.1447 11.0892 37.9638 10.4434 37.9481 9.52977C37.9638 8.60042 37.129 7.93885 35.7901 7.93885H34.7347V6.19041H35.7901C36.9085 6.19041 37.696 5.57609 37.696 4.67825C37.696 3.81191 37.0345 3.21334 36.0264 3.21334C35.0183 3.21334 34.1834 3.7804 34.1519 4.64675H31.8837C31.9152 2.67779 33.6951 1.32314 36.0264 1.32314C38.4049 1.32314 39.9958 2.72504 39.98 4.53648C39.9958 5.81237 39.0979 6.72597 37.8221 6.94649V7.041C39.4917 7.24577 40.4211 8.26963 40.4053 9.68728C40.4211 11.6405 38.5624 13.0424 35.9949 13.0424Z" fill="#222222"/>
<path d="M46.2342 3.60713C46.2342 5.92263 46.88 8.31689 48.8332 9.57702L47.7464 11.1364C46.5099 10.3882 45.7223 9.1596 45.2733 7.68682C44.7535 9.30924 43.8951 10.6639 42.5956 11.4515L41.3669 9.97081C43.4934 8.64767 44.281 6.1274 44.281 3.70164V1.22863H46.2342V3.60713ZM54.0628 0V14.334H52.1411V0H54.0628ZM51.0542 0.204772V13.6725H49.1798V6.47394H47.3211V4.83577H49.1798V0.204772H51.0542Z" fill="#222222"/>
<path d="M68.0038 0V14.334H66.0978V7.13551H64.7117V13.641H62.8687V0.236275H64.7117V5.52884H66.0978V0H68.0038ZM61.3566 1.65393V3.27635H58.033V9.388C59.4191 9.38013 60.6477 9.30924 62.0339 9.05722L62.1757 10.6954C60.4272 11.0262 58.8993 11.0734 57.0091 11.0892H56.0168V1.65393H61.3566Z" fill="#222222"/>
</svg>
