<svg width="55" height="15" viewBox="0 0 55 15" fill="none" xmlns="http://www.w3.org/2000/svg">
<path d="M10.9874 0.0158091V4.06295H12.9319V5.72291H10.9874V10.6079H8.96378V0.0158091H10.9874ZM0 8.31561V1.02759H2.00776V3.1144H4.94826V1.02759H6.97183V8.31561H0ZM1.65996 14.1334V9.5171H3.66772V12.5208H11.5091V14.1334H1.65996ZM2.00776 6.73469H4.94826V4.6637H2.00776V6.73469Z" fill="#222222" fill-opacity="0.4"/>
<path d="M24.995 0.0158091V2.95631H26.9553V4.61627H24.995V7.57258H22.9872V0.0158091H24.995ZM14.1816 7.11411V0.616556H16.2051V5.46206C17.952 5.42254 19.8254 5.28816 21.8174 4.88502L22.0545 6.52918C19.6831 6.97183 17.4461 7.12202 15.4147 7.11411H14.1816ZM15.5411 14.2282V8.22075H17.5331V9.67519H22.9872V8.22075H25.0108V14.2282H15.5411ZM17.5331 12.6157H22.9872V11.2719H17.5331V12.6157Z" fill="#222222" fill-opacity="0.4"/>
<path d="M33.2165 3.25668C33.2086 5.89681 34.4101 8.54484 36.8526 9.58034L35.6669 11.1929C34.0228 10.4498 32.8845 9.01121 32.2284 7.23268C31.5803 9.17721 30.4025 10.7423 28.6477 11.5407L27.4304 9.8649C29.944 8.80569 31.1692 6.047 31.1771 3.25668V1.10664H33.2165V3.25668ZM37.6273 14.4179V0H39.6667V14.4179H37.6273Z" fill="#222222" fill-opacity="0.4"/>
<path d="M53.0578 0V4.03133H55.0023V5.69129H53.0578V10.3076H51.0184V0H53.0578ZM41.5487 7.30382C44.7738 6.41061 46.5997 4.74274 46.9159 2.71917H42.1811V1.07502H49.1371C49.1292 4.96407 46.7025 7.68324 42.3866 8.90055L41.5487 7.30382ZM43.6987 14.1334V9.24835H45.7381V12.5208H53.5478V14.1334H43.6987Z" fill="#222222" fill-opacity="0.4"/>
</svg>
