<svg width="287" height="62" viewBox="0 0 287 62" fill="none" xmlns="http://www.w3.org/2000/svg">
<path d="M216.693 1.314V12.6395H215.27V2.78443H215.207L212.454 4.61465V3.19115L215.27 1.314H216.693Z" fill="#222222"/>
<path d="M223.436 12.7959C221.394 12.7959 219.846 11.5366 219.76 9.79245H221.121C221.222 10.8014 222.208 11.5523 223.436 11.5601C224.906 11.5523 225.97 10.4807 225.97 9.05723C225.97 7.5868 224.867 6.49962 223.342 6.4918C222.388 6.47615 221.645 6.77337 221.23 7.50858H219.869L220.667 1.314H226.799V2.56543H221.84L221.418 5.88172H221.527C222.036 5.49065 222.795 5.22472 223.592 5.22472C225.751 5.22472 227.339 6.8203 227.347 9.02594C227.339 11.2159 225.696 12.7959 223.436 12.7959Z" fill="#222222"/>
<path d="M233.041 12.7959C230.531 12.7959 229.076 10.6841 229.084 6.97673C229.076 3.30065 230.546 1.15757 233.041 1.15757C235.529 1.15757 236.999 3.30065 236.999 6.97673C236.999 10.6841 235.552 12.7959 233.041 12.7959ZM230.445 6.97673C230.452 9.90977 231.399 11.5444 233.041 11.5444C234.676 11.5444 235.63 9.90977 235.622 6.97673C235.63 4.04369 234.668 2.38554 233.041 2.37772C231.415 2.38554 230.452 4.04369 230.445 6.97673Z" fill="#222222"/>
<path d="M240.285 11.5914L239.065 15.8462H237.907L238.767 11.5914H240.285Z" fill="#222222"/>
<path d="M245.964 12.7959C243.453 12.7959 241.998 10.6841 242.006 6.97673C241.998 3.30065 243.469 1.15757 245.964 1.15757C248.451 1.15757 249.922 3.30065 249.922 6.97673C249.922 10.6841 248.475 12.7959 245.964 12.7959ZM243.367 6.97673C243.375 9.90977 244.321 11.5444 245.964 11.5444C247.599 11.5444 248.553 9.90977 248.545 6.97673C248.553 4.04369 247.591 2.38554 245.964 2.37772C244.337 2.38554 243.375 4.04369 243.367 6.97673Z" fill="#222222"/>
<path d="M255.538 12.7959C253.027 12.7959 251.573 10.6841 251.58 6.97673C251.573 3.30065 253.043 1.15757 255.538 1.15757C258.025 1.15757 259.496 3.30065 259.496 6.97673C259.496 10.6841 258.049 12.7959 255.538 12.7959ZM252.941 6.97673C252.949 9.90977 253.896 11.5444 255.538 11.5444C257.173 11.5444 258.127 9.90977 258.119 6.97673C258.127 4.04369 257.165 2.38554 255.538 2.37772C253.911 2.38554 252.949 4.04369 252.941 6.97673Z" fill="#222222"/>
<path d="M265.112 12.7959C262.602 12.7959 261.147 10.6841 261.155 6.97673C261.147 3.30065 262.617 1.15757 265.112 1.15757C267.6 1.15757 269.07 3.30065 269.07 6.97673C269.07 10.6841 267.623 12.7959 265.112 12.7959ZM262.516 6.97673C262.523 9.90977 263.47 11.5444 265.112 11.5444C266.747 11.5444 267.701 9.90977 267.693 6.97673C267.701 4.04369 266.739 2.38554 265.112 2.37772C263.485 2.38554 262.523 4.04369 262.516 6.97673Z" fill="#222222"/>
<path d="M285.997 0.0156429V10.5746H284.761V9.13544H281.883V8.2438H284.761V0.0156429H285.997ZM274.453 6.46051C277.041 6.44487 280.53 6.4214 283.51 6.0538L283.588 6.94544C282.352 7.14098 281.046 7.26612 279.771 7.34433V10.0897H278.535V7.40691C277.128 7.46166 275.79 7.46166 274.625 7.46166L274.453 6.46051ZM275.579 3.00343C275.571 1.54082 276.963 0.578787 279.02 0.578787C281.062 0.578787 282.454 1.54082 282.462 3.00343C282.454 4.48951 281.062 5.41244 279.02 5.41244C276.963 5.41244 275.571 4.48951 275.579 3.00343ZM276.455 13.6093V9.54216H277.691V12.5769H286.341V13.6093H276.455ZM276.752 3.00343C276.736 3.91072 277.659 4.49733 279.02 4.50515C280.342 4.49733 281.281 3.91072 281.289 3.00343C281.281 2.11179 280.342 1.50172 279.02 1.51736C277.659 1.50172 276.736 2.11179 276.752 3.00343Z" fill="#222222"/>
<path d="M11.5132 0.0156429V8.21251H10.2774V7.44601H7.46166V6.63258H10.2774V0.0156429H11.5132ZM0 5.25601C2.69058 5.27165 6.13201 5.24037 9.13544 4.91187L9.21366 5.70965C7.85273 5.90519 6.43705 6.02251 5.05265 6.08508V8.25944H3.84815V6.13201C2.53415 6.17894 1.2749 6.18676 0.140786 6.17894L0 5.25601ZM11.5132 8.71309V11.5914H3.39451V12.8428H11.9668V13.7501H2.19V10.731H10.293V9.60473H2.12743V8.71309H11.5132ZM4.53644 0.281572C6.6013 0.281572 7.97787 1.095 7.99351 2.37772C7.97787 3.67608 6.6013 4.45822 4.53644 4.45822C2.44029 4.45822 1.07936 3.67608 1.07936 2.37772C1.07936 1.095 2.44029 0.281572 4.53644 0.281572ZM4.53644 1.14193C3.12858 1.14193 2.22129 1.62686 2.23693 2.37772C2.22129 3.11293 3.12858 3.61351 4.53644 3.61351C5.92865 3.61351 6.83594 3.11293 6.83594 2.37772C6.83594 1.62686 5.92865 1.14193 4.53644 1.14193Z" fill="#222222" fill-opacity="0.4"/>
<path d="M29.504 0V7.11751H28.2682V5.66272H24.5608V4.69287H28.2682V3.01908H24.7642C23.8882 5.2169 21.7295 6.69515 18.6478 7.43037L18.2098 6.41358C21.62 5.62362 23.6066 3.95765 23.8413 1.72072H18.9137V0.70393H25.1865C25.1865 1.16539 25.1396 1.61122 25.0614 2.03357H28.2682V0H29.504ZM29.504 7.74323V11.1377H21.7451V12.7646H29.9733V13.7814H20.525V10.1992H28.2682V8.74437H20.4937V7.74323H29.504Z" fill="#222222" fill-opacity="0.4"/>
<path d="M43.7398 0V13.9065H42.5665V0H43.7398ZM40.924 0.344143V13.187H39.7665V6.02251H37.42V5.02137H39.7665V0.344143H40.924ZM35.934 3.97329C35.934 6.3823 37.0133 8.77566 38.9374 9.8863L38.1865 10.7936C36.8178 9.97234 35.8479 8.47062 35.3708 6.69515C34.8624 8.61141 33.8535 10.2461 32.4612 11.1221L31.6791 10.1992C33.6188 9.04159 34.7451 6.50744 34.7451 3.97329V2.65929H32.0702V1.6425H38.4837V2.65929H35.934V3.97329Z" fill="#222222" fill-opacity="0.4"/>
<path d="M60.8389 0.750858V1.78329C60.8389 2.86265 60.8389 4.12972 60.4791 5.86608H62.5127V6.88287H49.7794V5.86608H59.2434C59.6188 4.1219 59.6188 2.86265 59.6188 1.78329V1.76765H51.3906V0.750858H60.8389ZM60.9015 8.80694V13.7188H51.3437V8.80694H60.9015ZM52.5638 9.7768V12.7177H59.6814V9.7768H52.5638Z" fill="#222222" fill-opacity="0.4"/>
<path d="M66.9873 0.876002C68.8176 0.876002 70.1785 2.23693 70.1785 4.16101C70.1785 6.10072 68.8176 7.41473 66.9873 7.41473C65.1258 7.41473 63.7962 6.10072 63.8118 4.16101C63.7962 2.23693 65.1258 0.876002 66.9873 0.876002ZM66.9873 1.93972C65.7985 1.93972 64.9068 2.87829 64.9225 4.16101C64.9068 5.44372 65.7985 6.3823 66.9873 6.3823C68.1762 6.3823 69.0366 5.44372 69.0522 4.16101C69.0366 2.87829 68.1762 1.93972 66.9873 1.93972ZM75.4658 0.0156429V8.29073H74.2926V4.61465H72.4467V8.19687H71.2891V0.281572H72.4467V3.59786H74.2926V0.0156429H75.4658ZM75.4658 9.07287V13.9065H74.2613V10.0584H66.0957V9.07287H75.4658Z" fill="#222222" fill-opacity="0.4"/>
<path d="M120.184 36.6669L120.169 35.6345L124.032 31.5673C125.378 30.1438 126.019 29.3773 126.019 28.3293C126.019 27.1717 125.034 26.4052 123.767 26.4052C122.421 26.4052 121.561 27.2655 121.561 28.5326H120.231C120.216 26.5303 121.764 25.185 123.813 25.185C125.863 25.185 127.333 26.5616 127.333 28.3293C127.333 29.5963 126.739 30.5818 124.736 32.6467L122.14 35.3216V35.4155H127.536V36.6669H120.184Z" fill="#222222"/>
<path d="M133.325 36.8233C130.807 36.8233 129.367 34.7116 129.367 31.0042C129.367 27.3281 130.838 25.185 133.325 25.185C135.812 25.185 137.283 27.3281 137.283 31.0042C137.283 34.7116 135.828 36.8233 133.325 36.8233ZM133.325 35.5719C134.952 35.5719 135.906 33.9294 135.906 31.0042C135.906 28.079 134.952 26.4052 133.325 26.4052C131.698 26.4052 130.728 28.079 130.728 31.0042C130.728 33.9294 131.683 35.5719 133.325 35.5719Z" fill="#222222"/>
<path d="M139.192 36.6669L139.176 35.6345L143.04 31.5673C144.385 30.1438 145.027 29.3773 145.027 28.3293C145.027 27.1717 144.041 26.4052 142.774 26.4052C141.429 26.4052 140.568 27.2655 140.568 28.5326H139.239C139.223 26.5303 140.772 25.185 142.821 25.185C144.87 25.185 146.341 26.5616 146.341 28.3293C146.341 29.5963 145.746 30.5818 143.744 32.6467L141.147 35.3216V35.4155H146.544V36.6669H139.192Z" fill="#222222"/>
<path d="M152.536 36.8233C150.283 36.8233 148.672 35.6188 148.594 33.8199H150.018C150.096 34.8993 151.175 35.5719 152.52 35.5719C154.006 35.5719 155.101 34.7585 155.101 33.5853C155.101 32.3495 154.116 31.4735 152.348 31.4735H151.425V30.2377H152.348C153.725 30.2377 154.679 29.4712 154.679 28.298C154.679 27.1717 153.85 26.4052 152.567 26.4052C151.363 26.4052 150.252 27.0778 150.19 28.1885H148.829C148.907 26.3895 150.565 25.185 152.583 25.185C154.742 25.185 156.056 26.5929 156.04 28.2198C156.056 29.5025 155.305 30.4567 154.116 30.7852V30.8634C155.586 31.0981 156.494 32.1461 156.478 33.5853C156.494 35.4468 154.789 36.8233 152.536 36.8233Z" fill="#222222"/>
<path d="M159.154 36.7608C158.606 36.7608 158.137 36.3071 158.153 35.744C158.137 35.1965 158.606 34.7428 159.154 34.7428C159.701 34.7428 160.155 35.1965 160.155 35.744C160.155 36.3071 159.701 36.7608 159.154 36.7608Z" fill="#222222"/>
<path d="M165.584 36.8233C163.065 36.8233 161.626 34.7116 161.626 31.0042C161.626 27.3281 163.096 25.185 165.584 25.185C168.071 25.185 169.541 27.3281 169.541 31.0042C169.541 34.7116 168.087 36.8233 165.584 36.8233ZM165.584 35.5719C167.211 35.5719 168.165 33.9294 168.165 31.0042C168.165 28.079 167.211 26.4052 165.584 26.4052C163.957 26.4052 162.987 28.079 162.987 31.0042C162.987 33.9294 163.941 35.5719 165.584 35.5719Z" fill="#222222"/>
<path d="M171.497 36.6669L176.691 26.6711V26.5929H170.7V25.3415H178.146V26.6555L172.968 36.6669H171.497Z" fill="#222222"/>
<path d="M179.022 36.7608C178.475 36.7608 178.006 36.3071 178.021 35.744C178.006 35.1965 178.475 34.7428 179.022 34.7428C179.57 34.7428 180.024 35.1965 180.024 35.744C180.024 36.3071 179.57 36.7608 179.022 36.7608Z" fill="#222222"/>
<path d="M185.452 36.8233C182.934 36.8233 181.495 34.7116 181.495 31.0042C181.495 27.3281 182.965 25.185 185.452 25.185C187.94 25.185 189.41 27.3281 189.41 31.0042C189.41 34.7116 187.955 36.8233 185.452 36.8233ZM185.452 35.5719C187.079 35.5719 188.033 33.9294 188.033 31.0042C188.033 28.079 187.079 26.4052 185.452 26.4052C183.826 26.4052 182.856 28.079 182.856 31.0042C182.856 33.9294 183.81 35.5719 185.452 35.5719Z" fill="#222222"/>
<path d="M195.324 25.3415V36.6669H193.9V26.8119H193.838L191.085 28.6421V27.2186L193.9 25.3415H195.324Z" fill="#222222"/>
<path d="M198.829 30.8321C199.329 30.2533 199.955 29.9405 200.643 29.9405C201.832 29.9405 202.911 30.8478 204.053 30.8478C204.757 30.8478 205.367 30.5036 205.837 29.8623V31.1606C205.32 31.7551 204.71 32.0523 204.022 32.0523C202.833 32.0523 201.754 31.145 200.596 31.145C199.908 31.145 199.298 31.4891 198.829 32.1305V30.8321Z" fill="#222222"/>
<path d="M207.933 36.6669L207.918 35.6345L211.782 31.5673C213.127 30.1438 213.768 29.3773 213.768 28.3293C213.768 27.1717 212.783 26.4052 211.516 26.4052C210.17 26.4052 209.31 27.2655 209.31 28.5326H207.98C207.965 26.5303 209.513 25.185 211.563 25.185C213.612 25.185 215.082 26.5616 215.082 28.3293C215.082 29.5963 214.488 30.5818 212.486 32.6467L209.889 35.3216V35.4155H215.286V36.6669H207.933Z" fill="#222222"/>
<path d="M221.074 36.8233C218.556 36.8233 217.117 34.7116 217.117 31.0042C217.117 27.3281 218.587 25.185 221.074 25.185C223.561 25.185 225.032 27.3281 225.032 31.0042C225.032 34.7116 223.577 36.8233 221.074 36.8233ZM221.074 35.5719C222.701 35.5719 223.655 33.9294 223.655 31.0042C223.655 28.079 222.701 26.4052 221.074 26.4052C219.447 26.4052 218.478 28.079 218.478 31.0042C218.478 33.9294 219.432 35.5719 221.074 35.5719Z" fill="#222222"/>
<path d="M226.941 36.6669L226.925 35.6345L230.789 31.5673C232.135 30.1438 232.776 29.3773 232.776 28.3293C232.776 27.1717 231.79 26.4052 230.523 26.4052C229.178 26.4052 228.318 27.2655 228.318 28.5326H226.988C226.972 26.5303 228.521 25.185 230.57 25.185C232.619 25.185 234.09 26.5616 234.09 28.3293C234.09 29.5963 233.495 30.5818 231.493 32.6467L228.896 35.3216V35.4155H234.293V36.6669H226.941Z" fill="#222222"/>
<path d="M240.285 36.8233C238.033 36.8233 236.421 35.6188 236.343 33.8199H237.767C237.845 34.8993 238.924 35.5719 240.27 35.5719C241.756 35.5719 242.851 34.7585 242.851 33.5853C242.851 32.3495 241.865 31.4735 240.097 31.4735H239.175V30.2377H240.097C241.474 30.2377 242.428 29.4712 242.428 28.298C242.428 27.1717 241.599 26.4052 240.317 26.4052C239.112 26.4052 238.001 27.0778 237.939 28.1885H236.578C236.656 26.3895 238.314 25.185 240.332 25.185C242.491 25.185 243.805 26.5929 243.789 28.2198C243.805 29.5025 243.054 30.4567 241.865 30.7852V30.8634C243.336 31.0981 244.243 32.1461 244.227 33.5853C244.243 35.4468 242.538 36.8233 240.285 36.8233Z" fill="#222222"/>
<path d="M246.903 36.7608C246.355 36.7608 245.886 36.3071 245.902 35.744C245.886 35.1965 246.355 34.7428 246.903 34.7428C247.45 34.7428 247.904 35.1965 247.904 35.744C247.904 36.3071 247.45 36.7608 246.903 36.7608Z" fill="#222222"/>
<path d="M253.333 36.8233C250.814 36.8233 249.375 34.7116 249.375 31.0042C249.375 27.3281 250.846 25.185 253.333 25.185C255.82 25.185 257.291 27.3281 257.291 31.0042C257.291 34.7116 255.836 36.8233 253.333 36.8233ZM253.333 35.5719C254.96 35.5719 255.914 33.9294 255.914 31.0042C255.914 28.079 254.96 26.4052 253.333 26.4052C251.706 26.4052 250.736 28.079 250.736 31.0042C250.736 33.9294 251.69 35.5719 253.333 35.5719Z" fill="#222222"/>
<path d="M262.985 36.8233C260.608 36.8233 258.949 35.5093 258.965 33.6635C258.949 32.1931 259.966 30.9886 261.265 30.7852V30.7226C260.138 30.4567 259.403 29.4243 259.403 28.1885C259.403 26.4521 260.92 25.185 262.985 25.185C265.05 25.185 266.568 26.4521 266.583 28.1885C266.568 29.4243 265.817 30.4567 264.706 30.7226V30.7852C265.989 30.9886 267.006 32.1931 267.021 33.6635C267.006 35.5093 265.347 36.8233 262.985 36.8233ZM262.985 35.5876C264.612 35.5876 265.613 34.7741 265.613 33.5853C265.613 32.3338 264.503 31.4109 262.985 31.4109C261.468 31.4109 260.342 32.3338 260.373 33.5853C260.342 34.7741 261.358 35.5876 262.985 35.5876ZM262.985 30.2221C264.268 30.2221 265.207 29.4399 265.207 28.298C265.207 27.1717 264.315 26.4052 262.985 26.4052C261.64 26.4052 260.764 27.1717 260.764 28.298C260.764 29.4399 261.687 30.2221 262.985 30.2221Z" fill="#222222"/>
<path d="M269.556 36.7608C269.009 36.7608 268.539 36.3071 268.555 35.744C268.539 35.1965 269.009 34.7428 269.556 34.7428C270.104 34.7428 270.557 35.1965 270.557 35.744C270.557 36.3071 270.104 36.7608 269.556 36.7608Z" fill="#222222"/>
<path d="M275.986 36.8233C273.468 36.8233 272.028 34.7116 272.028 31.0042C272.028 27.3281 273.499 25.185 275.986 25.185C278.473 25.185 279.944 27.3281 279.944 31.0042C279.944 34.7116 278.489 36.8233 275.986 36.8233ZM275.986 35.5719C277.613 35.5719 278.567 33.9294 278.567 31.0042C278.567 28.079 277.613 26.4052 275.986 26.4052C274.359 26.4052 273.389 28.079 273.389 31.0042C273.389 33.9294 274.344 35.5719 275.986 35.5719Z" fill="#222222"/>
<path d="M285.857 25.3415V36.6669H284.434V26.8119H284.371L281.618 28.6421V27.2186L284.434 25.3415H285.857Z" fill="#222222"/>
<path d="M11.0439 24.9348V26.1549C11.0439 27.4767 11.0439 28.9081 10.6528 30.9103H12.7177V31.9271H6.97673V37.9653H5.74094V31.9271H0.0469287V30.9103H9.40137C9.82373 28.9081 9.82373 27.4454 9.82373 26.1549V25.9515H1.6425V24.9348H11.0439Z" fill="#222222" fill-opacity="0.4"/>
<path d="M26.5937 30.9729V31.9741H13.9229V30.9729H19.6482V29.2835H15.5341V24.5906H25.0294V25.6074H16.7543V28.2667H25.1545V29.2835H20.8684V30.9729H26.5937ZM25.045 33.335V38.0435H23.8249V34.3361H15.3308V33.335H25.045Z" fill="#222222" fill-opacity="0.4"/>
<path d="M205.149 60.6944L205.133 59.662L208.997 55.5948C210.342 54.1713 210.983 53.4048 210.983 52.3567C210.983 51.1992 209.998 50.4327 208.731 50.4327C207.386 50.4327 206.525 51.293 206.525 52.5601H205.196C205.18 50.5578 206.729 49.2125 208.778 49.2125C210.827 49.2125 212.297 50.5891 212.297 52.3567C212.297 53.6238 211.703 54.6093 209.701 56.6742L207.104 59.3491V59.443H212.501V60.6944H205.149Z" fill="#222222"/>
<path d="M218.289 60.8508C215.771 60.8508 214.332 58.739 214.332 55.0317C214.332 51.3556 215.802 49.2125 218.289 49.2125C220.777 49.2125 222.247 51.3556 222.247 55.0317C222.247 58.739 220.792 60.8508 218.289 60.8508ZM218.289 59.5994C219.916 59.5994 220.87 57.9569 220.87 55.0317C220.87 52.1064 219.916 50.4327 218.289 50.4327C216.663 50.4327 215.693 52.1064 215.693 55.0317C215.693 57.9569 216.647 59.5994 218.289 59.5994Z" fill="#222222"/>
<path d="M224.156 60.6944L224.141 59.662L228.004 55.5948C229.35 54.1713 229.991 53.4048 229.991 52.3567C229.991 51.1992 229.006 50.4327 227.738 50.4327C226.393 50.4327 225.533 51.293 225.533 52.5601H224.203C224.187 50.5578 225.736 49.2125 227.785 49.2125C229.835 49.2125 231.305 50.5891 231.305 52.3567C231.305 53.6238 230.711 54.6093 228.708 56.6742L226.112 59.3491V59.443H231.508V60.6944H224.156Z" fill="#222222"/>
<path d="M237.5 60.8508C235.248 60.8508 233.637 59.6463 233.558 57.8474H234.982C235.06 58.9267 236.139 59.5994 237.485 59.5994C238.971 59.5994 240.066 58.786 240.066 57.6127C240.066 56.377 239.08 55.501 237.313 55.501H236.39V54.2652H237.313C238.689 54.2652 239.643 53.4987 239.643 52.3254C239.643 51.1992 238.814 50.4327 237.532 50.4327C236.327 50.4327 235.216 51.1053 235.154 52.2159H233.793C233.871 50.417 235.529 49.2125 237.547 49.2125C239.706 49.2125 241.02 50.6204 241.004 52.2472C241.02 53.53 240.269 54.4842 239.08 54.8127V54.8909C240.551 55.1255 241.458 56.1736 241.442 57.6127C241.458 59.4742 239.753 60.8508 237.5 60.8508Z" fill="#222222"/>
<path d="M244.118 60.7882C243.571 60.7882 243.101 60.3346 243.117 59.7715C243.101 59.224 243.571 58.7703 244.118 58.7703C244.666 58.7703 245.119 59.224 245.119 59.7715C245.119 60.3346 244.666 60.7882 244.118 60.7882Z" fill="#222222"/>
<path d="M250.548 60.8508C248.03 60.8508 246.59 58.739 246.59 55.0317C246.59 51.3556 248.061 49.2125 250.548 49.2125C253.035 49.2125 254.506 51.3556 254.506 55.0317C254.506 58.739 253.051 60.8508 250.548 60.8508ZM250.548 59.5994C252.175 59.5994 253.129 57.9569 253.129 55.0317C253.129 52.1064 252.175 50.4327 250.548 50.4327C248.921 50.4327 247.951 52.1064 247.951 55.0317C247.951 57.9569 248.906 59.5994 250.548 59.5994Z" fill="#222222"/>
<path d="M260.2 60.8508C257.823 60.8508 256.165 59.5368 256.18 57.691C256.165 56.2205 257.181 55.016 258.48 54.8127V54.7501C257.353 54.4842 256.618 53.4517 256.618 52.2159C256.618 50.4796 258.136 49.2125 260.2 49.2125C262.265 49.2125 263.783 50.4796 263.798 52.2159C263.783 53.4517 263.032 54.4842 261.921 54.7501V54.8127C263.204 55.016 264.221 56.2205 264.236 57.691C264.221 59.5368 262.562 60.8508 260.2 60.8508ZM260.2 59.615C261.827 59.615 262.828 58.8016 262.828 57.6127C262.828 56.3613 261.718 55.4384 260.2 55.4384C258.683 55.4384 257.557 56.3613 257.588 57.6127C257.557 58.8016 258.574 59.615 260.2 59.615ZM260.2 54.2495C261.483 54.2495 262.422 53.4674 262.422 52.3254C262.422 51.1992 261.53 50.4327 260.2 50.4327C258.855 50.4327 257.979 51.1992 257.979 52.3254C257.979 53.4674 258.902 54.2495 260.2 54.2495Z" fill="#222222"/>
<path d="M266.771 60.7882C266.224 60.7882 265.754 60.3346 265.77 59.7715C265.754 59.224 266.224 58.7703 266.771 58.7703C267.319 58.7703 267.772 59.224 267.772 59.7715C267.772 60.3346 267.319 60.7882 266.771 60.7882Z" fill="#222222"/>
<path d="M269.901 60.6944L269.885 59.662L273.749 55.5948C275.094 54.1713 275.735 53.4048 275.735 52.3567C275.735 51.1992 274.75 50.4327 273.483 50.4327C272.137 50.4327 271.277 51.293 271.277 52.5601H269.947C269.932 50.5578 271.48 49.2125 273.53 49.2125C275.579 49.2125 277.049 50.5891 277.049 52.3567C277.049 53.6238 276.455 54.6093 274.453 56.6742L271.856 59.3491V59.443H277.253V60.6944H269.901Z" fill="#222222"/>
<path d="M283.041 60.8508C280.523 60.8508 279.084 58.739 279.084 55.0317C279.084 51.3556 280.554 49.2125 283.041 49.2125C285.529 49.2125 286.999 51.3556 286.999 55.0317C286.999 58.739 285.544 60.8508 283.041 60.8508ZM283.041 59.5994C284.668 59.5994 285.622 57.9569 285.622 55.0317C285.622 52.1064 284.668 50.4327 283.041 50.4327C281.414 50.4327 280.445 52.1064 280.445 55.0317C280.445 57.9569 281.399 59.5994 283.041 59.5994Z" fill="#222222"/>
<path d="M11.5757 48.0549V55.1725H10.3399V53.7177H6.63258V52.7478H10.3399V51.074H6.83594C5.95994 53.2718 3.80122 54.7501 0.719573 55.4853L0.281572 54.4685C3.69172 53.6786 5.67837 52.0126 5.91301 49.7757H0.985502V48.7589H7.2583C7.2583 49.2203 7.21137 49.6662 7.13316 50.0885H10.3399V48.0549H11.5757ZM11.5757 55.7982V59.1927H3.81686V60.8195H12.045V61.8363H2.59672V58.2541H10.3399V56.7993H2.56543V55.7982H11.5757Z" fill="#222222" fill-opacity="0.4"/>
<path d="M25.8115 48.0549V61.9615H24.6383V48.0549H25.8115ZM22.9958 48.3991V61.2419H21.8382V54.0775H19.4918V53.0763H21.8382V48.3991H22.9958ZM18.0057 52.0282C18.0057 54.4372 19.0851 56.8306 21.0091 57.9412L20.2583 58.8485C18.8895 58.0273 17.9197 56.5256 17.4426 54.7501C16.9342 56.6663 15.9252 58.301 14.533 59.177L13.7508 58.2541C15.6906 57.0965 16.8169 54.5624 16.8169 52.0282V50.7142H14.1419V49.6974H20.5555V50.7142H18.0057V52.0282Z" fill="#222222" fill-opacity="0.4"/>
<path d="M43.771 48.0549V61.9615H42.5822V48.0549H43.771ZM41.0023 48.3522V61.2575H39.829V56.6898H37.6077C37.1228 58.082 36.1999 58.8955 35.011 58.8955C33.1965 58.8955 32.0232 57.0183 32.0232 54.0618C32.0232 51.1053 33.1965 49.2282 35.011 49.2282C36.1999 49.2282 37.1228 50.0416 37.6077 51.4338H39.829V48.3522H41.0023ZM35.011 50.3857C33.8691 50.3857 33.1652 51.7936 33.1652 54.0618C33.1652 56.3144 33.8691 57.7379 35.011 57.7222C36.1373 57.7379 36.8725 56.3144 36.8725 54.0618C36.8725 51.7936 36.1373 50.3857 35.011 50.3857ZM37.8737 52.4506C37.9675 52.9433 38.0145 53.483 38.0145 54.0618C38.0145 54.6328 37.9675 55.1725 37.8893 55.6574H39.829V52.4506H37.8737Z" fill="#222222" fill-opacity="0.4"/>
<path d="M57.256 48.0549V56.3457H56.0202V52.7009H53.2201V51.6841H56.0202V48.0549H57.256ZM52.6413 56.7837C55.5352 56.7837 57.3029 57.7222 57.3029 59.3647C57.3029 61.0072 55.5352 61.9458 52.6413 61.9615C49.7474 61.9458 47.9797 61.0072 47.9797 59.3647C47.9797 57.7222 49.7474 56.7837 52.6413 56.7837ZM52.6413 57.7379C50.5139 57.7379 49.1842 58.348 49.1999 59.3647C49.1842 60.3659 50.5139 60.976 52.6413 60.976C54.7687 60.976 56.0827 60.3659 56.0827 59.3647C56.0827 58.348 54.7687 57.7379 52.6413 57.7379ZM50.5608 50.6047C50.5608 52.4193 51.953 54.14 53.9866 54.844L53.3452 55.8295C51.7809 55.2663 50.5686 54.1009 49.982 52.6539C49.3719 54.2886 48.0814 55.5948 46.4311 56.2205L45.7897 55.235C47.8546 54.4842 49.325 52.607 49.325 50.6204V50.1042H46.1808V49.0717H53.6737V50.1042H50.5608V50.6047Z" fill="#222222" fill-opacity="0.4"/>
<path d="M63.5452 48.5712C65.6257 48.5868 67.143 49.8382 67.143 51.6528C67.143 53.4674 65.6257 54.7188 63.5452 54.7188C61.4334 54.7188 59.9316 53.4674 59.9316 51.6528C59.9316 49.8382 61.4334 48.5868 63.5452 48.5712ZM63.5452 49.6036C62.1529 49.6036 61.1205 50.4483 61.1361 51.6528C61.1205 52.8729 62.1529 53.7177 63.5452 53.7177C64.9217 53.7177 65.9542 52.8729 65.9542 51.6528C65.9542 50.4483 64.9217 49.6036 63.5452 49.6036ZM71.085 48.0549V55.2037H69.8649V48.0549H71.085ZM71.085 55.8764V59.224H63.2792V60.7882H71.5856V61.7738H62.0747V58.301H69.8649V56.8619H62.0434V55.8764H71.085Z" fill="#222222" fill-opacity="0.4"/>
</svg>
