<svg width="18" height="18" viewBox="0 0 18 18" fill="none" xmlns="http://www.w3.org/2000/svg">
<path fill-rule="evenodd" clip-rule="evenodd" d="M9.00012 5.625C9.62151 5.625 10.1252 5.12132 10.1252 4.5C10.1252 3.87868 9.62151 3.375 9.00012 3.375C8.37873 3.375 7.875 3.87868 7.875 4.5C7.875 5.12132 8.37873 5.625 9.00012 5.625ZM9.00012 10.125C9.62151 10.125 10.1252 9.62132 10.1252 9C10.1252 8.37868 9.62151 7.875 9.00012 7.875C8.37873 7.875 7.875 8.37868 7.875 9C7.875 9.62132 8.37873 10.125 9.00012 10.125ZM10.1252 13.5C10.1252 14.1213 9.62151 14.625 9.00012 14.625C8.37873 14.625 7.875 14.1213 7.875 13.5C7.875 12.8787 8.37873 12.375 9.00012 12.375C9.62151 12.375 10.1252 12.8787 10.1252 13.5Z" fill="#BABCC4"/>
</svg>
