<svg width="24" height="23" viewBox="0 0 24 23" fill="none" xmlns="http://www.w3.org/2000/svg">
<path d="M20.9481 9.91762L5.11231 1.6913C4.84586 1.5529 4.54022 1.49323 4.23623 1.52027C3.93225 1.54732 3.64441 1.65978 3.41117 1.84264C3.17793 2.02549 3.01041 2.27003 2.931 2.54357C2.85159 2.8171 2.86407 3.10661 2.96677 3.37339L5.68588 10.436H12.7502C12.9491 10.436 13.1399 10.5093 13.2805 10.6398C13.4212 10.7703 13.5002 10.9472 13.5002 11.1318C13.5002 11.3163 13.4212 11.4932 13.2805 11.6237C13.1399 11.7542 12.9491 11.8275 12.7502 11.8275H5.68588L2.96677 18.8901C2.88638 19.1001 2.86137 19.3248 2.89384 19.5456C2.9263 19.7663 3.01529 19.9766 3.15336 20.1589C3.29143 20.3412 3.47456 20.4902 3.68742 20.5934C3.90029 20.6965 4.13669 20.7509 4.37686 20.7519C4.63459 20.7515 4.88787 20.6896 5.1124 20.5722L20.948 12.3459C21.1806 12.225 21.3744 12.0488 21.5092 11.8354C21.644 11.622 21.7151 11.3791 21.7151 11.1318C21.7151 10.8844 21.6441 10.6415 21.5092 10.4281C21.3744 10.2147 21.1807 10.0385 20.9481 9.91762Z" fill="#323232"/>
</svg>
