<svg width="30" height="30" viewBox="0 0 30 30" fill="none" xmlns="http://www.w3.org/2000/svg">
<path d="M22.5 13.125H20.625V7.5C20.625 6.00816 20.0324 4.57742 18.9775 3.52252C17.9226 2.46763 16.4918 1.875 15 1.875C13.5082 1.875 12.0774 2.46763 11.0225 3.52252C9.96763 4.57742 9.375 6.00816 9.375 7.5V13.125H7.5C7.00272 13.125 6.52581 13.3225 6.17417 13.6742C5.82254 14.0258 5.625 14.5027 5.625 15V26.25C5.625 26.7473 5.82254 27.2242 6.17417 27.5758C6.52581 27.9275 7.00272 28.125 7.5 28.125H22.5C22.9973 28.125 23.4742 27.9275 23.8258 27.5758C24.1775 27.2242 24.375 26.7473 24.375 26.25V15C24.375 14.5027 24.1775 14.0258 23.8258 13.6742C23.4742 13.3225 22.9973 13.125 22.5 13.125ZM11.25 7.5C11.25 6.50544 11.6451 5.55161 12.3483 4.84835C13.0516 4.14509 14.0054 3.75 15 3.75C15.9946 3.75 16.9484 4.14509 17.6516 4.84835C18.3549 5.55161 18.75 6.50544 18.75 7.5V13.125H11.25V7.5ZM22.5 26.25H7.5V15H22.5V26.25Z" fill="#323232"/>
</svg>
