<svg width="177" height="43" viewBox="0 0 177 43" fill="none" xmlns="http://www.w3.org/2000/svg">
<path d="M0 9.55645C0 6.24167 1.02265 3.4911 2.7153 1.1108H5.20139C3.98479 2.87399 2.7153 6.40035 2.7153 9.55645C2.7153 12.7302 3.98479 16.2565 5.20139 18.0197H2.7153C1.02265 15.6394 0 12.8712 0 9.55645Z" fill="black"/>
<path d="M19.5722 9.82093V16.0802H17.3153V11.637H8.53465V9.82093H19.5722ZM19.5722 0.0176318V9.16855H17.3153V0.0176318H19.5722ZM9.31045 0.863959V6.43562C11.391 6.40035 13.6391 6.21522 15.9576 5.76561L16.2221 7.58168C13.4716 8.12827 10.862 8.30459 8.44649 8.30459H7.05358V0.863959H9.31045Z" fill="black"/>
<path d="M24.651 1.53397V10.2794C26.1232 10.2529 27.4809 10.1471 28.9884 9.82093L29.2882 11.7075C27.3134 12.1307 25.5855 12.2012 23.5225 12.2012H22.3941V1.53397H24.651ZM35.6885 0V16.045H33.5727V0H35.6885ZM32.2503 0.299741V15.3397H30.1168V6.89404H26.9079V5.07797H30.1168V0.299741H32.2503Z" fill="black"/>
<path d="M50.8527 0.0176318V9.08039H48.5958V0.0176318H50.8527ZM50.8527 9.80329V15.8686H40.0973V9.80329H50.8527ZM42.3189 11.5841V14.0702H48.6487V11.5841H42.3189ZM42.0544 0.740537C44.5582 0.740537 46.4448 2.3274 46.4448 4.61954C46.4448 6.82352 44.5582 8.44564 42.0544 8.44564C39.5507 8.44564 37.6641 6.82352 37.6641 4.61954C37.6641 2.3274 39.5507 0.740537 42.0544 0.740537ZM42.0544 2.62714C40.7673 2.62714 39.8505 3.36768 39.8681 4.61954C39.8505 5.8185 40.7673 6.55904 42.0544 6.55904C43.3063 6.55904 44.2232 5.8185 44.2232 4.61954C44.2232 3.36768 43.3063 2.62714 42.0544 2.62714Z" fill="black"/>
<path d="M58.206 9.55645C58.206 12.8712 57.1834 15.6394 55.4907 18.0197H53.0046C54.2212 16.2565 55.4907 12.7302 55.4907 9.55645C55.4907 6.40035 54.2212 2.87399 53.0046 1.1108H55.4907C57.1834 3.4911 58.206 6.24167 58.206 9.55645Z" fill="black"/>
<path d="M73.5466 0V9.00986H71.3073V0H73.5466ZM63.3025 0.916855V6.32982C65.7357 6.31219 67.7986 6.13587 69.9497 5.67745L70.2142 7.49353C67.7104 8.02248 65.3125 8.21643 62.4385 8.21643H61.0456V0.916855H63.3025ZM73.5466 9.66224V15.851H62.8264V9.66224H73.5466ZM65.0304 11.4254V14.0878H71.3426V11.4254H65.0304Z" fill="black"/>
<path d="M93.4899 0V9.52118H91.2506V5.73034H88.7469V3.91426H91.2506V0H93.4899ZM88.0064 9.87382C91.4269 9.89145 93.5251 11.0199 93.5427 12.977C93.5251 14.9165 91.4269 16.0626 88.0064 16.0626C84.5858 16.0626 82.4876 14.9165 82.4876 12.977C82.4876 11.0199 84.5858 9.89145 88.0064 9.87382ZM88.0064 11.6017C85.8729 11.6017 84.7268 12.0425 84.7268 12.977C84.7268 13.8939 85.8729 14.3523 88.0064 14.3523C90.1398 14.3523 91.3035 13.8939 91.3035 12.977C91.3035 12.0425 90.1398 11.6017 88.0064 11.6017ZM89.223 0.96975V2.7682H86.0316C86.0845 4.63717 87.2129 6.52377 89.7166 7.35247L88.6058 9.11565C86.8338 8.54262 85.6172 7.37892 84.9208 5.92429C84.2067 7.56405 82.9284 8.88644 81.0242 9.53882L79.8605 7.758C82.4964 6.87641 83.6777 4.77822 83.7395 2.7682H80.5128V0.96975H89.223Z" fill="black"/>
<path d="M108.337 0V3.1032H110.505V4.95454H108.337V8.02248H106.08V0H108.337ZM103.788 0.758168V7.423H96.0826V0.758168H103.788ZM98.3042 2.52135V5.64218H101.566V2.52135H98.3042ZM108.337 8.65723V13.0299H99.9263V14.1055H108.795V15.8686H97.7223V11.4078H106.097V10.3851H97.6871V8.65723H108.337Z" fill="black"/>
<path d="M125.934 12.4128V14.2641H111.247V12.4128H117.436V9.99724H112.939V4.60191H122.02V2.83872H112.922V1.04028H124.241V6.36509H115.196V8.16353H124.612V9.99724H119.675V12.4128H125.934Z" fill="black"/>
<path d="M144.008 0.934487V2.3803C144.008 3.879 144.008 5.51876 143.603 7.758H145.719V9.57408H139.459V16.0626H137.203V9.57408H131.084V7.758H141.328C141.734 5.68626 141.769 4.11703 141.769 2.73293H132.759V0.934487H144.008Z" fill="black"/>
<path d="M161.359 7.77563V9.55645H146.725V7.77563H152.913V6.34746H148.505V0.634746H159.631V2.41556H150.745V4.53138H159.79V6.34746H155.17V7.77563H161.359ZM159.613 10.6673V16.0979H157.409V12.4481H148.347V10.6673H159.613Z" fill="black"/>
<path d="M169.682 0.229214C173.367 0.229214 175.501 1.19896 175.518 2.96215C175.501 4.74296 173.367 5.71271 169.682 5.71271C165.979 5.71271 163.828 4.74296 163.828 2.96215C163.828 1.19896 165.979 0.229214 169.682 0.229214ZM169.682 1.86897C167.319 1.86897 166.173 2.25687 166.191 2.96215C166.173 3.75558 167.319 4.05532 169.682 4.05532C172.062 4.05532 173.191 3.75558 173.191 2.96215C173.191 2.25687 172.062 1.86897 169.682 1.86897ZM176.999 6.47088V8.25169H162.365V6.47088H176.999ZM175.218 9.18618V13.2768H166.279V14.2465H175.642V15.9392H164.075V11.7075H172.997V10.8259H164.058V9.18618H175.218Z" fill="black"/>
<path d="M28.839 28.5302V30.3111H21.081V28.5302H23.8668V26.5202H26.0884V28.5302H28.839ZM24.9952 31.034C27.0405 31.034 28.504 32.6208 28.5216 34.8424C28.504 37.0817 27.0405 38.6685 24.9952 38.6685C22.9499 38.6685 21.4512 37.0817 21.4512 34.8424C21.4512 32.6208 22.9499 31.034 24.9952 31.034ZM24.9952 32.9029C24.0607 32.9029 23.426 33.6258 23.426 34.8424C23.426 36.059 24.0607 36.7643 24.9952 36.7643C25.8945 36.7643 26.5292 36.059 26.5468 34.8424C26.5292 33.6258 25.8945 32.9029 24.9952 32.9029ZM34.9748 26.0794V42.1244H32.8414V34.4016H31.5366V41.4367H29.4384V26.3968H31.5366V32.6032H32.8414V26.0794H34.9748Z" fill="black"/>
<path d="M42.9629 30.4521C42.9629 33.044 44.2853 35.8122 46.983 36.9406L45.7664 38.7038C43.8709 37.9016 42.5662 36.3059 41.8521 34.3488C41.1204 36.4734 39.7892 38.2366 37.9026 39.1093L36.6154 37.3285C39.2779 36.1472 40.6531 33.1674 40.6531 30.4521V29.4647H37.2502V27.631H46.313V29.4647H42.9629V30.4521ZM50.1743 26.0794V42.1244H47.8998V26.0794H50.1743Z" fill="black"/>
<path d="M65.0388 26.0794V32.3564H67.4015V34.2077H65.0388V42.1244H62.8172V26.0794H65.0388ZM61.724 28.4774V30.2758H52.291V28.4774H55.9231V26.3263H58.18V28.4774H61.724ZM57.0516 31.175C59.3966 31.175 61.1422 32.7619 61.1422 35.0011C61.1422 37.2404 59.3966 38.8272 57.0516 38.8272C54.6889 38.8272 52.9434 37.2404 52.9434 35.0011C52.9434 32.7619 54.6889 31.175 57.0516 31.175ZM57.0516 32.9911C55.9231 33.0087 55.0944 33.7669 55.0944 35.0011C55.0944 36.253 55.9231 36.9935 57.0516 36.9759C58.18 36.9935 58.9911 36.253 58.9911 35.0011C58.9911 33.7669 58.18 33.0087 57.0516 32.9911Z" fill="black"/>
<path d="M74.2611 29.7116C74.2611 32.6561 75.6011 35.6182 78.3164 36.7643L76.994 38.5628C75.1603 37.7341 73.8908 36.1384 73.1679 34.1548C72.4362 36.3147 71.1226 38.0603 69.1655 38.9507L67.8078 37.0817C70.6113 35.9004 71.9689 32.8324 71.9866 29.7116V27.3137H74.2611V29.7116ZM81.4549 26.0794V42.1596H79.1804V26.0794H81.4549Z" fill="black"/>
<path d="M90.7653 27.1902C90.7653 28.3187 90.6243 29.3413 90.3245 30.2758H91.9995V26.3968H94.1154V35.0011H91.9995V32.0566H89.4958C88.5173 33.573 86.9657 34.7631 84.7705 35.6711L83.6773 34.0137C86.6307 32.8589 88.0941 31.2103 88.4203 28.9887H84.4884V27.1902H90.7653ZM97.4478 26.0971V35.2127H95.3143V26.0971H97.4478ZM89.584 36.4646C89.584 37.7517 90.1306 39.0829 91.4353 39.9557C92.7489 39.0124 93.3219 37.6195 93.3219 36.4646V35.7064H95.5435V36.4646C95.5259 38.1043 96.4428 39.7088 98.5762 40.3612L97.483 42.001C95.9403 41.472 94.9352 40.4758 94.3798 39.2328C93.8509 40.467 92.9252 41.5514 91.4706 42.1244C89.9807 41.5866 89.0462 40.5287 88.5261 39.2857C87.9619 40.4846 86.9745 41.4632 85.511 42.001L84.3826 40.3612C86.4984 39.6383 87.4329 38.0162 87.4505 36.4646V35.7064H89.584V36.4646Z" fill="black"/>
<path d="M103.232 35.7064V37.0641H109.844V35.7064H112.083V41.9481H101.01V35.7064H103.232ZM103.232 40.1849H109.844V38.7743H103.232V40.1849ZM113.934 33.0793V34.8953H99.3V33.0793H113.934ZM107.781 26.7847C107.781 28.3892 109.632 30.2053 113.211 30.6108L112.418 32.374C109.65 32.0214 107.649 30.8753 106.617 29.3237C105.586 30.8753 103.576 32.0214 100.834 32.374L100.023 30.6108C103.602 30.1876 105.453 28.4245 105.471 26.7847V26.2381H107.781V26.7847Z" fill="black"/>
<path d="M128.429 26.0794V42.1244H126.189V26.0794H128.429ZM118.026 27.6134V36.2354C120.195 36.2089 122.522 36.0061 124.885 35.5477L125.167 37.3991C122.346 37.9809 119.701 38.1749 117.215 38.1572H115.804V27.6134H118.026Z" fill="black"/>
<path d="M143.434 26.0794V32.374H145.568V34.2253H143.434V42.1244H141.177V26.0794H143.434ZM135.376 27.7192C135.359 32.1271 134.9 35.5653 132.026 38.7214L130.263 37.4696C132.449 35.1069 133.084 32.7531 133.225 29.5529H130.968V27.7192H135.376ZM139.82 27.7192C139.82 32.3035 139.414 36.2706 136.575 39.7617L134.795 38.5099C136.972 35.8298 137.563 33.0793 137.704 29.5529H135.905V27.7192H139.82Z" fill="black"/>
<path d="M149.024 36.4822C149.042 34.2959 149.624 33.6082 150.682 32.9558C151.44 32.4621 152.022 31.9156 152.022 31.1045C152.022 30.2229 151.334 29.6411 150.488 29.6411C149.659 29.6411 148.901 30.1876 148.866 31.2279H146.362C146.415 28.7418 148.248 27.5605 150.505 27.5605C152.956 27.5605 154.702 28.8476 154.702 31.0163C154.702 32.4621 153.961 33.3966 152.797 34.0843C151.81 34.6838 151.369 35.248 151.352 36.4822V36.6762H149.024V36.4822ZM150.241 40.6609C149.412 40.6609 148.742 39.9909 148.76 39.1799C148.742 38.3688 149.412 37.7164 150.241 37.7164C151.017 37.7164 151.704 38.3688 151.704 39.1799C151.704 39.9909 151.017 40.6609 150.241 40.6609Z" fill="black"/>
</svg>
