<svg width="160" height="36" viewBox="0 0 160 36" fill="none" xmlns="http://www.w3.org/2000/svg">
<rect x="0.5" y="0.5" width="159" height="34.625" rx="4.5" fill="white"/>
<path d="M15.9531 23.625C13.4375 23.625 12 21.5156 12 17.8125C12 14.1406 13.4688 12 15.9531 12C18.4375 12 19.9062 14.1406 19.9062 17.8125C19.9062 21.5156 18.4531 23.625 15.9531 23.625ZM15.9531 22.375C17.5781 22.375 18.5312 20.7344 18.5312 17.8125C18.5312 14.8906 17.5781 13.2188 15.9531 13.2188C14.3281 13.2188 13.3594 14.8906 13.3594 17.8125C13.3594 20.7344 14.3125 22.375 15.9531 22.375Z" fill="#8F9199"/>
<path d="M25.5164 23.625C23.0007 23.625 21.5632 21.5156 21.5632 17.8125C21.5632 14.1406 23.032 12 25.5164 12C28.0007 12 29.4695 14.1406 29.4695 17.8125C29.4695 21.5156 28.0164 23.625 25.5164 23.625ZM25.5164 22.375C27.1414 22.375 28.0945 20.7344 28.0945 17.8125C28.0945 14.8906 27.1414 13.2188 25.5164 13.2188C23.8914 13.2188 22.9226 14.8906 22.9226 17.8125C22.9226 20.7344 23.8757 22.375 25.5164 22.375Z" fill="#8F9199"/>
<path d="M35.0796 23.625C32.564 23.625 31.1265 21.5156 31.1265 17.8125C31.1265 14.1406 32.5952 12 35.0796 12C37.564 12 39.0327 14.1406 39.0327 17.8125C39.0327 21.5156 37.5796 23.625 35.0796 23.625ZM35.0796 22.375C36.7046 22.375 37.6577 20.7344 37.6577 17.8125C37.6577 14.8906 36.7046 13.2188 35.0796 13.2188C33.4546 13.2188 32.4859 14.8906 32.4859 17.8125C32.4859 20.7344 33.439 22.375 35.0796 22.375Z" fill="#8F9199"/>
<path d="M44.6429 23.625C42.1273 23.625 40.6898 21.5156 40.6898 17.8125C40.6898 14.1406 42.1585 12 44.6429 12C47.1273 12 48.596 14.1406 48.596 17.8125C48.596 21.5156 47.1429 23.625 44.6429 23.625ZM44.6429 22.375C46.2679 22.375 47.221 20.7344 47.221 17.8125C47.221 14.8906 46.2679 13.2188 44.6429 13.2188C43.0179 13.2188 42.0491 14.8906 42.0491 17.8125C42.0491 20.7344 43.0023 22.375 44.6429 22.375Z" fill="#8F9199"/>
<path d="M54.2061 23.625C51.6905 23.625 50.253 21.5156 50.253 17.8125C50.253 14.1406 51.7217 12 54.2061 12C56.6905 12 58.1592 14.1406 58.1592 17.8125C58.1592 21.5156 56.7061 23.625 54.2061 23.625ZM54.2061 22.375C55.8311 22.375 56.7842 20.7344 56.7842 17.8125C56.7842 14.8906 55.8311 13.2188 54.2061 13.2188C52.5811 13.2188 51.6124 14.8906 51.6124 17.8125C51.6124 20.7344 52.5655 22.375 54.2061 22.375Z" fill="#8F9199"/>
<path d="M63.7694 23.625C61.2537 23.625 59.8162 21.5156 59.8162 17.8125C59.8162 14.1406 61.285 12 63.7694 12C66.2537 12 67.7225 14.1406 67.7225 17.8125C67.7225 21.5156 66.2694 23.625 63.7694 23.625ZM63.7694 22.375C65.3944 22.375 66.3475 20.7344 66.3475 17.8125C66.3475 14.8906 65.3944 13.2188 63.7694 13.2188C62.1444 13.2188 61.1756 14.8906 61.1756 17.8125C61.1756 20.7344 62.1287 22.375 63.7694 22.375Z" fill="#8F9199"/>
<path d="M112.656 23.625C110.406 23.625 108.797 22.4219 108.719 20.625H110.141C110.219 21.7031 111.297 22.375 112.641 22.375C114.125 22.375 115.219 21.5625 115.219 20.3906C115.219 19.1562 114.234 18.2812 112.469 18.2812H111.547V17.0469H112.469C113.844 17.0469 114.797 16.2812 114.797 15.1094C114.797 13.9844 113.969 13.2188 112.688 13.2188C111.484 13.2188 110.375 13.8906 110.312 15H108.953C109.031 13.2031 110.688 12 112.703 12C114.859 12 116.172 13.4062 116.156 15.0312C116.172 16.3125 115.422 17.2656 114.234 17.5938V17.6719C115.703 17.9062 116.609 18.9531 116.594 20.3906C116.609 22.25 114.906 23.625 112.656 23.625Z" fill="#8F9199"/>
<path d="M119.626 21.9688C119.079 21.9688 118.61 21.5156 118.626 20.9531C118.61 20.4062 119.079 19.9531 119.626 19.9531C120.173 19.9531 120.626 20.4062 120.626 20.9531C120.626 21.5156 120.173 21.9688 119.626 21.9688ZM119.626 15.6875C119.079 15.6875 118.61 15.2344 118.626 14.6719C118.61 14.125 119.079 13.6719 119.626 13.6719C120.173 13.6719 120.626 14.125 120.626 14.6719C120.626 15.2344 120.173 15.6875 119.626 15.6875Z" fill="#8F9199"/>
<path d="M126.455 23.625C123.939 23.625 122.502 21.5156 122.502 17.8125C122.502 14.1406 123.97 12 126.455 12C128.939 12 130.408 14.1406 130.408 17.8125C130.408 21.5156 128.955 23.625 126.455 23.625ZM126.455 22.375C128.08 22.375 129.033 20.7344 129.033 17.8125C129.033 14.8906 128.08 13.2188 126.455 13.2188C124.83 13.2188 123.861 14.8906 123.861 17.8125C123.861 20.7344 124.814 22.375 126.455 22.375Z" fill="#8F9199"/>
<path d="M136.018 23.625C133.502 23.625 132.065 21.5156 132.065 17.8125C132.065 14.1406 133.534 12 136.018 12C138.502 12 139.971 14.1406 139.971 17.8125C139.971 21.5156 138.518 23.625 136.018 23.625ZM136.018 22.375C137.643 22.375 138.596 20.7344 138.596 17.8125C138.596 14.8906 137.643 13.2188 136.018 13.2188C134.393 13.2188 133.424 14.8906 133.424 17.8125C133.424 20.7344 134.377 22.375 136.018 22.375Z" fill="#8F9199"/>
<rect x="0.5" y="0.5" width="159" height="34.625" rx="4.5" stroke="#BABCC4"/>
</svg>
