<svg width="24" height="24" viewBox="0 0 24 24" fill="none" xmlns="http://www.w3.org/2000/svg">
<path fill-rule="evenodd" clip-rule="evenodd" d="M20.2529 12.0015V12.5715L21.6704 13.869C21.932 14.0984 22.1058 14.4117 22.1619 14.7551C22.218 15.0985 22.1529 15.4508 21.9779 15.7515L20.2679 18.7515C20.1364 18.9793 19.9472 19.1685 19.7195 19.3002C19.4918 19.4318 19.2334 19.5013 18.9704 19.5015C18.8074 19.5028 18.6452 19.4774 18.4904 19.4265L16.6754 18.8115C16.3581 19.0207 16.0274 19.2086 15.6854 19.374L15.3029 21.264C15.2343 21.6093 15.0464 21.9195 14.7722 22.1402C14.498 22.361 14.1549 22.4783 13.8029 22.4715H10.2629C9.9109 22.4783 9.56776 22.361 9.29353 22.1402C9.01931 21.9195 8.83146 21.6093 8.76288 21.264L8.38038 19.374C8.04076 19.2085 7.71253 19.0206 7.39787 18.8115L5.57538 19.4265C5.42051 19.4774 5.25839 19.5028 5.09538 19.5015C4.83233 19.5013 4.57398 19.4318 4.34625 19.3002C4.11851 19.1685 3.9294 18.9793 3.79787 18.7515L2.02788 15.7515C1.8448 15.4478 1.77523 15.0891 1.83152 14.739C1.88782 14.3889 2.06633 14.07 2.33537 13.839L3.75287 12.579V12.0015V11.4315L2.33537 10.134C2.07372 9.90462 1.89996 9.59138 1.84386 9.24795C1.78776 8.90452 1.85282 8.55227 2.02788 8.25153L3.79787 5.25153C3.9294 5.02372 4.11851 4.83451 4.34625 4.70287C4.57398 4.57123 4.83233 4.5018 5.09538 4.50153C5.25675 4.49055 5.41885 4.50574 5.57538 4.54653L7.36038 5.19153C7.6776 4.98239 8.00833 4.79448 8.35038 4.62903L8.73288 2.73903C8.80146 2.39373 8.98931 2.08356 9.26353 1.8628C9.53776 1.64205 9.8809 1.52478 10.2329 1.53153H13.7429C14.0949 1.52478 14.438 1.64205 14.7122 1.8628C14.9864 2.08356 15.1743 2.39373 15.2429 2.73903L15.6254 4.62903C15.965 4.79452 16.2932 4.98243 16.6079 5.19153L18.4304 4.57653C18.5852 4.52561 18.7474 4.50028 18.9104 4.50153C19.1734 4.5018 19.4318 4.57123 19.6595 4.70287C19.8872 4.83451 20.0764 5.02372 20.2079 5.25153L21.9779 8.25153C22.1636 8.55272 22.2368 8.90986 22.1847 9.25983C22.1325 9.6098 21.9583 9.93006 21.6929 10.164L20.2529 11.424V12.0015ZM16.3379 17.1315L18.9104 18.0015L20.6804 15.0015L18.6404 13.149C18.7791 12.3727 18.7791 11.5779 18.6404 10.8015L20.6804 9.00153L18.9104 6.00153L16.3304 6.84153C15.7261 6.33838 15.0416 5.94034 14.3054 5.66403L13.7729 3.00153H10.2329L9.70038 5.69403C8.95833 5.96272 8.27008 6.36144 7.66788 6.87153L5.09538 6.00153L3.32537 9.00153L5.36538 10.854C5.2267 11.6304 5.2267 12.4252 5.36538 13.2015L3.32537 15.0015L5.09538 18.0015L7.67537 17.1615C8.27966 17.6647 8.96419 18.0627 9.70038 18.339L10.2329 21.0015H13.7729L14.3054 18.309C15.0474 18.0403 15.7357 17.6416 16.3379 17.1315ZM9.5028 15.7432C10.2428 16.2377 11.1129 16.5016 12.0029 16.5016C12.5955 16.5076 13.1834 16.3953 13.732 16.1713C14.2807 15.9473 14.7792 15.616 15.1983 15.197C15.6173 14.7779 15.9486 14.2794 16.1726 13.7308C16.3966 13.1821 16.5089 12.5942 16.5029 12.0016C16.5029 11.1116 16.2389 10.2415 15.7445 9.50152C15.25 8.7615 14.5472 8.18473 13.7249 7.84413C12.9027 7.50354 11.9979 7.41442 11.125 7.58806C10.252 7.76169 9.45023 8.19027 8.82089 8.81961C8.19155 9.44894 7.76297 10.2508 7.58934 11.1237C7.4157 11.9966 7.50482 12.9014 7.84541 13.7237C8.18601 14.5459 8.76278 15.2487 9.5028 15.7432ZM10.844 9.21113C11.2121 9.06364 11.6064 8.99235 12.0029 9.00159C12.3994 8.99235 12.7936 9.06364 13.1618 9.21113C13.5299 9.35863 13.8643 9.57926 14.1448 9.8597C14.4252 10.1401 14.6458 10.4745 14.7933 10.8427C14.9408 11.2109 15.0121 11.6051 15.0029 12.0016C15.0121 12.3981 14.9408 12.7923 14.7933 13.1605C14.6458 13.5286 14.4252 13.863 14.1448 14.1435C13.8643 14.4239 13.5299 14.6446 13.1618 14.792C12.7936 14.9395 12.3994 15.0108 12.0029 15.0016C11.6064 15.0108 11.2121 14.9395 10.844 14.792C10.4758 14.6446 10.1414 14.4239 9.86098 14.1435C9.58055 13.863 9.35991 13.5286 9.21241 13.1605C9.06492 12.7923 8.99363 12.3981 9.00287 12.0016C8.99363 11.6051 9.06492 11.2109 9.21241 10.8427C9.35991 10.4745 9.58055 10.1401 9.86098 9.8597C10.1414 9.57926 10.4758 9.35863 10.844 9.21113Z" fill="#222222"/>
</svg>
