<svg width="30" height="16" viewBox="0 0 30 16" fill="none" xmlns="http://www.w3.org/2000/svg">
<path d="M14.6426 12.2871V14.1328H0V12.2871H6.16992V9.01758H1.54688V1.17773H13.0078V9.01758H8.40234V12.2871H14.6426ZM3.76172 7.25977H10.793V2.9707H3.76172V7.25977Z" fill="#222222"/>
<path d="M28.9344 0V9.28125H26.702V0H28.9344ZM16.5067 8.36719V1.00195H18.7567V6.53027C20.9628 6.48633 23.1249 6.31055 25.4012 5.83594L25.6649 7.64648C23.0194 8.20898 20.4794 8.37598 17.8954 8.36719H16.5067ZM17.9833 12.7617C17.9745 10.6963 20.119 9.47461 23.5028 9.47461C26.8778 9.47461 28.996 10.6963 29.0047 12.7617C28.996 14.7744 26.8778 16.0049 23.5028 15.9961C20.119 16.0049 17.9745 14.7744 17.9833 12.7617ZM20.2157 12.7617C20.2157 13.7109 21.3671 14.2207 23.5028 14.2207C25.621 14.2207 26.746 13.7109 26.7547 12.7617C26.746 11.7598 25.621 11.2852 23.5028 11.2852C21.3671 11.2852 20.2157 11.7598 20.2157 12.7617Z" fill="#222222"/>
</svg>
