<svg width="15" height="15" viewBox="0 0 15 15" fill="none" xmlns="http://www.w3.org/2000/svg">
<path fill-rule="evenodd" clip-rule="evenodd" d="M0.293364 13.2471C-0.097788 13.637 -0.0977881 14.2692 0.293364 14.6591C0.684516 15.049 1.3187 15.049 1.70985 14.6591L7.47418 8.91327L13.2595 14.7073C13.6497 15.0981 14.2824 15.0981 14.6726 14.7073C15.0628 14.3165 15.0628 13.6829 14.6726 13.292L8.89067 7.50134L14.7063 1.70436C15.0975 1.31446 15.0975 0.682317 14.7063 0.292421C14.3152 -0.097474 13.681 -0.0974736 13.2898 0.292421L7.47753 6.08606L1.70818 0.307968C1.31795 -0.0828522 0.685265 -0.0828522 0.295037 0.307968C-0.0951915 0.698787 -0.0951915 1.33243 0.295037 1.72325L6.06104 7.498L0.293364 13.2471Z" fill="#BABCC4"/>
</svg>
