<svg width="39" height="15" viewBox="0 0 39 15" fill="none" xmlns="http://www.w3.org/2000/svg">
<path d="M11.1473 8.74517V14.3188H9.13768V10.3623H1.31884V8.74517H11.1473ZM11.1473 0.0157005V8.16425H9.13768V0.0157005H11.1473ZM2.00966 0.769324V5.73068C3.86232 5.69928 5.86413 5.53442 7.92874 5.13406L8.16425 6.75121C5.71498 7.23792 3.3913 7.39493 1.24034 7.39493H0V0.769324H2.00966Z" fill="#222222"/>
<path d="M15.6698 1.36594V9.15338C16.9808 9.12983 18.1898 9.03563 19.5322 8.74517L19.7991 10.4251C18.0406 10.8019 16.502 10.8647 14.665 10.8647H13.6602V1.36594H15.6698ZM25.4983 0V14.2874H23.6143V0H25.4983ZM22.4367 0.266908V13.6594H20.537V6.13889H17.6795V4.52174H20.537V0.266908H22.4367Z" fill="#222222"/>
<path d="M39.0015 0.0157005V8.08575H36.9918V0.0157005H39.0015ZM39.0015 8.72947V14.1304H29.4242V8.72947H39.0015ZM31.4025 10.3152V12.529H37.0389V10.3152H31.4025ZM31.167 0.65942C33.3964 0.65942 35.0764 2.07246 35.0764 4.11353C35.0764 6.07609 33.3964 7.52053 31.167 7.52053C28.9375 7.52053 27.2575 6.07609 27.2575 4.11353C27.2575 2.07246 28.9375 0.65942 31.167 0.65942ZM31.167 2.33937C30.0208 2.33937 29.2044 2.99879 29.2201 4.11353C29.2044 5.18116 30.0208 5.84058 31.167 5.84058C32.2817 5.84058 33.0981 5.18116 33.0981 4.11353C33.0981 2.99879 32.2817 2.33937 31.167 2.33937Z" fill="#222222"/>
</svg>
