<svg width="53" height="12" viewBox="0 0 53 12" fill="none" xmlns="http://www.w3.org/2000/svg">
<path d="M6.62561 4.50572L8.30625 9.38852L9.78668 4.31524C9.8759 4.00817 10.156 3.79792 10.4745 3.79792C10.9611 3.79792 11.3065 4.27464 11.1561 4.73888L9.29286 10.5043C9.15384 10.9342 8.75443 11.2257 8.30418 11.2257C7.86223 11.2257 7.46904 10.9457 7.32276 10.5272L5.59647 5.57367L3.91271 10.52C3.76954 10.9415 3.37324 11.2257 2.92922 11.2257H2.90121C2.452 11.2257 2.05362 10.9363 1.91357 10.5085L0.0378813 4.77947C-0.120847 4.29546 0.239144 3.79792 0.746451 3.79792C1.07636 3.79792 1.36684 4.01546 1.46124 4.33189L2.96449 9.38748L4.64514 4.50468C4.79142 4.08104 5.18876 3.79688 5.63485 3.79688C6.08199 3.79792 6.47933 4.08208 6.62561 4.50572Z" fill="#222222"/>
<path d="M16.996 6.75126C17.078 6.75126 17.1402 6.68048 17.133 6.59825C17.0427 5.60629 16.3559 4.85164 15.11 4.85164C13.9615 4.85164 13.2384 5.69268 13.1098 6.59305C13.0984 6.67632 13.1617 6.75126 13.2457 6.75126H16.996ZM17.9256 8.87883C18.3219 9.01623 18.491 9.48567 18.2742 9.84478C17.7046 10.7909 16.6661 11.4613 15.2791 11.4613C13.2934 11.4613 11.5547 10.0092 11.5547 7.49237C11.5547 5.16079 13.2322 3.57031 15.0944 3.57031C17.3726 3.57031 18.6497 5.14517 18.6497 7.46219V7.46739C18.6497 7.71929 18.4443 7.92538 18.1932 7.92538H13.0476C13.0787 9.25355 14.0321 10.1799 15.2791 10.1799C16.2366 10.1799 16.8114 9.75838 17.1465 9.16404C17.299 8.89237 17.631 8.77683 17.9256 8.87883Z" fill="#222222"/>
<path d="M37.1366 7.50642C37.1366 5.78896 36.0576 4.86153 34.8241 4.86153C33.5906 4.86153 32.5117 5.79 32.5117 7.50642C32.5117 9.23845 33.5906 10.1669 34.8241 10.1669C36.0576 10.1669 37.1366 9.23845 37.1366 7.50642ZM38.617 7.50642C38.617 9.78076 37.0442 11.466 34.8241 11.466C32.604 11.466 31.0312 9.77972 31.0312 7.50642C31.0312 5.24769 32.604 3.5625 34.8241 3.5625C37.0442 3.5625 38.617 5.24769 38.617 7.50642Z" fill="#222222"/>
<path d="M45.3407 7.50642C45.3407 5.78896 44.2618 4.86153 43.0283 4.86153C41.7948 4.86153 40.7158 5.79 40.7158 7.50642C40.7158 9.23845 41.7948 10.1669 43.0283 10.1669C44.2608 10.1669 45.3407 9.23845 45.3407 7.50642ZM46.8201 7.50642C46.8201 9.78076 45.2474 11.466 43.0272 11.466C40.8071 11.466 39.2344 9.77972 39.2344 7.50642C39.2344 5.24769 40.8071 3.5625 43.0272 3.5625C45.2474 3.5625 46.8201 5.24769 46.8201 7.50642Z" fill="#222222"/>
<path d="M48.7705 11.2291H48.7861C49.1824 11.2291 49.503 10.9075 49.503 10.5099V0.757789C49.503 0.356007 49.1782 0.03125 48.7788 0.03125C48.3784 0.03125 48.0547 0.357047 48.0547 0.757789V10.5109C48.0537 10.9075 48.3742 11.2291 48.7705 11.2291Z" fill="#222222"/>
<path d="M52.0655 3.0925C52.4618 3.0925 52.7823 3.41413 52.7823 3.81175V10.5109C52.7823 10.9085 52.4618 11.2302 52.0655 11.2302C51.6692 11.2302 51.3486 10.9085 51.3486 10.5109V3.81175C51.3486 3.41413 51.6692 3.0925 52.0655 3.0925ZM52.0582 0.03125C52.5831 0.03125 52.9981 0.447605 52.9981 0.974293C52.9981 1.48745 52.5831 1.90276 52.0582 1.90276C51.5467 1.90276 51.1328 1.48641 51.1328 0.974293C51.1328 0.447605 51.5467 0.03125 52.0582 0.03125Z" fill="#222222"/>
<path d="M26.0158 6.47848C26.0158 6.93126 25.6507 7.29766 25.1994 7.29766C24.9826 7.29766 24.7865 7.21335 24.6402 7.07491C24.6392 7.07387 24.6381 7.07283 24.6361 7.07178C24.5126 6.95729 24.4338 6.80844 24.4006 6.65023C24.3881 6.59402 24.3819 6.53677 24.3819 6.47744C24.3819 6.32755 24.4223 6.18807 24.4918 6.06733C24.7024 5.61767 25.5303 5.38867 25.5303 5.38867C25.5303 5.38867 26.0636 5.85603 26.0158 6.47848ZM24.1267 4.20102C24.2294 4.27388 24.3279 4.34466 24.4223 4.4144C24.0914 4.59656 23.8009 4.82139 23.5727 5.08265C22.8019 5.96324 22.89 7.31119 23.7688 8.08873L23.7978 8.11267C24.6827 8.81111 26.0584 8.67683 26.8012 7.82018C27.3936 7.13632 27.5118 6.22346 27.1155 5.3793C27.102 5.35016 27.0336 5.24086 27.019 5.21068C27.5087 5.3106 28.1229 5.64577 28.5451 6.24844C28.9404 6.8126 29.0026 8.11996 28.0886 9.10464C27.7899 9.42627 27.4288 9.64694 27.1103 9.79162C26.5418 10.0508 25.9422 10.1341 25.3301 10.1341C23.3559 10.1341 21.4916 8.68412 21.4916 5.75194C21.4916 2.8208 23.4191 1.40103 25.3923 1.40103C26.6342 1.40103 27.655 1.89441 28.3107 2.77396C28.5202 3.055 28.8947 3.15597 29.2143 3.01337C29.6572 2.81456 29.7994 2.2504 29.4996 1.86735C28.5918 0.711967 27.1363 0 25.3923 0C22.6722 0 19.9375 2.01203 19.9375 5.75402C19.9375 9.49601 22.5176 11.5237 25.2844 11.5237C26.3074 11.5237 27.8158 11.3634 29.0649 10.0154C30.4011 8.57378 30.4042 6.57736 29.6355 5.48027C28.9684 4.5289 27.9382 3.9689 26.7348 3.90437C26.4702 3.88979 26.2067 3.9002 25.9474 3.93247C25.7274 3.73782 25.2502 3.38913 24.8809 3.12578C24.6018 2.92697 24.2159 2.97694 23.997 3.24132C23.7522 3.53797 23.8134 3.97931 24.1267 4.20102Z" fill="#222222"/>
</svg>
