<svg width="100" height="14" viewBox="0 0 100 14" fill="none" xmlns="http://www.w3.org/2000/svg">
<path d="M3.20319 1.10454C4.90733 1.11243 6.18544 2.27219 6.39057 4.02367H7.90536V0.284024H9.07301V10.0986H7.90536V5.06509H6.38268C6.15388 6.76134 4.88366 7.90533 3.20319 7.88955C1.32548 7.90533 -0.00785472 6.50888 3.48271e-05 4.51282C-0.00785472 2.4931 1.32548 1.11243 3.20319 1.10454ZM1.12035 4.51282C1.10457 5.87771 1.99609 6.83235 3.20319 6.83235C4.39451 6.83235 5.28603 5.87771 5.30181 4.51282C5.28603 3.15582 4.39451 2.16963 3.20319 2.17751C1.99609 2.16963 1.10457 3.15582 1.12035 4.51282ZM2.55625 13.7278V9.15187H3.78702V12.6864H12.1815V13.7278H2.55625ZM10.572 10.5089V0H11.7555V10.5089H10.572Z" fill="#222222" fill-opacity="0.4"/>
<path d="M18.8884 3.01381C18.8963 4.9073 20.3874 6.61144 22.486 7.27416L21.8548 8.26824C20.2217 7.70809 18.9278 6.55621 18.2888 5.08087C17.6813 6.67456 16.3637 7.93688 14.6911 8.55227L14.0442 7.55819C16.1507 6.82446 17.6339 5.00197 17.6418 3.01381V2.19329H14.3598V1.18343H22.1231V2.19329H18.8884V3.01381ZM16.3637 13.7278V9.32544H17.5945V12.6864H25.8627V13.7278H16.3637ZM24.1901 10.3037V0.0157791H25.4209V10.3037H24.1901Z" fill="#222222" fill-opacity="0.4"/>
<path d="M34.2264 0.915187C37.2086 0.930966 39.3546 2.38264 39.3546 4.59172C39.3546 6.68245 37.4927 8.06312 34.826 8.24458V11.1874H40.68V12.2288H27.8359V11.1874H33.611V8.24458C30.9601 8.05523 29.0982 6.67456 29.0982 4.59172C29.0982 2.38264 31.252 0.930966 34.2264 0.915187ZM30.2974 4.59172C30.2895 6.20907 31.9542 7.25838 34.2264 7.27416C36.4986 7.25838 38.1554 6.20907 38.1554 4.59172C38.1554 3.00592 36.4986 1.93294 34.2264 1.94083C31.9542 1.93294 30.2895 3.00592 30.2974 4.59172Z" fill="#222222" fill-opacity="0.4"/>
<path d="M45.809 0.52071C47.9076 0.5286 49.4303 1.80671 49.4382 3.62919C49.4303 5.45957 47.9076 6.72189 45.809 6.72189C43.6867 6.72189 42.1562 5.45957 42.164 3.62919C42.1562 1.80671 43.6867 0.5286 45.809 0.52071ZM43.379 3.62919C43.3633 4.85996 44.3968 5.71203 45.809 5.71203C47.1976 5.71203 48.239 4.85996 48.239 3.62919C48.239 2.4142 47.1976 1.55424 45.809 1.56213C44.3968 1.55424 43.3633 2.4142 43.379 3.62919ZM44.2942 8.88363V7.88955H53.4145V11.2663H45.5408V12.8442H53.9195V13.8383H44.3258V10.3353H52.1838V8.88363H44.2942ZM52.1838 7.21105V0H53.4145V7.21105H52.1838Z" fill="#222222" fill-opacity="0.4"/>
<path d="M71.5462 0V8.22091H70.2997V4.56016H67.4595V3.51874H70.2997V0H71.5462ZM59.9802 7.10059C62.0472 6.36686 63.5462 4.48915 63.5462 2.4931V1.94083H60.3746V0.915187H67.9328V1.94083H64.7928V2.4931C64.7928 4.2998 66.1971 6.05128 68.2484 6.78501L67.6015 7.76331C66.0236 7.18738 64.8007 6.01183 64.1932 4.56016C63.5857 6.1854 62.2918 7.4714 60.6271 8.0789L59.9802 7.10059ZM62.3786 13.8383V8.91519H71.5462V13.8383H62.3786ZM63.6093 12.8284H70.3312V9.90927H63.6093V12.8284Z" fill="#222222" fill-opacity="0.4"/>
<path d="M81.1565 0.915187C81.1486 4.43393 78.6318 6.95858 74.5924 8.11045L74.0716 7.13215C77.4247 6.1854 79.5707 4.32347 79.8389 1.94083H74.7975V0.915187H81.1565ZM76.4385 13.8383V8.61538H85.543V13.8383H76.4385ZM77.6377 12.8284H84.3123V9.60947H77.6377V12.8284ZM81.188 4.67061V3.62919H84.2965V0.0157791H85.543V8.01578H84.2965V4.67061H81.188Z" fill="#222222" fill-opacity="0.4"/>
<path d="M91.887 0.52071C93.9856 0.5286 95.5083 1.80671 95.5162 3.62919C95.5083 5.45957 93.9856 6.72189 91.887 6.72189C89.7647 6.72189 88.2341 5.45957 88.242 3.62919C88.2341 1.80671 89.7647 0.5286 91.887 0.52071ZM89.457 3.62919C89.4412 4.85996 90.4748 5.71203 91.887 5.71203C93.2756 5.71203 94.317 4.85996 94.317 3.62919C94.317 2.4142 93.2756 1.55424 91.887 1.56213C90.4748 1.55424 89.4412 2.4142 89.457 3.62919ZM90.3722 8.88363V7.88955H99.4925V11.2663H91.6188V12.8442H99.9974V13.8383H90.4038V10.3353H98.2617V8.88363H90.3722ZM98.2617 7.21105V0H99.4925V7.21105H98.2617Z" fill="#222222" fill-opacity="0.4"/>
</svg>
