<svg width="135" height="108" viewBox="0 0 135 108" fill="none" xmlns="http://www.w3.org/2000/svg">
<g clip-path="url(#clip0_2825_43050)">
<path d="M92.3489 57.9122C92.9057 59.5011 93.5442 61.1983 94.2456 63.0183C99.429 76.489 96.4086 85.5413 90.6454 91.6209C86.3009 96.2012 78.0541 100.267 66.4534 95.9267L66.0469 93.3759L69.6914 85.8345C75.4288 85.4069 77.6404 81.7699 78.5065 79.8257C79.4255 77.7587 80.2715 74.152 78.203 67.5292C77.2239 64.3919 74.3552 59.4202 73.2386 53.2034L72.2924 33.2573L84.6575 20.9579C88.4953 17.5101 95.5225 13.9164 102.687 15.7132C109.817 17.4985 115.768 21.4418 119.693 30.2095C123.66 39.0798 121.464 50.1831 114.269 56.4042C108.098 61.74 101.457 61.9783 92.3489 57.9122Z" fill="#EFC890"/>
<path d="M103.234 43.0502C103.546 43.8447 103.692 45.1909 103.292 46.3724C102.414 46.5371 101.475 46.5241 100.546 46.3565C98.7595 46.0344 97.5227 43.498 99.1217 42.0276C100.788 40.4965 102.649 41.5639 103.233 43.0502H103.234Z" fill="#EFC890"/>
<path d="M92.3548 57.912C89.1167 48.7081 88.4726 43.1095 92.8787 37.69C98.7506 30.4664 107.713 35.2995 107.66 40.5167C107.624 44.1321 105.689 45.9203 103.296 46.3739" stroke="#23211F" stroke-width="1.68113" stroke-linecap="round" stroke-linejoin="round"/>
<path d="M92.3567 57.9122C101.465 61.9783 108.106 61.74 114.277 56.4042C121.472 50.1831 123.667 39.0798 119.701 30.2095C115.776 21.4418 109.825 17.4985 102.695 15.7132C95.5303 13.9164 88.5032 17.5101 84.6654 20.9579L72.3002 33.2573L73.2464 53.2034C74.363 59.4202 77.2317 64.3919 78.2108 67.5292C80.2793 74.1519 79.4333 77.7587 78.5143 79.8257C77.6482 81.7699 75.4366 85.4069 69.6992 85.8345L66.0547 93.3759L66.4612 95.9267C78.0619 100.267 86.3087 96.2012 90.6532 91.6209C96.4164 85.5413 99.4368 76.489 94.2534 63.0183C93.552 61.1983 92.9135 59.5011 92.3567 57.9122Z" stroke="#23211F" stroke-width="1.68113" stroke-linecap="round" stroke-linejoin="round"/>
<path d="M103.295 46.375C102.856 47.6793 101.746 48.7858 99.4688 48.7395" stroke="#23211F" stroke-width="1.68113" stroke-linecap="round" stroke-linejoin="round"/>
<path d="M103.299 46.3724C102.422 46.5371 101.483 46.5241 100.554 46.3565C98.7673 46.0344 97.5306 43.498 99.1295 42.0276C100.796 40.4965 102.657 41.5639 103.241 43.0502C103.553 43.8447 103.699 45.1909 103.298 46.3724H103.299Z" stroke="#23211F" stroke-width="1.68113" stroke-linecap="round" stroke-linejoin="round"/>
<path d="M68.2793 95.2188C74.343 96.5086 74.4876 104.924 70.8116 106.76C67.4834 108.422 65.0699 104.144 63.4609 102.568C64.7693 101.407 65.9632 99.9348 67.0353 98.0773C67.5407 97.2005 67.9515 96.24 68.2793 95.2188Z" fill="#EFC890"/>
<path d="M65.1064 69.7576C67.6903 72.8761 71.1201 86.3483 68.2729 95.2128C67.9451 96.234 67.5342 97.1945 67.0289 98.0713C65.9567 99.9288 64.7629 101.401 63.4545 102.562C58.3098 107.132 51.3871 106.929 43.0416 106.719C32.5732 106.456 26.9618 100.982 26.9618 100.982C20.712 102.868 18.3056 97.9803 17.7202 94.7289C17.0202 90.8405 16.8827 86.5895 20.115 84.9602C23.897 83.055 26.1172 90.111 26.1172 90.111C26.687 90.176 27.2782 90.1183 27.8822 89.9767C23.6665 83.6212 26.3319 78.8344 28.2516 74.6903C30.4517 69.9352 32.9282 65.1426 32.9282 65.1426C27.3555 63.8513 24.1446 61.8305 19.4565 58.5242C12.4108 53.554 12.9734 48.3324 16.3173 46.1599C19.6612 43.9875 21.7355 45.7728 23.3888 47.9048C25.0422 50.0382 27.3283 50.525 30.791 51.7181L68.7209 58.3321C70.6906 58.9865 81.4539 64.3525 84.1752 71.7624C86.8979 79.1738 83.5639 84.6164 78.9216 82.3111C75.791 80.7584 72.2409 72.385 65.1064 69.7576Z" fill="#EFC890"/>
<mask id="mask0_2825_43050" style="mask-type:luminance" maskUnits="userSpaceOnUse" x="13" y="45" width="73" height="62">
<path d="M65.1064 69.7576C67.6903 72.8761 71.1201 86.3483 68.2729 95.2128C67.9451 96.234 67.5342 97.1945 67.0289 98.0713C65.9567 99.9288 64.7629 101.401 63.4545 102.562C58.3098 107.132 51.3871 106.929 43.0416 106.719C32.5732 106.456 26.9618 100.982 26.9618 100.982C20.712 102.868 18.3056 97.9803 17.7202 94.7289C17.0202 90.8405 16.8827 86.5895 20.115 84.9602C23.897 83.055 26.1172 90.111 26.1172 90.111C26.687 90.176 27.2782 90.1183 27.8822 89.9767C23.6665 83.6212 26.3319 78.8344 28.2516 74.6903C30.4517 69.9352 32.9282 65.1426 32.9282 65.1426C27.3555 63.8513 24.1446 61.8305 19.4565 58.5242C12.4108 53.554 12.9734 48.3324 16.3173 46.1599C19.6612 43.9875 21.7355 45.7728 23.3888 47.9048C25.0422 50.0382 27.3283 50.525 30.791 51.7181L68.7209 58.3321C70.6906 58.9865 81.4539 64.3525 84.1752 71.7624C86.8979 79.1738 83.5639 84.6164 78.9216 82.3111C75.791 80.7584 72.2409 72.385 65.1064 69.7576Z" fill="white"/>
</mask>
<g mask="url(#mask0_2825_43050)">
<path d="M42.2611 63.1797C33.5934 63.1797 31.2573 65.1658 28.8395 73.9075C26.4217 82.6506 19.4003 85.8731 28.8438 89.6936C47.7193 100.218 54.3857 90.6614 55.1888 80.7237C55.9231 71.6296 50.5465 63.1797 42.2596 63.1797H42.2611Z" fill="#FCF2C9"/>
</g>
<path d="M58.8601 69.0801C61.2163 68.7855 63.2834 69.083 65.1142 69.7576C72.2487 72.385 75.7988 80.7584 78.9295 82.3111C83.5717 84.6164 86.9057 79.1738 84.183 71.7624C81.4617 64.3525 70.6984 58.9865 68.7287 58.3321L30.7988 51.7181C27.3361 50.525 25.05 50.0382 23.3966 47.9048C21.7433 45.7728 19.6691 43.9875 16.3251 46.1599C12.9812 48.3324 12.4186 53.554 19.4644 58.5243C24.1525 61.8306 27.3633 63.8513 32.936 65.1426C32.936 65.1426 30.1947 70.5015 27.9945 75.2565C26.0749 79.4006 23.6743 83.6212 27.89 89.9767C27.8972 89.9868 27.9029 89.9969 27.9101 90.007" stroke="#23211F" stroke-width="1.73015" stroke-linecap="round" stroke-linejoin="round"/>
<path d="M33.6513 87.598C31.7145 88.3621 29.7362 89.5508 27.891 89.9769C27.2869 90.1185 26.6957 90.1763 26.126 90.1113C26.126 90.1113 23.9057 83.0552 20.1238 84.9604C16.8915 86.5898 17.0289 90.8407 17.7289 94.7291C18.3144 97.9805 20.7207 102.868 26.9705 100.982C26.9705 100.982 32.5819 106.456 43.0503 106.719C51.3959 106.929 58.3185 107.132 63.4633 102.562C64.7716 101.401 65.9655 99.9291 67.0377 98.0715C67.543 97.1948 67.9538 96.2342 68.2816 95.213C71.1288 86.3485 67.699 72.8763 65.1152 69.7578" stroke="#23211F" stroke-width="1.73015" stroke-linecap="round" stroke-linejoin="round"/>
<path d="M63.4609 102.568C65.0699 104.144 67.4834 108.422 70.8116 106.76C74.4876 104.924 74.343 96.5086 68.2793 95.2188" stroke="#23211F" stroke-width="1.73015" stroke-linecap="round" stroke-linejoin="round"/>
<path d="M28.7797 31.9936C31.4265 35.6712 34.434 39.6231 30.7981 51.713C25.1194 48.9238 20.1851 44.6151 21.0926 39.1233C22.1992 32.4327 28.7783 31.9922 28.7783 31.9922L28.7797 31.9936Z" fill="#ED9670"/>
<path d="M81.2359 28.475C80.2353 28.8231 79.103 28.9863 77.8576 28.9054C77.0803 27.136 75.7834 24.5519 74.1343 22.9356L74.0312 22.9096C75.0118 21.9447 76.8885 20.1666 81.203 19.7492C82.5056 19.5499 82.56 19.6914 86.2146 19.9817C86.7199 23.5943 84.806 27.227 81.2345 28.475H81.2359Z" fill="#FCF2C9"/>
<path d="M39.684 14.3824C39.4406 14.5485 39.2016 14.7204 38.9668 14.8923C37.8903 15.6795 36.9212 16.4682 36.0509 17.2612C31.1953 15.3068 30.2791 10.5836 32.1572 7.13281L32.1816 7.14581C34.804 8.22913 35.9478 9.14779 35.9478 9.14779C38.6261 11.1888 39.5594 13.8841 39.6811 14.3795V14.3824H39.684Z" fill="#FCF2C9"/>
<path d="M53.8881 17.8084C53.5445 18.9191 53.0263 19.7569 52.5682 20.339C51.6707 21.4816 49.6666 22.4118 48.4871 21.0352C46.6634 18.9047 50.1991 15.8295 53.8881 17.8084Z" fill="#EFC890"/>
<path d="M55.8533 34.7587C57.113 35.0577 57.8946 36.3331 57.5983 37.6071C57.302 38.8811 56.038 39.6669 54.7783 39.3679C53.5186 39.0689 52.7341 37.7934 53.0319 36.5209C53.3296 35.2469 54.595 34.4597 55.8547 34.7587H55.8533Z" fill="#23211F"/>
<path d="M43.4114 37.9273C42.3335 37.6717 41.6292 37.1993 41.8783 36.5739C42.1188 35.973 42.9977 35.8271 43.848 36.0554C44.7098 36.2345 45.4327 36.7602 45.3811 37.4059C45.3253 38.0761 44.4865 38.1816 43.4114 37.9259V37.9273Z" fill="#23211F"/>
<path d="M53.8851 17.8043C50.1962 15.824 46.6604 18.9007 48.4841 21.0312C49.6637 22.4092 51.6677 21.4775 52.5653 20.335C53.0219 19.7543 53.5416 18.9166 53.8851 17.8043ZM43.4138 37.9224C44.4903 38.178 45.3277 38.0726 45.3836 37.4024C45.4351 36.7567 44.7122 36.2309 43.8504 36.0518C43.0001 35.8236 42.1212 35.9681 41.8807 36.5704C41.6316 37.1958 42.3359 37.6667 43.4138 37.9238V37.9224ZM72.0205 15.3517C74.852 12.2 81.0517 11.6251 84.4 15.8154C85.4249 17.0995 86.0132 18.5396 86.2151 19.984C82.5605 19.6922 82.5061 19.5521 81.2035 19.7514C76.889 20.1703 75.0123 21.947 74.0318 22.9119L74.1348 22.9379C75.7825 24.5542 77.0808 27.1383 77.8581 28.9077C79.1035 28.9871 80.2358 28.8239 81.2364 28.4772C81.4211 29.0377 81.5914 29.6154 81.746 30.212C82.8253 34.372 83.073 39.3581 81.4669 44.8412C80.2558 48.9737 78.4922 52.0056 76.2591 54.1881C77.38 49.3897 72.523 40.6697 62.212 42.2484C55.8677 43.2176 50.2491 51.3787 53.9824 58.5214C47.8614 57.5319 41.0018 55.6152 35.4219 53.6276C35.1356 53.5265 34.8536 53.424 34.5744 53.3214C33.3162 52.8607 32.0393 52.3233 30.7996 51.7138C34.4356 39.6239 31.4281 35.6719 28.7812 31.9944C29.5786 25.8802 31.4567 21.453 36.0503 17.2584C36.9206 16.4654 37.8898 15.6767 38.9662 14.8895C39.201 14.7176 39.44 14.5457 39.6834 14.3796C41.5229 13.097 43.5427 11.9429 45.7242 11.056C48.3968 9.96543 51.3113 9.27499 54.442 9.23599H54.4434C56.2542 9.21433 58.1352 9.40932 60.082 9.87154C65.4142 11.1354 69.1977 13.1374 72.022 15.3503L72.0205 15.3517ZM57.5941 37.606C57.8918 36.332 57.1102 35.0581 55.8491 34.7576C54.5894 34.4586 53.324 35.2458 53.0262 36.5198C52.7299 37.7909 53.5129 39.0663 54.7726 39.3668C56.0323 39.6658 57.2963 38.8786 57.5926 37.606H57.5941ZM38.8675 33.1529C39.1652 31.8789 38.3836 30.6049 37.1225 30.3044C35.8599 30.004 34.5974 30.7927 34.2996 32.0666C34.0019 33.3406 34.7834 34.6132 36.046 34.9136C37.3057 35.2126 38.5697 34.4254 38.866 33.1529H38.8675Z" fill="#EFC890"/>
<path d="M37.1191 30.306C38.3788 30.605 39.1604 31.8804 38.8641 33.1544C38.5677 34.4255 37.3038 35.2141 36.0441 34.9151C34.7815 34.6147 33.9999 33.3407 34.2976 32.0682C34.5954 30.7956 35.858 30.0055 37.1205 30.306H37.1191Z" fill="#23211F"/>
<path d="M76.2546 54.1892C74.1431 56.2562 71.6094 57.5634 68.7236 58.3304C67.2033 58.7334 65.5843 58.9876 63.878 59.1205C63.5273 59.1494 63.1723 59.1725 62.8144 59.1898C60.2807 59.3169 57.2331 59.0497 53.9793 58.5239C50.246 51.3827 55.8646 43.2216 62.2089 42.251C72.5198 40.6722 77.3754 49.3922 76.256 54.1906L76.2546 54.1892Z" fill="#ED9670"/>
<path d="M35.9468 9.1479C35.9468 9.1479 34.8016 8.22925 32.1806 7.14593L32.1562 7.13293C32.9006 5.76361 34.083 4.59362 35.6376 3.87718C41.1144 1.3451 46.1848 6.56526 45.522 10.5678L45.7224 11.0603C43.5408 11.9472 41.521 13.1013 39.6815 14.384V14.3811C39.5584 13.8856 38.6251 11.1903 35.9468 9.14935V9.1479Z" fill="#EFC890"/>
<path d="M45.5236 10.5677C46.1849 6.56659 41.1161 1.34498 35.6392 3.87706C34.0846 4.59494 32.9022 5.76349 32.1579 7.13281C30.2783 10.5836 31.1959 15.3068 36.0515 17.2611" stroke="#23211F" stroke-width="1.73015" stroke-linecap="round" stroke-linejoin="round"/>
<path d="M70.5469 18.7932C70.6299 17.4542 71.1739 16.2886 72.0184 15.3497C74.8499 12.198 81.0496 11.6231 84.3979 15.8134C85.4228 17.0975 86.0112 18.5376 86.213 19.982C86.7183 23.5945 84.8044 27.2273 81.2329 28.4752C80.2323 28.8234 79.1 28.9866 77.8546 28.9057C77.803 28.9014 77.7515 28.8985 77.7 28.8941" stroke="#23211F" stroke-width="1.73015" stroke-linecap="round" stroke-linejoin="round"/>
<path d="M53.8906 17.8087C54.1726 16.9103 54.3387 15.8313 54.2657 14.5703" stroke="#23211F" stroke-width="1.5283" stroke-linecap="round" stroke-linejoin="round"/>
<path d="M53.8881 17.809C50.1991 15.8286 46.6634 18.9053 48.4871 21.0358C49.6666 22.4138 51.6707 21.4821 52.5682 20.3396C53.0249 19.7589 53.5445 18.9212 53.8881 17.809Z" stroke="#23211F" stroke-width="1.5283" stroke-linecap="round" stroke-linejoin="round"/>
<path d="M54.44 9.24219C49.5271 10.8946 45.602 12.8735 43.6867 16.6709C42.0133 19.9859 42.8278 24.6629 49.049 25.4111C54.2052 26.0293 57.6708 19.9295 53.9848 17.8625C53.9519 17.8452 53.9189 17.825 53.886 17.8091" stroke="#23211F" stroke-width="1.5283" stroke-linecap="round" stroke-linejoin="round"/>
<path d="M43.4426 37.7891L43.4097 37.9263L43.2422 38.6427" stroke="#23211F" stroke-width="1.5283" stroke-linecap="round" stroke-linejoin="round"/>
<path d="M72.0193 15.3503C69.195 13.1374 65.4116 11.1354 60.0793 9.87155C58.1325 9.40789 56.2515 9.21434 54.4407 9.236H54.4393C51.3101 9.275 48.3941 9.96544 45.7216 11.056C43.54 11.9429 41.5202 13.097 39.6807 14.3796C39.4374 14.5457 39.1983 14.7176 38.9636 14.8895C37.8871 15.6767 36.918 16.4654 36.0476 17.2584C31.4554 21.453 29.5759 25.8802 28.7786 31.9944C28.7786 31.9944 22.1995 32.435 21.093 39.1256C20.184 44.6173 25.1183 48.926 30.7984 51.7152C32.0395 52.3248 33.3164 52.8621 34.5732 53.3229C34.8538 53.4254 35.1358 53.5266 35.4206 53.6291C41.0005 55.6166 47.8616 57.5334 53.9812 58.5228C57.2364 59.0486 60.2826 59.3158 62.8163 59.1887C63.1742 59.1714 63.5292 59.1483 63.8799 59.1194C65.5862 58.9865 67.2052 58.7323 68.7255 58.3293C71.6113 57.5637 74.145 56.2551 76.2565 54.1881C78.4896 52.0056 80.2546 48.9737 81.4642 44.8412C83.0703 39.3581 82.8227 34.372 81.7433 30.212C81.5887 29.6155 81.417 29.0377 81.2337 28.4773" stroke="#23211F" stroke-width="1.73015" stroke-linecap="round" stroke-linejoin="round"/>
<path d="M43.2492 38.6406C43.6171 39.2487 44.0393 39.6676 44.8968 39.9088C44.151 43.803 41.4784 47.4415 40.7899 46.7121C40.1013 45.9841 41.321 39.5087 41.2208 38.7504C41.8635 39.0104 42.7582 38.9584 43.2492 38.6406Z" fill="#D4887C"/>
<path d="M40.5625 38.2109C40.6913 38.455 40.9275 38.6327 41.2153 38.7483C41.858 39.0083 42.7527 38.9563 43.2437 38.6385C43.6116 39.2466 44.0338 39.6655 44.8913 39.9067C45.1633 39.9818 45.4796 40.0396 45.8518 40.08" stroke="#23211F" stroke-width="1.44179" stroke-linecap="round" stroke-linejoin="round"/>
<path d="M41.2129 38.75C41.3131 39.5083 40.0935 45.9837 40.7821 46.7117C41.4706 47.4411 44.1432 43.8026 44.889 39.9084" stroke="#23211F" stroke-width="1.44179" stroke-linecap="round" stroke-linejoin="round"/>
<path d="M10.1999 20.5846C9.92221 21.4917 9.50994 22.2688 8.96025 22.9144C8.41199 23.5601 7.77642 24.0656 7.05495 24.4325C6.33349 24.7994 5.5519 25.0175 4.71019 25.0868C3.86848 25.1562 2.99814 25.0507 2.09774 24.772C0.319839 24.2187 -0.32719 23.1542 0.153787 21.5769C0.634765 19.9996 1.61247 18.9899 3.08403 18.5494C4.62573 18.1059 6.31058 18.1565 8.13715 18.701L13.8502 0L14.1708 0.0996656C14.2138 0.112665 14.2682 0.124221 14.3369 0.132888C14.4042 0.142999 14.47 0.155998 14.5344 0.17622C14.7205 0.258553 14.8737 0.32933 14.9968 0.39144C15.1185 0.453551 15.2416 0.550328 15.3647 0.683215C15.4878 0.816103 15.6166 1.00966 15.7498 1.26388C15.8829 1.5181 16.0575 1.86909 16.2737 2.31398C16.4827 2.78197 16.7146 3.24997 16.9694 3.71941C17.2242 4.18885 17.4804 4.65395 17.7395 5.11184C17.9915 5.59283 18.2549 6.07094 18.5326 6.5476C18.8103 7.02426 19.0808 7.51681 19.3471 8.02525C19.881 9.04213 20.2775 9.92901 20.5395 10.6844C20.8015 11.4399 20.9732 12.1029 21.0577 12.6734C21.1407 13.244 21.1522 13.7625 21.0935 14.2276C21.0334 14.6942 20.9374 15.1434 20.8043 15.5753C20.5595 16.3755 20.3033 17.0053 20.0342 17.4646C19.7636 17.9254 19.3871 18.376 18.9004 18.8151C18.3794 19.2918 17.8025 19.7396 17.1712 20.1585C16.5385 20.5773 15.9115 20.9254 15.286 21.2042C14.6332 21.4974 14.0248 21.7054 13.4608 21.8253C12.8968 21.9452 12.4244 21.9351 12.0465 21.7936C11.9177 21.7531 11.8561 21.6101 11.8619 21.3631C11.8676 21.1161 11.8962 20.9428 11.9506 20.8402C11.9764 20.7536 12.1038 20.6279 12.33 20.4618C12.5561 20.2957 12.7895 20.1671 13.0285 20.0761C13.5124 19.8725 13.989 19.5995 14.4557 19.26C14.9224 18.9206 15.3604 18.5421 15.7698 18.1247C16.172 17.7289 16.5185 17.323 16.8105 16.9042C17.1025 16.4867 17.3043 16.0938 17.416 15.7269C17.6336 15.0134 17.6651 14.219 17.5105 13.3436C17.3559 12.4683 17.0066 11.5785 16.4612 10.6758C16.1821 10.2814 15.9344 9.92612 15.714 9.60979C15.495 9.29346 15.2931 9.0118 15.1099 8.7648C14.8995 8.53369 14.7148 8.32858 14.5588 8.14947C14.4027 7.97036 14.2768 7.80714 14.1809 7.65981C13.8445 8.76191 13.5081 9.8409 13.1745 10.8953C12.8396 11.9512 12.5046 13.0288 12.1682 14.1309L10.1985 20.5802L10.1999 20.5846Z" fill="#F1AA3B"/>
<path d="M123.286 99.2965C123.142 100.439 122.808 101.453 122.286 102.338C121.763 103.224 121.108 103.962 120.322 104.551C119.534 105.141 118.646 105.565 117.655 105.825C116.663 106.084 115.602 106.142 114.47 105.996C112.233 105.708 111.24 104.572 111.491 102.587C111.742 100.602 112.701 99.1925 114.367 98.3562C116.118 97.504 118.14 97.2122 120.433 97.4794L123.408 73.9453L123.812 73.9973C123.865 74.0045 123.933 74.006 124.016 74.0031C124.099 74.0002 124.181 74.0031 124.261 74.0146C124.5 74.0739 124.699 74.1273 124.857 74.1735C125.016 74.2212 125.182 74.3122 125.356 74.4451C125.531 74.578 125.724 74.7831 125.936 75.059C126.148 75.3349 126.428 75.7162 126.778 76.203C127.124 76.7172 127.496 77.2285 127.899 77.7355C128.299 78.2425 128.702 78.7437 129.105 79.2377C129.505 79.7591 129.918 80.2748 130.348 80.7861C130.776 81.2975 131.202 81.829 131.625 82.3808C132.471 83.4843 133.128 84.4608 133.596 85.3086C134.064 86.1565 134.406 86.912 134.624 87.5749C134.841 88.2394 134.962 88.8547 134.986 89.4253C135.009 89.9944 134.986 90.5519 134.919 91.095C134.791 92.1018 134.614 92.9078 134.388 93.513C134.16 94.1197 133.802 94.7364 133.311 95.3648C132.787 96.0436 132.19 96.6994 131.522 97.3321C130.853 97.9647 130.175 98.5122 129.486 98.9773C128.768 99.4655 128.083 99.8396 127.433 100.102C126.783 100.365 126.218 100.451 125.737 100.361C125.575 100.341 125.472 100.182 125.428 99.8858C125.384 99.5897 125.382 99.3759 125.428 99.2431C125.442 99.1347 125.567 98.9571 125.803 98.7115C126.039 98.466 126.291 98.2637 126.557 98.1034C127.094 97.7582 127.605 97.3335 128.095 96.8294C128.583 96.3267 129.028 95.7822 129.43 95.1987C129.83 94.6425 130.16 94.0835 130.422 93.5231C130.684 92.9627 130.845 92.4513 130.903 91.9891C131.016 91.0921 130.89 90.1359 130.527 89.1219C130.162 88.1079 129.561 87.1185 128.725 86.1536C128.311 85.742 127.94 85.3693 127.612 85.0371C127.285 84.7049 126.985 84.4116 126.718 84.1545C126.418 83.9234 126.157 83.7169 125.933 83.5349C125.71 83.3543 125.525 83.1853 125.381 83.0279C125.206 84.4145 125.027 85.7738 124.845 87.1041C124.663 88.4344 124.485 89.7936 124.31 91.1802L123.284 99.2965H123.286Z" fill="#F1AA3B"/>
</g>
<defs>
<clipPath id="clip0_2825_43050">
<rect width="135" height="108" fill="white"/>
</clipPath>
</defs>
</svg>
