<svg xmlns="http://www.w3.org/2000/svg" width="120" height="59" fill="none" viewBox="0 0 120 59"><path fill="#FFF2CF" d="m110.144 23.072-4.683-3.292C93.622 12.083 83.406 7.384 69.371 7.384c-14.311 0-25.038 4.498-36.645 12.844l-5.07 3.648s45.24.494 88.114 1.514a14.088 14.088 0 0 1-5.626-2.318Z"/><path fill="#E6FFFF" d="M107.262 25.405c-32.72-.726-65.517-1.144-77.403-1.283l1.36-.958c12.612-8.918 23.137-12.566 36.352-12.566 14.05 0 24.127 4.653 35.843 12.149l3.848 2.658Z"/><path fill="#FC9268" d="M40.244 16.11c1.823 1.576 3.864 3.23 3.446 9.907-3.292-.742-6.383-2.35-6.569-5.302-.231-3.586 3.123-4.606 3.123-4.606Z"/><path fill="#FFF3C5" d="M67.086 7.877a4.46 4.46 0 0 1-1.7.634c-.619-.82-1.608-1.994-2.659-2.612h-.062c.387-.618 1.16-1.762 3.339-2.504.649-.263.695-.2 2.627-.495.696 1.793.155 3.91-1.56 4.977h.015ZM43.761 5.706a3.392 3.392 0 0 0-.309.355 19.887 19.887 0 0 0-1.221 1.577c-2.767-.418-3.818-2.736-3.246-4.745 1.5.247 2.195.571 2.195.571 1.638.727 2.458 1.994 2.581 2.242Z"/><path fill="#F8C788" d="M77.973 17.993c.2.356.356.99.247 1.577a3.76 3.76 0 0 1-1.314.17c-.88-.031-1.638-1.16-.958-1.963.696-.835 1.67-.449 2.04.216h-.015Z"/><path fill="#FFF3C5" d="M52.42 30.852c5.394.232 6.383 7.048 6.151 10.387-.17 2.674-.432 3.91-2.24 5.626 0 0-1.067.262-1.871.819l-.077-.046c-2.18.479-4.622-.14-4.622-.14-3.446-1.545-4.42-3.802-4.42-6.955s1.685-9.922 7.079-9.69Z"/><path fill="#F8C788" d="M42.19 38.673c-2.58-.232-2.457-3.633-.896-6.26 1.005-1.685 2.457-3.771 5.023-5.981 3.138.34 6.94.494 10.232.247 1.762-.124 3.37-.371 4.668-.742.185-.046.37-.108.54-.17 1.268 1.33 3.076 4.39 3.756 6.553.696 2.164 1.144 4.622.14 5.873-.325.402-.82.696-1.36.68.092.619.17 1.175.2 1.685.263 3.045-.34 4.266-.85 5.008-.896 1.36-2.025 1.5-2.473 1.607 0 0 .881 2.334-.448 2.72-1.515.449-6.816.959-7.156-.664-.14-.65.293-1.16.85-1.546.804-.556 1.87-.819 1.87-.819 1.808-1.715 2.071-2.952 2.241-5.626.217-3.338-.773-10.154-6.151-10.386-5.394-.232-7.08 6.538-7.08 9.69 0 3.154.99 5.41 4.421 6.956.433.603.85 2.117-.479 2.52-1.514.447-6.476.602-6.924-.882-.48-1.56 2.566-2.287 2.566-2.287-1.824-.526-3.633-3.277-2.829-7.76.031-.138.046-.277.077-.416h.062Z"/><path fill="#FC9268" d="M67.607 21.726c-.85 1.33-2.01 2.303-3.416 3.06a15.03 15.03 0 0 1-2.427 1.005c-.185.062-.355.108-.54.17-1.299.371-2.922.618-4.668.742-2.813-3.215-.881-8.114 2.303-9.382 5.162-2.07 8.748 1.824 8.748 4.436v-.03Z"/><path fill="#F8C788" d="M78.197 19.574c.124-.587-.046-1.221-.247-1.577-.371-.664-1.345-1.05-2.04-.216-.68.804.077 1.932.958 1.963.464.015.912-.031 1.314-.17h.015Zm-4.513 6.213c.371.727.788 1.484 1.237 2.303 3.353 6.074 2.488 10.588.108 13.864-1.793 2.458-5.502 4.946-11.36 3.632.494-.757 1.097-1.963.85-5.008h.062c2.735-.587 3.554-2.457 3.848-3.446.31-1.051.48-2.813-.943-5.842-.68-1.438-2.38-3.617-3.307-6.507 1.406-.742 2.565-1.732 3.415-3.06.897-1.392 1.438-3.17 1.577-5.457.17-3.013-.572-5.564-1.638-7.573l.061-.03c1.623-1.887 4.776-4.066 8.331-3.68 3.54.387 6.662 1.886 9.104 5.797 2.473 3.972 2.133 9.397-.912 12.828-2.628 2.937-5.796 3.493-10.448 2.148l.015.031Z"/><mask id="a" width="24" height="42" x="63" y="4" maskUnits="userSpaceOnUse" style="mask-type:luminance"><path fill="#fff" d="M78.197 19.566c.124-.587-.046-1.22-.247-1.576-.371-.665-1.345-1.051-2.04-.217-.68.804.077 1.932.958 1.963.464.016.912-.03 1.314-.17h.015Zm-4.513 6.213c.371.727.788 1.484 1.237 2.303 3.353 6.075 2.488 10.588.108 13.864-1.793 2.458-5.502 4.946-11.36 3.632.494-.757 1.097-1.963.85-5.007h.062c2.735-.588 3.554-2.458 3.848-3.447.31-1.051.48-2.813-.943-5.842-.68-1.438-2.38-3.617-3.307-6.507 1.406-.742 2.565-1.731 3.415-3.06.897-1.392 1.438-3.169 1.577-5.456.17-3.014-.572-5.565-1.638-7.574l.061-.03c1.623-1.886 4.776-4.066 8.331-3.68 3.54.387 6.662 1.886 9.104 5.797 2.473 3.972 2.133 9.397-.912 12.828-2.628 2.937-5.796 3.493-10.448 2.148l.015.031Z"/></mask><g mask="url(#a)"><path fill="#F8C788" d="M66.976 4.946c3.23 1.237 5.023 8.146 4.637 12.334-.402 4.405-3.817 10.387-8.485 10.773l2.75-10.695 1.098-12.412Z" opacity=".5" style="mix-blend-mode:multiply"/></g><path fill="#F8C788" d="M41.202 3.47s-.711-.34-2.195-.571A3.988 3.988 0 0 1 40.414.797c2.534-1.979 5.811.092 5.95 2.24l.17.233a16.678 16.678 0 0 0-2.736 2.457c-.123-.247-.942-1.515-2.58-2.241l-.016-.015Zm8.213 3.055c-.108.232-.17.557.186.82a.62.62 0 0 0 .54.108c.387-.093.743-.48.897-.804.14-.31.248-.634.294-.974-.108 0-.201-.015-.294-.015-.788 0-1.39.402-1.623.88v-.015Z"/><path fill="#F8C788" d="M67.551 8.716a10.71 10.71 0 0 0-.479-.835c-.479.31-1.05.526-1.7.634-.618-.82-1.608-1.994-2.658-2.612h-.062c.386-.619 1.159-1.762 3.338-2.504.65-.263.696-.201 2.628-.495A4.456 4.456 0 0 0 67.165.972C64.924-.774 61.77.277 60.673 2.255c-1.73-.788-3.94-1.36-6.862-1.36-.897 0-1.747.108-2.55.278 0 0-.016.031-.031.047-2.025 1.251-3.972 2.704-4.513 4.9-.232.957-.047 1.9.51 2.534.603.68 1.607.974 2.905.819.356-.046.68-.14.974-.294h1.33a3.563 3.563 0 0 1-2.21 1.098c-.264.03-.51.046-.743.046-1.514 0-2.38-.587-2.86-1.128-.725-.82-.973-2.04-.68-3.261.403-1.623 1.454-2.875 2.737-3.91-.773.355-1.5.772-2.18 1.251a16.678 16.678 0 0 0-2.735 2.458 3.39 3.39 0 0 0-.31.355 19.93 19.93 0 0 0-1.22 1.577c-1.87 2.72-2.319 5.24-1.994 8.485 1.823 1.577 3.864 3.23 3.446 9.907.711.155 1.453.278 2.164.371.155.016.31.031.48.046 3.137.34 6.939.48 10.231.248-2.813-3.215-.88-8.114 2.303-9.382 5.162-2.071 8.748 1.824 8.748 4.436.897-1.391 1.438-3.168 1.577-5.456.17-3.014-.572-5.564-1.639-7.573v-.031Zm-23.184 8.021a1.247 1.247 0 0 1-1.252-1.252c0-.695.557-1.252 1.252-1.252.696 0 1.252.557 1.252 1.252 0 .696-.556 1.252-1.252 1.252Zm4.189.65c-.587 0-1.02-.155-.958-.51.046-.34.494-.526.958-.51.464 0 .912.17.958.51.046.355-.37.51-.958.51Zm.556-9.367c-.587-.433-.757-1.144-.448-1.824.14-.278.371-.525.65-.742v2.659s-.14-.062-.202-.108v.015Zm5.518 8.717a1.247 1.247 0 0 1-1.252-1.252c0-.695.557-1.252 1.252-1.252.696 0 1.252.557 1.252 1.252 0 .696-.556 1.252-1.252 1.252Z"/><path fill="#705842" d="M80.342 16.427c-.17-1.345-1.407-2.52-3.03-2.875-1.963-.432-3.833.449-5.007 2.319-1.902 3.075-1.098 5.92 1.035 10.062.371.726.788 1.499 1.252 2.318 2.844 5.131 2.89 9.644.14 13.431-1.114 1.53-4.406 4.93-10.944 3.462a.397.397 0 0 0-.479.31.405.405 0 0 0 .31.478 15.04 15.04 0 0 0 3.26.387c4.87 0 7.512-2.782 8.517-4.158 2.952-4.05 2.92-8.856-.093-14.296-.448-.82-.866-1.577-1.236-2.303-2.04-3.973-2.783-6.507-1.067-9.274.974-1.576 2.52-2.303 4.142-1.963 1.283.278 2.272 1.175 2.396 2.18.139 1.081-.201 1.885-.897 2.349-.046-.448-.17-.85-.309-1.098-.278-.51-.788-.85-1.329-.896-.51-.046-1.004.17-1.376.618-.37.448-.448 1.036-.216 1.592.263.603.85 1.02 1.468 1.051h.201c.155 0 .279-.046.433-.062-.232.248-.556.402-1.02.464-.216.03-.386.232-.355.448.03.201.2.356.401.356h.047c1.36-.155 1.824-.943 1.994-1.515 1.313-.54 1.978-1.747 1.777-3.385h-.015Zm-3.432 2.89c-.309 0-.618-.247-.772-.571-.078-.186-.14-.464.092-.742.186-.217.387-.34.618-.34h.062a.913.913 0 0 1 .696.494c.139.247.247.65.232 1.067a3.767 3.767 0 0 1-.943.077l.015.015ZM45.956 5.905c-.294 1.22-.047 2.426.68 3.26.479.542 1.344 1.13 2.86 1.13.23 0 .478 0 .741-.047 1.901-.217 3.045-1.762 3.153-3.122.077-.943-.371-1.685-1.206-2.056 0-.51-.046-1.035-.2-1.576a.393.393 0 0 0-.51-.263.413.413 0 0 0-.279.51c.108.37.155.742.17 1.113-1.267-.124-2.303.525-2.674 1.313-.324.68-.139 1.391.449 1.824.262.186.54.278.834.278.124 0 .248-.015.387-.046.664-.17 1.19-.742 1.422-1.252.154-.324.247-.68.324-1.05.448.308.51.818.495 1.127-.093 1.036-1.02 2.21-2.442 2.38-1.299.155-2.303-.138-2.906-.819-.556-.618-.742-1.576-.51-2.534.54-2.18 2.488-3.648 4.513-4.9.016 0 .016-.03.031-.046-.155.03-.31.046-.448.077-.758.186-1.469.448-2.133.757-1.283 1.036-2.35 2.288-2.736 3.91l-.015.032Zm5.085.726c-.155.325-.51.711-.897.804a.62.62 0 0 1-.54-.108c-.356-.248-.294-.588-.186-.82.232-.479.834-.88 1.623-.88.092 0 .2 0 .293.015-.062.34-.154.665-.293.974v.015Zm3.619 7.573c.695 0 1.251.557 1.251 1.252 0 .696-.556 1.252-1.252 1.252a1.247 1.247 0 0 1-1.252-1.252c0-.695.557-1.252 1.252-1.252Zm-6.074 3.161c-.587 0-1.02-.154-.958-.51.046-.34.495-.525.958-.51.464 0 .912.17.959.51.046.356-.371.51-.959.51Zm-4.204-3.161c.696 0 1.252.557 1.252 1.252 0 .696-.556 1.252-1.252 1.252a1.247 1.247 0 0 1-1.252-1.252c0-.695.557-1.252 1.252-1.252Z"/><path fill="#705842" d="m49.894 17.96-.912-.464v-.216c0-.217-.185-.371-.402-.371-.216 0-.402.216-.402.448v.14l-.911.463a.407.407 0 0 0-.186.54.41.41 0 0 0 .541.186l.958-.479.959.48s.123.046.185.046a.377.377 0 0 0 .356-.217.407.407 0 0 0-.186-.54v-.016Z"/><path fill="#4B515E" d="M40.806 37.157c-5.564 0-10.093-4.529-10.093-10.093s4.529-10.093 10.093-10.093S50.9 21.502 50.9 27.064c0 5.564-4.529 10.093-10.093 10.093Zm0-15.719a5.653 5.653 0 0 0-5.641 5.642 5.653 5.653 0 0 0 5.641 5.641 5.653 5.653 0 0 0 5.642-5.641 5.653 5.653 0 0 0-5.642-5.642Z"/><path fill="#F8C788" d="M45.245 27.01c1.963 1.7 5.471 2.01 6.723-.077 1.268-2.087.325-4.266-1.313-5.1-1.639-.835-4.127-.866-5.44.077-1.315.943-1.948 3.4.03 5.1Z"/><mask id="b" width="10" height="8" x="43" y="21" maskUnits="userSpaceOnUse" style="mask-type:luminance"><path fill="#fff" d="M45.245 27.003c1.963 1.7 5.471 2.009 6.723-.078 1.268-2.086.325-4.266-1.313-5.1-1.639-.835-4.127-.866-5.44.077-1.315.943-1.948 3.4.03 5.1Z"/></mask><g mask="url(#b)"><path fill="#F8C788" d="M46.47 20.652c1.05.216 3.972 1.298 4.652 3.277.68 1.978.556 4.575-.217 5.363l3.648-4.606-1.468-4.853-6.63.819h.015Z" opacity=".5" style="mix-blend-mode:multiply"/></g><path fill="#F8C788" d="M35.31 26.106c-2.225 1.051-5.347.34-5.765-2.01-.417-2.349 1.082-4.142 2.752-4.466 1.669-.325 3.817.37 4.652 1.638.834 1.268.587 3.787-1.639 4.822v.016Z"/><path fill="#FFF2CF" d="m27.656 23.901 88.114 1.515C72.896 24.396 27.656 23.9 27.656 23.9Z"/><path fill="#4B515E" d="M27.508 34.272h-5.085c-4.992 0-9.042 5.394-9.042 12.04 0 6.647 4.05 12.04 9.042 12.04h5.085c4.992 0 7.542-5.393 7.542-12.04 0-6.646-2.55-12.04-7.542-12.04Zm24.241 24.081c4.993 0 9.041-5.391 9.041-12.04 0-6.65-4.048-12.04-9.041-12.04-4.994 0-9.042 5.39-9.042 12.04 0 6.649 4.048 12.04 9.042 12.04Z"/><path fill="#4B515E" d="M56.834 58.337h-5.085L46.54 52.99l5.209-18.717h5.085v24.065Z"/><path fill="#4B515E" d="M56.836 58.353c4.994 0 9.042-5.391 9.042-12.04 0-6.65-4.048-12.04-9.042-12.04-4.993 0-9.041 5.39-9.041 12.04 0 6.649 4.048 12.04 9.041 12.04Z"/><path fill="#fff" d="M55.422 52.135c2.407 0 4.359-2.727 4.359-6.09s-1.952-6.09-4.359-6.09-4.358 2.727-4.358 6.09 1.95 6.09 4.358 6.09Z"/><path fill="#4B515E" d="M101.817 58.353c4.993 0 9.041-5.391 9.041-12.04 0-6.65-4.048-12.04-9.041-12.04-4.994 0-9.042 5.39-9.042 12.04 0 6.649 4.048 12.04 9.042 12.04Z"/><path fill="#4B515E" d="M106.902 58.337h-5.085l-5.209-5.348 5.209-18.717h5.085v24.065Z"/><path fill="#4B515E" d="M106.904 58.353c4.994 0 9.042-5.391 9.042-12.04 0-6.65-4.048-12.04-9.042-12.04-4.993 0-9.041 5.39-9.041 12.04 0 6.649 4.048 12.04 9.041 12.04Z"/><path fill="#fff" d="M105.49 52.135c2.407 0 4.359-2.727 4.359-6.09s-1.952-6.09-4.359-6.09-4.359 2.727-4.359 6.09 1.952 6.09 4.359 6.09Z"/><path fill="#4B515E" d="M83.643 34.021h-5.085c-4.992 0-9.041 5.395-9.041 12.04 0 6.647 4.049 12.04 9.041 12.04h5.085c4.993 0 9.042-5.393 9.042-12.04 0-6.645-4.05-12.04-9.042-12.04Z"/><path fill="#FFF2CF" d="M118.174 26.505c-.588-.588-2.349-1.02-3.926-1.314l-83.276-1.468s-9.212-.155-16.616 2.55c-6.213 2.272-10.71 7.156-12.163 13.756-.186.865-.711 4.605-.711 5.347v3.462c0 1.824 1.437 3.308 3.214 3.308h38.161c1.654 0 2.998-1.33 3.045-3.03.17-5.579 1.87-14.713 10.82-14.713 8.948 0 9.257 11.36 9.118 15.904-.03 1.02.742 1.839 1.731 1.839h26.492c.772 0 1.421-.618 1.452-1.422.248-4.977 1.314-16.275 10.711-16.275 9.398 0 9.444 9.876 9.398 12.705 0 .417.309.742.711.742.247 0 .479-.14.618-.356l3.045-5.162V31.002c0-1.793-.696-3.37-1.84-4.544l.016.047Z"/><path fill="#E0DACA" d="M.912 44.894H46.46v4.59a2.658 2.658 0 0 1-2.658 2.659H3.462A3.456 3.456 0 0 1 0 48.681v-2.875c0-.51.402-.912.912-.912Z"/><path fill="#fff" d="M26.271 44.894h-10.71v3.818h10.71v-3.818Zm14.752-13.016c-1.483-1.638-4.235-1.561-6.136.17-1.9 1.731-2.24 4.467-.757 6.12 1.484 1.639 4.235 1.562 6.136-.17 1.901-1.73 2.241-4.466.757-6.12Zm-26.386 0c-1.484-1.638-4.235-1.561-6.136.17-1.9 1.731-2.24 4.467-.757 6.12 1.484 1.639 4.235 1.562 6.136-.17 1.9-1.73 2.24-4.466.757-6.12Z"/></svg>