<svg width="29" height="9" viewBox="0 0 29 9" fill="none" xmlns="http://www.w3.org/2000/svg">
<path d="M3.22973 0.119178V8.74767H2.14521V1.23945H2.09753L0 2.63384V1.54932L2.14521 0.119178H3.22973Z" fill="#222222" fill-opacity="0.4"/>
<path d="M5.55427 8.74767L5.54235 7.9611L8.48605 4.86247C9.51098 3.77795 9.99961 3.19397 9.99961 2.39548C9.99961 1.51356 9.24879 0.929589 8.28345 0.929589C7.25852 0.929589 6.60304 1.58507 6.60304 2.55041H5.59002C5.57811 1.02493 6.75797 0 8.3192 0C9.88044 0 11.0007 1.04877 11.0007 2.39548C11.0007 3.36082 10.5478 4.11164 9.02235 5.68479L7.044 7.72274V7.79425H11.1556V8.74767H5.55427Z" fill="#222222" fill-opacity="0.4"/>
<path d="M13.4802 7.60356C13.0631 7.60356 12.7055 7.25795 12.7174 6.8289C12.7055 6.41178 13.0631 6.06616 13.4802 6.06616C13.8973 6.06616 14.2429 6.41178 14.2429 6.8289C14.2429 7.25795 13.8973 7.60356 13.4802 7.60356ZM13.4802 2.8126C13.0631 2.8126 12.7055 2.46699 12.7174 2.03795C12.7055 1.62082 13.0631 1.27521 13.4802 1.27521C13.8973 1.27521 14.2429 1.62082 14.2429 2.03795C14.2429 2.46699 13.8973 2.8126 13.4802 2.8126Z" fill="#222222" fill-opacity="0.4"/>
<path d="M18.6888 8.86685C16.7701 8.86685 15.6736 7.25795 15.6736 4.43342C15.6736 1.63274 16.7939 0 18.6888 0C20.5838 0 21.704 1.63274 21.704 4.43342C21.704 7.25795 20.5957 8.86685 18.6888 8.86685ZM18.6888 7.91342C19.9283 7.91342 20.6553 6.66205 20.6553 4.43342C20.6553 2.20479 19.9283 0.929589 18.6888 0.929589C17.4494 0.929589 16.7105 2.20479 16.7105 4.43342C16.7105 6.66205 17.4375 7.91342 18.6888 7.91342Z" fill="#222222" fill-opacity="0.4"/>
<path d="M25.9831 8.86685C24.0643 8.86685 22.9679 7.25795 22.9679 4.43342C22.9679 1.63274 24.0882 0 25.9831 0C27.878 0 28.9983 1.63274 28.9983 4.43342C28.9983 7.25795 27.89 8.86685 25.9831 8.86685ZM25.9831 7.91342C27.2226 7.91342 27.9495 6.66205 27.9495 4.43342C27.9495 2.20479 27.2226 0.929589 25.9831 0.929589C24.7437 0.929589 24.0048 2.20479 24.0048 4.43342C24.0048 6.66205 24.7317 7.91342 25.9831 7.91342Z" fill="#222222" fill-opacity="0.4"/>
</svg>
