<svg width="109" height="137" viewBox="0 0 109 137" fill="none" xmlns="http://www.w3.org/2000/svg">
<g clip-path="url(#clip0_2825_43494)">
<path d="M85.4981 47.0181C88.3613 50.0738 87.9767 53.7918 86.2922 56.255H86.2889C84.9078 51.2188 80.584 49.0852 80.584 49.0852C80.584 49.0852 80.9222 47.371 81.0184 44.6199C82.7194 44.9394 84.2944 45.7316 85.4997 47.0181H85.4981Z" fill="#EFC890"/>
<path d="M85.6452 19.2676C99.1672 23.9493 108.147 37.3652 107.029 51.0391C105.675 67.5855 96.0752 77.5829 80.6946 76.5195L80.6515 76.5544C79.3981 74.9617 78.1762 73.7234 76.9958 72.4902C81.3926 70.8026 85.4943 67.7187 86.4957 61.9003C86.872 59.7134 86.7295 57.8394 86.2918 56.2533H86.2951C87.9795 53.7901 88.3642 50.0721 85.5009 47.0164C84.2956 45.7299 82.7206 44.9377 81.0196 44.6182C81.1705 40.3543 80.7394 33.6022 77.5744 26.8784C77.3854 26.479 77.1914 26.0829 76.9941 25.6901C81.5054 25.294 84.4548 22.6112 85.6452 19.2643V19.2676Z" fill="#EFC890"/>
<path d="M85.6439 19.2677C99.166 23.9494 108.145 37.3653 107.028 51.0392C105.673 67.5856 96.0739 77.583 80.6934 76.5195" stroke="#23211F" stroke-width="2.62822" stroke-linecap="round" stroke-linejoin="round"/>
<path d="M81.0195 44.6199C82.7206 44.9394 84.2956 45.7316 85.5009 47.0181C88.3641 50.0738 87.9795 53.7918 86.295 56.255" stroke="#23211F" stroke-width="2.62822" stroke-linecap="round" stroke-linejoin="round"/>
<path d="M76.9954 72.4919C78.1775 73.7251 79.3993 74.9634 80.6511 76.5561C82.5826 79.0076 84.5886 82.2979 86.6428 87.7135C93.0291 104.558 85.1109 116.757 79.9034 120.555C74.6942 124.353 69.8994 124.656 69.8994 124.656L55.9961 72.2755L74.1785 69.1433L76.9954 72.4919Z" fill="#E9C590" stroke="#23211F" stroke-width="2.56364" stroke-linecap="round" stroke-linejoin="round"/>
<path d="M23.4369 72.4919C18.3786 79.5835 10.8052 95.6273 10.331 108.041C9.85688 120.455 12.6505 125.327 18.3305 127.524C18.3305 127.524 13.4015 129.101 13.7033 132.645C14.0067 136.185 23.3905 136.105 27.6166 135.549C31.7614 135.005 32.4461 133.159 31.7995 130.573C31.7995 130.573 36.1632 131.768 41.7437 131.606C47.3227 131.768 51.688 130.573 51.688 130.573C51.0397 133.157 51.7228 135.005 55.8676 135.549C60.0936 136.105 69.4791 136.185 69.7809 132.645C70.0843 129.103 64.8254 127.525 64.8254 127.525C79.3256 125.525 73.168 104.322 71.0923 97.4847C68.9188 90.3216 64.4424 80.5172 61.5178 75.0117L23.432 72.4919H23.4369Z" fill="#EFC890"/>
<mask id="mask0_2825_43494" style="mask-type:luminance" maskUnits="userSpaceOnUse" x="10" y="72" width="65" height="64">
<path d="M23.4311 72.4917C18.3728 79.5833 10.7994 95.6271 10.3252 108.041C9.85102 120.455 12.6446 125.326 18.3247 127.523C18.3247 127.523 13.3957 129.101 13.6974 132.644C14.0008 136.184 23.3847 136.104 27.6107 135.549C31.7555 135.004 32.4402 133.159 31.7936 130.572C31.7936 130.572 36.1573 131.767 41.7379 131.606C47.3168 131.767 51.6821 130.572 51.6821 130.572C51.0339 133.157 51.7169 135.004 55.8617 135.549C60.0878 136.104 69.4733 136.184 69.775 132.644C70.0784 129.103 64.8195 127.525 64.8195 127.525C79.3197 125.525 73.1622 104.321 71.0864 97.4845C68.9129 90.3213 64.4365 80.5169 61.5119 75.0114L23.4261 72.4917H23.4311Z" fill="white"/>
</mask>
<g mask="url(#mask0_2825_43494)">
<path d="M51.8397 129.489C51.8397 129.489 47.1959 130.847 41.2605 130.664C35.3235 130.847 30.6813 129.489 30.6813 129.489H30.4326C18.789 124.608 18.9581 108.858 22.9139 98.1852C25.802 90.3896 32.7023 82.8004 41.2605 82.8004C49.8187 82.8004 56.719 90.3896 59.6038 98.1852C63.5579 108.858 63.7287 124.606 52.0851 129.489H51.8397Z" fill="#FCF2C9"/>
</g>
<path d="M23.4369 72.4919C18.3786 79.5835 10.8052 95.6273 10.331 108.041C9.85688 120.455 12.6505 125.327 18.3305 127.524C18.3305 127.524 13.4015 129.101 13.7033 132.645C14.0067 136.185 23.3905 136.105 27.6166 135.549C31.7614 135.005 32.4461 133.159 31.7995 130.573C31.7995 130.573 36.1632 131.768 41.7437 131.606C47.3226 131.768 51.688 130.573 51.688 130.573C51.0397 133.157 51.7228 135.005 55.8676 135.549C60.0936 136.105 69.4791 136.185 69.7809 132.645C70.0843 129.103 64.8254 127.525 64.8254 127.525C79.3256 125.525 73.168 104.322 71.0923 97.4847C68.9188 90.3216 64.4424 80.5172 61.5178 75.0117L23.432 72.4919H23.4369Z" stroke="#23211F" stroke-width="2.73977" stroke-linecap="round" stroke-linejoin="round"/>
<path d="M56.8009 85.2421C54.6788 85.8911 45.2004 88.4109 42.9937 89.6708C38.839 92.044 44.4428 96.7141 57.0015 94.221" fill="#E9C590"/>
<path d="M56.8009 85.2421C54.6788 85.8911 45.2004 88.4109 42.9937 89.6708C38.839 92.044 44.4428 96.7141 57.0015 94.221" stroke="#23211F" stroke-width="2.62822" stroke-linecap="round" stroke-linejoin="round"/>
<path d="M27.7779 83.7842C31.2894 85.8013 43.3972 88.4808 39.9703 92.2954C36.996 95.6057 27.627 92.6882 25.4336 91.7046" fill="#E9C590"/>
<path d="M27.7779 83.7842C31.2894 85.8013 43.3972 88.4808 39.9703 92.2954C36.996 95.6057 27.627 92.6882 25.4336 91.7046" stroke="#23211F" stroke-width="2.62822" stroke-linecap="round" stroke-linejoin="round"/>
<path d="M24.347 53.7502C27.9099 59.7334 25.1295 68.5708 23.1384 72.2339H23.1052C23.0803 72.2472 23.0522 72.2605 23.0256 72.2755C21.565 71.9793 20.1408 71.668 18.7449 71.3518C13.4362 70.1452 1.60027 67.033 1.17253 56.2766C0.806125 47.0231 8.70116 44.3469 8.70116 44.3469C15.938 45.2307 20.7858 47.7671 24.3453 53.7502H24.347Z" fill="#ED9670"/>
<path d="M86.2915 56.255C86.7292 57.8394 86.8734 59.7151 86.4954 61.902C85.494 67.7204 81.3923 70.806 76.9955 72.4919C73.3762 73.8783 69.5564 74.3143 67.1109 74.5407C65.6884 74.6705 64.2361 74.7936 62.7489 74.8952C62.7257 74.8769 62.6992 74.8585 62.676 74.8419H62.6412C61.1441 70.9458 59.5375 61.8188 63.8498 56.3549C68.1587 50.891 73.2983 49.0137 80.5849 49.0869C80.5849 49.0869 84.9088 51.2205 86.2898 56.2567L86.2915 56.255Z" fill="#ED9670"/>
<path d="M85.6037 12.1279C86.4476 14.4829 86.4426 17.0243 85.6419 19.2678C84.4515 22.613 81.502 25.2959 76.9908 25.6936C75.7092 23.1705 74.1989 20.8139 72.4199 18.6786C72.8012 18.0395 74.8239 14.9955 79.4578 13.2996C79.4578 13.2996 81.4589 12.5091 85.6021 12.1296L85.6037 12.1279Z" fill="#FCF2C9"/>
<path d="M82.5434 7.60937C83.9974 8.90918 85.0137 10.472 85.6039 12.1279C81.4608 12.5074 79.4596 13.2979 79.4596 13.2979C74.8257 14.9939 72.8031 18.0395 72.4218 18.6769C70.535 16.4118 68.3466 14.3947 65.8066 12.6955C66.5792 6.81882 75.9283 1.70943 82.5434 7.60937Z" fill="#EFC890"/>
<path d="M14.4752 9.01408C18.8521 11.3041 20.457 14.5878 20.7521 15.2702C18.7112 17.1542 16.9073 19.2928 15.3074 21.6261C7.91973 19.9785 5.69148 12.5857 8.53648 7.04688C12.5967 7.96723 14.4768 9.01408 14.4768 9.01408H14.4752Z" fill="#FCF2C9"/>
<path d="M28.0884 10.209V10.2124C25.3479 11.5638 22.9157 13.273 20.7504 15.2718C20.4553 14.5895 18.8505 11.3041 14.4735 9.01573C14.4735 9.01573 12.5951 7.96889 8.5332 7.04853C9.33398 5.48576 10.5443 4.06778 12.1558 2.971C19.4821 -2.01024 28.0851 4.28247 28.0868 10.2107L28.0884 10.209Z" fill="#EFC890"/>
<path d="M81.0215 44.6199C81.1724 40.356 80.7413 33.6039 77.5763 26.8801C77.3873 26.4807 77.1934 26.0846 76.9961 25.6918C75.7145 23.1688 74.2041 20.8121 72.4252 18.6768C70.5385 16.4117 68.35 14.3946 65.8101 12.6953C61.1927 9.60307 55.4082 7.551 48.1664 6.94519C47.863 6.92023 47.5596 6.89693 47.2513 6.87695C39.5784 6.37101 33.2832 7.64586 28.0906 10.2122C25.3501 11.5636 22.9179 13.2729 20.7527 15.2717C18.7118 17.1557 16.9079 19.2943 15.308 21.6276C15.061 21.9904 14.8173 22.3566 14.5785 22.7294C7.97669 33.0081 8.7012 44.3486 8.7012 44.3486C15.938 45.2324 20.7858 47.7687 24.3454 53.7519C27.9083 59.7351 25.1279 68.5725 23.1368 72.2356H23.1036C23.0787 72.2489 23.0505 72.2622 23.024 72.2772C28.9743 73.4988 35.4866 74.5207 42.7931 75.0033C50.1029 75.486 56.6898 75.3262 62.7479 74.8968C62.7247 74.8785 62.6981 74.8602 62.6749 74.8435H62.6401C61.143 70.9474 59.5365 61.8204 63.8487 56.3565C68.1577 50.8926 73.2972 49.0153 80.5838 49.0885C80.5838 49.0885 80.922 47.3743 81.0182 44.6232L81.0215 44.6199ZM28.8135 47.4143C26.9632 47.2928 25.5623 45.6867 25.6833 43.831C25.8043 41.9753 27.4042 40.564 29.2528 40.6855C31.1014 40.807 32.5073 42.413 32.3863 44.2721C32.2653 46.1294 30.6637 47.5358 28.8135 47.4143ZM44.4179 50.1903C42.8362 50.0855 41.732 49.5895 41.9376 48.6542C42.1332 47.7521 43.3435 47.341 44.5969 47.4592C45.8536 47.5058 46.9993 48.0733 47.0772 48.9937C47.1568 49.949 45.9962 50.2952 44.4179 50.192V50.1903ZM60.2477 49.4863C58.3975 49.3648 56.9965 47.7588 57.1176 45.9031C57.2386 44.0441 58.8385 42.6361 60.6871 42.7575C62.5357 42.879 63.9416 44.4851 63.8206 46.3441C63.6995 48.2015 62.0996 49.6078 60.2477 49.4863Z" fill="#EFC890"/>
<path d="M23.0256 72.2755C28.9759 73.4971 35.4882 74.519 42.7947 75.0017C50.1045 75.4843 56.6914 75.3245 62.7495 74.8951C64.235 74.7936 65.6873 74.6705 67.1115 74.5406C69.5586 74.3143 73.3784 73.8783 76.996 72.4919C81.3928 70.8043 85.4946 67.7204 86.4959 61.902C86.8723 59.7151 86.7297 57.8411 86.292 56.255C84.911 51.2188 80.5871 49.0852 80.5871 49.0852C80.5871 49.0852 80.9253 47.371 81.0215 44.6199C81.1723 40.356 80.7413 33.6039 77.5763 26.8802C77.3873 26.4807 77.1933 26.0846 76.996 25.6918C75.7144 23.1688 74.2041 20.8121 72.4251 18.6768C70.5384 16.4117 68.35 14.3946 65.81 12.6953C61.1927 9.60307 55.4082 7.551 48.1664 6.94519C47.863 6.92023 47.5596 6.89693 47.2512 6.87695C39.5783 6.37101 33.2832 7.64586 28.0906 10.2122C25.35 11.5636 22.9179 13.2729 20.7526 15.2717C18.7117 17.1557 16.9079 19.2943 15.308 21.6276C15.061 21.9904 14.8172 22.3566 14.5785 22.7294C7.97665 33.0081 8.70116 44.3486 8.70116 44.3486C8.70116 44.3486 0.806125 47.0248 1.17253 56.2783C1.60027 67.0347 13.4362 70.1469 18.7449 71.3535C20.1408 71.6697 21.565 71.981 23.0256 72.2772V72.2755Z" stroke="#23211F" stroke-width="2.73977" stroke-linecap="round" stroke-linejoin="round"/>
<path d="M28.092 10.2089C28.092 4.28064 19.489 -2.01207 12.161 2.96917C10.5495 4.06761 9.33921 5.48393 8.53843 7.0467C5.69343 12.5855 7.92168 19.9783 15.3094 21.626" stroke="#23211F" stroke-width="2.73977" stroke-linecap="round" stroke-linejoin="round"/>
<path d="M65.8086 12.6953C66.5812 6.8187 75.9302 1.70931 82.5453 7.60924C83.9993 8.90906 85.0156 10.4718 85.6059 12.1278C86.4497 14.4828 86.4448 17.0242 85.644 19.2676C84.4536 22.6129 81.5042 25.2957 76.9929 25.6935" stroke="#23211F" stroke-width="2.62822" stroke-linecap="round" stroke-linejoin="round"/>
<path d="M50.2127 19.6104C50.2674 18.1608 49.8977 16.7361 48.9395 15.5428" stroke="#23211F" stroke-width="2.34837" stroke-linecap="round" stroke-linejoin="round"/>
<path d="M50.213 19.6106C46.2589 18.2359 43.6161 21.3298 43.7322 24.0127C43.8615 26.9868 47.2321 26.802 48.9198 23.8662C49.6725 22.5581 50.1583 21.0702 50.213 19.6106Z" stroke="#23211F" stroke-width="2.34837" stroke-linecap="round" stroke-linejoin="round"/>
<path d="M48.1662 6.94519C42.2324 10.4718 38.8138 14.5311 37.1343 20.3295C35.672 25.3906 37.577 30.7313 45.671 31.0243C53.0852 31.2889 56.3712 22.9707 51.5433 20.2213C51.0841 19.9583 50.6414 19.757 50.212 19.6088" stroke="#23211F" stroke-width="2.34837" stroke-linecap="round" stroke-linejoin="round"/>
<path d="M60.6862 42.7575C62.5381 42.879 63.9407 44.4851 63.8197 46.3441C63.6986 48.2015 62.0987 49.6078 60.2468 49.4863C58.3966 49.3648 56.9956 47.7587 57.1167 45.9031C57.2377 44.0474 58.8376 42.636 60.6862 42.7575Z" fill="#23211F"/>
<path d="M29.2526 40.6855C31.1028 40.807 32.5071 42.4131 32.3861 44.2721C32.265 46.1294 30.6635 47.5358 28.8132 47.4143C26.963 47.2928 25.562 45.6867 25.6831 43.831C25.8041 41.9753 27.404 40.564 29.2526 40.6855Z" fill="#23211F"/>
<path d="M44.4189 50.1903C42.8373 50.0854 41.7331 49.5895 41.9387 48.6541C42.1343 47.7521 43.3446 47.341 44.598 47.4592C45.8547 47.5058 47.0003 48.0733 47.0782 48.9937C47.1578 49.949 45.9973 50.2951 44.4189 50.1919V50.1903Z" fill="#23211F"/>
<path d="M40.8359 54.0249L44.3474 51.2372L47.4643 54.4626" stroke="#23211F" stroke-width="2.34837" stroke-linecap="round" stroke-linejoin="round"/>
<path d="M44.4306 49.9889L44.4173 50.1903L44.3477 51.2371" stroke="#23211F" stroke-width="2.34837" stroke-linecap="round" stroke-linejoin="round"/>
<path d="M59.6214 48.4445C60.4262 48.4445 61.0787 47.7895 61.0787 46.9816C61.0787 46.1736 60.4262 45.5187 59.6214 45.5187C58.8165 45.5187 58.1641 46.1736 58.1641 46.9816C58.1641 47.7895 58.8165 48.4445 59.6214 48.4445Z" fill="white"/>
<path d="M61.9391 45.6669C62.4006 45.6669 62.7747 45.2913 62.7747 44.8281C62.7747 44.3648 62.4006 43.9893 61.9391 43.9893C61.4776 43.9893 61.1035 44.3648 61.1035 44.8281C61.1035 45.2913 61.4776 45.6669 61.9391 45.6669Z" fill="white"/>
<path d="M28.2132 46.3741C29.018 46.3741 29.6705 45.7191 29.6705 44.9112C29.6705 44.1032 29.018 43.4482 28.2132 43.4482C27.4083 43.4482 26.7559 44.1032 26.7559 44.9112C26.7559 45.7191 27.4083 46.3741 28.2132 46.3741Z" fill="white"/>
<path d="M30.5309 43.5964C30.9924 43.5964 31.3665 43.2209 31.3665 42.7576C31.3665 42.2944 30.9924 41.9188 30.5309 41.9188C30.0694 41.9188 29.6953 42.2944 29.6953 42.7576C29.6953 43.2209 30.0694 43.5964 30.5309 43.5964Z" fill="white"/>
<path d="M59.9492 37.2787L63.3911 39.3441" stroke="#23211F" stroke-width="1.36988" stroke-linecap="round" stroke-linejoin="round"/>
</g>
<defs>
<clipPath id="clip0_2825_43494">
<rect width="108.238" height="137" fill="white"/>
</clipPath>
</defs>
</svg>
