<svg xmlns="http://www.w3.org/2000/svg" width="46" height="46" fill="none" viewBox="0 0 46 46"><g clip-path="url(#a)"><path fill="#FFE142" d="M34.503 21.08v3.834h7.666v-3.833h-7.666Zm-3.834 12.67c1.84 1.36 4.236 3.162 6.134 4.58.766-1.015 1.533-2.05 2.3-3.066-1.898-1.418-4.294-3.22-6.134-4.6a406.204 406.204 0 0 1-2.3 3.086Zm8.434-23.02c-.767-1.015-1.534-2.05-2.3-3.066-1.898 1.418-4.294 3.22-6.134 4.6.767 1.016 1.534 2.05 2.3 3.067 1.84-1.38 4.236-3.163 6.134-4.6ZM7.669 17.248a3.845 3.845 0 0 0-3.833 3.834v3.833a3.845 3.845 0 0 0 3.833 3.833h1.917v7.667h3.833v-7.667h1.917l9.583 5.75v-23l-9.583 5.75H7.669Zm22.042 5.75a8.585 8.585 0 0 0-2.875-6.42V29.4a8.514 8.514 0 0 0 2.875-6.402Z"/></g><defs><clipPath id="a"><path fill="#fff" d="M0 0h46v46H0z"/></clipPath></defs></svg>