<svg width="212" height="42" viewBox="0 0 212 42" fill="none" xmlns="http://www.w3.org/2000/svg">
<path d="M14.5898 8.01562V9.80859H0V8.01562H6.16992V6.46875H8.38477V8.01562H14.5898ZM0.615234 5.53711C4.02539 5.33496 5.65137 4.30664 5.96777 3.19922H1.40625V1.42383H6.16992V0.0527344H8.38477V1.42383H13.1836V3.19922H8.57812C8.88574 4.30664 10.5205 5.33496 13.9395 5.53711L13.2715 7.24219C10.3184 7.03125 8.2793 6.17871 7.27734 4.88672C6.2666 6.17871 4.22754 7.03125 1.30078 7.24219L0.615234 5.53711ZM1.66992 13.2715C1.66992 11.5225 3.75293 10.5557 7.27734 10.5645C10.7842 10.5557 12.832 11.5225 12.8496 13.2715C12.832 15.0381 10.7842 16.0049 7.27734 15.9961C3.75293 16.0049 1.66992 15.0381 1.66992 13.2715ZM3.95508 13.2715C3.94629 14.0098 5.03613 14.3438 7.27734 14.3438C9.46582 14.3438 10.5908 14.0098 10.5996 13.2715C10.5908 12.5508 9.46582 12.2168 7.27734 12.2168C5.03613 12.2168 3.94629 12.5508 3.95508 13.2715Z" fill="black"/>
<path d="M20.3044 14.3789L20.2868 12.4629L24.8572 8.26172C26.0437 7.12793 26.6853 6.4248 26.6853 5.41406C26.6853 4.28027 25.8327 3.57715 24.6638 3.58594C23.4685 3.57715 22.6863 4.33301 22.695 5.55469H20.1814C20.1726 3.06738 22.0183 1.47656 24.699 1.47656C27.4236 1.47656 29.2341 3.03223 29.2341 5.23828C29.2341 6.68848 28.531 7.875 25.9118 10.248L23.9783 12.1289V12.1992H29.4099V14.3789H20.3044Z" fill="black"/>
<path d="M37.0221 3.62109C37.0133 6.55664 38.3492 9.50098 41.065 10.6523L39.7467 12.4453C37.9185 11.6191 36.6529 10.0195 35.9234 8.04199C35.2027 10.2041 33.8932 11.9443 31.942 12.832L30.5885 10.9688C33.3834 9.79102 34.7457 6.72363 34.7545 3.62109V1.23047H37.0221V3.62109ZM41.9264 16.0312V0H44.1939V16.0312H41.9264Z" fill="black"/>
<path d="M59.0835 0V4.48242H61.2456V6.32812H59.0835V11.4609H56.8159V0H59.0835ZM46.2866 8.12109C49.8725 7.12793 51.9028 5.27344 52.2544 3.02344H46.9897V1.19531H54.7241C54.7153 5.51953 52.017 8.54297 47.2182 9.89648L46.2866 8.12109ZM48.6772 15.7148V10.2832H50.9448V13.9219H59.6284V15.7148H48.6772Z" fill="black"/>
<path d="M79.5637 0V16.0312H77.2961V0H79.5637ZM66.6437 6.82031C66.6349 3.33105 68.4191 1.125 70.8801 1.125C73.2883 1.125 75.0812 3.33105 75.0812 6.82031C75.0812 10.3359 73.2883 12.5332 70.8801 12.5332C68.4191 12.5332 66.6349 10.3359 66.6437 6.82031ZM68.8058 6.82031C68.7971 9.20215 69.632 10.5029 70.8801 10.4941C72.093 10.5029 72.9103 9.20215 72.9191 6.82031C72.9103 4.44727 72.093 3.14648 70.8801 3.14648C69.632 3.14648 68.7971 4.44727 68.8058 6.82031Z" fill="black"/>
<path d="M96.3516 7.57617V9.36914H81.7618V7.57617H85.0489V5.66016C83.8799 5.1416 83.2207 4.35059 83.2207 3.32227C83.2207 1.38867 85.4971 0.237305 89.0567 0.228516C92.5899 0.237305 94.8663 1.38867 94.875 3.32227C94.8663 4.36816 94.1895 5.16797 92.9942 5.67773V7.57617H96.3516ZM83.4317 13.0781C83.4317 11.2324 85.5323 10.2041 89.0391 10.2129C92.4932 10.2041 94.5938 11.2324 94.6114 13.0781C94.5938 14.9678 92.4932 15.9785 89.0391 15.9785C85.5323 15.9785 83.4317 14.9678 83.4317 13.0781ZM85.5586 3.32227C85.5411 4.20117 86.7979 4.64941 89.0567 4.64062C91.2891 4.64941 92.5547 4.20117 92.5547 3.32227C92.5547 2.42578 91.2891 1.95117 89.0567 1.95117C86.7979 1.95117 85.5411 2.42578 85.5586 3.32227ZM85.7168 13.0781C85.7081 13.8955 86.8243 14.3086 89.0391 14.3086C91.21 14.3086 92.3526 13.8955 92.3614 13.0781C92.3526 12.2871 91.21 11.9092 89.0391 11.9004C86.8243 11.9092 85.7081 12.2871 85.7168 13.0781ZM87.3165 7.57617H90.7618V6.23145C90.2344 6.30176 89.6631 6.32812 89.0567 6.32812C88.4327 6.32812 87.8526 6.29297 87.3165 6.23145V7.57617Z" fill="black"/>
<path d="M5.30859 40.5547C2.39941 40.5547 0.316406 39.0254 0.316406 36.9512C0.316406 35.3516 1.54688 34.0508 3.12891 33.8047V33.7168C1.74902 33.4531 0.799805 32.3018 0.808594 30.9043C0.799805 28.9268 2.70703 27.4766 5.30859 27.4766C7.91016 27.4766 9.81738 28.9268 9.82617 30.9043C9.81738 32.3018 8.8418 33.4531 7.50586 33.7168V33.8047C9.05273 34.0508 10.3008 35.3516 10.3008 36.9512C10.3008 39.0254 8.20898 40.5547 5.30859 40.5547ZM3.07617 36.6875C3.06738 37.7773 3.96387 38.542 5.30859 38.5332C6.65332 38.542 7.5498 37.7773 7.54102 36.6875C7.5498 35.5889 6.60059 34.7803 5.30859 34.7715C4.0166 34.7803 3.06738 35.5801 3.07617 36.6875ZM3.39258 31.168C3.38379 32.1875 4.18359 32.8994 5.30859 32.9082C6.4248 32.8994 7.2334 32.1875 7.24219 31.168C7.2334 30.1748 6.44238 29.4805 5.30859 29.4805C4.16602 29.4805 3.38379 30.1748 3.39258 31.168Z" fill="black"/>
<path d="M13.3251 40.5371C12.4989 40.5371 11.8309 39.8779 11.8485 39.0605C11.8309 38.252 12.4989 37.5928 13.3251 37.6016C14.1073 37.5928 14.784 38.252 14.784 39.0605C14.784 39.8779 14.1073 40.5371 13.3251 40.5371Z" fill="black"/>
<path d="M20.7966 27.6523V40.3789H18.1423V30.166H18.072L15.154 31.9941V29.6562L18.3005 27.6523H20.7966Z" fill="black"/>
<path d="M40.2397 26V32.5039H42.3315V34.3672H40.2397V41.9961H37.9721V26H40.2397ZM27.2495 37.4785C28.4184 37.4785 29.7807 37.4785 31.2045 37.4434V36.0723C29.5083 35.7383 28.4008 34.6572 28.4096 33.1719C28.4008 31.3877 30.018 30.166 32.3471 30.166C34.6323 30.166 36.267 31.3877 36.2846 33.1719C36.267 34.6572 35.142 35.7471 33.4545 36.0723V37.3643C34.7202 37.2939 35.9946 37.1885 37.1811 37.0215L37.3217 38.6562C33.9204 39.2891 30.2465 39.3154 27.5483 39.3066L27.2495 37.4785ZM27.5659 29.5332V27.7754H31.2045V26.0879H33.4545V27.7754H37.0581V29.5332H27.5659ZM30.5366 33.1719C30.5278 34.0156 31.2485 34.4727 32.3471 34.4727C33.4106 34.4727 34.1225 34.0156 34.1225 33.1719C34.1225 32.3457 33.4106 31.8799 32.3471 31.8711C31.2485 31.8799 30.5278 32.3457 30.5366 33.1719Z" fill="black"/>
<path d="M53.2316 27.6523V40.3789H50.5773V30.166H50.507L47.589 31.9941V29.6562L50.7355 27.6523H53.2316Z" fill="black"/>
<path d="M61.1426 40.5547C58.5147 40.5459 56.001 38.9727 56.0098 34.3145C56.0186 30.0166 58.0665 27.4766 61.2481 27.4766C63.8057 27.4766 65.5635 29.0938 65.8184 31.1855H63.2168C63.0059 30.2979 62.2764 29.7441 61.2481 29.7441C59.5166 29.7441 58.6114 31.2998 58.5938 33.8047H58.7168C59.3057 32.6709 60.5625 32.0117 61.9688 32.0117C64.2627 32.0117 65.9678 33.7256 65.959 36.125C65.9678 38.709 64.0166 40.5635 61.1426 40.5547ZM58.8575 36.1953C58.875 37.4434 59.8243 38.4717 61.125 38.4629C62.4346 38.4717 63.3926 37.4785 63.3926 36.1953C63.3926 34.9209 62.4522 33.9365 61.1602 33.9277C59.8594 33.9365 58.875 34.9561 58.8575 36.1953Z" fill="black"/>
<path d="M69.37 40.5371C68.5439 40.5371 67.8759 39.8779 67.8935 39.0605C67.8759 38.252 68.5439 37.5928 69.37 37.6016C70.1523 37.5928 70.829 38.252 70.829 39.0605C70.829 39.8779 70.1523 40.5371 69.37 40.5371ZM67.8935 32.3633C67.8759 31.5547 68.5439 30.8955 69.37 30.9043C70.1523 30.8955 70.829 31.5547 70.829 32.3633C70.829 33.1807 70.1523 33.8398 69.37 33.8398C68.5439 33.8398 67.8759 33.1807 67.8935 32.3633Z" fill="black"/>
<path d="M77.8787 40.5547C74.6883 40.5547 72.7635 38.1816 72.7635 34.0156C72.7635 29.8584 74.7058 27.4766 77.8787 27.4766C81.0515 27.4766 82.9939 29.8584 82.9939 34.0156C82.9939 38.1992 81.0603 40.5547 77.8787 40.5547ZM75.4705 34.0156C75.4529 36.9512 76.4021 38.375 77.8787 38.375C79.3552 38.375 80.2957 36.9512 80.2869 34.0156C80.2957 31.1064 79.3465 29.6475 77.8787 29.6387C76.4109 29.6475 75.4705 31.1064 75.4705 34.0156Z" fill="black"/>
<path d="M89.7975 40.5547C86.6071 40.5547 84.6823 38.1816 84.6823 34.0156C84.6823 29.8584 86.6246 27.4766 89.7975 27.4766C92.9704 27.4766 94.9127 29.8584 94.9127 34.0156C94.9127 38.1992 92.9791 40.5547 89.7975 40.5547ZM87.3893 34.0156C87.3717 36.9512 88.3209 38.375 89.7975 38.375C91.2741 38.375 92.2145 36.9512 92.2057 34.0156C92.2145 31.1064 91.2653 29.6475 89.7975 29.6387C88.3297 29.6475 87.3893 31.1064 87.3893 34.0156Z" fill="black"/>
<path d="M101.629 34.7363C102.227 34.1035 102.983 33.7783 103.809 33.7695C105.25 33.7783 106.472 34.7715 107.922 34.7715C108.74 34.7715 109.469 34.4463 110.049 33.8047V35.9492C109.452 36.582 108.696 36.916 107.869 36.916C106.428 36.916 105.198 35.9229 103.756 35.9141C102.939 35.9229 102.209 36.248 101.629 36.8809V34.7363Z" fill="black"/>
<path d="M121.723 40.5547C118.814 40.5547 116.731 39.0254 116.731 36.9512C116.731 35.3516 117.961 34.0508 119.543 33.8047V33.7168C118.163 33.4531 117.214 32.3018 117.223 30.9043C117.214 28.9268 119.121 27.4766 121.723 27.4766C124.324 27.4766 126.232 28.9268 126.24 30.9043C126.232 32.3018 125.256 33.4531 123.92 33.7168V33.8047C125.467 34.0508 126.715 35.3516 126.715 36.9512C126.715 39.0254 124.623 40.5547 121.723 40.5547ZM119.49 36.6875C119.482 37.7773 120.378 38.542 121.723 38.5332C123.067 38.542 123.964 37.7773 123.955 36.6875C123.964 35.5889 123.015 34.7803 121.723 34.7715C120.431 34.7803 119.482 35.5801 119.49 36.6875ZM119.807 31.168C119.798 32.1875 120.598 32.8994 121.723 32.9082C122.839 32.8994 123.648 32.1875 123.656 31.168C123.648 30.1748 122.857 29.4805 121.723 29.4805C120.58 29.4805 119.798 30.1748 119.807 31.168Z" fill="black"/>
<path d="M129.739 40.5371C128.913 40.5371 128.245 39.8779 128.263 39.0605C128.245 38.252 128.913 37.5928 129.739 37.6016C130.521 37.5928 131.198 38.252 131.198 39.0605C131.198 39.8779 130.521 40.5371 129.739 40.5371Z" fill="black"/>
<path d="M137.211 27.6523V40.3789H134.556V30.166H134.486L131.568 31.9941V29.6562L134.715 27.6523H137.211Z" fill="black"/>
<path d="M156.654 26V32.5039H158.746V34.3672H156.654V41.9961H154.386V26H156.654ZM143.664 37.4785C144.833 37.4785 146.195 37.4785 147.619 37.4434V36.0723C145.922 35.7383 144.815 34.6572 144.824 33.1719C144.815 31.3877 146.432 30.166 148.761 30.166C151.046 30.166 152.681 31.3877 152.699 33.1719C152.681 34.6572 151.556 35.7471 149.869 36.0723V37.3643C151.134 37.2939 152.409 37.1885 153.595 37.0215L153.736 38.6562C150.335 39.2891 146.661 39.3154 143.962 39.3066L143.664 37.4785ZM143.98 29.5332V27.7754H147.619V26.0879H149.869V27.7754H153.472V29.5332H143.98ZM146.951 33.1719C146.942 34.0156 147.663 34.4727 148.761 34.4727C149.825 34.4727 150.537 34.0156 150.537 33.1719C150.537 32.3457 149.825 31.8799 148.761 31.8711C147.663 31.8799 146.942 32.3457 146.951 33.1719Z" fill="black"/>
<path d="M169.646 27.6523V40.3789H166.991V30.166H166.921L164.003 31.9941V29.6562L167.15 27.6523H169.646Z" fill="black"/>
<path d="M177.416 40.5547C174.507 40.5547 172.424 39.0254 172.424 36.9512C172.424 35.3516 173.654 34.0508 175.236 33.8047V33.7168C173.857 33.4531 172.907 32.3018 172.916 30.9043C172.907 28.9268 174.815 27.4766 177.416 27.4766C180.018 27.4766 181.925 28.9268 181.934 30.9043C181.925 32.3018 180.949 33.4531 179.613 33.7168V33.8047C181.16 34.0508 182.408 35.3516 182.408 36.9512C182.408 39.0254 180.317 40.5547 177.416 40.5547ZM175.184 36.6875C175.175 37.7773 176.071 38.542 177.416 38.5332C178.761 38.542 179.657 37.7773 179.649 36.6875C179.657 35.5889 178.708 34.7803 177.416 34.7715C176.124 34.7803 175.175 35.5801 175.184 36.6875ZM175.5 31.168C175.491 32.1875 176.291 32.8994 177.416 32.9082C178.532 32.8994 179.341 32.1875 179.35 31.168C179.341 30.1748 178.55 29.4805 177.416 29.4805C176.274 29.4805 175.491 30.1748 175.5 31.168Z" fill="black"/>
<path d="M185.802 40.5371C184.976 40.5371 184.308 39.8779 184.325 39.0605C184.308 38.252 184.976 37.5928 185.802 37.6016C186.584 37.5928 187.261 38.252 187.261 39.0605C187.261 39.8779 186.584 40.5371 185.802 40.5371ZM184.325 32.3633C184.308 31.5547 184.976 30.8955 185.802 30.9043C186.584 30.8955 187.261 31.5547 187.261 32.3633C187.261 33.1807 186.584 33.8398 185.802 33.8398C184.976 33.8398 184.308 33.1807 184.325 32.3633Z" fill="black"/>
<path d="M194.31 40.5547C191.12 40.5547 189.195 38.1816 189.195 34.0156C189.195 29.8584 191.138 27.4766 194.31 27.4766C197.483 27.4766 199.426 29.8584 199.426 34.0156C199.426 38.1992 197.492 40.5547 194.31 40.5547ZM191.902 34.0156C191.885 36.9512 192.834 38.375 194.31 38.375C195.787 38.375 196.727 36.9512 196.719 34.0156C196.727 31.1064 195.778 29.6475 194.31 29.6387C192.843 29.6475 191.902 31.1064 191.902 34.0156Z" fill="black"/>
<path d="M206.229 40.5547C203.039 40.5547 201.114 38.1816 201.114 34.0156C201.114 29.8584 203.056 27.4766 206.229 27.4766C209.402 27.4766 211.344 29.8584 211.344 34.0156C211.344 38.1992 209.411 40.5547 206.229 40.5547ZM203.821 34.0156C203.803 36.9512 204.753 38.375 206.229 38.375C207.706 38.375 208.646 36.9512 208.637 34.0156C208.646 31.1064 207.697 29.6475 206.229 29.6387C204.761 29.6475 203.821 31.1064 203.821 34.0156Z" fill="black"/>
</svg>
