<svg width="48" height="64" viewBox="0 0 48 64" fill="none" xmlns="http://www.w3.org/2000/svg">
<path d="M0 24C0 10.7452 10.7452 0 24 0C37.2548 0 48 10.7452 48 24C48 37.2548 37.2548 48 24 48C10.7452 48 0 37.2548 0 24Z" fill="#BABCC4"/>
<path d="M22.3551 35V25.5907H13V22.3551H22.3551V13H25.5907V22.3551H35V25.5907H25.5907V35H22.3551Z" fill="white"/>
<path d="M13.6406 61.332V62.1055H4.10156V61.332H8.40234V58.9414H9.30469V61.332H13.6406ZM4.62891 58.5898C6.63867 58.2676 8.37891 57.0547 8.39062 55.4258H4.99219V54.6641H8.40234V53.2227H9.30469V54.6641H12.7266V55.4258H9.32812C9.32812 57.0547 11.0684 58.2676 13.0664 58.5898L12.7148 59.3164C11.0508 59.0234 9.52148 58.1797 8.85352 56.873C8.19727 58.1797 6.66797 59.0234 4.99219 59.3164L4.62891 58.5898Z" fill="black"/>
<path d="M23.4029 53V63.418H22.524V57.957H20.9888V62.8789H20.1451V53.2344H20.9888V57.1953H22.524V53H23.4029ZM14.8834 60.8398V54.2773H18.7857V55.0391H15.7974V60.0547C17.233 60.0488 18.2232 59.9961 19.3834 59.7617L19.4654 60.5352C18.2115 60.793 17.151 60.834 15.5513 60.8398H14.8834Z" fill="black"/>
<path d="M32.9543 53V57.3008H34.7003V58.0625H32.9543V63.418H32.0402V53H32.9543ZM24.8332 55.4375V54.6758H27.5168V53.1289H28.4308V54.6758H31.0324V55.4375H24.8332ZM25.4308 58.6953C25.425 57.2891 26.5031 56.3047 27.9855 56.3047C29.4562 56.3047 30.5285 57.2891 30.5402 58.6953C30.5285 60.1074 29.4562 61.0859 27.9855 61.0859C26.5031 61.0859 25.425 60.1074 25.4308 58.6953ZM26.3097 58.6953C26.3039 59.6445 27.0128 60.3125 27.9855 60.3008C28.9464 60.3125 29.6496 59.6445 29.6613 58.6953C29.6496 57.752 28.9464 57.0723 27.9855 57.0781C27.0128 57.0723 26.3039 57.752 26.3097 58.6953Z" fill="black"/>
<path d="M43.9001 53V63.418H42.9743V53H43.9001ZM35.4158 60.7109C38.2341 59.375 39.6755 57.377 39.8806 54.8867H35.8962V54.1367H40.8181C40.8064 57.1309 39.4118 59.7852 35.9197 61.4609L35.4158 60.7109Z" fill="black"/>
</svg>
