<svg width="29" height="17" viewBox="0 0 29 17" fill="none" xmlns="http://www.w3.org/2000/svg">
<path d="M4.32411 0.476535C6.75974 0.476535 8.61293 1.99439 8.61293 4.14762C8.61293 6.26555 6.75974 7.80105 4.32411 7.80105C1.83554 7.80105 0 6.26555 0 4.14762C0 1.99439 1.83554 0.476535 4.32411 0.476535ZM4.32411 2.31208C3.08865 2.31208 2.17088 2.98276 2.18853 4.14762C2.17088 5.29483 3.08865 5.98316 4.32411 5.98316C5.54193 5.98316 6.44205 5.29483 6.44205 4.14762C6.44205 2.98276 5.54193 2.31208 4.32411 2.31208ZM13.2018 0V8.04815H10.9427V0H13.2018ZM13.2018 8.71883V13.0782H4.65945V14.1196H13.643V15.8845H2.45327V11.4368H10.9603V10.4485H2.41797V8.71883H13.2018Z" fill="black"/>
<path d="M28.9459 0V9.5307H26.7045V5.73607H24.1982V3.91818H26.7045V0H28.9459ZM23.457 9.88369C26.881 9.90134 28.9812 11.0309 28.9989 12.99C28.9812 14.9314 26.881 16.0786 23.457 16.0786C20.033 16.0786 17.9327 14.9314 17.9327 12.99C17.9327 11.0309 20.033 9.90134 23.457 9.88369ZM23.457 11.6133C21.3214 11.6133 20.1742 12.0546 20.1742 12.99C20.1742 13.9078 21.3214 14.3666 23.457 14.3666C25.5925 14.3666 26.7574 13.9078 26.7574 12.99C26.7574 12.0546 25.5925 11.6133 23.457 11.6133ZM24.6748 0.97072V2.77096H21.4802C21.5332 4.6418 22.6627 6.53029 25.169 7.35982L24.057 9.12476C22.2833 8.55116 21.0655 7.38629 20.3683 5.93021C19.6535 7.57161 18.3739 8.89532 16.4678 9.54835L15.3029 7.76576C17.9415 6.88328 19.124 4.783 19.1858 2.77096H15.9559V0.97072H24.6748Z" fill="black"/>
</svg>
