<svg width="29" height="17" viewBox="0 0 29 17" fill="none" xmlns="http://www.w3.org/2000/svg">
<path d="M4.32411 0.476535C6.76856 0.46771 8.6041 2.00321 8.61293 4.14762C8.6041 6.27438 6.76856 7.79223 4.32411 7.80105C1.84437 7.79223 0 6.27438 0 4.14762C0 2.00321 1.84437 0.46771 4.32411 0.476535ZM2.18853 4.14762C2.17088 5.29483 3.07983 5.97434 4.32411 5.98316C5.54193 5.97434 6.43322 5.29483 6.44205 4.14762C6.43322 2.99158 5.54193 2.31208 4.32411 2.31208C3.08865 2.31208 2.17088 2.99158 2.18853 4.14762ZM2.41797 10.4485V8.71883H13.2018V13.0782H4.65945V14.1196H13.643V15.8845H2.45327V11.4368H10.9603V10.4485H2.41797ZM10.9427 8.04815V0H13.2018V8.04815H10.9427Z" fill="black"/>
<path d="M28.9459 0V9.5307H26.7045V5.73607H24.1982V3.91818H26.7045V0H28.9459ZM15.3029 7.76576C17.9327 6.88328 19.1328 4.783 19.1858 2.77096H15.9559V0.97072H24.6748V2.77096H21.4802C21.5243 4.6418 22.6716 6.53029 25.169 7.35982L24.057 9.12476C22.2921 8.55116 21.0655 7.38629 20.3683 5.94786C19.6623 7.58044 18.3739 8.89532 16.4678 9.54835L15.3029 7.76576ZM17.9327 12.99C17.9327 11.0397 20.033 9.89251 23.457 9.88369C26.8898 9.89251 28.9901 11.0397 28.9989 12.99C28.9901 14.9403 26.8898 16.0786 23.457 16.0786C20.033 16.0786 17.9327 14.9403 17.9327 12.99ZM20.1742 12.99C20.1742 13.9078 21.3302 14.3666 23.457 14.3666C25.5925 14.3666 26.7486 13.9078 26.7574 12.99C26.7486 12.0634 25.5925 11.6045 23.457 11.6133C21.3302 11.6045 20.1742 12.0634 20.1742 12.99Z" fill="black"/>
</svg>
