<svg width="85" height="14" viewBox="0 0 85 14" fill="none" xmlns="http://www.w3.org/2000/svg">
<path d="M6.53786 1.26994V2.30471H1.23859V5.18952H6.22429V6.19294H1.23859V9.56377C3.75496 9.56377 5.51877 9.4697 7.60398 9.1091L7.74509 10.1282C5.5658 10.4966 3.73928 10.575 1.09748 10.5829H0V1.26994H6.53786ZM8.95232 13.938V0H10.1752V5.61284H12.5113V6.66329H10.1752V13.938H8.95232Z" fill="#222222" fill-opacity="0.4"/>
<path d="M24.7882 0V13.9694H23.5496V0H24.7882ZM13.8134 5.94208C13.8212 2.97888 15.295 1.08964 17.3723 1.0818C19.4419 1.08964 20.9391 2.97888 20.9313 5.94208C20.9391 8.91312 19.4419 10.7945 17.3723 10.7867C15.295 10.7945 13.8212 8.91312 13.8134 5.94208ZM15.0049 5.94208C15.0049 8.2076 15.977 9.69704 17.3723 9.6892C18.7755 9.69704 19.7398 8.2076 19.7398 5.94208C19.7398 3.67657 18.7755 2.18713 17.3723 2.17929C15.977 2.18713 15.0049 3.67657 15.0049 5.94208Z" fill="#222222" fill-opacity="0.4"/>
<path d="M30.9505 1.0818C32.8476 1.08964 34.2194 2.72019 34.4076 5.33063H37.5354V0H38.7583V13.9694H37.5354V6.34972H34.4233C34.29 9.08559 32.8946 10.7945 30.9505 10.7867C28.8888 10.7945 27.4464 8.91312 27.4542 5.94208C27.4464 2.97888 28.8888 1.08964 30.9505 1.0818ZM28.6301 5.94208C28.638 8.2076 29.5787 9.69704 30.9505 9.6892C32.3145 9.69704 33.2709 8.2076 33.2709 5.94208C33.2709 3.67657 32.3145 2.18713 30.9505 2.17929C29.5787 2.18713 28.638 3.67657 28.6301 5.94208Z" fill="#222222" fill-opacity="0.4"/>
<path d="M56.7272 0V8.1684H55.4886V4.53103H52.6665V3.49626H55.4886V0H56.7272ZM45.235 7.05524C47.2888 6.3262 48.7783 4.46048 48.7783 2.47717V1.92843H45.6269V0.909342H53.1368V1.92843H50.0168V2.47717C50.0168 4.27234 51.4122 6.01263 53.4504 6.74168L52.8076 7.71373C51.2398 7.14147 50.0247 5.97344 49.4211 4.53103C48.8175 6.1459 47.5318 7.42368 45.8778 8.0273L45.235 7.05524ZM47.6181 13.7499V8.85825H56.7272V13.7499H47.6181ZM48.841 12.7465H55.5199V9.84598H48.841V12.7465Z" fill="#222222" fill-opacity="0.4"/>
<path d="M66.276 0.909342C66.2682 4.40561 63.7675 6.91414 59.7538 8.05866L59.2364 7.0866C62.5681 6.1459 64.7003 4.29586 64.9669 1.92843H59.9576V0.909342H66.276ZM61.5882 13.7499V8.56036H70.6346V13.7499H61.5882ZM62.7797 12.7465H69.4117V9.5481H62.7797V12.7465ZM66.3074 4.64078V3.60601H69.396V0.0156783H70.6346V7.96459H69.396V4.64078H66.3074Z" fill="#222222" fill-opacity="0.4"/>
<path d="M76.938 0.517384C79.0232 0.525224 80.5362 1.79517 80.544 3.60601C80.5362 5.4247 79.0232 6.67896 76.938 6.67896C74.8293 6.67896 73.3085 5.4247 73.3163 3.60601C73.3085 1.79517 74.8293 0.525224 76.938 0.517384ZM74.5236 3.60601C74.5079 4.82892 75.5348 5.67555 76.938 5.67555C78.3177 5.67555 79.3525 4.82892 79.3525 3.60601C79.3525 2.39878 78.3177 1.54431 76.938 1.55215C75.5348 1.54431 74.5079 2.39878 74.5236 3.60601ZM75.4329 8.82689V7.83916H84.495V11.1943H76.6715V12.7622H84.9967V13.7499H75.4643V10.2693H83.2721V8.82689H75.4329ZM83.2721 7.16499V0H84.495V7.16499H83.2721Z" fill="#222222" fill-opacity="0.4"/>
</svg>
