<svg width="27" height="14" viewBox="0 0 27 14" fill="none" xmlns="http://www.w3.org/2000/svg">
<path d="M4.7874 4.56693C4.79528 6.81102 6.25197 9.10236 8.28346 10.0787L7.55906 11.0394C6.01575 10.2835 4.79528 8.74803 4.2126 6.94488C3.59843 8.89764 2.29921 10.5197 0.708661 11.2913L0 10.3307C2.05512 9.37008 3.58268 6.97638 3.59055 4.56693V3.44882H0.377953V2.44094H3.5748V0.267717H4.8189V2.44094H7.9685V3.44882H4.7874V4.56693ZM9.73228 14V0H10.9606V5.74803H13.3071V6.80315H10.9606V14H9.73228Z" fill="#222222" fill-opacity="0.4"/>
<path d="M21.0716 4.97638V6.97638H26.8511V8H14.0952V6.97638H19.859V4.97638H21.0716ZM14.8039 4.69291C17.2448 4.43307 19.5834 3.23622 19.67 1.66929H15.2606V0.661417H25.7173V1.66929H21.2763C21.363 3.22835 23.7015 4.43307 26.1425 4.69291L25.6858 5.66929C23.3945 5.38583 21.2448 4.38583 20.4732 2.83465C19.7015 4.38583 17.5677 5.38583 15.2606 5.66929L14.8039 4.69291ZM15.6386 11.5591C15.6307 10.0079 17.4338 9.14961 20.4732 9.14961C23.4811 9.14961 25.2763 10.0079 25.2921 11.5591C25.2763 13.1181 23.4811 13.9685 20.4732 13.9685C17.4338 13.9685 15.6307 13.1181 15.6386 11.5591ZM16.8984 11.5591C16.8826 12.4803 18.2055 13.0157 20.4732 13.0079C22.7173 13.0157 24.0401 12.4803 24.048 11.5591C24.0401 10.6457 22.7173 10.1181 20.4732 10.126C18.2055 10.1181 16.8826 10.6457 16.8984 11.5591Z" fill="#222222" fill-opacity="0.4"/>
</svg>
