<svg width="78" height="12" viewBox="0 0 78 12" fill="none" xmlns="http://www.w3.org/2000/svg">
<path d="M0.0156548 11.4906L0 10.4574L3.86673 6.38716C5.20522 4.96257 5.84706 4.19548 5.85489 3.14661C5.84706 1.98033 4.87647 1.2289 3.6006 1.22107C2.24646 1.2289 1.4011 2.08209 1.39328 3.35013H0.0626192C0.0469644 1.34631 1.59679 0 3.64757 0C5.70617 0 7.16207 1.38545 7.16989 3.14661C7.16207 4.41465 6.57501 5.4009 4.5712 7.46734L1.9725 10.1443V10.2382H7.37341V11.4906H0.0156548Z" fill="#222222"/>
<path d="M13.1664 11.6472C10.6538 11.6472 9.19794 9.53377 9.20577 5.82358C9.19794 2.14471 10.6695 0 13.1664 0C15.6555 0 17.1271 2.14471 17.1271 5.82358C17.1271 9.53377 15.679 11.6472 13.1664 11.6472ZM10.5677 5.82358C10.5756 8.75886 11.5227 10.3948 13.1664 10.3948C14.8024 10.3948 15.7573 8.75886 15.7495 5.82358C15.7573 2.88831 14.7945 1.2289 13.1664 1.22107C11.5383 1.2289 10.5756 2.88831 10.5677 5.82358Z" fill="#222222"/>
<path d="M19.0377 11.4906L19.0221 10.4574L22.8888 6.38716C24.2273 4.96257 24.8691 4.19548 24.877 3.14661C24.8691 1.98033 23.8985 1.2289 22.6227 1.22107C21.2685 1.2289 20.4232 2.08209 20.4154 3.35013H19.0847C19.069 1.34631 20.6189 0 22.6696 0C24.7282 0 26.1841 1.38545 26.192 3.14661C26.1841 4.41465 25.5971 5.4009 23.5933 7.46734L20.9946 10.1443V10.2382H26.3955V11.4906H19.0377Z" fill="#222222"/>
<path d="M32.392 11.6472C30.1377 11.6472 28.5175 10.4417 28.447 8.64145H29.8716C29.9499 9.72163 31.0222 10.3948 32.3764 10.3948C33.8714 10.3948 34.9516 9.58856 34.9594 8.40662C34.9516 7.16989 33.9653 6.30105 32.2042 6.29323H31.2805V5.0565H32.2042C33.5818 5.0565 34.5446 4.28159 34.5367 3.1153C34.5446 1.98033 33.7148 1.2289 32.4233 1.22107C31.2101 1.2289 30.1064 1.89423 30.0438 3.00572H28.6818C28.7523 1.20542 30.4273 0 32.439 0C34.5993 0 35.9143 1.41676 35.8987 3.03703C35.9143 4.32855 35.1629 5.26784 33.9732 5.60442V5.68269C35.4525 5.90968 36.3449 6.96638 36.337 8.40662C36.3449 10.2695 34.6541 11.6472 32.392 11.6472Z" fill="#222222"/>
<path d="M39.0147 11.5845C38.4668 11.5767 37.9972 11.1227 38.0128 10.567C37.9972 10.0191 38.4668 9.56508 39.0147 9.56508C39.5705 9.56508 40.0245 10.0191 40.0167 10.567C40.0245 11.1227 39.5705 11.5767 39.0147 11.5845Z" fill="#222222"/>
<path d="M45.4496 11.6472C42.937 11.6472 41.4811 9.53377 41.489 5.82358C41.4811 2.14471 42.9527 0 45.4496 0C47.9387 0 49.4103 2.14471 49.4103 5.82358C49.4103 9.53377 47.9622 11.6472 45.4496 11.6472ZM42.8509 5.82358C42.8587 8.75886 43.8059 10.3948 45.4496 10.3948C47.0855 10.3948 48.0405 8.75886 48.0327 5.82358C48.0405 2.88831 47.0777 1.2289 45.4496 1.22107C43.8215 1.2289 42.8587 2.88831 42.8509 5.82358Z" fill="#222222"/>
<path d="M55.1094 11.6472C52.722 11.6472 51.0783 10.3243 51.0861 8.4849C51.0783 7.02117 52.0958 5.80793 53.3873 5.60442V5.5418C52.2602 5.28349 51.5166 4.24245 51.5244 3.00572C51.5166 1.27587 53.0351 0 55.1094 0C57.1758 0 58.6943 1.27587 58.71 3.00572C58.6943 4.24245 57.9429 5.28349 56.8314 5.5418V5.60442C58.1151 5.80793 59.1327 7.02117 59.1483 8.4849C59.1327 10.3243 57.4733 11.6472 55.1094 11.6472ZM52.495 8.40662C52.4715 9.59639 53.4813 10.4026 55.1094 10.4104C56.7296 10.4026 57.7394 9.59639 57.7394 8.40662C57.7394 7.15424 56.6357 6.23061 55.1094 6.23061C53.5909 6.23061 52.4715 7.15424 52.495 8.40662ZM52.8864 3.1153C52.8942 4.2581 53.81 5.03302 55.1094 5.04084C56.4009 5.03302 57.3324 4.2581 57.3324 3.1153C57.3324 1.98033 56.4322 1.21325 55.1094 1.22107C53.7631 1.21325 52.8942 1.98033 52.8864 3.1153Z" fill="#222222"/>
<path d="M61.6851 11.5845C61.1372 11.5767 60.6676 11.1227 60.6832 10.567C60.6676 10.0191 61.1372 9.56508 61.6851 9.56508C62.2409 9.56508 62.6949 10.0191 62.687 10.567C62.6949 11.1227 62.2409 11.5767 61.6851 11.5845Z" fill="#222222"/>
<path d="M68.12 11.6472C65.6074 11.6472 64.1515 9.53377 64.1593 5.82358C64.1515 2.14471 65.6231 0 68.12 0C70.6091 0 72.0807 2.14471 72.0807 5.82358C72.0807 9.53377 70.6326 11.6472 68.12 11.6472ZM65.5213 5.82358C65.5291 8.75886 66.4763 10.3948 68.12 10.3948C69.7559 10.3948 70.7109 8.75886 70.703 5.82358C70.7109 2.88831 69.7481 1.2289 68.12 1.22107C66.4919 1.2289 65.5291 2.88831 65.5213 5.82358Z" fill="#222222"/>
<path d="M77.9989 0.156548V11.4906H76.5744V1.6281H76.5117L73.7565 3.45971V2.03512L76.5744 0.156548H77.9989Z" fill="#222222"/>
</svg>
