<svg xmlns="http://www.w3.org/2000/svg" width="135" height="108" fill="none" viewBox="0 0 135 108"><g clip-path="url(#a)"><path fill="#EFC890" d="M92.349 57.912a179.326 179.326 0 0 0 1.897 5.106c5.183 13.471 2.163 22.523-3.6 28.603-4.345 4.58-12.592 8.646-24.193 4.306l-.406-2.551 3.644-7.541c5.738-.428 7.95-4.065 8.816-6.01.918-2.066 1.764-5.673-.304-12.296-.98-3.137-3.848-8.109-4.964-14.326l-.947-19.946 12.365-12.3c3.838-3.447 10.865-7.04 18.03-5.244 7.13 1.786 13.081 5.729 17.006 14.496 3.967 8.87 1.771 19.974-5.424 26.195-6.171 5.336-12.812 5.574-21.92 1.508Z"/><path fill="#EFC890" d="M103.234 43.05c.312.795.458 2.14.058 3.322-.878.165-1.817.152-2.746-.016-1.787-.322-3.023-2.858-1.424-4.328 1.666-1.532 3.527-.464 4.111 1.022h.001Z"/><path stroke="#23211F" stroke-linecap="round" stroke-linejoin="round" stroke-width="1.681" d="M92.355 57.912c-3.238-9.204-3.882-14.803.524-20.222 5.872-7.224 14.834-2.39 14.781 2.827-.036 3.615-1.971 5.403-4.364 5.857"/><path stroke="#23211F" stroke-linecap="round" stroke-linejoin="round" stroke-width="1.681" d="M92.357 57.912c9.108 4.066 15.749 3.828 21.92-1.508 7.195-6.22 9.39-17.324 5.424-26.195-3.925-8.767-9.876-12.71-17.006-14.496-7.165-1.797-14.192 1.797-18.03 5.245L72.3 33.258l.946 19.945c1.117 6.217 3.986 11.189 4.965 14.326 2.068 6.623 1.222 10.23.303 12.297-.866 1.944-3.077 5.58-8.815 6.009l-3.644 7.54.406 2.552c11.6 4.34 19.848.274 24.192-4.306 5.763-6.08 8.784-15.132 3.6-28.603-.701-1.82-1.34-3.517-1.896-5.106Z"/><path stroke="#23211F" stroke-linecap="round" stroke-linejoin="round" stroke-width="1.681" d="M103.295 46.375c-.439 1.304-1.549 2.41-3.826 2.364m3.83-2.367c-.877.165-1.816.152-2.745-.016-1.787-.322-3.023-2.858-1.425-4.328 1.667-1.532 3.528-.464 4.112 1.022.312.795.458 2.14.057 3.322h.001Z"/><path fill="#EFC890" d="M68.28 95.219c6.063 1.29 6.208 9.705 2.532 11.541-3.329 1.662-5.742-2.616-7.351-4.192 1.308-1.161 2.502-2.633 3.574-4.49.506-.877.916-1.838 1.244-2.86Z"/><path fill="#EFC890" d="M65.106 69.758c2.584 3.118 6.014 16.59 3.167 25.455a14.738 14.738 0 0 1-1.244 2.858c-1.072 1.858-2.266 3.33-3.574 4.491-5.145 4.57-12.068 4.367-20.413 4.157-10.469-.263-16.08-5.737-16.08-5.737-6.25 1.886-8.656-3.002-9.242-6.253-.7-3.888-.837-8.14 2.395-9.769 3.782-1.905 6.002 5.151 6.002 5.151.57.065 1.161.007 1.765-.134-4.216-6.356-1.55-11.143.37-15.287 2.2-4.755 4.676-9.547 4.676-9.547-5.572-1.292-8.783-3.313-13.471-6.619-7.046-4.97-6.484-10.192-3.14-12.364 3.344-2.172 5.418-.387 7.072 1.745 1.653 2.133 3.94 2.62 7.402 3.813l37.93 6.614c1.97.654 12.733 6.02 15.454 13.43 2.723 7.412-.611 12.854-5.253 10.55-3.131-1.554-6.681-9.927-13.816-12.554Z"/><mask id="b" width="73" height="62" x="13" y="45" maskUnits="userSpaceOnUse" style="mask-type:luminance"><path fill="#fff" d="M65.106 69.758c2.584 3.118 6.014 16.59 3.167 25.455a14.738 14.738 0 0 1-1.244 2.858c-1.072 1.858-2.266 3.33-3.574 4.491-5.145 4.57-12.068 4.367-20.413 4.157-10.469-.263-16.08-5.737-16.08-5.737-6.25 1.886-8.656-3.002-9.242-6.253-.7-3.888-.837-8.14 2.395-9.769 3.782-1.905 6.002 5.151 6.002 5.151.57.065 1.161.007 1.765-.134-4.216-6.356-1.55-11.143.37-15.287 2.2-4.755 4.676-9.547 4.676-9.547-5.572-1.292-8.783-3.313-13.471-6.619-7.046-4.97-6.484-10.192-3.14-12.364 3.344-2.172 5.418-.387 7.072 1.745 1.653 2.133 3.94 2.62 7.402 3.813l37.93 6.614c1.97.654 12.733 6.02 15.454 13.43 2.723 7.412-.611 12.854-5.253 10.55-3.131-1.554-6.681-9.927-13.816-12.554Z"/></mask><g mask="url(#b)"><path fill="#FCF2C9" d="M42.261 63.18c-8.668 0-11.004 1.986-13.422 10.727-2.417 8.744-9.439 11.966.005 15.787 18.875 10.524 25.542.967 26.345-8.97.734-9.094-4.642-17.544-12.93-17.544h.002Z"/></g><path stroke="#23211F" stroke-linecap="round" stroke-linejoin="round" stroke-width="1.73" d="M58.86 69.08c2.356-.294 4.423.003 6.254.678 7.135 2.627 10.685 11 13.816 12.553 4.642 2.305 7.976-3.137 5.253-10.549-2.721-7.41-13.485-12.776-15.454-13.43l-37.93-6.614c-3.463-1.193-5.749-1.68-7.402-3.813-1.654-2.132-3.728-3.918-7.072-1.745-3.344 2.172-3.906 7.394 3.14 12.364 4.688 3.307 7.898 5.327 13.471 6.619 0 0-2.741 5.358-4.942 10.114-1.92 4.144-4.32 8.364-.104 14.72l.02.03"/><path stroke="#23211F" stroke-linecap="round" stroke-linejoin="round" stroke-width="1.73" d="M33.651 87.598c-1.937.764-3.915 1.953-5.76 2.379-.604.141-1.195.2-1.765.134 0 0-2.22-7.056-6.002-5.15-3.232 1.629-3.095 5.88-2.395 9.768.585 3.252 2.992 8.139 9.242 6.253 0 0 5.61 5.474 16.08 5.737 8.345.21 15.267.413 20.412-4.157 1.309-1.161 2.503-2.633 3.575-4.49.505-.877.916-1.838 1.244-2.859 2.847-8.864-.583-22.337-3.167-25.455"/><path stroke="#23211F" stroke-linecap="round" stroke-linejoin="round" stroke-width="1.73" d="M63.46 102.568c1.61 1.576 4.023 5.854 7.352 4.192 3.676-1.836 3.531-10.251-2.533-11.541"/><path fill="#ED9670" d="M28.78 31.994c2.646 3.677 5.654 7.63 2.018 19.719-5.679-2.79-10.613-7.098-9.705-12.59 1.106-6.69 7.685-7.13 7.685-7.13h.002Z"/><path fill="#FCF2C9" d="M81.236 28.475c-1 .348-2.133.511-3.378.43-.778-1.769-2.075-4.353-3.724-5.97l-.103-.025c.98-.965 2.857-2.743 7.172-3.16 1.303-.2 1.357-.059 5.012.232.505 3.612-1.409 7.245-4.98 8.493ZM39.684 14.382a34.965 34.965 0 0 0-3.633 2.879c-4.856-1.954-5.772-6.677-3.894-10.128l.025.013c2.622 1.083 3.766 2.002 3.766 2.002 2.678 2.04 3.611 4.736 3.733 5.232v.002h.003Z"/><path fill="#EFC890" d="M53.888 17.808a7.821 7.821 0 0 1-1.32 2.531c-.897 1.143-2.901 2.073-4.08.696-1.825-2.13 1.711-5.206 5.4-3.227Z"/><path fill="#23211F" d="M55.853 34.759c1.26.299 2.042 1.574 1.745 2.848a2.343 2.343 0 0 1-2.82 1.76 2.369 2.369 0 0 1-1.746-2.846 2.348 2.348 0 0 1 2.823-1.762h-.002Zm-12.442 3.168c-1.078-.255-1.782-.728-1.533-1.353.24-.601 1.12-.747 1.97-.519.862.18 1.585.705 1.533 1.35-.056.671-.895.777-1.97.52v.002Z"/><path fill="#EFC890" d="M53.885 17.804c-3.689-1.98-7.225 1.097-5.4 3.227 1.179 1.378 3.183.447 4.08-.696a7.817 7.817 0 0 0 1.32-2.53ZM43.414 37.922c1.076.256 1.914.15 1.97-.52.051-.645-.672-1.171-1.534-1.35-.85-.228-1.729-.084-1.97.518-.248.626.456 1.097 1.534 1.354v-.002Zm28.606-22.57c2.832-3.152 9.032-3.727 12.38.463a8.564 8.564 0 0 1 1.815 4.169c-3.654-.292-3.709-.432-5.011-.233-4.315.42-6.192 2.196-7.172 3.16l.103.027c1.647 1.616 2.946 4.2 3.723 5.97 1.245.08 2.378-.084 3.378-.43.185.56.355 1.137.51 1.734 1.08 4.16 1.327 9.146-.28 14.63-1.21 4.132-2.974 7.164-5.207 9.346 1.121-4.798-3.736-13.518-14.047-11.94-6.344.97-11.963 9.13-8.23 16.273-6.12-.99-12.98-2.906-18.56-4.893a70.794 70.794 0 0 1-.848-.307 38.95 38.95 0 0 1-3.774-1.607c3.636-12.09.628-16.042-2.019-19.72.798-6.114 2.676-10.541 7.27-14.736a34.981 34.981 0 0 1 3.632-2.878c1.84-1.283 3.86-2.437 6.041-3.324 2.673-1.09 5.587-1.781 8.718-1.82h.001a23.073 23.073 0 0 1 5.639.636c5.332 1.263 9.116 3.265 11.94 5.478l-.002.002ZM57.594 37.606a2.368 2.368 0 0 0-1.745-2.848 2.348 2.348 0 0 0-2.823 1.762 2.372 2.372 0 0 0 1.747 2.847 2.344 2.344 0 0 0 2.82-1.761h.001Zm-18.727-4.453a2.369 2.369 0 0 0-1.744-2.849 2.345 2.345 0 0 0-2.823 1.763 2.367 2.367 0 0 0 1.746 2.847 2.344 2.344 0 0 0 2.82-1.761h.002Z"/><path fill="#23211F" d="M37.12 30.306c1.259.299 2.04 1.574 1.744 2.848a2.345 2.345 0 0 1-2.82 1.761 2.367 2.367 0 0 1-1.746-2.847 2.346 2.346 0 0 1 2.822-1.762Z"/><path fill="#ED9670" d="M76.255 54.19c-2.112 2.066-4.646 3.373-7.531 4.14-1.52.403-3.14.658-4.846.79-.35.03-.706.053-1.064.07-2.533.127-5.58-.14-8.835-.666-3.733-7.141 1.886-15.302 8.23-16.273 10.31-1.579 15.166 7.141 14.047 11.94l-.001-.002Z"/><path fill="#EFC890" d="M35.947 9.148s-1.145-.919-3.766-2.002l-.025-.013a7.54 7.54 0 0 1 3.482-3.256c5.476-2.532 10.547 2.688 9.884 6.69l.2.493c-2.181.887-4.201 2.041-6.04 3.324v-.003c-.124-.495-1.057-3.19-3.735-5.232v-.001Z"/><path stroke="#23211F" stroke-linecap="round" stroke-linejoin="round" stroke-width="1.73" d="M45.524 10.568c.66-4.001-4.408-9.223-9.885-6.69a7.547 7.547 0 0 0-3.481 3.255c-1.88 3.45-.962 8.174 3.893 10.128m34.496 1.532c.083-1.339.627-2.504 1.471-3.443 2.832-3.152 9.032-3.727 12.38.463a8.563 8.563 0 0 1 1.815 4.169c.505 3.613-1.409 7.245-4.98 8.493-1 .348-2.133.512-3.378.43l-.155-.01"/><path stroke="#23211F" stroke-linecap="round" stroke-linejoin="round" stroke-width="1.528" d="M53.89 17.809c.283-.899.449-1.978.376-3.239m-.378 3.239c-3.689-1.98-7.225 1.096-5.4 3.227 1.179 1.378 3.183.446 4.08-.696a7.818 7.818 0 0 0 1.32-2.531Z"/><path stroke="#23211F" stroke-linecap="round" stroke-linejoin="round" stroke-width="1.528" d="M54.44 9.242c-4.913 1.653-8.838 3.631-10.753 7.429-1.674 3.315-.86 7.992 5.362 8.74 5.156.618 8.622-5.482 4.936-7.549-.033-.017-.066-.037-.099-.053M43.443 37.79l-.033.136-.168.717"/><path stroke="#23211F" stroke-linecap="round" stroke-linejoin="round" stroke-width="1.73" d="M72.02 15.35c-2.825-2.213-6.608-4.215-11.94-5.478a23.054 23.054 0 0 0-5.64-.636h0c-3.13.039-6.046.73-8.718 1.82-2.182.887-4.202 2.041-6.041 3.324-.244.166-.483.338-.717.51a34.984 34.984 0 0 0-2.916 2.368c-4.593 4.195-6.472 8.622-7.27 14.736 0 0-6.578.441-7.685 7.132-.909 5.491 4.025 9.8 9.705 12.59a39.25 39.25 0 0 0 3.775 1.607l.848.306c5.58 1.988 12.44 3.904 18.56 4.894 3.255.526 6.302.793 8.835.666.358-.018.713-.04 1.064-.07 1.706-.133 3.325-.387 4.845-.79 2.886-.765 5.42-2.074 7.532-4.14 2.233-2.183 3.998-5.215 5.207-9.348 1.606-5.483 1.359-10.469.28-14.629a28.897 28.897 0 0 0-.51-1.735"/><path fill="#D4887C" d="M43.25 38.64c.367.609.79 1.028 1.647 1.269-.746 3.894-3.419 7.532-4.107 6.803-.689-.728.531-7.203.43-7.962.644.26 1.538.208 2.03-.11Z"/><path stroke="#23211F" stroke-linecap="round" stroke-linejoin="round" stroke-width="1.442" d="M40.563 38.21c.128.245.364.423.652.538.643.26 1.538.208 2.029-.11.368.609.79 1.028 1.647 1.269.272.075.589.133.96.173"/><path stroke="#23211F" stroke-linecap="round" stroke-linejoin="round" stroke-width="1.442" d="M41.213 38.75c.1.758-1.12 7.234-.43 7.962.688.73 3.36-2.91 4.106-6.804"/><path fill="#F1AA3B" d="M10.2 20.585c-.278.907-.69 1.684-1.24 2.33a6.129 6.129 0 0 1-1.905 1.518 6.252 6.252 0 0 1-2.345.654c-.842.07-1.712-.036-2.612-.315C.32 24.219-.327 23.154.154 21.577c.48-1.577 1.458-2.587 2.93-3.028 1.542-.443 3.227-.392 5.053.152L13.85 0l.32.1c.044.013.098.024.167.033a1.3 1.3 0 0 1 .197.043c.186.083.34.153.463.215.121.063.245.16.368.292.123.133.252.327.385.58.133.255.308.606.524 1.051.209.468.44.936.695 1.405.255.47.511.935.77 1.393.252.48.516.959.794 1.436.277.476.548.969.814 1.477.534 1.017.93 1.904 1.192 2.66.262.755.434 1.418.519 1.988.083.571.094 1.09.035 1.555-.06.466-.156.915-.289 1.347-.244.8-.5 1.43-.77 1.89-.27.46-.647.911-1.134 1.35-.52.477-1.098.925-1.729 1.343-.633.42-1.26.767-1.885 1.046a9.146 9.146 0 0 1-1.825.621c-.564.12-1.037.11-1.415-.031-.128-.04-.19-.184-.184-.43.006-.248.034-.421.089-.524.025-.086.153-.212.379-.378a2.96 2.96 0 0 1 .698-.386 7.196 7.196 0 0 0 1.428-.816c.466-.34.904-.718 1.314-1.135a8.695 8.695 0 0 0 1.04-1.22c.293-.418.494-.811.606-1.178.218-.714.25-1.508.095-2.383-.155-.876-.504-1.765-1.05-2.668-.279-.395-.527-.75-.747-1.066a32.02 32.02 0 0 0-.604-.845c-.21-.231-.395-.436-.551-.616a4.495 4.495 0 0 1-.378-.49 332.933 332.933 0 0 1-1.006 3.236c-.335 1.056-.67 2.134-1.007 3.236l-1.97 6.45.002.004Zm113.086 78.711c-.144 1.143-.478 2.157-1 3.042a7.482 7.482 0 0 1-1.964 2.213 7.63 7.63 0 0 1-2.667 1.274c-.992.259-2.053.317-3.185.171-2.237-.288-3.23-1.424-2.979-3.409.251-1.985 1.21-3.395 2.876-4.23 1.751-.853 3.773-1.145 6.066-.878l2.975-23.534.404.052c.053.007.121.009.204.006.083-.003.165 0 .245.012.239.059.438.112.596.159.159.047.325.138.499.271.175.133.368.338.58.614.212.276.492.657.842 1.144.346.514.718 1.025 1.121 1.532.4.508.803 1.009 1.206 1.503.4.521.813 1.037 1.243 1.548a47.72 47.72 0 0 1 1.277 1.595c.846 1.103 1.503 2.08 1.971 2.928.468.847.81 1.603 1.028 2.266.217.664.338 1.28.362 1.85.023.57 0 1.127-.067 1.67-.128 1.007-.305 1.813-.531 2.418-.228.607-.586 1.223-1.077 1.852a17.155 17.155 0 0 1-1.789 1.967 16.005 16.005 0 0 1-2.036 1.645c-.718.489-1.403.863-2.053 1.125-.65.263-1.215.349-1.696.259-.162-.02-.265-.179-.309-.475-.044-.296-.046-.51 0-.643.014-.108.139-.286.375-.531.236-.246.488-.448.754-.609a8.75 8.75 0 0 0 1.538-1.274c.488-.502.933-1.047 1.335-1.63.4-.556.73-1.115.992-1.676.262-.56.423-1.072.481-1.534.113-.897-.013-1.853-.376-2.867-.365-1.014-.966-2.004-1.802-2.968a185.54 185.54 0 0 1-1.113-1.117 46.447 46.447 0 0 0-.894-.883c-.3-.23-.561-.437-.785-.62a5.13 5.13 0 0 1-.552-.506 394.51 394.51 0 0 1-.536 4.076c-.182 1.33-.36 2.69-.535 4.076l-1.026 8.116h.002Z"/></g><defs><clipPath id="a"><path fill="#fff" d="M0 0h135v108H0z"/></clipPath></defs></svg>