<svg width="87" height="24" viewBox="0 0 87 24" fill="none" xmlns="http://www.w3.org/2000/svg">
<path d="M38.0078 9.54688V19.9766H37.1055V9.54688H38.0078ZM29.4062 16.0156C31.457 16.0156 34.0586 16.0156 36.3555 15.7344L36.4258 16.4141C35.4121 16.5664 34.3633 16.6543 33.3438 16.707V19.7188H32.418V16.7422C31.3926 16.7832 30.4082 16.7832 29.5234 16.7773L29.4062 16.0156ZM35.9922 10.6719V11.4102H29.8047V10.6719H32.4297V9.45312H33.3438V10.6719H35.9922ZM32.8984 11.8555C34.3633 11.8672 35.3477 12.5352 35.3594 13.5898C35.3477 14.6328 34.3633 15.3125 32.8984 15.3125C31.4219 15.3125 30.4258 14.6328 30.4375 13.5898C30.4258 12.5352 31.4219 11.8672 32.8984 11.8555ZM32.8984 12.5703C31.9375 12.5703 31.3047 12.957 31.3047 13.5898C31.3047 14.2109 31.9375 14.5977 32.8984 14.5977C33.8477 14.5977 34.4688 14.2109 34.4688 13.5898C34.4688 12.957 33.8477 12.5703 32.8984 12.5703Z" fill="#222222"/>
<path d="M41.1607 9.98047V11.4805H44.1959V9.98047H45.1099V14.5156H40.2584V9.98047H41.1607ZM41.1607 13.7656H44.1959V12.1953H41.1607V13.7656ZM47.9576 9.53516V11.7969H49.5279V12.5703H47.9576V14.9258H47.0435V9.53516H47.9576ZM47.9576 15.418V17.9375H42.2388V19.0859H48.3443V19.8359H41.3365V17.2344H47.0435V16.1562H41.3131V15.418H47.9576Z" fill="#222222"/>
<path d="M59.7355 15.4766V16.2383H57.216V19.9531H56.2902V16.2383H53.6183V19.9531H52.6691V16.2383H50.1964V15.4766H59.7355ZM54.9425 9.95703C57.1339 9.95703 58.6105 10.8359 58.6105 12.2305C58.6105 13.6133 57.1339 14.4922 54.9425 14.4805C52.7511 14.4922 51.2746 13.6133 51.2746 12.2305C51.2746 10.8359 52.7511 9.95703 54.9425 9.95703ZM54.9425 10.707C53.3136 10.707 52.2121 11.3047 52.2238 12.2305C52.2121 13.1562 53.3136 13.7422 54.9425 13.7422C56.5597 13.7422 57.673 13.1562 57.673 12.2305C57.673 11.3047 56.5597 10.707 54.9425 10.707Z" fill="#222222"/>
<path d="M64.014 19.0039L64.0023 18.2305L66.8968 15.1836C67.9046 14.1172 68.3851 13.543 68.3851 12.7578C68.3851 11.8906 67.6468 11.3164 66.6976 11.3164C65.6898 11.3164 65.0452 11.9609 65.0452 12.9102H64.0491C64.0374 11.4102 65.1976 10.4023 66.7327 10.4023C68.2679 10.4023 69.3694 11.4336 69.3694 12.7578C69.3694 13.707 68.9241 14.4453 67.4241 15.9922L65.4788 17.9961V18.0664H69.5218V19.0039H64.014Z" fill="#222222"/>
<path d="M73.8583 19.1211C71.9716 19.1211 70.8934 17.5391 70.8934 14.7617C70.8934 12.0078 71.995 10.4023 73.8583 10.4023C75.7216 10.4023 76.8231 12.0078 76.8231 14.7617C76.8231 17.5391 75.7333 19.1211 73.8583 19.1211ZM73.8583 18.1836C75.077 18.1836 75.7919 16.9531 75.7919 14.7617C75.7919 12.5703 75.077 11.3164 73.8583 11.3164C72.6395 11.3164 71.913 12.5703 71.913 14.7617C71.913 16.9531 72.6278 18.1836 73.8583 18.1836Z" fill="#222222"/>
<path d="M80.0463 14.457C78.9448 14.457 78.3471 13.6367 78.3471 12.418C78.3471 11.2227 78.9682 10.3906 80.0463 10.3906C81.1596 10.3906 81.7456 11.2227 81.7456 12.418C81.7456 13.6367 81.1362 14.457 80.0463 14.457ZM80.0463 13.7305C80.6206 13.7305 80.8901 13.2148 80.8901 12.418C80.8901 11.6328 80.644 11.1055 80.0463 11.1172C79.4838 11.1172 79.2026 11.6328 79.2026 12.418C79.2026 13.2148 79.4838 13.7305 80.0463 13.7305ZM85.226 19.1211C84.1245 19.1328 83.5151 18.3008 83.5268 17.0938C83.5151 15.8867 84.1479 15.0547 85.226 15.0547C86.3276 15.0547 86.9135 15.8867 86.9135 17.0938C86.9135 18.3008 86.3042 19.1328 85.226 19.1211ZM85.226 18.3945C85.7885 18.3945 86.0581 17.8789 86.0581 17.0938C86.0581 16.2969 85.812 15.7695 85.226 15.7812C84.6635 15.793 84.3706 16.2969 84.3706 17.0938C84.3706 17.8789 84.6518 18.3945 85.226 18.3945ZM79.1792 19.0039L85.0151 10.5195H85.9643L80.1284 19.0039H79.1792Z" fill="#222222"/>
<path d="M19.2921 7.23L19.3018 7.22L15.6945 3.5L14.6667 4.56L16.7127 6.67C15.8012 7.03 15.1515 7.93 15.1515 9C15.1515 10.38 16.2376 11.5 17.5758 11.5C17.9248 11.5 18.2448 11.42 18.5455 11.29V18.5C18.5455 19.05 18.1091 19.5 17.5758 19.5C17.0424 19.5 16.6061 19.05 16.6061 18.5V14C16.6061 12.9 15.7333 12 14.6667 12H13.697V5C13.697 3.9 12.8242 3 11.7576 3H5.93939C4.87273 3 4 3.9 4 5V21H13.697V13.5H15.1515V18.5C15.1515 19.88 16.2376 21 17.5758 21C18.9139 21 20 19.88 20 18.5V9C20 8.31 19.7285 7.68 19.2921 7.23ZM11.7576 10H5.93939V5H11.7576V10ZM17.5758 10C17.0424 10 16.6061 9.55 16.6061 9C16.6061 8.45 17.0424 8 17.5758 8C18.1091 8 18.5455 8.45 18.5455 9C18.5455 9.55 18.1091 10 17.5758 10Z" fill="#91969D"/>
<path fill-rule="evenodd" clip-rule="evenodd" d="M20 17H18.5455V18.5C18.5455 19.05 18.1091 19.5 17.5758 19.5C17.0424 19.5 16.6061 19.05 16.6061 18.5V17H15.1515V18.5C15.1515 19.88 16.2376 21 17.5758 21C18.9139 21 20 19.88 20 18.5V17ZM13.697 21V17H4V21H13.697Z" fill="#FFE142"/>
</svg>
