<svg width="115" height="11" viewBox="0 0 115 11" fill="none" xmlns="http://www.w3.org/2000/svg">
<path d="M3.54549 1.70184C3.54549 3.13185 4.63278 4.44368 6.15734 4.96369L5.64915 5.69642C4.49096 5.27096 3.57504 4.40232 3.11412 3.30322C2.66503 4.55005 1.72547 5.51324 0.496369 5.99188L0 5.24733C1.57183 4.66232 2.62957 3.25594 2.63548 1.63093V0.543642H3.54549V1.70184ZM1.39456 8.56827C1.40047 7.36871 2.71821 6.66552 4.88096 6.66552C7.0378 6.66552 8.34372 7.36871 8.34372 8.56827C8.34372 9.79147 7.0378 10.4828 4.88096 10.4828C2.71821 10.4828 1.40047 9.79147 1.39456 8.56827ZM2.32821 8.56827C2.31639 9.31283 3.29731 9.74419 4.88096 9.7501C6.47052 9.74419 7.43962 9.31283 7.44553 8.56827C7.43962 7.85326 6.47052 7.41008 4.88096 7.41008C3.29731 7.41008 2.31639 7.85326 2.32821 8.56827ZM7.32735 6.3937V0H8.24918V2.74185H9.83283V3.52186H8.24918V6.3937H7.32735Z" fill="#222222" fill-opacity="0.4"/>
<path d="M15.1044 1.21729V1.97366H11.8307V3.99459H14.9507V4.73914H11.8307V7.11462C13.3907 7.10871 14.3598 7.06144 15.5062 6.85462L15.5889 7.62281C14.3539 7.85917 13.3434 7.91236 11.618 7.90645H10.9443V1.21729H15.1044ZM16.2862 9.97465V0.224548H17.1844V4.23095H18.6262V0H19.5244V10.5065H18.6262V4.99914H17.1844V9.97465H16.2862Z" fill="#222222" fill-opacity="0.4"/>
<path d="M25.4409 0V10.9674H24.5663V0H25.4409Z" fill="#222222" fill-opacity="0.4"/>
<path d="M34.5173 5.48369C34.5173 6.59765 33.6143 7.50069 32.5003 7.50069C31.3864 7.50069 30.4834 6.59765 30.4834 5.48369C30.4834 4.36974 31.3864 3.4667 32.5003 3.4667C33.6143 3.4667 34.5173 4.36974 34.5173 5.48369Z" fill="#38DD66"/>
<path d="M40.2098 3.09246C40.2098 4.94202 41.433 6.85068 42.928 7.58341L42.3607 8.32797C41.2026 7.72523 40.2335 6.4784 39.7666 5.01884C39.2998 6.56704 38.3071 7.8966 37.1252 8.52888L36.5343 7.78432C38.0707 7.02795 39.288 5.01293 39.2998 3.09246V1.17789H40.2098V3.09246ZM43.8971 10.7744V0.267882H44.819V4.53429H46.5799V5.33794H44.819V10.7744H43.8971Z" fill="#222222"/>
<path d="M56.7442 5.46794V6.23613H47.1714V5.46794H49.5468V3.98474C48.7077 3.65974 48.235 3.12791 48.235 2.41881C48.235 1.1838 49.6532 0.474702 51.9578 0.468793C54.2446 0.474702 55.6628 1.1838 55.6687 2.41881C55.6628 3.122 55.196 3.65383 54.3687 3.98474V5.46794H56.7442ZM48.3296 8.89525C48.3237 7.69569 49.6768 7.03386 51.9578 7.03977C54.2092 7.03386 55.5624 7.69569 55.5742 8.89525C55.5624 10.0948 54.2092 10.7507 51.9578 10.7507C49.6768 10.7507 48.3237 10.0948 48.3296 8.89525ZM49.1923 2.41881C49.1864 3.187 50.2382 3.63019 51.9578 3.6361C53.6596 3.63019 54.7174 3.187 54.7233 2.41881C54.7174 1.66244 53.6596 1.20153 51.9578 1.20153C50.2382 1.20153 49.1864 1.66244 49.1923 2.41881ZM49.275 8.89525C49.2632 9.61025 50.2737 10.0357 51.9578 10.0298C53.6242 10.0357 54.6346 9.61025 54.6405 8.89525C54.6346 8.18024 53.6242 7.76069 51.9578 7.74887C50.2737 7.76069 49.2632 8.18024 49.275 8.89525ZM50.4687 5.46794H53.4469V4.23292C53.0037 4.31565 52.5073 4.35702 51.9578 4.35702C51.4082 4.35702 50.9119 4.31565 50.4687 4.23883V5.46794Z" fill="#222222"/>
<path d="M68.8473 0.267882V4.54611H70.5491V5.32612H68.8473V10.7744H67.9254V0.267882H68.8473ZM60.7872 8.04433C63.4995 6.69704 64.9768 4.6702 65.1895 2.18245H61.2717V1.40244H66.1291C66.1232 4.37474 64.7286 7.08704 61.3072 8.77706L60.7872 8.04433Z" fill="#222222"/>
<path d="M79.6852 3.21064V3.97883H72.5115V0.480611H73.4333V3.21064H79.6852ZM71.1997 5.97612V5.20793H80.7843V5.97612H71.1997ZM72.3579 8.82434C72.352 7.60114 73.717 6.91568 75.9861 6.92159C78.2375 6.91568 79.5907 7.60114 79.6025 8.82434C79.5907 10.0416 78.2375 10.7271 75.9861 10.7271C73.717 10.7271 72.352 10.0416 72.3579 8.82434ZM73.3033 8.82434C73.2915 9.55707 74.302 10.0003 75.9861 10.0062C77.6525 10.0003 78.6629 9.55707 78.6689 8.82434C78.6629 8.07978 77.6525 7.66023 75.9861 7.65432C74.302 7.66023 73.2915 8.07978 73.3033 8.82434Z" fill="#222222"/>
<path d="M89.8968 0.267882V2.96246H91.4805V3.75428H89.8968V6.37795H88.975V0.267882H89.8968ZM81.7067 2.12336V1.35517H84.3777V0.173335H85.2995V1.35517H87.9704V2.12336H81.7067ZM82.3095 4.45156C82.3036 3.32882 83.314 2.61382 84.8386 2.60791C86.3454 2.61382 87.3559 3.32882 87.3677 4.45156C87.3559 5.5743 86.3454 6.30113 84.8386 6.29522C83.314 6.30113 82.3036 5.5743 82.3095 4.45156ZM83.1958 4.45156C83.1899 5.13702 83.8458 5.58612 84.8386 5.58612C85.8195 5.58612 86.4813 5.13702 86.4931 4.45156C86.4813 3.77201 85.8195 3.317 84.8386 3.32882C83.8458 3.317 83.1899 3.77201 83.1958 4.45156ZM83.2549 10.6325V6.83886H84.1768V7.9616H88.975V6.83886H89.8968V10.6325H83.2549ZM84.1768 9.88798H88.975V8.69433H84.1768V9.88798Z" fill="#222222"/>
<path d="M100.829 0.267882V10.7744H99.9075V0.267882H100.829ZM92.852 8.06796V1.30789H93.762V7.26432C95.3693 7.2525 97.0238 7.12841 98.7847 6.75613L98.9148 7.54796C97.0475 7.93796 95.387 8.06796 93.7029 8.06796H92.852Z" fill="#222222"/>
<path d="M110.781 0.267882V4.42793H112.542V5.20793H110.781V10.798H109.859V0.267882H110.781ZM103.111 8.16251V1.29607H108.015V2.06426H104.033V7.3825C105.935 7.37659 107.277 7.29386 108.843 7.00432L108.961 7.80796C107.312 8.10342 105.935 8.16251 103.938 8.16251H103.111Z" fill="#222222"/>
<path d="M114.244 9.88798C113.831 9.88207 113.476 9.53934 113.488 9.11979C113.476 8.70615 113.831 8.36342 114.244 8.36342C114.664 8.36342 115.007 8.70615 115.001 9.11979C115.007 9.53934 114.664 9.88207 114.244 9.88798Z" fill="#222222"/>
</svg>
