<svg width="360" height="68" viewBox="0 0 360 68" fill="none" xmlns="http://www.w3.org/2000/svg">
<rect width="360" height="68" fill="#FFE142" fill-opacity="0.2"/>
<path d="M17.4609 30.791V17.6797H20.6602V18.8281H18.8555V29.6289H20.6602V30.791H17.4609Z" fill="#222222"/>
<path d="M27.0046 24.6113C29.6569 24.6113 31.3317 25.4521 31.3385 26.8809C31.3317 28.3027 29.6569 29.1436 27.0046 29.1367C24.3796 29.1436 22.6979 28.3027 22.6979 26.8809C22.6979 25.4521 24.3796 24.6113 27.0046 24.6113ZM21.4948 23.5996V22.5469H25.9655V20.25H27.237V22.5469H32.6374V23.5996H21.4948ZM22.7936 18.5547V17.5156H31.2428V18.541C31.2497 19.5186 31.2497 20.5303 30.901 21.7949L29.6296 21.6582C29.9577 20.4072 29.9577 19.5049 29.9577 18.5547H22.7936ZM23.9967 26.8809C23.9831 27.6738 25.152 28.1318 27.0046 28.1387C28.8776 28.1318 30.0397 27.6738 30.0534 26.8809C30.0397 26.0742 28.8776 25.6025 27.0046 25.5957C25.152 25.6025 23.9831 26.0742 23.9967 26.8809Z" fill="#222222"/>
<path d="M38.1205 20.5234C38.1136 22.5742 39.4603 24.6934 41.347 25.5L40.6361 26.5117C39.1937 25.876 38.0453 24.5225 37.4779 22.8887C36.9105 24.6387 35.7621 26.1289 34.3333 26.8262L33.5814 25.8008C35.4271 24.9326 36.7943 22.6357 36.808 20.5234V19.2246H34.0052V18.1445H40.9095V19.2246H38.1205V20.5234ZM42.4544 29.1641V16.9141H43.7533V29.1641H42.4544Z" fill="#222222"/>
<path d="M48.8262 30.791H45.627V29.6289H47.4317V18.8281H45.627V17.6797H48.8262V30.791Z" fill="#222222"/>
<path d="M64.7279 16.9141V29.1641H63.4837V16.9141H64.7279ZM54.0365 25.7871C55.7728 24.7412 56.6546 22.5127 56.6615 20.332V19.3477H54.4056V18.2949H60.0111V19.3477H57.9056V20.332C57.9056 22.4238 58.7533 24.5225 60.4759 25.5137L59.6966 26.4707C58.5277 25.7734 57.7279 24.5225 57.2972 23.0459C56.8597 24.6455 56.0257 26.0127 54.8295 26.7578L54.0365 25.7871ZM59.1087 22.3145V21.248H61.0091V17.1738H62.2396V28.5488H61.0091V22.3145H59.1087Z" fill="#222222"/>
<path d="M76.0899 17.4199V21.6172H72.5625V23.0391H77.5117V24.0918H66.3418V23.0391H71.2774V21.6172H67.7637V17.4199H76.0899ZM67.586 26.2793V25.2539H76.1446V29.1641H74.8321V26.2793H67.586ZM69.0352 20.5781H74.8047V18.4453H69.0352V20.5781Z" fill="#222222"/>
<path d="M92.4291 16.9141V29.1641H91.1849V16.9141H92.4291ZM81.7377 25.7871C83.474 24.7412 84.3558 22.5127 84.3627 20.332V19.3477H82.1068V18.2949H87.7123V19.3477H85.6068V20.332C85.6068 22.4238 86.4545 24.5225 88.1771 25.5137L87.3978 26.4707C86.2289 25.7734 85.4291 24.5225 84.9984 23.0459C84.5609 24.6455 83.7269 26.0127 82.5306 26.7578L81.7377 25.7871ZM86.8099 22.3145V21.248H88.7103V17.1738H89.9408V28.5488H88.7103V22.3145H86.8099Z" fill="#222222"/>
<path d="M103.791 17.4199V21.6172H100.264V23.0391H105.213V24.0918H94.043V23.0391H98.9786V21.6172H95.4649V17.4199H103.791ZM95.2872 26.2793V25.2539H103.846V29.1641H102.533V26.2793H95.2872ZM96.7364 20.5781H102.506V18.4453H96.7364V20.5781Z" fill="#222222"/>
<path d="M120.13 16.9141V29.1641H118.886V16.9141H120.13ZM109.439 25.7871C111.175 24.7412 112.057 22.5127 112.064 20.332V19.3477H109.808V18.2949H115.413V19.3477H113.308V20.332C113.308 22.4238 114.156 24.5225 115.878 25.5137L115.099 26.4707C113.93 25.7734 113.13 24.5225 112.7 23.0459C112.262 24.6455 111.428 26.0127 110.232 26.7578L109.439 25.7871ZM114.511 22.3145V21.248H116.412V17.1738H117.642V28.5488H116.412V22.3145H114.511Z" fill="#222222"/>
<path d="M131.492 17.4199V21.6172H127.965V23.0391H132.914V24.0918H121.744V23.0391H126.68V21.6172H123.166V17.4199H131.492ZM122.988 26.2793V25.2539H131.547V29.1641H130.234V26.2793H122.988ZM124.438 20.5781H130.207V18.4453H124.438V20.5781Z" fill="#222222"/>
<path d="M147.831 16.9141V29.1641H146.587V16.9141H147.831ZM137.14 25.7871C138.876 24.7412 139.758 22.5127 139.765 20.332V19.3477H137.509V18.2949H143.115V19.3477H141.009V20.332C141.009 22.4238 141.857 24.5225 143.579 25.5137L142.8 26.4707C141.631 25.7734 140.831 24.5225 140.401 23.0459C139.963 24.6455 139.129 26.0127 137.933 26.7578L137.14 25.7871ZM142.212 22.3145V21.248H144.113V17.1738H145.343V28.5488H144.113V22.3145H142.212Z" fill="#222222"/>
<path d="M159.193 17.4199V21.6172H155.666V23.0391H160.615V24.0918H149.445V23.0391H154.381V21.6172H150.867V17.4199H159.193ZM150.69 26.2793V25.2539H159.248V29.1641H157.936V26.2793H150.69ZM152.139 20.5781H157.908V18.4453H152.139V20.5781Z" fill="#222222"/>
<path d="M175.533 16.9141V29.1641H174.288V16.9141H175.533ZM164.841 25.7871C166.578 24.7412 167.459 22.5127 167.466 20.332V19.3477H165.21V18.2949H170.816V19.3477H168.71V20.332C168.71 22.4238 169.558 24.5225 171.281 25.5137L170.501 26.4707C169.332 25.7734 168.533 24.5225 168.102 23.0459C167.664 24.6455 166.83 26.0127 165.634 26.7578L164.841 25.7871ZM169.913 22.3145V21.248H171.814V17.1738H173.044V28.5488H171.814V22.3145H169.913Z" fill="#222222"/>
<path d="M186.895 17.4199V21.6172H183.367V23.0391H188.316V24.0918H177.147V23.0391H182.082V21.6172H178.568V17.4199H186.895ZM178.391 26.2793V25.2539H186.949V29.1641H185.637V26.2793H178.391ZM179.84 20.5781H185.609V18.4453H179.84V20.5781Z" fill="#222222"/>
<path d="M203.234 16.9141V29.1641H201.99V16.9141H203.234ZM192.542 25.7871C194.279 24.7412 195.161 22.5127 195.167 20.332V19.3477H192.912V18.2949H198.517V19.3477H196.412V20.332C196.412 22.4238 197.259 24.5225 198.982 25.5137L198.203 26.4707C197.034 25.7734 196.234 24.5225 195.803 23.0459C195.366 24.6455 194.532 26.0127 193.335 26.7578L192.542 25.7871ZM197.615 22.3145V21.248H199.515V17.1738H200.746V28.5488H199.515V22.3145H197.615Z" fill="#222222"/>
<path d="M214.596 17.4199V21.6172H211.068V23.0391H216.018V24.0918H204.848V23.0391H209.783V21.6172H206.27V17.4199H214.596ZM206.092 26.2793V25.2539H214.65V29.1641H213.338V26.2793H206.092ZM207.541 20.5781H213.311V18.4453H207.541V20.5781Z" fill="#222222"/>
<path d="M16.793 48L16.7812 47.2266L19.6758 44.1797C20.6777 43.1133 21.1582 42.5391 21.1641 41.7539C21.1582 40.8809 20.4316 40.3184 19.4766 40.3125C18.4629 40.3184 17.8301 40.957 17.8242 41.9062H16.8281C16.8164 40.4062 17.9766 39.3984 19.5117 39.3984C21.0527 39.3984 22.1426 40.4355 22.1484 41.7539C22.1426 42.7031 21.7031 43.4414 20.2031 44.9883L18.2578 46.9922V47.0625H22.3008V48H16.793Z" fill="#222222" fill-opacity="0.4"/>
<path d="M26.6373 48.1172C24.7564 48.1172 23.6666 46.5352 23.6724 43.7578C23.6666 41.0039 24.7681 39.3984 26.6373 39.3984C28.5006 39.3984 29.6021 41.0039 29.6021 43.7578C29.6021 46.5352 28.5181 48.1172 26.6373 48.1172ZM24.692 43.7578C24.6978 45.9551 25.4068 47.1797 26.6373 47.1797C27.8619 47.1797 28.5767 45.9551 28.5709 43.7578C28.5767 41.5605 27.856 40.3184 26.6373 40.3125C25.4185 40.3184 24.6978 41.5605 24.692 43.7578Z" fill="#222222" fill-opacity="0.4"/>
<path d="M31.0324 48L31.0207 47.2266L33.9152 44.1797C34.9171 43.1133 35.3976 42.5391 35.4035 41.7539C35.3976 40.8809 34.671 40.3184 33.716 40.3125C32.7023 40.3184 32.0695 40.957 32.0636 41.9062H31.0675C31.0558 40.4062 32.216 39.3984 33.7511 39.3984C35.2921 39.3984 36.382 40.4355 36.3878 41.7539C36.382 42.7031 35.9425 43.4414 34.4425 44.9883L32.4972 46.9922V47.0625H36.5402V48H31.0324Z" fill="#222222" fill-opacity="0.4"/>
<path d="M41.029 48.1172C39.3415 48.1172 38.1286 47.2148 38.0759 45.8672H39.1423C39.2009 46.6758 40.0036 47.1797 41.0173 47.1797C42.1365 47.1797 42.945 46.5762 42.9509 45.6914C42.945 44.7656 42.2068 44.1152 40.8884 44.1094H40.197V43.1836H40.8884C41.9197 43.1836 42.6404 42.6035 42.6345 41.7305C42.6404 40.8809 42.0193 40.3184 41.0525 40.3125C40.1443 40.3184 39.3181 40.8164 39.2712 41.6484H38.2517C38.3044 40.3008 39.5583 39.3984 41.0642 39.3984C42.6814 39.3984 43.6658 40.459 43.654 41.6719C43.6658 42.6387 43.1033 43.3418 42.2126 43.5938V43.6523C43.32 43.8223 43.988 44.6133 43.9822 45.6914C43.988 47.0859 42.7224 48.1172 41.029 48.1172Z" fill="#222222" fill-opacity="0.4"/>
<path d="M45.9866 48.0703C45.5765 48.0645 45.2249 47.7246 45.2366 47.3086C45.2249 46.8984 45.5765 46.5586 45.9866 46.5586C46.4026 46.5586 46.7425 46.8984 46.7366 47.3086C46.7425 47.7246 46.4026 48.0645 45.9866 48.0703Z" fill="#222222" fill-opacity="0.4"/>
<path d="M50.8036 48.1172C48.9227 48.1172 47.8329 46.5352 47.8388 43.7578C47.8329 41.0039 48.9345 39.3984 50.8036 39.3984C52.6669 39.3984 53.7684 41.0039 53.7684 43.7578C53.7684 46.5352 52.6845 48.1172 50.8036 48.1172ZM48.8583 43.7578C48.8641 45.9551 49.5731 47.1797 50.8036 47.1797C52.0282 47.1797 52.743 45.9551 52.7372 43.7578C52.743 41.5605 52.0223 40.3184 50.8036 40.3125C49.5848 40.3184 48.8641 41.5605 48.8583 43.7578Z" fill="#222222" fill-opacity="0.4"/>
<path d="M58.0346 48.1172C56.2475 48.1172 55.017 47.127 55.0229 45.75C55.017 44.6543 55.7788 43.7461 56.7456 43.5938V43.5469C55.9018 43.3535 55.3452 42.5742 55.351 41.6484C55.3452 40.3535 56.4819 39.3984 58.0346 39.3984C59.5815 39.3984 60.7182 40.3535 60.7299 41.6484C60.7182 42.5742 60.1557 43.3535 59.3237 43.5469V43.5938C60.2846 43.7461 61.0463 44.6543 61.0581 45.75C61.0463 47.127 59.8042 48.1172 58.0346 48.1172ZM56.0776 45.6914C56.06 46.582 56.8159 47.1855 58.0346 47.1914C59.2475 47.1855 60.0034 46.582 60.0034 45.6914C60.0034 44.7539 59.1772 44.0625 58.0346 44.0625C56.8979 44.0625 56.06 44.7539 56.0776 45.6914ZM56.3706 41.7305C56.3764 42.5859 57.062 43.166 58.0346 43.1719C59.0014 43.166 59.6987 42.5859 59.6987 41.7305C59.6987 40.8809 59.0249 40.3066 58.0346 40.3125C57.0268 40.3066 56.3764 40.8809 56.3706 41.7305Z" fill="#222222" fill-opacity="0.4"/>
<path d="M62.9571 48.0703C62.5469 48.0645 62.1953 47.7246 62.2071 47.3086C62.1953 46.8984 62.5469 46.5586 62.9571 46.5586C63.3731 46.5586 63.7129 46.8984 63.7071 47.3086C63.7129 47.7246 63.3731 48.0645 62.9571 48.0703Z" fill="#222222" fill-opacity="0.4"/>
<path d="M65.3014 48L65.2897 47.2266L68.1842 44.1797C69.1861 43.1133 69.6666 42.5391 69.6725 41.7539C69.6666 40.8809 68.94 40.3184 67.985 40.3125C66.9713 40.3184 66.3385 40.957 66.3326 41.9062H65.3365C65.3248 40.4062 66.485 39.3984 68.0201 39.3984C69.5611 39.3984 70.651 40.4355 70.6568 41.7539C70.651 42.7031 70.2115 43.4414 68.7115 44.9883L66.7662 46.9922V47.0625H70.8092V48H65.3014Z" fill="#222222" fill-opacity="0.4"/>
<path d="M75.298 48.1172C73.6105 48.1172 72.3976 47.2148 72.3449 45.8672H73.4113C73.4699 46.6758 74.2726 47.1797 75.2863 47.1797C76.4055 47.1797 77.214 46.5762 77.2199 45.6914C77.214 44.7656 76.4758 44.1152 75.1574 44.1094H74.466V43.1836H75.1574C76.1887 43.1836 76.9094 42.6035 76.9035 41.7305C76.9094 40.8809 76.2883 40.3184 75.3215 40.3125C74.4133 40.3184 73.5871 40.8164 73.5402 41.6484H72.5207C72.5734 40.3008 73.8273 39.3984 75.3332 39.3984C76.9504 39.3984 77.9347 40.459 77.923 41.6719C77.9347 42.6387 77.3722 43.3418 76.4816 43.5938V43.6523C77.589 43.8223 78.257 44.6133 78.2512 45.6914C78.257 47.0859 76.9914 48.1172 75.298 48.1172Z" fill="#222222" fill-opacity="0.4"/>
<path fill-rule="evenodd" clip-rule="evenodd" d="M344 68H15V67H344V68Z" fill="#A4A8AF" fill-opacity="0.2"/>
</svg>
