<svg width="68" height="15" viewBox="0 0 68 15" fill="none" xmlns="http://www.w3.org/2000/svg">
<path d="M5.08779 1.4334V6.86773H1.93746V9.30924C3.33936 9.29349 4.65462 9.22261 6.14315 8.94695L6.31642 10.5851C4.4341 10.9317 2.82743 10.9632 1.02386 10.9789H0.0157517V5.27681H3.15034V3.02432H0V1.4334H5.08779ZM5.68636 6.5212V4.89877H7.15126V0.267779H9.02571V13.641H7.15126V6.5212H5.68636ZM10.0968 14.334V0H12.0028V14.334H10.0968Z" fill="#222222"/>
<path d="M25.5815 0V14.3655H23.5495V0H25.5815ZM14.004 6.11165C13.9961 2.98494 15.5949 1.00811 17.8002 1.00811C19.9581 1.00811 21.5648 2.98494 21.5648 6.11165C21.5648 9.26199 19.9581 11.2309 17.8002 11.2309C15.5949 11.2309 13.9961 9.26199 14.004 6.11165ZM15.9415 6.11165C15.9336 8.246 16.6818 9.41163 17.8002 9.40375C18.887 9.41163 19.6195 8.246 19.6273 6.11165C19.6195 3.98517 18.887 2.81955 17.8002 2.81955C16.6818 2.81955 15.9336 3.98517 15.9415 6.11165Z" fill="#222222"/>
<path d="M35.9949 13.0424C33.4903 13.0424 31.6946 11.6641 31.6474 9.67153H34.0416C34.081 10.5221 34.908 11.0813 36.0106 11.0892C37.1447 11.0813 37.9559 10.4512 37.9481 9.52977C37.9559 8.60042 37.129 7.94672 35.7901 7.93885H34.7347V6.19041H35.7901C36.9163 6.19041 37.7039 5.57609 37.696 4.67825C37.7039 3.80403 37.0345 3.20547 36.0264 3.21334C35.0183 3.20547 34.1913 3.77253 34.1519 4.64675H31.8837C31.923 2.68566 33.6872 1.32314 36.0264 1.32314C38.4049 1.32314 39.9879 2.73292 39.98 4.53648C39.9879 5.81237 39.0979 6.71809 37.8221 6.94649V7.041C39.4996 7.24577 40.4211 8.26176 40.4053 9.68728C40.4211 11.6405 38.5703 13.0424 35.9949 13.0424Z" fill="#222222"/>
<path d="M46.2342 3.60713C46.2263 5.93051 46.8721 8.32476 48.8332 9.57702L47.7464 11.1364C46.502 10.3882 45.7223 9.14385 45.2655 7.67894C44.7535 9.30137 43.8951 10.6639 42.5956 11.4515L41.3669 9.97081C43.4934 8.65555 44.281 6.1274 44.281 3.70164V1.22863H46.2342V3.60713ZM47.3211 6.47394V4.83577H49.1798V0.204772H51.0542V13.6725H49.1798V6.47394H47.3211ZM52.1411 14.334V0H54.0628V14.334H52.1411Z" fill="#222222"/>
<path d="M68.0038 0V14.334H66.0978V7.13551H64.7117V13.641H62.8687V0.236275H64.7117V5.52884H66.0978V0H68.0038ZM56.0168 11.0892V1.65393H61.3566V3.27635H58.033V9.40375C59.4191 9.38013 60.6477 9.30137 62.0339 9.05722L62.1757 10.6954C60.4272 11.0262 58.8993 11.0813 57.0091 11.0892H56.0168Z" fill="#222222"/>
</svg>
