<svg width="41" height="15" viewBox="0 0 41 15" fill="none" xmlns="http://www.w3.org/2000/svg">
<path d="M13.0955 7.07439V8.66219H7.70322V11.1304H5.72239V8.66219H0V7.07439H13.0955ZM1.54064 14.0544V9.88842H3.53719V12.4509H11.6492V14.0544H1.54064ZM1.63497 5.89532V0.628834H11.4133V5.89532H1.63497ZM3.60008 4.33896H9.44824V2.1852H3.60008V4.33896Z" fill="#222222"/>
<path d="M22.0571 0.833206V2.43673H19.2116C19.2274 4.07956 20.2414 5.73025 22.5602 6.42983L21.5541 8.03336C19.9662 7.53029 18.8579 6.53202 18.2212 5.27435C17.5767 6.68137 16.4212 7.80541 14.7469 8.34778L13.7093 6.74425C16.0832 6.00537 17.1444 4.22105 17.1837 2.43673H14.2596V0.833206H22.0571ZM15.9574 14.1488V8.86656H25.3113V14.1488H15.9574ZM17.9383 12.5452H23.3305V10.4387H17.9383V12.5452ZM23.2991 8.30061V0H25.3113V3.2385H27.245V4.87347H25.3113V8.30061H23.2991Z" fill="#222222"/>
<path d="M39.4451 0.644555V1.79218C39.453 2.90836 39.453 4.14245 39.1071 5.78528H41.0015V7.40452H27.906V5.78528H37.087C37.3936 4.36254 37.4329 3.25422 37.4486 2.24808H29.5096V0.644555H39.4451ZM29.4624 14.1488V8.91373H39.398V14.1488H29.4624ZM31.4275 12.5452H37.4014V10.4858H31.4275V12.5452Z" fill="#222222"/>
</svg>
