<svg width="83" height="15" viewBox="0 0 83 15" fill="none" xmlns="http://www.w3.org/2000/svg">
<path d="M11.6135 0V14.4101H9.57521V0H11.6135ZM3.80803 1.01123C5.9727 1.01123 7.58435 3.00209 7.58435 6.13059C7.58435 9.29069 5.9727 11.2658 3.80803 11.2658C1.59597 11.2658 -0.0156853 9.29069 0.00011517 6.13059C-0.0156853 3.00209 1.59597 1.01123 3.80803 1.01123ZM3.80803 2.82829C2.6862 2.82829 1.94358 3.99753 1.94358 6.13059C1.94358 8.27946 2.6862 9.4329 3.80803 9.4329C4.89827 9.4329 5.64089 8.27946 5.64089 6.13059C5.64089 3.99753 4.89827 2.82829 3.80803 2.82829Z" fill="#222222" fill-opacity="0.4"/>
<path d="M26.7037 6.81001V8.42166H13.5893V6.81001H16.544V5.08776C15.4933 4.62164 14.9007 3.91062 14.9007 2.98629C14.9007 1.24824 16.939 0.205406 20.1465 0.205406C23.3224 0.205406 25.3607 1.24824 25.3765 2.98629C25.3686 3.91852 24.7523 4.64535 23.6858 5.10356V6.81001H26.7037ZM20.1307 9.18009C23.2434 9.18009 25.1237 10.0965 25.1395 11.7556C25.1237 13.4462 23.2434 14.3626 20.1307 14.3626C16.9706 14.3626 15.0903 13.4462 15.0903 11.7556C15.0903 10.0965 16.9706 9.18009 20.1307 9.18009ZM20.1307 10.6969C18.1398 10.6969 17.1286 11.0445 17.1444 11.7556C17.1286 12.4982 18.1398 12.8616 20.1307 12.8616C22.0742 12.8616 23.1012 12.4982 23.117 11.7556C23.1012 11.0445 22.0742 10.6969 20.1307 10.6969ZM20.1465 1.75385C18.1082 1.75385 16.9864 2.18047 17.0022 2.98629C16.9864 3.77632 18.1082 4.17133 20.1465 4.17133C22.1532 4.17133 23.2908 3.77632 23.2908 2.98629C23.2908 2.18047 22.1532 1.75385 20.1465 1.75385ZM18.5823 6.81001H21.6792V5.60918C21.2051 5.66448 20.6916 5.68818 20.1465 5.68818C19.5856 5.68818 19.0642 5.66448 18.5823 5.59338V6.81001Z" fill="#222222" fill-opacity="0.4"/>
<path d="M33.1985 3.2549C33.1985 5.89358 34.3993 8.54807 36.8326 9.5751L35.6475 11.1868C34.0043 10.4441 32.8667 9.01418 32.2188 7.23663C31.5631 9.17219 30.386 10.7364 28.6321 11.5344L27.4155 9.85951C29.9278 8.80088 31.1444 6.05159 31.1602 3.2549V1.10603H33.1985V3.2549ZM39.6451 0V14.4101H37.6068V0H39.6451Z" fill="#222222" fill-opacity="0.4"/>
<path d="M49.7898 0.837426V2.44908H46.9299C46.9457 4.13183 47.9411 5.85408 50.2796 6.60461L49.2525 8.16886C47.6567 7.65534 46.5586 6.62831 45.9344 5.34057C45.2945 6.74681 44.149 7.86075 42.4741 8.40586L41.3997 6.85741C43.7777 6.09109 44.86 4.25033 44.8916 2.44908H41.9527V0.837426H49.7898ZM53.0289 0V3.49191H54.9723V5.16676H53.0289V8.67447H51.0064V0H53.0289ZM53.0289 9.29069V14.3785H51.0064V10.8865H43.3431V9.29069H53.0289Z" fill="#222222" fill-opacity="0.4"/>
<path d="M61.2301 3.2549C61.2301 5.89358 62.4309 8.54807 64.8642 9.5751L63.6791 11.1868C62.0359 10.4441 60.8983 9.01418 60.2504 7.23663C59.5947 9.17219 58.4176 10.7364 56.6637 11.5344L55.4471 9.85951C57.9594 8.80088 59.176 6.05159 59.1918 3.2549V1.10603H61.2301V3.2549ZM67.6767 0V14.4101H65.6384V0H67.6767Z" fill="#222222" fill-opacity="0.4"/>
<path d="M81.0605 0V4.02913H83.0039V5.68818H81.0605V10.3019H79.0222V0H81.0605ZM77.1419 1.07443C77.1419 4.96136 74.7087 7.67904 70.3951 8.89568L69.5577 7.29983C72.7731 6.3992 74.598 4.73225 74.9299 2.71769H70.1897V1.07443H77.1419ZM81.5503 12.514V14.1256H71.7066V9.24329H73.7448V12.514H81.5503Z" fill="#222222" fill-opacity="0.4"/>
</svg>
