<svg xmlns="http://www.w3.org/2000/svg" width="193" height="38" fill="none" viewBox="0 0 193 38"><path fill="#222" d="m11.267 24.58.2 10.656c.032.971-.117 1.591-.45 1.86-.298.267-.763.401-1.395.401H2.496c-.764 0-1.279-.15-1.545-.452-.265-.302-.415-.938-.448-1.91L.005 3.167c-.034-.972.116-1.642.448-2.01.365-.403.98-.604 1.844-.604H21.98c.698 0 1.213.134 1.545.402.332.268.498.754.498 1.458v6.434c0 .67-.166 1.156-.498 1.457-.332.268-.847.402-1.545.402H11.018l.05 4.223h9.169c.698 0 1.213.134 1.545.402.332.268.498.754.498 1.457v5.932c0 .703-.166 1.19-.498 1.457-.332.268-.847.402-1.545.402h-8.97Zm27.1-7.038c2.093-.134 3.571-.52 4.435-1.156.864-.636 1.296-1.709 1.296-3.217 0-.837-.166-1.524-.499-2.06a3.141 3.141 0 0 0-1.245-1.307c-.532-.268-1.163-.42-1.894-.453a10.508 10.508 0 0 0-2.243.151l.15 8.042ZM27.005 4.825c-.034-.67-.05-1.206-.05-1.608.033-.436.133-.788.299-1.056.133-.234.382-.418.747-.553.4-.167.947-.351 1.645-.552C31.074.686 32.669.402 34.43.2a32.606 32.606 0 0 1 5.432-.15c1.827.1 3.605.401 5.332.904 1.728.47 3.273 1.173 4.635 2.111 1.328.972 2.392 2.212 3.189 3.72.83 1.508 1.246 3.35 1.246 5.529 0 1.675-.166 3.15-.499 4.423-.332 1.24-.78 2.329-1.345 3.267a12.344 12.344 0 0 1-2.043 2.463 15.116 15.116 0 0 1-2.492 1.86l4.934 7.841c.498.838.63 1.508.398 2.01-.232.47-.648.822-1.246 1.056l-5.232 1.96c-.93.37-1.628.42-2.093.152-.432-.235-.814-.637-1.146-1.207l-4.884-8.947v8.043c0 .87-.133 1.457-.399 1.759-.265.335-.764.502-1.495.502h-6.777c-.698 0-1.18-.167-1.445-.502-.266-.302-.416-.888-.449-1.76l-1.046-30.41Zm31.102-2.01c0-.871.133-1.458.398-1.76.3-.335.798-.502 1.495-.502h7.177c.73 0 1.212.167 1.445.503.266.301.415.888.448 1.759l.499 32.42c.033.872-.1 1.458-.4 1.76-.265.335-.763.502-1.494.502h-7.176c-.698 0-1.18-.167-1.445-.502-.266-.302-.416-.888-.449-1.76l-.498-32.42Zm26.701 21.01.1 3.519h9.568c.697 0 1.212.15 1.545.452.332.268.498.738.498 1.408v6.383c0 .704-.166 1.19-.498 1.458-.333.302-.848.452-1.545.452h-18.19c-.863 0-1.445-.2-1.744-.603-.299-.368-.465-1.055-.498-2.06l-.449-31.667c-.033-.972.117-1.642.449-2.01.365-.403.98-.604 1.844-.604H96.07c.698 0 1.213.134 1.545.402.333.268.499.754.499 1.458v6.434c0 .67-.166 1.156-.499 1.457-.332.268-.847.402-1.545.402H84.56l.05 2.966h9.717c.698 0 1.213.134 1.545.402.332.268.499.754.499 1.458v6.434c0 .703-.167 1.19-.499 1.457-.332.268-.847.402-1.545.402h-9.518Zm28.172-3.217.249 14.628c.033.804-.083 1.373-.349 1.708-.233.37-.748.553-1.545.553h-7.375c-.831 0-1.362-.184-1.595-.553-.199-.335-.316-.904-.349-1.709l-.498-32.068c-.033-.972.116-1.642.448-2.01.366-.403.98-.604 1.844-.604h6.13c.996 0 1.678.1 2.043.301.399.168.747.587 1.047 1.257l7.674 15.733V3.167c0-.972.166-1.642.498-2.01.332-.403.93-.604 1.794-.604h6.13c.864 0 1.462.201 1.794.603.332.369.498 1.039.498 2.01v31.667c0 1.006-.166 1.693-.498 2.061-.299.402-.881.603-1.744.603h-4.735c-.963 0-1.694-.184-2.192-.553-.499-.368-.997-1.005-1.495-1.91L112.98 20.61Zm23.157-17.291c0-.971.149-1.625.448-1.96.299-.368 1.014-.586 2.143-.653a51.659 51.659 0 0 1 6.03-.05c2.06.1 4.037.368 5.93.804a23.474 23.474 0 0 1 5.332 1.91 14.965 14.965 0 0 1 4.336 3.267c1.229 1.34 2.193 2.966 2.89 4.876.731 1.91 1.097 4.155 1.097 6.735 0 3.15-.565 5.931-1.695 8.344-1.129 2.38-2.774 4.373-4.933 5.981-2.193 1.609-4.884 2.815-8.073 3.62-3.19.837-6.844 1.256-10.964 1.256-1.428 0-2.143-.804-2.143-2.413l-.398-31.717ZM147.25 26.64c.93-.234 1.777-.52 2.541-.854a5.765 5.765 0 0 0 1.944-1.508c.531-.603.947-1.39 1.246-2.363.299-.971.448-2.211.448-3.72 0-1.273-.166-2.378-.498-3.317-.332-.938-.798-1.709-1.396-2.312a5.275 5.275 0 0 0-2.093-1.307c-.797-.301-1.661-.419-2.591-.352l.399 15.733Zm24.039-.2c.565.2 1.179.401 1.844.602.698.201 1.412.386 2.143.553a26.09 26.09 0 0 0 2.143.402c.731.1 1.412.151 2.043.151.664 0 1.179-.134 1.545-.402.365-.268.548-.687.548-1.257 0-.57-.266-1.055-.797-1.457-.532-.436-1.579-.989-3.14-1.659a99.17 99.17 0 0 1-3.787-1.76 13.933 13.933 0 0 1-3.19-2.311 9.977 9.977 0 0 1-2.292-3.268c-.565-1.273-.847-2.831-.847-4.674 0-1.475.282-2.882.847-4.222.565-1.374 1.412-2.597 2.541-3.67 1.097-1.039 2.475-1.86 4.137-2.463 1.694-.636 3.671-.955 5.93-.955 1.96 0 3.837.151 5.631.453 1.794.268 3.621.77 5.482 1.508.398.167.664.385.797.653.133.235.166.637.1 1.206l-.648 7.289c-.066.971-.581 1.223-1.545.754a20.808 20.808 0 0 0-4.684-1.559c-1.595-.335-2.974-.502-4.136-.502-.964 0-1.761.134-2.393.402-.598.268-.897.77-.897 1.508 0 .402.133.754.399 1.056.266.301.665.603 1.196.904.532.302 1.196.637 1.994 1.005.797.336 1.71.771 2.74 1.307a36.5 36.5 0 0 1 3.04 1.76c.93.603 1.744 1.306 2.442 2.11.698.838 1.246 1.827 1.645 2.966.398 1.14.598 2.514.598 4.122 0 1.776-.299 3.351-.897 4.725-.598 1.374-1.429 2.513-2.492 3.418-1.096.938-2.392 1.642-3.887 2.111-1.495.503-3.14.754-4.934.754-2.259 0-4.319-.184-6.179-.553-1.827-.335-3.472-.754-4.934-1.257-.564-.2-.93-.402-1.096-.603-.166-.234-.216-.586-.149-1.055l1.395-7.188c.166-.972.747-1.273 1.744-.905Z"/></svg>