<svg xmlns="http://www.w3.org/2000/svg" width="24" height="24" fill="none" viewBox="0 0 24 24"><path fill="#BABCC4" d="M12 16.996a5 5 0 0 0 5-5 4.9 4.9 0 0 0-.82-2.72l3.58-3.57a1.005 1.005 0 0 0-.71-1.714 1.004 1.004 0 0 0-.71.294l-3.62 3.58a4.9 4.9 0 0 0-2.72-.82 5 5 0 0 0-4.95 5 4.9 4.9 0 0 0 .82 2.72l-3.58 3.52a1.004 1.004 0 0 0 1.42 1.42l3.57-3.58a4.9 4.9 0 0 0 2.72.87Zm3.05-5a3 3 0 0 1-4.37 2.74l4-4c.213.388.34.818.37 1.26Zm-6.05 0a3 3 0 0 1 4.37-2.74l-4 4a3.05 3.05 0 0 1-.37-1.26Zm-5.7 4a10.692 10.692 0 0 1-1.61-2 3.85 3.85 0 0 1-.69-2 3.13 3.13 0 0 1 .31-1.28 7.86 7.86 0 0 1 .74-1.25 13.65 13.65 0 0 1 2.45-2.47 12.53 12.53 0 0 1 7.5-3 9.35 9.35 0 0 1 2.24.28 1 1 0 1 1-.48 1.94 7.64 7.64 0 0 0-1.76-.22 9.15 9.15 0 0 0-4.27 1.21 13.75 13.75 0 0 0-3.42 2.66 6.93 6.93 0 0 0-1.17 1.66 1.55 1.55 0 0 0-.14.47c.058.339.191.66.39.94a8.89 8.89 0 0 0 1.31 1.6 1.011 1.011 0 1 1-1.4 1.46Zm19.7-4c-.011.444-.117.88-.31 1.28a7.867 7.867 0 0 1-.69 1.25 13.65 13.65 0 0 1-2.5 2.47 12.53 12.53 0 0 1-7.5 3 9.352 9.352 0 0 1-2.24-.28 1 1 0 0 1 .48-1.94 7.643 7.643 0 0 0 1.76.22 9.15 9.15 0 0 0 4.27-1.21 13.753 13.753 0 0 0 3.42-2.66 6.931 6.931 0 0 0 1.17-1.66 1.55 1.55 0 0 0 .14-.47 2 2 0 0 0-.32-.89 6.45 6.45 0 0 0-1.18-1.46 1 1 0 0 1-.05-1.41 1 1 0 0 1 1.41-.05 8.47 8.47 0 0 1 1.56 1.93 4.1 4.1 0 0 1 .58 1.88Z"/></svg>