<svg width="20" height="20" viewBox="0 0 20 20" fill="none" xmlns="http://www.w3.org/2000/svg">
<path fill-rule="evenodd" clip-rule="evenodd" d="M12.0447 3.16933L16.2132 6.24828C17.0165 6.82967 17.4945 7.75926 17.5 8.75091V14.3246C17.4484 16.1118 15.9638 17.5223 14.1763 17.4825H5.83158C4.041 17.5267 2.55162 16.115 2.5 14.3246V8.75091C2.50549 7.75926 2.98349 6.82967 3.78684 6.24828L7.95526 3.16933C9.17235 2.27689 10.8276 2.27689 12.0447 3.16933ZM6.44737 14.143H13.5526C13.8796 14.143 14.1447 13.8779 14.1447 13.5509C14.1447 13.2239 13.8796 12.9588 13.5526 12.9588H6.44737C6.12036 12.9588 5.85526 13.2239 5.85526 13.5509C5.85526 13.8779 6.12036 14.143 6.44737 14.143Z" fill="#222222"/>
</svg>
