<svg width="136" height="69" viewBox="0 0 136 69" fill="none" xmlns="http://www.w3.org/2000/svg">
<mask id="path-1-inside-1_565_9148" fill="white">
<path fill-rule="evenodd" clip-rule="evenodd" d="M0 5C0 2.23858 2.23858 0 5 0H131C133.761 0 136 2.23858 136 5V28C132.134 28 129 31.134 129 35C129 38.866 132.134 42 136 42V64C136 66.7614 133.761 69 131 69H5C2.23857 69 0 66.7614 0 64V42C3.86599 42 7 38.866 7 35C7 31.134 3.86599 28 0 28V5Z"/>
</mask>
<path fill-rule="evenodd" clip-rule="evenodd" d="M0 5C0 2.23858 2.23858 0 5 0H131C133.761 0 136 2.23858 136 5V28C132.134 28 129 31.134 129 35C129 38.866 132.134 42 136 42V64C136 66.7614 133.761 69 131 69H5C2.23857 69 0 66.7614 0 64V42C3.86599 42 7 38.866 7 35C7 31.134 3.86599 28 0 28V5Z" fill="#FFE142"/>
<path d="M136 28V29H137V28H136ZM136 42H137V41H136V42ZM0 42V41H-1V42H0ZM0 28H-1V29H0V28ZM5 -1C1.68629 -1 -1 1.68629 -1 5H1C1 2.79086 2.79086 1 5 1V-1ZM131 -1H5V1H131V-1ZM137 5C137 1.68629 134.314 -1 131 -1V1C133.209 1 135 2.79086 135 5H137ZM137 28V5H135V28H137ZM130 35C130 31.6863 132.686 29 136 29V27C131.582 27 128 30.5817 128 35H130ZM136 41C132.686 41 130 38.3137 130 35H128C128 39.4183 131.582 43 136 43V41ZM137 64V42H135V64H137ZM131 70C134.314 70 137 67.3137 137 64H135C135 66.2091 133.209 68 131 68V70ZM5 70H131V68H5V70ZM-1 64C-1 67.3137 1.68629 70 5 70V68C2.79086 68 1 66.2091 1 64H-1ZM-1 42V64H1V42H-1ZM6 35C6 38.3137 3.31371 41 0 41V43C4.41828 43 8 39.4183 8 35H6ZM0 29C3.31371 29 6 31.6863 6 35H8C8 30.5817 4.41828 27 0 27V29ZM-1 5V28H1V5H-1Z" fill="#A4A8AF" fill-opacity="0.2" mask="url(#path-1-inside-1_565_9148)"/>
</svg>
