<svg width="85" height="14" viewBox="0 0 85 14" fill="none" xmlns="http://www.w3.org/2000/svg">
<path d="M6.53786 1.26994V2.30471H1.23859V5.18952H6.22429V6.19294H1.23859V9.56377C3.74712 9.56377 5.51093 9.46186 7.60398 9.1091L7.74509 10.1282C5.5658 10.4888 3.73144 10.5672 1.09748 10.5829H0V1.26994H6.53786ZM10.1752 0V5.61284H12.5113V6.66329H10.1752V13.938H8.95232V0H10.1752Z" fill="#222222" fill-opacity="0.4"/>
<path d="M24.7882 0V13.9694H23.5496V0H24.7882ZM17.3723 1.0818C19.4419 1.09748 20.9313 2.97888 20.9313 5.94208C20.9313 8.90528 19.4419 10.7867 17.3723 10.7867C15.2871 10.7867 13.8134 8.90528 13.8134 5.94208C13.8134 2.97888 15.2871 1.09748 17.3723 1.0818ZM17.3723 2.17929C15.977 2.19496 15.0049 3.66873 15.0049 5.94208C15.0049 8.21544 15.977 9.6892 17.3723 9.6892C18.7677 9.6892 19.7398 8.21544 19.7398 5.94208C19.7398 3.66873 18.7677 2.19496 17.3723 2.17929Z" fill="#222222" fill-opacity="0.4"/>
<path d="M30.9505 1.0818C32.8476 1.09748 34.2116 2.72019 34.4154 5.33063H37.5354V0H38.7583V13.9694H37.5354V6.34972H34.4311C34.2821 9.07775 32.8946 10.7867 30.9505 10.7867C28.8966 10.7867 27.4542 8.90528 27.4542 5.94208C27.4542 2.97888 28.8966 1.09748 30.9505 1.0818ZM30.9505 2.17929C29.5708 2.19496 28.6301 3.66873 28.6301 5.94208C28.6301 8.21544 29.5708 9.6892 30.9505 9.6892C32.3145 9.6892 33.2709 8.21544 33.2709 5.94208C33.2709 3.66873 32.3145 2.19496 30.9505 2.17929Z" fill="#222222" fill-opacity="0.4"/>
<path d="M56.7272 0V8.1684H55.4886V4.53103H52.6665V3.49626H55.4886V0H56.7272ZM56.7272 8.85825V13.7499H47.6181V8.85825H56.7272ZM48.841 9.84598V12.7465H55.5199V9.84598H48.841ZM50.0168 2.47717C50.0168 4.28018 51.4122 6.02047 53.4504 6.74168L52.8076 7.71373C51.2319 7.14931 50.0168 5.97344 49.4211 4.53103C48.8175 6.13806 47.5318 7.42368 45.8778 8.0273L45.235 7.05524C47.2888 6.31836 48.7783 4.46832 48.7783 2.47717V1.92843H45.6269V0.909342H53.1368V1.92843H50.0168V2.47717Z" fill="#222222" fill-opacity="0.4"/>
<path d="M66.276 0.909342C66.2603 4.40561 63.7675 6.91414 59.7538 8.05866L59.2364 7.0866C62.5681 6.1459 64.6925 4.29586 64.959 1.92843H59.9576V0.909342H66.276ZM70.6346 0.0156783V7.96459H69.396V4.64078H66.3074V3.60601H69.396V0.0156783H70.6346ZM70.6346 8.56036V13.7499H61.5882V8.56036H70.6346ZM62.7797 9.5481V12.7465H69.4117V9.5481H62.7797Z" fill="#222222" fill-opacity="0.4"/>
<path d="M76.938 0.517384C79.0232 0.533063 80.544 1.78733 80.544 3.60601C80.544 5.4247 79.0232 6.67896 76.938 6.67896C74.8214 6.67896 73.3163 5.4247 73.3163 3.60601C73.3163 1.78733 74.8214 0.533063 76.938 0.517384ZM76.938 1.55215C75.5427 1.55215 74.5079 2.39878 74.5236 3.60601C74.5079 4.82892 75.5427 5.67555 76.938 5.67555C78.3177 5.67555 79.3525 4.82892 79.3525 3.60601C79.3525 2.39878 78.3177 1.55215 76.938 1.55215ZM84.495 0V7.16499H83.2721V0H84.495ZM84.495 7.83916V11.1943H76.6715V12.7622H84.9967V13.7499H75.4643V10.2693H83.2721V8.82689H75.4329V7.83916H84.495Z" fill="#222222" fill-opacity="0.4"/>
</svg>
