<svg width="59" height="14" viewBox="0 0 59 14" fill="none" xmlns="http://www.w3.org/2000/svg">
<path d="M10.9844 0.90625V2.125C10.9844 3.44531 10.9844 4.875 10.5938 6.875H12.6562V7.89062H6.92188V13.9219H5.6875V7.89062H0V6.875H9.34375C9.76562 4.875 9.76562 3.41406 9.76562 2.125V1.92188H1.59375V0.90625H10.9844Z" fill="#222222"/>
<path d="M26.5164 6.9375V7.9375H13.8601V6.9375H19.5789V5.25H15.4695V0.5625H24.9539V1.57812H16.6882V4.23438H25.0789V5.25H20.7976V6.9375H26.5164ZM24.9695 9.29688V14H23.7507V10.2969H15.2664V9.29688H24.9695Z" fill="#222222"/>
<path d="M43.2835 0V8.28125H42.0491V4.64062H39.2523V3.625H42.0491V0H43.2835ZM38.6741 8.71875C41.5648 8.71875 43.3304 9.65625 43.3304 11.2969C43.3304 12.9375 41.5648 13.875 38.6741 13.8906C35.7835 13.875 34.0179 12.9375 34.0179 11.2969C34.0179 9.65625 35.7835 8.71875 38.6741 8.71875ZM38.6741 9.67188C36.5491 9.67188 35.221 10.2812 35.2366 11.2969C35.221 12.2969 36.5491 12.9062 38.6741 12.9062C40.7991 12.9062 42.1116 12.2969 42.1116 11.2969C42.1116 10.2812 40.7991 9.67188 38.6741 9.67188ZM36.596 2.54688C36.596 4.35938 37.9866 6.07812 40.0179 6.78125L39.3773 7.76562C37.8148 7.20312 36.6038 6.03906 36.0179 4.59375C35.4085 6.22656 34.1194 7.53125 32.471 8.15625L31.8304 7.17188C33.8929 6.42188 35.3616 4.54688 35.3616 2.5625V2.04688H32.221V1.01562H39.7054V2.04688H36.596V2.54688Z" fill="#222222"/>
<path d="M58.3467 11.0938V12.1094H45.628V11.0938H51.3467V8.09375H47.128V0.984375H48.3624V3.5H55.5811V0.984375H56.7842V8.09375H52.5499V11.0938H58.3467ZM48.3624 7.09375H55.5811V4.5H48.3624V7.09375Z" fill="#222222"/>
</svg>
