<svg width="88" height="58" viewBox="0 0 88 58" fill="none" xmlns="http://www.w3.org/2000/svg">
<mask id="path-1-inside-1_2713_30239" fill="white">
<path fill-rule="evenodd" clip-rule="evenodd" d="M7.43683 3.89098C8.07721 1.1753 10.7978 -0.507064 13.5135 0.133313L84.1042 16.7791C86.8199 17.4195 88.5022 20.1401 87.8618 22.8558L85.1172 34.4951C82.8313 33.9566 80.5415 35.3728 80.0025 37.6587C79.4635 39.9446 80.8793 42.2346 83.165 42.7741L80.559 53.8253C79.9186 56.541 77.198 58.2234 74.4823 57.583L3.89164 40.9372C1.17597 40.2968 -0.506402 37.5762 0.133976 34.8605L2.73933 23.8119C2.73998 23.812 2.74063 23.8122 2.74129 23.8124C5.02748 24.3515 7.31784 22.9352 7.85694 20.649C8.39605 18.3628 6.97975 16.0724 4.69355 15.5333C4.6929 15.5332 4.69224 15.533 4.69159 15.5328L7.43683 3.89098Z"/>
</mask>
<path fill-rule="evenodd" clip-rule="evenodd" d="M7.43683 3.89098C8.07721 1.1753 10.7978 -0.507064 13.5135 0.133313L84.1042 16.7791C86.8199 17.4195 88.5022 20.1401 87.8618 22.8558L85.1172 34.4951C82.8313 33.9566 80.5415 35.3728 80.0025 37.6587C79.4635 39.9446 80.8793 42.2346 83.165 42.7741L80.559 53.8253C79.9186 56.541 77.198 58.2234 74.4823 57.583L3.89164 40.9372C1.17597 40.2968 -0.506402 37.5762 0.133976 34.8605L2.73933 23.8119C2.73998 23.812 2.74063 23.8122 2.74129 23.8124C5.02748 24.3515 7.31784 22.9352 7.85694 20.649C8.39605 18.3628 6.97975 16.0724 4.69355 15.5333C4.6929 15.5332 4.69224 15.533 4.69159 15.5328L7.43683 3.89098Z" fill="white"/>
<path d="M85.1172 34.4951L84.8855 35.4786L85.8688 35.7102L86.1007 34.727L85.1172 34.4951ZM83.165 42.7741L84.1484 43.006L84.3802 42.0228L83.3971 41.7907L83.165 42.7741ZM74.4823 57.583L74.7142 56.5996L74.4823 57.583ZM3.89164 40.9372L3.65974 41.9206L3.89164 40.9372ZM0.133976 34.8605L1.11741 35.0924L0.133976 34.8605ZM2.73933 23.8119L2.97123 22.8285L1.98779 22.5966L1.75589 23.58L2.73933 23.8119ZM4.69159 15.5328L3.70816 15.3009L3.47626 16.2844L4.45969 16.5163L4.69159 15.5328ZM13.7454 -0.85012C10.4866 -1.61857 7.22185 0.400267 6.4534 3.65908L8.42027 4.12288C8.93257 1.95034 11.1091 0.604445 13.2816 1.11675L13.7454 -0.85012ZM84.3361 15.7957L13.7454 -0.85012L13.2816 1.11675L83.8723 17.7626L84.3361 15.7957ZM88.8453 23.0877C89.6137 19.8289 87.5949 16.5642 84.3361 15.7957L83.8723 17.7626C86.0448 18.2749 87.3907 20.4514 86.8784 22.6239L88.8453 23.0877ZM86.1007 34.727L88.8453 23.0877L86.8784 22.6239L84.1338 34.2632L86.1007 34.727ZM80.9859 37.8906C81.3969 36.1478 83.1427 35.068 84.8855 35.4786L85.3489 33.5116C82.52 32.8452 79.6862 34.5978 79.0191 37.4268L80.9859 37.8906ZM83.3971 41.7907C81.6544 41.3794 80.575 39.6334 80.9859 37.8906L79.0191 37.4268C78.352 40.2557 80.1042 43.0898 82.9328 43.7575L83.3971 41.7907ZM81.5424 54.0573L84.1484 43.006L82.1815 42.5422L79.5756 53.5934L81.5424 54.0573ZM74.2504 58.5664C77.5092 59.3349 80.774 57.3161 81.5424 54.0573L79.5756 53.5934C79.0633 55.766 76.8868 57.1119 74.7142 56.5996L74.2504 58.5664ZM3.65974 41.9206L74.2504 58.5664L74.7142 56.5996L4.12354 39.9537L3.65974 41.9206ZM-0.849457 34.6286C-1.61791 37.8874 0.40093 41.1522 3.65974 41.9206L4.12354 39.9537C1.951 39.4414 0.605108 37.2649 1.11741 35.0924L-0.849457 34.6286ZM1.75589 23.58L-0.849457 34.6286L1.11741 35.0924L3.72276 24.0438L1.75589 23.58ZM2.97319 22.8289C2.97286 22.8288 2.97254 22.8288 2.97221 22.8287C2.97188 22.8286 2.97155 22.8285 2.97123 22.8285L2.50743 24.7953C2.50775 24.7954 2.50808 24.7955 2.50841 24.7956C2.50873 24.7956 2.50906 24.7957 2.50939 24.7958L2.97319 22.8289ZM6.87351 20.4171C6.46248 22.1601 4.71625 23.2399 2.97319 22.8289L2.50939 24.7958C5.33872 25.463 8.1732 23.7102 8.84038 20.8809L6.87351 20.4171ZM4.46165 16.5167C6.20471 16.9278 7.28454 18.674 6.87351 20.4171L8.84038 20.8809C9.50755 18.0515 7.75478 15.217 4.92545 14.5499L4.46165 16.5167ZM4.45969 16.5163C4.45969 16.5163 4.45969 16.5163 4.45969 16.5163C4.45969 16.5163 4.4597 16.5163 4.4597 16.5163C4.4597 16.5163 4.4597 16.5163 4.4597 16.5163C4.4597 16.5163 4.4597 16.5163 4.4597 16.5163C4.45971 16.5163 4.45971 16.5163 4.45971 16.5163C4.45971 16.5163 4.45971 16.5163 4.45971 16.5163C4.45971 16.5163 4.45971 16.5163 4.45972 16.5163C4.45972 16.5163 4.45972 16.5163 4.45972 16.5163C4.45972 16.5163 4.45972 16.5163 4.45972 16.5163C4.45972 16.5163 4.45973 16.5163 4.45973 16.5163C4.45973 16.5163 4.45973 16.5163 4.45973 16.5163C4.45973 16.5163 4.45973 16.5163 4.45974 16.5163C4.45974 16.5163 4.45974 16.5163 4.45974 16.5163C4.45974 16.5163 4.45974 16.5163 4.45974 16.5163C4.45974 16.5163 4.45975 16.5163 4.45975 16.5163C4.45975 16.5163 4.45975 16.5163 4.45975 16.5163C4.45975 16.5163 4.45975 16.5163 4.45975 16.5163C4.45976 16.5163 4.45976 16.5163 4.45976 16.5163C4.45976 16.5163 4.45976 16.5163 4.45976 16.5163C4.45976 16.5163 4.45976 16.5163 4.45977 16.5163C4.45977 16.5163 4.45977 16.5163 4.45977 16.5163C4.45977 16.5163 4.45977 16.5163 4.45977 16.5163C4.45977 16.5163 4.45978 16.5163 4.45978 16.5163C4.45978 16.5163 4.45978 16.5163 4.45978 16.5163C4.45978 16.5163 4.45978 16.5163 4.45978 16.5163C4.45979 16.5163 4.45979 16.5163 4.45979 16.5163C4.45979 16.5163 4.45979 16.5163 4.45979 16.5163C4.45979 16.5163 4.4598 16.5163 4.4598 16.5163C4.4598 16.5163 4.4598 16.5163 4.4598 16.5163C4.4598 16.5163 4.4598 16.5163 4.4598 16.5163C4.45981 16.5163 4.45981 16.5163 4.45981 16.5163C4.45981 16.5163 4.45981 16.5163 4.45981 16.5163C4.45981 16.5163 4.45981 16.5163 4.45982 16.5163C4.45982 16.5163 4.45982 16.5163 4.45982 16.5163C4.45982 16.5163 4.45982 16.5163 4.45982 16.5163C4.45982 16.5163 4.45983 16.5163 4.45983 16.5163C4.45983 16.5163 4.45983 16.5163 4.45983 16.5163C4.45983 16.5163 4.45983 16.5163 4.45983 16.5163C4.45984 16.5163 4.45984 16.5163 4.45984 16.5163C4.45984 16.5163 4.45984 16.5163 4.45984 16.5163C4.45984 16.5163 4.45984 16.5163 4.45985 16.5163C4.45985 16.5163 4.45985 16.5163 4.45985 16.5163C4.45985 16.5163 4.45985 16.5163 4.45985 16.5163C4.45986 16.5163 4.45986 16.5163 4.45986 16.5163C4.45986 16.5163 4.45986 16.5163 4.45986 16.5163C4.45986 16.5163 4.45986 16.5163 4.45987 16.5163C4.45987 16.5163 4.45987 16.5163 4.45987 16.5163C4.45987 16.5163 4.45987 16.5163 4.45987 16.5163C4.45987 16.5163 4.45988 16.5163 4.45988 16.5163C4.45988 16.5163 4.45988 16.5163 4.45988 16.5163C4.45988 16.5163 4.45988 16.5163 4.45988 16.5163C4.45989 16.5163 4.45989 16.5163 4.45989 16.5163C4.45989 16.5163 4.45989 16.5163 4.45989 16.5163C4.45989 16.5163 4.45989 16.5163 4.4599 16.5163C4.4599 16.5163 4.4599 16.5163 4.4599 16.5163C4.4599 16.5163 4.4599 16.5163 4.4599 16.5163C4.4599 16.5163 4.45991 16.5163 4.45991 16.5163C4.45991 16.5163 4.45991 16.5163 4.45991 16.5163C4.45991 16.5163 4.45991 16.5163 4.45992 16.5163C4.45992 16.5163 4.45992 16.5163 4.45992 16.5163C4.45992 16.5163 4.45992 16.5163 4.45992 16.5163C4.45992 16.5163 4.45993 16.5163 4.45993 16.5163C4.45993 16.5163 4.45993 16.5163 4.45993 16.5163C4.45993 16.5163 4.45993 16.5163 4.45993 16.5163C4.45994 16.5163 4.45994 16.5163 4.45994 16.5163C4.45994 16.5163 4.45994 16.5163 4.45994 16.5163C4.45994 16.5163 4.45994 16.5163 4.45995 16.5163C4.45995 16.5163 4.45995 16.5163 4.45995 16.5163C4.45995 16.5163 4.45995 16.5163 4.45995 16.5163C4.45995 16.5163 4.45996 16.5163 4.45996 16.5163C4.45996 16.5163 4.45996 16.5163 4.45996 16.5163C4.45996 16.5163 4.45996 16.5163 4.45996 16.5163C4.45997 16.5163 4.45997 16.5163 4.45997 16.5163C4.45997 16.5163 4.45997 16.5163 4.45997 16.5163C4.45997 16.5163 4.45998 16.5163 4.45998 16.5163C4.45998 16.5163 4.45998 16.5163 4.45998 16.5163C4.45998 16.5163 4.45998 16.5163 4.45998 16.5163C4.45999 16.5163 4.45999 16.5163 4.45999 16.5163C4.45999 16.5163 4.45999 16.5163 4.45999 16.5163C4.45999 16.5163 4.45999 16.5163 4.46 16.5163C4.46 16.5163 4.46 16.5163 4.46 16.5163C4.46 16.5163 4.46 16.5163 4.46 16.5163C4.46 16.5164 4.46001 16.5164 4.46001 16.5164C4.46001 16.5164 4.46001 16.5164 4.46001 16.5164C4.46001 16.5164 4.46001 16.5164 4.46001 16.5164C4.46002 16.5164 4.46002 16.5164 4.46002 16.5164C4.46002 16.5164 4.46002 16.5164 4.46002 16.5164C4.46002 16.5164 4.46002 16.5164 4.46003 16.5164C4.46003 16.5164 4.46003 16.5164 4.46003 16.5164C4.46003 16.5164 4.46003 16.5164 4.46003 16.5164C4.46004 16.5164 4.46004 16.5164 4.46004 16.5164C4.46004 16.5164 4.46004 16.5164 4.46004 16.5164C4.46004 16.5164 4.46004 16.5164 4.46005 16.5164C4.46005 16.5164 4.46005 16.5164 4.46005 16.5164C4.46005 16.5164 4.46005 16.5164 4.46005 16.5164C4.46005 16.5164 4.46006 16.5164 4.46006 16.5164C4.46006 16.5164 4.46006 16.5164 4.46006 16.5164C4.46006 16.5164 4.46006 16.5164 4.46006 16.5164C4.46007 16.5164 4.46007 16.5164 4.46007 16.5164C4.46007 16.5164 4.46007 16.5164 4.46007 16.5164C4.46007 16.5164 4.46007 16.5164 4.46008 16.5164C4.46008 16.5164 4.46008 16.5164 4.46008 16.5164C4.46008 16.5164 4.46008 16.5164 4.46008 16.5164C4.46008 16.5164 4.46009 16.5164 4.46009 16.5164C4.46009 16.5164 4.46009 16.5164 4.46009 16.5164C4.46009 16.5164 4.46009 16.5164 4.4601 16.5164C4.4601 16.5164 4.4601 16.5164 4.4601 16.5164C4.4601 16.5164 4.4601 16.5164 4.4601 16.5164C4.4601 16.5164 4.46011 16.5164 4.46011 16.5164C4.46011 16.5164 4.46011 16.5164 4.46011 16.5164C4.46011 16.5164 4.46011 16.5164 4.46011 16.5164C4.46012 16.5164 4.46012 16.5164 4.46012 16.5164C4.46012 16.5164 4.46012 16.5164 4.46012 16.5164C4.46012 16.5164 4.46012 16.5164 4.46013 16.5164C4.46013 16.5164 4.46013 16.5164 4.46013 16.5164C4.46013 16.5164 4.46013 16.5164 4.46013 16.5164C4.46013 16.5164 4.46014 16.5164 4.46014 16.5164C4.46014 16.5164 4.46014 16.5164 4.46014 16.5164C4.46014 16.5164 4.46014 16.5164 4.46014 16.5164C4.46015 16.5164 4.46015 16.5164 4.46015 16.5164C4.46015 16.5164 4.46015 16.5164 4.46015 16.5164C4.46015 16.5164 4.46016 16.5164 4.46016 16.5164C4.46016 16.5164 4.46016 16.5164 4.46016 16.5164C4.46016 16.5164 4.46016 16.5164 4.46016 16.5164C4.46017 16.5164 4.46017 16.5164 4.46017 16.5164C4.46017 16.5164 4.46017 16.5164 4.46017 16.5164C4.46017 16.5164 4.46017 16.5164 4.46018 16.5164C4.46018 16.5164 4.46018 16.5164 4.46018 16.5164C4.46018 16.5164 4.46018 16.5164 4.46018 16.5164C4.46018 16.5164 4.46019 16.5164 4.46019 16.5164C4.46019 16.5164 4.46019 16.5164 4.46019 16.5164C4.46019 16.5164 4.46019 16.5164 4.46019 16.5164C4.4602 16.5164 4.4602 16.5164 4.4602 16.5164C4.4602 16.5164 4.4602 16.5164 4.4602 16.5164C4.4602 16.5164 4.4602 16.5164 4.46021 16.5164C4.46021 16.5164 4.46021 16.5164 4.46021 16.5164C4.46021 16.5164 4.46021 16.5164 4.46021 16.5164C4.46022 16.5164 4.46022 16.5164 4.46022 16.5164C4.46022 16.5164 4.46022 16.5164 4.46022 16.5164C4.46022 16.5164 4.46022 16.5164 4.46023 16.5164C4.46023 16.5164 4.46023 16.5164 4.46023 16.5164C4.46023 16.5164 4.46023 16.5164 4.46023 16.5164C4.46023 16.5164 4.46024 16.5164 4.46024 16.5164C4.46024 16.5164 4.46024 16.5164 4.46024 16.5164C4.46024 16.5164 4.46024 16.5164 4.46024 16.5164C4.46025 16.5164 4.46025 16.5164 4.46025 16.5164C4.46025 16.5164 4.46025 16.5164 4.46025 16.5164C4.46025 16.5164 4.46025 16.5164 4.46026 16.5164C4.46026 16.5164 4.46026 16.5164 4.46026 16.5164C4.46026 16.5164 4.46026 16.5164 4.46026 16.5164C4.46026 16.5164 4.46027 16.5164 4.46027 16.5164C4.46027 16.5164 4.46027 16.5164 4.46027 16.5164C4.46027 16.5164 4.46027 16.5164 4.46028 16.5164C4.46028 16.5164 4.46028 16.5164 4.46028 16.5164C4.46028 16.5164 4.46028 16.5164 4.46028 16.5164C4.46028 16.5164 4.46029 16.5164 4.46029 16.5164C4.46029 16.5164 4.46029 16.5164 4.46029 16.5164C4.46029 16.5164 4.46029 16.5164 4.46029 16.5164C4.4603 16.5164 4.4603 16.5164 4.4603 16.5164C4.4603 16.5164 4.4603 16.5164 4.4603 16.5164C4.4603 16.5164 4.4603 16.5164 4.46031 16.5164C4.46031 16.5164 4.46031 16.5164 4.46031 16.5164C4.46031 16.5164 4.46031 16.5164 4.46031 16.5164C4.46031 16.5164 4.46032 16.5164 4.46032 16.5164C4.46032 16.5164 4.46032 16.5164 4.46032 16.5164C4.46032 16.5164 4.46032 16.5164 4.46032 16.5164C4.46033 16.5164 4.46033 16.5164 4.46033 16.5164C4.46033 16.5164 4.46033 16.5164 4.46033 16.5164C4.46033 16.5164 4.46034 16.5164 4.46034 16.5164C4.46034 16.5164 4.46034 16.5164 4.46034 16.5164C4.46034 16.5164 4.46034 16.5164 4.46034 16.5164C4.46035 16.5164 4.46035 16.5164 4.46035 16.5164C4.46035 16.5164 4.46035 16.5164 4.46035 16.5164C4.46035 16.5164 4.46035 16.5164 4.46036 16.5164C4.46036 16.5164 4.46036 16.5164 4.46036 16.5164C4.46036 16.5164 4.46036 16.5164 4.46036 16.5164C4.46036 16.5164 4.46037 16.5164 4.46037 16.5164C4.46037 16.5164 4.46037 16.5164 4.46037 16.5164C4.46037 16.5164 4.46037 16.5164 4.46037 16.5164C4.46038 16.5164 4.46038 16.5164 4.46038 16.5164C4.46038 16.5164 4.46038 16.5164 4.46038 16.5164C4.46038 16.5164 4.46038 16.5164 4.46039 16.5164C4.46039 16.5164 4.46039 16.5164 4.46039 16.5164C4.46039 16.5164 4.46039 16.5164 4.46039 16.5164C4.4604 16.5164 4.4604 16.5164 4.4604 16.5164C4.4604 16.5164 4.4604 16.5164 4.4604 16.5164C4.4604 16.5164 4.4604 16.5164 4.46041 16.5164C4.46041 16.5164 4.46041 16.5164 4.46041 16.5164C4.46041 16.5164 4.46041 16.5164 4.46041 16.5164C4.46041 16.5164 4.46042 16.5164 4.46042 16.5164C4.46042 16.5164 4.46042 16.5164 4.46042 16.5164C4.46042 16.5164 4.46042 16.5164 4.46042 16.5164C4.46043 16.5164 4.46043 16.5164 4.46043 16.5165C4.46043 16.5165 4.46043 16.5165 4.46043 16.5165C4.46043 16.5165 4.46043 16.5165 4.46044 16.5165C4.46044 16.5165 4.46044 16.5165 4.46044 16.5165C4.46044 16.5165 4.46044 16.5165 4.46044 16.5165C4.46044 16.5165 4.46045 16.5165 4.46045 16.5165C4.46045 16.5165 4.46045 16.5165 4.46045 16.5165C4.46045 16.5165 4.46045 16.5165 4.46046 16.5165C4.46046 16.5165 4.46046 16.5165 4.46046 16.5165C4.46046 16.5165 4.46046 16.5165 4.46046 16.5165C4.46046 16.5165 4.46047 16.5165 4.46047 16.5165C4.46047 16.5165 4.46047 16.5165 4.46047 16.5165C4.46047 16.5165 4.46047 16.5165 4.46047 16.5165C4.46048 16.5165 4.46048 16.5165 4.46048 16.5165C4.46048 16.5165 4.46048 16.5165 4.46048 16.5165C4.46048 16.5165 4.46048 16.5165 4.46049 16.5165C4.46049 16.5165 4.46049 16.5165 4.46049 16.5165C4.46049 16.5165 4.46049 16.5165 4.46049 16.5165C4.46049 16.5165 4.4605 16.5165 4.4605 16.5165C4.4605 16.5165 4.4605 16.5165 4.4605 16.5165C4.4605 16.5165 4.4605 16.5165 4.4605 16.5165C4.46051 16.5165 4.46051 16.5165 4.46051 16.5165C4.46051 16.5165 4.46051 16.5165 4.46051 16.5165C4.46051 16.5165 4.46052 16.5165 4.46052 16.5165C4.46052 16.5165 4.46052 16.5165 4.46052 16.5165C4.46052 16.5165 4.46052 16.5165 4.46052 16.5165C4.46053 16.5165 4.46053 16.5165 4.46053 16.5165C4.46053 16.5165 4.46053 16.5165 4.46053 16.5165C4.46053 16.5165 4.46053 16.5165 4.46054 16.5165C4.46054 16.5165 4.46054 16.5165 4.46054 16.5165C4.46054 16.5165 4.46054 16.5165 4.46054 16.5165C4.46054 16.5165 4.46055 16.5165 4.46055 16.5165C4.46055 16.5165 4.46055 16.5165 4.46055 16.5165C4.46055 16.5165 4.46055 16.5165 4.46055 16.5165C4.46056 16.5165 4.46056 16.5165 4.46056 16.5165C4.46056 16.5165 4.46056 16.5165 4.46056 16.5165C4.46056 16.5165 4.46056 16.5165 4.46057 16.5165C4.46057 16.5165 4.46057 16.5165 4.46057 16.5165C4.46057 16.5165 4.46057 16.5165 4.46057 16.5165C4.46058 16.5165 4.46058 16.5165 4.46058 16.5165C4.46058 16.5165 4.46058 16.5165 4.46058 16.5165C4.46058 16.5165 4.46058 16.5165 4.46059 16.5165C4.46059 16.5165 4.46059 16.5165 4.46059 16.5165C4.46059 16.5165 4.46059 16.5165 4.46059 16.5165C4.46059 16.5165 4.4606 16.5165 4.4606 16.5165C4.4606 16.5165 4.4606 16.5165 4.4606 16.5165C4.4606 16.5165 4.4606 16.5165 4.4606 16.5165C4.46061 16.5165 4.46061 16.5165 4.46061 16.5165C4.46061 16.5165 4.46061 16.5165 4.46061 16.5165C4.46061 16.5165 4.46061 16.5165 4.46062 16.5165C4.46062 16.5165 4.46062 16.5165 4.46062 16.5165C4.46062 16.5165 4.46062 16.5165 4.46062 16.5165C4.46062 16.5165 4.46063 16.5165 4.46063 16.5165C4.46063 16.5165 4.46063 16.5165 4.46063 16.5165C4.46063 16.5165 4.46063 16.5165 4.46064 16.5165C4.46064 16.5165 4.46064 16.5165 4.46064 16.5165C4.46064 16.5165 4.46064 16.5165 4.46064 16.5165C4.46064 16.5165 4.46065 16.5165 4.46065 16.5165C4.46065 16.5165 4.46065 16.5165 4.46065 16.5165C4.46065 16.5165 4.46065 16.5165 4.46065 16.5165C4.46066 16.5165 4.46066 16.5165 4.46066 16.5165C4.46066 16.5165 4.46066 16.5165 4.46066 16.5165C4.46066 16.5165 4.46066 16.5165 4.46067 16.5165C4.46067 16.5165 4.46067 16.5165 4.46067 16.5165C4.46067 16.5165 4.46067 16.5165 4.46067 16.5165C4.46067 16.5165 4.46068 16.5165 4.46068 16.5165C4.46068 16.5165 4.46068 16.5165 4.46068 16.5165C4.46068 16.5165 4.46068 16.5165 4.46068 16.5165C4.46069 16.5165 4.46069 16.5165 4.46069 16.5165C4.46069 16.5165 4.46069 16.5165 4.46069 16.5165C4.46069 16.5165 4.4607 16.5165 4.4607 16.5165C4.4607 16.5165 4.4607 16.5165 4.4607 16.5165C4.4607 16.5165 4.4607 16.5165 4.4607 16.5165C4.46071 16.5165 4.46071 16.5165 4.46071 16.5165C4.46071 16.5165 4.46071 16.5165 4.46071 16.5165C4.46071 16.5165 4.46071 16.5165 4.46072 16.5165C4.46072 16.5165 4.46072 16.5165 4.46072 16.5165C4.46072 16.5165 4.46072 16.5165 4.46072 16.5165C4.46072 16.5165 4.46073 16.5165 4.46073 16.5165C4.46073 16.5165 4.46073 16.5165 4.46073 16.5165C4.46073 16.5165 4.46073 16.5165 4.46073 16.5165C4.46074 16.5165 4.46074 16.5165 4.46074 16.5165C4.46074 16.5165 4.46074 16.5165 4.46074 16.5165C4.46074 16.5165 4.46074 16.5165 4.46075 16.5165C4.46075 16.5165 4.46075 16.5165 4.46075 16.5165C4.46075 16.5165 4.46075 16.5165 4.46075 16.5165C4.46076 16.5165 4.46076 16.5165 4.46076 16.5165C4.46076 16.5165 4.46076 16.5165 4.46076 16.5165C4.46076 16.5165 4.46076 16.5165 4.46077 16.5165C4.46077 16.5165 4.46077 16.5165 4.46077 16.5165C4.46077 16.5165 4.46077 16.5165 4.46077 16.5165C4.46077 16.5165 4.46078 16.5165 4.46078 16.5165C4.46078 16.5165 4.46078 16.5165 4.46078 16.5165C4.46078 16.5165 4.46078 16.5165 4.46078 16.5165C4.46079 16.5165 4.46079 16.5165 4.46079 16.5165C4.46079 16.5165 4.46079 16.5165 4.46079 16.5165C4.46079 16.5165 4.46079 16.5165 4.4608 16.5165C4.4608 16.5165 4.4608 16.5165 4.4608 16.5165C4.4608 16.5165 4.4608 16.5165 4.4608 16.5165C4.4608 16.5165 4.46081 16.5165 4.46081 16.5165C4.46081 16.5165 4.46081 16.5165 4.46081 16.5165C4.46081 16.5165 4.46081 16.5165 4.46082 16.5165C4.46082 16.5165 4.46082 16.5165 4.46082 16.5165C4.46082 16.5165 4.46082 16.5165 4.46082 16.5165C4.46082 16.5165 4.46083 16.5165 4.46083 16.5165C4.46083 16.5165 4.46083 16.5165 4.46083 16.5165C4.46083 16.5165 4.46083 16.5165 4.46083 16.5165C4.46084 16.5165 4.46084 16.5165 4.46084 16.5165C4.46084 16.5165 4.46084 16.5165 4.46084 16.5165C4.46084 16.5165 4.46084 16.5165 4.46085 16.5165C4.46085 16.5165 4.46085 16.5165 4.46085 16.5165C4.46085 16.5165 4.46085 16.5166 4.46085 16.5166C4.46085 16.5166 4.46086 16.5166 4.46086 16.5166C4.46086 16.5166 4.46086 16.5166 4.46086 16.5166C4.46086 16.5166 4.46086 16.5166 4.46087 16.5166C4.46087 16.5166 4.46087 16.5166 4.46087 16.5166C4.46087 16.5166 4.46087 16.5166 4.46087 16.5166C4.46087 16.5166 4.46088 16.5166 4.46088 16.5166C4.46088 16.5166 4.46088 16.5166 4.46088 16.5166C4.46088 16.5166 4.46088 16.5166 4.46088 16.5166C4.46089 16.5166 4.46089 16.5166 4.46089 16.5166C4.46089 16.5166 4.46089 16.5166 4.46089 16.5166C4.46089 16.5166 4.46089 16.5166 4.4609 16.5166C4.4609 16.5166 4.4609 16.5166 4.4609 16.5166C4.4609 16.5166 4.4609 16.5166 4.4609 16.5166C4.4609 16.5166 4.46091 16.5166 4.46091 16.5166C4.46091 16.5166 4.46091 16.5166 4.46091 16.5166C4.46091 16.5166 4.46091 16.5166 4.46091 16.5166C4.46092 16.5166 4.46092 16.5166 4.46092 16.5166C4.46092 16.5166 4.46092 16.5166 4.46092 16.5166C4.46092 16.5166 4.46093 16.5166 4.46093 16.5166C4.46093 16.5166 4.46093 16.5166 4.46093 16.5166C4.46093 16.5166 4.46093 16.5166 4.46093 16.5166C4.46094 16.5166 4.46094 16.5166 4.46094 16.5166C4.46094 16.5166 4.46094 16.5166 4.46094 16.5166C4.46094 16.5166 4.46094 16.5166 4.46095 16.5166C4.46095 16.5166 4.46095 16.5166 4.46095 16.5166C4.46095 16.5166 4.46095 16.5166 4.46095 16.5166C4.46095 16.5166 4.46096 16.5166 4.46096 16.5166C4.46096 16.5166 4.46096 16.5166 4.46096 16.5166C4.46096 16.5166 4.46096 16.5166 4.46096 16.5166C4.46097 16.5166 4.46097 16.5166 4.46097 16.5166C4.46097 16.5166 4.46097 16.5166 4.46097 16.5166C4.46097 16.5166 4.46097 16.5166 4.46098 16.5166C4.46098 16.5166 4.46098 16.5166 4.46098 16.5166C4.46098 16.5166 4.46098 16.5166 4.46098 16.5166C4.46099 16.5166 4.46099 16.5166 4.46099 16.5166C4.46099 16.5166 4.46099 16.5166 4.46099 16.5166C4.46099 16.5166 4.46099 16.5166 4.461 16.5166C4.461 16.5166 4.461 16.5166 4.461 16.5166C4.461 16.5166 4.461 16.5166 4.461 16.5166C4.461 16.5166 4.46101 16.5166 4.46101 16.5166C4.46101 16.5166 4.46101 16.5166 4.46101 16.5166C4.46101 16.5166 4.46101 16.5166 4.46101 16.5166C4.46102 16.5166 4.46102 16.5166 4.46102 16.5166C4.46102 16.5166 4.46102 16.5166 4.46102 16.5166C4.46102 16.5166 4.46102 16.5166 4.46103 16.5166C4.46103 16.5166 4.46103 16.5166 4.46103 16.5166C4.46103 16.5166 4.46103 16.5166 4.46103 16.5166C4.46103 16.5166 4.46104 16.5166 4.46104 16.5166C4.46104 16.5166 4.46104 16.5166 4.46104 16.5166C4.46104 16.5166 4.46104 16.5166 4.46105 16.5166C4.46105 16.5166 4.46105 16.5166 4.46105 16.5166C4.46105 16.5166 4.46105 16.5166 4.46105 16.5166C4.46105 16.5166 4.46106 16.5166 4.46106 16.5166C4.46106 16.5166 4.46106 16.5166 4.46106 16.5166C4.46106 16.5166 4.46106 16.5166 4.46106 16.5166C4.46107 16.5166 4.46107 16.5166 4.46107 16.5166C4.46107 16.5166 4.46107 16.5166 4.46107 16.5166C4.46107 16.5166 4.46107 16.5166 4.46108 16.5166C4.46108 16.5166 4.46108 16.5166 4.46108 16.5166C4.46108 16.5166 4.46108 16.5166 4.46108 16.5166C4.46108 16.5166 4.46109 16.5166 4.46109 16.5166C4.46109 16.5166 4.46109 16.5166 4.46109 16.5166C4.46109 16.5166 4.46109 16.5166 4.46109 16.5166C4.4611 16.5166 4.4611 16.5166 4.4611 16.5166C4.4611 16.5166 4.4611 16.5166 4.4611 16.5166C4.4611 16.5166 4.46111 16.5166 4.46111 16.5166C4.46111 16.5166 4.46111 16.5166 4.46111 16.5166C4.46111 16.5166 4.46111 16.5166 4.46111 16.5166C4.46112 16.5166 4.46112 16.5166 4.46112 16.5166C4.46112 16.5166 4.46112 16.5166 4.46112 16.5166C4.46112 16.5166 4.46112 16.5166 4.46113 16.5166C4.46113 16.5166 4.46113 16.5166 4.46113 16.5166C4.46113 16.5166 4.46113 16.5166 4.46113 16.5166C4.46113 16.5166 4.46114 16.5166 4.46114 16.5166C4.46114 16.5166 4.46114 16.5166 4.46114 16.5166C4.46114 16.5166 4.46114 16.5166 4.46114 16.5166C4.46115 16.5166 4.46115 16.5166 4.46115 16.5166C4.46115 16.5166 4.46115 16.5166 4.46115 16.5166C4.46115 16.5166 4.46115 16.5166 4.46116 16.5166C4.46116 16.5166 4.46116 16.5166 4.46116 16.5166C4.46116 16.5166 4.46116 16.5166 4.46116 16.5166C4.46117 16.5166 4.46117 16.5166 4.46117 16.5166C4.46117 16.5166 4.46117 16.5166 4.46117 16.5166C4.46117 16.5166 4.46117 16.5166 4.46118 16.5166C4.46118 16.5166 4.46118 16.5166 4.46118 16.5166C4.46118 16.5166 4.46118 16.5166 4.46118 16.5166C4.46118 16.5166 4.46119 16.5166 4.46119 16.5166C4.46119 16.5166 4.46119 16.5166 4.46119 16.5166C4.46119 16.5166 4.46119 16.5166 4.46119 16.5166C4.4612 16.5166 4.4612 16.5166 4.4612 16.5166C4.4612 16.5166 4.4612 16.5166 4.4612 16.5166C4.4612 16.5166 4.4612 16.5166 4.46121 16.5166C4.46121 16.5166 4.46121 16.5166 4.46121 16.5166C4.46121 16.5166 4.46121 16.5166 4.46121 16.5166C4.46121 16.5166 4.46122 16.5166 4.46122 16.5166C4.46122 16.5166 4.46122 16.5166 4.46122 16.5166C4.46122 16.5166 4.46122 16.5166 4.46123 16.5166C4.46123 16.5166 4.46123 16.5166 4.46123 16.5166C4.46123 16.5166 4.46123 16.5166 4.46123 16.5166C4.46123 16.5166 4.46124 16.5166 4.46124 16.5166C4.46124 16.5166 4.46124 16.5166 4.46124 16.5166C4.46124 16.5166 4.46124 16.5166 4.46124 16.5166C4.46125 16.5166 4.46125 16.5166 4.46125 16.5166C4.46125 16.5166 4.46125 16.5166 4.46125 16.5166C4.46125 16.5166 4.46125 16.5166 4.46126 16.5166C4.46126 16.5166 4.46126 16.5166 4.46126 16.5166C4.46126 16.5166 4.46126 16.5166 4.46126 16.5166C4.46126 16.5166 4.46127 16.5166 4.46127 16.5166C4.46127 16.5166 4.46127 16.5166 4.46127 16.5166C4.46127 16.5166 4.46127 16.5166 4.46127 16.5166C4.46128 16.5167 4.46128 16.5167 4.46128 16.5167C4.46128 16.5167 4.46128 16.5167 4.46128 16.5167C4.46128 16.5167 4.46129 16.5167 4.46129 16.5167C4.46129 16.5167 4.46129 16.5167 4.46129 16.5167C4.46129 16.5167 4.46129 16.5167 4.46129 16.5167C4.4613 16.5167 4.4613 16.5167 4.4613 16.5167C4.4613 16.5167 4.4613 16.5167 4.4613 16.5167C4.4613 16.5167 4.4613 16.5167 4.46131 16.5167C4.46131 16.5167 4.46131 16.5167 4.46131 16.5167C4.46131 16.5167 4.46131 16.5167 4.46131 16.5167C4.46131 16.5167 4.46132 16.5167 4.46132 16.5167C4.46132 16.5167 4.46132 16.5167 4.46132 16.5167C4.46132 16.5167 4.46132 16.5167 4.46132 16.5167C4.46133 16.5167 4.46133 16.5167 4.46133 16.5167C4.46133 16.5167 4.46133 16.5167 4.46133 16.5167C4.46133 16.5167 4.46133 16.5167 4.46134 16.5167C4.46134 16.5167 4.46134 16.5167 4.46134 16.5167C4.46134 16.5167 4.46134 16.5167 4.46134 16.5167C4.46135 16.5167 4.46135 16.5167 4.46135 16.5167C4.46135 16.5167 4.46135 16.5167 4.46135 16.5167C4.46135 16.5167 4.46135 16.5167 4.46136 16.5167C4.46136 16.5167 4.46136 16.5167 4.46136 16.5167C4.46136 16.5167 4.46136 16.5167 4.46136 16.5167C4.46136 16.5167 4.46137 16.5167 4.46137 16.5167C4.46137 16.5167 4.46137 16.5167 4.46137 16.5167C4.46137 16.5167 4.46137 16.5167 4.46137 16.5167C4.46138 16.5167 4.46138 16.5167 4.46138 16.5167C4.46138 16.5167 4.46138 16.5167 4.46138 16.5167C4.46138 16.5167 4.46138 16.5167 4.46139 16.5167C4.46139 16.5167 4.46139 16.5167 4.46139 16.5167C4.46139 16.5167 4.46139 16.5167 4.46139 16.5167C4.46139 16.5167 4.4614 16.5167 4.4614 16.5167C4.4614 16.5167 4.4614 16.5167 4.4614 16.5167C4.4614 16.5167 4.4614 16.5167 4.46141 16.5167C4.46141 16.5167 4.46141 16.5167 4.46141 16.5167C4.46141 16.5167 4.46141 16.5167 4.46141 16.5167C4.46141 16.5167 4.46142 16.5167 4.46142 16.5167C4.46142 16.5167 4.46142 16.5167 4.46142 16.5167C4.46142 16.5167 4.46142 16.5167 4.46142 16.5167C4.46143 16.5167 4.46143 16.5167 4.46143 16.5167C4.46143 16.5167 4.46143 16.5167 4.46143 16.5167C4.46143 16.5167 4.46143 16.5167 4.46144 16.5167C4.46144 16.5167 4.46144 16.5167 4.46144 16.5167C4.46144 16.5167 4.46144 16.5167 4.46144 16.5167C4.46144 16.5167 4.46145 16.5167 4.46145 16.5167C4.46145 16.5167 4.46145 16.5167 4.46145 16.5167C4.46145 16.5167 4.46145 16.5167 4.46145 16.5167C4.46146 16.5167 4.46146 16.5167 4.46146 16.5167C4.46146 16.5167 4.46146 16.5167 4.46146 16.5167C4.46146 16.5167 4.46147 16.5167 4.46147 16.5167C4.46147 16.5167 4.46147 16.5167 4.46147 16.5167C4.46147 16.5167 4.46147 16.5167 4.46147 16.5167C4.46148 16.5167 4.46148 16.5167 4.46148 16.5167C4.46148 16.5167 4.46148 16.5167 4.46148 16.5167C4.46148 16.5167 4.46148 16.5167 4.46149 16.5167C4.46149 16.5167 4.46149 16.5167 4.46149 16.5167C4.46149 16.5167 4.46149 16.5167 4.46149 16.5167C4.46149 16.5167 4.4615 16.5167 4.4615 16.5167C4.4615 16.5167 4.4615 16.5167 4.4615 16.5167C4.4615 16.5167 4.4615 16.5167 4.4615 16.5167C4.46151 16.5167 4.46151 16.5167 4.46151 16.5167C4.46151 16.5167 4.46151 16.5167 4.46151 16.5167C4.46151 16.5167 4.46151 16.5167 4.46152 16.5167C4.46152 16.5167 4.46152 16.5167 4.46152 16.5167C4.46152 16.5167 4.46152 16.5167 4.46152 16.5167C4.46153 16.5167 4.46153 16.5167 4.46153 16.5167C4.46153 16.5167 4.46153 16.5167 4.46153 16.5167C4.46153 16.5167 4.46153 16.5167 4.46154 16.5167C4.46154 16.5167 4.46154 16.5167 4.46154 16.5167C4.46154 16.5167 4.46154 16.5167 4.46154 16.5167C4.46154 16.5167 4.46155 16.5167 4.46155 16.5167C4.46155 16.5167 4.46155 16.5167 4.46155 16.5167C4.46155 16.5167 4.46155 16.5167 4.46155 16.5167C4.46156 16.5167 4.46156 16.5167 4.46156 16.5167C4.46156 16.5167 4.46156 16.5167 4.46156 16.5167C4.46156 16.5167 4.46156 16.5167 4.46157 16.5167C4.46157 16.5167 4.46157 16.5167 4.46157 16.5167C4.46157 16.5167 4.46157 16.5167 4.46157 16.5167C4.46157 16.5167 4.46158 16.5167 4.46158 16.5167C4.46158 16.5167 4.46158 16.5167 4.46158 16.5167C4.46158 16.5167 4.46158 16.5167 4.46159 16.5167C4.46159 16.5167 4.46159 16.5167 4.46159 16.5167C4.46159 16.5167 4.46159 16.5167 4.46159 16.5167C4.46159 16.5167 4.4616 16.5167 4.4616 16.5167C4.4616 16.5167 4.4616 16.5167 4.4616 16.5167C4.4616 16.5167 4.4616 16.5167 4.4616 16.5167C4.46161 16.5167 4.46161 16.5167 4.46161 16.5167C4.46161 16.5167 4.46161 16.5167 4.46161 16.5167C4.46161 16.5167 4.46161 16.5167 4.46162 16.5167C4.46162 16.5167 4.46162 16.5167 4.46162 16.5167C4.46162 16.5167 4.46162 16.5167 4.46162 16.5167C4.46162 16.5167 4.46163 16.5167 4.46163 16.5167C4.46163 16.5167 4.46163 16.5167 4.46163 16.5167C4.46163 16.5167 4.46163 16.5167 4.46163 16.5167C4.46164 16.5167 4.46164 16.5167 4.46164 16.5167C4.46164 16.5167 4.46164 16.5167 4.46164 16.5167C4.46164 16.5167 4.46165 16.5167 4.46165 16.5167C4.46165 16.5167 4.46165 16.5167 4.46165 16.5167L4.92545 14.5499C4.92545 14.5499 4.92545 14.5499 4.92545 14.5499C4.92545 14.5499 4.92545 14.5499 4.92545 14.5499C4.92544 14.5499 4.92544 14.5499 4.92544 14.5499C4.92544 14.5499 4.92544 14.5499 4.92544 14.5499C4.92544 14.5499 4.92543 14.5499 4.92543 14.5499C4.92543 14.5499 4.92543 14.5499 4.92543 14.5499C4.92543 14.5499 4.92543 14.5499 4.92543 14.5499C4.92542 14.5499 4.92542 14.5499 4.92542 14.5499C4.92542 14.5499 4.92542 14.5499 4.92542 14.5499C4.92542 14.5499 4.92542 14.5499 4.92541 14.5499C4.92541 14.5499 4.92541 14.5499 4.92541 14.5499C4.92541 14.5499 4.92541 14.5499 4.92541 14.5499C4.92541 14.5499 4.9254 14.5499 4.9254 14.5499C4.9254 14.5499 4.9254 14.5499 4.9254 14.5499C4.9254 14.5499 4.9254 14.5499 4.9254 14.5499C4.92539 14.5499 4.92539 14.5499 4.92539 14.5499C4.92539 14.5499 4.92539 14.5499 4.92539 14.5499C4.92539 14.5499 4.92539 14.5499 4.92538 14.5499C4.92538 14.5499 4.92538 14.5499 4.92538 14.5499C4.92538 14.5499 4.92538 14.5499 4.92538 14.5499C4.92537 14.5499 4.92537 14.5499 4.92537 14.5499C4.92537 14.5499 4.92537 14.5499 4.92537 14.5499C4.92537 14.5499 4.92537 14.5499 4.92536 14.5499C4.92536 14.5499 4.92536 14.5499 4.92536 14.5499C4.92536 14.5498 4.92536 14.5498 4.92536 14.5498C4.92536 14.5498 4.92535 14.5498 4.92535 14.5498C4.92535 14.5498 4.92535 14.5498 4.92535 14.5498C4.92535 14.5498 4.92535 14.5498 4.92535 14.5498C4.92534 14.5498 4.92534 14.5498 4.92534 14.5498C4.92534 14.5498 4.92534 14.5498 4.92534 14.5498C4.92534 14.5498 4.92534 14.5498 4.92533 14.5498C4.92533 14.5498 4.92533 14.5498 4.92533 14.5498C4.92533 14.5498 4.92533 14.5498 4.92533 14.5498C4.92533 14.5498 4.92532 14.5498 4.92532 14.5498C4.92532 14.5498 4.92532 14.5498 4.92532 14.5498C4.92532 14.5498 4.92532 14.5498 4.92531 14.5498C4.92531 14.5498 4.92531 14.5498 4.92531 14.5498C4.92531 14.5498 4.92531 14.5498 4.92531 14.5498C4.92531 14.5498 4.9253 14.5498 4.9253 14.5498C4.9253 14.5498 4.9253 14.5498 4.9253 14.5498C4.9253 14.5498 4.9253 14.5498 4.9253 14.5498C4.92529 14.5498 4.92529 14.5498 4.92529 14.5498C4.92529 14.5498 4.92529 14.5498 4.92529 14.5498C4.92529 14.5498 4.92529 14.5498 4.92528 14.5498C4.92528 14.5498 4.92528 14.5498 4.92528 14.5498C4.92528 14.5498 4.92528 14.5498 4.92528 14.5498C4.92528 14.5498 4.92527 14.5498 4.92527 14.5498C4.92527 14.5498 4.92527 14.5498 4.92527 14.5498C4.92527 14.5498 4.92527 14.5498 4.92527 14.5498C4.92526 14.5498 4.92526 14.5498 4.92526 14.5498C4.92526 14.5498 4.92526 14.5498 4.92526 14.5498C4.92526 14.5498 4.92525 14.5498 4.92525 14.5498C4.92525 14.5498 4.92525 14.5498 4.92525 14.5498C4.92525 14.5498 4.92525 14.5498 4.92525 14.5498C4.92524 14.5498 4.92524 14.5498 4.92524 14.5498C4.92524 14.5498 4.92524 14.5498 4.92524 14.5498C4.92524 14.5498 4.92524 14.5498 4.92523 14.5498C4.92523 14.5498 4.92523 14.5498 4.92523 14.5498C4.92523 14.5498 4.92523 14.5498 4.92523 14.5498C4.92523 14.5498 4.92522 14.5498 4.92522 14.5498C4.92522 14.5498 4.92522 14.5498 4.92522 14.5498C4.92522 14.5498 4.92522 14.5498 4.92522 14.5498C4.92521 14.5498 4.92521 14.5498 4.92521 14.5498C4.92521 14.5498 4.92521 14.5498 4.92521 14.5498C4.92521 14.5498 4.92521 14.5498 4.9252 14.5498C4.9252 14.5498 4.9252 14.5498 4.9252 14.5498C4.9252 14.5498 4.9252 14.5498 4.9252 14.5498C4.92519 14.5498 4.92519 14.5498 4.92519 14.5498C4.92519 14.5498 4.92519 14.5498 4.92519 14.5498C4.92519 14.5498 4.92519 14.5498 4.92518 14.5498C4.92518 14.5498 4.92518 14.5498 4.92518 14.5498C4.92518 14.5498 4.92518 14.5498 4.92518 14.5498C4.92518 14.5498 4.92517 14.5498 4.92517 14.5498C4.92517 14.5498 4.92517 14.5498 4.92517 14.5498C4.92517 14.5498 4.92517 14.5498 4.92517 14.5498C4.92516 14.5498 4.92516 14.5498 4.92516 14.5498C4.92516 14.5498 4.92516 14.5498 4.92516 14.5498C4.92516 14.5498 4.92516 14.5498 4.92515 14.5498C4.92515 14.5498 4.92515 14.5498 4.92515 14.5498C4.92515 14.5498 4.92515 14.5498 4.92515 14.5498C4.92514 14.5498 4.92514 14.5498 4.92514 14.5498C4.92514 14.5498 4.92514 14.5498 4.92514 14.5498C4.92514 14.5498 4.92514 14.5498 4.92513 14.5498C4.92513 14.5498 4.92513 14.5498 4.92513 14.5498C4.92513 14.5498 4.92513 14.5498 4.92513 14.5498C4.92513 14.5498 4.92512 14.5498 4.92512 14.5498C4.92512 14.5498 4.92512 14.5498 4.92512 14.5498C4.92512 14.5498 4.92512 14.5498 4.92512 14.5498C4.92511 14.5498 4.92511 14.5498 4.92511 14.5498C4.92511 14.5498 4.92511 14.5498 4.92511 14.5498C4.92511 14.5498 4.92511 14.5498 4.9251 14.5498C4.9251 14.5498 4.9251 14.5498 4.9251 14.5498C4.9251 14.5498 4.9251 14.5498 4.9251 14.5498C4.9251 14.5498 4.92509 14.5498 4.92509 14.5498C4.92509 14.5498 4.92509 14.5498 4.92509 14.5498C4.92509 14.5498 4.92509 14.5498 4.92508 14.5498C4.92508 14.5498 4.92508 14.5498 4.92508 14.5498C4.92508 14.5498 4.92508 14.5498 4.92508 14.5498C4.92508 14.5498 4.92507 14.5498 4.92507 14.5498C4.92507 14.5498 4.92507 14.5498 4.92507 14.5498C4.92507 14.5498 4.92507 14.5498 4.92507 14.5498C4.92506 14.5498 4.92506 14.5498 4.92506 14.5498C4.92506 14.5498 4.92506 14.5498 4.92506 14.5498C4.92506 14.5498 4.92506 14.5498 4.92505 14.5498C4.92505 14.5498 4.92505 14.5498 4.92505 14.5498C4.92505 14.5498 4.92505 14.5498 4.92505 14.5498C4.92505 14.5498 4.92504 14.5498 4.92504 14.5498C4.92504 14.5498 4.92504 14.5498 4.92504 14.5498C4.92504 14.5498 4.92504 14.5498 4.92504 14.5498C4.92503 14.5498 4.92503 14.5498 4.92503 14.5498C4.92503 14.5498 4.92503 14.5498 4.92503 14.5498C4.92503 14.5498 4.92502 14.5498 4.92502 14.5498C4.92502 14.5498 4.92502 14.5498 4.92502 14.5498C4.92502 14.5498 4.92502 14.5498 4.92502 14.5498C4.92501 14.5498 4.92501 14.5498 4.92501 14.5498C4.92501 14.5498 4.92501 14.5498 4.92501 14.5498C4.92501 14.5498 4.92501 14.5498 4.925 14.5498C4.925 14.5498 4.925 14.5498 4.925 14.5498C4.925 14.5498 4.925 14.5498 4.925 14.5498C4.925 14.5498 4.92499 14.5498 4.92499 14.5498C4.92499 14.5498 4.92499 14.5498 4.92499 14.5498C4.92499 14.5498 4.92499 14.5498 4.92499 14.5498C4.92498 14.5498 4.92498 14.5498 4.92498 14.5498C4.92498 14.5498 4.92498 14.5498 4.92498 14.5498C4.92498 14.5498 4.92498 14.5498 4.92497 14.5498C4.92497 14.5498 4.92497 14.5498 4.92497 14.5498C4.92497 14.5498 4.92497 14.5498 4.92497 14.5498C4.92496 14.5498 4.92496 14.5498 4.92496 14.5498C4.92496 14.5498 4.92496 14.5498 4.92496 14.5498C4.92496 14.5498 4.92496 14.5498 4.92495 14.5498C4.92495 14.5498 4.92495 14.5498 4.92495 14.5498C4.92495 14.5498 4.92495 14.5498 4.92495 14.5498C4.92495 14.5498 4.92494 14.5498 4.92494 14.5498C4.92494 14.5498 4.92494 14.5498 4.92494 14.5498C4.92494 14.5498 4.92494 14.5498 4.92494 14.5497C4.92493 14.5497 4.92493 14.5497 4.92493 14.5497C4.92493 14.5497 4.92493 14.5497 4.92493 14.5497C4.92493 14.5497 4.92493 14.5497 4.92492 14.5497C4.92492 14.5497 4.92492 14.5497 4.92492 14.5497C4.92492 14.5497 4.92492 14.5497 4.92492 14.5497C4.92492 14.5497 4.92491 14.5497 4.92491 14.5497C4.92491 14.5497 4.92491 14.5497 4.92491 14.5497C4.92491 14.5497 4.92491 14.5497 4.9249 14.5497C4.9249 14.5497 4.9249 14.5497 4.9249 14.5497C4.9249 14.5497 4.9249 14.5497 4.9249 14.5497C4.9249 14.5497 4.92489 14.5497 4.92489 14.5497C4.92489 14.5497 4.92489 14.5497 4.92489 14.5497C4.92489 14.5497 4.92489 14.5497 4.92489 14.5497C4.92488 14.5497 4.92488 14.5497 4.92488 14.5497C4.92488 14.5497 4.92488 14.5497 4.92488 14.5497C4.92488 14.5497 4.92488 14.5497 4.92487 14.5497C4.92487 14.5497 4.92487 14.5497 4.92487 14.5497C4.92487 14.5497 4.92487 14.5497 4.92487 14.5497C4.92487 14.5497 4.92486 14.5497 4.92486 14.5497C4.92486 14.5497 4.92486 14.5497 4.92486 14.5497C4.92486 14.5497 4.92486 14.5497 4.92486 14.5497C4.92485 14.5497 4.92485 14.5497 4.92485 14.5497C4.92485 14.5497 4.92485 14.5497 4.92485 14.5497C4.92485 14.5497 4.92484 14.5497 4.92484 14.5497C4.92484 14.5497 4.92484 14.5497 4.92484 14.5497C4.92484 14.5497 4.92484 14.5497 4.92484 14.5497C4.92483 14.5497 4.92483 14.5497 4.92483 14.5497C4.92483 14.5497 4.92483 14.5497 4.92483 14.5497C4.92483 14.5497 4.92483 14.5497 4.92482 14.5497C4.92482 14.5497 4.92482 14.5497 4.92482 14.5497C4.92482 14.5497 4.92482 14.5497 4.92482 14.5497C4.92482 14.5497 4.92481 14.5497 4.92481 14.5497C4.92481 14.5497 4.92481 14.5497 4.92481 14.5497C4.92481 14.5497 4.92481 14.5497 4.92481 14.5497C4.9248 14.5497 4.9248 14.5497 4.9248 14.5497C4.9248 14.5497 4.9248 14.5497 4.9248 14.5497C4.9248 14.5497 4.9248 14.5497 4.92479 14.5497C4.92479 14.5497 4.92479 14.5497 4.92479 14.5497C4.92479 14.5497 4.92479 14.5497 4.92479 14.5497C4.92478 14.5497 4.92478 14.5497 4.92478 14.5497C4.92478 14.5497 4.92478 14.5497 4.92478 14.5497C4.92478 14.5497 4.92478 14.5497 4.92477 14.5497C4.92477 14.5497 4.92477 14.5497 4.92477 14.5497C4.92477 14.5497 4.92477 14.5497 4.92477 14.5497C4.92477 14.5497 4.92476 14.5497 4.92476 14.5497C4.92476 14.5497 4.92476 14.5497 4.92476 14.5497C4.92476 14.5497 4.92476 14.5497 4.92476 14.5497C4.92475 14.5497 4.92475 14.5497 4.92475 14.5497C4.92475 14.5497 4.92475 14.5497 4.92475 14.5497C4.92475 14.5497 4.92475 14.5497 4.92474 14.5497C4.92474 14.5497 4.92474 14.5497 4.92474 14.5497C4.92474 14.5497 4.92474 14.5497 4.92474 14.5497C4.92474 14.5497 4.92473 14.5497 4.92473 14.5497C4.92473 14.5497 4.92473 14.5497 4.92473 14.5497C4.92473 14.5497 4.92473 14.5497 4.92472 14.5497C4.92472 14.5497 4.92472 14.5497 4.92472 14.5497C4.92472 14.5497 4.92472 14.5497 4.92472 14.5497C4.92472 14.5497 4.92471 14.5497 4.92471 14.5497C4.92471 14.5497 4.92471 14.5497 4.92471 14.5497C4.92471 14.5497 4.92471 14.5497 4.92471 14.5497C4.9247 14.5497 4.9247 14.5497 4.9247 14.5497C4.9247 14.5497 4.9247 14.5497 4.9247 14.5497C4.9247 14.5497 4.9247 14.5497 4.92469 14.5497C4.92469 14.5497 4.92469 14.5497 4.92469 14.5497C4.92469 14.5497 4.92469 14.5497 4.92469 14.5497C4.92469 14.5497 4.92468 14.5497 4.92468 14.5497C4.92468 14.5497 4.92468 14.5497 4.92468 14.5497C4.92468 14.5497 4.92468 14.5497 4.92468 14.5497C4.92467 14.5497 4.92467 14.5497 4.92467 14.5497C4.92467 14.5497 4.92467 14.5497 4.92467 14.5497C4.92467 14.5497 4.92466 14.5497 4.92466 14.5497C4.92466 14.5497 4.92466 14.5497 4.92466 14.5497C4.92466 14.5497 4.92466 14.5497 4.92466 14.5497C4.92465 14.5497 4.92465 14.5497 4.92465 14.5497C4.92465 14.5497 4.92465 14.5497 4.92465 14.5497C4.92465 14.5497 4.92465 14.5497 4.92464 14.5497C4.92464 14.5497 4.92464 14.5497 4.92464 14.5497C4.92464 14.5497 4.92464 14.5497 4.92464 14.5497C4.92464 14.5497 4.92463 14.5497 4.92463 14.5497C4.92463 14.5497 4.92463 14.5497 4.92463 14.5497C4.92463 14.5497 4.92463 14.5497 4.92463 14.5497C4.92462 14.5497 4.92462 14.5497 4.92462 14.5497C4.92462 14.5497 4.92462 14.5497 4.92462 14.5497C4.92462 14.5497 4.92462 14.5497 4.92461 14.5497C4.92461 14.5497 4.92461 14.5497 4.92461 14.5497C4.92461 14.5497 4.92461 14.5497 4.92461 14.5497C4.9246 14.5497 4.9246 14.5497 4.9246 14.5497C4.9246 14.5497 4.9246 14.5497 4.9246 14.5497C4.9246 14.5497 4.9246 14.5497 4.92459 14.5497C4.92459 14.5497 4.92459 14.5497 4.92459 14.5497C4.92459 14.5497 4.92459 14.5497 4.92459 14.5497C4.92459 14.5497 4.92458 14.5497 4.92458 14.5497C4.92458 14.5497 4.92458 14.5497 4.92458 14.5497C4.92458 14.5497 4.92458 14.5497 4.92458 14.5497C4.92457 14.5497 4.92457 14.5497 4.92457 14.5497C4.92457 14.5497 4.92457 14.5497 4.92457 14.5497C4.92457 14.5497 4.92457 14.5497 4.92456 14.5497C4.92456 14.5497 4.92456 14.5497 4.92456 14.5497C4.92456 14.5497 4.92456 14.5497 4.92456 14.5497C4.92456 14.5497 4.92455 14.5497 4.92455 14.5497C4.92455 14.5497 4.92455 14.5497 4.92455 14.5497C4.92455 14.5497 4.92455 14.5497 4.92454 14.5497C4.92454 14.5497 4.92454 14.5497 4.92454 14.5497C4.92454 14.5497 4.92454 14.5497 4.92454 14.5497C4.92454 14.5497 4.92453 14.5497 4.92453 14.5497C4.92453 14.5497 4.92453 14.5497 4.92453 14.5497C4.92453 14.5497 4.92453 14.5497 4.92453 14.5497C4.92452 14.5497 4.92452 14.5497 4.92452 14.5497C4.92452 14.5497 4.92452 14.5497 4.92452 14.5497C4.92452 14.5497 4.92452 14.5497 4.92451 14.5497C4.92451 14.5497 4.92451 14.5496 4.92451 14.5496C4.92451 14.5496 4.92451 14.5496 4.92451 14.5496C4.92451 14.5496 4.9245 14.5496 4.9245 14.5496C4.9245 14.5496 4.9245 14.5496 4.9245 14.5496C4.9245 14.5496 4.9245 14.5496 4.9245 14.5496C4.92449 14.5496 4.92449 14.5496 4.92449 14.5496C4.92449 14.5496 4.92449 14.5496 4.92449 14.5496C4.92449 14.5496 4.92448 14.5496 4.92448 14.5496C4.92448 14.5496 4.92448 14.5496 4.92448 14.5496C4.92448 14.5496 4.92448 14.5496 4.92448 14.5496C4.92447 14.5496 4.92447 14.5496 4.92447 14.5496C4.92447 14.5496 4.92447 14.5496 4.92447 14.5496C4.92447 14.5496 4.92447 14.5496 4.92446 14.5496C4.92446 14.5496 4.92446 14.5496 4.92446 14.5496C4.92446 14.5496 4.92446 14.5496 4.92446 14.5496C4.92446 14.5496 4.92445 14.5496 4.92445 14.5496C4.92445 14.5496 4.92445 14.5496 4.92445 14.5496C4.92445 14.5496 4.92445 14.5496 4.92445 14.5496C4.92444 14.5496 4.92444 14.5496 4.92444 14.5496C4.92444 14.5496 4.92444 14.5496 4.92444 14.5496C4.92444 14.5496 4.92444 14.5496 4.92443 14.5496C4.92443 14.5496 4.92443 14.5496 4.92443 14.5496C4.92443 14.5496 4.92443 14.5496 4.92443 14.5496C4.92442 14.5496 4.92442 14.5496 4.92442 14.5496C4.92442 14.5496 4.92442 14.5496 4.92442 14.5496C4.92442 14.5496 4.92442 14.5496 4.92441 14.5496C4.92441 14.5496 4.92441 14.5496 4.92441 14.5496C4.92441 14.5496 4.92441 14.5496 4.92441 14.5496C4.92441 14.5496 4.9244 14.5496 4.9244 14.5496C4.9244 14.5496 4.9244 14.5496 4.9244 14.5496C4.9244 14.5496 4.9244 14.5496 4.9244 14.5496C4.92439 14.5496 4.92439 14.5496 4.92439 14.5496C4.92439 14.5496 4.92439 14.5496 4.92439 14.5496C4.92439 14.5496 4.92439 14.5496 4.92438 14.5496C4.92438 14.5496 4.92438 14.5496 4.92438 14.5496C4.92438 14.5496 4.92438 14.5496 4.92438 14.5496C4.92438 14.5496 4.92437 14.5496 4.92437 14.5496C4.92437 14.5496 4.92437 14.5496 4.92437 14.5496C4.92437 14.5496 4.92437 14.5496 4.92436 14.5496C4.92436 14.5496 4.92436 14.5496 4.92436 14.5496C4.92436 14.5496 4.92436 14.5496 4.92436 14.5496C4.92436 14.5496 4.92435 14.5496 4.92435 14.5496C4.92435 14.5496 4.92435 14.5496 4.92435 14.5496C4.92435 14.5496 4.92435 14.5496 4.92435 14.5496C4.92434 14.5496 4.92434 14.5496 4.92434 14.5496C4.92434 14.5496 4.92434 14.5496 4.92434 14.5496C4.92434 14.5496 4.92434 14.5496 4.92433 14.5496C4.92433 14.5496 4.92433 14.5496 4.92433 14.5496C4.92433 14.5496 4.92433 14.5496 4.92433 14.5496C4.92433 14.5496 4.92432 14.5496 4.92432 14.5496C4.92432 14.5496 4.92432 14.5496 4.92432 14.5496C4.92432 14.5496 4.92432 14.5496 4.92432 14.5496C4.92431 14.5496 4.92431 14.5496 4.92431 14.5496C4.92431 14.5496 4.92431 14.5496 4.92431 14.5496C4.92431 14.5496 4.9243 14.5496 4.9243 14.5496C4.9243 14.5496 4.9243 14.5496 4.9243 14.5496C4.9243 14.5496 4.9243 14.5496 4.9243 14.5496C4.92429 14.5496 4.92429 14.5496 4.92429 14.5496C4.92429 14.5496 4.92429 14.5496 4.92429 14.5496C4.92429 14.5496 4.92429 14.5496 4.92428 14.5496C4.92428 14.5496 4.92428 14.5496 4.92428 14.5496C4.92428 14.5496 4.92428 14.5496 4.92428 14.5496C4.92428 14.5496 4.92427 14.5496 4.92427 14.5496C4.92427 14.5496 4.92427 14.5496 4.92427 14.5496C4.92427 14.5496 4.92427 14.5496 4.92427 14.5496C4.92426 14.5496 4.92426 14.5496 4.92426 14.5496C4.92426 14.5496 4.92426 14.5496 4.92426 14.5496C4.92426 14.5496 4.92426 14.5496 4.92425 14.5496C4.92425 14.5496 4.92425 14.5496 4.92425 14.5496C4.92425 14.5496 4.92425 14.5496 4.92425 14.5496C4.92424 14.5496 4.92424 14.5496 4.92424 14.5496C4.92424 14.5496 4.92424 14.5496 4.92424 14.5496C4.92424 14.5496 4.92424 14.5496 4.92423 14.5496C4.92423 14.5496 4.92423 14.5496 4.92423 14.5496C4.92423 14.5496 4.92423 14.5496 4.92423 14.5496C4.92423 14.5496 4.92422 14.5496 4.92422 14.5496C4.92422 14.5496 4.92422 14.5496 4.92422 14.5496C4.92422 14.5496 4.92422 14.5496 4.92422 14.5496C4.92421 14.5496 4.92421 14.5496 4.92421 14.5496C4.92421 14.5496 4.92421 14.5496 4.92421 14.5496C4.92421 14.5496 4.92421 14.5496 4.9242 14.5496C4.9242 14.5496 4.9242 14.5496 4.9242 14.5496C4.9242 14.5496 4.9242 14.5496 4.9242 14.5496C4.9242 14.5496 4.92419 14.5496 4.92419 14.5496C4.92419 14.5496 4.92419 14.5496 4.92419 14.5496C4.92419 14.5496 4.92419 14.5496 4.92418 14.5496C4.92418 14.5496 4.92418 14.5496 4.92418 14.5496C4.92418 14.5496 4.92418 14.5496 4.92418 14.5496C4.92418 14.5496 4.92417 14.5496 4.92417 14.5496C4.92417 14.5496 4.92417 14.5496 4.92417 14.5496C4.92417 14.5496 4.92417 14.5496 4.92417 14.5496C4.92416 14.5496 4.92416 14.5496 4.92416 14.5496C4.92416 14.5496 4.92416 14.5496 4.92416 14.5496C4.92416 14.5496 4.92416 14.5496 4.92415 14.5496C4.92415 14.5496 4.92415 14.5496 4.92415 14.5496C4.92415 14.5496 4.92415 14.5496 4.92415 14.5496C4.92415 14.5496 4.92414 14.5496 4.92414 14.5496C4.92414 14.5496 4.92414 14.5496 4.92414 14.5496C4.92414 14.5496 4.92414 14.5496 4.92414 14.5496C4.92413 14.5496 4.92413 14.5496 4.92413 14.5496C4.92413 14.5496 4.92413 14.5496 4.92413 14.5496C4.92413 14.5496 4.92412 14.5496 4.92412 14.5496C4.92412 14.5496 4.92412 14.5496 4.92412 14.5496C4.92412 14.5496 4.92412 14.5496 4.92412 14.5496C4.92411 14.5496 4.92411 14.5496 4.92411 14.5496C4.92411 14.5496 4.92411 14.5496 4.92411 14.5496C4.92411 14.5496 4.92411 14.5496 4.9241 14.5496C4.9241 14.5496 4.9241 14.5496 4.9241 14.5496C4.9241 14.5496 4.9241 14.5496 4.9241 14.5496C4.9241 14.5496 4.92409 14.5496 4.92409 14.5496C4.92409 14.5496 4.92409 14.5496 4.92409 14.5496C4.92409 14.5495 4.92409 14.5495 4.92409 14.5495C4.92408 14.5495 4.92408 14.5495 4.92408 14.5495C4.92408 14.5495 4.92408 14.5495 4.92408 14.5495C4.92408 14.5495 4.92408 14.5495 4.92407 14.5495C4.92407 14.5495 4.92407 14.5495 4.92407 14.5495C4.92407 14.5495 4.92407 14.5495 4.92407 14.5495C4.92406 14.5495 4.92406 14.5495 4.92406 14.5495C4.92406 14.5495 4.92406 14.5495 4.92406 14.5495C4.92406 14.5495 4.92406 14.5495 4.92405 14.5495C4.92405 14.5495 4.92405 14.5495 4.92405 14.5495C4.92405 14.5495 4.92405 14.5495 4.92405 14.5495C4.92405 14.5495 4.92404 14.5495 4.92404 14.5495C4.92404 14.5495 4.92404 14.5495 4.92404 14.5495C4.92404 14.5495 4.92404 14.5495 4.92404 14.5495C4.92403 14.5495 4.92403 14.5495 4.92403 14.5495C4.92403 14.5495 4.92403 14.5495 4.92403 14.5495C4.92403 14.5495 4.92403 14.5495 4.92402 14.5495C4.92402 14.5495 4.92402 14.5495 4.92402 14.5495C4.92402 14.5495 4.92402 14.5495 4.92402 14.5495C4.92402 14.5495 4.92401 14.5495 4.92401 14.5495C4.92401 14.5495 4.92401 14.5495 4.92401 14.5495C4.92401 14.5495 4.92401 14.5495 4.924 14.5495C4.924 14.5495 4.924 14.5495 4.924 14.5495C4.924 14.5495 4.924 14.5495 4.924 14.5495C4.924 14.5495 4.92399 14.5495 4.92399 14.5495C4.92399 14.5495 4.92399 14.5495 4.92399 14.5495C4.92399 14.5495 4.92399 14.5495 4.92399 14.5495C4.92398 14.5495 4.92398 14.5495 4.92398 14.5495C4.92398 14.5495 4.92398 14.5495 4.92398 14.5495C4.92398 14.5495 4.92398 14.5495 4.92397 14.5495C4.92397 14.5495 4.92397 14.5495 4.92397 14.5495C4.92397 14.5495 4.92397 14.5495 4.92397 14.5495C4.92397 14.5495 4.92396 14.5495 4.92396 14.5495C4.92396 14.5495 4.92396 14.5495 4.92396 14.5495C4.92396 14.5495 4.92396 14.5495 4.92396 14.5495C4.92395 14.5495 4.92395 14.5495 4.92395 14.5495C4.92395 14.5495 4.92395 14.5495 4.92395 14.5495C4.92395 14.5495 4.92394 14.5495 4.92394 14.5495C4.92394 14.5495 4.92394 14.5495 4.92394 14.5495C4.92394 14.5495 4.92394 14.5495 4.92394 14.5495C4.92393 14.5495 4.92393 14.5495 4.92393 14.5495C4.92393 14.5495 4.92393 14.5495 4.92393 14.5495C4.92393 14.5495 4.92393 14.5495 4.92392 14.5495C4.92392 14.5495 4.92392 14.5495 4.92392 14.5495C4.92392 14.5495 4.92392 14.5495 4.92392 14.5495C4.92392 14.5495 4.92391 14.5495 4.92391 14.5495C4.92391 14.5495 4.92391 14.5495 4.92391 14.5495C4.92391 14.5495 4.92391 14.5495 4.92391 14.5495C4.9239 14.5495 4.9239 14.5495 4.9239 14.5495C4.9239 14.5495 4.9239 14.5495 4.9239 14.5495C4.9239 14.5495 4.9239 14.5495 4.92389 14.5495C4.92389 14.5495 4.92389 14.5495 4.92389 14.5495C4.92389 14.5495 4.92389 14.5495 4.92389 14.5495C4.92388 14.5495 4.92388 14.5495 4.92388 14.5495C4.92388 14.5495 4.92388 14.5495 4.92388 14.5495C4.92388 14.5495 4.92388 14.5495 4.92387 14.5495C4.92387 14.5495 4.92387 14.5495 4.92387 14.5495C4.92387 14.5495 4.92387 14.5495 4.92387 14.5495C4.92387 14.5495 4.92386 14.5495 4.92386 14.5495C4.92386 14.5495 4.92386 14.5495 4.92386 14.5495C4.92386 14.5495 4.92386 14.5495 4.92386 14.5495C4.92385 14.5495 4.92385 14.5495 4.92385 14.5495C4.92385 14.5495 4.92385 14.5495 4.92385 14.5495C4.92385 14.5495 4.92385 14.5495 4.92384 14.5495C4.92384 14.5495 4.92384 14.5495 4.92384 14.5495C4.92384 14.5495 4.92384 14.5495 4.92384 14.5495C4.92384 14.5495 4.92383 14.5495 4.92383 14.5495C4.92383 14.5495 4.92383 14.5495 4.92383 14.5495C4.92383 14.5495 4.92383 14.5495 4.92382 14.5495C4.92382 14.5495 4.92382 14.5495 4.92382 14.5495C4.92382 14.5495 4.92382 14.5495 4.92382 14.5495C4.92382 14.5495 4.92381 14.5495 4.92381 14.5495C4.92381 14.5495 4.92381 14.5495 4.92381 14.5495C4.92381 14.5495 4.92381 14.5495 4.92381 14.5495C4.9238 14.5495 4.9238 14.5495 4.9238 14.5495C4.9238 14.5495 4.9238 14.5495 4.9238 14.5495C4.9238 14.5495 4.9238 14.5495 4.92379 14.5495C4.92379 14.5495 4.92379 14.5495 4.92379 14.5495C4.92379 14.5495 4.92379 14.5495 4.92379 14.5495C4.92379 14.5495 4.92378 14.5495 4.92378 14.5495C4.92378 14.5495 4.92378 14.5495 4.92378 14.5495C4.92378 14.5495 4.92378 14.5495 4.92378 14.5495C4.92377 14.5495 4.92377 14.5495 4.92377 14.5495C4.92377 14.5495 4.92377 14.5495 4.92377 14.5495C4.92377 14.5495 4.92376 14.5495 4.92376 14.5495C4.92376 14.5495 4.92376 14.5495 4.92376 14.5495C4.92376 14.5495 4.92376 14.5495 4.92376 14.5495C4.92375 14.5495 4.92375 14.5495 4.92375 14.5495C4.92375 14.5495 4.92375 14.5495 4.92375 14.5495C4.92375 14.5495 4.92375 14.5495 4.92374 14.5495C4.92374 14.5495 4.92374 14.5495 4.92374 14.5495C4.92374 14.5495 4.92374 14.5495 4.92374 14.5495C4.92374 14.5495 4.92373 14.5495 4.92373 14.5495C4.92373 14.5495 4.92373 14.5495 4.92373 14.5495C4.92373 14.5495 4.92373 14.5495 4.92373 14.5495C4.92372 14.5495 4.92372 14.5495 4.92372 14.5495C4.92372 14.5495 4.92372 14.5495 4.92372 14.5495C4.92372 14.5495 4.92372 14.5495 4.92371 14.5495C4.92371 14.5495 4.92371 14.5495 4.92371 14.5495C4.92371 14.5495 4.92371 14.5495 4.92371 14.5495C4.9237 14.5495 4.9237 14.5495 4.9237 14.5495C4.9237 14.5495 4.9237 14.5495 4.9237 14.5495C4.9237 14.5495 4.9237 14.5495 4.92369 14.5495C4.92369 14.5495 4.92369 14.5495 4.92369 14.5495C4.92369 14.5495 4.92369 14.5495 4.92369 14.5495C4.92369 14.5495 4.92368 14.5495 4.92368 14.5495C4.92368 14.5495 4.92368 14.5495 4.92368 14.5495C4.92368 14.5495 4.92368 14.5495 4.92368 14.5495C4.92367 14.5495 4.92367 14.5495 4.92367 14.5495C4.92367 14.5495 4.92367 14.5495 4.92367 14.5495C4.92367 14.5495 4.92367 14.5495 4.92366 14.5494C4.92366 14.5494 4.92366 14.5494 4.92366 14.5494C4.92366 14.5494 4.92366 14.5494 4.92366 14.5494C4.92366 14.5494 4.92365 14.5494 4.92365 14.5494C4.92365 14.5494 4.92365 14.5494 4.92365 14.5494C4.92365 14.5494 4.92365 14.5494 4.92364 14.5494C4.92364 14.5494 4.92364 14.5494 4.92364 14.5494C4.92364 14.5494 4.92364 14.5494 4.92364 14.5494C4.92364 14.5494 4.92363 14.5494 4.92363 14.5494C4.92363 14.5494 4.92363 14.5494 4.92363 14.5494C4.92363 14.5494 4.92363 14.5494 4.92363 14.5494C4.92362 14.5494 4.92362 14.5494 4.92362 14.5494C4.92362 14.5494 4.92362 14.5494 4.92362 14.5494C4.92362 14.5494 4.92362 14.5494 4.92361 14.5494C4.92361 14.5494 4.92361 14.5494 4.92361 14.5494C4.92361 14.5494 4.92361 14.5494 4.92361 14.5494C4.92361 14.5494 4.9236 14.5494 4.9236 14.5494C4.9236 14.5494 4.9236 14.5494 4.9236 14.5494C4.9236 14.5494 4.9236 14.5494 4.9236 14.5494C4.92359 14.5494 4.92359 14.5494 4.92359 14.5494C4.92359 14.5494 4.92359 14.5494 4.92359 14.5494C4.92359 14.5494 4.92358 14.5494 4.92358 14.5494C4.92358 14.5494 4.92358 14.5494 4.92358 14.5494C4.92358 14.5494 4.92358 14.5494 4.92358 14.5494C4.92357 14.5494 4.92357 14.5494 4.92357 14.5494C4.92357 14.5494 4.92357 14.5494 4.92357 14.5494C4.92357 14.5494 4.92357 14.5494 4.92356 14.5494C4.92356 14.5494 4.92356 14.5494 4.92356 14.5494C4.92356 14.5494 4.92356 14.5494 4.92356 14.5494C4.92356 14.5494 4.92355 14.5494 4.92355 14.5494C4.92355 14.5494 4.92355 14.5494 4.92355 14.5494C4.92355 14.5494 4.92355 14.5494 4.92355 14.5494C4.92354 14.5494 4.92354 14.5494 4.92354 14.5494C4.92354 14.5494 4.92354 14.5494 4.92354 14.5494C4.92354 14.5494 4.92354 14.5494 4.92353 14.5494C4.92353 14.5494 4.92353 14.5494 4.92353 14.5494C4.92353 14.5494 4.92353 14.5494 4.92353 14.5494C4.92352 14.5494 4.92352 14.5494 4.92352 14.5494C4.92352 14.5494 4.92352 14.5494 4.92352 14.5494C4.92352 14.5494 4.92352 14.5494 4.92351 14.5494C4.92351 14.5494 4.92351 14.5494 4.92351 14.5494C4.92351 14.5494 4.92351 14.5494 4.92351 14.5494C4.92351 14.5494 4.9235 14.5494 4.9235 14.5494C4.9235 14.5494 4.9235 14.5494 4.9235 14.5494C4.9235 14.5494 4.9235 14.5494 4.9235 14.5494C4.92349 14.5494 4.92349 14.5494 4.92349 14.5494L4.45969 16.5163ZM6.4534 3.65908L3.70816 15.3009L5.67502 15.7647L8.42027 4.12288L6.4534 3.65908Z" fill="#A4A8AF" fill-opacity="0.2" mask="url(#path-1-inside-1_2713_30239)"/>
</svg>
