<svg width="18" height="18" viewBox="0 0 18 18" fill="none" xmlns="http://www.w3.org/2000/svg">
<path fill-rule="evenodd" clip-rule="evenodd" d="M11.25 1.125V2.25C11.9959 2.25 12.7113 2.54632 13.2387 3.07376C13.7662 3.60121 14.0625 4.31658 14.0625 5.0625C14.0625 5.80842 13.7662 6.52379 13.2387 7.05124C12.7113 7.57868 11.9959 7.875 11.25 7.875V9C12.2943 9 13.2958 8.58516 14.0342 7.84673C14.7727 7.10831 15.1875 6.10679 15.1875 5.0625C15.1875 4.01821 14.7727 3.01669 14.0342 2.27827C13.2958 1.53984 12.2943 1.125 11.25 1.125ZM11.25 16.875H12.375V14.0625C12.3738 13.0186 11.9585 12.0178 11.2204 11.2796C10.4822 10.5415 9.48141 10.1262 8.4375 10.125H5.0625C4.01858 10.1262 3.01778 10.5415 2.27962 11.2796C1.54146 12.0178 1.12622 13.0186 1.125 14.0625V16.875H2.25V14.0625C2.25088 13.3168 2.54748 12.602 3.07473 12.0747C3.60199 11.5475 4.31685 11.2509 5.0625 11.25H8.4375C9.18315 11.2509 9.89801 11.5475 10.4253 12.0747C10.9525 12.602 11.2491 13.3168 11.25 14.0625V16.875ZM15.75 16.875H16.875V14.0625C16.8738 13.0186 16.4586 12.0177 15.7205 11.2795C14.9823 10.5414 13.9814 10.1262 12.9375 10.125V11.25C13.6832 11.2508 14.398 11.5474 14.9253 12.0747C15.4526 12.602 15.7492 13.3168 15.75 14.0625V16.875ZM8.31254 2.72399C7.85003 2.41495 7.30626 2.25 6.75 2.25C6.00408 2.25 5.28871 2.54632 4.76126 3.07376C4.23382 3.60121 3.9375 4.31658 3.9375 5.0625C3.9375 5.61876 4.10245 6.16253 4.41149 6.62504C4.72054 7.08755 5.15979 7.44804 5.67371 7.66091C6.18762 7.87378 6.75312 7.92948 7.29869 7.82096C7.84426 7.71244 8.3454 7.44457 8.73874 7.05124C9.13207 6.6579 9.39994 6.15676 9.50846 5.61119C9.61698 5.06562 9.56128 4.50012 9.34841 3.9862C9.13554 3.47229 8.77506 3.03303 8.31254 2.72399ZM4.56244 1.78859C5.20996 1.35593 5.97124 1.125 6.75 1.125C7.79429 1.125 8.79581 1.53984 9.53423 2.27827C10.2727 3.01669 10.6875 4.01821 10.6875 5.0625C10.6875 5.84126 10.4566 6.60254 10.0239 7.25006C9.59126 7.89758 8.9763 8.40225 8.25682 8.70027C7.53733 8.99829 6.74563 9.07627 5.98183 8.92434C5.21803 8.77241 4.51644 8.3974 3.96577 7.84673C3.4151 7.29606 3.04009 6.59447 2.88816 5.83067C2.73623 5.06687 2.81421 4.27517 3.11223 3.55568C3.41025 2.8362 3.91493 2.22125 4.56244 1.78859Z" fill="#222222" fill-opacity="0.4"/>
</svg>
