<svg width="194" height="65" viewBox="0 0 194 65" fill="none" xmlns="http://www.w3.org/2000/svg">
<path d="M11.3255 24.4954L11.5259 35.1151C11.5593 36.0835 11.409 36.7013 11.0751 36.9685C10.7745 37.2356 10.307 37.3692 9.67246 37.3692H2.50919C1.7411 37.3692 1.22348 37.2189 0.956317 36.9184C0.689155 36.6178 0.538877 35.9833 0.505482 35.0149L0.00455387 3.15585C-0.0288413 2.18738 0.121437 1.51948 0.455389 1.15214C0.822736 0.751392 1.44055 0.551021 2.30882 0.551021H22.0955C22.7968 0.551021 23.3144 0.684602 23.6484 0.951764C23.9823 1.21893 24.1493 1.70316 24.1493 2.40445V8.81633C24.1493 9.48424 23.9823 9.96847 23.6484 10.269C23.3144 10.5362 22.7968 10.6698 22.0955 10.6698H11.0751L11.1252 14.8776H20.3422C21.0435 14.8776 21.5612 15.0111 21.8951 15.2783C22.2291 15.5455 22.396 16.0297 22.396 16.731V22.6419C22.396 23.3432 22.2291 23.8275 21.8951 24.0946C21.5612 24.3618 21.0435 24.4954 20.3422 24.4954H11.3255Z" fill="#222222"/>
<path d="M38.5662 17.4824C40.6701 17.3488 42.1562 16.9648 43.0245 16.3303C43.8928 15.6957 44.3269 14.6271 44.3269 13.1243C44.3269 12.2894 44.1599 11.6048 43.826 11.0705C43.5254 10.5028 43.108 10.0687 42.5736 9.7681C42.0393 9.50093 41.4048 9.35066 40.6701 9.31726C39.9688 9.28387 39.2174 9.33396 38.4159 9.46754L38.5662 17.4824ZM27.1451 4.80891C27.1117 4.14101 27.095 3.60668 27.095 3.20594C27.1284 2.7718 27.2286 2.42115 27.3955 2.15399C27.5291 1.92022 27.7796 1.73655 28.1469 1.60297C28.5477 1.43599 29.0987 1.25232 29.8 1.05195C31.236 0.684601 32.8389 0.400744 34.6089 0.200373C36.4122 3.58292e-07 38.2323 -0.0500933 40.069 0.050093C41.9057 0.150279 43.6924 0.450836 45.4289 0.951764C47.1655 1.4193 48.7184 2.1206 50.0876 3.05566C51.4234 4.02412 52.492 5.25974 53.2935 6.76253C54.1284 8.26531 54.5458 10.102 54.5458 12.2727C54.5458 13.9425 54.3788 15.4119 54.0449 16.6809C53.7109 17.9165 53.2601 19.0019 52.6924 19.9369C52.0913 20.872 51.4067 21.6902 50.6386 22.3915C49.8705 23.0928 49.0356 23.7106 48.1339 24.2449L53.0931 32.0594C53.5941 32.8943 53.7276 33.5622 53.4939 34.0631C53.2601 34.5306 52.8427 34.8813 52.2416 35.1151L46.9818 37.0687C46.0467 37.436 45.3454 37.4861 44.8779 37.2189C44.4438 36.9852 44.0597 36.5844 43.7258 36.0167L38.8167 27.1002V35.1151C38.8167 35.9833 38.6831 36.5677 38.4159 36.8683C38.1488 37.2023 37.6479 37.3692 36.9132 37.3692H30.1005C29.3992 37.3692 28.915 37.2023 28.6478 36.8683C28.3807 36.5677 28.2304 35.9833 28.197 35.1151L27.1451 4.80891Z" fill="#222222"/>
<path d="M58.4088 2.8052C58.4088 1.93692 58.5424 1.3525 58.8096 1.05195C59.1101 0.717996 59.6111 0.551021 60.3124 0.551021H67.5257C68.2604 0.551021 68.7447 0.717996 68.9784 1.05195C69.2456 1.3525 69.3959 1.93692 69.4293 2.8052L69.9302 35.1151C69.9636 35.9833 69.83 36.5677 69.5294 36.8683C69.2623 37.2023 68.7614 37.3692 68.0267 37.3692H60.8133C60.112 37.3692 59.6278 37.2023 59.3606 36.8683C59.0934 36.5677 58.9432 35.9833 58.9098 35.1151L58.4088 2.8052Z" fill="#222222"/>
<path d="M85.2488 23.744L85.349 27.2505H94.9668C95.6681 27.2505 96.1857 27.4008 96.5197 27.7013C96.8536 27.9685 97.0206 28.436 97.0206 29.1039V35.4657C97.0206 36.167 96.8536 36.6512 96.5197 36.9184C96.1857 37.2189 95.6681 37.3692 94.9668 37.3692H76.6829C75.8147 37.3692 75.2302 37.1689 74.9297 36.7681C74.6291 36.4008 74.4621 35.7162 74.4288 34.7143L73.9779 3.15585C73.9445 2.18738 74.0948 1.51948 74.4288 1.15214C74.7961 0.751392 75.4139 0.551021 76.2822 0.551021H96.5698C97.2711 0.551021 97.7887 0.684602 98.1226 0.951764C98.4566 1.21893 98.6236 1.70316 98.6236 2.40445V8.81633C98.6236 9.48424 98.4566 9.96847 98.1226 10.269C97.7887 10.5362 97.2711 10.6698 96.5698 10.6698H84.9983L85.0484 13.6252H94.8165C95.5178 13.6252 96.0354 13.7588 96.3694 14.026C96.7033 14.2931 96.8703 14.7774 96.8703 15.4787V21.8906C96.8703 22.5919 96.7033 23.0761 96.3694 23.3432C96.0354 23.6104 95.5178 23.744 94.8165 23.744H85.2488Z" fill="#222222"/>
<path d="M113.567 20.538L113.817 35.1151C113.851 35.9165 113.734 36.4843 113.467 36.8182C113.233 37.1856 112.715 37.3692 111.914 37.3692H104.5C103.665 37.3692 103.131 37.1856 102.897 36.8182C102.697 36.4843 102.58 35.9165 102.546 35.1151L102.046 3.15585C102.012 2.18738 102.162 1.51948 102.496 1.15214C102.864 0.751392 103.482 0.551021 104.35 0.551021H110.511C111.513 0.551021 112.198 0.651206 112.565 0.851577C112.966 1.01855 113.316 1.43599 113.617 2.1039L121.331 17.7829V3.15585C121.331 2.18738 121.498 1.51948 121.832 1.15214C122.166 0.751392 122.767 0.551021 123.636 0.551021H129.797C130.665 0.551021 131.266 0.751392 131.6 1.15214C131.934 1.51948 132.101 2.18738 132.101 3.15585V34.7143C132.101 35.7162 131.934 36.4008 131.6 36.7681C131.3 37.1689 130.715 37.3692 129.847 37.3692H125.088C124.12 37.3692 123.385 37.1856 122.884 36.8182C122.383 36.4509 121.882 35.8164 121.381 34.9147L113.567 20.538Z" fill="#222222"/>
<path d="M136.844 3.30612C136.844 2.33766 136.995 1.68646 137.295 1.35251C137.596 0.985158 138.314 0.768089 139.449 0.7013C141.453 0.567719 143.473 0.551022 145.51 0.651208C147.581 0.751392 149.568 1.01855 151.471 1.45269C153.375 1.88683 155.162 2.52134 156.831 3.35622C158.501 4.1911 159.954 5.27644 161.189 6.61225C162.425 7.94806 163.394 9.56772 164.095 11.4713C164.83 13.3748 165.197 15.6123 165.197 18.1837C165.197 21.3228 164.629 24.0946 163.494 26.4991C162.358 28.8701 160.705 30.8572 158.535 32.4601C156.33 34.0631 153.625 35.2653 150.42 36.0668C147.214 36.9017 143.54 37.3191 139.399 37.3191C137.963 37.3191 137.245 36.5176 137.245 34.9147L136.844 3.30612ZM148.015 26.5492C148.95 26.3154 149.802 26.0316 150.57 25.6976C151.338 25.3303 151.989 24.8293 152.523 24.1948C153.058 23.5937 153.475 22.8089 153.776 21.8405C154.076 20.872 154.227 19.6364 154.227 18.1336C154.227 16.8646 154.06 15.7625 153.726 14.8275C153.392 13.8924 152.924 13.1243 152.323 12.5232C151.722 11.9221 151.021 11.4879 150.219 11.2208C149.418 10.9202 148.549 10.8033 147.614 10.8701L148.015 26.5492Z" fill="#222222"/>
<path d="M172.179 26.3488C172.747 26.5492 173.365 26.7496 174.033 26.9499C174.734 27.1503 175.452 27.334 176.187 27.5009C176.921 27.6679 177.639 27.8015 178.341 27.9017C179.075 28.0019 179.76 28.052 180.395 28.052C181.062 28.052 181.58 27.9184 181.947 27.6512C182.315 27.3841 182.498 26.9666 182.498 26.3989C182.498 25.8312 182.231 25.347 181.697 24.9462C181.163 24.5121 180.111 23.9611 178.541 23.2932C177.239 22.7254 175.97 22.141 174.734 21.5399C173.532 20.9054 172.463 20.1373 171.528 19.2356C170.56 18.334 169.792 17.2486 169.224 15.9796C168.656 14.7106 168.372 13.1577 168.372 11.321C168.372 9.85158 168.656 8.44899 169.224 7.11318C169.792 5.74398 170.643 4.52505 171.779 3.4564C172.881 2.42115 174.267 1.60297 175.936 1.00186C177.639 0.367347 179.626 0.050093 181.897 0.050093C183.868 0.050093 185.755 0.200372 187.558 0.500928C189.361 0.768091 191.198 1.26902 193.068 2.00371C193.469 2.17069 193.736 2.38776 193.87 2.65492C194.003 2.88869 194.037 3.28943 193.97 3.85714L193.319 11.1206C193.252 12.0891 192.734 12.3395 191.766 11.872C190.263 11.1707 188.693 10.6531 187.057 10.3191C185.454 9.98516 184.068 9.81819 182.899 9.81819C181.931 9.81819 181.129 9.95177 180.495 10.2189C179.894 10.4861 179.593 10.987 179.593 11.7217C179.593 12.1225 179.727 12.4731 179.994 12.7737C180.261 13.0742 180.662 13.3748 181.196 13.6753C181.73 13.9759 182.398 14.3098 183.2 14.6772C184.001 15.0111 184.92 15.4453 185.955 15.9796C187.057 16.5473 188.075 17.1317 189.011 17.7328C189.946 18.334 190.764 19.0353 191.465 19.8367C192.166 20.6716 192.717 21.6568 193.118 22.7922C193.519 23.9277 193.719 25.2969 193.719 26.8998C193.719 28.6698 193.419 30.2394 192.818 31.6086C192.216 32.9778 191.382 34.1132 190.313 35.0149C189.211 35.9499 187.909 36.6512 186.406 37.1188C184.903 37.6197 183.25 37.8702 181.447 37.8702C179.176 37.8702 177.105 37.6865 175.235 37.3191C173.398 36.9852 171.745 36.5677 170.276 36.0668C169.708 35.8664 169.341 35.6661 169.174 35.4657C169.007 35.2319 168.957 34.8813 169.024 34.4138L170.426 27.2505C170.593 26.282 171.178 25.9815 172.179 26.3488Z" fill="#222222"/>
<path d="M119.243 51.4625C119.43 51.4625 119.593 51.5093 119.734 51.6028C119.874 51.6963 119.944 51.8412 119.944 52.0376V55.4038C120.056 55.2168 120.197 55.0578 120.365 54.9269C120.533 54.7867 120.716 54.6745 120.912 54.5903C121.108 54.4968 121.314 54.4314 121.529 54.394C121.744 54.3472 121.95 54.3238 122.146 54.3238C123.137 54.3238 123.881 54.6277 124.376 55.2355C124.872 55.834 125.12 56.7223 125.12 57.9004V58.3773C125.12 59.5742 124.839 60.4719 124.278 61.0703C123.726 61.6688 122.988 61.968 122.062 61.968C121.557 61.968 121.118 61.8745 120.744 61.6875C120.379 61.5004 120.103 61.248 119.916 60.9301H119.874V61.3649C119.874 61.5612 119.804 61.7062 119.664 61.7997C119.533 61.8838 119.383 61.9259 119.215 61.9259C119.046 61.9259 118.892 61.8838 118.752 61.7997C118.621 61.7062 118.556 61.5612 118.556 61.3649V52.0376C118.556 51.8412 118.626 51.6963 118.766 51.6028C118.906 51.5093 119.065 51.4625 119.243 51.4625ZM121.908 55.5301C121.618 55.5301 121.351 55.5768 121.108 55.6703C120.865 55.7638 120.655 55.8994 120.477 56.0771C120.299 56.2454 120.159 56.4511 120.056 56.6942C119.963 56.9373 119.916 57.2085 119.916 57.5077V59.1207C119.916 59.3358 119.963 59.5415 120.056 59.7378C120.159 59.9342 120.299 60.1119 120.477 60.2708C120.655 60.4204 120.865 60.542 121.108 60.6355C121.351 60.729 121.623 60.7758 121.922 60.7758C122.502 60.7758 122.95 60.5794 123.268 60.1867C123.596 59.7846 123.759 59.1675 123.759 58.3353V57.9565C123.759 57.1337 123.61 56.5259 123.31 56.1332C123.02 55.7311 122.553 55.5301 121.908 55.5301Z" fill="#222222"/>
<path d="M132.519 54.4641C132.697 54.5202 132.828 54.623 132.912 54.7727C133.006 54.9129 133.015 55.0765 132.94 55.2636L129.363 64.3664C129.289 64.5534 129.172 64.6656 129.013 64.703C128.854 64.7498 128.686 64.7358 128.508 64.661C128.33 64.5862 128.204 64.4786 128.129 64.3384C128.064 64.2075 128.068 64.0579 128.143 63.8895L128.985 61.8417L126.376 55.3056C126.301 55.1093 126.31 54.941 126.404 54.8007C126.497 54.6511 126.628 54.5482 126.797 54.4921C126.965 54.4267 127.133 54.4127 127.302 54.4501C127.479 54.4875 127.606 54.6137 127.68 54.8288L129.672 60.2708H129.686L131.65 54.8288C131.724 54.623 131.846 54.5015 132.014 54.4641C132.192 54.4173 132.36 54.4173 132.519 54.4641Z" fill="#222222"/>
<path d="M146.092 55.4052L147.775 60.2971L149.258 55.2144C149.348 54.9068 149.628 54.6961 149.948 54.6961C150.435 54.6961 150.781 55.1737 150.63 55.6388L148.764 61.415C148.624 61.8457 148.224 62.1377 147.773 62.1377C147.33 62.1377 146.937 61.8571 146.79 61.4379L145.06 56.4752L143.374 61.4306C143.23 61.853 142.833 62.1377 142.388 62.1377H142.36C141.91 62.1377 141.511 61.8478 141.371 61.4192L139.492 55.6795C139.333 55.1946 139.693 54.6961 140.201 54.6961C140.532 54.6961 140.823 54.9141 140.918 55.2311L142.424 60.296L144.107 55.4042C144.254 54.9798 144.652 54.6951 145.099 54.6951C145.547 54.6961 145.945 54.9808 146.092 55.4052Z" fill="#222222"/>
<path d="M156.481 57.6549C156.563 57.6549 156.626 57.584 156.618 57.5016C156.528 56.5078 155.84 55.7518 154.592 55.7518C153.441 55.7518 152.717 56.5944 152.588 57.4964C152.576 57.5799 152.64 57.6549 152.724 57.6549H156.481ZM157.412 59.7865C157.81 59.9241 157.979 60.3944 157.762 60.7542C157.191 61.7021 156.151 62.3737 154.761 62.3737C152.772 62.3737 151.03 60.919 151.03 58.3974C151.03 56.0615 152.71 54.4681 154.576 54.4681C156.859 54.4681 158.138 56.0459 158.138 58.3672V58.3724C158.138 58.6248 157.932 58.8312 157.681 58.8312H152.525C152.557 60.1619 153.512 61.09 154.761 61.09C155.72 61.09 156.296 60.6676 156.632 60.0722C156.785 59.8 157.117 59.6843 157.412 59.7865Z" fill="#222222"/>
<path d="M176.659 58.4115C176.659 56.6908 175.578 55.7617 174.342 55.7617C173.107 55.7617 172.026 56.6919 172.026 58.4115C172.026 60.1467 173.107 61.0769 174.342 61.0769C175.578 61.0769 176.659 60.1467 176.659 58.4115ZM178.142 58.4115C178.142 60.6901 176.567 62.3784 174.342 62.3784C172.118 62.3784 170.542 60.689 170.542 58.4115C170.542 56.1486 172.118 54.4603 174.342 54.4603C176.567 54.4603 178.142 56.1486 178.142 58.4115Z" fill="#222222"/>
<path d="M184.879 58.4115C184.879 56.6908 183.798 55.7617 182.562 55.7617C181.326 55.7617 180.245 56.6919 180.245 58.4115C180.245 60.1467 181.326 61.0769 182.562 61.0769C183.797 61.0769 184.879 60.1467 184.879 58.4115ZM186.361 58.4115C186.361 60.6901 184.785 62.3784 182.561 62.3784C180.337 62.3784 178.761 60.689 178.761 58.4115C178.761 56.1486 180.337 54.4603 182.561 54.4603C184.785 54.4603 186.361 56.1486 186.361 58.4115Z" fill="#222222"/>
<path d="M188.315 62.1411H188.33C188.727 62.1411 189.048 61.8189 189.048 61.4205V51.6503C189.048 51.2478 188.723 50.9225 188.323 50.9225C187.922 50.9225 187.598 51.2489 187.598 51.6503V61.4216C187.596 61.8189 187.918 62.1411 188.315 62.1411Z" fill="#222222"/>
<path d="M191.616 53.9894C192.013 53.9894 192.334 54.3116 192.334 54.71V61.4216C192.334 61.8199 192.013 62.1421 191.616 62.1421C191.219 62.1421 190.898 61.8199 190.898 61.4216V54.71C190.898 54.3116 191.219 53.9894 191.616 53.9894ZM191.608 50.9225C192.134 50.9225 192.55 51.3396 192.55 51.8672C192.55 52.3814 192.134 52.7974 191.608 52.7974C191.096 52.7974 190.681 52.3803 190.681 51.8672C190.681 51.3396 191.096 50.9225 191.608 50.9225Z" fill="#222222"/>
<path d="M165.518 57.3817C165.518 57.8353 165.152 58.2023 164.7 58.2023C164.483 58.2023 164.286 58.1179 164.14 57.9792C164.139 57.9781 164.137 57.9771 164.135 57.9761C164.012 57.8613 163.933 57.7122 163.899 57.5537C163.887 57.4974 163.881 57.44 163.881 57.3806C163.881 57.2304 163.921 57.0907 163.991 56.9697C164.202 56.5192 165.031 56.2898 165.031 56.2898C165.031 56.2898 165.566 56.758 165.518 57.3817ZM163.625 55.1C163.728 55.173 163.827 55.2439 163.921 55.3137C163.59 55.4962 163.299 55.7215 163.07 55.9832C162.298 56.8655 162.386 58.2159 163.267 58.9949L163.296 59.0189C164.182 59.7186 165.56 59.5841 166.305 58.7258C166.898 58.0407 167.017 57.1262 166.619 56.2804C166.606 56.2512 166.537 56.1417 166.523 56.1115C167.013 56.2116 167.629 56.5474 168.052 57.1512C168.448 57.7164 168.51 59.0262 167.594 60.0127C167.295 60.3349 166.933 60.556 166.614 60.7009C166.045 60.9606 165.444 61.044 164.831 61.044C162.853 61.044 160.985 59.5914 160.985 56.6538C160.985 53.7172 162.916 52.2948 164.893 52.2948C166.137 52.2948 167.16 52.7891 167.817 53.6703C168.027 53.9518 168.402 54.053 168.722 53.9101C169.166 53.7109 169.308 53.1457 169.008 52.762C168.099 51.6044 166.64 50.8911 164.893 50.8911C162.168 50.8911 159.428 52.9069 159.428 56.6558C159.428 60.4048 162.013 62.4362 164.785 62.4362C165.81 62.4362 167.321 62.2756 168.572 60.9251C169.911 59.4808 169.914 57.4807 169.144 56.3816C168.476 55.4285 167.444 54.8674 166.238 54.8028C165.973 54.7882 165.709 54.7986 165.449 54.8309C165.229 54.6359 164.751 54.2866 164.381 54.0227C164.101 53.8236 163.714 53.8736 163.495 54.1385C163.25 54.4357 163.311 54.8778 163.625 55.1Z" fill="#222222"/>
</svg>
