<svg width="24" height="24" viewBox="0 0 24 24" fill="none" xmlns="http://www.w3.org/2000/svg">
<path d="M21.7531 20.6925L16.089 15.0285C17.4501 13.3945 18.1288 11.2987 17.9839 9.17705C17.8391 7.05541 16.8819 5.07129 15.3114 3.63744C13.7409 2.20358 11.6781 1.43039 9.55211 1.4787C7.42609 1.52701 5.40054 2.39311 3.89682 3.89682C2.39311 5.40054 1.52701 7.42609 1.4787 9.55211C1.43039 11.6781 2.20358 13.7409 3.63744 15.3114C5.07129 16.8819 7.05541 17.8391 9.17705 17.9839C11.2987 18.1288 13.3945 17.4501 15.0285 16.089L20.6925 21.7531L21.7531 20.6925ZM3.00311 9.75311C3.00311 8.41808 3.39899 7.11304 4.14069 6.00301C4.88239 4.89298 5.93659 4.02781 7.16999 3.51692C8.4034 3.00603 9.76059 2.87236 11.07 3.13281C12.3793 3.39326 13.5821 4.03613 14.5261 4.98014C15.4701 5.92414 16.113 7.12688 16.3734 8.43625C16.6339 9.74562 16.5002 11.1028 15.9893 12.3362C15.4784 13.5696 14.6132 14.6238 13.5032 15.3655C12.3932 16.1072 11.0881 16.5031 9.75311 16.5031C7.9635 16.5011 6.24777 15.7893 4.98233 14.5239C3.71689 13.2584 3.00509 11.5427 3.00311 9.75311Z" fill="#BABCC4"/>
</svg>
