<svg width="26" height="14" viewBox="0 0 26 14" fill="none" xmlns="http://www.w3.org/2000/svg">
<path d="M12.7472 11.1969V12.2148H0V11.1969H5.70022V7.783H6.90604V11.1969H12.7472ZM0.501119 6.9217C2.93624 6.50671 5.64541 4.47092 5.65324 2.12975V1.06488H6.93736V2.12975C6.94519 4.45526 9.69351 6.50671 12.1208 6.9217L11.5727 7.9396C9.45078 7.50112 7.21141 6.06823 6.31096 4.06376C5.39485 6.0604 3.17897 7.50112 1.04922 7.9396L0.501119 6.9217Z" fill="#222222"/>
<path d="M21.7837 1.67562V2.67785H13.9068V1.67562H17.2893V0H18.5108V1.67562H21.7837ZM14.7368 5.96644C14.7211 4.41611 16.0052 3.39038 17.8844 3.39821C19.748 3.39038 21.0556 4.41611 21.0634 5.96644C21.0556 7.52461 19.748 8.54251 17.8844 8.55034C16.0052 8.54251 14.7211 7.52461 14.7368 5.96644ZM15.8799 5.96644C15.8721 6.94519 16.6708 7.60291 17.8844 7.59508C19.0824 7.60291 19.9046 6.94519 19.9202 5.96644C19.9046 4.9877 19.0824 4.33781 17.8844 4.32215C16.6708 4.33781 15.8721 4.9877 15.8799 5.96644ZM16.1618 11.6353C16.1618 10.1163 17.9236 9.25503 20.8442 9.25503C23.7491 9.25503 25.5108 10.1163 25.5108 11.6353C25.5108 13.1309 23.7491 14 20.8442 14C17.9236 14 16.1618 13.1309 16.1618 11.6353ZM17.4303 11.6353C17.4381 12.5201 18.7301 13.0526 20.8442 13.0447C22.9269 13.0526 24.211 12.5201 24.211 11.6353C24.211 10.7271 22.9269 10.2181 20.8442 10.2103C18.7301 10.2181 17.4381 10.7271 17.4303 11.6353ZM21.7681 7.18792V6.17002H24.1954V4.47875H21.7837V3.46085H24.1954V0.10962H25.4325V9.11409H24.1954V7.18792H21.7681Z" fill="#222222"/>
</svg>
