<svg width="41" height="15" viewBox="0 0 41 15" fill="none" xmlns="http://www.w3.org/2000/svg">
<path d="M11.4787 0V14.6005H9.41351V0H11.4787ZM2.0492 1.15267V4.70676H5.18704V1.15267H7.20422V11.1906H0V1.15267H2.0492ZM2.0492 9.54159H5.18704V6.29168H2.0492V9.54159Z" fill="#222222"/>
<path d="M18.7958 2.28934C18.7958 4.05037 19.8204 5.74736 22.1257 6.46779L21.0371 8.05271C19.4922 7.54041 18.4115 6.54783 17.7872 5.26708C17.1548 6.73995 16.0261 7.89262 14.3612 8.45295L13.2565 6.85201C15.69 6.03553 16.7306 4.0984 16.7466 2.09723V0.76845H18.7958V2.28934ZM25.0394 0V3.41H27.0086V5.10699H25.0394V8.64506H22.9902V0H25.0394ZM20.2686 8.93323C23.2784 8.93323 25.1835 9.97384 25.1835 11.7509C25.1835 13.5439 23.2784 14.5685 20.2686 14.5685C17.1948 14.5685 15.2737 13.5439 15.2737 11.7509C15.2737 9.97384 17.1948 8.93323 20.2686 8.93323ZM20.2686 10.5342C18.3475 10.5342 17.3069 10.9504 17.3229 11.7509C17.3069 12.5834 18.3475 12.9676 20.2686 12.9676C22.1577 12.9676 23.1663 12.5834 23.1663 11.7509C23.1663 10.9504 22.1577 10.5342 20.2686 10.5342Z" fill="#222222"/>
<path d="M41.0015 6.6599V8.32487H27.6817V6.6599H41.0015ZM39.4806 4.01835V5.6353H29.2987V0.384225H39.4006V2.03319H31.3319V4.01835H39.4806ZM34.3096 9.20539C37.4635 9.20539 39.3686 10.166 39.3846 11.879C39.3686 13.608 37.4635 14.5685 34.3096 14.5685C31.1238 14.5685 29.2026 13.608 29.2026 11.879C29.2026 10.166 31.1238 9.20539 34.3096 9.20539ZM34.3096 10.7583C32.2924 10.7583 31.2678 11.1425 31.2838 11.879C31.2678 12.6474 32.2924 13.0156 34.3096 13.0156C36.2788 13.0156 37.3194 12.6474 37.3354 11.879C37.3194 11.1425 36.2788 10.7583 34.3096 10.7583Z" fill="#222222"/>
</svg>
