<svg width="122" height="14" viewBox="0 0 122 14" fill="none" xmlns="http://www.w3.org/2000/svg">
<path d="M11.9637 0V13.9577H10.7862V0H11.9637ZM0 10.0483C3.03803 8.25056 4.56097 5.73065 4.80432 2.81037H0.628016V1.78985H6.02896C6.02896 2.50421 5.96615 3.21073 5.84055 3.8937H7.96011V0.37681H9.13764V13.2511H7.96011V8.41542H5.36954V7.39489H7.96011V4.91423H5.59719C4.92208 7.27714 3.39129 9.36529 0.753619 10.9432L0 10.0483Z" fill="#222222"/>
<path d="M25.5139 0V8.32121H24.2736V4.66302H21.4632V3.64249H24.2736V0H25.5139ZM14.0055 7.20649C16.078 6.46072 17.5538 4.56882 17.5538 2.57487V2.05675H14.398V1.02053H21.9185V2.05675H18.7941V2.55917C18.7941 4.38041 20.1915 6.11531 22.2325 6.81398L21.5888 7.8031C20.0266 7.23789 18.8098 6.06036 18.2054 4.62377C17.6088 6.25661 16.3135 7.55975 14.6492 8.19561L14.0055 7.20649ZM16.2036 11.3514C16.1957 9.7107 17.9777 8.75298 20.8823 8.76083C23.779 8.75298 25.561 9.7107 25.561 11.3514C25.561 12.9999 23.779 13.942 20.8823 13.9577C17.9777 13.942 16.1957 12.9999 16.2036 11.3514ZM17.4282 11.3514C17.4204 12.3641 18.7392 12.9764 20.8823 12.9685C23.0175 12.9764 24.3364 12.3641 24.3364 11.3514C24.3364 10.3309 23.0175 9.71855 20.8823 9.71855C18.7392 9.71855 17.4204 10.3309 17.4282 11.3514Z" fill="#222222"/>
<path d="M39.3781 0V13.9891H38.1378V0H39.3781ZM28.3878 5.95045C28.3957 2.98308 29.8715 1.09118 31.9518 1.08333C34.0243 1.09118 35.5237 2.98308 35.5158 5.95045C35.5237 8.92568 34.0243 10.8097 31.9518 10.8019C29.8715 10.8097 28.3957 8.92568 28.3878 5.95045ZM29.5811 5.95045C29.5811 8.21916 30.5545 9.7107 31.9518 9.70285C33.357 9.7107 34.3226 8.21916 34.3226 5.95045C34.3226 3.68175 33.357 2.19021 31.9518 2.18236C30.5545 2.19021 29.5811 3.68175 29.5811 5.95045Z" fill="#222222"/>
<path d="M48.6429 8.19561V9.93836H51.1863V8.19561H52.3325V13.7693H47.481V8.19561H48.6429ZM46.0837 3.8309C46.0759 1.9233 47.5831 0.628016 49.7105 0.628016C51.5867 0.628016 53.0076 1.68779 53.2745 3.29709H56.1948V0H57.4351V7.39489H56.1948V4.31761H53.2823C53.039 5.96615 51.6024 7.04948 49.7105 7.04948C47.5831 7.04948 46.0759 5.74635 46.0837 3.8309ZM47.2612 3.8309C47.2612 5.11048 48.2739 6.02111 49.7105 6.02896C51.1157 6.02111 52.1284 5.11048 52.1284 3.8309C52.1284 2.55917 51.1157 1.66424 49.7105 1.66424C48.2739 1.66424 47.2612 2.55917 47.2612 3.8309ZM48.6429 12.7958H51.1863V10.8804H48.6429V12.7958ZM52.5209 12.9371C54.2008 12.2385 55.0879 10.7077 55.0957 9.29464V8.10141H56.3204V9.29464C56.3047 10.7626 57.1917 12.3091 58.8952 12.9371L58.2515 13.8792C56.9641 13.3689 56.1241 12.3798 55.6924 11.2258C55.2527 12.3641 54.3971 13.3532 53.1646 13.8792L52.5209 12.9371Z" fill="#222222"/>
<path d="M66.1496 0.910624C69.062 0.918474 71.2522 2.44141 71.2522 4.74152C71.2522 7.06518 69.062 8.58812 66.1496 8.57242C63.2372 8.58812 61.0469 7.06518 61.0469 4.74152C61.0469 2.44141 63.2372 0.918474 66.1496 0.910624ZM59.7909 12.105V11.0688H72.571V12.105H59.7909ZM62.2245 4.74152C62.2088 6.43717 63.8966 7.5676 66.1496 7.5676C68.3869 7.5676 70.059 6.43717 70.059 4.74152C70.059 3.06943 68.3869 1.9076 66.1496 1.91545C63.8966 1.9076 62.2088 3.06943 62.2245 4.74152Z" fill="#222222"/>
<path d="M85.242 0.0157004V10.2524H84.0174V0.0157004H85.242ZM73.8592 7.26929C75.9709 6.44502 77.4075 4.40396 77.4075 2.19806V0.800721H78.6636V2.19806C78.6479 4.32546 80.1001 6.23306 82.1804 6.98668L81.5367 7.97581C79.9196 7.35564 78.6636 6.09961 78.0434 4.49032C77.4389 6.20166 76.1672 7.57545 74.5343 8.22701L73.8592 7.26929ZM76.23 13.6594V9.31034H77.4546V12.6231H85.6816V13.6594H76.23Z" fill="#222222"/>
<path d="M98.4468 0V5.68355H100.708V6.71977H98.4468V13.9577H97.2222V0H98.4468ZM87.7391 10.3309C91.3424 8.54102 93.3049 5.8484 93.5875 2.54347H88.3829V1.50724H94.8357C94.8279 5.45589 92.9752 9.05913 88.43 11.3043L87.7391 10.3309Z" fill="#222222"/>
<path d="M114.352 11.1316V12.1678H101.572V11.1316H104.743V7.37134C103.55 6.75117 102.828 5.74635 102.828 4.47462C102.828 2.31581 104.948 0.894923 107.931 0.879223C110.914 0.894923 113.033 2.31581 113.033 4.47462C113.033 5.7228 112.335 6.71192 111.181 7.33209V11.1316H114.352ZM104.021 4.47462C104.013 6.03681 105.638 7.08088 107.931 7.08088C110.199 7.08088 111.84 6.03681 111.84 4.47462C111.84 2.91243 110.199 1.88405 107.931 1.89975C105.638 1.88405 104.013 2.91243 104.021 4.47462ZM105.952 11.1316H109.94V7.81095C109.336 7.96796 108.661 8.05431 107.931 8.05431C107.216 8.05431 106.549 7.97581 105.952 7.8188V11.1316Z" fill="#222222"/>
<path d="M117.728 9.40454C117.744 7.30069 118.388 6.65697 119.471 5.99755C120.123 5.60504 120.617 4.97703 120.617 4.09781C120.617 3.03018 119.785 2.34721 118.749 2.35506C117.854 2.34721 116.951 2.88102 116.865 4.17631H115.436C115.515 2.26871 116.951 1.16183 118.749 1.16183C120.719 1.16183 121.999 2.42571 121.999 4.16061C121.999 5.39309 121.418 6.24876 120.445 6.84538C119.463 7.44199 119.11 8.04646 119.079 9.40454V9.48304H117.728V9.40454ZM117.446 11.7596C117.43 11.2101 117.901 10.7548 118.451 10.7548C119.008 10.7548 119.463 11.2101 119.455 11.7596C119.463 12.317 119.008 12.7723 118.451 12.7801C117.901 12.7723 117.43 12.317 117.446 11.7596Z" fill="#222222"/>
</svg>
