<svg width="65" height="17" viewBox="0 0 65 17" fill="none" xmlns="http://www.w3.org/2000/svg">
<path d="M13.601 0V9.50132H11.3664V5.71839H8.8679V3.9061H11.3664V0H13.601ZM0 7.74182C2.62166 6.86207 3.81812 4.76826 3.87091 2.76242H0.651017V0.967727H9.34297V2.76242H6.15827C6.20225 4.6275 7.34593 6.51017 9.83563 7.33713L8.72714 9.09664C6.96764 8.5248 5.74478 7.36353 5.04978 5.92953C4.34598 7.55707 3.06154 8.8679 1.16127 9.51892L0 7.74182ZM2.62166 12.95C2.62166 11.0057 4.71547 9.86202 8.12891 9.85322C11.5511 9.86202 13.645 11.0057 13.6538 12.95C13.645 14.8942 11.5511 16.0291 8.12891 16.0291C4.71547 16.0291 2.62166 14.8942 2.62166 12.95ZM4.85623 12.95C4.85623 13.8649 6.00871 14.3224 8.12891 14.3224C10.2579 14.3224 11.4104 13.8649 11.4192 12.95C11.4104 12.0262 10.2579 11.5687 8.12891 11.5775C6.00871 11.5687 4.85623 12.0262 4.85623 12.95Z" fill="#222222"/>
<path d="M29.1206 0V16.0467H26.8509V0H29.1206ZM16.505 12.2989V1.26684H18.7572V5.17294H22.2058V1.26684H24.4228V12.2989H16.505ZM18.7572 10.4866H22.2058V6.91485H18.7572V10.4866Z" fill="#222222"/>
<path d="M41.3509 2.51609C41.3421 4.46034 42.477 6.32542 45.0107 7.1084L43.8142 8.85031C42.1163 8.28727 40.9286 7.19637 40.2424 5.79757C39.5474 7.40751 38.3069 8.67436 36.4771 9.29018L35.263 7.53068C37.9374 6.64213 39.0811 4.51313 39.0987 2.30495V0.844562H41.3509V2.51609ZM37.48 12.9148C37.4712 10.9705 39.5914 9.81803 42.9696 9.81803C46.2863 9.81803 48.3625 10.9705 48.3713 12.9148C48.3625 14.8766 46.2863 16.0203 42.9696 16.0115C39.5914 16.0203 37.4712 14.8766 37.48 12.9148ZM39.7321 12.9148C39.7145 13.8209 40.867 14.252 42.9696 14.252C45.0458 14.252 46.1543 13.8209 46.1543 12.9148C46.1543 12.0438 45.0458 11.5775 42.9696 11.5775C40.867 11.5775 39.7145 12.0438 39.7321 12.9148ZM45.9608 9.50132V0H48.213V3.74774H50.3771V5.61282H48.213V9.50132H45.9608Z" fill="#222222"/>
<path d="M58.1902 1.67153V3.44863H53.809V5.85915H57.8735V7.58346H53.809V10.4691C55.6125 10.4515 56.9321 10.3899 58.4893 10.1699L58.6477 11.9998C56.8002 12.2901 55.2254 12.3517 52.7885 12.3517H51.6624V1.67153H58.1902ZM59.3515 15.2725V0.228736H61.4629V6.21105H62.8529V0H64.9995V16.0115H62.8529V8.00574H61.4629V15.2725H59.3515Z" fill="#222222"/>
</svg>
