<svg width="46" height="46" viewBox="0 0 46 46" fill="none" xmlns="http://www.w3.org/2000/svg">
<g clip-path="url(#clip0_11_9339)">
<path d="M34.5026 21.0807V24.9141H42.1693V21.0807H34.5026ZM30.6693 33.7499C32.5093 35.1107 34.9051 36.9124 36.8026 38.3307C37.5693 37.3149 38.3359 36.2799 39.1026 35.2641C37.2051 33.8457 34.8093 32.0441 32.9693 30.6641C32.2026 31.6991 31.4359 32.7341 30.6693 33.7499ZM39.1026 10.7307C38.3359 9.7149 37.5693 8.6799 36.8026 7.66406C34.9051 9.0824 32.5093 10.8841 30.6693 12.2641C31.4359 13.2799 32.2026 14.3149 32.9693 15.3307C34.8093 13.9507 37.2051 12.1682 39.1026 10.7307ZM7.66927 17.2474C5.56094 17.2474 3.83594 18.9724 3.83594 21.0807V24.9141C3.83594 27.0224 5.56094 28.7474 7.66927 28.7474H9.58594V36.4141H13.4193V28.7474H15.3359L24.9193 34.4974V11.4974L15.3359 17.2474H7.66927ZM29.7109 22.9974C29.7109 20.4482 28.5993 18.1482 26.8359 16.5766V29.3991C28.5993 27.8466 29.7109 25.5466 29.7109 22.9974Z" fill="#FFE142"/>
</g>
<defs>
<clipPath id="clip0_11_9339">
<rect width="46" height="46" fill="white"/>
</clipPath>
</defs>
</svg>
