<svg width="85" height="9" viewBox="0 0 85 9" fill="none" xmlns="http://www.w3.org/2000/svg">
<path d="M2.98407 8.77521C1.09103 8.77521 -0.00587366 7.18293 2.36582e-05 4.3876C-0.00587366 1.61586 1.10282 0 2.98407 0C4.85941 0 5.96811 1.61586 5.96811 4.3876C5.96811 7.18293 4.87711 8.77521 2.98407 8.77521ZM1.02616 4.3876C1.03205 6.5991 1.74563 7.83164 2.98407 7.83164C4.21661 7.83164 4.93608 6.5991 4.93018 4.3876C4.93608 2.17611 4.21071 0.925879 2.98407 0.919981C1.75742 0.925879 1.03205 2.17611 1.02616 4.3876Z" fill="#222222" fill-opacity="0.4"/>
<path d="M10.427 0.117946V8.65726H9.35374V1.22664H9.30656L7.2307 2.60661V1.5333L9.35374 0.117946H10.427Z" fill="#222222" fill-opacity="0.4"/>
<path d="M15.5229 8.77521C13.6299 8.77521 12.533 7.18293 12.5389 4.3876C12.533 1.61586 13.6417 0 15.5229 0C17.3982 0 18.5069 1.61586 18.5069 4.3876C18.5069 7.18293 17.4159 8.77521 15.5229 8.77521ZM13.565 4.3876C13.5709 6.5991 14.2845 7.83164 15.5229 7.83164C16.7554 7.83164 17.4749 6.5991 17.469 4.3876C17.4749 2.17611 16.7495 0.925879 15.5229 0.919981C14.2963 0.925879 13.5709 2.17611 13.565 4.3876Z" fill="#222222" fill-opacity="0.4"/>
<path d="M23.6264 3.92761V4.85939H19.8875V3.92761H23.6264Z" fill="#222222" fill-opacity="0.4"/>
<path d="M28.2151 0.117946V8.65726H27.1417V1.22664H27.0946L25.0187 2.60661V1.5333L27.1417 0.117946H28.2151Z" fill="#222222" fill-opacity="0.4"/>
<path d="M30.5156 8.65726L30.5038 7.87882L33.4171 4.81221C34.4255 3.7389 34.9091 3.16096 34.915 2.37072C34.9091 1.49202 34.1778 0.925879 33.2165 0.919981C32.1963 0.925879 31.5594 1.56869 31.5535 2.52405H30.551C30.5392 1.01434 31.7068 0 33.2519 0C34.8029 0 35.8998 1.04383 35.9057 2.37072C35.8998 3.32609 35.4575 4.06915 33.9478 5.62604L31.9899 7.64292V7.71369H36.0591V8.65726H30.5156Z" fill="#222222" fill-opacity="0.4"/>
<path d="M40.577 8.77521C38.8785 8.77521 37.6578 7.86702 37.6047 6.51064H38.678C38.737 7.32447 39.5449 7.83164 40.5652 7.83164C41.6916 7.83164 42.5054 7.22421 42.5113 6.33372C42.5054 5.40194 41.7623 4.74734 40.4354 4.74144H39.7395V3.80967H40.4354C41.4734 3.80967 42.1987 3.22583 42.1928 2.34713C42.1987 1.49202 41.5736 0.925879 40.6006 0.919981C39.6865 0.925879 38.8549 1.42715 38.8078 2.26457H37.7816C37.8347 0.908187 39.0967 0 40.6123 0C42.24 0 43.2308 1.06741 43.219 2.28816C43.2308 3.26122 42.6646 3.96889 41.7682 4.22248V4.28145C42.8828 4.45247 43.5551 5.24861 43.5492 6.33372C43.5551 7.73728 42.2813 8.77521 40.577 8.77521Z" fill="#222222" fill-opacity="0.4"/>
<path d="M44.8944 6.91166V6.03885L48.7394 0.117946H50.0486V5.97988H51.2399V6.91166H50.0486V8.65726H49.0343V6.91166H44.8944ZM46.0384 5.97988H49.0343V1.46253H48.9281L46.0384 5.90911V5.97988Z" fill="#222222" fill-opacity="0.4"/>
<path d="M56.3475 3.92761V4.85939H52.6086V3.92761H56.3475Z" fill="#222222" fill-opacity="0.4"/>
<path d="M60.7003 8.77521C59.1611 8.77521 57.9934 7.82574 57.9286 6.51064H58.9547C59.0314 7.27139 59.7744 7.83753 60.7003 7.84343C61.809 7.83753 62.611 7.0296 62.611 5.95629C62.611 4.84759 61.7795 4.02787 60.6295 4.02197C59.9101 4.01018 59.3498 4.23427 59.0373 4.78862H58.0111L58.6127 0.117946H63.2362V1.06152H59.4973L59.1788 3.56198H59.2614C59.6447 3.26711 60.2167 3.0666 60.8183 3.0666C62.4459 3.0666 63.6431 4.26966 63.649 5.9327C63.6431 7.58395 62.4046 8.77521 60.7003 8.77521Z" fill="#222222" fill-opacity="0.4"/>
<path d="M68.1197 8.77521C66.6395 8.75752 65.0059 7.87882 65.0059 4.71785C65.0059 1.69253 66.2444 0 68.2494 0C69.7533 0 70.803 0.925879 71.0212 2.26457H69.9715C69.7768 1.50971 69.1989 0.943571 68.2494 0.943571C66.8459 0.943571 66.0026 2.14073 66.0085 4.19889H66.1146C66.6041 3.48531 67.3884 3.0666 68.3084 3.0666C69.824 3.0666 71.0919 4.24607 71.0919 5.89732C71.0919 7.50728 69.9184 8.7929 68.1197 8.77521ZM66.15 5.92091C66.1559 6.92345 66.9756 7.83753 68.1197 7.84343C69.2225 7.83753 70.0599 6.97063 70.0658 5.90911C70.0599 4.85939 69.2579 4.00428 68.1433 3.99838C67.0228 4.00428 66.1618 4.91247 66.15 5.92091Z" fill="#222222" fill-opacity="0.4"/>
<path d="M72.8499 8.65726L76.7657 1.12049V1.06152H72.2484V0.117946H77.8626V1.1087L73.9586 8.65726H72.8499Z" fill="#222222" fill-opacity="0.4"/>
<path d="M81.9559 8.77521C80.1573 8.77521 78.9188 7.77856 78.9247 6.39269C78.9188 5.28989 79.6855 4.37581 80.6585 4.22248V4.1753C79.8093 3.98069 79.2491 3.19635 79.255 2.26457C79.2491 0.961263 80.3932 0 81.9559 0C83.5128 0 84.6569 0.961263 84.6687 2.26457C84.6569 3.19635 84.0908 3.98069 83.2533 4.1753V4.22248C84.2205 4.37581 84.9872 5.28989 84.999 6.39269C84.9872 7.77856 83.7369 8.77521 81.9559 8.77521ZM79.9862 6.33372C79.9685 7.23011 80.7293 7.83753 81.9559 7.84343C83.1767 7.83753 83.9374 7.23011 83.9374 6.33372C83.9374 5.39015 83.1059 4.69426 81.9559 4.69426C80.8119 4.69426 79.9685 5.39015 79.9862 6.33372ZM80.2811 2.34713C80.287 3.20814 80.977 3.79198 81.9559 3.79787C82.929 3.79198 83.6308 3.20814 83.6308 2.34713C83.6308 1.49202 82.9526 0.914084 81.9559 0.919981C80.9416 0.914084 80.287 1.49202 80.2811 2.34713Z" fill="#222222" fill-opacity="0.4"/>
</svg>
