<svg width="27" height="14" viewBox="0 0 27 14" fill="none" xmlns="http://www.w3.org/2000/svg">
<path d="M12.7848 2.13078V3.15671H10.7014V5.11387H12.7848V6.15558H10.7014V8.33371H9.47024V0H10.7014V2.13078H12.7848ZM3.67768 0.852311C5.80846 0.836528 7.35525 2.19391 7.37103 4.15107C7.35525 6.10823 5.80846 7.43405 3.67768 7.44983C1.54691 7.43405 -0.015665 6.10823 0.000118503 4.15107C-0.015665 2.19391 1.54691 0.836528 3.67768 0.852311ZM3.67768 1.90981C2.25716 1.89402 1.19967 2.82525 1.21545 4.15107C1.19967 5.47689 2.25716 6.39233 3.67768 6.40812C5.11399 6.39233 6.1557 5.47689 6.1557 4.15107C6.1557 2.82525 5.11399 1.89402 3.67768 1.90981ZM6.20305 8.75986C9.05987 8.77565 10.8276 9.72266 10.8276 11.3957C10.8276 13.0372 9.05987 14 6.20305 14C3.33045 14 1.54691 13.0372 1.54691 11.3957C1.54691 9.72266 3.33045 8.77565 6.20305 8.75986ZM6.20305 9.77001C4.08806 9.77001 2.77802 10.3698 2.79381 11.3957C2.77802 12.4059 4.08806 13.0056 6.20305 13.0056C8.33383 13.0056 9.62808 12.4059 9.62808 11.3957C9.62808 10.3698 8.33383 9.77001 6.20305 9.77001Z" fill="#222222"/>
<path d="M25.8543 2.08343V3.10936H14.3639V2.08343H19.5093V0.236753H20.7247V2.08343H25.8543ZM26.5804 11.3641V12.3901H13.7326V11.3641H19.5093V9.39121C17.0155 9.25705 15.5003 8.28636 15.5161 6.708C15.5003 5.03495 17.2681 4.05637 20.1249 4.07215C22.9501 4.05637 24.7337 5.03495 24.7337 6.708C24.7337 8.28636 23.2027 9.25705 20.7247 9.39121V11.3641H26.5804ZM20.1249 5.05073C18.0257 5.05073 16.7472 5.66629 16.763 6.708C16.7472 7.78129 18.0257 8.38106 20.1249 8.39684C22.1925 8.38106 23.471 7.78129 23.471 6.708C23.471 5.66629 22.1925 5.05073 20.1249 5.05073Z" fill="#222222"/>
</svg>
