<svg width="27" height="14" viewBox="0 0 27 14" fill="none" xmlns="http://www.w3.org/2000/svg">
<path d="M12.7847 2.13078V3.15671H10.7013V5.11387H12.7847V6.15558H10.7013V8.33371H9.47015V0H10.7013V2.13078H12.7847ZM2.97589e-05 4.15107C-0.00786201 2.19391 1.55471 0.844419 3.67759 0.852311C5.81626 0.844419 7.35516 2.19391 7.37094 4.15107C7.35516 6.10034 5.81626 7.44194 3.67759 7.44983C1.55471 7.44194 -0.00786201 6.10034 2.97589e-05 4.15107ZM1.21536 4.15107C1.20747 5.47689 2.25708 6.39233 3.67759 6.40812C5.1139 6.39233 6.14772 5.47689 6.15561 4.15107C6.14772 2.83315 5.1139 1.89402 3.67759 1.90981C2.25708 1.89402 1.20747 2.83315 1.21536 4.15107ZM1.54682 11.3957C1.55471 9.73055 3.33825 8.76776 6.20296 8.75986C9.06767 8.76776 10.8275 9.73055 10.8275 11.3957C10.8275 13.0293 9.06767 14 6.20296 14C3.33825 14 1.55471 13.0293 1.54682 11.3957ZM2.79372 11.3957C2.77793 12.4059 4.08797 12.9977 6.20296 13.0056C8.32585 12.9977 9.6201 12.4059 9.62799 11.3957C9.6201 10.3777 8.32585 9.77001 6.20296 9.77001C4.08797 9.77001 2.77793 10.3777 2.79372 11.3957Z" fill="#222222"/>
<path d="M25.8542 2.08343V3.10936H14.3638V2.08343H19.5092V0.236753H20.7246V2.08343H25.8542ZM13.7325 12.3901V11.3641H19.5092V9.39121C17.0076 9.25705 15.5002 8.28636 15.516 6.708C15.5002 5.04284 17.2601 4.05637 20.1248 4.07215C22.9501 4.05637 24.7415 5.04284 24.7336 6.708C24.7415 8.28636 23.2026 9.25705 20.7246 9.39121V11.3641H26.5803V12.3901H13.7325ZM16.7629 6.708C16.7471 7.77339 18.0335 8.38895 20.1248 8.39684C22.1924 8.38895 23.4788 7.77339 23.4709 6.708C23.4788 5.66629 22.1924 5.05073 20.1248 5.05073C18.0335 5.05073 16.7471 5.66629 16.7629 6.708Z" fill="#222222"/>
</svg>
