<svg width="37" height="14" viewBox="0 0 37 14" fill="none" xmlns="http://www.w3.org/2000/svg">
<path d="M0 10.3896V9.22297L5.13964 1.30856H6.88964V9.14414H8.48198V10.3896H6.88964V12.723H5.53378V10.3896H0ZM1.52928 9.14414H5.53378V3.10586H5.39189L1.52928 9.04955V9.14414Z" fill="#222222"/>
<path d="M21.458 0V10.2477H20.2282V0H21.458ZM10.217 4.41441C10.2091 2.3964 11.7935 0.98536 13.8904 0.977477C15.9872 0.98536 17.5559 2.3964 17.5638 4.41441C17.5559 6.45608 15.9872 7.875 13.8904 7.86712C11.7935 7.875 10.2091 6.45608 10.217 4.41441ZM11.4309 4.41441C11.4152 5.80968 12.4715 6.77928 13.8904 6.77928C15.2857 6.77928 16.3499 5.80968 16.3499 4.41441C16.3499 3.04279 15.2857 2.06532 13.8904 2.06532C12.4715 2.06532 11.4152 3.04279 11.4309 4.41441ZM12.4084 13.7005V9.20721H13.6381V12.6599H21.8994V13.7005H12.4084Z" fill="#222222"/>
<path d="M30.9024 0.867117C30.8945 2.65653 33.4486 4.24887 35.8844 4.57207L35.4272 5.54955C33.2909 5.21847 31.1625 4.08333 30.2718 2.49887C29.3889 4.10698 27.2605 5.21847 25.1006 5.54955L24.6119 4.57207C27.095 4.24887 29.6254 2.69595 29.6254 0.867117V0.220721H30.9024V0.867117ZM23.8709 7.69369V6.68468H36.6412V7.69369H23.8709ZM25.4159 11.4932C25.408 9.89302 27.2132 9.01014 30.256 9.01802C33.2594 9.01014 35.0646 9.89302 35.0803 11.4932C35.0646 13.0935 33.2594 13.9842 30.256 14C27.2132 13.9842 25.408 13.0935 25.4159 11.4932ZM26.6772 11.4932C26.6614 12.4628 28.0094 13.0146 30.256 13.0068C32.479 13.0146 33.827 12.4628 33.8348 11.4932C33.827 10.5394 32.479 9.97973 30.256 9.96396C28.0094 9.97973 26.6614 10.5394 26.6772 11.4932Z" fill="#222222"/>
</svg>
