<svg width="44" height="17" viewBox="0 0 44 17" fill="none" xmlns="http://www.w3.org/2000/svg">
<path d="M12.5765 9.86634V16.1546H10.3092V11.6908H1.48792V9.86634H12.5765ZM0 8.343V0.867955H2.26731V6.47424C4.34863 6.42995 6.60709 6.24396 8.94525 5.79227L9.21095 7.61675C6.43881 8.16586 3.82609 8.343 1.39936 8.343H0ZM10.3092 9.21095V0.0177134H12.5765V9.21095H10.3092Z" fill="#222222"/>
<path d="M17.6788 1.54106V10.318C19.1579 10.2915 20.5218 10.1852 22.0363 9.86634L22.3374 11.7617C20.3535 12.1957 18.6176 12.2665 16.5451 12.2576H15.4115V1.54106H17.6788ZM19.9461 6.92593V5.10145H23.1699V0.301127H25.3132V15.4106H23.1699V6.92593H19.9461ZM26.6418 16.1192V0H28.7674V16.1192H26.6418Z" fill="#222222"/>
<path d="M44.0017 0.0177134V9.12238H41.7344V0.0177134H44.0017ZM30.7521 4.6409C30.7521 2.33816 32.6474 0.743961 35.1627 0.743961C37.6692 0.743961 39.5645 2.33816 39.5734 4.6409C39.5645 6.85507 37.6692 8.4847 35.1627 8.4847C32.6474 8.4847 30.7521 6.85507 30.7521 4.6409ZM32.9663 4.6409C32.9486 5.83655 33.8697 6.58937 35.1627 6.58937C36.4204 6.58937 37.3326 5.83655 37.3415 4.6409C37.3326 3.3744 36.4204 2.63929 35.1627 2.63929C33.8697 2.63929 32.9486 3.3744 32.9663 4.6409ZM33.1965 15.942V9.84863H44.0017V15.942H33.1965ZM35.4284 14.1353H41.7875V11.6377H35.4284V14.1353Z" fill="#222222"/>
</svg>
